<svg width="109" height="40" fill="none" xmlns="http://www.w3.org/2000/svg"><g clip-path="url(#clip0_1641_528)"><path d="M106.815 8.14505C106.637 8.0627 88.6392 0 54.1755 0C19.7118 0 1.63114 8.06801 1.45049 8.15036C0.976709 8.40947 0.589153 8.80163 0.335644 9.27843C0.0821356 9.75523 -0.0262309 10.2958 0.0239137 10.8335L4.54009 38.2254C4.6447 38.7093 4.906 39.1453 5.28351 39.4656C5.66101 39.786 6.13364 39.9729 6.62815 39.9973H101.627C102.122 39.9734 102.595 39.7868 102.973 39.4664C103.351 39.146 103.613 38.7098 103.718 38.2254L108.234 10.8335C108.286 10.2958 108.18 9.75448 107.928 9.27664C107.676 8.7988 107.289 8.40538 106.815 8.14505Z" fill="#DA0A15"/><path d="M34.5886 9.69385V32.6732H31.236V22.8997H27.8993V32.6732H24.5813V10.9849L27.902 10.4828V19.8765H31.236V10.0605L34.5886 9.69385Z" fill="white"/><path d="M45.5575 32.6731V29.6579H39.9123V22.8996H44.641V19.8764H39.9123V12.1989L45.5283 11.8296V8.81177L36.5916 9.43606V32.6731H45.5575Z" fill="white"/><path d="M67.2139 26.1352L69.7297 17.9769V32.6731H73.077V9.38821L69.9475 9.1624L66.7517 18.2798L63.8268 8.89674L60.5938 8.71875V32.6731H63.8666V17.9769L66.308 26.1352H67.2139Z" fill="white"/><path d="M85.8471 27.283C85.8471 28.7203 85.2761 30.0987 84.2598 31.1151C83.2435 32.1314 81.865 32.7024 80.4277 32.7024C78.9904 32.7024 77.6119 32.1314 76.5956 31.1151C75.5793 30.0987 75.0083 28.7203 75.0083 27.283V15.5144C75.0083 14.0771 75.5793 12.6986 76.5956 11.6823C77.6119 10.6659 78.9904 10.095 80.4277 10.095C81.865 10.095 83.2435 10.6659 84.2598 11.6823C85.2761 12.6986 85.8471 14.0771 85.8471 15.5144V27.283ZM80.4277 29.6739C80.9768 29.6683 81.5012 29.4449 81.8858 29.0529C82.2703 28.6609 82.4835 28.1323 82.4786 27.5832V15.1637C82.4786 14.6198 82.2625 14.0981 81.8779 13.7135C81.4933 13.3289 80.9716 13.1128 80.4277 13.1128C79.8838 13.1128 79.3621 13.3289 78.9775 13.7135C78.5929 14.0981 78.3768 14.6198 78.3768 15.1637V27.5911C78.3719 28.1403 78.5851 28.6689 78.9696 29.0609C79.3542 29.4529 79.8786 29.6763 80.4277 29.6819V29.6739Z" fill="white"/><path d="M19.2017 32.6732L19.199 15.0389L22.9368 14.2898V11.2639L12.114 13.3626V16.3938L15.881 15.6419V32.6732H19.2017Z" fill="white"/><path d="M93.2138 21.4227C90.7007 18.6519 90.4456 17.839 90.4456 16.5293C90.4456 15.7005 90.597 15.1612 90.9052 14.8689C91.0488 14.754 91.2152 14.6709 91.3934 14.6251C91.5715 14.5793 91.7574 14.5719 91.9386 14.6033C92.3049 14.6067 92.6555 14.7525 92.9162 15.0097C93.2573 15.3679 93.4476 15.8435 93.4476 16.338V18.0834L96.2502 18.2481V16.2318C96.2502 14.9646 95.9846 14.1331 95.3975 13.5407C94.4832 12.6943 93.3022 12.1935 92.0582 12.1247C90.4802 11.9945 89.3352 12.2841 88.5595 13.0093C87.7837 13.7346 87.3746 14.9646 87.3746 16.6807C87.3746 19.4409 88.7932 21.1756 90.6449 23.1389C93.5485 26.1248 93.5485 26.6057 93.5485 28.2076C93.5485 29.0497 93.3918 29.597 93.0544 29.9264C92.8979 30.0673 92.7141 30.1745 92.5143 30.2412C92.3146 30.308 92.1032 30.3328 91.8935 30.3142C91.7199 30.3219 91.5466 30.2938 91.3844 30.2316C91.2221 30.1695 91.0744 30.0746 90.9504 29.953C90.5396 29.4979 90.324 28.8998 90.35 28.2873V26.4755L87.3746 26.3985V28.9966C87.3746 30.1017 87.6934 30.9917 88.3204 31.6346C89.0802 32.4156 90.2544 32.8088 91.8085 32.8088C93.3625 32.8088 94.465 32.4342 95.2301 31.6691C96.0616 30.8509 96.4681 29.5837 96.4681 27.7985C96.4681 25.3757 95.9527 24.3715 93.2244 21.436L93.2138 21.4227Z" fill="white"/><path d="M50.6608 11.6252V20.1129C53.0172 20.1129 53.684 19.6533 54.1887 19.1911C54.9166 18.527 55.3151 16.8825 55.3151 15.5038C55.3151 14.0188 54.9804 12.9907 54.2923 12.3584C53.761 11.8669 53.0198 11.6252 52.0529 11.6252H50.6608ZM57.3022 20.3919C56.9491 20.9771 56.4562 21.4654 55.8677 21.8131L58.6783 32.6732H55.2248L53.0092 22.7376C52.234 22.8545 51.4499 22.9025 50.6661 22.8811V32.6732H47.3268C47.3268 32.6732 47.3268 9.67792 47.3268 8.72687L51.9067 8.62061C54.2658 8.62061 55.95 8.97393 57.0472 10.0738C58.1444 11.1736 58.6544 12.8127 58.6544 15.0442C58.6544 16.5292 58.2692 18.8059 57.3076 20.3866L57.3022 20.3919Z" fill="white"/><path d="M98.333 30.524H98.9546C99.1173 30.5081 99.2814 30.528 99.4355 30.5825C99.5177 30.6195 99.5878 30.6791 99.6377 30.7543C99.6875 30.8295 99.715 30.9173 99.7171 31.0075C99.715 31.1416 99.6599 31.2695 99.5638 31.363C99.4677 31.4566 99.3385 31.5084 99.2044 31.507C99.3398 31.5574 99.4408 31.6637 99.6214 31.9559L99.8393 32.3039H99.4859L99.3239 32.033C99.0954 31.6292 99.0104 31.5548 98.7926 31.5548H98.6226V32.3146H98.333V30.524ZM98.9759 31.3077C99.2734 31.3077 99.4089 31.2254 99.4089 31.0421C99.4089 30.8588 99.292 30.7764 98.9546 30.7764H98.6226V31.3077H98.9759ZM100.729 31.3927C100.729 31.7223 100.631 32.0444 100.448 32.3184C100.265 32.5924 100.005 32.8059 99.7004 32.9319C99.3959 33.0579 99.0608 33.0907 98.7376 33.0262C98.4144 32.9617 98.1176 32.8028 97.8848 32.5696C97.652 32.3364 97.4935 32.0393 97.4296 31.7161C97.3656 31.3928 97.399 31.0578 97.5254 30.7535C97.6519 30.4491 97.8658 30.1892 98.1401 30.0065C98.4144 29.8238 98.7367 29.7265 99.0662 29.7271C99.5075 29.7278 99.9305 29.9036 100.242 30.2159C100.554 30.5282 100.729 30.9514 100.729 31.3927ZM97.6768 31.3927C97.6763 31.6676 97.7573 31.9365 97.9097 32.1653C98.062 32.3942 98.2788 32.5727 98.5327 32.6782C98.7865 32.7838 99.066 32.8117 99.3356 32.7584C99.6053 32.7051 99.8531 32.573 100.048 32.3788C100.242 32.1846 100.375 31.937 100.429 31.6674C100.483 31.3978 100.455 31.1183 100.35 30.8643C100.245 30.6103 100.067 30.3931 99.8384 30.2403C99.6098 30.0876 99.3411 30.006 99.0662 30.006C98.6982 30.006 98.3452 30.152 98.0847 30.412C97.8242 30.672 97.6775 31.0247 97.6768 31.3927Z" fill="white"/></g><defs><clipPath id="clip0_1641_528"><rect width="108.266" height="40" fill="white"/></clipPath></defs></svg>