<svg xmlns="http://www.w3.org/2000/svg" width="24" height="24" viewBox="0 0 24 24">
  <path fill-rule="evenodd" d="M3.5 2A1.5 1.5 0 0 1 5 .5h14A1.5 1.5 0 0 1 20.5 2v20a1.5 1.5 0 0 1-1.5 1.5H5A1.5 1.5 0 0 1 3.5 22V2ZM5 1.5a.5.5 0 0 0-.5.5v20a.5.5 0 0 0 .5.5h14a.5.5 0 0 0 .5-.5V2a.5.5 0 0 0-.5-.5H5Zm7 3a4.5 4.5 0 0 0-.877 8.915l.409-1.09a.5.5 0 0 1 .936.35l-.308.822A4.5 4.5 0 0 0 12 4.5Zm-.214 9.996a5.5 5.5 0 1 0-1.018-.134l-.736 1.962a.5.5 0 0 0 .936.351l.818-2.18ZM12 8.5a.5.5 0 1 0 0 1 .5.5 0 0 0 0-1Zm-1.5.5a1.5 1.5 0 1 1 3 0 1.5 1.5 0 0 1-3 0ZM7 14.5a.5.5 0 0 1 .5.5v4.5h6.02c.075-.856.35-1.576.876-2.104.528-.527 1.248-.801 2.104-.875V15a.5.5 0 0 1 1 0v2a.5.5 0 0 1-.5.5c-.923 0-1.523.23-1.896.604-.374.373-.604.973-.604 1.896a.5.5 0 0 1-.5.5H7a.5.5 0 0 1-.5-.5v-5a.5.5 0 0 1 .5-.5Zm8.5 5a1 1 0 1 1 2 0 1 1 0 0 1-2 0Z" clip-rule="evenodd"/>
</svg>
