<svg xmlns="http://www.w3.org/2000/svg" width="24" height="24" viewBox="0 0 24 24">
  <path fill-rule="evenodd" d="M2.5 2A1.5 1.5 0 0 1 4 .5h16A1.5 1.5 0 0 1 21.5 2v20a1.5 1.5 0 0 1-1.5 1.5H4A1.5 1.5 0 0 1 2.5 22V2ZM4 1.5a.5.5 0 0 0-.5.5v13h9a.5.5 0 0 1 0 1h-9v6a.5.5 0 0 0 .5.5h16a.5.5 0 0 0 .5-.5V2a.5.5 0 0 0-.5-.5H4ZM16.5 3a.5.5 0 0 1 .5.5v10a.5.5 0 0 1-1 0v-10a.5.5 0 0 1 .5-.5Zm2 0a.5.5 0 0 1 .5.5v10a.5.5 0 0 1-1 0v-10a.5.5 0 0 1 .5-.5ZM8.45 4.5a.5.5 0 0 1 .5.5v.9h1.1V5a.5.5 0 0 1 1 0v.91a1.2 1.2 0 0 1 1.04 1.04H13a.5.5 0 0 1 0 1h-.9v1.1h.9a.5.5 0 0 1 0 1h-.91a1.2 1.2 0 0 1-1.04 1.04V12a.5.5 0 0 1-1 0v-.9h-1.1v.9a.5.5 0 0 1-1 0v-.91a1.2 1.2 0 0 1-1.04-1.04H6a.5.5 0 0 1 0-1h.9v-1.1H6a.5.5 0 0 1 0-1h.91a1.2 1.2 0 0 1 1.04-1.04V5a.5.5 0 0 1 .5-.5ZM8.1 6.9a.2.2 0 0 0-.2.2v2.8c0 .11.09.2.2.2h2.8a.2.2 0 0 0 .2-.2V7.1a.2.2 0 0 0-.2-.2H8.1ZM6 17.5a.5.5 0 0 1 .5-.5h6a.5.5 0 0 1 0 1h-6a.5.5 0 0 1-.5-.5Zm10 0a.5.5 0 0 1 .5-.5h2a.5.5 0 0 1 0 1h-2a.5.5 0 0 1-.5-.5Zm-10 2a.5.5 0 0 1 .5-.5h6a.5.5 0 0 1 0 1h-6a.5.5 0 0 1-.5-.5Zm10 0a.5.5 0 0 1 .5-.5h2a.5.5 0 0 1 0 1h-2a.5.5 0 0 1-.5-.5Z" clip-rule="evenodd"/>
</svg>
