<svg xmlns="http://www.w3.org/2000/svg" width="24" height="24" viewBox="0 0 24 24">
  <path fill-rule="evenodd" d="M22.325.62A.5.5 0 0 1 22.5 1v10a.5.5 0 0 1-.5.5h-9.5a.5.5 0 0 1-.5-.5V2.5a.5.5 0 0 1 .422-.494l9.5-1.5a.5.5 0 0 1 .403.114ZM13 2.927V10.5h8.5V1.585L13 2.927Zm-2.692-.321A.5.5 0 0 1 10.5 3v8a.5.5 0 0 1-.5.5H2a.5.5 0 0 1-.5-.5V5a.5.5 0 0 1 .379-.485l8-2a.5.5 0 0 1 .429.09ZM2.5 5.39v5.11h7V3.64l-7 1.75ZM1.5 13a.5.5 0 0 1 .5-.5h8a.5.5 0 0 1 .5.5v8a.5.5 0 0 1-.621.485l-8-2A.5.5 0 0 1 1.5 19v-6Zm1 .5v5.11l7 1.75V13.5h-7ZM12 13a.5.5 0 0 1 .5-.5H22a.5.5 0 0 1 .5.5v10a.5.5 0 0 1-.578.494l-9.5-1.5A.5.5 0 0 1 12 21.5V13Zm1 .5v7.573l8.5 1.342V13.5H13Z" clip-rule="evenodd"/>
</svg>
