<svg xmlns="http://www.w3.org/2000/svg" width="24" height="24" viewBox="0 0 24 24">
  <path fill-rule="evenodd" d="M7.75.5a.5.5 0 0 1 .5.5v2.5h3.5V1a.5.5 0 0 1 1 0v2.5h3.5V1a.5.5 0 0 1 1 0v2.5h2a1.5 1.5 0 0 1 1.5 1.5v2H23a.5.5 0 0 1 0 1h-2.25v3.5H23a.5.5 0 0 1 0 1h-2.25V16H23a.5.5 0 0 1 0 1h-2.25v2a1.5 1.5 0 0 1-1.5 1.5h-2V23a.5.5 0 0 1-1 0v-2.5h-3.5V23a.5.5 0 0 1-1 0v-2.5h-3.5V23a.5.5 0 0 1-1 0v-2.5h-2a1.5 1.5 0 0 1-1.5-1.5v-2H1a.5.5 0 0 1 0-1h2.75v-3.5H1a.5.5 0 0 1 0-1h2.75V8H1a.5.5 0 0 1 0-1h2.75V5a1.5 1.5 0 0 1 1.5-1.5h2V1a.5.5 0 0 1 .5-.5Zm-2.5 4a.5.5 0 0 0-.5.5v14a.5.5 0 0 0 .5.5h14a.5.5 0 0 0 .5-.5V5a.5.5 0 0 0-.5-.5h-14ZM6.75 8a1.5 1.5 0 0 1 1.5-1.5h8a1.5 1.5 0 0 1 1.5 1.5v8a1.5 1.5 0 0 1-1.5 1.5h-8a1.5 1.5 0 0 1-1.5-1.5V8Zm1.5-.5a.5.5 0 0 0-.5.5v8a.5.5 0 0 0 .5.5h8a.5.5 0 0 0 .5-.5V8a.5.5 0 0 0-.5-.5h-8Z" clip-rule="evenodd"/>
</svg>
