<svg width="40" height="40" fill="none" xmlns="http://www.w3.org/2000/svg"><path d="M28.2833 14.6951L12.4812 5.21388" stroke="#DC3E48" stroke-width="2" stroke-linecap="round" stroke-linejoin="round"/><path d="M37 27.4406V12.3295C36.9993 11.667 36.8244 11.0163 36.4929 10.4428C36.1614 9.86921 35.6848 9.39292 35.1111 9.06168L21.8889 1.50613C21.3146 1.17456 20.6631 1 20 1C19.3369 1 18.6854 1.17456 18.1111 1.50613L4.88889 9.06168C4.31516 9.39292 3.83863 9.86921 3.50709 10.4428C3.17556 11.0163 3.00068 11.667 3 12.3295V27.4406C3.00068 28.1031 3.17556 28.7537 3.50709 29.3273C3.83863 29.9008 4.31516 30.3771 4.88889 30.7083L18.1111 38.2639C18.6854 38.5955 19.3369 38.77 20 38.77C20.6631 38.77 21.3146 38.5955 21.8889 38.2639L35.1111 30.7083C35.6848 30.3771 36.1614 29.9008 36.4929 29.3273C36.8244 28.7537 36.9993 28.1031 37 27.4406Z" stroke="#DC3E48" stroke-width="2" stroke-linecap="round" stroke-linejoin="round"/><path d="M3.52673 10.4812L19.9999 19.9038L35.6576 11.008" stroke="#DC3E48" stroke-width="2" stroke-linecap="round" stroke-linejoin="round"/><path d="M19.8555 37.8715L19.8555 19.9625" stroke="#DC3E48" stroke-width="2" stroke-linecap="round" stroke-linejoin="round"/><line x1="7.53841" y1="18.591" x2="14.2702" y2="22.7984" stroke="#DC3E48" stroke-width="2" stroke-linecap="round"/><line x1="7.53841" y1="18.591" x2="14.2702" y2="22.7984" stroke="#DC3E48" stroke-width="2" stroke-linecap="round"/><line x1="7.5324" y1="22.7799" x2="11.0848" y2="24.9113" stroke="#DC3E48" stroke-width="2" stroke-linecap="round"/><line x1="7.5324" y1="22.7799" x2="11.0848" y2="24.9113" stroke="#DC3E48" stroke-width="2" stroke-linecap="round"/></svg>