<?xml version="1.0" encoding="utf-8"?><svg version="1.1" id="Layer_1" xmlns="http://www.w3.org/2000/svg" xmlns:xlink="http://www.w3.org/1999/xlink" x="0px" y="0px" viewBox="0 0 40 40" style="enable-background:new 0 0 40 40" xml:space="preserve"><style type="text/css">.st0{fill:#DC3E48;}</style><path class="st0" d="M30,13.7l-0.8-0.8c-1.2-1.2-3.1-1.2-4.2,0l-6.3,6.3L16,16.5c-1.2-1.2-3.1-1.2-4.2,0L11,17.3
	c-1.2,1.2-1.2,3.1,0,4.2l4.8,4.8c0,0,0,0,0,0l0.8,0.8c0.6,0.6,1.4,0.9,2.1,0.9c0.1,0,0.1,0,0.1,0c0.7,0,1.4-0.3,2-0.9l0.8-0.8
	c0,0,0,0,0,0l8.4-8.4C31.2,16.7,31.2,14.8,30,13.7z M28.6,16.5l-8.4,8.4l0,0l0,0c0,0,0,0,0,0l-0.8,0.8C19.2,25.9,19,26,18.7,26
	c-0.3,0-0.6-0.1-0.8-0.3l-0.8-0.8c0,0,0,0,0,0l0,0l0,0l-4.8-4.8c-0.4-0.4-0.4-1,0-1.4l0.8-0.8c0.4-0.4,1-0.4,1.4,0l3.4,3.4l0.7,0.7
	l0.7-0.7l7-7c0.4-0.4,1-0.4,1.4,0l0.8,0.8C29,15.5,29,16.1,28.6,16.5z"/><path class="st0" d="M20.1,2.8c0.4,0,0.7,0.1,1,0.3l13.1,7.6c0.6,0.4,1,1,1,1.8v15.1c0,0.7-0.4,1.4-1,1.8l-13.1,7.6
	c-0.3,0.2-0.7,0.3-1,0.3c-0.4,0-0.7-0.1-1-0.3L5.9,29.3c-0.6-0.4-1-1-1-1.8V12.4c0-0.7,0.4-1.4,1-1.8L19,3.1
	C19.4,2.9,19.7,2.8,20.1,2.8 M20.1,0.6c-0.7,0-1.5,0.2-2.1,0.6L4.8,8.8c-1.3,0.8-2.1,2.1-2.1,3.6v15.1c0,1.5,0.8,2.9,2.1,3.6
	L18,38.8c0.7,0.4,1.4,0.6,2.1,0.6s1.5-0.2,2.1-0.6l13.1-7.6c1.3-0.8,2.1-2.1,2.1-3.6V12.4c0-1.5-0.8-2.9-2.1-3.6L22.2,1.2
	C21.5,0.8,20.8,0.6,20.1,0.6L20.1,0.6z"/></svg>