<svg width="40" height="40" fill="none" xmlns="http://www.w3.org/2000/svg"><rect width="40" height="40" fill="white"/><path d="M32.1818 14.0909C32.1818 18.7799 29.1434 23.2633 25.9104 26.6759C24.3144 28.3606 22.715 29.7382 21.5134 30.695C20.9266 31.1623 20.4366 31.5277 20.0909 31.7778C19.7452 31.5277 19.2552 31.1623 18.6684 30.695C17.4669 29.7382 15.8674 28.3606 14.2714 26.6759C11.0385 23.2633 8 18.7799 8 14.0909C8 10.8842 9.27386 7.80883 11.5413 5.54135C13.8088 3.27386 16.8842 2 20.0909 2C23.2976 2 26.373 3.27386 28.6405 5.54134C30.908 7.80883 32.1818 10.8842 32.1818 14.0909Z" fill="white" stroke="#DC3E48" stroke-width="2" stroke-linecap="round" stroke-linejoin="round"/><path d="M20.0909 18.4545C22.5009 18.4545 24.4545 16.5009 24.4545 14.0909C24.4545 11.6809 22.5009 9.72725 20.0909 9.72725C17.6809 9.72725 15.7273 11.6809 15.7273 14.0909C15.7273 16.5009 17.6809 18.4545 20.0909 18.4545Z" fill="white" stroke="#DC3E48" stroke-width="2" stroke-linecap="round" stroke-linejoin="round"/><path fill-rule="evenodd" clip-rule="evenodd" d="M11.4923 25H5.70333C4.40608 25 3.25578 25.8338 2.8522 27.0667L0.233391 35.0667C-0.401537 37.0063 1.04364 39 3.08451 39H36.8484C38.8892 39 40.3344 37.0063 39.6995 35.0667L37.0807 27.0667C36.6771 25.8338 35.5268 25 34.2296 25H28.6895C28.1343 25.7024 27.5571 26.3708 26.9764 27H34.2296C34.662 27 35.0454 27.2779 35.1799 27.6889L37.7987 35.6889C38.0104 36.3354 37.5287 37 36.8484 37H3.08451C2.40422 37 1.9225 36.3354 2.13414 35.6889L4.75295 27.6889C4.88748 27.2779 5.27091 27 5.70333 27H13.2054C12.6247 26.3708 12.0475 25.7024 11.4923 25Z" fill="#DC3E48"/></svg>