<svg width="121" height="40" fill="none" xmlns="http://www.w3.org/2000/svg"><rect y="10" width="10.0725" height="10" fill="#EF839D"/><rect x="70.5072" y="10" width="10.0725" height="10" fill="#EC6468"/><rect y="30" width="10.0725" height="10" fill="#EC6468"/><rect x="70.5072" y="30" width="10.0725" height="10" fill="#EF839D"/><rect y="20" width="10.0725" height="10" fill="#E63A46"/><rect x="70.5072" y="20" width="10.0725" height="10" fill="#E42652"/><rect x="10.0724" y="10" width="10.0725" height="10" fill="#A82837"/><rect x="80.5796" y="10" width="10.0725" height="10" fill="#E63A46"/><rect x="10.0724" y="30" width="10.0725" height="10" fill="#97273F"/><rect x="80.5796" y="30" width="10.0725" height="10" fill="#A82837"/><rect x="20.1449" y="10" width="10.0725" height="10" fill="#EC6468"/><rect x="110.797" y="10" width="10.0725" height="10" fill="#E63A46"/><rect x="90.6522" y="10" width="10.0725" height="10" fill="#CB2450"/><rect x="40.2899" y="10" width="10.0725" height="10" fill="#EF839D"/><rect x="50.3623" y="10" width="10.0725" height="10" fill="#E42652"/><rect x="20.1449" y="30" width="10.0725" height="10" fill="#CB2450"/><rect x="110.797" y="30" width="10.0725" height="10" fill="#CB2450"/><rect x="90.6522" y="30" width="10.0725" height="10" fill="#EC6468"/><rect x="40.2899" y="30" width="10.0725" height="10" fill="#A82837"/><rect x="20.1449" y="20" width="10.0725" height="10" fill="#E42652"/><rect x="110.797" width="10.0725" height="10" fill="#EF839D"/><rect x="90.6522" y="20" width="10.0725" height="10" fill="#97273F"/><rect x="40.2899" y="20" width="10.0725" height="10" fill="#E63A46"/></svg>