<svg width="119" height="48" fill="none" xmlns="http://www.w3.org/2000/svg"><g clip-path="url(#clip0_1513_4306)"><path fill-rule="evenodd" clip-rule="evenodd" d="M69.8723 36.4451C81.4905 46.1212 101.827 37.2241 117.432 38.6157V47.5068H69.8723V36.4451Z" fill="#F54029"/><path d="M32.6479 35.6033C32.6479 29.2705 28.7779 26.667 20.8269 25.0487C15.4092 23.923 12.6653 24.134 12.6653 22.5858C12.6653 21.6712 13.6499 21.3193 15.55 21.3193H24.5563C28.7779 21.3193 30.8186 20.1235 30.8186 17.1682C30.8186 14.0018 28.215 12.1018 23.3605 12.1018H13.7204C5.55832 12.1018 0.773575 16.3941 0.773575 23.2194C0.773575 29.7628 4.85463 32.2964 13.4393 33.4922C18.1533 34.1257 20.5458 34.3369 20.5458 35.8845C20.5458 37.0104 19.2794 37.7139 16.9568 37.7139H6.26224C2.11068 37.7139 0 39.2621 0 42.2174C0 45.595 2.53299 47.4944 7.45827 47.4944H17.8715C27.5114 47.4944 32.6479 43.2027 32.6479 35.6033ZM68.5604 27.723C68.5604 17.7312 61.7352 11.469 51.4624 11.469C40.7673 11.469 33.2384 19.1382 33.2384 29.7628C33.2384 35.8845 35.3492 40.5286 39.5007 43.8355C43.863 47.2832 48.7183 47.9986 55.2617 47.9986C64.1275 47.9986 68.3491 46.5796 68.3491 42.4286C68.3491 39.6139 66.0975 37.8551 62.017 37.8551H52.7289C48.1553 37.8551 45.7631 36.3068 45.2706 32.9999H62.7904C67.2232 32.9999 68.5604 31.8739 68.5604 27.723ZM57.0212 26.104H44.9889C45.1295 22.164 47.5217 19.8417 51.1108 19.8417C54.6987 19.8417 57.0212 22.0934 57.0212 25.6117V26.104ZM102.503 36.753V24.6264C102.503 15.9718 98.8434 11.8207 91.1036 11.8207C86.9525 11.8207 83.5748 13.1577 80.6195 15.9018C80.198 13.2277 78.4386 11.8207 75.4832 11.8207C71.6839 11.8207 69.7838 13.7906 69.7838 17.52V33.442C72.7293 36.4778 79.9815 38.3448 81.1827 38.4629V29.4111C81.1827 23.7823 82.2384 21.1081 86.5302 21.1081C89.6966 21.1081 91.1744 22.9381 91.1744 26.597V38.3877C93.1857 38.1468 98.1857 37.4196 102.503 36.753ZM117.432 34.8557L117.432 17.3794C117.432 13.8612 115.321 11.8207 111.733 11.8207C108.144 11.8207 106.034 13.8626 106.034 17.3794V36.1986C108.522 35.8205 112.978 35.0542 117.432 34.8557Z" fill="#211A52"/><path fill-rule="evenodd" clip-rule="evenodd" d="M111.46 0.00146484C115.196 0.00146484 118.227 2.29678 118.227 5.12608C118.227 7.95606 115.196 10.2514 111.46 10.2514C107.725 10.2514 104.694 7.95606 104.694 5.12608C104.694 2.29678 107.725 0.00146484 111.46 0.00146484Z" fill="#F54029"/></g><defs><clipPath id="clip0_1513_4306"><rect width="118.227" height="48" fill="white"/></clipPath></defs></svg>