<svg xmlns="http://www.w3.org/2000/svg" width="24" height="24" viewBox="0 0 24 24">
  <path fill-rule="evenodd" d="M4.817 1.5c-.1 0-.198.03-.28.084L1.72 3.44a.486.486 0 0 0-.22.405V5.8c0 .264.218.488.5.488h4.554c.1 0 .197-.029.28-.083L9.87 4.204V1.5H4.817Zm6.053 0v2.474h2.014c.282 0 .5-.224.5-.489V1.99a.494.494 0 0 0-.5-.489H10.87Zm.018 3.474h1.996c.823 0 1.5-.661 1.5-1.489V1.99c0-.828-.677-1.489-1.5-1.489H4.817c-.295 0-.584.086-.83.249L1.17 2.605c-.417.275-.67.74-.67 1.24V5.8c0 .714.504 1.304 1.171 1.453V9.22A1.491 1.491 0 0 0 .5 10.673V22.01c0 .828.677 1.489 1.5 1.489h10.884c.823 0 1.5-.661 1.5-1.489v-6.62c0-.47-.224-.912-.602-1.192L7.42 9.48a1.508 1.508 0 0 0-.898-.296h-.338V7.29h.406c1.034 1.472 2.513 2.33 3.727 2.82a11.082 11.082 0 0 0 2.138.62l.14.023.04.005.01.002h.006l.062-.496-.063.496a.5.5 0 0 0 .415-.851l-.003-.003-.015-.016a6.358 6.358 0 0 1-.311-.357 8.711 8.711 0 0 1-.762-1.111c-.498-.862-.99-2.044-1.086-3.447Zm-.969.396L7.562 6.923c.874 1.132 2.077 1.833 3.13 2.26.262.105.513.194.744.266a9.974 9.974 0 0 1-.327-.528c-.513-.887-1.031-2.1-1.19-3.551ZM2.671 7.29v1.894h2.514V7.29H2.671Zm-.681 2.894h4.533a.5.5 0 0 1 .302.1L13.186 15a.485.485 0 0 1 .198.389v3.058H1.5v-7.774c0-.261.213-.483.49-.489Zm-.49 9.263v2.564c0 .265.218.489.5.489h10.884c.282 0 .5-.224.5-.489v-2.564H1.5ZM16 2.734a.5.5 0 0 1 .5-.5H23a.5.5 0 0 1 0 1h-6.5a.5.5 0 0 1-.5-.5Zm.068 2.22a.5.5 0 0 1 .684-.18l6.5 3.794a.5.5 0 0 1-.504.864l-6.5-3.794a.5.5 0 0 1-.18-.684Z" clip-rule="evenodd"/>
</svg>
