<svg xmlns="http://www.w3.org/2000/svg" width="24" height="24" viewBox="0 0 24 24">
  <path fill-rule="evenodd" d="M2.265 2c0-.84.695-1.5 1.526-1.5h16.418c.83 0 1.526.66 1.526 1.5v12c0 .33-.107.633-.288.878.223.194.39.453.467.755l1.54 6c.246.964-.504 1.867-1.48 1.867H2.026c-.977 0-1.727-.903-1.48-1.867l1.539-6a1.49 1.49 0 0 1 .467-.755A1.472 1.472 0 0 1 2.265 14V2ZM3.79 14.5h16.42a.513.513 0 0 0 .525-.5V2c0-.264-.223-.5-.526-.5H3.791a.514.514 0 0 0-.526.5v12c0 .264.223.5.526.5Zm15.004 1H16.16l.128 1h2.764l-.257-1Zm.51 1.985a.5.5 0 0 1-.122.015h-2.767l.128 1h3.02l-.26-1.015ZM16.11 19.5h4.098a.5.5 0 0 0 .485-.624l-.866-3.376h.606c.25 0 .456.165.511.382l1.54 6a.506.506 0 0 1-.512.618h-6.515l-.252-.898a1.522 1.522 0 0 0-1.471-1.102h-3.47c-.68 0-1.287.444-1.471 1.102l-.252.898H2.027a.506.506 0 0 1-.512-.618l1.54-6a.522.522 0 0 1 .51-.382h.608l-.866 3.376a.5.5 0 0 0 .484.624h12.32Zm-.575-1-.128-1H12.5v1h3.036Zm-4.036 0v-1H8.592l-.128 1H11.5Zm-4.045 0 .129-1H4.817a.5.5 0 0 1-.121-.015l-.26 1.015h3.02Zm-2.507-2h2.764l.128-1H5.205l-.257 1Zm3.9-1-.128 1h2.78v-1H8.848Zm3.652 0v1h2.78l-.128-1H12.5Zm-2.92 7h4.84l-.177-.628a.522.522 0 0 0-.508-.372h-3.47a.52.52 0 0 0-.508.372l-.176.628ZM4.318 3a.5.5 0 0 1 .5-.5h14.366a.5.5 0 0 1 .5.5v10a.5.5 0 0 1-.5.5H4.817a.5.5 0 0 1-.5-.5V3Zm1 .5v9h13.366v-9H5.317Z" clip-rule="evenodd"/>
</svg>
