<svg xmlns="http://www.w3.org/2000/svg" width="24" height="24" viewBox="0 0 24 24">
  <path fill-rule="evenodd" d="M16.713 12.543a1.024 1.024 0 1 0 0 2.048 1.024 1.024 0 0 0 0-2.048Zm-.024 1.024a.024.024 0 1 1 .047 0 .024.024 0 0 1-.047 0Zm-2.071 1.071a1.024 1.024 0 1 0 0 2.047 1.024 1.024 0 0 0 0-2.047Zm-.023 1.024c0-.014.01-.024.023-.024a.024.024 0 1 1-.023.024Zm4.212-1.024a1.024 1.024 0 1 0 0 2.047 1.024 1.024 0 0 0 0-2.047Zm-.023 1.024a.024.024 0 1 1 .047 0 .024.024 0 0 1-.047 0Zm-2.071 1.07a1.024 1.024 0 1 0 0 2.048 1.024 1.024 0 0 0 0-2.048Zm-.024 1.024a.024.024 0 1 1 .047 0 .024.024 0 0 1-.047 0Z" clip-rule="evenodd"/>
  <path d="M7 13.5a.5.5 0 0 0-1 0V15H4.5a.5.5 0 0 0 0 1H6v1.5a.5.5 0 0 0 1 0V16h1.5a.5.5 0 0 0 0-1H7v-1.5Z"/>
  <path fill-rule="evenodd" d="M15.642 1a.5.5 0 0 0-1 0v.524a.547.547 0 0 1-.547.547H8.858a1.547 1.547 0 0 0 0 3.094h2.095c.302 0 .547.245.547.548v1.07h-.547a2.595 2.595 0 0 0-2.595 2.595v.024H6.827c-.436 0-.87.06-1.288.18l-.646.184a4.689 4.689 0 0 0-3.31 3.59L.58 18.37a4.12 4.12 0 0 0 2.51 4.633c1.615.646 3.465.287 4.603-1.078a2.923 2.923 0 0 1 2.245-1.052h4.124c.868 0 1.69.385 2.246 1.052 1.137 1.365 2.987 1.724 4.602 1.078a4.12 4.12 0 0 0 2.51-4.633l-.985-4.92a4.69 4.69 0 0 0-3.46-3.63l-1.117-.28a4.688 4.688 0 0 0-1.137-.14h-1.08v-.023a2.595 2.595 0 0 0-2.594-2.595H12.5l.001-.023V5.713c0-.855-.693-1.548-1.547-1.548H8.858a.547.547 0 0 1 0-1.094h5.237c.854 0 1.547-.693 1.547-1.547V1Zm-1 8.402H9.358v-.024c0-.88.714-1.595 1.595-1.595h2.094c.88 0 1.595.714 1.595 1.595v.024Zm-8.829 1.142c.33-.095.671-.142 1.014-.142h9.894c.301 0 .602.037.894.11l1.117.279a3.689 3.689 0 0 1 2.723 2.855l.984 4.921c.311 1.557-.601 2.989-2.032 3.561-1.176.47-2.52.13-3.331-.843a3.923 3.923 0 0 0-3.014-1.41H9.938a3.923 3.923 0 0 0-3.014 1.41c-.863 1.036-2.246 1.277-3.463.79a3.119 3.119 0 0 1-1.9-3.508l1.003-5.015a3.689 3.689 0 0 1 2.604-2.824l.645-.184Z" clip-rule="evenodd"/>
</svg>
