<svg xmlns="http://www.w3.org/2000/svg" width="24" height="24" viewBox="0 0 24 24">
  <path fill-rule="evenodd" d="M12 .5a.5.5 0 0 1 .5.5v2a.5.5 0 0 1-1 0V1a.5.5 0 0 1 .5-.5ZM3.646 3.646a.5.5 0 0 1 .708 0l1.414 1.415a.5.5 0 0 1-.707.707L3.646 4.354a.5.5 0 0 1 0-.708Zm17.122 0a.5.5 0 0 1 0 .708l-1.414 1.414a.5.5 0 0 1-.708-.707l1.415-1.415a.5.5 0 0 1 .707 0ZM12 5.5a5.5 5.5 0 0 0-3.798 9.478c.226.216.404.501.47.837L8.91 17h2.59v-4.793l-1.854-1.853a.5.5 0 0 1 .708-.708L12 11.293l1.646-1.647a.5.5 0 0 1 .708.708L12.5 12.207V17h2.59l.237-1.185c.067-.336.245-.621.471-.837A5.5 5.5 0 0 0 12 5.5ZM14.89 18H9.11l.22 1.098c.02.1.04.234.06.37l.02.132c.028.188.06.382.102.557.038.156.076.27.112.343h4.752a1.76 1.76 0 0 0 .112-.343c.042-.175.074-.369.103-.557l.02-.132c.02-.136.04-.27.06-.37L14.89 18Zm-.44 3.5h.05c.39 0 .616-.28.724-.465a2.45 2.45 0 0 0 .236-.645c.052-.218.09-.446.12-.64l.024-.162a6.82 6.82 0 0 1 .047-.294l.657-3.283a.598.598 0 0 1 .18-.31 6.5 6.5 0 1 0-8.978 0c.1.095.161.204.182.31l.657 3.283c.014.073.029.17.047.294l.025.162c.03.194.067.422.119.64.05.21.122.448.236.645.108.185.334.465.724.465h.05a2.5 2.5 0 0 0 4.9 0Zm-1.035 0h-2.83a1.5 1.5 0 0 0 2.83 0ZM1.5 11a.5.5 0 0 1 .5-.5h2a.5.5 0 0 1 0 1H2a.5.5 0 0 1-.5-.5Zm18 0a.5.5 0 0 1 .5-.5h2a.5.5 0 0 1 0 1h-2a.5.5 0 0 1-.5-.5ZM5.768 15.646a.5.5 0 0 1 0 .707l-1.414 1.415a.5.5 0 1 1-.708-.707l1.415-1.415a.5.5 0 0 1 .707 0Zm12.878 0a.5.5 0 0 1 .708 0l1.414 1.415a.5.5 0 0 1-.707.707l-1.415-1.415a.5.5 0 0 1 0-.707Z" clip-rule="evenodd"/>
</svg>
