<svg xmlns="http://www.w3.org/2000/svg" width="24" height="24" viewBox="0 0 24 24">
  <path fill-rule="evenodd" d="M10 1.5c.456-.607 1.182-1 2-1h9A2.5 2.5 0 0 1 23.5 3v7a2.5 2.5 0 0 1-2.5 2.5h-.5v7h.5a1.5 1.5 0 0 1 1.5 1.5v1a1.5 1.5 0 0 1-1.5 1.5h-9.4a1.1 1.1 0 0 1-1.1-1.1 2.9 2.9 0 0 1 2.9-2.9h2.1v-2.035a3.501 3.501 0 0 1-3-3.465v-1.5H12a2.496 2.496 0 0 1-2-1H9A2.5 2.5 0 0 1 6.5 9v-.5A2 2 0 0 1 4.563 7H1a.5.5 0 0 1 0-1h3.563A2 2 0 0 1 6.5 4.5V4A2.5 2.5 0 0 1 9 1.5h1Zm.5 1.5v7a1.5 1.5 0 0 0 1.5 1.5h8.5v-10H12A1.5 1.5 0 0 0 10.5 3Zm11-1.415v9.83a1.5 1.5 0 0 0 1-1.415V3a1.5 1.5 0 0 0-1-1.415ZM9.5 2.5H9A1.5 1.5 0 0 0 7.5 4v5A1.5 1.5 0 0 0 9 10.5h.5v-8Zm-3 3a1 1 0 0 0 0 2v-2Zm7 7V14a2.5 2.5 0 0 0 2 2.45V12.5h-2Zm3 0v7h3v-7h-3Zm-3.1 8a1.9 1.9 0 0 0-1.9 1.9.1.1 0 0 0 .1.1H21a.5.5 0 0 0 .5-.5v-1a.5.5 0 0 0-.5-.5h-7.6ZM18.5 5h-3V4h3v1ZM15 6.5a.5.5 0 0 1 .5-.5h3a.5.5 0 0 1 0 1h-3a.5.5 0 0 1-.5-.5ZM18.5 9h-3V8h3v1Z" clip-rule="evenodd"/>
</svg>
