<svg xmlns="http://www.w3.org/2000/svg" width="24" height="24" viewBox="0 0 24 24">
  <path fill-rule="evenodd" d="M7.5 1.5a6 6 0 1 0 0 12 6 6 0 0 0 0-12Zm-7 6a7 7 0 0 1 12.745-4H16A1.5 1.5 0 0 1 17.5 5v5a1.5 1.5 0 0 1-1.5 1.5h-2.755A7.035 7.035 0 0 1 11 13.563v3.687a3.251 3.251 0 0 1-2.494 3.162A2.25 2.25 0 0 0 13 20.25v-3.5a2.75 2.75 0 1 1 5.5 0c0 .966.784 1.75 1.75 1.75H23a.5.5 0 0 1 0 1h-2.75a2.75 2.75 0 0 1-2.75-2.75 1.75 1.75 0 1 0-3.5 0v3.5a3.25 3.25 0 0 1-6.491.241A3.25 3.25 0 0 1 4.5 17.25v-3.424A7 7 0 0 1 .5 7.5Zm5 6.71v3.04a2.25 2.25 0 0 0 4.5 0v-3.21c-.776.297-1.62.46-2.5.46a7.001 7.001 0 0 1-2-.29Zm8.326-3.71H16a.5.5 0 0 0 .5-.5V5a.5.5 0 0 0-.5-.5h-2.174c.432.91.674 1.926.674 3s-.242 2.09-.674 3ZM6.5 3.5A.5.5 0 0 1 7 3c1.198 0 2.317.35 3.147 1.036.84.695 1.353 1.711 1.353 2.964a.5.5 0 0 1-1 0c0-.957-.382-1.69-.99-2.193C8.892 4.296 8.01 4 7 4a.5.5 0 0 1-.5-.5Zm16.5 2h-4a.5.5 0 0 1 0-1h4a.5.5 0 0 1 0 1ZM23 8h-4a.5.5 0 0 1 0-1h4a.5.5 0 0 1 0 1Zm-4.5 2a.5.5 0 0 1 .5-.5h4a.5.5 0 0 1 0 1h-4a.5.5 0 0 1-.5-.5Z" clip-rule="evenodd"/>
</svg>
