<svg xmlns="http://www.w3.org/2000/svg" width="24" height="24" viewBox="0 0 24 24">
  <path fill-rule="evenodd" d="M15.532.824a.5.5 0 0 1 .644-.292l3.562 1.336c.326.122.638.282.928.475 1.353.902.973 2.984-.611 3.35l-2.553.589a.5.5 0 0 0-.383.555l.19 1.395.617-.37a1.5 1.5 0 0 1 2.26 1.1l.138 1.1a1.5 1.5 0 0 1-1.783 1.656l-.778-.155.128.938H18a5.5 5.5 0 1 1-2.083.407c-1.919-.044-3.396.2-4.628.627-1.333.461-2.407 1.145-3.47 1.958a4.5 4.5 0 1 1-3.107-.984c.254-.413.51-.81.773-1.19L5.037 7.5H4A2.5 2.5 0 0 1 1.5 5V3.25a1.75 1.75 0 1 1 3.5 0c0 .414.336.75.75.75h2a1.75 1.75 0 1 1 0 3.5H6.04l.353 4.593c1.023-1.281 2.122-2.329 3.33-3.134 1.87-1.247 3.975-1.895 6.41-1.954l-.005-.033a1.5 1.5 0 0 1 1.149-1.664l2.553-.59a.854.854 0 0 0 .282-1.543 3.565 3.565 0 0 0-.725-.371l-3.563-1.336a.5.5 0 0 1-.292-.644Zm.736 7.178c-2.308.037-4.262.637-5.99 1.79-1.625 1.082-3.074 2.67-4.43 4.788.375.071.733.19 1.069.348 1.195-.94 2.442-1.783 4.044-2.338 1.554-.538 3.411-.795 5.845-.645l-.538-3.943Zm.764 5.602A4.502 4.502 0 0 0 18 22.5a4.5 4.5 0 0 0 .027-9l.419 3.067a1.5 1.5 0 1 1-1.004.04l-.41-3.003Zm.588-3.09 1.118.224a.5.5 0 0 0 .594-.553l-.138-1.1a.5.5 0 0 0-.753-.366l-.985.59.164 1.205ZM3.25 2.5a.75.75 0 0 0-.75.75V5A1.5 1.5 0 0 0 4 6.5h3.75a.75.75 0 1 0 0-1.5h-2A1.75 1.75 0 0 1 4 3.25a.75.75 0 0 0-.75-.75ZM5 15.5a3.5 3.5 0 1 0 0 7 3.5 3.5 0 0 0 0-7Zm13 2a.5.5 0 1 0 0 1 .5.5 0 0 0 0-1Zm-13 1a.5.5 0 1 0 0 1 .5.5 0 0 0 0-1Zm-1.5.5a1.5 1.5 0 1 1 3 0 1.5 1.5 0 0 1-3 0Z" clip-rule="evenodd"/>
</svg>
