<svg xmlns="http://www.w3.org/2000/svg" width="24" height="24" viewBox="0 0 24 24">
  <path fill-rule="evenodd" d="M5.25 2.5c-.384 0-.75.342-.75.833 0 .492.366.834.75.834H19c1.963 0 3.5 1.687 3.5 3.7V18c0 .308-.093.595-.252.833A2.499 2.499 0 0 1 23.5 21a1.5 1.5 0 0 1-1.5 1.5H2A1.5 1.5 0 0 1 .5 21c0-.821.396-1.55 1.007-2.006a.602.602 0 0 1-.007-.093c0-.79.088-1.56.255-2.299l-.01-.006.019-.033A10.416 10.416 0 0 1 9.51 8.776 2.5 2.5 0 0 1 12 6.5h1c.818 0 1.544.393 2 1 .456-.607 1.182-1 2-1h1a2.5 2.5 0 0 1 2.45 2h1.05v-.633c0-1.522-1.15-2.7-2.5-2.7H5.25c-.996 0-1.75-.852-1.75-1.834 0-.981.754-1.833 1.75-1.833H19a.5.5 0 0 1 0 1H5.25Zm6.651 7a9.37 9.37 0 0 0-6.559 2.666 2.885 2.885 0 0 1-2.64 4.79 9.414 9.414 0 0 0-.194 1.544H21a.5.5 0 0 0 .5-.5V9.5h-9.599Zm-8.94 6.485a1.884 1.884 0 0 0 1.7-3.08 9.383 9.383 0 0 0-1.7 3.08ZM19.415 8.5A1.5 1.5 0 0 0 18 7.5h-1a1.5 1.5 0 0 0-1.415 1h3.83Zm-5 0A1.5 1.5 0 0 0 13 7.5h-1a1.5 1.5 0 0 0-1.415 1h3.83ZM3 19.5A1.5 1.5 0 0 0 1.5 21a.5.5 0 0 0 .5.5h20a.5.5 0 0 0 .5-.5 1.5 1.5 0 0 0-1.5-1.5H3Zm5.5-3.54a4.46 4.46 0 0 1 4.46-4.46h6.931a.61.61 0 0 1 .609.609V15a1.5 1.5 0 0 1-1.5 1.5H9.04a.54.54 0 0 1-.54-.54Zm1.03-.46H19a.5.5 0 0 0 .5-.5v-2.5h-6.54a3.461 3.461 0 0 0-3.43 3Z" clip-rule="evenodd"/>
</svg>
