<svg width="30" height="30" viewBox="0 0 30 30" fill="none" xmlns="http://www.w3.org/2000/svg">
<rect width="30" height="30" fill="#2787F5"/>
<path d="M23.8426 19.1621C23.7942 19.0811 23.4949 18.4307 22.0546 17.0938C20.5467 15.694 20.7492 15.9213 22.5654 13.5008C23.6716 12.0267 24.1138 11.1265 23.9754 10.7417C23.8437 10.3748 23.0302 10.4716 23.0302 10.4716L20.325 10.4873C20.325 10.4873 20.1247 10.4603 19.975 10.5492C19.8299 10.637 19.7365 10.8396 19.7365 10.8396C19.7365 10.8396 19.3078 11.9806 18.7361 12.9506C17.5309 14.9974 17.0482 15.1055 16.8513 14.9783C16.3933 14.6824 16.5081 13.7878 16.5081 13.1531C16.5081 11.1693 16.8085 10.3422 15.9218 10.1284C15.627 10.0575 15.4109 10.0102 14.6581 10.0023C13.6926 9.99222 12.8746 10.0057 12.4121 10.2319C12.1037 10.3827 11.8663 10.7191 12.0115 10.7383C12.1904 10.7619 12.5955 10.8474 12.8104 11.14C13.0884 11.517 13.0782 12.3654 13.0782 12.3654C13.0782 12.3654 13.238 14.7004 12.7058 14.9907C12.3401 15.1899 11.8393 14.7836 10.7647 12.9258C10.2144 11.975 9.79805 10.9228 9.79805 10.9228C9.79805 10.9228 9.71816 10.727 9.57525 10.6224C9.40196 10.4952 9.1589 10.4547 9.1589 10.4547L6.58652 10.4705C6.58652 10.4705 6.20055 10.4817 6.05877 10.6494C5.93273 10.799 6.04864 11.1074 6.04864 11.1074C6.04864 11.1074 8.06288 15.8189 10.3427 18.1943C12.4346 20.3718 14.8089 20.2288 14.8089 20.2288H15.8847C15.8847 20.2288 16.2099 20.1928 16.3753 20.0139C16.5283 19.8496 16.5227 19.5413 16.5227 19.5413C16.5227 19.5413 16.5013 18.0976 17.172 17.8849C17.8325 17.6756 18.681 19.2802 19.5801 19.898C20.2597 20.365 20.7762 20.2626 20.7762 20.2626H23.1204C23.1204 20.2626 24.439 20.1512 23.8426 19.1621Z" fill="white"/>
</svg>
