<?xml version="1.0" standalone="no"?>
<!DOCTYPE svg PUBLIC "-//W3C//DTD SVG 1.1//EN" "http://www.w3.org/Graphics/SVG/1.1/DTD/svg11.dtd" >
<svg xmlns="http://www.w3.org/2000/svg" xmlns:xlink="http://www.w3.org/1999/xlink" version="1.1">
<metadata></metadata>
<defs>
<font id="samsungonecyrillic200c" horiz-adv-x="520" >
<font-face units-per-em="1024" ascent="794" descent="-230" />
<missing-glyph horiz-adv-x="220" />
<glyph unicode="&#xfb01;" horiz-adv-x="511" d="M101 497h-84v29h84v106q0 67 37.5 104.5t104.5 37.5q22 0 35 -4v-30q-18 3 -35 3q-53 0 -80.5 -28.5t-27.5 -83.5v-105h125v-29h-125v-497h-34v497zM381 526h34v-526h-34v526zM376.5 651.5q-7.5 8.5 -7.5 23.5q0 16 7.5 24.5t21.5 8.5t21.5 -8.5t7.5 -23.5 q0 -16 -7.5 -24.5t-21.5 -8.5t-21.5 8.5z" />
<glyph unicode="&#xfb02;" horiz-adv-x="533" d="M101 497h-84v29h84v106q0 67 37.5 104.5t104.5 37.5q22 0 35 -4v-30q-18 3 -35 3q-53 0 -80.5 -28.5t-27.5 -83.5v-105h125v-29h-125v-497h-34v497zM377 71v699h34v-696q0 -25 11.5 -37t36.5 -12q15 0 34 4l4 -28q-22 -6 -44 -6q-76 0 -76 76z" />
<glyph horiz-adv-x="0" />
<glyph unicode="&#xd;" horiz-adv-x="0" />
<glyph unicode=" "  horiz-adv-x="220" />
<glyph unicode="&#x09;" horiz-adv-x="220" />
<glyph unicode="&#xa0;" horiz-adv-x="220" />
<glyph unicode="!" horiz-adv-x="302" d="M132 724h37l-4 -559h-29zM126.5 -3q-8.5 9 -8.5 26t8.5 26t24.5 9t24.5 -9t8.5 -25q0 -17 -8.5 -26.5t-24.5 -9.5t-24.5 9z" />
<glyph unicode="&#x22;" horiz-adv-x="306" d="M205 724h33l-3 -211h-27zM68 724h33l-3 -211h-27z" />
<glyph unicode="#" horiz-adv-x="589" d="M422 474l-33 -224h118v-28h-122l-33 -222h-33l33 222h-155l-33 -222h-33l33 222h-123v28h127l33 224h-121v28h125l33 222h33l-33 -222h155l33 222h33l-33 -222h122v-28h-126zM389 474h-155l-33 -224h155z" />
<glyph unicode="$" horiz-adv-x="497" d="M391.5 63q-46.5 -49 -130.5 -56v-92h-33v91q-100 2 -181 52l13 28q80 -47 168 -48v315l-30 8q-75 21 -110 63.5t-35 110.5q0 82 46 129.5t129 52.5v92h33v-91q85 -3 158 -39l-13 -30q-76 33 -145 37v-306l32 -9q74 -21 109.5 -63.5t35.5 -113.5q0 -82 -46.5 -131z M114.5 448q27.5 -34 96.5 -54l17 -5v297q-70 -4 -105.5 -41t-35.5 -105q0 -58 27.5 -92zM367 83.5q36 38.5 36 107.5q0 59 -28.5 93.5t-94.5 53.5l-19 5v-304q70 6 106 44.5z" />
<glyph unicode="%" horiz-adv-x="842" d="M92.5 362q-32.5 55 -32.5 160t32.5 160t90.5 55t90.5 -55t32.5 -160t-32.5 -160t-90.5 -55t-90.5 55zM594 724h36l-382 -724h-36zM248.5 384.5q22.5 46.5 22.5 137.5t-22.5 137.5t-65.5 46.5t-65.5 -46.5t-22.5 -137.5t22.5 -137.5t65.5 -46.5t65.5 46.5zM568.5 42 q-32.5 55 -32.5 160t32.5 160t90.5 55t90.5 -55t32.5 -160t-32.5 -160t-90.5 -55t-90.5 55zM724.5 64.5q22.5 46.5 22.5 137.5t-22.5 137.5t-65.5 46.5t-65.5 -46.5t-22.5 -137.5t22.5 -137.5t65.5 -46.5t65.5 46.5z" />
<glyph unicode="&#x26;" horiz-adv-x="582" d="M522 -6l-93 120q-39 -66 -87 -96.5t-111 -30.5q-79 0 -123 42t-44 116q0 95 82 167l78 68l-44 57q-38 49 -53.5 82t-15.5 72q0 69 42 107.5t117 38.5q74 0 115 -37t41 -102q0 -47 -25 -87t-88 -95l-45 -39l158 -204q2 6 8 18l77 167h32l-81 -180l-15 -32l100 -130z M249 402l47 42q55 49 75.5 80.5t20.5 69.5q0 54 -32 83.5t-91 29.5t-92 -29.5t-33 -84.5q0 -31 13.5 -60.5t49.5 -76.5zM329 46.5q42 29.5 80 94.5l-166 214l-68 -59q-42 -36 -59.5 -70t-17.5 -75q0 -63 35 -98.5t99 -35.5q55 0 97 29.5z" />
<glyph unicode="'" horiz-adv-x="169" d="M68 724h33l-3 -211h-27z" />
<glyph unicode="(" horiz-adv-x="268" d="M94 93q-34 117 -34 248q0 126 34 243.5t94 200.5l22 -16q-57 -83 -86 -192t-29 -236q0 -126 29 -234.5t86 -191.5l-22 -16q-60 77 -94 194z" />
<glyph unicode=")" horiz-adv-x="268" d="M58 -85q57 83 86 191.5t29 234.5q0 127 -29 236t-86 192l22 16q60 -83 94 -200.5t34 -243.5q0 -131 -34 -248t-94 -194z" />
<glyph unicode="*" horiz-adv-x="494" d="M268 517l104 -143l-25 -18l-100 142l-100 -142l-25 18l104 143l-158 50l10 30l155 -53l-2 180h32l-2 -180l155 53l10 -30z" />
<glyph unicode="+" d="M459 348h-182v-210h-34v210h-182v32h182v211h34v-211h182v-32z" />
<glyph unicode="," horiz-adv-x="185" d="M16 -158q36 37 50 71t14 84q0 28 -4 60h36q4 -32 4 -59q0 -59 -19 -99.5t-63 -76.5z" />
<glyph unicode="-" horiz-adv-x="359" d="M57 307h245v-31h-245v31z" />
<glyph unicode="." horiz-adv-x="204" d="M77.5 -3q-8.5 9 -8.5 26t8.5 26t24.5 9t24.5 -9t8.5 -25q0 -17 -8.5 -26.5t-24.5 -9.5t-24.5 9z" />
<glyph unicode="/" horiz-adv-x="386" d="M327 737h33l-301 -823h-32z" />
<glyph unicode="0" horiz-adv-x="566" d="M123.5 79q-53.5 92 -53.5 283t53.5 283t159.5 92t159.5 -92t53.5 -283t-53.5 -283t-159.5 -92t-159.5 92zM418 101.5q43 83.5 43 260.5t-43 260.5t-135 83.5t-135 -83.5t-43 -260.5t43 -260.5t135 -83.5t135 83.5z" />
<glyph unicode="1" horiz-adv-x="387" d="M253 724v-724h-34v688l-164 -65l-11 27l179 74h30z" />
<glyph unicode="2" horiz-adv-x="475" d="M410 31v-31h-367v31l242 330q46 63 64.5 106.5t18.5 86.5q0 69 -39 109.5t-106 40.5q-42 0 -86.5 -15.5t-78.5 -43.5l-16 27q35 30 84 47.5t98 17.5q82 0 130 -49t48 -132q0 -50 -21 -98.5t-71 -116.5l-228 -310h328z" />
<glyph unicode="3" horiz-adv-x="502" d="M375.5 362.5q51.5 -56.5 51.5 -153.5q0 -101 -56.5 -161.5t-151.5 -60.5q-47 0 -94.5 15t-82.5 39l15 30q35 -25 78 -38.5t84 -13.5q79 0 126 51t47 137q0 83 -45 132t-121 49q-37 0 -66 -9l-17 22l220 292h-311v31h354v-31l-213 -278q16 4 43 4q88 0 139.5 -56.5z" />
<glyph unicode="4" horiz-adv-x="519" d="M465 201v-31h-89v-170h-33v170h-309v32l296 522h46v-523h89zM343 201v484l-271 -484h271z" />
<glyph unicode="5" horiz-adv-x="496" d="M374 376.5q52 -59.5 52 -159.5q0 -105 -57 -167.5t-154 -62.5q-45 0 -89.5 13.5t-75.5 36.5l15 30q32 -23 71 -35.5t79 -12.5q81 0 128.5 53t47.5 143q0 87 -44 138.5t-119 51.5q-34 0 -68.5 -10t-60.5 -27l-21 11l20 345h299v-31h-270l-19 -289q25 15 58.5 23.5 t66.5 8.5q89 0 141 -59.5z" />
<glyph unicode="6" horiz-adv-x="511" d="M410 373.5q53 -60.5 53 -161.5q0 -103 -55 -164t-148 -61q-94 0 -150 64.5t-56 172.5q0 65 23.5 129t78.5 145l161 239l25 -20l-159 -235q-15 -22 -50 -82q28 16 63.5 25t70.5 9q90 0 143 -60.5zM383 70.5q45 52.5 45 141.5t-45.5 140.5t-123.5 51.5q-37 0 -74 -11.5 t-67 -31.5q-29 -60 -29 -137q0 -95 46.5 -150.5t125.5 -55.5q77 0 122 52.5z" />
<glyph unicode="7" horiz-adv-x="437" d="M399 724v-31l-267 -703l-31 12l264 691h-343v31h377z" />
<glyph unicode="8" horiz-adv-x="529" d="M111 38.5q-57 51.5 -57 137.5q0 68 44.5 121.5t123.5 80.5q-65 19 -101.5 67.5t-36.5 115.5q0 81 48.5 128.5t131.5 47.5t132 -47.5t49 -128.5q0 -65 -36.5 -113t-101.5 -69q79 -25 123.5 -78t44.5 -124q0 -87 -57 -138.5t-154 -51.5q-96 0 -153 51.5zM374 453.5 q37 41.5 37 103.5q0 67 -40.5 108t-106.5 41t-106 -41t-40 -108q0 -62 37.5 -103.5t110.5 -60.5q71 19 108 60.5zM391.5 62q48.5 44 48.5 115q0 65 -44.5 112.5t-131.5 74.5q-86 -28 -130.5 -75.5t-44.5 -112.5q0 -71 48 -114.5t127 -43.5t127.5 44z" />
<glyph unicode="9" horiz-adv-x="511" d="M401 672.5q56 -64.5 56 -172.5q0 -65 -23.5 -129t-78.5 -145l-161 -239l-25 20l159 235q15 23 50 82q-28 -16 -63.5 -25t-70.5 -9q-90 0 -143 60.5t-53 161.5q0 103 55 164t148 61q94 0 150 -64.5zM128.5 371.5q45.5 -51.5 123.5 -51.5q37 0 74 11.5t67 31.5 q29 60 29 137q0 95 -46.5 150.5t-125.5 55.5q-77 0 -122 -52.5t-45 -141.5t45.5 -140.5z" />
<glyph unicode=":" horiz-adv-x="244" d="M97.5 377q-8.5 9 -8.5 26t8.5 26t24.5 9t24.5 -9t8.5 -25q0 -17 -8.5 -26.5t-24.5 -9.5t-24.5 9zM97.5 -3q-8.5 9 -8.5 26t8.5 26t24.5 9t24.5 -9t8.5 -25q0 -17 -8.5 -26.5t-24.5 -9.5t-24.5 9z" />
<glyph unicode=";" horiz-adv-x="244" d="M97.5 377q-8.5 9 -8.5 26t8.5 26t24.5 9t24.5 -9t8.5 -25q0 -17 -8.5 -26.5t-24.5 -9.5t-24.5 9zM46 -158q36 37 50 71t14 84q0 28 -4 60h36q4 -32 4 -59q0 -59 -19 -99.5t-63 -76.5z" />
<glyph unicode="&#x3c;" horiz-adv-x="364" d="M52 361l236 299l24 -19l-219 -280l219 -280l-24 -19z" />
<glyph unicode="=" d="M82 489h356v-32h-356v32zM82 265h356v-32h-356v32z" />
<glyph unicode="&#x3e;" horiz-adv-x="364" d="M52 81l219 280l-219 280l24 19l236 -299l-236 -299z" />
<glyph unicode="?" horiz-adv-x="462" d="M182 233q0 68 19 106.5t75 84.5q48 39 65.5 69t17.5 74q0 66 -32.5 101.5t-93.5 35.5q-79 0 -162 -54l-14 28q38 28 85 43.5t92 15.5q77 0 119 -44t42 -125q0 -51 -21.5 -89t-75.5 -81q-49 -40 -65 -72.5t-16 -91.5q0 -42 3 -69h-35q-3 30 -3 68zM178.5 -3 q-8.5 9 -8.5 26t8.5 26t24.5 9t24.5 -9t8.5 -25q0 -17 -8.5 -26.5t-24.5 -9.5t-24.5 9z" />
<glyph unicode="@" horiz-adv-x="741" d="M532 694.5q67 -42.5 103.5 -120.5t36.5 -183q0 -93 -35.5 -147t-96.5 -54q-28 0 -48 10t-27 29q-15 -22 -36.5 -32.5t-52.5 -10.5q-58 0 -90 46t-32 129t35.5 130t98.5 47q45 0 89 -32v-226q0 -29 16 -43.5t46 -14.5q46 0 72.5 45t26.5 124q0 97 -31.5 167.5t-91 108.5 t-140.5 38q-83 0 -143 -41.5t-92 -118.5t-32 -183t33.5 -183t96 -118.5t147.5 -41.5q77 0 140 34l12 -27q-29 -19 -69.5 -29t-82.5 -10q-94 0 -164 46t-108.5 131t-38.5 198t37 198t105 131t159 46q90 0 157 -42.5zM444 490q-28 17 -59 17q-48 0 -72.5 -37.5t-24.5 -108.5 t24 -107.5t72 -36.5q37 0 60 25v248z" />
<glyph unicode="A" horiz-adv-x="610" d="M467 215h-325l-74 -215h-36l252 724h42l252 -724h-37zM456 247l-151 441l-152 -441h303z" />
<glyph unicode="B" horiz-adv-x="596" d="M506.5 322.5q35.5 -47.5 35.5 -128.5q0 -93 -48 -143.5t-136 -50.5h-242h-18v724h35h191q85 0 131.5 -47.5t46.5 -135.5q0 -63 -25 -105.5t-72 -57.5q66 -8 101.5 -55.5zM133 692v-304h191q69 0 106 39t37 112q0 74 -38 113.5t-109 39.5h-187zM469 73.5q37 41.5 37 119.5 q0 79 -38.5 121t-109.5 42h-225v-324h229q70 0 107 41.5z" />
<glyph unicode="C" horiz-adv-x="551" d="M129 82q-75 94 -75 269q0 118 34 205t98 134t150 47q41 0 86 -12t82 -34l-14 -28q-77 42 -156 42q-74 0 -129 -42.5t-85 -121.5t-30 -186q0 -161 66.5 -247.5t189.5 -86.5q88 0 149 38l14 -27q-28 -21 -72 -32.5t-92 -11.5q-141 0 -216 94z" />
<glyph unicode="D" horiz-adv-x="639" d="M494.5 629.5q80.5 -94.5 80.5 -265.5q0 -173 -81.5 -268.5t-230.5 -95.5h-165v724h171q145 0 225.5 -94.5zM469.5 116.5q69.5 84.5 69.5 244.5q0 162 -71 246.5t-205 84.5h-130v-660h136q131 0 200.5 84.5z" />
<glyph unicode="E" horiz-adv-x="528" d="M482 32v-32h-384v724h372v-32h-337v-305h258v-32h-258v-323h349z" />
<glyph unicode="F" horiz-adv-x="490" d="M133 692v-318h273v-32h-273v-342h-35v724h366v-32h-331z" />
<glyph unicode="G" horiz-adv-x="618" d="M540 356v-321q-39 -23 -88 -35.5t-98 -12.5q-138 0 -214 98.5t-76 276.5t76 276.5t214 98.5q46 0 91 -11.5t79 -32.5l-13 -28q-74 39 -158 39q-123 0 -188 -87.5t-65 -254.5t65 -255t189 -88q76 0 151 32v273h-135v32h170z" />
<glyph unicode="H" horiz-adv-x="648" d="M550 724v-724h-35v352h-382v-352h-35v724h35v-340h382v340h35z" />
<glyph unicode="I" horiz-adv-x="234" d="M100 724h34v-724h-34v724z" />
<glyph unicode="J" horiz-adv-x="400" d="M70 -1.5q-35 11.5 -60 31.5l14 27q53 -38 118 -38q62 0 96 38t34 109v558h35v-560q0 -85 -43 -131t-122 -46q-37 0 -72 11.5z" />
<glyph unicode="K" horiz-adv-x="564" d="M252 377l-119 -141v-236h-35v724h35v-438l369 438h42l-270 -320l276 -404h-42z" />
<glyph unicode="L" horiz-adv-x="481" d="M451 32v-32h-353v724h35v-692h318z" />
<glyph unicode="M" horiz-adv-x="777" d="M679 724v-724h-34v670l-238 -515h-38l-238 517v-672h-33v724h44l246 -533l246 533h45z" />
<glyph unicode="N" horiz-adv-x="670" d="M572 724v-724h-33l-408 664v-664h-33v724h33l408 -664v664h33z" />
<glyph unicode="O" horiz-adv-x="660" d="M132.5 82.5q-68.5 95.5 -68.5 279.5t68.5 279.5t197.5 95.5t197.5 -95.5t68.5 -279.5t-68.5 -279.5t-197.5 -95.5t-197.5 95.5zM501.5 106q58.5 87 58.5 256t-58.5 256t-171.5 87t-171.5 -87t-58.5 -256t58.5 -256t171.5 -87t171.5 87z" />
<glyph unicode="P" horiz-adv-x="545" d="M467 666.5q52 -57.5 52 -163.5q0 -107 -52.5 -165.5t-149.5 -58.5h-184v-279h-35v724h35h186q96 0 148 -57.5zM441 360q42 49 42 141q0 93 -43 142t-123 49h-184v-381h186q80 0 122 49z" />
<glyph unicode="Q" horiz-adv-x="660" d="M574 -148l-128 160q-49 -25 -116 -25q-129 0 -197.5 95.5t-68.5 279.5t68.5 279.5t197.5 95.5t197.5 -95.5t68.5 -279.5q0 -123 -31 -207t-91 -126l125 -154zM158.5 106q58.5 -87 171.5 -87t171.5 87t58.5 256t-58.5 256t-171.5 87t-171.5 -87t-58.5 -256t58.5 -256z" />
<glyph unicode="R" horiz-adv-x="581" d="M306 300h-173v-300h-35v724h35h178q95 0 146.5 -55t51.5 -156q0 -92 -42.5 -146t-122.5 -65l191 -302h-43zM133 332h178q79 0 121 46t42 132q0 88 -43 135t-123 47h-175v-360z" />
<glyph unicode="S" horiz-adv-x="512" d="M139 3q-54 15 -97 41l14 28q90 -52 191 -52q85 0 130.5 41t45.5 118q0 66 -31 103.5t-102 56.5l-82 23q-81 22 -118 67.5t-37 119.5q0 90 52.5 138.5t149.5 48.5q46 0 95.5 -11.5t91.5 -31.5l-13 -30q-91 41 -177 41q-80 0 -122.5 -39.5t-42.5 -112.5q0 -64 30.5 -100.5 t103.5 -56.5l82 -23q81 -22 118 -67.5t37 -120.5q0 -94 -55 -145t-156 -51q-54 0 -108 15z" />
<glyph unicode="T" horiz-adv-x="477" d="M445 692h-189v-692h-35v692h-189v32h224h189v-32z" />
<glyph unicode="U" horiz-adv-x="634" d="M151.5 53q-58.5 66 -58.5 188v483h35v-481q0 -110 47.5 -167t141.5 -57q92 0 140.5 57.5t48.5 166.5v481h35v-483q0 -122 -58.5 -188t-165.5 -66t-165.5 66z" />
<glyph unicode="V" horiz-adv-x="576" d="M540 724l-231 -724h-42l-231 724h37l215 -688l215 688h37z" />
<glyph unicode="W" horiz-adv-x="826" d="M788 724l-176 -724h-42l-157 683l-157 -683h-42l-176 724h36l161 -688l157 687h42l157 -687l161 688h36z" />
<glyph unicode="X" horiz-adv-x="552" d="M481 0l-206 340l-204 -340h-38l223 368l-217 356h39l199 -330l202 330h39l-223 -358l224 -366h-38z" />
<glyph unicode="Y" horiz-adv-x="533" d="M505 724l-221 -456v-268h-35v268l-221 456h37l202 -421l201 421h37z" />
<glyph unicode="Z" horiz-adv-x="503" d="M455 32v-32h-409v32l365 660h-353v32h393v-32l-365 -660h369z" />
<glyph unicode="[" horiz-adv-x="304" d="M131 741v-798h144v-30h-177v858h177v-30h-144z" />
<glyph unicode="\" horiz-adv-x="386" d="M327 -86l-301 823h33l300 -823h-32z" />
<glyph unicode="]" horiz-adv-x="304" d="M206 771v-858h-177v30h144v798h-144v30h177z" />
<glyph unicode="^" horiz-adv-x="359" d="M159 724h40l136 -193h-39l-116 167l-117 -167h-39z" />
<glyph unicode="_" horiz-adv-x="545" d="M98 -94h349v-31h-349v31z" />
<glyph unicode="`" horiz-adv-x="500" d="M153 778v6h38l100 -163v-6h-30z" />
<glyph unicode="a" horiz-adv-x="476" d="M347 498.5q42 -40.5 42 -113.5v-385h-33v73q-66 -84 -163 -84q-72 0 -112 39.5t-40 110.5q0 93 76.5 137t237.5 45v57q0 64 -32.5 96.5t-94.5 32.5q-63 0 -123 -33l-11 30q29 17 65 26t70 9q76 0 118 -40.5zM278 41.5q39 21.5 77 65.5v185q-143 -1 -211 -38t-68 -115 q0 -56 31 -87.5t87 -31.5q45 0 84 21.5z" />
<glyph unicode="b" horiz-adv-x="525" d="M419.5 466.5q47.5 -72.5 47.5 -204.5q0 -131 -48 -203t-136 -72q-47 0 -87.5 22.5t-68.5 62.5v-72h-33v493v277h34v-321q64 90 156 90q88 0 135.5 -72.5zM393.5 81q38.5 62 38.5 179q0 120 -39 183.5t-112 63.5q-44 0 -81.5 -22.5t-71.5 -70.5v-304q28 -43 69 -67t87 -24 q71 0 109.5 62z" />
<glyph unicode="c" horiz-adv-x="431" d="M106.5 62q-52.5 74 -52.5 211q0 81 24 141t68.5 92.5t104.5 32.5q33 0 69 -11t67 -31l-13 -27q-65 38 -124 38q-74 0 -117.5 -63t-43.5 -170q0 -123 44 -189t125 -66q66 0 121 37l14 -26q-27 -20 -63 -31.5t-73 -11.5q-98 0 -150.5 74z" />
<glyph unicode="d" horiz-adv-x="525" d="M431 770v-736v-34h-33v79q-64 -91 -157 -91q-88 0 -135.5 72.5t-47.5 204.5t48 203.5t136 71.5q46 0 86.5 -22t68.5 -62v314h34zM325.5 42.5q37.5 22.5 71.5 70.5v304q-28 43 -69 67t-87 24q-71 0 -109.5 -62t-38.5 -179q0 -120 39 -183.5t112 -63.5q44 0 81.5 22.5z" />
<glyph unicode="e" horiz-adv-x="490" d="M436 262h-345q0 -114 46.5 -178t128.5 -64q76 0 134 45l14 -26q-27 -24 -66 -37.5t-81 -13.5q-100 0 -155.5 72t-55.5 203q0 132 50.5 204t144.5 72q88 0 137.5 -66t49.5 -185q0 -12 -2 -26zM136.5 452.5q-39.5 -55.5 -44.5 -161.5h312v9q0 98 -41 153t-115 55 q-72 0 -111.5 -55.5z" />
<glyph unicode="f" horiz-adv-x="285" d="M101 497h-84v29h84v106q0 67 37.5 104.5t104.5 37.5q22 0 35 -4v-30q-18 3 -35 3q-53 0 -80.5 -28.5t-27.5 -83.5v-105h125v-29h-125v-497h-34v497z" />
<glyph unicode="g" horiz-adv-x="526" d="M432 526v-537q0 -96 -53.5 -148.5t-150.5 -52.5q-35 0 -67.5 7.5t-55.5 20.5l11 30q50 -26 115 -26q81 0 124 43t43 124v109q-30 -44 -69.5 -66.5t-86.5 -22.5q-87 0 -135.5 70.5t-48.5 196.5q0 125 49 195t136 70q47 0 88 -22.5t68 -62.5v72h33zM325.5 61.5 q37.5 22.5 72.5 69.5v285q-27 43 -68.5 67t-87.5 24q-74 0 -111.5 -58.5t-37.5 -172.5q0 -117 38.5 -177t113.5 -60q43 0 80.5 22.5z" />
<glyph unicode="h" horiz-adv-x="530" d="M402 498.5q39 -40.5 39 -113.5v-385h-34v379q0 63 -29.5 95.5t-86.5 32.5q-44 0 -83 -20t-80 -62v-425h-34v770h34v-312q69 81 166 81q69 0 108 -40.5z" />
<glyph unicode="i" horiz-adv-x="226" d="M96 526h34v-526h-34v526zM91.5 651.5q-7.5 8.5 -7.5 23.5q0 16 7.5 24.5t21.5 8.5t21.5 -8.5t7.5 -23.5q0 -16 -7.5 -24.5t-21.5 -8.5t-21.5 8.5z" />
<glyph unicode="j" horiz-adv-x="226" d="M-21 -188q46 16 71 40t35.5 64t10.5 107v503h34v-503q0 -76 -12.5 -121t-42.5 -73t-86 -47zM91.5 651.5q-7.5 8.5 -7.5 23.5q0 16 7.5 24.5t21.5 8.5t21.5 -8.5t7.5 -23.5q0 -16 -7.5 -24.5t-21.5 -8.5t-21.5 8.5z" />
<glyph unicode="k" horiz-adv-x="480" d="M215 272l-87 -98v-174h-34v770h34v-554l273 310h41l-203 -228l213 -298h-41z" />
<glyph unicode="l" horiz-adv-x="248" d="M92 71v699h34v-696q0 -25 11.5 -37t36.5 -12q15 0 34 4l4 -28q-22 -6 -44 -6q-76 0 -76 76z" />
<glyph unicode="m" horiz-adv-x="817" d="M691.5 498.5q36.5 -40.5 36.5 -113.5v-385h-34v379q0 63 -27 95.5t-80 32.5q-41 0 -80 -20.5t-81 -64.5q3 -16 3 -37v-385h-34v379q0 63 -27.5 95.5t-81.5 32.5q-41 0 -79.5 -19.5t-78.5 -61.5v-426h-34v526h33v-68q70 81 162 81q50 0 83.5 -23t47.5 -66q74 89 170 89 q65 0 101.5 -40.5z" />
<glyph unicode="n" horiz-adv-x="528" d="M400.5 498.5q38.5 -40.5 38.5 -113.5v-385h-34v379q0 63 -29 95.5t-86 32.5q-43 0 -82 -20t-80 -62v-425h-34v526h33v-69q68 82 166 82q69 0 107.5 -40.5z" />
<glyph unicode="o" horiz-adv-x="504" d="M108.5 57.5q-50.5 70.5 -50.5 205.5t50.5 205.5t143.5 70.5t143.5 -70.5t50.5 -205.5t-50.5 -205.5t-143.5 -70.5t-143.5 70.5zM370.5 80q40.5 62 40.5 183t-40.5 183t-118.5 62t-118.5 -62t-40.5 -183t40.5 -183t118.5 -62t118.5 62z" />
<glyph unicode="p" horiz-adv-x="525" d="M419.5 466.5q47.5 -72.5 47.5 -204.5q0 -131 -48 -203t-136 -72q-46 0 -86.5 22t-68.5 62v-278h-34v700v33h33v-78q64 91 157 91q88 0 135.5 -72.5zM393.5 81q38.5 62 38.5 179q0 120 -39 183.5t-112 63.5q-44 0 -81.5 -22.5t-71.5 -70.5v-304q28 -43 69 -67t87 -24 q71 0 109.5 62z" />
<glyph unicode="q" horiz-adv-x="525" d="M431 526v-493v-240h-34v284q-64 -90 -156 -90q-88 0 -135.5 72.5t-47.5 204.5t48 203.5t136 71.5q47 0 87.5 -22.5t68.5 -62.5v72h33zM325.5 41.5q37.5 22.5 71.5 70.5v304q-28 43 -69 67t-87 24q-71 0 -109.5 -62t-38.5 -179q0 -120 39 -183.5t112 -63.5q44 0 81.5 22.5 z" />
<glyph unicode="r" horiz-adv-x="350" d="M332 524l-10 -31q-33 11 -61 11q-37 0 -69 -24t-64 -74v-406h-34v526h33v-83q29 48 63 71t76 23q33 0 66 -13z" />
<glyph unicode="s" horiz-adv-x="407" d="M112 0.5q-42 12.5 -74 35.5l12 28q66 -45 147 -45q61 0 93.5 30t32.5 87q0 48 -21 73.5t-70 37.5l-71 17q-58 14 -85.5 46t-27.5 86q0 68 39.5 105t113.5 37q37 0 75 -10.5t70 -29.5l-13 -28q-68 37 -135 37q-57 0 -87 -27.5t-30 -80.5q0 -44 20.5 -68t68.5 -35l71 -17 q60 -14 88 -48t28 -92q0 -73 -41.5 -112t-118.5 -39q-43 0 -85 12.5z" />
<glyph unicode="t" horiz-adv-x="320" d="M137 26.5q-30 32.5 -30 95.5v375h-84v29h84v154h34v-154h145v-29h-145v-367q0 -53 21.5 -78.5t66.5 -25.5q25 0 54 8l7 -29q-30 -11 -64 -11q-59 0 -89 32.5z" />
<glyph unicode="u" d="M426 526v-526h-33v75q-33 -43 -74.5 -65.5t-88.5 -22.5q-68 0 -105.5 40.5t-37.5 113.5v385h34v-379q0 -63 28.5 -95.5t83.5 -32.5q44 0 82.5 21.5t76.5 66.5v419h34z" />
<glyph unicode="v" horiz-adv-x="463" d="M423 526l-171 -526h-40l-172 526h36l156 -494l155 494h36z" />
<glyph unicode="w" horiz-adv-x="709" d="M667 526l-144 -526h-40l-128 481l-129 -481h-40l-144 526h35l129 -496l129 496h40l128 -496l129 496h35z" />
<glyph unicode="x" horiz-adv-x="452" d="M378 0l-153 242l-151 -242h-38l171 269l-164 257h38l146 -232l149 232h38l-169 -259l171 -267h-38z" />
<glyph unicode="y" horiz-adv-x="461" d="M421 526l-175 -534q-25 -79 -74.5 -132.5t-119.5 -76.5l-12 31q63 22 105.5 66t69.5 116l-175 530h36l155 -488l154 488h36z" />
<glyph unicode="z" horiz-adv-x="412" d="M364 29v-29h-318v29l279 468h-272v29h308v-29l-279 -468h282z" />
<glyph unicode="{" horiz-adv-x="321" d="M188.5 -71q-29.5 23 -42.5 64t-13 109v131q0 42 -26.5 67.5t-78.5 26.5v30q52 1 78.5 26.5t26.5 67.5v132q0 67 13 108t42.5 64.5t81.5 35.5l8 -32q-44 -11 -67.5 -30.5t-33.5 -53.5t-10 -92v-132q0 -45 -18.5 -71.5t-56.5 -37.5q38 -11 56.5 -37.5t18.5 -71.5v-131 q0 -58 10 -92.5t33.5 -54t67.5 -30.5l-8 -31q-52 12 -81.5 35z" />
<glyph unicode="|" horiz-adv-x="228" d="M98 816h32v-1066h-32v1066z" />
<glyph unicode="}" horiz-adv-x="321" d="M43 -75q44 11 67.5 30.5t33.5 54t10 92.5v131q0 45 18.5 71.5t56.5 37.5q-38 11 -56.5 37.5t-18.5 71.5v132q0 58 -10 92t-33.5 53.5t-67.5 30.5l8 32q52 -12 81.5 -35.5t42.5 -64.5t13 -108v-132q0 -42 26.5 -67.5t78.5 -26.5v-30q-52 -1 -78.5 -26.5t-26.5 -67.5v-131 q0 -68 -13 -109t-42.5 -64t-81.5 -35z" />
<glyph unicode="~" d="M290 316q-17 9 -37 27q-19 16 -33 24t-35 8q-50 0 -104 -63l-20 20q60 75 126 75q26 0 43 -9t37 -27q19 -16 33 -24t35 -8q50 0 104 63l20 -20q-60 -75 -126 -75q-26 0 -43 9z" />
<glyph unicode="&#xa1;" horiz-adv-x="302" d="M175.5 529q8.5 -9 8.5 -26t-8.5 -26t-24.5 -9t-24.5 9t-8.5 25q0 17 8.5 26.5t24.5 9.5t24.5 -9zM170 -198h-37l4 559h29z" />
<glyph unicode="&#xa2;" horiz-adv-x="435" d="M327 37q-33 -11 -63 -11h-7v-111h-33v114q-82 13 -126 78.5t-44 174.5q0 108 44.5 172t125.5 76v113h33v-111h2q31 0 64 -10t60 -27l-13 -26q-58 33 -113 33v-445h12q49 0 106 36l14 -25q-29 -20 -62 -31zM123.5 133.5q34.5 -57.5 100.5 -71.5v438q-66 -10 -100.5 -64.5 t-34.5 -147.5q0 -97 34.5 -154.5z" />
<glyph unicode="&#xa3;" horiz-adv-x="487" d="M106 32h316v-32h-350v32l32 44q61 85 61 221q0 30 -3 52h-98v30h94q-7 35 -27 78q-14 33 -20 54.5t-6 53.5q0 83 43.5 127.5t124.5 44.5q43 0 82.5 -16t67.5 -46l-17 -27q-26 28 -60.5 42.5t-72.5 14.5q-64 0 -98.5 -36t-34.5 -102q0 -25 5.5 -43.5t17.5 -46.5 q23 -51 30 -98h170v-30h-167q2 -26 2 -41q0 -173 -92 -276z" />
<glyph unicode="&#xa4;" horiz-adv-x="528" d="M404 123l66 -88l-26 -21l-66 86q-48 -34 -114 -34t-114 34l-66 -86l-26 21l66 88q-60 65 -60 190q0 124 60 190l-66 87l26 21l66 -85q49 33 114 33t114 -33l66 85l26 -21l-66 -87q60 -66 60 -190q0 -125 -60 -190zM141 152.5q42 -54.5 123 -54.5t123 54.5t42 160.5 t-42 160t-123 54t-123 -54t-42 -160t42 -160.5z" />
<glyph unicode="&#xa5;" horiz-adv-x="482" d="M272 316h127v-30h-141v-112h141v-30h-141v-144h-35v144h-141v30h141v112h-141v30h127l-185 408h37l181 -409l180 409h36z" />
<glyph unicode="&#xa6;" horiz-adv-x="228" d="M98 816h32v-447h-32v447zM98 198h32v-448h-32v448z" />
<glyph unicode="&#xa7;" horiz-adv-x="490" d="M420 -41q0 -81 -46.5 -126.5t-128.5 -45.5q-43 0 -89 12.5t-86 35.5l12 28q79 -44 163 -44q69 0 104.5 35t35.5 102q0 56 -26.5 88.5t-87.5 51.5l-58 18q-71 22 -105.5 62t-34.5 102q0 45 17 82.5t50 65.5q-63 45 -63 136q0 82 47.5 128t132.5 46q38 0 77 -9.5t70 -25.5 l-12 -28q-62 31 -137 31q-71 0 -107 -35t-36 -103q0 -56 26 -89t87 -52l59 -18q70 -22 103 -61.5t33 -101.5q0 -44 -17 -81.5t-49 -65.5q66 -45 66 -138zM284 129q26 -8 43 -16q58 52 58 128q0 52 -26.5 83t-87.5 50l-58 18q-24 7 -46 18q-31 -27 -45.5 -58.5t-14.5 -70.5 q0 -52 27.5 -83.5t90.5 -50.5z" />
<glyph unicode="&#xa8;" horiz-adv-x="500" d="M145.5 651.5q-7.5 8.5 -7.5 23.5t7.5 23.5t20.5 8.5t20.5 -8.5t7.5 -23.5t-7.5 -23.5t-20.5 -8.5t-20.5 8.5zM313.5 651.5q-7.5 8.5 -7.5 23.5t7.5 23.5t20.5 8.5t20.5 -8.5t7.5 -23.5t-7.5 -23.5t-20.5 -8.5t-20.5 8.5z" />
<glyph unicode="&#xa9;" horiz-adv-x="772" d="M230.5 31.5q-65.5 44.5 -101 129t-35.5 201.5t35.5 201.5t101 129t155.5 44.5t155.5 -44.5t101 -129t35.5 -201.5t-35.5 -201.5t-101 -129t-155.5 -44.5t-155.5 44.5zM575 109.5q68 90.5 68 252.5t-68 252.5t-189 90.5t-189 -90.5t-68 -252.5t68 -252.5t189 -90.5 t189 90.5zM297.5 230q-34.5 48 -34.5 133t34 132t94 47q22 0 45 -7t42 -20l-14 -27q-40 23 -74 23q-46 0 -69 -36.5t-23 -107.5q0 -154 99 -154q38 0 73 23l10 -26q-16 -13 -39 -20.5t-47 -7.5q-62 0 -96.5 48z" />
<glyph unicode="&#xaa;" horiz-adv-x="464" d="M108.5 324q-37.5 31 -37.5 89q0 73 61 106.5t192 31.5v45q0 52 -28 79t-83 27q-22 0 -41.5 -6.5t-53.5 -22.5l-9 25q33 18 58 25t53 7q64 0 100 -33.5t36 -92.5v-273q-32 -18 -69 -28t-70 -10q-71 0 -108.5 31zM157 497.5q-53 -26.5 -53 -83.5q0 -44 29 -68t84 -24 q59 0 107 24v177q-114 1 -167 -25.5zM357 172v-29h-267v29h267z" />
<glyph unicode="&#xab;" horiz-adv-x="493" d="M276 281l167 -211l-22 -19l-182 230l182 229l22 -19zM82 281l167 -211l-22 -19l-182 230l182 229l22 -19z" />
<glyph unicode="&#xac;" d="M445 463v-32v-186h-34v186h-336v32h370z" />
<glyph unicode="&#xad;" horiz-adv-x="359" d="M57 307h245v-31h-245v31z" />
<glyph unicode="&#xae;" horiz-adv-x="772" d="M541.5 692.5q65.5 -44.5 101 -129t35.5 -201.5t-35.5 -201.5t-101 -129t-155.5 -44.5t-155.5 44.5t-101 129t-35.5 201.5t35.5 201.5t101 129t155.5 44.5t155.5 -44.5zM575 109.5q68 90.5 68 252.5t-68 252.5t-189 90.5t-189 -90.5t-68 -252.5t68 -252.5t189 -90.5 t189 90.5zM470.5 358.5q-16.5 -27.5 -46.5 -37.5l73 -137h-40l-68 131h-1h-61v-131h-34v356h100q44 0 69 -29.5t25 -82.5q0 -42 -16.5 -69.5zM327 345h66q59 0 59 81q0 83 -64 83h-61v-164z" />
<glyph unicode="&#xaf;" horiz-adv-x="500" d="M129 685h242v-30h-242v30z" />
<glyph unicode="&#xb0;" horiz-adv-x="432" d="M113 471.5q-40 43.5 -40 111.5t40 110.5t104 42.5q63 0 102.5 -42.5t39.5 -110.5t-39.5 -111.5t-102.5 -43.5q-64 0 -104 43.5zM295 494q30 34 30 89q0 53 -30 87t-78 34q-49 0 -79.5 -34t-30.5 -87q0 -55 30.5 -89t79.5 -34q48 0 78 34z" />
<glyph unicode="&#xb1;" d="M459 456v-32h-182v-184h-34v184h-182v32h182v185h34v-185h182zM61 136h398v-32h-398v32z" />
<glyph unicode="&#xb2;" horiz-adv-x="328" d="M273 361v-30h-240v30l140 183q35 46 46.5 69.5t11.5 48.5q0 41 -20 63t-59 22q-56 0 -107 -42l-13 23q55 49 124 49q52 0 80 -29t28 -82q0 -33 -14 -62t-54 -80l-127 -163h204z" />
<glyph unicode="&#xb3;" horiz-adv-x="349" d="M251.5 554.5q32.5 -31.5 32.5 -87.5q0 -68 -36.5 -105.5t-103.5 -37.5q-33 0 -62 10t-50 28l11 27q22 -16 48.5 -25t52.5 -9q52 0 79 28.5t27 82.5q0 43 -25.5 66.5t-74.5 23.5q-26 0 -46 -6l-13 18l133 172h-184v30h225v-30l-124 -155q7 1 20 1q58 0 90.5 -31.5z" />
<glyph unicode="&#xb4;" horiz-adv-x="500" d="M213 621l108 163h38v-6l-116 -163h-30v6z" />
<glyph unicode="&#xb5;" horiz-adv-x="527" d="M433 526v-526h-33v75q-33 -43 -74.5 -65.5t-88.5 -22.5q-74 0 -109 53v-247h-34v547v186h34v-379q0 -63 28.5 -95.5t83.5 -32.5q44 0 82.5 21.5t76.5 66.5v419h34z" />
<glyph unicode="&#xb6;" horiz-adv-x="526" d="M428 0h-35v691h-109v-691h-35v342h-4q-100 0 -155.5 50.5t-55.5 139.5q0 91 57 141.5t158 50.5h144h35v-724z" />
<glyph unicode="&#xb7;" horiz-adv-x="204" d="M77.5 283q-8.5 9 -8.5 26t8.5 26t24.5 9t24.5 -9t8.5 -25q0 -17 -8.5 -26.5t-24.5 -9.5t-24.5 9z" />
<glyph unicode="&#xb8;" horiz-adv-x="500" d="M319.5 -88q21.5 -19 21.5 -56q0 -39 -24.5 -61t-68.5 -22q-46 0 -82 22l10 24q35 -18 72 -18q31 0 47 14t16 40q0 24 -14.5 36.5t-42.5 12.5q-24 0 -42 -9l-13 12l44 113l23 -17l-36 -76q18 4 27 4q41 0 62.5 -19z" />
<glyph unicode="&#xb9;" horiz-adv-x="293" d="M169 770v-439h-33v401l-92 -39l-10 28l107 49h28z" />
<glyph unicode="&#xba;" horiz-adv-x="474" d="M119.5 348q-41.5 56 -41.5 164q0 107 41.5 163t118.5 56q76 0 117 -56t41 -163q0 -108 -41.5 -164t-117.5 -56t-117.5 56zM331 368.5q32 48.5 32 143.5q0 94 -31.5 142.5t-93.5 48.5t-94.5 -48.5t-32.5 -142.5q0 -95 32 -143.5t94 -48.5t94 48.5zM104 172h267v-29h-267 v29z" />
<glyph unicode="&#xbb;" horiz-adv-x="493" d="M254 281l-182 -229l-22 19l167 211l-167 210l22 19zM448 281l-182 -229l-22 19l167 211l-167 210l22 19z" />
<glyph unicode="&#xbc;" horiz-adv-x="724" d="M563 719l-413 -729l-26 15l413 729zM136 686l-92 -39l-10 28l107 49h28v-439h-33v401zM686 131v-31h-54v-100h-33v100h-191v31l181 308h43v-308h54zM599 131v265l-153 -265h153z" />
<glyph unicode="&#xbd;" horiz-adv-x="762" d="M563 719l-413 -729l-26 15l413 729zM136 686l-92 -39l-10 28l107 49h28v-439h-33v401zM707 30v-30h-240v30l140 183q35 46 46.5 69.5t11.5 48.5q0 41 -20 63t-59 22q-56 0 -107 -42l-13 23q55 49 124 49q52 0 80 -29t28 -82q0 -33 -14 -62t-54 -80l-127 -163h204z" />
<glyph unicode="&#xbe;" horiz-adv-x="800" d="M639 719l-413 -729l-26 15l413 729zM247.5 315.5q-36.5 -37.5 -103.5 -37.5q-33 0 -62 10t-50 28l11 27q22 -16 48.5 -25t52.5 -9q52 0 79 28.5t27 82.5q0 43 -25.5 66.5t-74.5 23.5q-26 0 -46 -6l-13 18l133 172h-184v30h225v-30l-124 -155q7 1 20 1q58 0 90.5 -31.5 t32.5 -87.5q0 -68 -36.5 -105.5zM762 131v-31h-54v-100h-33v100h-191v31l181 308h43v-308h54zM675 131v265l-153 -265h153z" />
<glyph unicode="&#xbf;" horiz-adv-x="412" d="M283.5 529q8.5 -9 8.5 -26t-8.5 -26t-24.5 -9t-24.5 9t-8.5 25q0 17 8.5 26.5t24.5 9.5t24.5 -9zM280 293q0 -68 -19 -106.5t-75 -84.5q-48 -39 -65.5 -69t-17.5 -74q0 -66 32.5 -101.5t93.5 -35.5q79 0 162 54l14 -28q-38 -28 -85 -43.5t-92 -15.5q-77 0 -119 44 t-42 125q0 51 21.5 89t75.5 81q49 40 65 72.5t16 91.5q0 42 -3 69h35q3 -30 3 -68z" />
<glyph unicode="&#xc0;" horiz-adv-x="610" d="M315 781l-154 138v7h42l146 -138v-7h-34zM467 215h-325l-74 -215h-36l252 724h42l252 -724h-37zM456 247l-151 441l-152 -441h303z" />
<glyph unicode="&#xc1;" horiz-adv-x="610" d="M294 781h-34v7l155 138h42v-7zM467 215h-325l-74 -215h-36l252 724h42l252 -724h-37zM456 247l-151 441l-152 -441h303z" />
<glyph unicode="&#xc2;" horiz-adv-x="610" d="M202 781h-30v7l117 138h32l117 -138v-7h-30l-103 117zM467 215h-325l-74 -215h-36l252 724h42l252 -724h-37zM456 247l-151 441l-152 -441h303z" />
<glyph unicode="&#xc3;" horiz-adv-x="610" d="M190 792h-26q1 55 22.5 86t57.5 31q25 0 40.5 -13t31.5 -37q14 -20 24.5 -29.5t26.5 -9.5q47 0 53 87h26q-1 -55 -22.5 -86t-57.5 -31q-25 0 -40.5 13t-31.5 37q-14 20 -24.5 29.5t-26.5 9.5q-47 0 -53 -87zM467 215h-325l-74 -215h-36l252 724h42l252 -724h-37zM456 247 l-151 441l-152 -441h303z" />
<glyph unicode="&#xc4;" horiz-adv-x="610" d="M198.5 821.5q-7.5 8.5 -7.5 23.5t7.5 23.5t20.5 8.5t20.5 -8.5t7.5 -23.5t-7.5 -23.5t-20.5 -8.5t-20.5 8.5zM370.5 821.5q-7.5 8.5 -7.5 23.5t7.5 23.5t20.5 8.5t20.5 -8.5t7.5 -23.5t-7.5 -23.5t-20.5 -8.5t-20.5 8.5zM467 215h-325l-74 -215h-36l252 724h42l252 -724 h-37zM456 247l-151 441l-152 -441h303z" />
<glyph unicode="&#xc5;" horiz-adv-x="610" d="M238.5 793.5q-23.5 24.5 -23.5 68.5t23.5 68.5t66.5 24.5t66.5 -24.5t23.5 -68.5t-23.5 -68.5t-66.5 -24.5t-66.5 24.5zM260.5 912q-15.5 -17 -15.5 -50t15.5 -50t44.5 -17t44.5 17t15.5 50t-15.5 50t-44.5 17t-44.5 -17zM467 215h-325l-74 -215h-36l252 724h42l252 -724 h-37zM456 247l-151 441l-152 -441h303z" />
<glyph unicode="&#xc6;" horiz-adv-x="828" d="M782 32v-32h-370v207h-262l-114 -207h-38l398 724h39h335v-32h-323v-305h244v-32h-244v-323h335zM412 239v443l-244 -443h244z" />
<glyph unicode="&#xc7;" horiz-adv-x="551" d="M393.5 -88q21.5 -19 21.5 -56q0 -39 -24.5 -61t-68.5 -22q-46 0 -82 22l10 24q35 -18 72 -18q31 0 47 14t16 40q0 24 -14.5 36.5t-42.5 12.5q-24 0 -42 -9l-13 12l32 83q-122 13 -186.5 106t-64.5 255q0 118 34 205t98 134t150 47q41 0 86 -12t82 -34l-14 -28 q-77 42 -156 42q-74 0 -129 -42.5t-85 -121.5t-30 -186q0 -161 66.5 -247.5t189.5 -86.5q88 0 149 38l14 -27q-28 -21 -72 -32.5t-92 -11.5h-12l-29 -61q18 4 27 4q41 0 62.5 -19z" />
<glyph unicode="&#xc8;" horiz-adv-x="528" d="M300 781l-154 138v7h42l146 -138v-7h-34zM482 32v-32h-384v724h372v-32h-337v-305h258v-32h-258v-323h349z" />
<glyph unicode="&#xc9;" horiz-adv-x="528" d="M279 781h-34v7l155 138h42v-7zM482 32v-32h-384v724h372v-32h-337v-305h258v-32h-258v-323h349z" />
<glyph unicode="&#xca;" horiz-adv-x="528" d="M187 781h-30v7l117 138h32l117 -138v-7h-30l-103 117zM482 32v-32h-384v724h372v-32h-337v-305h258v-32h-258v-323h349z" />
<glyph unicode="&#xcb;" horiz-adv-x="528" d="M183.5 821.5q-7.5 8.5 -7.5 23.5t7.5 23.5t20.5 8.5t20.5 -8.5t7.5 -23.5t-7.5 -23.5t-20.5 -8.5t-20.5 8.5zM355.5 821.5q-7.5 8.5 -7.5 23.5t7.5 23.5t20.5 8.5t20.5 -8.5t7.5 -23.5t-7.5 -23.5t-20.5 -8.5t-20.5 8.5zM482 32v-32h-384v724h372v-32h-337v-305h258v-32 h-258v-323h349z" />
<glyph unicode="&#xcc;" horiz-adv-x="234" d="M-27 919v7h42l146 -138v-7h-34zM100 724h34v-724h-34v724z" />
<glyph unicode="&#xcd;" horiz-adv-x="234" d="M72 788l155 138h42v-7l-163 -138h-34v7zM100 724h34v-724h-34v724z" />
<glyph unicode="&#xce;" horiz-adv-x="234" d="M250 788v-7h-30l-103 117l-103 -117h-30v7l117 138h32zM100 724h34v-724h-34v724z" />
<glyph unicode="&#xcf;" horiz-adv-x="234" d="M10.5 821.5q-7.5 8.5 -7.5 23.5t7.5 23.5t20.5 8.5t20.5 -8.5t7.5 -23.5t-7.5 -23.5t-20.5 -8.5t-20.5 8.5zM182.5 821.5q-7.5 8.5 -7.5 23.5t7.5 23.5t20.5 8.5t20.5 -8.5t7.5 -23.5t-7.5 -23.5t-20.5 -8.5t-20.5 8.5zM100 724h34v-724h-34v724z" />
<glyph unicode="&#xd0;" horiz-adv-x="635" d="M490.5 629.5q80.5 -94.5 80.5 -265.5q0 -173 -81.5 -268.5t-230.5 -95.5h-165v350h-64v32h64v342h171q145 0 225.5 -94.5zM465.5 116.5q69.5 84.5 69.5 244.5q0 162 -71 246.5t-205 84.5h-130v-310h204v-32h-204v-318h136q131 0 200.5 84.5z" />
<glyph unicode="&#xd1;" horiz-adv-x="670" d="M220 792h-26q1 55 22.5 86t57.5 31q25 0 40.5 -13t31.5 -37q14 -20 24.5 -29.5t26.5 -9.5q47 0 53 87h26q-1 -55 -22.5 -86t-57.5 -31q-25 0 -40.5 13t-31.5 37q-14 20 -24.5 29.5t-26.5 9.5q-47 0 -53 -87zM572 724v-724h-33l-408 664v-664h-33v724h33l408 -664v664h33z " />
<glyph unicode="&#xd2;" horiz-adv-x="660" d="M186 919v7h42l146 -138v-7h-34zM132.5 82.5q-68.5 95.5 -68.5 279.5t68.5 279.5t197.5 95.5t197.5 -95.5t68.5 -279.5t-68.5 -279.5t-197.5 -95.5t-197.5 95.5zM501.5 106q58.5 87 58.5 256t-58.5 256t-171.5 87t-171.5 -87t-58.5 -256t58.5 -256t171.5 -87t171.5 87z " />
<glyph unicode="&#xd3;" horiz-adv-x="660" d="M285 788l155 138h42v-7l-163 -138h-34v7zM132.5 82.5q-68.5 95.5 -68.5 279.5t68.5 279.5t197.5 95.5t197.5 -95.5t68.5 -279.5t-68.5 -279.5t-197.5 -95.5t-197.5 95.5zM501.5 106q58.5 87 58.5 256t-58.5 256t-171.5 87t-171.5 -87t-58.5 -256t58.5 -256t171.5 -87 t171.5 87z" />
<glyph unicode="&#xd4;" horiz-adv-x="660" d="M227 781h-30v7l117 138h32l117 -138v-7h-30l-103 117zM527.5 641.5q68.5 -95.5 68.5 -279.5t-68.5 -279.5t-197.5 -95.5t-197.5 95.5t-68.5 279.5t68.5 279.5t197.5 95.5t197.5 -95.5zM501.5 106q58.5 87 58.5 256t-58.5 256t-171.5 87t-171.5 -87t-58.5 -256t58.5 -256 t171.5 -87t171.5 87z" />
<glyph unicode="&#xd5;" horiz-adv-x="660" d="M350.5 803q-15.5 13 -31.5 37q-14 20 -24.5 29.5t-26.5 9.5q-47 0 -53 -87h-26q1 55 22.5 86t57.5 31q25 0 40.5 -13t31.5 -37q14 -20 24.5 -29.5t26.5 -9.5q47 0 53 87h26q-1 -55 -22.5 -86t-57.5 -31q-25 0 -40.5 13zM132.5 82.5q-68.5 95.5 -68.5 279.5t68.5 279.5 t197.5 95.5t197.5 -95.5t68.5 -279.5t-68.5 -279.5t-197.5 -95.5t-197.5 95.5zM501.5 106q58.5 87 58.5 256t-58.5 256t-171.5 87t-171.5 -87t-58.5 -256t58.5 -256t171.5 -87t171.5 87z" />
<glyph unicode="&#xd6;" horiz-adv-x="660" d="M223.5 821.5q-7.5 8.5 -7.5 23.5t7.5 23.5t20.5 8.5t20.5 -8.5t7.5 -23.5t-7.5 -23.5t-20.5 -8.5t-20.5 8.5zM395.5 821.5q-7.5 8.5 -7.5 23.5t7.5 23.5t20.5 8.5t20.5 -8.5t7.5 -23.5t-7.5 -23.5t-20.5 -8.5t-20.5 8.5zM132.5 82.5q-68.5 95.5 -68.5 279.5t68.5 279.5 t197.5 95.5t197.5 -95.5t68.5 -279.5t-68.5 -279.5t-197.5 -95.5t-197.5 95.5zM501.5 106q58.5 87 58.5 256t-58.5 256t-171.5 87t-171.5 -87t-58.5 -256t58.5 -256t171.5 -87t171.5 87z" />
<glyph unicode="&#xd7;" horiz-adv-x="534" d="M290 364l166 -182l-24 -23l-165 180l-165 -180l-24 23l166 182l-166 182l24 23l165 -180l165 180l24 -23z" />
<glyph unicode="&#xd8;" horiz-adv-x="660" d="M624 727l-82 -108q54 -96 54 -257q0 -184 -68.5 -279.5t-197.5 -95.5q-127 0 -195 92l-66 -89h-33v7l82 108q-54 96 -54 257q0 184 68.5 279.5t197.5 95.5q127 0 195 -92l66 89h33v-7zM157.5 619q-58.5 -87 -58.5 -257q0 -142 41 -227l364 482q-59 89 -174 89 q-114 0 -172.5 -87zM502.5 105q58.5 87 58.5 257q0 142 -41 227l-364 -482q59 -89 174 -89q114 0 172.5 87z" />
<glyph unicode="&#xd9;" horiz-adv-x="634" d="M173 919v7h42l146 -138v-7h-34zM151.5 53q-58.5 66 -58.5 188v483h35v-481q0 -110 47.5 -167t141.5 -57q92 0 140.5 57.5t48.5 166.5v481h35v-483q0 -122 -58.5 -188t-165.5 -66t-165.5 66z" />
<glyph unicode="&#xda;" horiz-adv-x="634" d="M272 788l155 138h42v-7l-163 -138h-34v7zM151.5 53q-58.5 66 -58.5 188v483h35v-481q0 -110 47.5 -167t141.5 -57q92 0 140.5 57.5t48.5 166.5v481h35v-483q0 -122 -58.5 -188t-165.5 -66t-165.5 66z" />
<glyph unicode="&#xdb;" horiz-adv-x="634" d="M214 781h-30v7l117 138h32l117 -138v-7h-30l-103 117zM541 724v-483q0 -122 -58.5 -188t-165.5 -66t-165.5 66t-58.5 188v483h35v-481q0 -110 47.5 -167t141.5 -57q92 0 140.5 57.5t48.5 166.5v481h35z" />
<glyph unicode="&#xdc;" horiz-adv-x="634" d="M210.5 821.5q-7.5 8.5 -7.5 23.5t7.5 23.5t20.5 8.5t20.5 -8.5t7.5 -23.5t-7.5 -23.5t-20.5 -8.5t-20.5 8.5zM382.5 821.5q-7.5 8.5 -7.5 23.5t7.5 23.5t20.5 8.5t20.5 -8.5t7.5 -23.5t-7.5 -23.5t-20.5 -8.5t-20.5 8.5zM151.5 53q-58.5 66 -58.5 188v483h35v-481 q0 -110 47.5 -167t141.5 -57q92 0 140.5 57.5t48.5 166.5v481h35v-483q0 -122 -58.5 -188t-165.5 -66t-165.5 66z" />
<glyph unicode="&#xdd;" horiz-adv-x="533" d="M256 781h-34v7l155 138h42v-7zM505 724l-221 -456v-268h-35v268l-221 456h37l202 -421l201 421h37z" />
<glyph unicode="&#xde;" horiz-adv-x="564" d="M463 531.5q52 -56.5 52 -160.5q0 -105 -52.5 -162.5t-149.5 -57.5h-181v-151h-34v724h34v-136h183q96 0 148 -56.5zM436.5 231q42.5 48 42.5 138q0 91 -43 139t-123 48h-181v-373h183q79 0 121.5 48z" />
<glyph unicode="&#xdf;" horiz-adv-x="543" d="M444.5 335q50.5 -58 50.5 -151q0 -91 -48 -141t-137 -50q-57 0 -105 17l10 30q44 -16 95 -16q73 0 111.5 40t38.5 116q0 91 -56 143.5t-162 59.5v29q75 28 111.5 75.5t36.5 116.5q0 67 -31 103.5t-89 36.5q-68 0 -105 -47t-37 -135v-562h-34v562q0 102 45.5 157.5 t129.5 55.5q74 0 114.5 -44.5t40.5 -126.5q0 -141 -123 -197q93 -14 143.5 -72z" />
<glyph unicode="&#xe0;" horiz-adv-x="476" d="M347 498.5q42 -40.5 42 -113.5v-385h-33v73q-66 -84 -163 -84q-72 0 -112 39.5t-40 110.5q0 93 76.5 137t237.5 45v57q0 64 -32.5 96.5t-94.5 32.5q-63 0 -123 -33l-11 30q29 17 65 26t70 9q76 0 118 -40.5zM278 41.5q39 21.5 77 65.5v185q-143 -1 -211 -38t-68 -115 q0 -56 31 -87.5t87 -31.5q45 0 84 21.5zM128 778v6h38l100 -163v-6h-30z" />
<glyph unicode="&#xe1;" horiz-adv-x="476" d="M347 498.5q42 -40.5 42 -113.5v-385h-33v73q-66 -84 -163 -84q-72 0 -112 39.5t-40 110.5q0 93 76.5 137t237.5 45v57q0 64 -32.5 96.5t-94.5 32.5q-63 0 -123 -33l-11 30q29 17 65 26t70 9q76 0 118 -40.5zM278 41.5q39 21.5 77 65.5v185q-143 -1 -211 -38t-68 -115 q0 -56 31 -87.5t87 -31.5q45 0 84 21.5zM188 621l108 163h38v-6l-116 -163h-30v6z" />
<glyph unicode="&#xe2;" horiz-adv-x="476" d="M347 498.5q42 -40.5 42 -113.5v-385h-33v73q-66 -84 -163 -84q-72 0 -112 39.5t-40 110.5q0 93 76.5 137t237.5 45v57q0 64 -32.5 96.5t-94.5 32.5q-63 0 -123 -33l-11 30q29 17 65 26t70 9q76 0 118 -40.5zM278 41.5q39 21.5 77 65.5v185q-143 -1 -211 -38t-68 -115 q0 -56 31 -87.5t87 -31.5q45 0 84 21.5zM343 621v-6h-30l-89 140l-89 -140h-30v6l103 163h32z" />
<glyph unicode="&#xe3;" horiz-adv-x="476" d="M347 498.5q42 -40.5 42 -113.5v-385h-33v73q-66 -84 -163 -84q-72 0 -112 39.5t-40 110.5q0 93 76.5 137t237.5 45v57q0 64 -32.5 96.5t-94.5 32.5q-63 0 -123 -33l-11 30q29 17 65 26t70 9q76 0 118 -40.5zM278 41.5q39 21.5 77 65.5v185q-143 -1 -211 -38t-68 -115 q0 -56 31 -87.5t87 -31.5q45 0 84 21.5zM245.5 633q-15.5 13 -31.5 37q-14 20 -24.5 29.5t-26.5 9.5q-47 0 -53 -87h-26q1 55 22.5 86t57.5 31q25 0 40.5 -13t31.5 -37q14 -20 24.5 -29.5t26.5 -9.5q47 0 53 87h26q-1 -55 -22.5 -86t-57.5 -31q-25 0 -40.5 13z" />
<glyph unicode="&#xe4;" horiz-adv-x="476" d="M347 498.5q42 -40.5 42 -113.5v-385h-33v73q-66 -84 -163 -84q-72 0 -112 39.5t-40 110.5q0 93 76.5 137t237.5 45v57q0 64 -32.5 96.5t-94.5 32.5q-63 0 -123 -33l-11 30q29 17 65 26t70 9q76 0 118 -40.5zM278 41.5q39 21.5 77 65.5v185q-143 -1 -211 -38t-68 -115 q0 -56 31 -87.5t87 -31.5q45 0 84 21.5zM120.5 651.5q-7.5 8.5 -7.5 23.5t7.5 23.5t20.5 8.5t20.5 -8.5t7.5 -23.5t-7.5 -23.5t-20.5 -8.5t-20.5 8.5zM288.5 651.5q-7.5 8.5 -7.5 23.5t7.5 23.5t20.5 8.5t20.5 -8.5t7.5 -23.5t-7.5 -23.5t-20.5 -8.5t-20.5 8.5z" />
<glyph unicode="&#xe5;" horiz-adv-x="476" d="M347 498.5q42 -40.5 42 -113.5v-385h-33v73q-66 -84 -163 -84q-72 0 -112 39.5t-40 110.5q0 93 76.5 137t237.5 45v57q0 64 -32.5 96.5t-94.5 32.5q-63 0 -123 -33l-11 30q29 17 65 26t70 9q76 0 118 -40.5zM278 41.5q39 21.5 77 65.5v185q-143 -1 -211 -38t-68 -115 q0 -56 31 -87.5t87 -31.5q45 0 84 21.5zM158.5 628.5q-23.5 24.5 -23.5 68.5t23.5 68.5t66.5 24.5t66.5 -24.5t23.5 -68.5t-23.5 -68.5t-66.5 -24.5t-66.5 24.5zM285 697q0 65 -60 65t-60 -65t60 -65t60 65z" />
<glyph unicode="&#xe6;" horiz-adv-x="767" d="M713 262h-335q0 -114 45 -178t125 -64q74 0 129 45l14 -26q-26 -24 -63.5 -37.5t-78.5 -13.5q-60 0 -104 28.5t-69 82.5q-43 -56 -89 -83t-99 -27q-69 0 -108 38.5t-39 107.5q0 91 74 134.5t230 44.5v55q0 68 -31 103t-91 35q-59 0 -119 -33l-10 30q29 17 63 26t67 9 q61 0 99 -31t49 -87q21 56 62 87t99 31q86 0 134 -66.5t48 -184.5q0 -12 -2 -26zM422 452.5q-39 -55.5 -43 -161.5h302v9q0 98 -40 153t-111 55q-69 0 -108 -55.5zM280 45q41 25 84 83q-19 60 -19 134v23q-139 -1 -204.5 -37.5t-65.5 -112.5q0 -54 30 -84.5t84 -30.5 q50 0 91 25z" />
<glyph unicode="&#xe7;" horiz-adv-x="431" d="M309.5 -88q21.5 -19 21.5 -56q0 -39 -24.5 -61t-68.5 -22q-46 0 -82 22l10 24q35 -18 72 -18q31 0 47 14t16 40q0 24 -14.5 36.5t-42.5 12.5q-24 0 -42 -9l-13 12l33 84q-82 13 -125 85.5t-43 196.5q0 81 24 141t68.5 92.5t104.5 32.5q33 0 69 -11t67 -31l-13 -27 q-65 38 -124 38q-74 0 -117.5 -63t-43.5 -170q0 -123 44 -189t125 -66q66 0 121 37l14 -26q-27 -20 -63 -31.5t-73 -11.5h-8l-29 -61q18 4 27 4q41 0 62.5 -19z" />
<glyph unicode="&#xe8;" horiz-adv-x="490" d="M436 262h-345q0 -114 46.5 -178t128.5 -64q76 0 134 45l14 -26q-27 -24 -66 -37.5t-81 -13.5q-100 0 -155.5 72t-55.5 203q0 132 50.5 204t144.5 72q88 0 137.5 -66t49.5 -185q0 -12 -2 -26zM136.5 452.5q-39.5 -55.5 -44.5 -161.5h312v9q0 98 -41 153t-115 55 q-72 0 -111.5 -55.5zM153 778v6h38l100 -163v-6h-30z" />
<glyph unicode="&#xe9;" horiz-adv-x="490" d="M436 262h-345q0 -114 46.5 -178t128.5 -64q76 0 134 45l14 -26q-27 -24 -66 -37.5t-81 -13.5q-100 0 -155.5 72t-55.5 203q0 132 50.5 204t144.5 72q88 0 137.5 -66t49.5 -185q0 -12 -2 -26zM136.5 452.5q-39.5 -55.5 -44.5 -161.5h312v9q0 98 -41 153t-115 55 q-72 0 -111.5 -55.5zM213 621l108 163h38v-6l-116 -163h-30v6z" />
<glyph unicode="&#xea;" horiz-adv-x="490" d="M436 262h-345q0 -114 46.5 -178t128.5 -64q76 0 134 45l14 -26q-27 -24 -66 -37.5t-81 -13.5q-100 0 -155.5 72t-55.5 203q0 132 50.5 204t144.5 72q88 0 137.5 -66t49.5 -185q0 -12 -2 -26zM136.5 452.5q-39.5 -55.5 -44.5 -161.5h312v9q0 98 -41 153t-115 55 q-72 0 -111.5 -55.5zM368 621v-6h-30l-89 140l-89 -140h-30v6l103 163h32z" />
<glyph unicode="&#xeb;" horiz-adv-x="490" d="M145.5 651.5q-7.5 8.5 -7.5 23.5t7.5 23.5t20.5 8.5t20.5 -8.5t7.5 -23.5t-7.5 -23.5t-20.5 -8.5t-20.5 8.5zM313.5 651.5q-7.5 8.5 -7.5 23.5t7.5 23.5t20.5 8.5t20.5 -8.5t7.5 -23.5t-7.5 -23.5t-20.5 -8.5t-20.5 8.5zM436 262h-345q0 -114 46.5 -178t128.5 -64 q76 0 134 45l14 -26q-27 -24 -66 -37.5t-81 -13.5q-100 0 -155.5 72t-55.5 203q0 132 50.5 204t144.5 72q88 0 137.5 -66t49.5 -185q0 -12 -2 -26zM136.5 452.5q-39.5 -55.5 -44.5 -161.5h312v9q0 98 -41 153t-115 55q-72 0 -111.5 -55.5z" />
<glyph unicode="&#xec;" horiz-adv-x="226" d="M96 526h34v-526h-34v526zM16 778v6h38l100 -163v-6h-30z" />
<glyph unicode="&#xed;" horiz-adv-x="226" d="M96 526h34v-526h-34v526zM76 621l108 163h38v-6l-116 -163h-30v6z" />
<glyph unicode="&#xee;" horiz-adv-x="226" d="M96 526h34v-526h-34v526zM231 621v-6h-30l-89 140l-89 -140h-30v6l103 163h32z" />
<glyph unicode="&#xef;" horiz-adv-x="226" d="M22.5 651.5q-7.5 8.5 -7.5 23.5t7.5 23.5t20.5 8.5t20.5 -8.5t7.5 -23.5t-7.5 -23.5t-20.5 -8.5t-20.5 8.5zM162.5 651.5q-7.5 8.5 -7.5 23.5t7.5 23.5t20.5 8.5t20.5 -8.5t7.5 -23.5t-7.5 -23.5t-20.5 -8.5t-20.5 8.5zM96 526h34v-526h-34v526z" />
<glyph unicode="&#xf0;" horiz-adv-x="505" d="M410.5 528.5q36.5 -101.5 36.5 -247.5q0 -144 -51.5 -219t-146.5 -75q-94 0 -145 68t-51 198q0 135 49 205.5t140 70.5q58 0 101.5 -30.5t64.5 -85.5q-27 169 -138 259l-127 -89l-14 23l119 83q-48 33 -108 51l-20 6l8 28l20 -6q76 -23 128 -60l83 59l15 -23l-76 -52 q76 -62 112.5 -163.5zM370.5 77.5q41.5 59.5 41.5 175.5q0 115 -43 180t-120 65q-79 0 -120 -62t-41 -183q0 -116 41 -175.5t120 -59.5q80 0 121.5 59.5z" />
<glyph unicode="&#xf1;" horiz-adv-x="528" d="M400.5 498.5q38.5 -40.5 38.5 -113.5v-385h-34v379q0 63 -29 95.5t-86 32.5q-43 0 -82 -20t-80 -62v-425h-34v526h33v-69q68 82 166 82q69 0 107.5 -40.5zM287.5 633q-15.5 13 -31.5 37q-14 20 -24.5 29.5t-26.5 9.5q-47 0 -53 -87h-26q1 55 22.5 86t57.5 31 q25 0 40.5 -13t31.5 -37q14 -20 24.5 -29.5t26.5 -9.5q47 0 53 87h26q-1 -55 -22.5 -86t-57.5 -31q-25 0 -40.5 13z" />
<glyph unicode="&#xf2;" horiz-adv-x="504" d="M108.5 57.5q-50.5 70.5 -50.5 205.5t50.5 205.5t143.5 70.5t143.5 -70.5t50.5 -205.5t-50.5 -205.5t-143.5 -70.5t-143.5 70.5zM370.5 80q40.5 62 40.5 183t-40.5 183t-118.5 62t-118.5 -62t-40.5 -183t40.5 -183t118.5 -62t118.5 62zM155 778v6h38l100 -163v-6h-30z" />
<glyph unicode="&#xf3;" horiz-adv-x="504" d="M108.5 57.5q-50.5 70.5 -50.5 205.5t50.5 205.5t143.5 70.5t143.5 -70.5t50.5 -205.5t-50.5 -205.5t-143.5 -70.5t-143.5 70.5zM370.5 80q40.5 62 40.5 183t-40.5 183t-118.5 62t-118.5 -62t-40.5 -183t40.5 -183t118.5 -62t118.5 62zM215 621l108 163h38v-6l-116 -163 h-30v6z" />
<glyph unicode="&#xf4;" horiz-adv-x="504" d="M108.5 57.5q-50.5 70.5 -50.5 205.5t50.5 205.5t143.5 70.5t143.5 -70.5t50.5 -205.5t-50.5 -205.5t-143.5 -70.5t-143.5 70.5zM370.5 80q40.5 62 40.5 183t-40.5 183t-118.5 62t-118.5 -62t-40.5 -183t40.5 -183t118.5 -62t118.5 62zM370 621v-6h-30l-89 140l-89 -140 h-30v6l103 163h32z" />
<glyph unicode="&#xf5;" horiz-adv-x="504" d="M108.5 57.5q-50.5 70.5 -50.5 205.5t50.5 205.5t143.5 70.5t143.5 -70.5t50.5 -205.5t-50.5 -205.5t-143.5 -70.5t-143.5 70.5zM370.5 80q40.5 62 40.5 183t-40.5 183t-118.5 62t-118.5 -62t-40.5 -183t40.5 -183t118.5 -62t118.5 62zM272.5 633q-15.5 13 -31.5 37 q-14 20 -24.5 29.5t-26.5 9.5q-47 0 -53 -87h-26q1 55 22.5 86t57.5 31q25 0 40.5 -13t31.5 -37q14 -20 24.5 -29.5t26.5 -9.5q47 0 53 87h26q-1 -55 -22.5 -86t-57.5 -31q-25 0 -40.5 13z" />
<glyph unicode="&#xf6;" horiz-adv-x="504" d="M147.5 651.5q-7.5 8.5 -7.5 23.5t7.5 23.5t20.5 8.5t20.5 -8.5t7.5 -23.5t-7.5 -23.5t-20.5 -8.5t-20.5 8.5zM315.5 651.5q-7.5 8.5 -7.5 23.5t7.5 23.5t20.5 8.5t20.5 -8.5t7.5 -23.5t-7.5 -23.5t-20.5 -8.5t-20.5 8.5zM108.5 57.5q-50.5 70.5 -50.5 205.5t50.5 205.5 t143.5 70.5t143.5 -70.5t50.5 -205.5t-50.5 -205.5t-143.5 -70.5t-143.5 70.5zM370.5 80q40.5 62 40.5 183t-40.5 183t-118.5 62t-118.5 -62t-40.5 -183t40.5 -183t118.5 -62t118.5 62z" />
<glyph unicode="&#xf7;" d="M236 507q-9 9 -9 25t9 25t24 9t24 -9t9 -25t-9 -25t-24 -9t-24 9zM75 380h370v-32h-370v32zM236 170q-9 9 -9 25t9 25t24 9t24 -9t9 -25t-9 -25t-24 -9t-24 9z" />
<glyph unicode="&#xf8;" horiz-adv-x="504" d="M475 538l-67 -88q38 -70 38 -187q0 -135 -50 -205.5t-144 -70.5q-92 0 -142 68l-49 -65h-32v6l65 85q-36 68 -36 182q0 135 50.5 205.5t144.5 70.5q89 0 138 -64l52 69h32v-6zM132.5 446.5q-40.5 -62.5 -40.5 -183.5q0 -93 24 -152l255 337q-41 61 -118 61 q-80 0 -120.5 -62.5zM371.5 79q40.5 62 40.5 184q0 97 -26 158l-256 -338q41 -66 122 -66q79 0 119.5 62z" />
<glyph unicode="&#xf9;" d="M426 526v-526h-33v75q-33 -43 -74.5 -65.5t-88.5 -22.5q-68 0 -105.5 40.5t-37.5 113.5v385h34v-379q0 -63 28.5 -95.5t83.5 -32.5q44 0 82.5 21.5t76.5 66.5v419h34zM160 778v6h38l100 -163v-6h-30z" />
<glyph unicode="&#xfa;" d="M426 526v-526h-33v75q-33 -43 -74.5 -65.5t-88.5 -22.5q-68 0 -105.5 40.5t-37.5 113.5v385h34v-379q0 -63 28.5 -95.5t83.5 -32.5q44 0 82.5 21.5t76.5 66.5v419h34zM220 621l108 163h38v-6l-116 -163h-30v6z" />
<glyph unicode="&#xfb;" d="M426 526v-526h-33v75q-33 -43 -74.5 -65.5t-88.5 -22.5q-68 0 -105.5 40.5t-37.5 113.5v385h34v-379q0 -63 28.5 -95.5t83.5 -32.5q44 0 82.5 21.5t76.5 66.5v419h34zM375 621v-6h-30l-89 140l-89 -140h-30v6l103 163h32z" />
<glyph unicode="&#xfc;" d="M152.5 651.5q-7.5 8.5 -7.5 23.5t7.5 23.5t20.5 8.5t20.5 -8.5t7.5 -23.5t-7.5 -23.5t-20.5 -8.5t-20.5 8.5zM320.5 651.5q-7.5 8.5 -7.5 23.5t7.5 23.5t20.5 8.5t20.5 -8.5t7.5 -23.5t-7.5 -23.5t-20.5 -8.5t-20.5 8.5zM426 526v-526h-33v75q-33 -43 -74.5 -65.5 t-88.5 -22.5q-68 0 -105.5 40.5t-37.5 113.5v385h34v-379q0 -63 28.5 -95.5t83.5 -32.5q44 0 82.5 21.5t76.5 66.5v419h34z" />
<glyph unicode="&#xfd;" horiz-adv-x="461" d="M421 526l-175 -534q-25 -79 -74.5 -132.5t-119.5 -76.5l-12 31q63 22 105.5 66t69.5 116l-175 530h36l155 -488l154 488h36zM196 621l108 163h38v-6l-116 -163h-30v6z" />
<glyph unicode="&#xfe;" horiz-adv-x="525" d="M419.5 466.5q47.5 -72.5 47.5 -204.5q0 -131 -48 -203t-136 -72q-46 0 -86.5 22t-68.5 62v-278h-34v700v277h34v-321q64 90 156 90q88 0 135.5 -72.5zM393.5 81q38.5 62 38.5 179q0 120 -39 183.5t-112 63.5q-44 0 -81.5 -22.5t-71.5 -70.5v-304q28 -43 69 -67t87 -24 q71 0 109.5 62z" />
<glyph unicode="&#xff;" horiz-adv-x="461" d="M128.5 651.5q-7.5 8.5 -7.5 23.5t7.5 23.5t20.5 8.5t20.5 -8.5t7.5 -23.5t-7.5 -23.5t-20.5 -8.5t-20.5 8.5zM296.5 651.5q-7.5 8.5 -7.5 23.5t7.5 23.5t20.5 8.5t20.5 -8.5t7.5 -23.5t-7.5 -23.5t-20.5 -8.5t-20.5 8.5zM421 526l-175 -534q-25 -79 -74.5 -132.5 t-119.5 -76.5l-12 31q63 22 105.5 66t69.5 116l-175 530h36l155 -488l154 488h36z" />
<glyph unicode="&#x131;" horiz-adv-x="226" d="M96 526h34v-526h-34v526z" />
<glyph unicode="&#x13f;" horiz-adv-x="481" d="M451 32v-32h-353v724h35v-692h318zM327.5 358.5q-7.5 8.5 -7.5 23.5q0 16 7.5 24.5t21.5 8.5t21.5 -8.5t7.5 -23.5q0 -16 -7.5 -24.5t-21.5 -8.5t-21.5 8.5z" />
<glyph unicode="&#x140;" horiz-adv-x="287" d="M92 71v699h34v-696q0 -25 11.5 -37t36.5 -12q15 0 34 4l4 -28q-22 -6 -44 -6q-76 0 -76 76zM230.5 360.5q-7.5 8.5 -7.5 23.5q0 16 7.5 24.5t21.5 8.5t21.5 -8.5t7.5 -23.5q0 -16 -7.5 -24.5t-21.5 -8.5t-21.5 8.5z" />
<glyph unicode="&#x152;" horiz-adv-x="892" d="M846 32v-32h-370h-146q-129 0 -197.5 92t-68.5 270t68.5 270t197.5 92h167h337v-32h-323v-305h244v-32h-244v-323h335zM476 32v660h-146q-113 0 -171.5 -83.5t-58.5 -246.5t58.5 -246.5t171.5 -83.5h146z" />
<glyph unicode="&#x153;" horiz-adv-x="823" d="M769 262h-335q0 -114 45 -178t125 -64q74 0 129 45l14 -26q-26 -24 -63.5 -37.5t-78.5 -13.5q-69 0 -116.5 38t-68.5 110q-19 -73 -63.5 -111t-109.5 -38q-91 0 -140 70.5t-49 205.5t49.5 205.5t140.5 70.5q64 0 108 -37t63 -109q18 70 61.5 108t108.5 38q86 0 134 -66.5 t48 -184.5q0 -12 -2 -26zM363.5 80q39.5 62 39.5 183t-39.5 183t-115.5 62t-115.5 -62t-39.5 -183t39 -183t115 -62q77 0 116.5 62zM478 452.5q-39 -55.5 -43 -161.5h302v9q0 98 -40 153t-111 55q-69 0 -108 -55.5z" />
<glyph unicode="&#x178;" horiz-adv-x="533" d="M160.5 821.5q-7.5 8.5 -7.5 23.5t7.5 23.5t20.5 8.5t20.5 -8.5t7.5 -23.5t-7.5 -23.5t-20.5 -8.5t-20.5 8.5zM332.5 821.5q-7.5 8.5 -7.5 23.5t7.5 23.5t20.5 8.5t20.5 -8.5t7.5 -23.5t-7.5 -23.5t-20.5 -8.5t-20.5 8.5zM505 724l-221 -456v-268h-35v268l-221 456h37 l202 -421l201 421h37z" />
<glyph unicode="&#x192;" horiz-adv-x="486" d="M309 673.5q-25 -31.5 -33 -91.5l-22 -166h152v-32h-156l-56 -427q-10 -79 -45 -122.5t-92 -43.5q-17 0 -40 4l6 31q18 -3 31 -3q41 0 68.5 34.5t35.5 99.5l56 427h-118v32h122l22 166q10 74 44 114.5t90 40.5q31 0 58.5 -10t46.5 -28l-16 -26q-43 32 -90 32 q-39 0 -64 -31.5z" />
<glyph unicode="&#x237;" horiz-adv-x="226" d="M-21 -188q46 16 71 40t35.5 64t10.5 107v503h34v-503q0 -76 -12.5 -121t-42.5 -73t-86 -47z" />
<glyph unicode="&#x2c6;" horiz-adv-x="500" d="M369 621v-6h-30l-89 140l-89 -140h-30v6l103 163h32z" />
<glyph unicode="&#x2c7;" horiz-adv-x="500" d="M369 784v-6l-103 -163h-32l-103 163v6h30l89 -140l89 140h30z" />
<glyph unicode="&#x2d8;" horiz-adv-x="500" d="M165.5 662q-31.5 32 -34.5 90h28q6 -45 29.5 -68.5t62.5 -23.5q38 0 61 23.5t29 68.5h28q-3 -58 -34.5 -90t-84.5 -32t-84.5 32z" />
<glyph unicode="&#x2d9;" horiz-adv-x="500" d="M228.5 651.5q-7.5 8.5 -7.5 23.5q0 16 7.5 24.5t21.5 8.5t21.5 -8.5t7.5 -23.5q0 -16 -7.5 -24.5t-21.5 -8.5t-21.5 8.5z" />
<glyph unicode="&#x2da;" horiz-adv-x="500" d="M183.5 628.5q-23.5 24.5 -23.5 68.5t23.5 68.5t66.5 24.5t66.5 -24.5t23.5 -68.5t-23.5 -68.5t-66.5 -24.5t-66.5 24.5zM310 697q0 65 -60 65t-60 -65t60 -65t60 65z" />
<glyph unicode="&#x2db;" horiz-adv-x="500" d="M117.5 -196q-21.5 21 -21.5 60q0 41 24.5 79.5t70.5 67.5l23 -11q-42 -28 -64.5 -62t-22.5 -68q0 -28 14.5 -43.5t41.5 -15.5q32 0 65 21l11 -22q-34 -27 -80 -27q-40 0 -61.5 21z" />
<glyph unicode="&#x2dc;" horiz-adv-x="500" d="M270.5 633q-15.5 13 -31.5 37q-14 20 -24.5 29.5t-26.5 9.5q-47 0 -53 -87h-26q1 55 22.5 86t57.5 31q25 0 40.5 -13t31.5 -37q14 -20 24.5 -29.5t26.5 -9.5q47 0 53 87h26q-1 -55 -22.5 -86t-57.5 -31q-25 0 -40.5 13z" />
<glyph unicode="&#x2dd;" horiz-adv-x="500" d="M162 621l70 163h35v-6l-78 -163h-27v6zM295 621l70 163h35v-6l-78 -163h-27v6z" />
<glyph unicode="&#x300;" horiz-adv-x="0" d="M-362 778v6h38l100 -163v-6h-30z" />
<glyph unicode="&#x301;" horiz-adv-x="0" d="M-307 621l108 163h38v-6l-116 -163h-30v6z" />
<glyph unicode="&#x302;" horiz-adv-x="0" d="M-147 621v-6h-30l-89 140l-89 -140h-30v6l103 163h32z" />
<glyph unicode="&#x303;" horiz-adv-x="0" d="M-244.5 633q-15.5 13 -31.5 37q-14 20 -24.5 29.5t-26.5 9.5q-47 0 -53 -87h-26q1 55 22.5 86t57.5 31q25 0 40.5 -13t31.5 -37q14 -20 24.5 -29.5t26.5 -9.5q47 0 53 87h26q-1 -55 -22.5 -86t-57.5 -31q-25 0 -40.5 13z" />
<glyph unicode="&#x304;" horiz-adv-x="0" d="M-386 685h242v-30h-242v30z" />
<glyph unicode="&#x307;" horiz-adv-x="0" d="M-286.5 651.5q-7.5 8.5 -7.5 23.5q0 16 7.5 24.5t21.5 8.5t21.5 -8.5t7.5 -23.5q0 -16 -7.5 -24.5t-21.5 -8.5t-21.5 8.5z" />
<glyph unicode="&#x308;" horiz-adv-x="0" d="M-369.5 651.5q-7.5 8.5 -7.5 23.5t7.5 23.5t20.5 8.5t20.5 -8.5t7.5 -23.5t-7.5 -23.5t-20.5 -8.5t-20.5 8.5zM-201.5 651.5q-7.5 8.5 -7.5 23.5t7.5 23.5t20.5 8.5t20.5 -8.5t7.5 -23.5t-7.5 -23.5t-20.5 -8.5t-20.5 8.5z" />
<glyph unicode="&#x30a;" horiz-adv-x="0" d="M-331.5 628.5q-23.5 24.5 -23.5 68.5t23.5 68.5t66.5 24.5t66.5 -24.5t23.5 -68.5t-23.5 -68.5t-66.5 -24.5t-66.5 24.5zM-205 697q0 65 -60 65t-60 -65t60 -65t60 65z" />
<glyph unicode="&#x30b;" horiz-adv-x="0" d="M-353 621l70 163h35v-6l-78 -163h-27v6zM-220 621l70 163h35v-6l-78 -163h-27v6z" />
<glyph unicode="&#x3c0;" horiz-adv-x="548" d="M405 497v-416q0 -29 12 -42.5t37 -13.5q21 0 46 7l5 -28q-31 -11 -58 -11q-37 0 -56.5 21.5t-19.5 63.5v419h-194q0 -180 -15.5 -290.5t-55.5 -206.5h-36q42 104 57.5 209t15.5 288h-134v29h530v-29h-134z" />
<glyph unicode="&#x400;" horiz-adv-x="528" d="M147 919v7h42l146 -138v-7h-34zM98 724h372v-32h-337v-305h258v-32h-258v-323h349v-32h-384v724z" />
<glyph unicode="&#x401;" horiz-adv-x="528" d="M183.5 821.5q-7.5 8.5 -7.5 23.5t7.5 23.5t20.5 8.5t20.5 -8.5t7.5 -23.5t-7.5 -23.5t-20.5 -8.5t-20.5 8.5zM355.5 821.5q-7.5 8.5 -7.5 23.5t7.5 23.5t20.5 8.5t20.5 -8.5t7.5 -23.5t-7.5 -23.5t-20.5 -8.5t-20.5 8.5zM98 724h372v-32h-337v-305h258v-32h-258v-323h349 v-32h-384v724z" />
<glyph unicode="&#x402;" horiz-adv-x="702" d="M567 375.5q49 -54.5 49 -163.5v-62q0 -80 -17.5 -133t-59 -91.5t-116.5 -67.5l-13 32q68 26 105 60.5t51.5 82t14.5 120.5v56q0 189 -161 189q-78 0 -170 -41v-357h-35v692h-183v32h401v-32h-183v-302q96 40 173 40q95 0 144 -54.5z" />
<glyph unicode="&#x403;" horiz-adv-x="476" d="M240 788l155 138h42v-7l-163 -138h-34v7zM133 0h-35v724h354v-32h-319v-692z" />
<glyph unicode="&#x404;" horiz-adv-x="551" d="M509 32q-28 -21 -72 -32.5t-92 -11.5q-141 0 -216 94t-75 269q0 118 34 205t98 134t150 47q41 0 86 -12t82 -34l-14 -28q-77 42 -156 42q-70 0 -123.5 -38.5t-84.5 -110t-35 -169.5h310v-32h-311q0 -161 66.5 -247.5t189.5 -86.5q88 0 149 38z" />
<glyph unicode="&#x405;" horiz-adv-x="512" d="M139 3q-54 15 -97 41l14 28q90 -52 191 -52q85 0 130.5 41t45.5 118q0 66 -31 103.5t-102 56.5l-82 23q-81 22 -118 67.5t-37 119.5q0 90 52.5 138.5t149.5 48.5q46 0 95.5 -11.5t91.5 -31.5l-13 -30q-91 41 -177 41q-80 0 -122.5 -39.5t-42.5 -112.5q0 -64 30.5 -100.5 t103.5 -56.5l82 -23q81 -22 118 -67.5t37 -120.5q0 -94 -55 -145t-156 -51q-54 0 -108 15z" />
<glyph unicode="&#x406;" horiz-adv-x="235" d="M135 724v-724h-35v724h35z" />
<glyph unicode="&#x407;" horiz-adv-x="235" d="M21.5 821.5q-7.5 8.5 -7.5 23.5t7.5 23.5t20.5 8.5t20.5 -8.5t7.5 -23.5t-7.5 -23.5t-20.5 -8.5t-20.5 8.5zM172.5 821.5q-7.5 8.5 -7.5 23.5t7.5 23.5t20.5 8.5t20.5 -8.5t7.5 -23.5t-7.5 -23.5t-20.5 -8.5t-20.5 8.5zM135 724v-724h-35v724h35z" />
<glyph unicode="&#x408;" horiz-adv-x="400" d="M70 -1.5q-35 11.5 -60 31.5l14 27q53 -38 118 -38q62 0 96 38t34 109v558h35v-560q0 -85 -43 -131t-122 -46q-37 0 -72 11.5z" />
<glyph unicode="&#x409;" horiz-adv-x="929" d="M472 692h-250l-24 -363q-6 -100 -19.5 -157t-44.5 -98.5t-92 -78.5l-17 30q54 32 81 70.5t38.5 91t18.5 145.5l28 392h316v-297h168q97 0 149.5 -55.5t52.5 -159.5q0 -102 -52 -157t-147 -55h-206v692zM507 32h168q81 0 123.5 46t42.5 136q0 89 -41.5 135t-121.5 46h-171 v-363z" />
<glyph unicode="&#x40a;" horiz-adv-x="957" d="M852.5 353.5q52.5 -52.5 52.5 -151.5q0 -95 -52 -148.5t-147 -53.5h-206v374h-367v-374h-35v724h35v-318h367v318h35v-318h168q97 0 149.5 -52.5zM826.5 76q42.5 44 42.5 128q0 83 -41.5 126.5t-121.5 43.5h-171v-342h168q81 0 123.5 44z" />
<glyph unicode="&#x40b;" horiz-adv-x="691" d="M608 215v-215h-35v210q0 96 -37.5 142t-118.5 46q-70 0 -166 -43v-355h-35v692h-184v32h403v-32h-184v-302q47 21 87 30.5t82 9.5q188 0 188 -215z" />
<glyph unicode="&#x40c;" horiz-adv-x="590" d="M302 781h-34v7l155 138h42v-7zM514 0l-227 365q-22 -12 -52 -25l-102 -45v-295h-35v724h35v-394l90 40q86 38 131 74t75 99t56 181h38q-23 -105 -49 -168t-62 -102.5t-92 -71.5l237 -382h-43z" />
<glyph unicode="&#x40d;" horiz-adv-x="668" d="M189 919v7h42l146 -138v-7h-34zM133 61l401 663h36v-724h-35v665l-401 -665h-36v724h35v-663z" />
<glyph unicode="&#x40e;" horiz-adv-x="551" d="M521 724l-182 -484q-31 -82 -52 -122t-59.5 -71.5t-106.5 -51.5l-9 35q72 21 108 55t63 98l-246 541h38l225 -499q1 4 11 31l173 468h37zM204.5 834q-33.5 30 -44.5 84h28q21 -84 103 -84q40 0 68 20.5t39 63.5h28q-12 -57 -46.5 -85.5t-89.5 -28.5q-52 0 -85.5 30z" />
<glyph unicode="&#x40f;" horiz-adv-x="652" d="M554 724v-724h-207l-6 -134h-26l-6 134h-211v724h34v-692h388v692h34z" />
<glyph unicode="&#x410;" horiz-adv-x="610" d="M467 215h-325l-74 -215h-36l252 724h42l252 -724h-37zM153 247h303l-152 441z" />
<glyph unicode="&#x411;" horiz-adv-x="573" d="M466 349q53 -52 53 -150q0 -95 -52.5 -147t-147.5 -52h-221v724h35h339v-32h-339v-291h183q97 0 150 -52zM440.5 74.5q42.5 42.5 42.5 126.5q0 83 -41.5 125.5t-122.5 42.5h-186v-337h183q82 0 124.5 42.5z" />
<glyph unicode="&#x412;" horiz-adv-x="596" d="M494 50.5q-48 -50.5 -136 -50.5h-260v724h226q85 0 131.5 -47.5t46.5 -135.5q0 -63 -25 -105.5t-72 -57.5q66 -8 101.5 -56t35.5 -128q0 -93 -48 -143.5zM429 652.5q-38 39.5 -109 39.5h-187v-304h191q69 0 106 39t37 112q0 74 -38 113.5zM467.5 314q-38.5 42 -109.5 42 h-225v-324h229q70 0 107 41.5t37 119.5q0 79 -38.5 121z" />
<glyph unicode="&#x413;" horiz-adv-x="476" d="M133 0h-35v724h354v-32h-319v-692z" />
<glyph unicode="&#x414;" horiz-adv-x="620" d="M580 32v-166h-28l-9 134h-68h-426l-9 -134h-28v166h23q50 31 74.5 68.5t35 88t17.5 143.5l28 392h319v-692h71zM475 32v660h-254l-25 -363q-6 -87 -15.5 -137t-31.5 -88.5t-64 -71.5h390z" />
<glyph unicode="&#x415;" horiz-adv-x="528" d="M98 724h372v-32h-337v-305h258v-32h-258v-323h349v-32h-384v724z" />
<glyph unicode="&#x416;" horiz-adv-x="890" d="M815 0l-218 359l-50 -23l-85 -38v-298h-34v298l-85 38l-51 24l-220 -360h-39l228 376q-54 32 -88 72t-58 104t-47 172h35q26 -122 54.5 -185.5t71 -100t124.5 -72.5l75 -34v392h34v-392l75 34q81 36 124 72.5t71 100t54 185.5h36q-23 -108 -47 -171.5t-58 -104t-88 -71.5 l228 -377h-42z" />
<glyph unicode="&#x417;" horiz-adv-x="513" d="M454 202q0 -105 -65.5 -159.5t-172.5 -54.5q-108 0 -191 48l15 30q80 -45 176 -45q93 0 148 47t55 134q0 82 -48 118t-124 36h-115v33h107q72 0 113 39t41 114q0 79 -48 121t-122 42q-40 0 -81.5 -12t-77.5 -33l-13 28q82 49 172 49q91 0 148 -50.5t57 -140.5 q0 -132 -108 -170q134 -31 134 -174z" />
<glyph unicode="&#x418;" horiz-adv-x="668" d="M133 61l401 663h36v-724h-35v665l-401 -665h-36v724h35v-663z" />
<glyph unicode="&#x419;" horiz-adv-x="668" d="M133 61l401 663h36v-724h-35v665l-401 -665h-36v724h35v-663zM253.5 834q-33.5 30 -44.5 84h28q21 -84 103 -84q40 0 68 20.5t39 63.5h28q-12 -57 -46.5 -85.5t-89.5 -28.5q-52 0 -85.5 30z" />
<glyph unicode="&#x41a;" horiz-adv-x="590" d="M514 0l-227 365q-22 -12 -52 -25l-102 -45v-295h-35v724h35v-394l90 40q86 38 131 74t75 99t56 181h38q-23 -105 -49 -168t-62 -102.5t-92 -71.5l237 -382h-43z" />
<glyph unicode="&#x41b;" horiz-adv-x="618" d="M178.5 172q-13.5 -57 -44.5 -98.5t-92 -78.5l-17 30q54 32 81 70.5t38.5 91t18.5 145.5l28 392h329v-724h-35v692h-263l-24 -363q-6 -100 -19.5 -157z" />
<glyph unicode="&#x41c;" horiz-adv-x="777" d="M645 669l-238 -514h-38l-238 517v-672h-33v724h44l246 -533l246 533h45v-724h-34v669z" />
<glyph unicode="&#x41d;" horiz-adv-x="648" d="M515 352h-382v-352h-35v724h35v-340h382v340h35v-724h-35v352z" />
<glyph unicode="&#x41e;" horiz-adv-x="660" d="M132.5 82.5q-68.5 95.5 -68.5 279.5t68.5 279.5t197.5 95.5t197.5 -95.5t68.5 -279.5t-68.5 -279.5t-197.5 -95.5t-197.5 95.5zM501.5 106q58.5 87 58.5 256t-58.5 256t-171.5 87t-171.5 -87t-58.5 -256t58.5 -256t171.5 -87t171.5 87z" />
<glyph unicode="&#x41f;" horiz-adv-x="652" d="M133 0h-35v724h456v-724h-35v692h-386v-692z" />
<glyph unicode="&#x420;" horiz-adv-x="545" d="M466.5 337.5q-52.5 -58.5 -149.5 -58.5h-184v-279h-35v724h221q96 0 148 -57.5t52 -163.5q0 -107 -52.5 -165.5zM440 643q-43 49 -123 49h-184v-381h186q80 0 122 49t42 141q0 93 -43 142z" />
<glyph unicode="&#x421;" horiz-adv-x="551" d="M129 82q-75 94 -75 269q0 118 34 205t98 134t150 47q41 0 86 -12t82 -34l-14 -28q-77 42 -156 42q-74 0 -129 -42.5t-85 -121.5t-30 -186q0 -161 66.5 -247.5t189.5 -86.5q88 0 149 38l14 -27q-28 -21 -72 -32.5t-92 -11.5q-141 0 -216 94z" />
<glyph unicode="&#x422;" horiz-adv-x="477" d="M221 692h-189v32h413v-32h-189v-692h-35v692z" />
<glyph unicode="&#x423;" horiz-adv-x="551" d="M521 724l-182 -484q-31 -82 -52 -122t-59.5 -71.5t-106.5 -51.5l-9 35q72 21 108 55t63 98l-246 541h38l225 -499q1 4 11 31l173 468h37z" />
<glyph unicode="&#x424;" horiz-adv-x="698" d="M569 176q-71 -67 -205 -71v-110h-33v110q-133 5 -203 71.5t-70 189.5q0 122 71 189t202 72v102h33v-102q134 -4 205 -70.5t71 -190.5q0 -123 -71 -190zM544.5 198q61.5 58 61.5 168t-61.5 168t-180.5 62v-460q119 4 180.5 62zM152 199q61 -58 179 -63v460 q-118 -5 -179 -63t-61 -167t61 -167z" />
<glyph unicode="&#x425;" horiz-adv-x="552" d="M274 339l-203 -339h-38l223 367l-217 357h39l198 -330l203 330h39l-223 -358l224 -366h-38z" />
<glyph unicode="&#x426;" horiz-adv-x="640" d="M600 32v-166h-28l-9 134h-58h-407v724h35v-692h361v692h35v-692h71z" />
<glyph unicode="&#x427;" horiz-adv-x="618" d="M520 724v-724h-35v355q-100 -48 -200 -48q-98 0 -150 55t-52 159v203h35v-198q0 -93 43.5 -140t126.5 -47q97 0 197 51v334h35z" />
<glyph unicode="&#x428;" horiz-adv-x="923" d="M98 724h35v-692h311v692h35v-692h311v692h35v-724h-727v724z" />
<glyph unicode="&#x429;" horiz-adv-x="936" d="M896 32v-166h-28l-9 134h-58h-703v724h35v-692h311v692h35v-692h311v692h35v-692h71z" />
<glyph unicode="&#x42a;" horiz-adv-x="694" d="M589 371.5q53 -55.5 53 -159.5q0 -102 -52.5 -157t-147.5 -55h-221v692h-189v32h215h9v-297h183q97 0 150 -55.5zM563.5 78q42.5 46 42.5 136q0 89 -42 135t-122 46h-186v-363h183q82 0 124.5 46z" />
<glyph unicode="&#x42b;" horiz-adv-x="768" d="M98 724h35v-297h183q97 0 150 -55.5t53 -159.5q0 -102 -52.5 -157t-147.5 -55h-221v724zM670 724v-724h-35v724h35zM133 32h183q82 0 124.5 46t42.5 136q0 89 -42 135t-122 46h-186v-363z" />
<glyph unicode="&#x42c;" horiz-adv-x="571" d="M98 724h35v-297h183q97 0 150 -55.5t53 -159.5q0 -102 -52.5 -157t-147.5 -55h-221v724zM133 32h183q82 0 124.5 46t42.5 136q0 89 -42 135t-122 46h-186v-363z" />
<glyph unicode="&#x42d;" horiz-adv-x="551" d="M422 642.5q75 -94.5 75 -270.5q0 -116 -34 -202.5t-99.5 -134t-157.5 -47.5q-48 0 -92 11.5t-72 32.5l14 27q61 -38 149 -38q118 0 184.5 89.5t71.5 244.5h-310v32h310q-2 151 -67.5 234.5t-176.5 83.5q-79 0 -156 -42l-14 28q37 22 82 34t86 12q132 0 207 -94.5z" />
<glyph unicode="&#x42e;" horiz-adv-x="891" d="M761 640.5q66 -96.5 66 -278.5t-66 -278.5t-185 -96.5q-117 0 -183 93.5t-68 271.5h-192v-352h-35v724h35v-340h192q4 172 70 262.5t181 90.5q119 0 185 -96.5zM736 106.5q55 87.5 55 255.5t-55 255.5t-160 87.5t-160 -87.5t-55 -255.5t55 -255.5t160 -87.5t160 87.5z " />
<glyph unicode="&#x42f;" horiz-adv-x="581" d="M48 0l191 303q-80 10 -123 64t-43 146q0 100 55 155.5t150 55.5h205v-724h-35v301h-173l-185 -301h-42zM282 692q-83 0 -128 -47t-45 -135q0 -86 41.5 -131.5t120.5 -45.5h177v359h-166z" />
<glyph unicode="&#x430;" horiz-adv-x="476" d="M356 72q-65 -83 -163 -83q-72 0 -112 39.5t-40 110.5q0 93 76.5 137t237.5 45v57q0 64 -32.5 96.5t-94.5 32.5q-63 0 -123 -33l-11 30q29 17 65 26t70 9q76 0 118 -40.5t42 -113.5v-385h-33v72zM144 254q-68 -37 -68 -115q0 -56 31 -87.5t87 -31.5q45 0 84.5 21t76.5 66 v185q-143 -1 -211 -38z" />
<glyph unicode="&#x431;" horiz-adv-x="517" d="M408 414.5q51 -59.5 51 -169.5q0 -82 -25.5 -140t-70.5 -88t-103 -30q-93 0 -144.5 75.5t-51.5 211.5q0 127 15.5 212.5t52.5 142.5q26 39 63 61t86.5 33t129.5 19l3 -33q-117 -11 -172 -32t-83 -67q-42 -66 -55 -202q34 31 76 48.5t89 17.5q88 0 139 -59.5zM342 43.5 q37 25.5 59.5 76.5t22.5 125q0 98 -42.5 147.5t-117.5 49.5q-43 0 -85 -18.5t-77 -49.5q-3 -48 -3 -100q0 -125 43 -190.5t118 -65.5q45 0 82 25.5z" />
<glyph unicode="&#x432;" horiz-adv-x="489" d="M407.5 228.5q24.5 -31.5 24.5 -84.5q0 -67 -39.5 -105.5t-109.5 -38.5h-189v526h166q68 0 108 -36t40 -100q0 -42 -19 -71t-52 -44q46 -15 70.5 -46.5zM128 285h141q51 0 78 28.5t27 73.5q0 52 -30 81t-83 29h-133v-212zM367.5 58q29.5 29 29.5 85q0 113 -123 113h-146 v-227h154q56 0 85.5 29z" />
<glyph unicode="&#x433;" horiz-adv-x="384" d="M94 526h268v-29h-234v-497h-34v526z" />
<glyph unicode="&#x434;" horiz-adv-x="525" d="M485 29v-163h-27l-8 134h-64h-335l-8 -134h-27v163h23q42 24 64 53.5t32.5 70.5t15.5 111l23 262h246v-497h65zM386 29v468h-181l-21 -237q-6 -68 -14 -107t-27 -68.5t-56 -55.5h299z" />
<glyph unicode="&#x435;" horiz-adv-x="490" d="M348 1.5q-39 -13.5 -81 -13.5q-100 0 -155.5 72t-55.5 203q0 132 50.5 204t144.5 72q88 0 137.5 -66t49.5 -185q0 -12 -2 -26h-345q0 -114 46.5 -178t128.5 -64q76 0 134 45l14 -26q-27 -24 -66 -37.5zM135.5 452.5q-40.5 -55.5 -44.5 -161.5h313q0 109 -40 163t-116 54 q-72 0 -112.5 -55.5z" />
<glyph unicode="&#x436;" horiz-adv-x="733" d="M651 0l-164 263q-5 -2 -36 -17l-68 -30v-216h-33v216l-68 30l-37 17l-163 -263h-40l175 278q-38 22 -62 50t-43 74t-38 124h34q20 -85 41.5 -130t53 -70.5t90.5 -51.5l57 -25v277h33v-277l57 25q59 26 90.5 51.5t53 70.5t41.5 130h34q-19 -78 -38 -124t-43 -74t-62 -50 l175 -278h-40z" />
<glyph unicode="&#x437;" horiz-adv-x="425" d="M341.5 228q25.5 -32 25.5 -83q0 -76 -51 -116.5t-133 -40.5q-86 0 -153 35l12 27q66 -32 140 -32q69 0 109.5 33t40.5 95q0 57 -36 83.5t-99 26.5h-85v29h84q54 0 87 30t33 78q0 62 -36 88.5t-92 26.5q-32 0 -64.5 -8t-59.5 -22l-12 27q66 34 137 34q70 0 115 -36 t45 -105q0 -46 -20.5 -76t-60.5 -48q48 -14 73.5 -46z" />
<glyph unicode="&#x438;" horiz-adv-x="535" d="M128 61l280 465h33v-526h-34v465l-280 -465h-33v526h34v-465z" />
<glyph unicode="&#x439;" horiz-adv-x="535" d="M128 61l280 465h33v-526h-34v465l-280 -465h-33v526h34v-465zM185.5 664q-33.5 30 -44.5 84h28q21 -84 103 -84q40 0 68 20.5t39 63.5h28q-12 -57 -46.5 -85.5t-89.5 -28.5q-52 0 -85.5 30z" />
<glyph unicode="&#x43a;" horiz-adv-x="498" d="M414 0l-171 261l-39 -18l-77 -35v-208h-33v526h33v-285l67 31q61 28 94 53.5t56.5 71t42.5 129.5h37q-18 -76 -38.5 -122t-47 -74.5t-65.5 -51.5l183 -278h-42z" />
<glyph unicode="&#x43b;" horiz-adv-x="517" d="M165.5 136.5q-10.5 -43.5 -36.5 -76.5t-80 -63l-15 29q44 24 67 53.5t33 71t15 113.5l21 262h253v-526h-34v497h-188l-19 -237q-6 -80 -16.5 -123.5z" />
<glyph unicode="&#x43c;" horiz-adv-x="638" d="M544 0h-34v471l-174 -364h-35l-173 364v-471h-34v526h41l184 -383l183 383h42v-526z" />
<glyph unicode="&#x43d;" horiz-adv-x="540" d="M446 0h-34v253h-284v-253h-34v526h34v-244h284v244h34v-526z" />
<glyph unicode="&#x43e;" horiz-adv-x="504" d="M108.5 57.5q-50.5 70.5 -50.5 205.5t50.5 205.5t143.5 70.5t143.5 -70.5t50.5 -205.5t-50.5 -205.5t-143.5 -70.5t-143.5 70.5zM370.5 80q40.5 62 40.5 183t-40.5 183t-118.5 62t-118.5 -62t-40.5 -183t40.5 -183t118.5 -62t118.5 62z" />
<glyph unicode="&#x43f;" horiz-adv-x="547" d="M128 0h-34v526h359v-526h-34v497h-291v-497z" />
<glyph unicode="&#x440;" horiz-adv-x="525" d="M419 59q-48 -72 -136 -72q-47 0 -87.5 22t-67.5 62v-278h-34v733h33v-78q64 91 157 91q88 0 135.5 -72.5t47.5 -204.5q0 -131 -48 -203zM393 443.5q-39 63.5 -112 63.5q-44 0 -81.5 -22.5t-71.5 -70.5v-304q28 -43 69 -67t87 -24q71 0 109.5 62t38.5 179q0 120 -39 183.5 z" />
<glyph unicode="&#x441;" horiz-adv-x="431" d="M106.5 62q-52.5 74 -52.5 211q0 81 24 141t68.5 92.5t104.5 32.5q33 0 69 -11t67 -31l-13 -27q-65 38 -124 38q-74 0 -117.5 -63t-43.5 -170q0 -123 44 -189t125 -66q66 0 121 37l14 -26q-27 -20 -63 -31.5t-73 -11.5q-98 0 -150.5 74z" />
<glyph unicode="&#x442;" horiz-adv-x="386" d="M210 0h-34v497h-152v29h338v-29h-152v-497z" />
<glyph unicode="&#x443;" horiz-adv-x="461" d="M171.5 -140.5q-49.5 -53.5 -119.5 -76.5l-12 31q63 22 105.5 66t69.5 116l-175 530h36l155 -488l154 488h36l-175 -534q-25 -79 -74.5 -132.5z" />
<glyph unicode="&#x444;" horiz-adv-x="669" d="M542 63q-69 -72 -194 -76v-194h-32v194q-123 5 -190.5 75.5t-67.5 200.5q0 127 68 199t190 77v202h32v-202q125 -4 194 -74.5t69 -201.5q0 -128 -69 -200zM518.5 84.5q59.5 62.5 59.5 178.5q0 117 -59 179t-171 66v-490q111 4 170.5 66.5zM148.5 85.5 q57.5 -62.5 167.5 -67.5v490q-109 -5 -167 -68t-58 -177q0 -115 57.5 -177.5z" />
<glyph unicode="&#x445;" horiz-adv-x="452" d="M224 242l-150 -242h-38l170 268l-163 258h38l145 -232l150 232h38l-170 -259l172 -267h-38z" />
<glyph unicode="&#x446;" horiz-adv-x="548" d="M508 29v-163h-27l-8 134h-55h-324v526h34v-497h281v497h34v-497h65z" />
<glyph unicode="&#x447;" horiz-adv-x="509" d="M415 526v-526h-34v249q-78 -35 -147 -35q-161 0 -161 165v147h34v-143q0 -71 30 -104.5t99 -33.5q62 0 145 35v246h34z" />
<glyph unicode="&#x448;" horiz-adv-x="764" d="M365 526h34v-497h237v497h34v-526h-576v526h34v-497h237v497z" />
<glyph unicode="&#x449;" horiz-adv-x="775" d="M735 29v-163h-27l-8 134h-55h-551v526h34v-497h237v497h34v-497h237v497h34v-497h65z" />
<glyph unicode="&#x44a;" horiz-adv-x="556" d="M463 280q43 -39 43 -116t-44.5 -120.5t-123.5 -43.5h-161v497h-153v29h169h18v-207h125q84 0 127 -39zM437 64q34 35 34 99q0 65 -33.5 96t-100.5 31h-126v-261h125q67 0 101 35z" />
<glyph unicode="&#x44b;" horiz-adv-x="661" d="M94 526h34v-207h125q84 0 127 -39t43 -116t-44.5 -120.5t-123.5 -43.5h-161v526zM567 526v-526h-34v526h34zM128 29h125q67 0 101 35t34 99q0 65 -33.5 96t-100.5 31h-126v-261z" />
<glyph unicode="&#x44c;" horiz-adv-x="473" d="M94 526h34v-207h125q84 0 127 -39t43 -116t-44.5 -120.5t-123.5 -43.5h-161v526zM128 29h125q67 0 101 35t34 99q0 65 -33.5 96t-100.5 31h-126v-261z" />
<glyph unicode="&#x44d;" horiz-adv-x="431" d="M324.5 470q52.5 -69 52.5 -192q0 -136 -54 -213t-149 -77q-37 0 -73 11.5t-63 31.5l14 26q55 -37 121 -37q77 0 120.5 62t48.5 176h-217v29h217q-1 103 -44.5 162t-116.5 59q-59 0 -124 -38l-13 27q31 20 67 31t69 11q92 0 144.5 -69z" />
<glyph unicode="&#x44e;" horiz-adv-x="700" d="M593 468q49 -71 49 -205t-50 -205t-138 -71q-87 0 -136 68.5t-50 198.5h-140v-254h-34v526h34v-243h140q4 124 53.5 190t133.5 66q89 0 138 -71zM567.5 80.5q39.5 62.5 39.5 182.5t-39 182.5t-113 62.5t-113 -62.5t-39 -182.5t38.5 -182.5t112.5 -62.5t113.5 62.5z" />
<glyph unicode="&#x44f;" horiz-adv-x="490" d="M42 0l146 222q-55 15 -83 53t-28 97q0 41 19.5 76.5t54.5 56.5t79 21h166v-526h-34v218h-137l-142 -218h-41zM232 497q-55 0 -87.5 -36t-32.5 -91q0 -56 30 -89.5t81 -33.5h139v250h-130z" />
<glyph unicode="&#x450;" horiz-adv-x="490" d="M348 1.5q-39 -13.5 -81 -13.5q-100 0 -155.5 72t-55.5 203q0 132 50.5 204t144.5 72q88 0 137.5 -66t49.5 -185q0 -12 -2 -26h-345q0 -114 46.5 -178t128.5 -64q76 0 134 45l14 -26q-27 -24 -66 -37.5zM135.5 452.5q-40.5 -55.5 -44.5 -161.5h313q0 109 -40 163t-116 54 q-72 0 -112.5 -55.5zM153 778v6h38l100 -163v-6h-30z" />
<glyph unicode="&#x451;" horiz-adv-x="490" d="M145.5 651.5q-7.5 8.5 -7.5 23.5t7.5 23.5t20.5 8.5t20.5 -8.5t7.5 -23.5t-7.5 -23.5t-20.5 -8.5t-20.5 8.5zM313.5 651.5q-7.5 8.5 -7.5 23.5t7.5 23.5t20.5 8.5t20.5 -8.5t7.5 -23.5t-7.5 -23.5t-20.5 -8.5t-20.5 8.5zM348 1.5q-39 -13.5 -81 -13.5q-100 0 -155.5 72 t-55.5 203q0 132 50.5 204t144.5 72q88 0 137.5 -66t49.5 -185q0 -12 -2 -26h-345q0 -114 46.5 -178t128.5 -64q76 0 134 45l14 -26q-27 -24 -66 -37.5zM135.5 452.5q-40.5 -55.5 -44.5 -161.5h313q0 109 -40 163t-116 54q-72 0 -112.5 -55.5z" />
<glyph unicode="&#x452;" horiz-adv-x="527" d="M399 490.5q39 -40.5 39 -113.5v-258q0 -78 -14.5 -126.5t-49 -80t-99.5 -55.5l-11 31q56 21 85.5 47t42 68.5t12.5 115.5v252q0 63 -29.5 95.5t-87.5 32.5q-44 0 -83.5 -20t-79.5 -62v-417h-34v634h-64v28h64v108h34v-108h220v-28h-220v-184q69 81 166 81q70 0 109 -40.5 z" />
<glyph unicode="&#x453;" horiz-adv-x="384" d="M94 526h268v-29h-234v-497h-34v526zM204 621l108 163h38v-6l-116 -163h-30v6z" />
<glyph unicode="&#x454;" horiz-adv-x="431" d="M393 31q-27 -20 -63 -31.5t-73 -11.5q-98 0 -150.5 74t-52.5 211q0 81 24 141t68.5 92.5t104.5 32.5q33 0 69 -11t67 -31l-13 -27q-65 38 -124 38q-71 0 -114.5 -59.5t-46.5 -161.5h217v-29h-217q3 -115 47 -176.5t122 -61.5q66 0 121 37z" />
<glyph unicode="&#x455;" horiz-adv-x="407" d="M112 0.5q-42 12.5 -74 35.5l12 28q66 -45 147 -45q61 0 93.5 30t32.5 87q0 48 -21 73.5t-70 37.5l-71 17q-58 14 -85.5 46t-27.5 86q0 68 39.5 105t113.5 37q37 0 75 -10.5t70 -29.5l-13 -28q-68 37 -135 37q-57 0 -87 -27.5t-30 -80.5q0 -44 20.5 -68t68.5 -35l71 -17 q60 -14 88 -48t28 -92q0 -73 -41.5 -112t-118.5 -39q-43 0 -85 12.5z" />
<glyph unicode="&#x456;" horiz-adv-x="226" d="M91.5 651.5q-7.5 8.5 -7.5 23.5q0 16 7.5 24.5t21.5 8.5t21.5 -8.5t7.5 -23.5q0 -16 -7.5 -24.5t-21.5 -8.5t-21.5 8.5zM130 526v-526h-34v526h34z" />
<glyph unicode="&#x457;" horiz-adv-x="226" d="M27.5 651.5q-7.5 8.5 -7.5 23.5t7.5 23.5t20.5 8.5t20.5 -8.5t7.5 -23.5t-7.5 -23.5t-20.5 -8.5t-20.5 8.5zM159.5 651.5q-7.5 8.5 -7.5 23.5t7.5 23.5t20.5 8.5t20.5 -8.5t7.5 -23.5t-7.5 -23.5t-20.5 -8.5t-20.5 8.5zM131 526v-526h-35v526h35z" />
<glyph unicode="&#x458;" horiz-adv-x="226" d="M91.5 651.5q-7.5 8.5 -7.5 23.5q0 16 7.5 24.5t21.5 8.5t21.5 -8.5t7.5 -23.5q0 -16 -7.5 -24.5t-21.5 -8.5t-21.5 8.5zM50 -148q25 24 35.5 64t10.5 107v503h34v-503q0 -76 -12.5 -121t-42.5 -73t-86 -47l-10 30q46 16 71 40z" />
<glyph unicode="&#x459;" horiz-adv-x="756" d="M389 497h-188l-19 -237q-6 -80 -16.5 -123.5t-36.5 -76.5t-80 -63l-15 29q44 24 67 53.5t33 71t15 113.5l21 262h253v-207h113q84 0 127 -39t43 -116t-44.5 -120.5t-123.5 -43.5h-149v497zM423 29h113q67 0 101 35t34 99q0 65 -33.5 96t-100.5 31h-114v-261z" />
<glyph unicode="&#x45a;" horiz-adv-x="771" d="M721 156q0 -74 -44.5 -115t-123.5 -41h-152v274h-273v-274h-34v526h34v-223h273v223h34v-223h116q170 0 170 -147zM652 62q34 33 34 93q0 62 -33.5 90.5t-100.5 28.5h-117v-245h116q67 0 101 33z" />
<glyph unicode="&#x45b;" horiz-adv-x="527" d="M399 490.5q39 -40.5 39 -113.5v-377h-34v371q0 63 -29.5 95.5t-87.5 32.5q-44 0 -83.5 -20t-79.5 -62v-417h-34v634h-64v28h64v108h34v-108h220v-28h-220v-184q69 81 166 81q70 0 109 -40.5z" />
<glyph unicode="&#x45c;" horiz-adv-x="498" d="M414 0l-171 261l-39 -18l-77 -35v-208h-33v526h33v-285l67 31q61 28 94 53.5t56.5 71t42.5 129.5h37q-18 -76 -38.5 -122t-47 -74.5t-65.5 -51.5l183 -278h-42zM240 621l108 163h38v-6l-116 -163h-30v6z" />
<glyph unicode="&#x45d;" horiz-adv-x="535" d="M128 61l280 465h33v-526h-34v465l-280 -465h-33v526h34v-465zM158 778v6h38l100 -163v-6h-30z" />
<glyph unicode="&#x45e;" horiz-adv-x="461" d="M171.5 -140.5q-49.5 -53.5 -119.5 -76.5l-12 31q63 22 105.5 66t69.5 116l-175 530h36l155 -488l154 488h36l-175 -534q-25 -79 -74.5 -132.5zM143.5 664q-33.5 30 -44.5 84h28q21 -84 103 -84q40 0 68 20.5t39 63.5h28q-12 -57 -46.5 -85.5t-89.5 -28.5q-52 0 -85.5 30z " />
<glyph unicode="&#x45f;" horiz-adv-x="547" d="M453 526v-526h-161l-6 -134h-25l-6 134h-161v526h34v-497h291v497h34z" />
<glyph unicode="&#x48a;" horiz-adv-x="679" d="M253.5 834q-33.5 30 -44.5 84h28q21 -84 103 -84q40 0 68 20.5t39 63.5h28q-12 -57 -46.5 -85.5t-89.5 -28.5q-52 0 -85.5 30zM642 32v-4l-55 -162h-26v4l33 130h-49h-10v665l-401 -665h-36v724h35v-663l401 663h36v-692h72z" />
<glyph unicode="&#x48b;" horiz-adv-x="549" d="M185.5 664q-33.5 30 -44.5 84h28q21 -84 103 -84q40 0 68 20.5t39 63.5h28q-12 -57 -46.5 -85.5t-89.5 -28.5q-52 0 -85.5 30zM512 29v-4l-54 -159h-26v4l34 130h-50h-9v465l-280 -465h-33v526h34v-465l280 465h33v-497h71z" />
<glyph unicode="&#x48c;" horiz-adv-x="571" d="M466 371.5q53 -55.5 53 -159.5q0 -102 -52.5 -157t-147.5 -55h-221v575h-64v32h64v117h35v-117h173v-32h-173v-148h183q97 0 150 -55.5zM440.5 78q42.5 46 42.5 136q0 89 -42 135t-122 46h-186v-363h183q82 0 124.5 46z" />
<glyph unicode="&#x48d;" horiz-adv-x="475" d="M382 280q43 -39 43 -116t-44.5 -120.5t-123.5 -43.5h-161v421h-64v28h64v77h34v-77h135v-28h-135v-102h125q84 0 127 -39zM356 64q34 35 34 99q0 65 -33.5 96t-100.5 31h-126v-261h125q67 0 101 35z" />
<glyph unicode="&#x48e;" horiz-adv-x="545" d="M481.5 358q-37.5 -56 -106.5 -73l30 -130l-32 -7l-31 132q-8 -1 -26 -1h-183v-279h-35v724h221q95 0 147.5 -57.5t52.5 -163.5q0 -89 -37.5 -145zM453.5 377.5q29.5 47.5 29.5 123.5q0 93 -43 142t-124 49h-183v-381h186q11 0 16 1l-32 139l32 7l33 -142q56 14 85.5 61.5 z" />
<glyph unicode="&#x48f;" horiz-adv-x="525" d="M439 96q-28 -66 -81 -92l28 -88l-30 -9l-27 86q-21 -6 -46 -6q-47 0 -87.5 22t-67.5 62v-278h-34v733h33v-78q64 91 157 91q88 0 135.5 -72.5t47.5 -204.5q0 -100 -28 -166zM410.5 116q21.5 57 21.5 144q0 120 -39 183.5t-112 63.5q-44 0 -81.5 -22.5t-71.5 -70.5v-304 q28 -43 69 -67t87 -24q20 0 35 4l-37 120l29 9l37 -117q41 24 62.5 81z" />
<glyph unicode="&#x490;" horiz-adv-x="502" d="M106 724h334l9 131h29v-163h-337v-692h-35v724z" />
<glyph unicode="&#x491;" horiz-adv-x="382" d="M94 526h231l8 131h27v-160h-232v-497h-34v526z" />
<glyph unicode="&#x492;" horiz-adv-x="475" d="M132 692v-305h193v-32h-193v-355h-35v355h-63v32h63v337h354v-32h-319z" />
<glyph unicode="&#x493;" horiz-adv-x="385" d="M129 497v-219h154v-28h-154v-250h-34v250h-63v28h63v248h268v-29h-234z" />
<glyph unicode="&#x494;" horiz-adv-x="554" d="M425 362q77 -57 77 -192v-12q0 -117 -46 -187.5t-153 -112.5l-12 31q96 38 136 102t40 167v9q0 122 -69 171t-205 49h-60v-387h-35v724h353v-32h-318v-273h66q149 0 226 -57z" />
<glyph unicode="&#x495;" horiz-adv-x="480" d="M363 238q63 -43 63 -144v-9q0 -80 -39 -135.5t-131 -91.5l-12 30q83 33 115.5 80t32.5 117v6q0 89 -54 125t-168 36h-42v-252h-34v526h268v-29h-234v-216h47q125 0 188 -43z" />
<glyph unicode="&#x496;" horiz-adv-x="905" d="M873 32v-166h-28l-9 134h-21l-218 359l-50 -23l-85 -38v-298h-34v298l-85 38l-51 24l-220 -360h-39l228 376q-54 32 -88 72t-58 104t-47 172h35q26 -122 54.5 -185.5t71 -100t124.5 -72.5l75 -34v392h34v-392l75 34q81 36 124 72.5t71 100t54 185.5h36 q-23 -108 -47 -171.5t-58 -104t-88 -71.5l209 -345h35z" />
<glyph unicode="&#x497;" horiz-adv-x="735" d="M704 29v-163h-27l-8 134h-18l-164 263q-5 -2 -36 -17l-68 -30v-216h-33v216l-68 30l-37 17l-163 -263h-40l175 278q-38 22 -62 50t-43 74t-38 124h34q20 -85 41.5 -130t53 -70.5t90.5 -51.5l57 -25v277h33v-277l57 25q59 26 90.5 51.5t53 70.5t41.5 130h34 q-19 -78 -38 -124t-43 -74t-62 -50l157 -249h31z" />
<glyph unicode="&#x498;" horiz-adv-x="513" d="M398.5 52q-55.5 -54 -148.5 -63l-6 -123h-26l-5 122q-104 0 -188 48l15 30q80 -45 176 -45q93 0 148 47t55 134q0 82 -48 118t-124 36h-115v33h107q72 0 113 39t41 114q0 79 -48 121t-122 42q-40 0 -81.5 -12t-77.5 -33l-13 28q82 49 172 49q91 0 148 -50.5t57 -140.5 q0 -132 -108 -170q134 -31 134 -174q0 -96 -55.5 -150z" />
<glyph unicode="&#x499;" horiz-adv-x="425" d="M325.5 36.5q-41.5 -39.5 -111.5 -46.5l-6 -124h-25l-5 122q-84 2 -148 35l12 27q66 -32 140 -32q69 0 109.5 33t40.5 95q0 57 -36 83.5t-99 26.5h-85v29h84q54 0 87 30t33 78q0 62 -36 88.5t-92 26.5q-32 0 -64.5 -8t-59.5 -22l-12 27q66 34 137 34q70 0 115 -36t45 -105 q0 -46 -20.5 -76t-60.5 -48q48 -14 73.5 -46t25.5 -83q0 -69 -41.5 -108.5z" />
<glyph unicode="&#x49a;" horiz-adv-x="609" d="M573 32v-166h-28l-9 134h-22l-227 365q-22 -12 -52 -25l-102 -45v-295h-35v724h35v-394l90 40q86 38 131 74t75 99t56 181h38q-23 -105 -49 -168t-62 -102.5t-92 -71.5l217 -350h36z" />
<glyph unicode="&#x49b;" horiz-adv-x="505" d="M469 29v-163h-27l-8 134h-20l-171 261l-39 -18l-77 -35v-208h-33v526h33v-285l67 31q61 28 94 53.5t56.5 71t42.5 129.5h37q-18 -76 -38.5 -122t-47 -74.5t-65.5 -51.5l164 -249h32z" />
<glyph unicode="&#x49c;" horiz-adv-x="590" d="M291 361v-229h-34v218l-124 -56v-294h-35v724h35v-394l124 55v198h34v-180q55 30 89 66.5t58.5 95.5t46.5 159h38q-23 -105 -49 -168.5t-62 -103t-92 -71.5l237 -381h-43z" />
<glyph unicode="&#x49d;" horiz-adv-x="498" d="M252 249v-161h-32v162l-93 -43v-207h-33v526h33v-285l93 43v154h32v-137q53 31 83 78.5t52 146.5h37q-18 -76 -38.5 -122.5t-47 -75t-65.5 -51.5l183 -277h-42z" />
<glyph unicode="&#x49e;" horiz-adv-x="590" d="M514 0l-227 365q-22 -12 -52 -25l-102 -45v-295h-35v573h-64v32h64v119h35v-119h152v-32h-152v-243l90 40q86 38 131 74t75 99t56 181h38q-23 -105 -49 -168t-62 -102.5t-92 -71.5l237 -382h-43z" />
<glyph unicode="&#x49f;" horiz-adv-x="498" d="M414 0l-171 261l-39 -18l-77 -35v-208h-33v425h-64v28h64v73h33v-73h114v-28h-114v-184l67 31q61 28 94 53.5t56.5 71t42.5 129.5h37q-18 -76 -38.5 -122t-47 -74.5t-65.5 -51.5l183 -278h-42z" />
<glyph unicode="&#x4a0;" horiz-adv-x="713" d="M637 0l-227 365q-22 -12 -52 -25l-102 -45v-295h-35v692h-189v32h207h17v-394l90 40q86 38 131 74t75 99t56 181h38q-23 -105 -49 -168t-62 -102.5t-92 -71.5l237 -382h-43z" />
<glyph unicode="&#x4a1;" horiz-adv-x="581" d="M497 0l-171 261l-39 -18l-77 -35v-208h-33v497h-153v29h169h17v-285l67 31q61 28 94 53.5t56.5 71t42.5 129.5h37q-18 -76 -38.5 -122t-47 -74.5t-65.5 -51.5l183 -278h-42z" />
<glyph unicode="&#x4a2;" horiz-adv-x="661" d="M621 32v-166h-28l-9 134h-58h-11v352h-382v-352h-35v724h35v-340h382v340h35v-692h71z" />
<glyph unicode="&#x4a3;" horiz-adv-x="551" d="M511 29v-163h-27l-8 134h-55h-9v253h-284v-253h-34v526h34v-244h284v244h34v-497h65z" />
<glyph unicode="&#x4a4;" horiz-adv-x="870" d="M504 0v352h-371v-352h-35v724h35v-340h371v340h342v-32h-307v-692h-35z" />
<glyph unicode="&#x4a5;" horiz-adv-x="689" d="M405 0v253h-277v-253h-34v526h34v-244h277v244h262v-29h-228v-497h-34z" />
<glyph unicode="&#x4a6;" horiz-adv-x="975" d="M846 362q77 -57 77 -192v-12q0 -117 -46 -187.5t-153 -112.5l-12 31q96 37 136 101.5t40 167.5v9q0 122 -69 171t-205 49h-60v-387h-35v692h-386v-692h-35v724h456v-305h66q149 0 226 -57z" />
<glyph unicode="&#x4a7;" horiz-adv-x="807" d="M689.5 261.5q63.5 -47.5 63.5 -153.5v-9q0 -88 -38.5 -146.5t-131.5 -94.5l-12 30q83 33 115.5 82.5t32.5 128.5v6q0 95 -54.5 135t-167.5 40h-44v-280h-34v497h-291v-497h-34v526h359v-217h49q124 0 187.5 -47.5z" />
<glyph unicode="&#x4a8;" horiz-adv-x="757" d="M697 -38q-110 21 -193 60q-63 -34 -139 -34q-94 0 -161.5 48.5t-103 134.5t-35.5 197q0 105 33 194.5t115 170.5l24 -22q-72 -75 -104 -156.5t-32 -185.5q0 -103 32 -182t91.5 -123t141.5 -44q56 0 104 21q-91 53 -136 143t-45 227q0 147 48.5 236.5t142.5 89.5 q63 0 111 -41t75 -116.5t27 -174.5q0 -119 -41.5 -214t-115.5 -149q76 -32 168 -50zM370 192q45 -85 134 -134q71 44 112.5 132.5t41.5 212.5q0 95 -23.5 163t-64 103.5t-90.5 35.5q-78 0 -116.5 -78t-38.5 -216q0 -134 45 -219z" />
<glyph unicode="&#x4a9;" horiz-adv-x="621" d="M567 -40q-91 18 -158 52q-52 -25 -109 -25q-73 0 -127.5 34t-84 97t-29.5 146q0 84 25 149.5t88 125.5l23 -22q-56 -53 -79 -113.5t-23 -135.5q0 -76 26.5 -132.5t74 -87t108.5 -30.5q39 0 74 12q-71 45 -100.5 112.5t-29.5 165.5t37.5 164.5t111.5 66.5q49 0 87.5 -30 t60 -84.5t21.5 -125.5q0 -89 -33 -159t-90 -110q50 -24 132 -41zM310 149.5q30 -63.5 100 -103.5q56 32 88 97t32 156q0 62 -17.5 109.5t-48 73.5t-69.5 26q-60 0 -87.5 -56.5t-27.5 -143.5q0 -95 30 -158.5z" />
<glyph unicode="&#x4aa;" horiz-adv-x="551" d="M439 0.5q-43 -11.5 -91 -12.5l-5 -122h-26l-6 123q-125 11 -191 104.5t-66 257.5q0 118 34 205t98 134t150 47q41 0 86 -12t82 -34l-14 -28q-77 42 -156 42q-74 0 -129 -42.5t-85 -121.5t-30 -186q0 -161 66.5 -247.5t189.5 -86.5q88 0 149 38l14 -27q-27 -20 -70 -31.5z " />
<glyph unicode="&#x4ab;" horiz-adv-x="431" d="M337 1.5q-32 -11.5 -66 -13.5l-5 -122h-25l-6 123q-88 8 -134.5 81.5t-46.5 202.5q0 81 24 141t68.5 92.5t104.5 32.5q33 0 69 -11t67 -31l-13 -27q-65 38 -124 38q-74 0 -117.5 -63t-43.5 -170q0 -123 44 -189t125 -66q66 0 121 37l14 -26q-24 -18 -56 -29.5z" />
<glyph unicode="&#x4ac;" horiz-adv-x="477" d="M256 692v-660h71v-166h-28l-9 134h-58h-11v692h-189v32h413v-32h-189z" />
<glyph unicode="&#x4ad;" horiz-adv-x="386" d="M210 497v-468h65v-163h-27l-8 134h-55h-9v497h-152v29h338v-29h-152z" />
<glyph unicode="&#x4ae;" horiz-adv-x="533" d="M249 268l-221 456h37l201 -421l202 421h37l-221 -456v-268h-35v268z" />
<glyph unicode="&#x4af;" horiz-adv-x="478" d="M223 64l-196 462h34l179 -422l177 422h33l-193 -464v-269h-34v271z" />
<glyph unicode="&#x4b0;" horiz-adv-x="533" d="M284 213h131v-32h-131v-181h-35v181h-135v32h135v55l-221 456h37l201 -421l202 421h37l-221 -456v-55z" />
<glyph unicode="&#x4b1;" horiz-adv-x="478" d="M257 36h116v-28h-116v-215h-34v215h-115v28h115v28l-196 462h34l179 -422l177 422h33l-193 -464v-26z" />
<glyph unicode="&#x4b2;" horiz-adv-x="582" d="M542 32v-166h-28l-9 134h-20l-207 339l-203 -339h-38l223 367l-217 357h39l198 -330l203 330h39l-223 -358l204 -334h39z" />
<glyph unicode="&#x4b3;" horiz-adv-x="475" d="M433 29v-163h-27l-8 134h-16l-154 242l-150 -242h-38l170 268l-163 258h38l145 -232l150 232h38l-170 -259l153 -238h32z" />
<glyph unicode="&#x4b4;" horiz-adv-x="770" d="M730 32v-166h-28l-9 134h-58h-418v692h-185v32h220h184v-32h-184v-660h372v692h35v-692h71z" />
<glyph unicode="&#x4b5;" horiz-adv-x="613" d="M573 29v-163h-27l-8 134h-55h-319v497h-140v29h174h138v-29h-138v-468h276v497h34v-497h65z" />
<glyph unicode="&#x4b6;" horiz-adv-x="631" d="M591 32v-166h-28l-9 134h-58h-11v355q-100 -48 -200 -48q-98 0 -150 55t-52 159v203h35v-198q0 -93 43.5 -140t126.5 -47q97 0 197 51v334h35v-692h71z" />
<glyph unicode="&#x4b7;" d="M480 29v-163h-27l-8 134h-55h-9v249q-78 -35 -147 -35q-161 0 -161 165v147h34v-143q0 -71 30 -104.5t99 -33.5q62 0 145 35v246h34v-497h65z" />
<glyph unicode="&#x4b8;" horiz-adv-x="617" d="M519 724v-724h-35v355q-80 -38 -162 -46v-161h-34v159h-4q-98 0 -150 55t-52 159v203h35v-198q0 -93 43.5 -140t126.5 -47h1v166h34v-164q81 8 162 49v334h35z" />
<glyph unicode="&#x4b9;" horiz-adv-x="509" d="M415 526v-526h-34v249q-60 -28 -120 -34v-116h-31v115q-157 1 -157 165v147h34v-143q0 -69 29 -103t94 -35v136h31v-135q54 6 120 34v246h34z" />
<glyph unicode="&#x4ba;" horiz-adv-x="594" d="M461 398.5q50 -56.5 50 -163.5v-235h-35v232q0 191 -167 191q-43 0 -84 -11t-92 -34v-378h-35v724h35v-312q53 23 94 33t85 10q99 0 149 -56.5z" />
<glyph unicode="&#x4bb;" horiz-adv-x="530" d="M128 770v-312q69 81 166 81q69 0 108 -40.5t39 -113.5v-385h-34v379q0 63 -29.5 95.5t-86.5 32.5q-44 0 -83.5 -20t-79.5 -62v-425h-34v770h34z" />
<glyph unicode="&#x4bc;" horiz-adv-x="717" d="M666 355h-484q2 -164 64 -249t182 -85q47 0 96.5 14.5t92.5 41.5l15 -27q-39 -29 -95 -45.5t-111 -16.5q-132 0 -204 93.5t-73 273.5h-19q-53 0 -83.5 29t-30.5 82q0 47 21 91l26 -10q-16 -36 -16 -78q0 -41 21.5 -62t63.5 -21h17q5 168 74.5 259t188.5 91 q80 0 137.5 -41.5t88 -120.5t30.5 -189q0 -14 -2 -30zM577.5 619q-59.5 84 -166.5 84q-105 0 -165 -82t-64 -235h451q4 149 -55.5 233z" />
<glyph unicode="&#x4bd;" horiz-adv-x="565" d="M511 262h-345q0 -114 46.5 -178t128.5 -64q76 0 134 45l14 -26q-27 -24 -66 -37.5t-81 -13.5q-100 0 -155.5 72t-55.5 202h-26q-39 0 -62 22.5t-23 59.5q0 35 17 67l25 -10q-12 -27 -12 -55q0 -55 57 -55h25q5 119 55.5 183.5t138.5 64.5t137.5 -66t49.5 -185 q0 -12 -2 -26zM479 291q0 109 -40 163t-116 54q-72 0 -112.5 -55.5t-44.5 -161.5h313z" />
<glyph unicode="&#x4be;" horiz-adv-x="717" d="M666 355h-484q2 -164 64 -249t182 -85q47 0 96.5 14.5t92.5 41.5l15 -27q-35 -27 -85.5 -43t-101.5 -18l-5 -123h-26l-5 122q-125 7 -192 100t-68 267h-19q-53 0 -83.5 29t-30.5 82q0 47 21 91l26 -10q-16 -36 -16 -78q0 -41 21.5 -62t63.5 -21h17q5 168 74.5 259 t188.5 91q80 0 137.5 -41.5t88 -120.5t30.5 -189q0 -14 -2 -30zM577.5 619q-59.5 84 -166.5 84q-105 0 -165 -82t-64 -235h451q4 149 -55.5 233z" />
<glyph unicode="&#x4bf;" horiz-adv-x="565" d="M511 262h-345q0 -114 46.5 -178t128.5 -64q76 0 134 45l14 -26q-25 -22 -61 -35.5t-75 -15.5l-5 -122h-25l-6 123q-89 9 -137.5 80t-48.5 193h-26q-39 0 -62 22.5t-23 59.5q0 35 17 67l25 -10q-12 -27 -12 -55q0 -55 57 -55h25q5 119 55.5 183.5t138.5 64.5t137.5 -66 t49.5 -185q0 -12 -2 -26zM479 291q0 109 -40 163t-116 54q-72 0 -112.5 -55.5t-44.5 -161.5h313z" />
<glyph unicode="&#x4c0;" horiz-adv-x="235" d="M135 724v-724h-35v724h35z" />
<glyph unicode="&#x4c1;" horiz-adv-x="890" d="M815 0l-218 359l-50 -23l-85 -38v-298h-34v298l-85 38l-51 24l-220 -360h-39l228 376q-54 32 -88 72t-58 104t-47 172h35q26 -122 54.5 -185.5t71 -100t124.5 -72.5l75 -34v392h34v-392l75 34q81 36 124 72.5t71 100t54 185.5h36q-23 -108 -47 -171.5t-58 -104t-88 -71.5 l228 -377h-42zM358.5 834q-33.5 30 -44.5 84h28q21 -84 103 -84q40 0 68 20.5t39 63.5h28q-12 -57 -46.5 -85.5t-89.5 -28.5q-52 0 -85.5 30z" />
<glyph unicode="&#x4c2;" horiz-adv-x="733" d="M651 0l-164 263q-5 -2 -36 -17l-68 -30v-216h-33v216l-68 30l-37 17l-163 -263h-40l175 278q-38 22 -62 50t-43 74t-38 124h34q20 -85 41.5 -130t53 -70.5t90.5 -51.5l57 -25v277h33v-277l57 25q59 26 90.5 51.5t53 70.5t41.5 130h34q-19 -78 -38 -124t-43 -74t-62 -50 l175 -278h-40zM277.5 664q-33.5 30 -44.5 84h28q21 -84 103 -84q40 0 68 20.5t39 63.5h28q-12 -57 -46.5 -85.5t-89.5 -28.5q-52 0 -85.5 30z" />
<glyph unicode="&#x4c3;" horiz-adv-x="591" d="M537.5 26q10.5 -24 10.5 -50q0 -42 -21.5 -69t-69.5 -49l-14 30q36 16 52 36.5t16 52.5q0 18 -8.5 36.5t-25.5 46.5l-190 305q-22 -12 -52 -25l-102 -45v-295h-35v724h35v-394l90 40q86 38 131 74t75 99t56 181h38q-23 -105 -49 -168t-62 -102.5t-92 -71.5l187 -301 q20 -31 30.5 -55z" />
<glyph unicode="&#x4c4;" horiz-adv-x="495" d="M432.5 27q9.5 -24 9.5 -52q0 -40 -21 -67.5t-69 -49.5l-13 30q35 16 51.5 37t16.5 50q0 23 -8 41t-24 43l-132 202l-39 -18l-77 -35v-208h-33v526h33v-285l67 31q61 28 94 53.5t56.5 71t42.5 129.5h37q-18 -76 -38.5 -122t-47 -74.5t-65.5 -51.5l131 -199 q19 -28 28.5 -52z" />
<glyph unicode="&#x4c5;" horiz-adv-x="630" d="M593 32v-4l-55 -162h-26v4l33 130h-49h-10v692h-263l-24 -363q-6 -100 -19.5 -157t-44.5 -98.5t-92 -78.5l-17 30q54 32 81 70.5t38.5 91t18.5 145.5l28 392h329v-692h72z" />
<glyph unicode="&#x4c6;" horiz-adv-x="532" d="M495 29v-4l-54 -159h-26v4l34 130h-50h-9v497h-188l-19 -237q-6 -80 -16.5 -123.5t-36.5 -76.5t-80 -63l-15 29q44 24 67 53.5t33 71t15 113.5l21 262h253v-497h71z" />
<glyph unicode="&#x4c7;" horiz-adv-x="648" d="M538.5 -38q-11.5 -35 -38 -58t-75.5 -45l-14 31q40 18 61.5 35t32 46.5t10.5 82.5v298h-382v-352h-35v724h35v-340h382v340h35v-670q0 -57 -11.5 -92z" />
<glyph unicode="&#x4c8;" horiz-adv-x="540" d="M434.5 -40q-11.5 -35 -37.5 -57.5t-76 -43.5l-12 30q40 18 61 35t31.5 47t10.5 83v199h-284v-253h-34v526h34v-244h284v244h34v-472q0 -59 -11.5 -94z" />
<glyph unicode="&#x4c9;" horiz-adv-x="659" d="M622 32v-4l-55 -162h-26v4l33 130h-49h-10v352h-382v-352h-35v724h35v-340h382v340h35v-692h72z" />
<glyph unicode="&#x4ca;" horiz-adv-x="554" d="M517 29v-4l-54 -159h-26v4l34 130h-50h-9v253h-284v-253h-34v526h34v-244h284v244h34v-497h71z" />
<glyph unicode="&#x4cb;" horiz-adv-x="618" d="M520 724v-724h-35h-34l-9 -134h-28v166h71v323q-100 -48 -200 -48q-98 0 -150 55t-52 159v203h35v-198q0 -93 43.5 -140t126.5 -47q97 0 197 51v334h35z" />
<glyph unicode="&#x4cc;" horiz-adv-x="509" d="M415 526v-526h-34h-30l-8 -134h-27v163h65v220q-78 -35 -147 -35q-161 0 -161 165v147h34v-143q0 -71 30 -104.5t99 -33.5q62 0 145 35v246h34z" />
<glyph unicode="&#x4cd;" horiz-adv-x="788" d="M751 32v-4l-55 -162h-26v4l33 130h-49h-9v669l-238 -514h-38l-238 517v-672h-33v724h44l246 -533l246 533h45v-692h72z" />
<glyph unicode="&#x4ce;" horiz-adv-x="652" d="M615 29v-4l-54 -159h-26v4l34 130h-50h-9v471l-174 -364h-35l-173 364v-471h-34v526h41l184 -383l183 383h42v-497h71z" />
<glyph unicode="&#x4cf;" horiz-adv-x="222" d="M128 770v-770h-34v770h34z" />
<glyph unicode="&#x4d0;" horiz-adv-x="610" d="M467 215h-325l-74 -215h-36l252 724h42l252 -724h-37zM153 247h303l-152 441zM217.5 834q-33.5 30 -44.5 84h28q21 -84 103 -84q40 0 68 20.5t39 63.5h28q-12 -57 -46.5 -85.5t-89.5 -28.5q-52 0 -85.5 30z" />
<glyph unicode="&#x4d1;" horiz-adv-x="476" d="M356 72q-65 -83 -163 -83q-72 0 -112 39.5t-40 110.5q0 93 76.5 137t237.5 45v57q0 64 -32.5 96.5t-94.5 32.5q-63 0 -123 -33l-11 30q29 17 65 26t70 9q76 0 118 -40.5t42 -113.5v-385h-33v72zM144 254q-68 -37 -68 -115q0 -56 31 -87.5t87 -31.5q45 0 84.5 21t76.5 66 v185q-143 -1 -211 -38zM137.5 664q-33.5 30 -44.5 84h28q21 -84 103 -84q40 0 68 20.5t39 63.5h28q-12 -57 -46.5 -85.5t-89.5 -28.5q-52 0 -85.5 30z" />
<glyph unicode="&#x4d2;" horiz-adv-x="610" d="M198.5 821.5q-7.5 8.5 -7.5 23.5t7.5 23.5t20.5 8.5t20.5 -8.5t7.5 -23.5t-7.5 -23.5t-20.5 -8.5t-20.5 8.5zM370.5 821.5q-7.5 8.5 -7.5 23.5t7.5 23.5t20.5 8.5t20.5 -8.5t7.5 -23.5t-7.5 -23.5t-20.5 -8.5t-20.5 8.5zM467 215h-325l-74 -215h-36l252 724h42l252 -724 h-37zM153 247h303l-152 441z" />
<glyph unicode="&#x4d3;" horiz-adv-x="476" d="M120.5 651.5q-7.5 8.5 -7.5 23.5t7.5 23.5t20.5 8.5t20.5 -8.5t7.5 -23.5t-7.5 -23.5t-20.5 -8.5t-20.5 8.5zM288.5 651.5q-7.5 8.5 -7.5 23.5t7.5 23.5t20.5 8.5t20.5 -8.5t7.5 -23.5t-7.5 -23.5t-20.5 -8.5t-20.5 8.5zM356 72q-65 -83 -163 -83q-72 0 -112 39.5 t-40 110.5q0 93 76.5 137t237.5 45v57q0 64 -32.5 96.5t-94.5 32.5q-63 0 -123 -33l-11 30q29 17 65 26t70 9q76 0 118 -40.5t42 -113.5v-385h-33v72zM144 254q-68 -37 -68 -115q0 -56 31 -87.5t87 -31.5q45 0 84.5 21t76.5 66v185q-143 -1 -211 -38z" />
<glyph unicode="&#x4d4;" horiz-adv-x="828" d="M782 0h-370v207h-262l-114 -207h-38l398 724h374v-32h-323v-305h244v-32h-244v-323h335v-32zM412 682l-245 -443h245v443z" />
<glyph unicode="&#x4d5;" horiz-adv-x="767" d="M713 262h-335q0 -115 45 -178.5t125 -63.5q74 0 129 45l14 -26q-26 -24 -63.5 -37.5t-78.5 -13.5q-60 0 -104 28.5t-70 82.5q-44 -56 -89.5 -83t-97.5 -27q-69 0 -108 38.5t-39 107.5q0 91 74 134.5t230 44.5v55q0 68 -31 103t-91 35q-59 0 -119 -33l-10 30q29 17 63 26 t67 9q60 0 98.5 -31t49.5 -87q21 56 62 87t99 31q86 0 134 -66.5t48 -184.5q0 -12 -2 -26zM421.5 452.5q-39.5 -55.5 -43.5 -161.5h303q0 108 -39 162.5t-112 54.5q-69 0 -108.5 -55.5zM280 45q41 25 84 83q-11 31 -15 66.5t-4 90.5q-139 -1 -204.5 -37.5t-65.5 -112.5 q0 -54 30 -84.5t84 -30.5q50 0 91 25z" />
<glyph unicode="&#x4d6;" horiz-adv-x="528" d="M98 724h372v-32h-337v-305h258v-32h-258v-323h349v-32h-384v724zM202.5 834q-33.5 30 -44.5 84h28q21 -84 103 -84q40 0 68 20.5t39 63.5h28q-12 -57 -46.5 -85.5t-89.5 -28.5q-52 0 -85.5 30z" />
<glyph unicode="&#x4d7;" horiz-adv-x="490" d="M348 1.5q-39 -13.5 -81 -13.5q-100 0 -155.5 72t-55.5 203q0 132 50.5 204t144.5 72q88 0 137.5 -66t49.5 -185q0 -12 -2 -26h-345q0 -114 46.5 -178t128.5 -64q76 0 134 45l14 -26q-27 -24 -66 -37.5zM135.5 452.5q-40.5 -55.5 -44.5 -161.5h313q0 109 -40 163t-116 54 q-72 0 -112.5 -55.5zM161.5 664q-33.5 30 -44.5 84h28q21 -84 103 -84q40 0 68 20.5t39 63.5h28q-12 -57 -46.5 -85.5t-89.5 -28.5q-52 0 -85.5 30z" />
<glyph unicode="&#x4d8;" horiz-adv-x="633" d="M118 80.5q-69 92.5 -69 258.5q0 11 2 31h485q-2 163 -67 248t-187 85q-93 0 -181 -56l-16 27q40 29 92.5 45.5t106.5 16.5q138 0 211.5 -95.5t73.5 -279.5q0 -183 -66.5 -278t-192.5 -95q-123 0 -192 92.5zM475.5 101.5q56.5 80.5 60.5 237.5h-452q-5 -150 55.5 -234 t172.5 -84q107 0 163.5 80.5z" />
<glyph unicode="&#x4d9;" horiz-adv-x="490" d="M101.5 53q-49.5 66 -49.5 185q0 12 2 26h345q-1 114 -47 178t-128 64q-75 0 -134 -45l-14 26q27 24 66 37.5t81 13.5q100 0 155.5 -72t55.5 -203q0 -132 -50.5 -204t-144.5 -72q-88 0 -137.5 66zM353.5 73.5q39.5 55.5 44.5 161.5h-312q0 -107 40.5 -162t115.5 -55 q72 0 111.5 55.5z" />
<glyph unicode="&#x4da;" horiz-adv-x="633" d="M208.5 821.5q-7.5 8.5 -7.5 23.5t7.5 23.5t20.5 8.5t20.5 -8.5t7.5 -23.5t-7.5 -23.5t-20.5 -8.5t-20.5 8.5zM380.5 821.5q-7.5 8.5 -7.5 23.5t7.5 23.5t20.5 8.5t20.5 -8.5t7.5 -23.5t-7.5 -23.5t-20.5 -8.5t-20.5 8.5zM118 80.5q-69 92.5 -69 258.5q0 11 2 31h485 q-2 163 -67 248t-187 85q-93 0 -181 -56l-16 27q40 29 92.5 45.5t106.5 16.5q138 0 211.5 -95.5t73.5 -279.5q0 -183 -66.5 -278t-192.5 -95q-123 0 -192 92.5zM475.5 101.5q56.5 80.5 60.5 237.5h-452q-5 -150 55.5 -234t172.5 -84q107 0 163.5 80.5z" />
<glyph unicode="&#x4db;" horiz-adv-x="490" d="M138.5 651.5q-7.5 8.5 -7.5 23.5t7.5 23.5t20.5 8.5t20.5 -8.5t7.5 -23.5t-7.5 -23.5t-20.5 -8.5t-20.5 8.5zM306.5 651.5q-7.5 8.5 -7.5 23.5t7.5 23.5t20.5 8.5t20.5 -8.5t7.5 -23.5t-7.5 -23.5t-20.5 -8.5t-20.5 8.5zM101.5 53q-49.5 66 -49.5 185q0 12 2 26h345 q-1 114 -47 178t-128 64q-75 0 -134 -45l-14 26q27 24 66 37.5t81 13.5q100 0 155.5 -72t55.5 -203q0 -132 -50.5 -204t-144.5 -72q-88 0 -137.5 66zM353.5 73.5q39.5 55.5 44.5 161.5h-312q0 -107 40.5 -162t115.5 -55q72 0 111.5 55.5z" />
<glyph unicode="&#x4dc;" horiz-adv-x="890" d="M340.5 821.5q-7.5 8.5 -7.5 23.5t7.5 23.5t20.5 8.5t20.5 -8.5t7.5 -23.5t-7.5 -23.5t-20.5 -8.5t-20.5 8.5zM512.5 821.5q-7.5 8.5 -7.5 23.5t7.5 23.5t20.5 8.5t20.5 -8.5t7.5 -23.5t-7.5 -23.5t-20.5 -8.5t-20.5 8.5zM815 0l-218 359l-50 -23l-85 -38v-298h-34v298 l-85 38l-51 24l-220 -360h-39l228 376q-54 32 -88 72t-58 104t-47 172h35q26 -122 54.5 -185.5t71 -100t124.5 -72.5l75 -34v392h34v-392l75 34q81 36 124 72.5t71 100t54 185.5h36q-23 -108 -47 -171.5t-58 -104t-88 -71.5l228 -377h-42z" />
<glyph unicode="&#x4dd;" horiz-adv-x="733" d="M261.5 651.5q-7.5 8.5 -7.5 23.5t7.5 23.5t20.5 8.5t20.5 -8.5t7.5 -23.5t-7.5 -23.5t-20.5 -8.5t-20.5 8.5zM429.5 651.5q-7.5 8.5 -7.5 23.5t7.5 23.5t20.5 8.5t20.5 -8.5t7.5 -23.5t-7.5 -23.5t-20.5 -8.5t-20.5 8.5zM651 0l-164 263q-5 -2 -36 -17l-68 -30v-216h-33 v216l-68 30l-37 17l-163 -263h-40l175 278q-38 22 -62 50t-43 74t-38 124h34q20 -85 41.5 -130t53 -70.5t90.5 -51.5l57 -25v277h33v-277l57 25q59 26 90.5 51.5t53 70.5t41.5 130h34q-19 -78 -38 -124t-43 -74t-62 -50l175 -278h-40z" />
<glyph unicode="&#x4de;" horiz-adv-x="513" d="M128.5 821.5q-7.5 8.5 -7.5 23.5t7.5 23.5t20.5 8.5t20.5 -8.5t7.5 -23.5t-7.5 -23.5t-20.5 -8.5t-20.5 8.5zM300.5 821.5q-7.5 8.5 -7.5 23.5t7.5 23.5t20.5 8.5t20.5 -8.5t7.5 -23.5t-7.5 -23.5t-20.5 -8.5t-20.5 8.5zM454 202q0 -105 -65.5 -159.5t-172.5 -54.5 q-108 0 -191 48l15 30q80 -45 176 -45q93 0 148 47t55 134q0 82 -48 118t-124 36h-115v33h107q72 0 113 39t41 114q0 79 -48 121t-122 42q-40 0 -81.5 -12t-77.5 -33l-13 28q82 49 172 49q91 0 148 -50.5t57 -140.5q0 -132 -108 -170q134 -31 134 -174z" />
<glyph unicode="&#x4df;" horiz-adv-x="425" d="M97.5 651.5q-7.5 8.5 -7.5 23.5t7.5 23.5t20.5 8.5t20.5 -8.5t7.5 -23.5t-7.5 -23.5t-20.5 -8.5t-20.5 8.5zM265.5 651.5q-7.5 8.5 -7.5 23.5t7.5 23.5t20.5 8.5t20.5 -8.5t7.5 -23.5t-7.5 -23.5t-20.5 -8.5t-20.5 8.5zM341.5 228q25.5 -32 25.5 -83q0 -76 -51 -116.5 t-133 -40.5q-86 0 -153 35l12 27q66 -32 140 -32q69 0 109.5 33t40.5 95q0 57 -36 83.5t-99 26.5h-85v29h84q54 0 87 30t33 78q0 62 -36 88.5t-92 26.5q-32 0 -64.5 -8t-59.5 -22l-12 27q66 34 137 34q70 0 115 -36t45 -105q0 -46 -20.5 -76t-60.5 -48q48 -14 73.5 -46z" />
<glyph unicode="&#x4e0;" horiz-adv-x="526" d="M404 361q68 -50 68 -151q0 -108 -67 -165t-176 -57t-195 51l17 30q82 -48 177 -48q93 0 150.5 49t57.5 140q0 170 -237 170h-28v33l213 279h-323v32h366v-32l-214 -279q123 -2 191 -52z" />
<glyph unicode="&#x4e1;" horiz-adv-x="458" d="M348.5 146.5q63.5 -46.5 63.5 -149.5q0 -101 -60 -157t-157 -56q-98 0 -163 40l14 27q66 -37 148 -37q88 0 135.5 49.5t47.5 135.5q0 167 -212 167h-36v27l204 304h-277v29h316v-29l-205 -302q118 -2 181.5 -48.5z" />
<glyph unicode="&#x4e2;" horiz-adv-x="668" d="M224 855h242v-30h-242v30zM133 61l401 663h36v-724h-35v665l-401 -665h-36v724h35v-663z" />
<glyph unicode="&#x4e3;" horiz-adv-x="535" d="M128 61l280 465h33v-526h-34v465l-280 -465h-33v526h34v-465zM147 685h242v-30h-242v30z" />
<glyph unicode="&#x4e4;" horiz-adv-x="668" d="M236.5 821.5q-7.5 8.5 -7.5 23.5t7.5 23.5t20.5 8.5t20.5 -8.5t7.5 -23.5t-7.5 -23.5t-20.5 -8.5t-20.5 8.5zM408.5 821.5q-7.5 8.5 -7.5 23.5t7.5 23.5t20.5 8.5t20.5 -8.5t7.5 -23.5t-7.5 -23.5t-20.5 -8.5t-20.5 8.5zM133 61l401 663h36v-724h-35v665l-401 -665h-36 v724h35v-663z" />
<glyph unicode="&#x4e5;" horiz-adv-x="535" d="M162.5 651.5q-7.5 8.5 -7.5 23.5t7.5 23.5t20.5 8.5t20.5 -8.5t7.5 -23.5t-7.5 -23.5t-20.5 -8.5t-20.5 8.5zM330.5 651.5q-7.5 8.5 -7.5 23.5t7.5 23.5t20.5 8.5t20.5 -8.5t7.5 -23.5t-7.5 -23.5t-20.5 -8.5t-20.5 8.5zM128 61l280 465h33v-526h-34v465l-280 -465h-33 v526h34v-465z" />
<glyph unicode="&#x4e6;" horiz-adv-x="660" d="M222.5 821.5q-7.5 8.5 -7.5 23.5t7.5 23.5t20.5 8.5t20.5 -8.5t7.5 -23.5t-7.5 -23.5t-20.5 -8.5t-20.5 8.5zM394.5 821.5q-7.5 8.5 -7.5 23.5t7.5 23.5t20.5 8.5t20.5 -8.5t7.5 -23.5t-7.5 -23.5t-20.5 -8.5t-20.5 8.5zM132.5 82.5q-68.5 95.5 -68.5 279.5t68.5 279.5 t197.5 95.5t197.5 -95.5t68.5 -279.5t-68.5 -279.5t-197.5 -95.5t-197.5 95.5zM501.5 106q58.5 87 58.5 256t-58.5 256t-171.5 87t-171.5 -87t-58.5 -256t58.5 -256t171.5 -87t171.5 87z" />
<glyph unicode="&#x4e7;" horiz-adv-x="504" d="M147.5 651.5q-7.5 8.5 -7.5 23.5t7.5 23.5t20.5 8.5t20.5 -8.5t7.5 -23.5t-7.5 -23.5t-20.5 -8.5t-20.5 8.5zM315.5 651.5q-7.5 8.5 -7.5 23.5t7.5 23.5t20.5 8.5t20.5 -8.5t7.5 -23.5t-7.5 -23.5t-20.5 -8.5t-20.5 8.5zM108.5 57.5q-50.5 70.5 -50.5 205.5t50.5 205.5 t143.5 70.5t143.5 -70.5t50.5 -205.5t-50.5 -205.5t-143.5 -70.5t-143.5 70.5zM370.5 80q40.5 62 40.5 183t-40.5 183t-118.5 62t-118.5 -62t-40.5 -183t40.5 -183t118.5 -62t118.5 62z" />
<glyph unicode="&#x4e8;" horiz-adv-x="660" d="M527.5 641.5q68.5 -95.5 68.5 -279.5t-68.5 -279.5t-197.5 -95.5t-197.5 95.5t-68.5 279.5t68.5 279.5t197.5 95.5t197.5 -95.5zM162.5 624.5q-58.5 -80.5 -62.5 -237.5h460q-4 157 -62.5 237.5t-167.5 80.5t-167.5 -80.5zM500 104.5q58 85.5 60 250.5h-460 q2 -165 60 -250.5t170 -85.5t170 85.5z" />
<glyph unicode="&#x4e9;" horiz-adv-x="504" d="M395.5 468.5q50.5 -70.5 50.5 -205.5t-50.5 -205.5t-143.5 -70.5t-143.5 70.5t-50.5 205.5t50.5 205.5t143.5 70.5t143.5 -70.5zM136.5 450q-40.5 -58 -43.5 -170h318q-3 112 -43.5 170t-115.5 58t-115.5 -58zM368.5 77q40.5 59 42.5 174h-318q2 -115 42.5 -174 t116.5 -59t116.5 59z" />
<glyph unicode="&#x4ea;" horiz-adv-x="660" d="M222.5 821.5q-7.5 8.5 -7.5 23.5t7.5 23.5t20.5 8.5t20.5 -8.5t7.5 -23.5t-7.5 -23.5t-20.5 -8.5t-20.5 8.5zM394.5 821.5q-7.5 8.5 -7.5 23.5t7.5 23.5t20.5 8.5t20.5 -8.5t7.5 -23.5t-7.5 -23.5t-20.5 -8.5t-20.5 8.5zM527.5 641.5q68.5 -95.5 68.5 -279.5 t-68.5 -279.5t-197.5 -95.5t-197.5 95.5t-68.5 279.5t68.5 279.5t197.5 95.5t197.5 -95.5zM162.5 624.5q-58.5 -80.5 -62.5 -237.5h460q-4 157 -62.5 237.5t-167.5 80.5t-167.5 -80.5zM500 104.5q58 85.5 60 250.5h-460q2 -165 60 -250.5t170 -85.5t170 85.5z" />
<glyph unicode="&#x4eb;" horiz-adv-x="504" d="M147.5 651.5q-7.5 8.5 -7.5 23.5t7.5 23.5t20.5 8.5t20.5 -8.5t7.5 -23.5t-7.5 -23.5t-20.5 -8.5t-20.5 8.5zM315.5 651.5q-7.5 8.5 -7.5 23.5t7.5 23.5t20.5 8.5t20.5 -8.5t7.5 -23.5t-7.5 -23.5t-20.5 -8.5t-20.5 8.5zM395.5 468.5q50.5 -70.5 50.5 -205.5 t-50.5 -205.5t-143.5 -70.5t-143.5 70.5t-50.5 205.5t50.5 205.5t143.5 70.5t143.5 -70.5zM136.5 450q-40.5 -58 -43.5 -170h318q-3 112 -43.5 170t-115.5 58t-115.5 -58zM368.5 77q40.5 59 42.5 174h-318q2 -115 42.5 -174t116.5 -59t116.5 59z" />
<glyph unicode="&#x4ec;" horiz-adv-x="551" d="M140.5 821.5q-7.5 8.5 -7.5 23.5t7.5 23.5t20.5 8.5t20.5 -8.5t7.5 -23.5t-7.5 -23.5t-20.5 -8.5t-20.5 8.5zM312.5 821.5q-7.5 8.5 -7.5 23.5t7.5 23.5t20.5 8.5t20.5 -8.5t7.5 -23.5t-7.5 -23.5t-20.5 -8.5t-20.5 8.5zM422 642.5q75 -94.5 75 -270.5q0 -116 -34 -202.5 t-99.5 -134t-157.5 -47.5q-48 0 -92 11.5t-72 32.5l14 27q61 -38 149 -38q118 0 184.5 89.5t71.5 244.5h-310v32h310q-2 151 -67.5 234.5t-176.5 83.5q-79 0 -156 -42l-14 28q37 22 82 34t86 12q132 0 207 -94.5z" />
<glyph unicode="&#x4ed;" horiz-adv-x="431" d="M93.5 651.5q-7.5 8.5 -7.5 23.5t7.5 23.5t20.5 8.5t20.5 -8.5t7.5 -23.5t-7.5 -23.5t-20.5 -8.5t-20.5 8.5zM261.5 651.5q-7.5 8.5 -7.5 23.5t7.5 23.5t20.5 8.5t20.5 -8.5t7.5 -23.5t-7.5 -23.5t-20.5 -8.5t-20.5 8.5zM324.5 470q52.5 -69 52.5 -192q0 -136 -54 -213 t-149 -77q-37 0 -73 11.5t-63 31.5l14 26q55 -37 121 -37q77 0 120.5 62t48.5 176h-217v29h217q-1 103 -44.5 162t-116.5 59q-59 0 -124 -38l-13 27q31 20 67 31t69 11q92 0 144.5 -69z" />
<glyph unicode="&#x4ee;" horiz-adv-x="551" d="M404 825h-242v30h242v-30zM521 724l-182 -484q-31 -82 -52 -122t-59.5 -71.5t-106.5 -51.5l-9 35q72 21 108 55t63 98l-246 541h38l225 -499q1 4 11 31l173 468h37z" />
<glyph unicode="&#x4ef;" horiz-adv-x="461" d="M171.5 -140.5q-49.5 -53.5 -119.5 -76.5l-12 31q63 22 105.5 66t69.5 116l-175 530h36l155 -488l154 488h36l-175 -534q-25 -79 -74.5 -132.5zM112 685h242v-30h-242v30z" />
<glyph unicode="&#x4f0;" horiz-adv-x="551" d="M176.5 821.5q-7.5 8.5 -7.5 23.5t7.5 23.5t20.5 8.5t20.5 -8.5t7.5 -23.5t-7.5 -23.5t-20.5 -8.5t-20.5 8.5zM348.5 821.5q-7.5 8.5 -7.5 23.5t7.5 23.5t20.5 8.5t20.5 -8.5t7.5 -23.5t-7.5 -23.5t-20.5 -8.5t-20.5 8.5zM521 724l-182 -484q-31 -82 -52 -122t-59.5 -71.5 t-106.5 -51.5l-9 35q72 21 108 55t63 98l-246 541h38l225 -499q1 4 11 31l173 468h37z" />
<glyph unicode="&#x4f1;" horiz-adv-x="461" d="M128.5 651.5q-7.5 8.5 -7.5 23.5t7.5 23.5t20.5 8.5t20.5 -8.5t7.5 -23.5t-7.5 -23.5t-20.5 -8.5t-20.5 8.5zM296.5 651.5q-7.5 8.5 -7.5 23.5t7.5 23.5t20.5 8.5t20.5 -8.5t7.5 -23.5t-7.5 -23.5t-20.5 -8.5t-20.5 8.5zM171.5 -140.5q-49.5 -53.5 -119.5 -76.5l-12 31 q63 22 105.5 66t69.5 116l-175 530h36l155 -488l154 488h36l-175 -534q-25 -79 -74.5 -132.5z" />
<glyph unicode="&#x4f2;" horiz-adv-x="551" d="M212 781h-29v7l107 138h36v-7zM322 788l107 138h36v-7l-114 -138h-29v7zM521 724l-182 -484q-31 -82 -52 -122t-59.5 -71.5t-106.5 -51.5l-9 35q72 21 108 55t63 98l-246 541h38l225 -499q1 4 11 31l173 468h37z" />
<glyph unicode="&#x4f3;" horiz-adv-x="461" d="M171.5 -140.5q-49.5 -53.5 -119.5 -76.5l-12 31q63 22 105.5 66t69.5 116l-175 530h36l155 -488l154 488h36l-175 -534q-25 -79 -74.5 -132.5zM145 621l70 163h35v-6l-78 -163h-27v6zM278 621l70 163h35v-6l-78 -163h-27v6z" />
<glyph unicode="&#x4f4;" horiz-adv-x="618" d="M207.5 821.5q-7.5 8.5 -7.5 23.5t7.5 23.5t20.5 8.5t20.5 -8.5t7.5 -23.5t-7.5 -23.5t-20.5 -8.5t-20.5 8.5zM379.5 821.5q-7.5 8.5 -7.5 23.5t7.5 23.5t20.5 8.5t20.5 -8.5t7.5 -23.5t-7.5 -23.5t-20.5 -8.5t-20.5 8.5zM520 724v-724h-35v355q-100 -48 -200 -48 q-98 0 -150 55t-52 159v203h35v-198q0 -93 43.5 -140t126.5 -47q97 0 197 51v334h35z" />
<glyph unicode="&#x4f5;" horiz-adv-x="509" d="M153.5 651.5q-7.5 8.5 -7.5 23.5t7.5 23.5t20.5 8.5t20.5 -8.5t7.5 -23.5t-7.5 -23.5t-20.5 -8.5t-20.5 8.5zM321.5 651.5q-7.5 8.5 -7.5 23.5t7.5 23.5t20.5 8.5t20.5 -8.5t7.5 -23.5t-7.5 -23.5t-20.5 -8.5t-20.5 8.5zM415 526v-526h-34v249q-78 -35 -147 -35 q-161 0 -161 165v147h34v-143q0 -71 30 -104.5t99 -33.5q62 0 145 35v246h34z" />
<glyph unicode="&#x4f6;" horiz-adv-x="476" d="M133 692v-660h71v-166h-28l-9 134h-58h-11v724h354v-32h-319z" />
<glyph unicode="&#x4f7;" horiz-adv-x="384" d="M128 497v-468h65v-163h-27l-8 134h-55h-9v526h268v-29h-234z" />
<glyph unicode="&#x4f8;" horiz-adv-x="768" d="M289.5 821.5q-7.5 8.5 -7.5 23.5t7.5 23.5t20.5 8.5t20.5 -8.5t7.5 -23.5t-7.5 -23.5t-20.5 -8.5t-20.5 8.5zM461.5 821.5q-7.5 8.5 -7.5 23.5t7.5 23.5t20.5 8.5t20.5 -8.5t7.5 -23.5t-7.5 -23.5t-20.5 -8.5t-20.5 8.5zM98 724h35v-297h183q97 0 150 -55.5t53 -159.5 q0 -102 -52.5 -157t-147.5 -55h-221v724zM670 724v-724h-35v724h35zM133 32h183q82 0 124.5 46t42.5 136q0 89 -42 135t-122 46h-186v-363z" />
<glyph unicode="&#x4f9;" horiz-adv-x="661" d="M237.5 651.5q-7.5 8.5 -7.5 23.5t7.5 23.5t20.5 8.5t20.5 -8.5t7.5 -23.5t-7.5 -23.5t-20.5 -8.5t-20.5 8.5zM405.5 651.5q-7.5 8.5 -7.5 23.5t7.5 23.5t20.5 8.5t20.5 -8.5t7.5 -23.5t-7.5 -23.5t-20.5 -8.5t-20.5 8.5zM94 526h34v-207h125q84 0 127 -39t43 -116 t-44.5 -120.5t-123.5 -43.5h-161v526zM567 526v-526h-34v526h34zM128 29h125q67 0 101 35t34 99q0 65 -33.5 96t-100.5 31h-126v-261z" />
<glyph unicode="&#x4fa;" horiz-adv-x="476" d="M133 692v-305h191v-32h-191v-323h69v-11q0 -63 -19 -101.5t-72 -61.5l-13 31q40 17 53.5 43t15.5 68h-59h-10v355h-64v32h64v337h354v-32h-319z" />
<glyph unicode="&#x4fb;" horiz-adv-x="386" d="M128 496v-218h155v-29h-155v-220h70v-8q0 -63 -19 -101.5t-71 -61.5l-12 31q40 17 53 42.5t15 68.5h-60h-8v249h-64v29h64v248h268v-30h-236z" />
<glyph unicode="&#x4fc;" horiz-adv-x="553" d="M490.5 -93q-21.5 -27 -69.5 -49l-14 30q36 16 52.5 36.5t16.5 52.5q0 19 -9 39.5t-24 45.5l-169 277l-203 -339h-38l223 367l-217 357h39l198 -330l203 330h39l-223 -358l175 -285q22 -36 32 -58t10 -47q0 -42 -21.5 -69z" />
<glyph unicode="&#x4fd;" horiz-adv-x="450" d="M383 -92.5q-21 -27.5 -69 -49.5l-11 31q36 16 53 36.5t17 51.5q0 23 -8 41t-24 43l-118 180l-150 -241h-37l169 268l-162 258h36l146 -231l150 231h37l-168 -259l123 -188q18 -28 27.5 -51t9.5 -51q0 -42 -21 -69.5z" />
<glyph unicode="&#x4fe;" horiz-adv-x="552" d="M519 0h-38l-207 339l-203 -339h-38l216 356h-168v30h163l-205 338h39l198 -330l203 330h39l-211 -338h162v-30h-168z" />
<glyph unicode="&#x4ff;" horiz-adv-x="452" d="M416 0h-38l-154 242l-150 -242h-38l163 257h-122v28h118l-152 241h38l145 -232l150 232h38l-158 -241h116v-28h-122z" />
<glyph unicode="&#x524;" horiz-adv-x="665" d="M625 32v-166h-28l-9 134h-58h-11v692h-386v-692h-35v724h456v-692h71z" />
<glyph unicode="&#x525;" horiz-adv-x="558" d="M518 29v-163h-27l-8 134h-55h-9v497h-291v-497h-34v526h359v-497h65z" />
<glyph unicode="&#x2000;" horiz-adv-x="477" />
<glyph unicode="&#x2001;" horiz-adv-x="955" />
<glyph unicode="&#x2002;" horiz-adv-x="477" />
<glyph unicode="&#x2003;" horiz-adv-x="955" />
<glyph unicode="&#x2004;" horiz-adv-x="318" />
<glyph unicode="&#x2005;" horiz-adv-x="238" />
<glyph unicode="&#x2006;" horiz-adv-x="159" />
<glyph unicode="&#x2007;" horiz-adv-x="600" />
<glyph unicode="&#x2008;" horiz-adv-x="119" />
<glyph unicode="&#x2009;" horiz-adv-x="191" />
<glyph unicode="&#x200a;" horiz-adv-x="53" />
<glyph unicode="&#x2010;" horiz-adv-x="359" d="M57 307h245v-31h-245v31z" />
<glyph unicode="&#x2011;" horiz-adv-x="359" d="M57 307h245v-31h-245v31z" />
<glyph unicode="&#x2012;" horiz-adv-x="548" d="M57 307h434v-30h-434v30z" />
<glyph unicode="&#x2013;" horiz-adv-x="548" d="M57 307h434v-30h-434v30z" />
<glyph unicode="&#x2014;" horiz-adv-x="837" d="M57 307h723v-30h-723v30z" />
<glyph unicode="&#x2015;" horiz-adv-x="837" d="M57 307h723v-30h-723v30z" />
<glyph unicode="&#x2018;" horiz-adv-x="170" d="M147 724q-32 -31 -44 -63.5t-12 -82.5q0 -33 4 -58h-32q-4 25 -4 57q0 59 16 97t55 69z" />
<glyph unicode="&#x2019;" horiz-adv-x="150" d="M23 546q32 31 44 63.5t12 82.5q0 33 -4 58h32q4 -25 4 -57q0 -59 -16 -97t-55 -69z" />
<glyph unicode="&#x201a;" horiz-adv-x="210" d="M43 -121q32 31 44 63.5t12 82.5q0 33 -4 58h32q4 -25 4 -57q0 -59 -16 -97t-55 -69z" />
<glyph unicode="&#x201c;" horiz-adv-x="338" d="M147 724q-32 -31 -44 -63.5t-12 -82.5q0 -33 4 -58h-32q-4 25 -4 57q0 59 16 97t55 69zM279 724q-32 -31 -44 -63.5t-12 -82.5q0 -33 4 -58h-32q-4 25 -4 57q0 59 16 97t55 69z" />
<glyph unicode="&#x201d;" horiz-adv-x="302" d="M23 546q32 31 44 63.5t12 82.5q0 33 -4 58h32q4 -25 4 -57q0 -59 -16 -97t-55 -69zM155 546q32 31 44 63.5t12 82.5q0 33 -4 58h32q4 -25 4 -57q0 -59 -16 -97t-55 -69z" />
<glyph unicode="&#x201e;" horiz-adv-x="342" d="M43 -121q32 31 44 63.5t12 82.5q0 33 -4 58h32q4 -25 4 -57q0 -59 -16 -97t-55 -69zM175 -121q32 31 44 63.5t12 82.5q0 33 -4 58h32q4 -25 4 -57q0 -59 -16 -97t-55 -69z" />
<glyph unicode="&#x2020;" horiz-adv-x="425" d="M199 528l-128 -4v32l128 -4l-4 172h35l-4 -172l128 4v-32l-128 4l4 -353h-35z" />
<glyph unicode="&#x2021;" horiz-adv-x="425" d="M199 172l-128 -4v32l128 -4v332l-128 -4v32l128 -4l-4 172h35l-4 -172l128 4v-32l-128 4v-332l128 4v-32l-128 4l4 -172h-35z" />
<glyph unicode="&#x2022;" horiz-adv-x="439" d="M104 225.5q-41 43.5 -41 121.5t41 121.5t115 43.5t115.5 -43.5t41.5 -121.5t-41.5 -121.5t-115.5 -43.5t-115 43.5z" />
<glyph unicode="&#x2026;" horiz-adv-x="588" d="M461.5 -3q-8.5 9 -8.5 26t8.5 26t24.5 9t24.5 -9t8.5 -25q0 -17 -8.5 -26.5t-24.5 -9.5t-24.5 9zM77.5 -3q-8.5 9 -8.5 26t8.5 26t24.5 9t24.5 -9t8.5 -25q0 -17 -8.5 -26.5t-24.5 -9.5t-24.5 9zM269.5 -3q-8.5 9 -8.5 26t8.5 26t24.5 9t24.5 -9t8.5 -25 q0 -17 -8.5 -26.5t-24.5 -9.5t-24.5 9z" />
<glyph unicode="&#x202f;" horiz-adv-x="191" />
<glyph unicode="&#x2030;" horiz-adv-x="1168" d="M92.5 362q-32.5 55 -32.5 160t32.5 160t90.5 55t90.5 -55t32.5 -160t-32.5 -160t-90.5 -55t-90.5 55zM594 724h36l-382 -724h-36zM248.5 384.5q22.5 46.5 22.5 137.5t-22.5 137.5t-65.5 46.5t-65.5 -46.5t-22.5 -137.5t22.5 -137.5t65.5 -46.5t65.5 46.5zM568.5 42 q-32.5 55 -32.5 160t32.5 160t90.5 55t90.5 -55t32.5 -160t-32.5 -160t-90.5 -55t-90.5 55zM894.5 42q-32.5 55 -32.5 160t32.5 160t90.5 55t90.5 -55t32.5 -160t-32.5 -160t-90.5 -55t-90.5 55zM724.5 64.5q22.5 46.5 22.5 137.5t-22.5 137.5t-65.5 46.5t-65.5 -46.5 t-22.5 -137.5t22.5 -137.5t65.5 -46.5t65.5 46.5zM1050.5 64.5q22.5 46.5 22.5 137.5t-22.5 137.5t-65.5 46.5t-65.5 -46.5t-22.5 -137.5t22.5 -137.5t65.5 -46.5t65.5 46.5z" />
<glyph unicode="&#x2032;" horiz-adv-x="157" d="M54 523l34 225h35v-6l-42 -225h-27v6z" />
<glyph unicode="&#x2033;" horiz-adv-x="292" d="M54 523l34 225h35v-6l-42 -225h-27v6zM189 523l34 225h35v-6l-42 -225h-27v6z" />
<glyph unicode="&#x2039;" horiz-adv-x="299" d="M82 281l167 -211l-22 -19l-182 230l182 229l22 -19z" />
<glyph unicode="&#x203a;" horiz-adv-x="299" d="M254 281l-182 -229l-22 19l167 211l-167 210l22 19z" />
<glyph unicode="&#x2044;" horiz-adv-x="181" d="M-129 5l413 729l26 -15l-413 -729z" />
<glyph unicode="&#x205f;" horiz-adv-x="238" />
<glyph unicode="&#x2070;" horiz-adv-x="398" d="M60 550q0 227 139 227t139 -227q0 -226 -139 -226t-139 226zM278.5 401.5q25.5 47.5 25.5 148.5t-25.5 149t-79.5 48t-79.5 -48t-25.5 -149t25.5 -148.5t79.5 -47.5t79.5 47.5z" />
<glyph unicode="&#x2074;" horiz-adv-x="340" d="M302 462v-31h-54v-100h-33v100h-191v31l181 308h43v-308h54zM215 462v265l-153 -265h153z" />
<glyph unicode="&#x2075;" horiz-adv-x="350" d="M258 560q32 -34 32 -96q0 -67 -36.5 -103.5t-103.5 -36.5q-33 0 -62 9.5t-48 26.5l15 29q40 -34 95 -34q52 0 79 28t27 80q0 49 -24.5 75t-70.5 26q-22 0 -44.5 -5.5t-40.5 -15.5l-19 10l14 217h191v-30h-163l-13 -165q35 19 81 19q59 0 91 -34z" />
<glyph unicode="&#x2076;" horiz-adv-x="361" d="M290 558q33 -35 33 -99q0 -65 -34 -100t-96 -35q-64 0 -98.5 38t-34.5 107q0 47 14 87t43 77l111 144l25 -22l-111 -139q-20 -24 -29 -44q35 21 83 21q61 0 94 -35zM264.5 381q24.5 27 24.5 77q0 51 -25.5 78.5t-74.5 27.5q-48 0 -86 -26q-9 -28 -9 -68q0 -56 25 -86 t74 -30q47 0 71.5 27z" />
<glyph unicode="&#x2077;" horiz-adv-x="284" d="M256 770v-30l-170 -416l-30 12l166 404h-210v30h244z" />
<glyph unicode="&#x2078;" horiz-adv-x="362" d="M80.5 353.5q-36.5 29.5 -36.5 82.5q0 42 26.5 74.5t72.5 48.5q-37 11 -58 38t-21 65q0 54 31 84.5t86 30.5t86 -30.5t31 -84.5q0 -36 -21 -63t-59 -39q47 -15 73.5 -46.5t26.5 -73.5q0 -55 -36 -85.5t-101 -30.5q-64 0 -100.5 29.5zM244 605q21 22 21 53q0 89 -84 89 q-42 0 -63 -22.5t-21 -65.5q0 -65 85 -86q41 10 62 32zM258 376q26 22 26 64q0 36 -26.5 63t-77.5 43q-50 -16 -76 -42.5t-26 -62.5q0 -43 26 -65t77 -22t77 22z" />
<glyph unicode="&#x2079;" horiz-adv-x="361" d="M266.5 739q34.5 -38 34.5 -107q0 -47 -14 -87t-43 -77l-111 -144l-25 22l111 139q20 24 29 44q-34 -21 -83 -21q-61 0 -94 35t-33 99q0 65 34 100t96 35q64 0 98.5 -38zM97.5 564.5q25.5 -27.5 74.5 -27.5q48 0 86 26q9 29 9 68q0 56 -25 86t-74 30q-47 0 -71.5 -27 t-24.5 -77q0 -51 25.5 -78.5z" />
<glyph unicode="&#x207d;" horiz-adv-x="200" d="M71 394q-21 73 -21 155q0 83 21 157t59 123l22 -16q-34 -45 -51.5 -112t-17.5 -151t17.5 -150.5t51.5 -111.5l-22 -16q-38 49 -59 122z" />
<glyph unicode="&#x207e;" horiz-adv-x="200" d="M129 707q21 -73 21 -155q0 -83 -21 -157t-59 -123l-22 16q34 45 51.5 112t17.5 151t-17.5 150.5t-51.5 111.5l22 16q38 -49 59 -122z" />
<glyph unicode="&#x2080;" horiz-adv-x="398" d="M60 146q0 227 139 227t139 -227q0 -226 -139 -226t-139 226zM278.5 -2.5q25.5 47.5 25.5 148.5t-25.5 149t-79.5 48t-79.5 -48t-25.5 -149t25.5 -148.5t79.5 -47.5t79.5 47.5z" />
<glyph unicode="&#x2081;" horiz-adv-x="293" d="M169 366v-439h-33v401l-92 -39l-10 28l107 49h28z" />
<glyph unicode="&#x2082;" horiz-adv-x="328" d="M273 -43v-30h-240v30l140 183q35 46 46.5 69.5t11.5 48.5q0 41 -20 63t-59 22q-56 0 -107 -42l-13 23q55 49 124 49q52 0 80 -29t28 -82q0 -33 -14 -62t-54 -80l-127 -163h204z" />
<glyph unicode="&#x2083;" horiz-adv-x="349" d="M251.5 150.5q32.5 -31.5 32.5 -87.5q0 -68 -36.5 -105.5t-103.5 -37.5q-33 0 -62 10t-50 28l11 27q22 -16 48.5 -25t52.5 -9q52 0 79 28.5t27 82.5q0 43 -25.5 66.5t-74.5 23.5q-26 0 -46 -6l-13 18l133 172h-184v30h225v-30l-124 -155q7 1 20 1q58 0 90.5 -31.5z" />
<glyph unicode="&#x2084;" horiz-adv-x="346" d="M302 58v-31h-54v-100h-33v100h-191v31l181 308h43v-308h54zM215 58v265l-153 -265h153z" />
<glyph unicode="&#x2085;" horiz-adv-x="350" d="M258 156q32 -34 32 -96q0 -67 -36.5 -103.5t-103.5 -36.5q-33 0 -62 9.5t-48 26.5l15 29q40 -34 95 -34q52 0 79 28t27 80q0 49 -24.5 75t-70.5 26q-22 0 -44.5 -5.5t-40.5 -15.5l-19 10l14 217h191v-30h-163l-13 -165q35 19 81 19q59 0 91 -34z" />
<glyph unicode="&#x2086;" horiz-adv-x="361" d="M290 154q33 -35 33 -99q0 -65 -34 -100t-96 -35q-64 0 -98.5 38t-34.5 107q0 47 14 87t43 77l111 144l25 -22l-111 -139q-20 -24 -29 -44q35 21 83 21q61 0 94 -35zM264.5 -23q24.5 27 24.5 77q0 51 -25.5 78.5t-74.5 27.5q-48 0 -86 -26q-9 -28 -9 -68q0 -56 25 -86 t74 -30q47 0 71.5 27z" />
<glyph unicode="&#x2087;" horiz-adv-x="284" d="M256 366v-30l-170 -416l-30 12l166 404h-210v30h244z" />
<glyph unicode="&#x2088;" horiz-adv-x="362" d="M80.5 -50.5q-36.5 29.5 -36.5 82.5q0 42 26.5 74.5t72.5 48.5q-37 11 -58 38t-21 65q0 54 31 84.5t86 30.5t86 -30.5t31 -84.5q0 -36 -21 -63t-59 -39q47 -15 73.5 -46.5t26.5 -73.5q0 -55 -36 -85.5t-101 -30.5q-64 0 -100.5 29.5zM244 201q21 22 21 53q0 89 -84 89 q-42 0 -63 -22.5t-21 -65.5q0 -65 85 -86q41 10 62 32zM258 -28q26 22 26 64q0 36 -26.5 63t-77.5 43q-50 -16 -76 -42.5t-26 -62.5q0 -43 26 -65t77 -22t77 22z" />
<glyph unicode="&#x2089;" horiz-adv-x="361" d="M266.5 335q34.5 -38 34.5 -107q0 -47 -14 -87t-43 -77l-111 -144l-25 22l111 139q20 24 29 44q-34 -21 -83 -21q-61 0 -94 35t-33 99q0 65 34 100t96 35q64 0 98.5 -38zM97.5 160.5q25.5 -27.5 74.5 -27.5q48 0 86 26q9 29 9 68q0 56 -25 86t-74 30q-47 0 -71.5 -27 t-24.5 -77q0 -51 25.5 -78.5z" />
<glyph unicode="&#x208d;" horiz-adv-x="200" d="M71 -10q-21 73 -21 155q0 83 21 157t59 123l22 -16q-34 -45 -51.5 -112t-17.5 -151t17.5 -150.5t51.5 -111.5l-22 -16q-38 49 -59 122z" />
<glyph unicode="&#x208e;" horiz-adv-x="200" d="M129 303q21 -73 21 -155q0 -83 -21 -157t-59 -123l-22 16q34 45 51.5 112t17.5 151t-17.5 150.5t-51.5 111.5l22 16q38 -49 59 -122z" />
<glyph unicode="&#x20a1;" horiz-adv-x="509" d="M467 51q-25 -18 -59 -29.5t-69 -14.5l-6 -92h-32l6 91q-45 1 -86 17l-7 -108h-32l8 123q-66 39 -101 121.5t-35 201.5q0 138 46 227t132 118l6 103h32l-6 -95q28 5 53 5q12 0 34 -2l6 92h32l-6 -98q46 -12 84 -37l-14 -27q-38 22 -72 31l-40 -639q59 6 111 38zM309 38 l40 648q-20 2 -31 2q-31 0 -56 -6l-39 -625q40 -18 86 -19zM192 76l37 595q-69 -29 -104.5 -108t-35.5 -202q0 -211 103 -285z" />
<glyph unicode="&#x20a4;" horiz-adv-x="487" d="M106 32h316v-32h-350v32l32 44q54 76 60 189h-100v30h101v2q0 70 -20 125h-81v30h69q-15 36 -21.5 57.5t-6.5 55.5q0 83 43.5 127.5t124.5 44.5q43 0 82.5 -16t67.5 -46l-17 -27q-26 28 -60.5 42.5t-72.5 14.5q-64 0 -98.5 -36t-34.5 -102q0 -23 5 -41t16 -45l12 -29h190 v-30h-179q14 -49 14 -114v-13h165v-30h-167q-11 -145 -90 -233z" />
<glyph unicode="&#x20a6;" horiz-adv-x="710" d="M565 422v-120h67v-30h-67v-272h-32l-147 272h-209v-272h-32v272h-67v30h67v120h-67v30h67v272h32l147 -272h209v272h32v-272h67v-30h-67zM177 659v-207h112zM370 302l-65 120h-128v-120h193zM340 422l64 -120h129v120h-193zM533 64v208h-112z" />
<glyph unicode="&#x20a7;" horiz-adv-x="1045" d="M659 35l7 -30q-28 -12 -61 -12q-93 0 -93 120v384h-86q-2 -104 -52.5 -161.5t-141.5 -57.5h-79v-278h-35v724h35h83q84 0 134 -52t55 -146h87v138h34v-138h113v-29h-113v-383q0 -45 14.5 -67t46.5 -22q25 0 52 10zM351 358q39 48 39 141q0 95 -40 144t-118 49h-79v-382 h83q76 0 115 48zM950 236q25 -33 25 -91q0 -74 -37.5 -115.5t-104.5 -41.5q-32 0 -66 8.5t-62 24.5l12 29q60 -30 116 -30q107 0 107 120q0 48 -19 72.5t-64 33.5l-44 9q-53 11 -77.5 43.5t-24.5 89.5q0 71 35.5 110.5t99.5 39.5q28 0 58 -8t56 -22l-13 -29q-55 27 -104 27 q-48 0 -72.5 -29.5t-24.5 -85.5q0 -46 19 -70t64 -33l44 -9q52 -10 77 -43z" />
<glyph unicode="&#x20a9;" horiz-adv-x="858" d="M721 382h79v-31h-87l-85 -351h-42l-81 351h-152l-81 -351h-42l-85 351h-87v31h79l-83 342h37l80 -342h159l78 341h42l78 -341h159l80 342h37zM497 382l-68 295l-68 -295h136zM323 351h-145l73 -315zM680 351h-145l72 -315z" />
<glyph unicode="&#x20ab;" horiz-adv-x="522" d="M496 662v-28h-64v-634h-33v79q-64 -91 -157 -91q-88 0 -136 71t-48 202q0 129 48.5 200t136.5 71q47 0 87 -22t68 -62v186h-224v28h224v108h34v-108h64zM326.5 42.5q37.5 22.5 71.5 70.5v296q-28 43 -69 67t-87 24q-72 0 -110.5 -61t-38.5 -176q0 -118 39 -180.5 t113 -62.5q44 0 81.5 22.5zM63 -121h406v-30h-406v30z" />
<glyph unicode="&#x20ac;" horiz-adv-x="529" d="M473 56l14 -26q-29 -20 -63.5 -31t-68.5 -11q-100 0 -161 73t-77 208h-73v30h70q-2 40 -2 62q0 23 2 65h-70v30h73q17 135 78.5 208t160.5 73q33 0 67.5 -11t63.5 -31l-13 -27q-62 38 -117 38q-88 0 -140.5 -63.5t-66.5 -186.5h225v-30h-228q-2 -42 -2 -65q0 -22 2 -62 h228v-30h-225q14 -122 66.5 -185.5t140.5 -63.5q56 0 116 36z" />
<glyph unicode="&#x20b1;" horiz-adv-x="638" d="M592 544h-59q3 -24 3 -50t-3 -49h59v-30h-65q-17 -72 -66.5 -111t-125.5 -39h-155v-265h-35v415h-67v30h67v99h-67v30h67v150h190q76 0 125.5 -39t66.5 -111h65v-30zM180 574h311q-32 118 -162 118h-149v-118zM497 544h-317v-99h317q3 23 3 49t-3 50zM491 415h-311v-118 h149q132 0 162 118z" />
<glyph unicode="&#x20b2;" horiz-adv-x="616" d="M530 378v-328q-32 -21 -76 -33t-90 -12h-17v-90h-33v94q-110 17 -170 108.5t-60 244.5t60 244.5t170 108.5v94h33v-90h17q38 0 78 -11t72 -30l-13 -27q-66 36 -139 36h-15v-309h183zM169.5 139q49.5 -82 144.5 -98v642q-95 -16 -144.5 -97.5t-49.5 -223.5 q0 -141 49.5 -223zM364 37q67 0 131 27v282h-148v-309h17z" />
<glyph unicode="&#x20b5;" horiz-adv-x="509" d="M452 77l15 -26q-30 -21 -70.5 -33t-80.5 -12h-12v-91h-33v94q-104 17 -160.5 108t-56.5 244q0 154 56.5 245.5t160.5 108.5v94h33v-90h13q40 0 79.5 -12t70.5 -33l-14 -27q-71 41 -135 41h-14v-650h15q69 0 133 39zM135.5 140.5q46.5 -81.5 135.5 -98.5v642 q-89 -17 -135.5 -99.5t-46.5 -223.5q0 -139 46.5 -220.5z" />
<glyph unicode="&#x20b9;" d="M450 694h-159q79 -46 83 -163h76v-30h-76q-5 -89 -53.5 -138.5t-132.5 -50.5h-61l314 -306v-6h-40l-320 312v31h107q71 0 109 40t42 118h-277v30h277q-3 80 -41 121.5t-110 41.5h-126v30h117h271v-30z" />
<glyph unicode="&#x20ba;" horiz-adv-x="490" d="M459 314q0 -153 -77 -235.5t-220 -82.5q-23 0 -55 4v290l-66 -42h-7v33l73 46v131l-66 -42h-7v33l73 46v229h35v-207l181 115h7v-34l-188 -118v-131l181 115h7v-34l-188 -118v-283q7 -1 21 -1q126 0 193 74t67 212h36z" />
<glyph unicode="&#x20bd;" horiz-adv-x="581" d="M180 188h224v-30h-224v-158h-35v158h-67v30h67v125h-67v32h67v379h190q94 0 147 -54.5t53 -151.5t-53 -151t-147 -54h-155v-125zM456.5 648q-42.5 44 -126.5 44h-150v-347h150q84 0 126.5 44t42.5 129q0 86 -42.5 130z" />
<glyph unicode="&#x2122;" horiz-adv-x="827" d="M42 724h231v-28h-100v-412h-31v412h-100v28zM729 724v-440h-31v382l-136 -292h-17l-138 294l1 -384h-30v440h34l142 -302l140 302h35z" />
<glyph unicode="&#x2153;" horiz-adv-x="783" d="M563 719l-413 -729l-26 15l413 729zM136 686l-92 -39l-10 28l107 49h28v-439h-33v401zM685.5 223.5q32.5 -31.5 32.5 -87.5q0 -68 -36.5 -105.5t-103.5 -37.5q-33 0 -62 10t-50 28l11 27q22 -16 48.5 -25t52.5 -9q52 0 79 28.5t27 82.5q0 43 -25.5 66.5t-74.5 23.5 q-26 0 -46 -6l-13 18l133 172h-184v30h225v-30l-124 -155q7 1 20 1q58 0 90.5 -31.5z" />
<glyph unicode="&#x2154;" horiz-adv-x="858" d="M638 719l-413 -729l-26 15l413 729zM173 498q35 46 46.5 69.5t11.5 48.5q0 41 -20 63t-59 22q-56 0 -107 -42l-13 23q55 49 124 49q52 0 80 -29t28 -82q0 -33 -14 -62t-54 -80l-127 -163h204v-30h-240v30zM760.5 223.5q32.5 -31.5 32.5 -87.5q0 -68 -36.5 -105.5 t-103.5 -37.5q-33 0 -62 10t-50 28l11 27q22 -16 48.5 -25t52.5 -9q52 0 79 28.5t27 82.5q0 43 -25.5 66.5t-74.5 23.5q-26 0 -46 -6l-13 18l133 172h-184v30h225v-30l-124 -155q7 1 20 1q58 0 90.5 -31.5z" />
<glyph unicode="&#x215b;" horiz-adv-x="776" d="M563 719l-413 -729l-26 15l413 729zM136 686l-92 -39l-10 28l107 49h28v-439h-33v401zM705.5 182.5q26.5 -31.5 26.5 -73.5q0 -55 -36 -85.5t-101 -30.5q-64 0 -100.5 29.5t-36.5 82.5q0 42 26.5 74.5t72.5 48.5q-37 11 -58 38t-21 65q0 54 31 84.5t86 30.5t86 -30.5 t31 -84.5q0 -36 -21 -63t-59 -39q47 -15 73.5 -46.5zM596 242q41 10 62 32t21 53q0 89 -84 89q-42 0 -63 -22.5t-21 -65.5q0 -65 85 -86zM672 45q26 22 26 64q0 36 -26.5 63t-77.5 43q-50 -16 -76 -42.5t-26 -62.5q0 -43 26 -65t77 -22t77 22z" />
<glyph unicode="&#x215c;" horiz-adv-x="852" d="M639 719l-413 -729l-26 15l413 729zM247.5 315.5q-36.5 -37.5 -103.5 -37.5q-33 0 -62 10t-50 28l11 27q22 -16 48.5 -25t52.5 -9q52 0 79 28.5t27 82.5q0 43 -25.5 66.5t-74.5 23.5q-26 0 -46 -6l-13 18l133 172h-184v30h225v-30l-124 -155q7 1 20 1q58 0 90.5 -31.5 t32.5 -87.5q0 -68 -36.5 -105.5zM781.5 182.5q26.5 -31.5 26.5 -73.5q0 -55 -36 -85.5t-101 -30.5q-64 0 -100.5 29.5t-36.5 82.5q0 42 26.5 74.5t72.5 48.5q-37 11 -58 38t-21 65q0 54 31 84.5t86 30.5t86 -30.5t31 -84.5q0 -36 -21 -63t-59 -39q47 -15 73.5 -46.5z M672 242q41 10 62 32t21 53q0 89 -84 89q-42 0 -63 -22.5t-21 -65.5q0 -65 85 -86zM748 45q26 22 26 64q0 36 -26.5 63t-77.5 43q-50 -16 -76 -42.5t-26 -62.5q0 -43 26 -65t77 -22t77 22z" />
<glyph unicode="&#x215d;" horiz-adv-x="853" d="M640 719l-413 -729l-26 15l413 729zM253.5 314.5q-36.5 -36.5 -103.5 -36.5q-33 0 -62 9.5t-48 26.5l15 29q40 -34 95 -34q52 0 79 28t27 80q0 49 -24.5 75t-70.5 26q-22 0 -44.5 -5.5t-40.5 -15.5l-19 10l14 217h191v-30h-163l-13 -165q35 19 81 19q59 0 91 -34t32 -96 q0 -67 -36.5 -103.5zM782.5 182.5q26.5 -31.5 26.5 -73.5q0 -55 -36 -85.5t-101 -30.5q-64 0 -100.5 29.5t-36.5 82.5q0 42 26.5 74.5t72.5 48.5q-37 11 -58 38t-21 65q0 54 31 84.5t86 30.5t86 -30.5t31 -84.5q0 -36 -21 -63t-59 -39q47 -15 73.5 -46.5zM673 242 q41 10 62 32t21 53q0 89 -84 89q-42 0 -63 -22.5t-21 -65.5q0 -65 85 -86zM749 45q26 22 26 64q0 36 -26.5 63t-77.5 43q-50 -16 -76 -42.5t-26 -62.5q0 -43 26 -65t77 -22t77 22z" />
<glyph unicode="&#x215e;" horiz-adv-x="737" d="M524 719l-413 -729l-26 15l413 729zM56 290l166 404h-210v30h244v-30l-170 -416zM666.5 182.5q26.5 -31.5 26.5 -73.5q0 -55 -36 -85.5t-101 -30.5q-64 0 -100.5 29.5t-36.5 82.5q0 42 26.5 74.5t72.5 48.5q-37 11 -58 38t-21 65q0 54 31 84.5t86 30.5t86 -30.5t31 -84.5 q0 -36 -21 -63t-59 -39q47 -15 73.5 -46.5zM557 242q41 10 62 32t21 53q0 89 -84 89q-42 0 -63 -22.5t-21 -65.5q0 -65 85 -86zM633 45q26 22 26 64q0 36 -26.5 63t-77.5 43q-50 -16 -76 -42.5t-26 -62.5q0 -43 26 -65t77 -22t77 22z" />
<glyph unicode="&#x2202;" horiz-adv-x="543" d="M100.5 40.5q-42.5 53.5 -42.5 149.5q0 97 30.5 171.5t85 115.5t125.5 41q60 0 99 -28.5t51 -80.5h1q1 24 1 81q0 90 -13 146t-46.5 85.5t-93.5 29.5q-52 0 -108 -30l-11 28q28 16 60 25t60 9q72 0 112.5 -34t57 -100.5t16.5 -172.5q0 -145 -30.5 -255.5t-91 -172 t-146.5 -61.5q-74 0 -116.5 53.5zM334.5 63.5q48.5 45.5 74 116.5t25.5 146q0 79 -33.5 120t-98.5 41q-66 0 -113 -38t-71.5 -104.5t-24.5 -149.5q0 -87 32.5 -132t94.5 -45q66 0 114.5 45.5z" />
<glyph unicode="&#x2206;" horiz-adv-x="572" d="M548 0h-37h-470h-17l241 724h42zM501 32l-215 655l-216 -655h431z" />
<glyph unicode="&#x220f;" horiz-adv-x="626" d="M528 724v-856h-35v824h-360v-824h-35v856h430z" />
<glyph unicode="&#x2211;" horiz-adv-x="547" d="M68 -99l240 396l-240 395v32h421v-32h-379l240 -395l-240 -396h379v-32h-421v32z" />
<glyph unicode="&#x221a;" horiz-adv-x="603" d="M599 770l-307 -770h-36l-138 348h-84v32h106l134 -342l289 732h36z" />
<glyph unicode="&#x221e;" horiz-adv-x="837" d="M97 213.5q-39 51.5 -39 144.5t38.5 145t107.5 52q57 0 111.5 -42.5t102.5 -124.5q47 82 101.5 124.5t111.5 42.5q70 0 109 -51.5t39 -144.5t-38.5 -145t-107.5 -52q-57 0 -111.5 42.5t-102.5 124.5q-47 -82 -101.5 -124.5t-111.5 -42.5q-70 0 -109 51.5zM306 233.5 q47 39.5 95 123.5q-50 85 -97.5 125.5t-99.5 40.5q-54 0 -82.5 -42t-28.5 -122q0 -81 29 -123t85 -42q52 0 99 39.5zM715.5 236q28.5 42 28.5 122q0 81 -29 123t-84 42q-52 0 -99.5 -39.5t-95.5 -123.5q50 -85 97.5 -125.5t99.5 -40.5q54 0 82.5 42z" />
<glyph unicode="&#x222b;" horiz-adv-x="315" d="M9 -203v31q20 -4 38 -4q43 0 63.5 28t20.5 87v691q0 72 30.5 109t88.5 37q18 0 38 -5v-31q-20 4 -38 4q-43 0 -63.5 -28t-20.5 -86v-691q0 -72 -30 -109.5t-87 -37.5q-16 0 -40 5z" />
<glyph unicode="&#x2248;" d="M290 218q-17 9 -37 27q-19 16 -33 24t-35 8q-50 0 -104 -63l-20 20q60 75 126 75q26 0 43 -9t37 -27q19 -16 33 -24t35 -8q50 0 104 63l20 -20q-60 -75 -126 -75q-26 0 -43 9zM290 422q-17 9 -37 27q-19 16 -33 24t-35 8q-50 0 -104 -63l-20 20q60 75 126 75q26 0 43 -9 t37 -27q19 -16 33 -24t35 -8q50 0 104 63l20 -20q-60 -75 -126 -75q-26 0 -43 9z" />
<glyph unicode="&#x2260;" horiz-adv-x="558" d="M330 457l-68 -192h214v-32h-225l-60 -172h-32v6l58 166h-135v32h146l68 192h-214v32h225l60 172h32v-6l-58 -166h135v-32h-146z" />
<glyph unicode="&#x2264;" horiz-adv-x="419" d="M362 230l-331 201v6l331 201h6v-34l-280 -170l280 -170v-34h-6zM39 66v32h329v-32h-329z" />
<glyph unicode="&#x2265;" horiz-adv-x="419" d="M51 264l280 170l-280 170v34h6l331 -201v-6l-331 -201h-6v34zM51 98h329v-32h-329v32z" />
<glyph unicode="&#x25ca;" horiz-adv-x="504" d="M53 363l180 361h38l180 -361l-180 -363h-38zM412 363l-160 329l-160 -329l160 -331z" />
<glyph unicode="&#x25fc;" horiz-adv-x="525" d="M0 525h525v-525h-525v525z" />
<glyph horiz-adv-x="226" d="M96 526h34v-526h-34v526zM91.5 651.5q-7.5 8.5 -7.5 23.5q0 16 7.5 24.5t21.5 8.5t21.5 -8.5t7.5 -23.5q0 -16 -7.5 -24.5t-21.5 -8.5t-21.5 8.5z" />
<glyph horiz-adv-x="623" d="M605 32v-166h-26l-7 134h-491h-30l-7 -134h-26v166h38l233 692h42l233 -692h41zM527 32l-218 653l-217 -653h435z" />
<glyph horiz-adv-x="834" d="M536 369l-102 -135v-234h-34v234l-102 135l-245 -369h-39l261 398l-245 326h40l330 -441v441h34v-441l330 441h40l-245 -326l261 -398h-39z" />
<glyph horiz-adv-x="564" d="M251 377l-118 -141v-236h-35v724h35v-439l369 439h42l-270 -320l276 -404h-42z" />
<glyph horiz-adv-x="564" d="M265 788l155 138h42v-7l-163 -138h-34v7zM251 377l-118 -141v-236h-35v724h35v-439l369 439h42l-270 -320l276 -404h-42z" />
<glyph horiz-adv-x="606" d="M302 688l-234 -688h-36l250 724h42l250 -724h-37z" />
<glyph horiz-adv-x="696" d="M564 108.5q-68 -88.5 -200 -93.5v-79h-34v79q-129 6 -197.5 94.5t-68.5 252.5q0 162 69.5 251.5t196.5 95.5v74h34v-74q130 -5 199 -93.5t69 -253.5t-68 -253.5zM538.5 131q59.5 80 59.5 231t-59.5 231t-174.5 85v-632q115 5 174.5 85zM158 132.5q58 -79.5 172 -85.5v631 q-114 -7 -172 -86t-58 -230q0 -150 58 -229.5z" />
<glyph horiz-adv-x="870" d="M765.5 55q-52.5 -55 -147.5 -55h-203v689l-379 -689h-38l398 724h54v-297h165q97 0 150 -55.5t53 -159.5q0 -102 -52.5 -157zM740 349q-42 46 -122 46h-168v-363h165q82 0 124.5 46t42.5 136q0 89 -42 135z" />
<glyph horiz-adv-x="528" d="M168 580q17 -27 43 -46t71 -46q59 -35 95.5 -64.5t62.5 -79t26 -121.5q0 -71 -27 -124.5t-75 -82.5t-109 -29q-55 0 -98 26.5t-68 77.5t-25 122q0 98 44.5 162t142.5 92q-46 28 -72.5 48t-44.5 50.5t-18 72.5q0 68 45 102t109 34q38 0 77.5 -11t73.5 -31l-14 -27 q-30 18 -66.5 28t-68.5 10q-50 0 -85.5 -23t-35.5 -76q0 -37 17 -64zM343.5 40.5q39.5 22.5 63.5 68t24 110.5q0 61 -20.5 104t-52 71t-77.5 56q-95 -28 -138.5 -83.5t-43.5 -149.5q0 -98 44 -148.5t113 -50.5q48 0 87.5 22.5z" />
<glyph horiz-adv-x="540" d="M436.5 377q39.5 -50 39.5 -145q0 -76 -29 -131.5t-78.5 -84.5t-110.5 -29q-85 0 -128.5 49.5t-43.5 143.5v405q0 88 48 138.5t127 50.5q76 0 125 -44.5t49 -128.5q0 -57 -27.5 -98t-79.5 -59q69 -17 108.5 -67zM157.5 703q-37.5 -40 -37.5 -113v-134h114q165 0 165 146 q0 68 -38.5 104.5t-99.5 36.5q-66 0 -103.5 -40zM345 40.5q42 22.5 69 70t27 119.5q0 110 -55.5 153.5t-153.5 43.5h-112v-249q0 -81 36 -120.5t100 -39.5q47 0 89 22.5z" />
<glyph horiz-adv-x="441" d="M95.5 26.5q-42.5 38.5 -42.5 108.5q0 56 34.5 92t96.5 51l67 16q90 21 90 104q0 51 -33.5 80t-86.5 29q-65 0 -130 -37l-13 29q66 39 142 39q73 0 114 -38t41 -105q0 -53 -31 -85.5t-85 -45.5l-66 -16q-55 -13 -80.5 -40.5t-25.5 -74.5q0 -54 33 -84t91 -30q44 0 85.5 16 t72.5 42l15 -27q-29 -27 -76.5 -44.5t-96.5 -17.5q-73 0 -115.5 38.5z" />
<glyph horiz-adv-x="441" d="M95.5 26.5q-42.5 38.5 -42.5 108.5q0 56 34.5 92t96.5 51l67 16q90 21 90 104q0 51 -33.5 80t-86.5 29q-65 0 -130 -37l-13 29q66 39 142 39q73 0 114 -38t41 -105q0 -53 -31 -85.5t-85 -45.5l-66 -16q-55 -13 -80.5 -40.5t-25.5 -74.5q0 -54 33 -84t91 -30q44 0 85.5 16 t72.5 42l15 -27q-29 -27 -76.5 -44.5t-96.5 -17.5q-73 0 -115.5 38.5zM190 621l108 163h38v-6l-116 -163h-30v6z" />
<glyph horiz-adv-x="526" d="M378.5 -159.5q-53.5 -52.5 -150.5 -52.5q-35 0 -67.5 7.5t-55.5 20.5l11 30q50 -26 115 -26q81 0 124 43t43 124v109q-62 -89 -156 -89q-87 0 -135.5 70.5t-48.5 196.5q0 125 49 195t136 70q47 0 88 -22.5t68 -63.5v73h33v-537q0 -96 -53.5 -148.5zM325.5 61 q37.5 22 72.5 69v286q-28 43 -69 67t-87 24q-74 0 -111.5 -58.5t-37.5 -172.5q0 -117 38.5 -177t113.5 -60q43 0 80.5 22z" />
<glyph horiz-adv-x="695" d="M447 272l-83 -99v-173h-33v173l-84 100l-180 -273h-39l198 299l-187 227h39l253 -309v553h33v-553l253 309h39l-187 -227l198 -299h-39z" />
<glyph horiz-adv-x="458" d="M402 -7q0 -101 -59.5 -155t-156.5 -54q-87 0 -162 40l12 27q74 -37 149 -37q79 0 130.5 43t51.5 137q0 87 -50 123.5t-122 36.5h-87v29h86q66 0 108.5 42.5t42.5 118.5q0 82 -43 123t-112 41q-61 0 -131 -35l-11 27q70 39 146 39q84 0 134 -49.5t50 -140.5 q0 -131 -108 -177q132 -37 132 -179z" />
<glyph d="M426 0h-33v75q-68 -88 -163 -88q-68 0 -105.5 40.5t-37.5 113.5v385h34v-379q0 -63 28.5 -95.5t83.5 -32.5q44 0 82.5 21.5t76.5 66.5v419h34v-526z" />
<glyph d="M426 0h-33v75q-68 -88 -163 -88q-68 0 -105.5 40.5t-37.5 113.5v385h34v-379q0 -63 28.5 -95.5t83.5 -32.5q44 0 82.5 21.5t76.5 66.5v419h34v-526zM176.5 664q-33.5 30 -44.5 84h28q21 -84 103 -84q40 0 68 20.5t39 63.5h28q-12 -57 -46.5 -85.5t-89.5 -28.5 q-52 0 -85.5 30z" />
<glyph d="M426 0h-33v75q-68 -88 -163 -88q-68 0 -105.5 40.5t-37.5 113.5v385h34v-379q0 -63 28.5 -95.5t83.5 -32.5q44 0 82.5 21.5t76.5 66.5v419h34v-526zM161 778v6h38l100 -163v-6h-30z" />
<glyph horiz-adv-x="480" d="M215 271l-87 -97v-174h-34v770h34v-554l273 310h41l-204 -228l214 -298h-41z" />
<glyph horiz-adv-x="480" d="M215 271l-87 -97v-174h-34v770h34v-554l273 310h41l-204 -228l214 -298h-41zM231 621l108 163h38v-6l-116 -163h-30v6z" />
<glyph horiz-adv-x="471" d="M235 494l-159 -494h-36l175 526h40l176 -526h-36z" />
<glyph horiz-adv-x="528" d="M400.5 498.5q38.5 -40.5 38.5 -113.5v-385h-34v379q0 63 -29 95.5t-86 32.5q-43 0 -82.5 -20t-79.5 -62v-425h-34v526h33v-69q34 40 76 61t90 21q69 0 107.5 -40.5z" />
<glyph horiz-adv-x="817" d="M691.5 498.5q36.5 -40.5 36.5 -113.5v-385h-34v379q0 63 -27 95.5t-80 32.5q-41 0 -80.5 -20.5t-80.5 -64.5q3 -16 3 -37v-385h-34v379q0 63 -27.5 95.5t-81.5 32.5q-41 0 -79.5 -20t-78.5 -61v-426h-34v526h33v-68q34 40 75 60.5t87 20.5q49 0 83 -23t48 -67 q73 90 170 90q65 0 101.5 -40.5z" />
<glyph horiz-adv-x="533" d="M495 29v-163h-27l-8 134h-2q-63 0 -65 75q-34 -44 -75.5 -66t-87.5 -22q-68 0 -105.5 40.5t-37.5 113.5v385h34v-379q0 -63 28.5 -95.5t83.5 -32.5q44 0 82.5 21.5t76.5 66.5v419h34v-447q0 -25 9.5 -37.5t31.5 -12.5h28z" />
<glyph horiz-adv-x="813" d="M686 0v73q-68 -86 -161 -86q-49 0 -84 24.5t-48 70.5q-73 -95 -168 -95q-65 0 -101.5 43.5t-36.5 119.5v376h34v-370q0 -67 27.5 -102t80.5 -35q42 0 80.5 22t77.5 69q-3 15 -3 40v376h34v-370q0 -67 28 -102t83 -35q41 0 79 20.5t77 65.5v421h34v-526h-33z" />
<glyph horiz-adv-x="826" d="M788 29v-163h-27l-8 134h-2q-63 0 -65 74q-31 -42 -73.5 -64.5t-87.5 -22.5q-49 0 -84 24.5t-48 70.5q-73 -95 -168 -95q-65 0 -101.5 43.5t-36.5 119.5v376h34v-370q0 -67 27.5 -102t80.5 -35q42 0 80.5 22t77.5 69q-3 15 -3 40v376h34v-370q0 -67 28 -102t83 -35 q41 0 79 20.5t77 65.5v421h34v-447q0 -25 9.5 -37.5t31.5 -12.5h28z" />
<glyph d="M426 526v-526h-33v75q-56 -71 -129 -85l-6 -124h-25l-5 121q-67 1 -104 41.5t-37 112.5v385h34v-379q0 -63 28.5 -95.5t83.5 -32.5q44 0 82.5 21.5t76.5 66.5v419h34z" />
<glyph horiz-adv-x="485" d="M389.5 296.5q43.5 -39.5 43.5 -119.5q0 -57 -25.5 -100.5t-68 -66.5t-92.5 -23q-74 0 -117.5 48t-43.5 138v353h34v-251q33 29 75 45t84 16q67 0 110.5 -39.5zM322 37.5q35 19.5 55.5 55t20.5 82.5q0 67 -33 98t-91 31q-36 0 -78 -16t-76 -45v-69q0 -77 34.5 -116.5 t92.5 -39.5q40 0 75 19.5z" />
<glyph horiz-adv-x="575" d="M479.5 296.5q43.5 -39.5 43.5 -119.5q0 -57 -25.5 -100.5t-68 -66.5t-92.5 -23q-74 0 -117.5 48t-43.5 138v324h-152v29h168h18v-251q33 29 75 45t84 16q67 0 110.5 -39.5zM412 37.5q35 19.5 55.5 55t20.5 82.5q0 67 -33 98t-91 31q-36 0 -78 -16t-76 -45v-69 q0 -77 34.5 -116.5t92.5 -39.5q40 0 75 19.5z" />
<glyph horiz-adv-x="664" d="M391.5 296.5q43.5 -39.5 43.5 -119.5q0 -57 -25.5 -100.5t-68 -66.5t-92.5 -23q-74 0 -117.5 48t-43.5 138v353h34v-251q33 29 75 45t84 16q67 0 110.5 -39.5zM570 526v-526h-33v526h33zM324 37.5q35 19.5 55.5 55t20.5 82.5q0 67 -33 98t-91 31q-36 0 -78 -16t-76 -45 v-69q0 -77 34.5 -116.5t92.5 -39.5q40 0 75 19.5z" />
<glyph horiz-adv-x="737" d="M642.5 296q42.5 -40 42.5 -119q0 -57 -24.5 -100.5t-65.5 -66.5t-89 -23q-73 0 -114 47.5t-41 138.5v322l-289 -495h-42l313 526h36h16v-251q33 29 72.5 45t79.5 16q63 0 105.5 -40zM577 37.5q33 19.5 53 55.5t20 82q0 66 -31.5 97.5t-85.5 31.5q-35 0 -75 -15.5 t-73 -45.5v-69q0 -78 32 -117t89 -39q38 0 71 19.5z" />
<glyph horiz-adv-x="789" d="M694.5 296q42.5 -40 42.5 -119q0 -57 -24.5 -100.5t-65.5 -66.5t-89 -23q-73 0 -114 47.5t-41 138.5v80h-275v-253h-34v526h34v-244h275v244h34v-250q32 29 72 44.5t80 15.5q63 0 105.5 -40zM629 37.5q33 19.5 53 55.5t20 82q0 66 -32 97.5t-86 31.5q-36 0 -75 -15 t-72 -45v-70q0 -78 32 -117t89 -39q38 0 71 19.5z" />
<glyph horiz-adv-x="244" d="M97.5 492q-8.5 9 -8.5 26t8.5 26t24.5 9t24.5 -9t8.5 -25q0 -17 -8.5 -26.5t-24.5 -9.5t-24.5 9zM97.5 172q-8.5 9 -8.5 26t8.5 26t24.5 9t24.5 -9t8.5 -25q0 -17 -8.5 -26.5t-24.5 -9.5t-24.5 9z" />
<glyph horiz-adv-x="244" d="M97.5 492q-8.5 9 -8.5 26t8.5 26t24.5 9t24.5 -9t8.5 -25q0 -17 -8.5 -26.5t-24.5 -9.5t-24.5 9zM97.5 172q-8.5 9 -8.5 26t8.5 26t24.5 9t24.5 -9t8.5 -25q0 -17 -8.5 -26.5t-24.5 -9.5t-24.5 9z" />
<glyph horiz-adv-x="470" d="M144.5 664q-33.5 30 -44.5 84h28q21 -84 103 -84q40 0 68 20.5t39 63.5h28q-12 -57 -46.5 -85.5t-89.5 -28.5q-52 0 -85.5 30z" />
<glyph horiz-adv-x="470" d="M144.5 834q-33.5 30 -44.5 84h28q21 -84 103 -84q40 0 68 20.5t39 63.5h28q-12 -57 -46.5 -85.5t-89.5 -28.5q-52 0 -85.5 30z" />
</font>
</defs>
</svg>
