<?xml version="1.0" standalone="no"?>
<!DOCTYPE svg PUBLIC "-//W3C//DTD SVG 1.1//EN" "http://www.w3.org/Graphics/SVG/1.1/DTD/svg11.dtd" >
<svg xmlns="http://www.w3.org/2000/svg" xmlns:xlink="http://www.w3.org/1999/xlink" version="1.1">
<metadata></metadata>
<defs>
<font id="samsungonecyrillic700c" horiz-adv-x="500" >
<font-face units-per-em="1024" ascent="794" descent="-230" />
<missing-glyph horiz-adv-x="185" />
<glyph unicode="&#xfb01;" horiz-adv-x="595" d="M81 446h-80v97h80v51q0 90 52.5 139.5t148.5 49.5q29 0 54 -5v-98q-30 3 -54 3q-87 0 -87 -89v-51h123v-97h-123v-446h-114v446zM407 543h114v-543h-114v543zM414 640.5q-18 18.5 -18 50.5q0 33 18 51.5t50 18.5t50 -18.5t18 -50.5q0 -33 -18 -51.5t-50 -18.5t-50 18.5z " />
<glyph unicode="&#xfb02;" horiz-adv-x="629" d="M81 446h-80v97h80v51q0 90 52.5 139.5t148.5 49.5q29 0 54 -5v-98q-30 3 -54 3q-87 0 -87 -89v-51h123v-97h-123v-446h-114v446zM403 125v645h114v-622q0 -28 11 -40.5t35 -12.5q15 0 33 3l8 -95q-34 -9 -72 -9q-129 0 -129 131z" />
<glyph horiz-adv-x="0" />
<glyph unicode="&#xd;" horiz-adv-x="0" />
<glyph unicode=" "  horiz-adv-x="185" />
<glyph unicode="&#x09;" horiz-adv-x="185" />
<glyph unicode="&#xa0;" horiz-adv-x="185" />
<glyph unicode="!" horiz-adv-x="337" d="M103 724h128l-18 -512h-90zM116 8q-19 19 -19 52q0 34 19 52.5t53 18.5t52.5 -18.5t18.5 -51.5q0 -34 -18.5 -53t-52.5 -19t-53 19z" />
<glyph unicode="&#x22;" horiz-adv-x="368" d="M209 724h106l-20 -259h-66zM53 724h106l-20 -259h-66z" />
<glyph unicode="#" horiz-adv-x="640" d="M485 454l-29 -184h122v-81h-134l-29 -189h-91l30 189h-120l-29 -189h-90l29 189h-124v81h137l28 184h-125v81h138l29 189h90l-29 -189h119l29 189h91l-30 -189h123v-81h-135zM395 454h-120l-28 -184h119z" />
<glyph unicode="$" horiz-adv-x="519" d="M429 76q-46 -53 -132 -65v-98h-78v95q-51 4 -99.5 19t-85.5 39l35 87q78 -45 152 -49v214l-23 7q-84 23 -120 66.5t-36 121.5q0 87 46 139t131 63v94h78v-94q83 -8 161 -42l-35 -87q-69 26 -127 33l-1 -205l25 -7q84 -24 119.5 -67.5t35.5 -122.5q0 -88 -46 -141z M166.5 471.5q16.5 -22.5 54.5 -36.5v183q-37 -6 -54 -27.5t-17 -59.5q0 -37 16.5 -59.5zM350 138q17 23 17 62q0 38 -16 60.5t-55 36.5v-190q37 8 54 31z" />
<glyph unicode="%" horiz-adv-x="886" d="M46 514q0 222 153 222t153 -222q0 -110 -38.5 -165.5t-114.5 -55.5q-153 0 -153 221zM561 724h97l-333 -724h-97zM242 405.5q14 34.5 14 108.5q0 75 -14 109.5t-43 34.5q-30 0 -43.5 -34.5t-13.5 -109.5t13.5 -109t43.5 -34q29 0 43 34.5zM535 210q0 221 152 221 q153 0 153 -221q0 -222 -153 -222q-152 0 -152 222zM731 100.5q14 34.5 14 109.5q0 74 -14 108.5t-44 34.5q-29 0 -43 -34.5t-14 -108.5q0 -75 14 -109.5t43 -34.5q30 0 44 34.5z" />
<glyph unicode="&#x26;" horiz-adv-x="616" d="M518 -15l-75 89q-38 -44 -85.5 -65t-109.5 -21q-95 0 -148 47.5t-53 134.5q0 52 21 91.5t69 77.5l49 40l-28 33q-35 43 -49 77.5t-14 77.5q0 80 49.5 124.5t139.5 44.5q88 0 136 -42.5t48 -120.5q0 -49 -23 -87t-85 -89l-32 -26l102 -121l53 125h110l-81 -185l-11 -25 l95 -113zM267 444l34 27q36 30 48.5 49.5t12.5 44.5q0 74 -78 74q-77 0 -77 -76q0 -27 11 -49.5t43 -61.5zM378 151l-130 155l-32 -26q-28 -22 -39 -43.5t-11 -51.5q0 -95 94 -95q73 0 118 61z" />
<glyph unicode="'" horiz-adv-x="212" d="M53 724h106l-20 -259h-66z" />
<glyph unicode="(" horiz-adv-x="310" d="M84.5 98q-40.5 122 -40.5 243q0 122 40.5 244.5t113.5 222.5l77 -57q-121 -169 -121 -409t121 -409l-77 -57q-73 100 -113.5 222z" />
<glyph unicode=")" horiz-adv-x="310" d="M35 -67q121 169 121 409t-121 409l77 57q73 -101 113.5 -223.5t40.5 -243.5q0 -120 -40.5 -242t-113.5 -223z" />
<glyph unicode="*" horiz-adv-x="502" d="M311 489l100 -126l-75 -58l-85 135l-85 -135l-75 58l100 126l-144 37l29 91l137 -54l-10 161h96l-10 -161l136 54l29 -91z" />
<glyph unicode="+" horiz-adv-x="541" d="M500 318h-177v-204h-105v204h-177v101h177v204h105v-204h177v-101z" />
<glyph unicode="," horiz-adv-x="227" d="M-4 -133q38 43 54 83.5t16 96.5q0 37 -6 74h111q5 -38 5 -72q0 -69 -31.5 -124.5t-100.5 -108.5z" />
<glyph unicode="-" horiz-adv-x="377" d="M36 345h305v-89h-305v89z" />
<glyph unicode="." horiz-adv-x="245" d="M69.5 8q-18.5 19 -18.5 52q0 34 18.5 52.5t52.5 18.5t53 -19t19 -51q0 -34 -19 -53t-53 -19t-52.5 19z" />
<glyph unicode="/" horiz-adv-x="412" d="M313 746h94l-303 -832h-95z" />
<glyph unicode="0" horiz-adv-x="584" d="M114.5 78.5q-58.5 90.5 -58.5 283.5t58.5 283.5t176.5 90.5q119 0 178 -90.5t59 -283.5t-58.5 -283.5t-177.5 -90.5t-177.5 90.5zM382 154.5q28 65.5 28 207.5q0 143 -28.5 208t-90.5 65q-61 0 -89 -65t-28 -208t28 -208t90 -65t90 65.5z" />
<glyph unicode="1" horiz-adv-x="428" d="M314 724v-724h-115v605l-147 -54l-32 92l194 81h100z" />
<glyph unicode="2" horiz-adv-x="496" d="M450 99v-99h-424v99l228 287q43 53 59 84.5t16 62.5q0 44 -28 71.5t-74 27.5q-37 0 -79 -14.5t-77 -39.5l-51 86q41 32 100.5 52t116.5 20q94 0 151 -53t57 -141q0 -51 -24 -102t-82 -122l-180 -219h291z" />
<glyph unicode="3" horiz-adv-x="524" d="M421 376q48 -59 48 -149q0 -71 -30 -125.5t-84.5 -84t-126.5 -29.5q-56 0 -113 17.5t-95 46.5l42 92q42 -25 85.5 -38.5t80.5 -13.5q58 0 90.5 36t32.5 99q0 59 -30.5 93t-84.5 34q-30 0 -62 -8l-43 56l193 223h-288v99h411v-99l-157 -179q83 -11 131 -70z" />
<glyph unicode="4" horiz-adv-x="540" d="M504 242v-97h-80v-145h-112v145h-296v97l245 482h163v-482h80zM312 242v380l-180 -380h180z" />
<glyph unicode="5" horiz-adv-x="516" d="M363.5 436.5q48.5 -28.5 75 -81t26.5 -121.5q0 -74 -30 -129.5t-85 -86t-127 -30.5q-54 0 -107.5 16.5t-88.5 43.5l42 92q39 -23 79 -35.5t75 -12.5q59 0 91.5 37.5t32.5 101.5q0 62 -29.5 96.5t-83.5 34.5q-27 0 -55.5 -7.5t-52.5 -21.5l-68 36l18 355h359v-99h-257 l-13 -174q40 14 85 14q65 0 113.5 -28.5z" />
<glyph unicode="6" horiz-adv-x="531" d="M403 431.5q46 -28.5 71 -80.5t25 -121q0 -72 -28 -127t-79.5 -85t-119.5 -30q-69 0 -121.5 31t-81.5 87.5t-29 131.5q0 86 29 159t100 162l139 177l90 -70l-141 -171l-37 -47q39 12 76 12q61 0 107 -28.5zM353 124.5q29 37.5 29 102.5q0 67 -31 105t-87 38q-41 0 -84 -19 q-24 -51 -24 -112q0 -71 30.5 -111.5t85.5 -40.5q52 0 81 37.5z" />
<glyph unicode="7" horiz-adv-x="458" d="M437 724v-99l-263 -634l-108 45l252 589h-313v99h432z" />
<glyph unicode="8" horiz-adv-x="551" d="M151.5 13q-53.5 25 -82.5 70.5t-29 105.5t38 111.5t101 76.5q-52 20 -82.5 67t-30.5 105q0 85 57 136t152 51t152.5 -51t57.5 -136q0 -57 -31 -103.5t-83 -65.5q63 -20 101.5 -72t38.5 -117q0 -61 -29 -107t-82.5 -71t-124.5 -25q-70 0 -123.5 25zM347 466.5 q24 31.5 24 71.5q0 48 -25.5 75.5t-70.5 27.5q-44 0 -69.5 -27.5t-25.5 -74.5q0 -41 26.5 -72.5t73.5 -47.5q43 16 67 47.5zM363.5 114q32.5 30 32.5 83q0 44 -33 81t-92 60q-55 -20 -85.5 -57t-30.5 -83q0 -53 32 -83.5t88 -30.5t88.5 30z" />
<glyph unicode="9" horiz-adv-x="531" d="M380.5 705q52.5 -31 81.5 -87.5t29 -131.5q0 -86 -29.5 -158.5t-100.5 -162.5l-139 -177l-90 70l142 171q24 30 36 47q-33 -12 -75 -12q-61 0 -107 28.5t-71 80.5t-25 121q0 72 28 127t79.5 85t119.5 30q69 0 121.5 -31zM179.5 391.5q31.5 -37.5 87.5 -37.5q43 0 83 18 q25 50 25 113q0 71 -31 111.5t-85 40.5q-52 0 -81.5 -37.5t-29.5 -102.5q0 -68 31.5 -105.5z" />
<glyph unicode=":" horiz-adv-x="285" d="M89.5 343q-18.5 19 -18.5 52q0 34 18.5 52.5t52.5 18.5t53 -19t19 -51q0 -34 -19 -53t-53 -19t-52.5 19zM89.5 8q-18.5 19 -18.5 52q0 34 18.5 52.5t52.5 18.5t53 -19t19 -51q0 -34 -19 -53t-53 -19t-52.5 19z" />
<glyph unicode=";" horiz-adv-x="285" d="M89.5 343q-18.5 19 -18.5 52q0 34 18.5 52.5t52.5 18.5t53 -19t19 -51q0 -34 -19 -53t-53 -19t-52.5 19zM24 -133q38 43 54 83.5t16 96.5q0 37 -6 74h111q5 -38 5 -72q0 -69 -31.5 -124.5t-100.5 -108.5z" />
<glyph unicode="&#x3c;" horiz-adv-x="394" d="M29 365l253 298l83 -74l-194 -224l194 -224l-83 -74z" />
<glyph unicode="=" horiz-adv-x="541" d="M63 534h415v-103h-415v103zM63 299h415v-103h-415v103z" />
<glyph unicode="&#x3e;" horiz-adv-x="394" d="M29 141l194 224l-194 224l83 74l253 -298l-253 -298z" />
<glyph unicode="?" horiz-adv-x="482" d="M158 265q0 60 22 98.5t74 83.5q37 31 50 51.5t13 48.5q0 83 -88 83q-67 0 -149 -50l-45 92q39 31 92.5 47.5t110.5 16.5q94 0 146.5 -48.5t52.5 -136.5q0 -49 -21 -85t-75 -81q-45 -37 -61.5 -61.5t-16.5 -61.5q0 -15 3 -50h-105q-3 38 -3 53zM161.5 8q-18.5 19 -18.5 52 q0 34 18.5 52.5t52.5 18.5t53 -19t19 -51q0 -34 -19 -53t-53 -19t-52.5 19z" />
<glyph unicode="@" horiz-adv-x="761" d="M460 539q30 -9 52 -26v-200q0 -29 11.5 -45.5t31.5 -16.5q34 0 52.5 38.5t18.5 107.5q0 127 -63 197t-177 70q-115 0 -179 -79.5t-64 -222.5q0 -145 66.5 -224.5t186.5 -79.5q79 0 146 38l31 -67q-33 -23 -79.5 -35.5t-97.5 -12.5q-101 0 -178 47.5t-119 134t-42 199.5 t41 199.5t115.5 134t172.5 47.5q96 0 169 -43t113 -121.5t40 -181.5q0 -97 -40 -156t-106 -59q-54 0 -80 40q-33 -46 -97 -46q-69 0 -107.5 49.5t-38.5 137.5t41.5 136.5t117.5 48.5q32 0 62 -9zM435 468q-21 8 -40 8q-76 0 -76 -113q0 -57 19 -86t56 -29q21 0 41 10v210z " />
<glyph unicode="A" horiz-adv-x="635" d="M442 170h-251l-48 -170h-122l233 724h127l232 -724h-123zM414 270l-98 343l-97 -343h195z" />
<glyph unicode="B" horiz-adv-x="606" d="M568 214q0 -102 -57.5 -158t-161.5 -56h-207h-65v724h116h124q101 0 156.5 -53.5t55.5 -150.5q0 -107 -95 -138q134 -38 134 -168zM193 622v-202h124q94 0 94 98q0 104 -99 104h-119zM449 212q0 110 -100 110h-156v-220h162q94 0 94 110z" />
<glyph unicode="C" horiz-adv-x="562" d="M119 83q-82 94 -82 264q0 119 37.5 207t107 135t163.5 47q51 0 99.5 -14.5t85.5 -40.5l-37 -88q-80 39 -149 39q-89 0 -138 -72.5t-49 -203.5q0 -262 199 -262q75 0 142 35l38 -86q-30 -25 -79 -39.5t-107 -14.5q-149 0 -231 94z" />
<glyph unicode="D" horiz-adv-x="648" d="M520.5 633q79.5 -91 79.5 -270q0 -180 -79.5 -271.5t-231.5 -91.5h-212v724h213q151 0 230.5 -91zM480 362q0 260 -192 260h-95v-520h95q192 0 192 260z" />
<glyph unicode="E" horiz-adv-x="539" d="M510 102v-102h-433v724h419v-102h-303v-200h223v-103h-223v-217h317z" />
<glyph unicode="F" horiz-adv-x="501" d="M193 622v-218h241v-104h-241v-300h-116v724h412v-102h-296z" />
<glyph unicode="G" horiz-adv-x="625" d="M567 403v-360q-37 -26 -90.5 -40.5t-112.5 -14.5q-151 0 -234 98t-83 276t83 276t234 98q58 0 108.5 -14t84.5 -40l-32 -91q-86 42 -163 42q-97 0 -146 -68t-49 -203t49.5 -203.5t147.5 -68.5q40 0 87 13v198h-114v102h230z" />
<glyph unicode="H" horiz-adv-x="659" d="M582 724v-724h-116v317h-273v-317h-116v724h116v-305h273v305h116z" />
<glyph unicode="I" horiz-adv-x="274" d="M79 724h116v-724h-116v724z" />
<glyph unicode="J" horiz-adv-x="434" d="M70 2q-42 14 -71 39l40 87q63 -37 117 -37q90 0 90 92v541h116v-548q0 -90 -53 -139t-149 -49q-48 0 -90 14z" />
<glyph unicode="K" horiz-adv-x="592" d="M268 310l-75 -98v-212h-116v724h116v-360l254 360h139l-245 -319l260 -405h-139z" />
<glyph unicode="L" horiz-adv-x="492" d="M473 103v-103h-396v724h116v-621h280z" />
<glyph unicode="M" horiz-adv-x="800" d="M722 724v-724h-112v530l-150 -386h-121l-152 386v-530h-110v724h137l187 -476l183 476h138z" />
<glyph unicode="N" horiz-adv-x="679" d="M602 724v-724h-111l-300 519v-519h-114v724h111l300 -518v518h114z" />
<glyph unicode="O" horiz-adv-x="667" d="M120.5 82.5q-73.5 94.5 -73.5 279.5t73.5 279.5t212.5 94.5t212.5 -94.5t73.5 -279.5t-73.5 -279.5t-212.5 -94.5t-212.5 94.5zM499 362q0 272 -166 272t-166 -272t166 -272t166 272z" />
<glyph unicode="P" horiz-adv-x="558" d="M490 660.5q59 -63.5 59 -177.5q0 -115 -60.5 -179t-168.5 -64h-127v-240h-116v724h116h132q106 0 165 -63.5zM429 480q0 70 -27.5 106t-81.5 36h-127v-280h132q104 0 104 138z" />
<glyph unicode="Q" horiz-adv-x="667" d="M556 -160l-128 161q-42 -13 -95 -13q-139 0 -212.5 94.5t-73.5 279.5t73.5 279.5t212.5 94.5t212.5 -94.5t73.5 -279.5q0 -223 -105 -314l120 -136zM333 90q166 0 166 272t-166 272t-166 -272t166 -272z" />
<glyph unicode="R" horiz-adv-x="594" d="M285 261h-92v-261h-116v724h116h123q106 0 164 -61t58 -171q0 -84 -34.5 -139.5t-98.5 -77.5l173 -275h-140zM193 360h123q103 0 103 131q0 132 -107 132h-119v-263z" />
<glyph unicode="S" horiz-adv-x="525" d="M132 5.5q-58 16.5 -103 46.5l36 91q95 -54 185 -54q62 0 93.5 26t31.5 77q0 42 -22 68t-70 39l-82 23q-86 24 -125 71t-39 127q0 101 59.5 158t165.5 57q50 0 104.5 -12.5t102.5 -35.5l-36 -91q-102 39 -173 39q-54 0 -82 -24t-28 -71q0 -42 21.5 -67.5t70.5 -38.5 l82 -23q85 -24 124 -72t39 -128q0 -104 -62.5 -163t-174.5 -59q-60 0 -118 16.5z" />
<glyph unicode="T" horiz-adv-x="491" d="M475 621h-172v-621h-116v621h-172v103h288h172v-103z" />
<glyph unicode="U" horiz-adv-x="644" d="M137.5 54.5q-65.5 66.5 -65.5 187.5v482h116v-475q0 -159 134 -159t134 159v475h116v-482q0 -121 -65.5 -187.5t-184.5 -66.5t-184.5 66.5z" />
<glyph unicode="V" horiz-adv-x="603" d="M577 724l-212 -724h-127l-213 724h123l155 -602l152 602h122z" />
<glyph unicode="W" horiz-adv-x="851" d="M823 724l-163 -724h-127l-109 556l-107 -556h-127l-163 724h121l107 -591l108 590h125l110 -589l106 590h119z" />
<glyph unicode="X" horiz-adv-x="567" d="M420 0l-139 272l-136 -272h-129l203 367l-196 357h131l132 -261l134 261h129l-201 -356l203 -368h-131z" />
<glyph unicode="Y" horiz-adv-x="559" d="M541 724l-205 -479v-245h-116v245l-203 479h125l139 -352l136 352h124z" />
<glyph unicode="Z" horiz-adv-x="514" d="M482 101v-101h-452v102l317 521h-308v101h437v-101l-316 -522h322z" />
<glyph unicode="[" horiz-adv-x="329" d="M182 708v-732h132v-87h-237v906h237v-87h-132z" />
<glyph unicode="\" horiz-adv-x="412" d="M308 -86l-303 832h94l304 -832h-95z" />
<glyph unicode="]" horiz-adv-x="329" d="M251 795v-906h-236v87h132v732h-132v87h236z" />
<glyph unicode="^" horiz-adv-x="417" d="M158 724h101l145 -214h-112l-83 143l-84 -143h-112z" />
<glyph unicode="_" horiz-adv-x="561" d="M77 -64h407v-93h-407v93z" />
<glyph unicode="`" d="M115 774v10h118l81 -159v-10h-83z" />
<glyph unicode="a" d="M384 511q51 -44 51 -123v-388h-100v76q-47 -86 -152 -86q-73 0 -113.5 42t-40.5 119q0 97 70 142t223 47v35q0 79 -100 79q-62 0 -119 -28l-28 87q79 42 166 42q92 0 143 -44zM322 141v121q-96 -1 -140 -26t-44 -77q0 -73 73 -73q63 0 111 55z" />
<glyph unicode="b" horiz-adv-x="540" d="M451 480.5q49 -74.5 49 -209.5t-50 -209t-140 -74q-44 0 -79.5 19t-57.5 55v-62h-101v770h114v-282q47 67 128 67q88 0 137 -74.5zM383 267q0 182 -105 182q-27 0 -49 -11.5t-43 -36.5v-265q20 -22 45 -34.5t52 -12.5q100 0 100 178z" />
<glyph unicode="c" horiz-adv-x="448" d="M100 61q-63 72 -63 202q0 87 29.5 153t82.5 102.5t123 36.5q41 0 80 -12.5t69 -35.5l-42 -86q-62 31 -109 31q-55 0 -85.5 -47.5t-30.5 -133.5q0 -179 129 -179q52 0 106 31l38 -86q-57 -48 -150 -48q-114 0 -177 72z" />
<glyph unicode="d" horiz-adv-x="540" d="M368 0v74q-48 -86 -141 -86q-88 0 -137 74.5t-49 209.5q0 134 49.5 208.5t140.5 74.5q79 0 124 -56v271h114v-770h-101zM310 104.5q22 11.5 45 37.5v263q-19 23 -44.5 35.5t-53.5 12.5q-99 0 -99 -178q0 -182 104 -182q26 0 48 11.5z" />
<glyph unicode="e" horiz-adv-x="508" d="M468 237h-314q12 -146 134 -146q63 0 124 35l40 -84q-35 -25 -80.5 -39t-94.5 -14q-113 0 -175.5 74t-62.5 208q0 135 58 209.5t164 74.5q101 0 156.5 -68.5t55.5 -192.5q0 -30 -5 -57zM154 316h205q-1 66 -27.5 103t-73.5 37q-92 0 -104 -140z" />
<glyph unicode="f" horiz-adv-x="333" d="M81 446h-80v97h80v51q0 90 52.5 139.5t148.5 49.5q29 0 54 -5v-98q-30 3 -54 3q-87 0 -87 -89v-51h123v-97h-123v-446h-114v446z" />
<glyph unicode="g" horiz-adv-x="543" d="M471 543v-538q0 -106 -60 -165t-169 -59q-45 0 -87.5 10t-73.5 28l32 90q60 -29 120 -29q124 0 124 125v80q-48 -67 -129 -67q-89 0 -138 70.5t-49 198.5q0 127 50 197.5t141 70.5q45 0 80.5 -19.5t57.5 -55.5v63h101zM312.5 134.5q22.5 11.5 44.5 36.5v234 q-19 23 -45 35.5t-53 12.5q-101 0 -101 -163q0 -167 105 -167q27 0 49.5 11.5z" />
<glyph unicode="h" horiz-adv-x="550" d="M442 511q41 -44 41 -123v-388h-114v373q0 76 -83 76q-57 0 -100 -40v-409h-114v770h114v-277q59 62 142 62q73 0 114 -44z" />
<glyph unicode="i" horiz-adv-x="262" d="M74 543h114v-543h-114v543zM81 640.5q-18 18.5 -18 50.5q0 33 18 51.5t50 18.5t50 -18.5t18 -50.5q0 -33 -18 -51.5t-50 -18.5t-50 18.5z" />
<glyph unicode="j" horiz-adv-x="262" d="M-58 -128q53 20 81 40.5t39.5 51t11.5 80.5v499h114v-502q0 -74 -19 -121t-63.5 -79.5t-126.5 -61.5zM81 640.5q-18 18.5 -18 50.5q0 33 18 51.5t50 18.5t50 -18.5t18 -50.5q0 -33 -18 -51.5t-50 -18.5t-50 18.5z" />
<glyph unicode="k" horiz-adv-x="518" d="M241 227l-55 -67v-160h-114v770h114v-467l180 240h132l-185 -227l197 -316h-132z" />
<glyph unicode="l" horiz-adv-x="296" d="M70 125v645h114v-622q0 -28 11 -40.5t35 -12.5q15 0 33 3l8 -95q-34 -9 -72 -9q-129 0 -129 131z" />
<glyph unicode="m" horiz-adv-x="831" d="M725 511q39 -44 39 -123v-388h-114v373q0 76 -77 76q-53 0 -98 -41q1 -6 1 -20v-388h-114v373q0 76 -79 76q-27 0 -50.5 -9.5t-46.5 -30.5v-409h-114v543h100v-65q63 77 153 77q49 0 83.5 -21t51.5 -60q65 81 156 81q70 0 109 -44z" />
<glyph unicode="n" horiz-adv-x="548" d="M440.5 511q40.5 -44 40.5 -123v-388h-114v373q0 76 -82 76q-56 0 -99 -40v-409h-114v543h100v-65q63 77 155 77q73 0 113.5 -44z" />
<glyph unicode="o" horiz-adv-x="524" d="M98 59.5q-57 71.5 -57 211.5t57 212t164 72q106 0 163.5 -72t57.5 -212q0 -139 -57.5 -211t-164.5 -72q-106 0 -163 71.5zM366 271q0 183 -104 183t-104 -183t103 -183q105 0 105 183z" />
<glyph unicode="p" horiz-adv-x="540" d="M451 480.5q49 -74.5 49 -209.5t-50 -209t-140 -74q-79 0 -124 56v-251h-114v750h100v-76q49 88 142 88q88 0 137 -74.5zM383 267q0 182 -105 182q-27 0 -49 -11.5t-43 -36.5v-265q20 -22 45 -34.5t52 -12.5q100 0 100 178z" />
<glyph unicode="q" horiz-adv-x="540" d="M355 -207v260q-48 -65 -128 -65q-88 0 -137 74.5t-49 209.5q0 134 49.5 208.5t140.5 74.5q45 0 80 -19.5t56 -55.5v63h102v-750h-114zM310 104.5q22 11.5 45 37.5v263q-19 23 -44.5 35.5t-53.5 12.5q-99 0 -99 -178q0 -182 104 -182q26 0 48 11.5z" />
<glyph unicode="r" horiz-adv-x="370" d="M366 540l-22 -108q-30 10 -62 10q-33 0 -56 -13t-40 -41v-388h-114v543h100v-83q49 93 134 93q34 0 60 -13z" />
<glyph unicode="s" horiz-adv-x="439" d="M108 3q-48 14 -85 39l38 87q76 -45 148 -45q88 0 88 67q0 26 -14.5 42t-47.5 24l-71 17q-69 17 -101 52.5t-32 98.5q0 80 50 124.5t141 44.5q46 0 91 -12t80 -33l-42 -90q-74 36 -131 36q-80 0 -80 -59q0 -24 15 -39t48 -23l71 -17q69 -17 101 -53t32 -100 q0 -83 -52 -129t-146 -46q-53 0 -101 14z" />
<glyph unicode="t" horiz-adv-x="362" d="M130.5 34q-43.5 41 -43.5 126v286h-80v97h81v151h113v-151h143v-97h-143v-266q0 -46 18.5 -66t59.5 -20q28 0 55 8l16 -95q-42 -14 -89 -14q-87 0 -130.5 41z" />
<glyph unicode="u" horiz-adv-x="540" d="M468 543v-543h-101v72q-54 -84 -151 -84q-72 0 -111.5 43t-39.5 122v390h114v-373q0 -77 78 -77q29 0 52.5 11.5t44.5 36.5v402h114z" />
<glyph unicode="v" horiz-adv-x="499" d="M479 543l-167 -543h-124l-168 543h117l114 -429l112 429h116z" />
<glyph unicode="w" horiz-adv-x="747" d="M725 543l-142 -543h-123l-86 403l-87 -403h-123l-142 543h116l89 -426l90 426h117l89 -424l87 424h115z" />
<glyph unicode="x" horiz-adv-x="472" d="M334 0l-100 188l-98 -188h-123l161 276l-154 267h125l93 -178l96 178h123l-160 -266l162 -277h-125z" />
<glyph unicode="y" horiz-adv-x="495" d="M475 543l-162 -523q-27 -88 -88 -145.5t-165 -93.5l-38 96q67 25 106 52t62 64l-170 550h117l112 -422l110 422h116z" />
<glyph unicode="z" horiz-adv-x="432" d="M404 96v-96h-378v96l247 351h-238v96h364v-96l-247 -351h252z" />
<glyph unicode="{" horiz-adv-x="331" d="M189.5 -78q-41.5 27 -59 71t-17.5 115v109q0 41 -25.5 60t-80.5 20v91q55 1 80.5 19.5t25.5 59.5v110q0 71 17.5 115t59 70.5t115.5 44.5l24 -83q-46 -11 -70 -27.5t-33.5 -44t-9.5 -75.5v-110q0 -100 -81 -124q81 -24 81 -126v-109q0 -49 9.5 -76.5t33.5 -44t70 -27.5 l-24 -83q-74 18 -115.5 45z" />
<glyph unicode="|" horiz-adv-x="239" d="M77 816h85v-1066h-85v1066z" />
<glyph unicode="}" horiz-adv-x="331" d="M2 -40q46 11 69.5 27.5t33 44t9.5 76.5v109q0 102 82 126q-82 24 -82 124v110q0 48 -9.5 75.5t-33 44t-69.5 27.5l24 83q74 -18 115 -44.5t58.5 -70.5t17.5 -115v-110q0 -40 25.5 -59t80.5 -20v-91q-55 -1 -80.5 -20t-25.5 -60v-109q0 -71 -17.5 -115t-58.5 -71t-115 -45 z" />
<glyph unicode="~" horiz-adv-x="541" d="M306 287q-19 9 -45 26q-22 15 -36.5 22t-32.5 7q-22 0 -42.5 -13.5t-43.5 -43.5l-65 67q71 92 148 92q27 0 46 -9t45 -26q20 -15 35 -22t33 -7q22 0 42.5 13.5t43.5 43.5l66 -67q-71 -92 -148 -92q-27 0 -46 9z" />
<glyph unicode="&#xa1;" horiz-adv-x="337" d="M221 526q19 -19 19 -52q0 -34 -19 -52.5t-53 -18.5q-33 0 -52 19t-19 51q0 34 18.5 53t52.5 19t53 -19zM234 -190h-128l18 512h90z" />
<glyph unicode="&#xa2;" horiz-adv-x="453" d="M306 28v-113h-79v116q-91 14 -140.5 79t-49.5 173q0 103 51.5 171t138.5 82v116h79v-114q69 -10 113 -42l-38 -83q-42 20 -75 25v-311q41 4 82 28l37 -82q-48 -37 -119 -45zM168.5 184q18.5 -37 58.5 -50v302q-77 -25 -77 -151q0 -64 18.5 -101z" />
<glyph unicode="&#xa3;" horiz-adv-x="499" d="M229 200q-24 -52 -73 -99h298v-101h-403v100l29 32q34 37 48.5 76t14.5 89q0 13 -1 19h-99v95h78q-6 16 -10 23q-14 35 -21 59.5t-7 58.5q0 88 51.5 136t144.5 48q53 0 99 -16t78 -47l-55 -91q-61 48 -122 48q-81 0 -81 -82q0 -23 5.5 -44t17.5 -52l15 -41h158v-95h-141 v-4q0 -60 -24 -112z" />
<glyph unicode="&#xa4;" horiz-adv-x="560" d="M454 142l65 -87l-61 -51l-65 85q-49 -26 -113 -26q-66 0 -113 26l-65 -85l-61 51l65 87q-48 65 -48 171q0 105 48 170l-65 87l61 51l65 -85q47 26 113 26q64 0 113 -26l65 85l61 -51l-65 -87q47 -64 47 -170q0 -107 -47 -171zM388 313q0 150 -108 150q-109 0 -109 -150 q0 -151 109 -151q108 0 108 151z" />
<glyph unicode="&#xa5;" horiz-adv-x="509" d="M341 336h98v-75h-128v-74h128v-76h-128v-111h-114v111h-128v76h128v74h-128v75h98l-154 388h123l121 -365l117 365h122z" />
<glyph unicode="&#xa6;" horiz-adv-x="240" d="M77 816h86v-448h-86v448zM77 199h86v-449h-86v449z" />
<glyph unicode="&#xa7;" horiz-adv-x="496" d="M400 113q44 -44 44 -128q0 -94 -52 -145.5t-146 -51.5q-48 0 -100 13.5t-96 38.5l39 94q95 -46 157 -46q88 0 88 91q0 35 -16.5 56.5t-57.5 32.5l-62 18q-77 22 -112.5 64.5t-35.5 114.5q0 84 47 145q-42 46 -42 125q0 95 53 147.5t150 52.5q43 0 88 -10.5t82 -29.5 l-39 -91q-78 31 -133 31q-90 0 -90 -92q0 -37 16 -57.5t56 -32.5l62 -17q76 -21 111 -64t35 -116q0 -85 -46 -143zM302 166l18 -6q22 34 22 77q0 42 -18.5 65t-64.5 36l-62 18q-14 4 -21 7q-22 -35 -22 -78q0 -41 19.5 -64.5t66.5 -36.5z" />
<glyph unicode="&#xa8;" d="M114.5 636.5q-16.5 17.5 -16.5 46.5q0 31 16.5 48.5t45.5 17.5t45.5 -17.5t16.5 -47.5q0 -31 -16.5 -48t-45.5 -17t-45.5 17.5zM294.5 636.5q-16.5 17.5 -16.5 46.5q0 31 16.5 48.5t45.5 17.5t45.5 -17.5t16.5 -47.5q0 -31 -16.5 -48t-45.5 -17t-45.5 17.5z" />
<glyph unicode="&#xa9;" horiz-adv-x="788" d="M225 31.5q-72 44.5 -111 129t-39 201.5t39 201.5t111 128.5t169 44t169 -44t110.5 -128.5t38.5 -201.5t-38.5 -201.5t-110.5 -129t-169 -44.5t-169 44.5zM576 136.5q65 80.5 65 225.5t-65 225.5t-182 80.5q-118 0 -183 -80.5t-65 -225.5t65 -225.5t183 -80.5 q117 0 182 80.5zM294 226q-41 47 -41 133q0 88 40 137t113 49q29 0 55.5 -8t45.5 -22l-30 -62q-41 21 -72 21q-71 0 -71 -111q0 -113 78 -113q35 0 72 21l27 -61q-18 -14 -45 -22.5t-57 -8.5q-74 0 -115 47z" />
<glyph unicode="&#xaa;" horiz-adv-x="488" d="M361.5 696.5q41.5 -32.5 41.5 -93.5v-278q-35 -18 -79.5 -28t-90.5 -10q-83 0 -128.5 35t-45.5 99q0 73 58.5 106t189.5 33v24q0 30 -19 44.5t-59 14.5q-52 0 -110 -23l-25 73q34 17 73 26.5t77 9.5q76 0 117.5 -32.5zM233 368q45 0 74 10v118q-80 0 -116 -17t-36 -54 q0 -57 78 -57zM85 193h310v-80h-310v80z" />
<glyph unicode="&#xab;" horiz-adv-x="560" d="M373 291l165 -203l-68 -64l-217 265l217 265l68 -63zM139 291l165 -203l-68 -64l-217 265l217 265l68 -63z" />
<glyph unicode="&#xac;" horiz-adv-x="541" d="M486 503v-102v-171h-105v171h-326v102h431z" />
<glyph unicode="&#xad;" horiz-adv-x="377" d="M36 345h305v-89h-305v89z" />
<glyph unicode="&#xae;" horiz-adv-x="788" d="M563 692q72 -44 110.5 -128.5t38.5 -201.5t-38.5 -201.5t-110.5 -129t-169 -44.5t-169 44.5t-111 129t-39 201.5t39 201.5t111 128.5t169 44t169 -44zM576 136.5q65 80.5 65 225.5t-65 225.5t-182 80.5q-118 0 -183 -80.5t-65 -225.5t65 -225.5t183 -80.5q117 0 182 80.5 zM503.5 350.5q-13.5 -27.5 -39.5 -41.5l68 -125h-86l-55 112h-35v-112h-73v356h120q55 0 84.5 -32.5t29.5 -91.5q0 -38 -13.5 -65.5zM356 357h43q41 0 41 58q0 60 -41 60h-43v-118z" />
<glyph unicode="&#xaf;" d="M101 717h298v-78h-298v78z" />
<glyph unicode="&#xb0;" horiz-adv-x="424" d="M85.5 422.5q-48.5 50.5 -48.5 131.5q0 80 48.5 130.5t126.5 50.5t126 -50.5t48 -130.5q0 -81 -48 -131.5t-126 -50.5t-126.5 50.5zM268 489q22 25 22 65q0 39 -22 64t-56 25t-56 -25t-22 -64q0 -40 22 -65t56 -25t56 25z" />
<glyph unicode="&#xb1;" horiz-adv-x="541" d="M500 507v-101h-177v-177h-105v177h-177v101h177v177h105v-177h177zM41 166h459v-100h-459v100z" />
<glyph unicode="&#xb2;" horiz-adv-x="350" d="M312 400v-76h-292v76l149 162q25 28 33.5 43t8.5 35q0 26 -13 40t-39 14q-50 0 -106 -40l-40 67q75 55 155 55q66 0 101.5 -33.5t35.5 -96.5q0 -36 -15.5 -65t-56.5 -73l-102 -108h181z" />
<glyph unicode="&#xb3;" horiz-adv-x="373" d="M295.5 555q29.5 -34 29.5 -91q0 -70 -44 -108t-124 -38q-83 0 -144 44l32 70q58 -32 112 -32q73 0 73 65q0 63 -69 63q-23 0 -47 -6l-33 45l121 127h-175v76h281v-77l-98 -96q56 -8 85.5 -42z" />
<glyph unicode="&#xb4;" d="M190 625l88 159h118v-10l-123 -159h-83v10z" />
<glyph unicode="&#xb5;" horiz-adv-x="552" d="M480 543v-543h-101v69q-54 -75 -141 -75q-31 0 -52 9v-210h-114v521v229h114v-373q0 -78 81 -78q55 0 99 47v404h114z" />
<glyph unicode="&#xb6;" horiz-adv-x="536" d="M459 0h-83v642h-68v-642h-81v313q-99 2 -154.5 55.5t-55.5 149.5q0 98 58.5 152t164.5 54h219v-724z" />
<glyph unicode="&#xb7;" horiz-adv-x="245" d="M69.5 285q-18.5 19 -18.5 52q0 34 18.5 52.5t52.5 18.5t53 -19t19 -51q0 -34 -19 -53t-53 -19t-52.5 19z" />
<glyph unicode="&#xb8;" d="M342 -75.5q27 -21.5 27 -61.5q0 -46 -32.5 -72t-91.5 -26q-62 0 -109 25l18 52q48 -17 81 -17q46 0 46 36q0 35 -42 35q-23 0 -39 -8l-24 28l40 104l76 -6l-49 -71q11 3 22 3q50 0 77 -21.5z" />
<glyph unicode="&#xb9;" horiz-adv-x="325" d="M219 770v-446h-92v355l-90 -33l-24 70l129 54h77z" />
<glyph unicode="&#xba;" horiz-adv-x="495" d="M109.5 342.5q-48.5 56.5 -48.5 165.5q0 110 48.5 166t138.5 56q89 0 137.5 -56.5t48.5 -165.5q0 -110 -48.5 -166t-138.5 -56q-89 0 -137.5 56.5zM335 508q0 138 -87 138q-88 0 -88 -138t87 -138q88 0 88 138zM92 193h311v-80h-311v80z" />
<glyph unicode="&#xbb;" horiz-adv-x="560" d="M307 290l-217 -265l-68 63l165 200l-165 203l68 64zM541 290l-217 -265l-68 63l165 200l-165 203l68 64z" />
<glyph unicode="&#xbc;" horiz-adv-x="849" d="M641 705l-384 -725l-75 39l384 725zM127 278v355l-90 -33l-24 70l129 54h77v-446h-92zM829 154v-75h-49v-79h-90v79h-194v75l155 292h129v-292h49zM690 154v214l-102 -214h102z" />
<glyph unicode="&#xbd;" horiz-adv-x="886" d="M641 705l-384 -725l-75 39l384 725zM127 278v355l-90 -33l-24 70l129 54h77v-446h-92zM850 76v-76h-292v76l149 162q25 28 33.5 43t8.5 35q0 26 -13 40t-39 14q-50 0 -106 -40l-40 67q75 55 155 55q66 0 101.5 -33.5t35.5 -96.5q0 -36 -15.5 -65t-56.5 -73l-102 -108h181 z" />
<glyph unicode="&#xbe;" horiz-adv-x="915" d="M707 705l-384 -725l-75 39l384 725zM281 310q-44 -38 -124 -38q-83 0 -144 44l32 70q58 -32 112 -32q73 0 73 65q0 63 -69 63q-23 0 -47 -6l-33 45l121 127h-175v76h281v-77l-98 -95q56 -8 85.5 -42.5t29.5 -91.5q0 -70 -44 -108zM895 154v-75h-49v-79h-90v79h-194v75 l155 292h129v-292h49zM756 154v214l-102 -214h102z" />
<glyph unicode="&#xbf;" horiz-adv-x="432" d="M320.5 526q18.5 -19 18.5 -52q0 -34 -18.5 -52.5t-52.5 -18.5t-53 19t-19 51q0 34 19 53t53 19t52.5 -19zM324 269q0 -60 -22.5 -98.5t-74.5 -83.5q-37 -31 -49.5 -51.5t-12.5 -48.5q0 -83 88 -83q67 0 149 50l45 -92q-39 -31 -92.5 -47.5t-110.5 -16.5 q-94 0 -146.5 48.5t-52.5 136.5q0 49 21 85t75 81q45 37 61.5 61.5t16.5 61.5q0 16 -3 50h105q3 -37 3 -53z" />
<glyph unicode="&#xc0;" horiz-adv-x="635" d="M295 781l-162 133v12h128l127 -133v-12h-93zM442 170h-251l-48 -170h-122l233 724h127l232 -724h-123zM414 270l-98 343l-97 -343h195z" />
<glyph unicode="&#xc1;" horiz-adv-x="635" d="M338 781h-93v12l136 133h128v-12zM442 170h-251l-48 -170h-122l233 724h127l232 -724h-123zM414 270l-98 343l-97 -343h195z" />
<glyph unicode="&#xc2;" horiz-adv-x="635" d="M231 781h-79v12l110 133h110l110 -133v-12h-82l-85 86zM442 170h-251l-48 -170h-122l233 724h127l232 -724h-123zM414 270l-98 343l-97 -343h195z" />
<glyph unicode="&#xc3;" horiz-adv-x="635" d="M212 788h-64q2 68 28.5 105.5t73.5 37.5q25 0 44.5 -10t41.5 -28q16 -12 26.5 -18t21.5 -6q32 0 38 60h64q-2 -68 -28.5 -105.5t-73.5 -37.5q-25 0 -44.5 10t-41.5 28q-17 13 -27 19t-21 6q-32 0 -38 -61zM442 170h-251l-48 -170h-122l233 724h127l232 -724h-123z M414 270l-98 343l-97 -343h195z" />
<glyph unicode="&#xc4;" horiz-adv-x="635" d="M181.5 797.5q-16.5 17.5 -16.5 46.5q0 31 16.5 48.5t45.5 17.5t45.5 -17.5t16.5 -47.5q0 -31 -16.5 -48t-45.5 -17t-45.5 17.5zM362.5 797.5q-16.5 17.5 -16.5 46.5q0 31 16.5 48.5t45.5 17.5t45.5 -17.5t16.5 -47.5q0 -31 -16.5 -48t-45.5 -17t-45.5 17.5zM442 170h-251 l-48 -170h-122l233 724h127l232 -724h-123zM414 270l-98 343l-97 -343h195z" />
<glyph unicode="&#xc5;" horiz-adv-x="635" d="M226.5 798q-32.5 30 -32.5 84t32.5 84t90.5 30t90.5 -30t32.5 -84t-32.5 -84t-90.5 -30t-90.5 30zM266 882q0 -59 51 -59t51 59t-51 59t-51 -59zM442 170h-251l-48 -170h-122l233 724h127l232 -724h-123zM414 270l-98 343l-97 -343h195z" />
<glyph unicode="&#xc6;" horiz-adv-x="864" d="M835 102v-102h-417v161h-226l-77 -161h-124l352 724h117h361v-102h-290v-200h210v-103h-210v-217h304zM418 261v375l-178 -375h178z" />
<glyph unicode="&#xc7;" horiz-adv-x="562" d="M424 -75.5q27 -21.5 27 -61.5q0 -46 -32.5 -72t-91.5 -26q-62 0 -109 25l18 52q48 -17 81 -17q46 0 46 36q0 35 -42 35q-23 0 -39 -8l-24 28l30 78q-120 19 -185.5 110.5t-65.5 242.5q0 119 37.5 207t107 135t163.5 47q51 0 99.5 -14.5t85.5 -40.5l-37 -88 q-80 39 -149 39q-89 0 -138 -72.5t-49 -203.5q0 -262 199 -262q75 0 142 35l38 -86q-29 -25 -76.5 -39t-102.5 -15l-32 -46q10 3 22 3q50 0 77 -21.5z" />
<glyph unicode="&#xc8;" horiz-adv-x="539" d="M268 781l-162 133v12h128l127 -133v-12h-93zM510 102v-102h-433v724h419v-102h-303v-200h223v-103h-223v-217h317z" />
<glyph unicode="&#xc9;" horiz-adv-x="539" d="M311 781h-93v12l136 133h128v-12zM510 102v-102h-433v724h419v-102h-303v-200h223v-103h-223v-217h317z" />
<glyph unicode="&#xca;" horiz-adv-x="539" d="M204 781h-79v12l110 133h110l110 -133v-12h-82l-85 86zM510 102v-102h-433v724h419v-102h-303v-200h223v-103h-223v-217h317z" />
<glyph unicode="&#xcb;" horiz-adv-x="539" d="M154.5 797.5q-16.5 17.5 -16.5 46.5q0 31 16.5 48.5t45.5 17.5t45.5 -17.5t16.5 -47.5q0 -31 -16.5 -48t-45.5 -17t-45.5 17.5zM335.5 797.5q-16.5 17.5 -16.5 46.5q0 31 16.5 48.5t45.5 17.5t45.5 -17.5t16.5 -47.5q0 -31 -16.5 -48t-45.5 -17t-45.5 17.5zM510 102v-102 h-433v724h419v-102h-303v-200h223v-103h-223v-217h317z" />
<glyph unicode="&#xcc;" horiz-adv-x="274" d="M-47 914v12h128l127 -133v-12h-93zM79 724h116v-724h-116v724z" />
<glyph unicode="&#xcd;" horiz-adv-x="274" d="M65 793l136 133h128v-12l-171 -133h-93v12zM79 724h116v-724h-116v724z" />
<glyph unicode="&#xce;" horiz-adv-x="274" d="M302 793v-12h-82l-85 86l-84 -86h-79v12l110 133h110zM79 724h116v-724h-116v724z" />
<glyph unicode="&#xcf;" horiz-adv-x="274" d="M1.5 797.5q-16.5 17.5 -16.5 46.5q0 31 16.5 48.5t45.5 17.5t45.5 -17.5t16.5 -47.5q0 -31 -16.5 -48t-45.5 -17t-45.5 17.5zM182.5 797.5q-16.5 17.5 -16.5 46.5q0 31 16.5 48.5t45.5 17.5t45.5 -17.5t16.5 -47.5q0 -31 -16.5 -48t-45.5 -17t-45.5 17.5zM79 724h116 v-724h-116v724z" />
<glyph unicode="&#xd0;" horiz-adv-x="648" d="M520.5 633q79.5 -91 79.5 -270q0 -180 -79.5 -271.5t-231.5 -91.5h-212v322h-61v89h61v313h213q151 0 230.5 -91zM480 362q0 260 -192 260h-95v-211h154v-89h-154v-220h95q192 0 192 260z" />
<glyph unicode="&#xd1;" horiz-adv-x="679" d="M235 788h-64q2 68 28.5 105.5t73.5 37.5q25 0 44.5 -10t41.5 -28q16 -12 26.5 -18t21.5 -6q32 0 38 60h64q-2 -68 -28.5 -105.5t-73.5 -37.5q-25 0 -44.5 10t-41.5 28q-17 13 -27 19t-21 6q-32 0 -38 -61zM602 724v-724h-111l-300 519v-519h-114v724h111l300 -518v518 h114z" />
<glyph unicode="&#xd2;" horiz-adv-x="667" d="M150 914v12h128l127 -133v-12h-93zM120.5 82.5q-73.5 94.5 -73.5 279.5t73.5 279.5t212.5 94.5t212.5 -94.5t73.5 -279.5t-73.5 -279.5t-212.5 -94.5t-212.5 94.5zM499 362q0 272 -166 272t-166 -272t166 -272t166 272z" />
<glyph unicode="&#xd3;" horiz-adv-x="667" d="M262 793l136 133h128v-12l-171 -133h-93v12zM120.5 82.5q-73.5 94.5 -73.5 279.5t73.5 279.5t212.5 94.5t212.5 -94.5t73.5 -279.5t-73.5 -279.5t-212.5 -94.5t-212.5 94.5zM499 362q0 272 -166 272t-166 -272t166 -272t166 272z" />
<glyph unicode="&#xd4;" horiz-adv-x="667" d="M248 781h-79v12l110 133h110l110 -133v-12h-82l-85 86zM545.5 641.5q73.5 -94.5 73.5 -279.5t-73.5 -279.5t-212.5 -94.5t-212.5 94.5t-73.5 279.5t73.5 279.5t212.5 94.5t212.5 -94.5zM499 362q0 272 -166 272t-166 -272t166 -272t166 272z" />
<glyph unicode="&#xd5;" horiz-adv-x="667" d="M356.5 796q-19.5 10 -41.5 28q-17 13 -27 19t-21 6q-32 0 -38 -61h-64q2 68 28.5 105.5t73.5 37.5q25 0 44.5 -10t41.5 -28q16 -12 26.5 -18t21.5 -6q32 0 38 60h64q-2 -68 -28.5 -105.5t-73.5 -37.5q-25 0 -44.5 10zM120.5 82.5q-73.5 94.5 -73.5 279.5t73.5 279.5 t212.5 94.5t212.5 -94.5t73.5 -279.5t-73.5 -279.5t-212.5 -94.5t-212.5 94.5zM499 362q0 272 -166 272t-166 -272t166 -272t166 272z" />
<glyph unicode="&#xd6;" horiz-adv-x="667" d="M198.5 797.5q-16.5 17.5 -16.5 46.5q0 31 16.5 48.5t45.5 17.5t45.5 -17.5t16.5 -47.5q0 -31 -16.5 -48t-45.5 -17t-45.5 17.5zM379.5 797.5q-16.5 17.5 -16.5 46.5q0 31 16.5 48.5t45.5 17.5t45.5 -17.5t16.5 -47.5q0 -31 -16.5 -48t-45.5 -17t-45.5 17.5zM120.5 82.5 q-73.5 94.5 -73.5 279.5t73.5 279.5t212.5 94.5t212.5 -94.5t73.5 -279.5t-73.5 -279.5t-212.5 -94.5t-212.5 94.5zM499 362q0 272 -166 272t-166 -272t166 -272t166 272z" />
<glyph unicode="&#xd7;" horiz-adv-x="541" d="M337 368l146 -163l-70 -71l-143 159l-142 -159l-71 71l146 163l-146 163l71 71l142 -159l143 159l70 -71z" />
<glyph unicode="&#xd8;" horiz-adv-x="667" d="M649 724l-85 -112q56 -96 56 -250q0 -185 -73.5 -279.5t-213.5 -94.5q-111 0 -181 64l-44 -62h-90v10l86 112q-57 96 -57 250q0 185 73.5 279.5t212.5 94.5q112 0 182 -64l44 62h90v-10zM164 362q0 -90 16 -147l272 370q-40 52 -119 52q-169 0 -169 -275zM503 362 q0 90 -16 147l-272 -370q40 -52 118 -52q170 0 170 275z" />
<glyph unicode="&#xd9;" horiz-adv-x="644" d="M138 914v12h128l127 -133v-12h-93zM137.5 54.5q-65.5 66.5 -65.5 187.5v482h116v-475q0 -159 134 -159t134 159v475h116v-482q0 -121 -65.5 -187.5t-184.5 -66.5t-184.5 66.5z" />
<glyph unicode="&#xda;" horiz-adv-x="644" d="M250 793l136 133h128v-12l-171 -133h-93v12zM137.5 54.5q-65.5 66.5 -65.5 187.5v482h116v-475q0 -159 134 -159t134 159v475h116v-482q0 -121 -65.5 -187.5t-184.5 -66.5t-184.5 66.5z" />
<glyph unicode="&#xdb;" horiz-adv-x="644" d="M236 781h-79v12l110 133h110l110 -133v-12h-82l-85 86zM572 724v-482q0 -121 -65.5 -187.5t-184.5 -66.5t-184.5 66.5t-65.5 187.5v482h116v-475q0 -159 134 -159t134 159v475h116z" />
<glyph unicode="&#xdc;" horiz-adv-x="644" d="M186.5 797.5q-16.5 17.5 -16.5 46.5q0 31 16.5 48.5t45.5 17.5t45.5 -17.5t16.5 -47.5q0 -31 -16.5 -48t-45.5 -17t-45.5 17.5zM367.5 797.5q-16.5 17.5 -16.5 46.5q0 31 16.5 48.5t45.5 17.5t45.5 -17.5t16.5 -47.5q0 -31 -16.5 -48t-45.5 -17t-45.5 17.5zM137.5 54.5 q-65.5 66.5 -65.5 187.5v482h116v-475q0 -159 134 -159t134 159v475h116v-482q0 -121 -65.5 -187.5t-184.5 -66.5t-184.5 66.5z" />
<glyph unicode="&#xdd;" horiz-adv-x="559" d="M299 781h-93v12l136 133h128v-12zM541 724l-205 -479v-245h-116v245l-203 479h125l139 -352l136 352h124z" />
<glyph unicode="&#xde;" horiz-adv-x="577" d="M485 546.5q59 -62.5 59 -175.5q0 -114 -60 -176.5t-169 -63.5h-122v-131h-116v724h116v-115h127q106 0 165 -62.5zM424 368q0 138 -109 138h-122v-272h127q104 0 104 134z" />
<glyph unicode="&#xdf;" horiz-adv-x="563" d="M489.5 349.5q42.5 -54.5 42.5 -142.5q0 -101 -54.5 -157t-152.5 -56q-54 0 -91 14l19 91q37 -10 72 -10q99 0 99 109q0 145 -170 156v86q53 25 77.5 60t24.5 88q0 47 -20 71.5t-59 24.5q-91 0 -91 -124v-560h-114v560q0 106 54 164.5t151 58.5q88 0 136.5 -47.5 t48.5 -133.5q0 -121 -97 -179q82 -19 124.5 -73.5z" />
<glyph unicode="&#xe0;" d="M384 511q51 -44 51 -123v-388h-100v76q-47 -86 -152 -86q-73 0 -113.5 42t-40.5 119q0 97 70 142t223 47v35q0 79 -100 79q-62 0 -119 -28l-28 87q79 42 166 42q92 0 143 -44zM322 141v121q-96 -1 -140 -26t-44 -77q0 -73 73 -73q63 0 111 55zM105 774v10h118l81 -159 v-10h-83z" />
<glyph unicode="&#xe1;" d="M384 511q51 -44 51 -123v-388h-100v76q-47 -86 -152 -86q-73 0 -113.5 42t-40.5 119q0 97 70 142t223 47v35q0 79 -100 79q-62 0 -119 -28l-28 87q79 42 166 42q92 0 143 -44zM322 141v121q-96 -1 -140 -26t-44 -77q0 -73 73 -73q63 0 111 55zM183 625l88 159h118v-10 l-123 -159h-83v10z" />
<glyph unicode="&#xe2;" d="M384 511q51 -44 51 -123v-388h-100v76q-47 -86 -152 -86q-73 0 -113.5 42t-40.5 119q0 97 70 142t223 47v35q0 79 -100 79q-62 0 -119 -28l-28 87q79 42 166 42q92 0 143 -44zM322 141v121q-96 -1 -140 -26t-44 -77q0 -73 73 -73q63 0 111 55zM388 625v-10h-76l-74 100 l-73 -100h-73v10l96 159h104z" />
<glyph unicode="&#xe3;" d="M384 511q51 -44 51 -123v-388h-100v76q-47 -86 -152 -86q-73 0 -113.5 42t-40.5 119q0 97 70 142t223 47v35q0 79 -100 79q-62 0 -119 -28l-28 87q79 42 166 42q92 0 143 -44zM322 141v121q-96 -1 -140 -26t-44 -77q0 -73 73 -73q63 0 111 55zM262.5 626 q-19.5 10 -41.5 28q-17 13 -27 19t-21 6q-32 0 -38 -61h-64q2 68 28.5 105.5t73.5 37.5q25 0 44.5 -10t41.5 -28q16 -12 26.5 -18t21.5 -6q32 0 38 60h64q-2 -68 -28.5 -105.5t-73.5 -37.5q-25 0 -44.5 10z" />
<glyph unicode="&#xe4;" d="M384 511q51 -44 51 -123v-388h-100v76q-47 -86 -152 -86q-73 0 -113.5 42t-40.5 119q0 97 70 142t223 47v35q0 79 -100 79q-62 0 -119 -28l-28 87q79 42 166 42q92 0 143 -44zM322 141v121q-96 -1 -140 -26t-44 -77q0 -73 73 -73q63 0 111 55zM104.5 636.5 q-16.5 17.5 -16.5 46.5q0 31 16.5 48.5t45.5 17.5t45.5 -17.5t16.5 -47.5q0 -31 -16.5 -48t-45.5 -17t-45.5 17.5zM284.5 636.5q-16.5 17.5 -16.5 46.5q0 31 16.5 48.5t45.5 17.5t45.5 -17.5t16.5 -47.5q0 -31 -16.5 -48t-45.5 -17t-45.5 17.5z" />
<glyph unicode="&#xe5;" d="M384 511q51 -44 51 -123v-388h-100v76q-47 -86 -152 -86q-73 0 -113.5 42t-40.5 119q0 97 70 142t223 47v35q0 79 -100 79q-62 0 -119 -28l-28 87q79 42 166 42q92 0 143 -44zM322 141v121q-96 -1 -140 -26t-44 -77q0 -73 73 -73q63 0 111 55zM150 633q-32 30 -32 84 t32 84t90 30t90 -30t32 -84t-32 -84t-90 -30t-90 30zM291 717q0 60 -51 60t-51 -60t51 -60t51 60z" />
<glyph unicode="&#xe6;" horiz-adv-x="777" d="M737 237h-310q12 -146 132 -146q61 0 122 35l40 -84q-36 -25 -81 -39t-92 -14q-64 0 -112.5 25.5t-77.5 75.5q-40 -52 -82.5 -76t-94.5 -24q-72 0 -112 42t-40 118q0 94 68.5 137.5t220.5 45.5v42q0 79 -98 79q-61 0 -117 -28l-28 87q36 20 79.5 31t84.5 11q51 0 88 -18 t57 -51q24 33 62 51t86 18q100 0 155 -68.5t55 -192.5q0 -37 -5 -57zM428 316h201q-1 66 -27.5 103t-72.5 37q-90 0 -101 -140zM330 158q-13 45 -14 97q-92 -1 -135 -24.5t-43 -73.5q0 -71 71 -71q66 0 121 72z" />
<glyph unicode="&#xe7;" horiz-adv-x="448" d="M343 -75.5q27 -21.5 27 -61.5q0 -46 -32.5 -72t-91.5 -26q-62 0 -109 25l18 52q48 -17 81 -17q46 0 46 36q0 35 -42 35q-23 0 -39 -8l-24 28l31 81q-82 19 -126.5 88t-44.5 178q0 87 29.5 153t82.5 102.5t123 36.5q41 0 80 -12.5t69 -35.5l-42 -86q-62 31 -109 31 q-55 0 -85.5 -47.5t-30.5 -133.5q0 -179 129 -179q52 0 106 31l38 -86q-57 -48 -150 -48h-1l-32 -46q11 3 22 3q50 0 77 -21.5z" />
<glyph unicode="&#xe8;" horiz-adv-x="508" d="M468 237h-314q12 -146 134 -146q63 0 124 35l40 -84q-35 -25 -80.5 -39t-94.5 -14q-113 0 -175.5 74t-62.5 208q0 135 58 209.5t164 74.5q101 0 156.5 -68.5t55.5 -192.5q0 -30 -5 -57zM154 316h205q-1 66 -27.5 103t-73.5 37q-92 0 -104 -140zM125 774v10h118l81 -159 v-10h-83z" />
<glyph unicode="&#xe9;" horiz-adv-x="508" d="M468 237h-314q12 -146 134 -146q63 0 124 35l40 -84q-35 -25 -80.5 -39t-94.5 -14q-113 0 -175.5 74t-62.5 208q0 135 58 209.5t164 74.5q101 0 156.5 -68.5t55.5 -192.5q0 -30 -5 -57zM154 316h205q-1 66 -27.5 103t-73.5 37q-92 0 -104 -140zM203 625l88 159h118v-10 l-123 -159h-83v10z" />
<glyph unicode="&#xea;" horiz-adv-x="508" d="M468 237h-314q12 -146 134 -146q63 0 124 35l40 -84q-35 -25 -80.5 -39t-94.5 -14q-113 0 -175.5 74t-62.5 208q0 135 58 209.5t164 74.5q101 0 156.5 -68.5t55.5 -192.5q0 -30 -5 -57zM154 316h205q-1 66 -27.5 103t-73.5 37q-92 0 -104 -140zM408 625v-10h-76l-74 100 l-73 -100h-73v10l96 159h104z" />
<glyph unicode="&#xeb;" horiz-adv-x="508" d="M124.5 636.5q-16.5 17.5 -16.5 46.5q0 31 16.5 48.5t45.5 17.5t45.5 -17.5t16.5 -47.5q0 -31 -16.5 -48t-45.5 -17t-45.5 17.5zM304.5 636.5q-16.5 17.5 -16.5 46.5q0 31 16.5 48.5t45.5 17.5t45.5 -17.5t16.5 -47.5q0 -31 -16.5 -48t-45.5 -17t-45.5 17.5zM468 237h-314 q12 -146 134 -146q63 0 124 35l40 -84q-35 -25 -80.5 -39t-94.5 -14q-113 0 -175.5 74t-62.5 208q0 135 58 209.5t164 74.5q101 0 156.5 -68.5t55.5 -192.5q0 -30 -5 -57zM154 316h205q-1 66 -27.5 103t-73.5 37q-92 0 -104 -140z" />
<glyph unicode="&#xec;" horiz-adv-x="262" d="M74 543h114v-543h-114v543zM-4 774v10h118l81 -159v-10h-83z" />
<glyph unicode="&#xed;" horiz-adv-x="262" d="M74 543h114v-543h-114v543zM74 625l88 159h118v-10l-123 -159h-83v10z" />
<glyph unicode="&#xee;" horiz-adv-x="262" d="M74 543h114v-543h-114v543zM279 625v-10h-76l-74 100l-73 -100h-73v10l96 159h104z" />
<glyph unicode="&#xef;" horiz-adv-x="262" d="M4 636q-16 17 -16 47q0 32 16 49t45 17q28 0 44 -17.5t16 -47.5q0 -31 -16 -48t-44 -17q-29 0 -45 17zM169 636q-16 17 -16 47q0 32 16 49t45 17q28 0 44 -17.5t16 -47.5q0 -31 -16 -48t-44 -17q-29 0 -45 17zM74 543h114v-543h-114v543z" />
<glyph unicode="&#xf0;" horiz-adv-x="525" d="M446 517.5q38 -94.5 38 -224.5q0 -306 -223 -306q-109 0 -167 69.5t-58 205.5q0 128 55 198.5t156 70.5q66 0 105 -42q-31 84 -100 144l-112 -72l-32 58l92 51q-36 22 -74 36l-27 10l25 72l27 -11q74 -29 124 -61l97 65l33 -58l-78 -45q81 -66 119 -160.5zM368 269 q0 80 -28 123.5t-79 43.5q-108 0 -108 -174t108 -174q107 0 107 181z" />
<glyph unicode="&#xf1;" horiz-adv-x="548" d="M440.5 511q40.5 -44 40.5 -123v-388h-114v373q0 76 -82 76q-56 0 -99 -40v-409h-114v543h100v-65q63 77 155 77q73 0 113.5 -44zM299.5 626q-19.5 10 -41.5 28q-17 13 -27 19t-21 6q-32 0 -38 -61h-64q2 68 28.5 105.5t73.5 37.5q25 0 44.5 -10t41.5 -28q16 -12 26.5 -18 t21.5 -6q32 0 38 60h64q-2 -68 -28.5 -105.5t-73.5 -37.5q-25 0 -44.5 10z" />
<glyph unicode="&#xf2;" horiz-adv-x="524" d="M98 59.5q-57 71.5 -57 211.5t57 212t164 72q106 0 163.5 -72t57.5 -212q0 -139 -57.5 -211t-164.5 -72q-106 0 -163 71.5zM366 271q0 183 -104 183t-104 -183t103 -183q105 0 105 183zM127 774v10h118l81 -159v-10h-83z" />
<glyph unicode="&#xf3;" horiz-adv-x="524" d="M98 59.5q-57 71.5 -57 211.5t57 212t164 72q106 0 163.5 -72t57.5 -212q0 -139 -57.5 -211t-164.5 -72q-106 0 -163 71.5zM366 271q0 183 -104 183t-104 -183t103 -183q105 0 105 183zM205 625l88 159h118v-10l-123 -159h-83v10z" />
<glyph unicode="&#xf4;" horiz-adv-x="524" d="M98 59.5q-57 71.5 -57 211.5t57 212t164 72q106 0 163.5 -72t57.5 -212q0 -139 -57.5 -211t-164.5 -72q-106 0 -163 71.5zM366 271q0 183 -104 183t-104 -183t103 -183q105 0 105 183zM410 625v-10h-76l-74 100l-73 -100h-73v10l96 159h104z" />
<glyph unicode="&#xf5;" horiz-adv-x="524" d="M98 59.5q-57 71.5 -57 211.5t57 212t164 72q106 0 163.5 -72t57.5 -212q0 -139 -57.5 -211t-164.5 -72q-106 0 -163 71.5zM366 271q0 183 -104 183t-104 -183t103 -183q105 0 105 183zM284.5 626q-19.5 10 -41.5 28q-17 13 -27 19t-21 6q-32 0 -38 -61h-64 q2 68 28.5 105.5t73.5 37.5q25 0 44.5 -10t41.5 -28q16 -12 26.5 -18t21.5 -6q32 0 38 60h64q-2 -68 -28.5 -105.5t-73.5 -37.5q-25 0 -44.5 10z" />
<glyph unicode="&#xf6;" horiz-adv-x="524" d="M126.5 636.5q-16.5 17.5 -16.5 46.5q0 31 16.5 48.5t45.5 17.5t45.5 -17.5t16.5 -47.5q0 -31 -16.5 -48t-45.5 -17t-45.5 17.5zM306.5 636.5q-16.5 17.5 -16.5 46.5q0 31 16.5 48.5t45.5 17.5t45.5 -17.5t16.5 -47.5q0 -31 -16.5 -48t-45.5 -17t-45.5 17.5zM98 59.5 q-57 71.5 -57 211.5t57 212t164 72q106 0 163.5 -72t57.5 -212q0 -139 -57.5 -211t-164.5 -72q-106 0 -163 71.5zM366 271q0 183 -104 183t-104 -183t103 -183q105 0 105 183z" />
<glyph unicode="&#xf7;" horiz-adv-x="541" d="M223.5 510q-18.5 18 -18.5 49t18.5 49.5t47.5 18.5t47 -18.5t18 -49.5t-18 -49t-47 -18t-47.5 18zM55 418h431v-99h-431v99zM223.5 127.5q-18.5 18.5 -18.5 49.5t18.5 49.5t47.5 18.5t47 -18.5t18 -49.5t-18 -49.5t-47 -18.5t-47.5 18.5z" />
<glyph unicode="&#xf8;" horiz-adv-x="524" d="M512 543l-69 -88q40 -71 40 -184q0 -139 -57.5 -211t-164.5 -72q-82 0 -135 45l-29 -43h-85v10l69 88q-40 71 -40 183q0 140 57 212t164 72q81 0 135 -45l30 43h85v-10zM153 271q0 -46 6 -81l177 236q-25 33 -74 33q-109 0 -109 -188zM371 271q0 47 -6 81l-178 -236 q27 -33 74 -33q110 0 110 188z" />
<glyph unicode="&#xf9;" horiz-adv-x="540" d="M468 543v-543h-101v72q-54 -84 -151 -84q-72 0 -111.5 43t-39.5 122v390h114v-373q0 -77 78 -77q29 0 52.5 11.5t44.5 36.5v402h114zM132 774v10h118l81 -159v-10h-83z" />
<glyph unicode="&#xfa;" horiz-adv-x="540" d="M468 543v-543h-101v72q-54 -84 -151 -84q-72 0 -111.5 43t-39.5 122v390h114v-373q0 -77 78 -77q29 0 52.5 11.5t44.5 36.5v402h114zM210 625l88 159h118v-10l-123 -159h-83v10z" />
<glyph unicode="&#xfb;" horiz-adv-x="540" d="M468 543v-543h-101v72q-54 -84 -151 -84q-72 0 -111.5 43t-39.5 122v390h114v-373q0 -77 78 -77q29 0 52.5 11.5t44.5 36.5v402h114zM415 625v-10h-76l-74 100l-73 -100h-73v10l96 159h104z" />
<glyph unicode="&#xfc;" horiz-adv-x="540" d="M131.5 636.5q-16.5 17.5 -16.5 46.5q0 31 16.5 48.5t45.5 17.5t45.5 -17.5t16.5 -47.5q0 -31 -16.5 -48t-45.5 -17t-45.5 17.5zM311.5 636.5q-16.5 17.5 -16.5 46.5q0 31 16.5 48.5t45.5 17.5t45.5 -17.5t16.5 -47.5q0 -31 -16.5 -48t-45.5 -17t-45.5 17.5zM468 543v-543 h-101v72q-54 -84 -151 -84q-72 0 -111.5 43t-39.5 122v390h114v-373q0 -77 78 -77q29 0 52.5 11.5t44.5 36.5v402h114z" />
<glyph unicode="&#xfd;" horiz-adv-x="495" d="M475 543l-162 -523q-27 -88 -88 -145.5t-165 -93.5l-38 96q67 25 106 52t62 64l-170 550h117l112 -422l110 422h116zM192 625l88 159h118v-10l-123 -159h-83v10z" />
<glyph unicode="&#xfe;" horiz-adv-x="540" d="M451 480.5q49 -74.5 49 -209.5t-50 -209t-140 -74q-79 0 -124 56v-251h-114v977h114v-282q47 67 128 67q88 0 137 -74.5zM383 267q0 182 -105 182q-27 0 -49 -11.5t-43 -36.5v-265q20 -22 45 -34.5t52 -12.5q100 0 100 178z" />
<glyph unicode="&#xff;" horiz-adv-x="495" d="M113.5 636.5q-16.5 17.5 -16.5 46.5q0 31 16.5 48.5t45.5 17.5t45.5 -17.5t16.5 -47.5q0 -31 -16.5 -48t-45.5 -17t-45.5 17.5zM293.5 636.5q-16.5 17.5 -16.5 46.5q0 31 16.5 48.5t45.5 17.5t45.5 -17.5t16.5 -47.5q0 -31 -16.5 -48t-45.5 -17t-45.5 17.5zM475 543 l-162 -523q-27 -88 -88 -145.5t-165 -93.5l-38 96q67 25 106 52t62 64l-170 550h117l112 -422l110 422h116z" />
<glyph unicode="&#x131;" horiz-adv-x="262" d="M74 543h114v-543h-114v543z" />
<glyph unicode="&#x13f;" horiz-adv-x="492" d="M473 103v-103h-396v724h116v-621h280zM325 355.5q-18 18.5 -18 50.5q0 33 18 51.5t50 18.5t50 -18.5t18 -50.5q0 -33 -18 -51.5t-50 -18.5t-50 18.5z" />
<glyph unicode="&#x140;" horiz-adv-x="375" d="M70 125v645h114v-622q0 -28 11 -40.5t35 -12.5q15 0 33 3l8 -95q-34 -9 -72 -9q-129 0 -129 131zM264 346.5q-18 18.5 -18 50.5q0 33 18 51.5t50 18.5t50 -18.5t18 -50.5q0 -33 -18 -51.5t-50 -18.5t-50 18.5z" />
<glyph unicode="&#x152;" horiz-adv-x="903" d="M874 102v-102h-417h-122q-140 0 -214 91t-74 271t74 271t214 91h168h357v-102h-291v-200h211v-103h-211v-217h305zM457 102v520h-122q-168 0 -168 -260t168 -260h122z" />
<glyph unicode="&#x153;" horiz-adv-x="826" d="M786 237h-310q12 -146 132 -146q61 0 122 35l40 -84q-36 -25 -81 -39t-92 -14q-115 0 -176 81q-56 -82 -162 -82q-105 0 -161.5 71.5t-56.5 211.5t56.5 212t162.5 72q53 0 94.5 -22t68.5 -63q23 41 64 63t94 22q100 0 155 -68.5t55 -192.5q0 -37 -5 -57zM477 316h201 q-1 66 -27.5 103t-72.5 37q-90 0 -101 -140zM336 134q26 46 26 137q0 183 -102 183t-102 -183t101 -183q51 0 77 46z" />
<glyph unicode="&#x178;" horiz-adv-x="559" d="M142.5 797.5q-16.5 17.5 -16.5 46.5q0 31 16.5 48.5t45.5 17.5t45.5 -17.5t16.5 -47.5q0 -31 -16.5 -48t-45.5 -17t-45.5 17.5zM323.5 797.5q-16.5 17.5 -16.5 46.5q0 31 16.5 48.5t45.5 17.5t45.5 -17.5t16.5 -47.5q0 -31 -16.5 -48t-45.5 -17t-45.5 17.5zM541 724 l-205 -479v-245h-116v245l-203 479h125l139 -352l136 352h124z" />
<glyph unicode="&#x192;" horiz-adv-x="523" d="M317 531l-12 -117h143v-96h-154l-37 -343q-10 -88 -60 -136.5t-131 -48.5q-34 0 -65 9l17 110q22 -6 47 -6q34 0 54 22.5t24 65.5l36 327h-98v96h108l15 133q10 90 60.5 139.5t132.5 49.5q39 0 73 -11t56 -31l-56 -93q-38 22 -70 22q-72 0 -83 -92z" />
<glyph unicode="&#x237;" horiz-adv-x="262" d="M-58 -128q53 20 81 40.5t39.5 51t11.5 80.5v499h114v-502q0 -74 -19 -121t-63.5 -79.5t-126.5 -61.5z" />
<glyph unicode="&#x2c6;" d="M398 625v-10h-76l-73 100l-74 -100h-73v10l96 159h104z" />
<glyph unicode="&#x2c7;" d="M398 784v-10l-96 -159h-104l-96 159v10h76l74 -99l73 99h73z" />
<glyph unicode="&#x2d8;" d="M144.5 655.5q-38.5 42.5 -41.5 118.5h66q11 -78 82 -78q73 0 83 78h63q-3 -76 -41.5 -118.5t-105.5 -42.5t-105.5 42.5z" />
<glyph unicode="&#x2d9;" d="M200 632.5q-18 18.5 -18 50.5q0 33 18 51.5t50 18.5t50 -18.5t18 -50.5q0 -33 -18 -51.5t-50 -18.5t-50 18.5z" />
<glyph unicode="&#x2da;" d="M160 633q-32 30 -32 84t32 84t90 30t90 -30t32 -84t-32 -84t-90 -30t-90 30zM301 717q0 60 -51 60t-51 -60t51 -60t51 60z" />
<glyph unicode="&#x2db;" d="M97 -199q-29 26 -29 72q0 44 26 79.5t72 56.5l73 -9q-77 -48 -77 -106q0 -44 44 -44q27 0 54 14l25 -59q-44 -30 -106 -30q-53 0 -82 26z" />
<glyph unicode="&#x2dc;" d="M272.5 626q-19.5 10 -41.5 28q-17 13 -27 19t-21 6q-32 0 -38 -61h-64q2 68 28.5 105.5t73.5 37.5q25 0 44.5 -10t41.5 -28q16 -12 26.5 -18t21.5 -6q32 0 38 60h64q-2 -68 -28.5 -105.5t-73.5 -37.5q-25 0 -44.5 10z" />
<glyph unicode="&#x2dd;" d="M130 625l52 159h102v-10l-86 -159h-68v10zM277 625l53 159h101v-10l-86 -159h-68v10z" />
<glyph unicode="&#x300;" horiz-adv-x="0" d="M-395 774v10h118l81 -159v-10h-83z" />
<glyph unicode="&#x301;" horiz-adv-x="0" d="M-317 625l88 159h118v-10l-123 -159h-83v10z" />
<glyph unicode="&#x302;" horiz-adv-x="0" d="M-112 625v-10h-76l-74 100l-73 -100h-73v10l96 159h104z" />
<glyph unicode="&#x303;" horiz-adv-x="0" d="M-237.5 626q-19.5 10 -41.5 28q-17 13 -27 19t-21 6q-32 0 -38 -61h-64q2 68 28.5 105.5t73.5 37.5q25 0 44.5 -10t41.5 -28q16 -12 26.5 -18t21.5 -6q32 0 38 60h64q-2 -68 -28.5 -105.5t-73.5 -37.5q-25 0 -44.5 10z" />
<glyph unicode="&#x304;" horiz-adv-x="0" d="M-409 717h298v-78h-298v78z" />
<glyph unicode="&#x307;" horiz-adv-x="0" d="M-310 632.5q-18 18.5 -18 50.5q0 33 18 51.5t50 18.5t50 -18.5t18 -50.5q0 -33 -18 -51.5t-50 -18.5t-50 18.5z" />
<glyph unicode="&#x308;" horiz-adv-x="0" d="M-395.5 636.5q-16.5 17.5 -16.5 46.5q0 31 16.5 48.5t45.5 17.5t45.5 -17.5t16.5 -47.5q0 -31 -16.5 -48t-45.5 -17t-45.5 17.5zM-215.5 636.5q-16.5 17.5 -16.5 46.5q0 31 16.5 48.5t45.5 17.5t45.5 -17.5t16.5 -47.5q0 -31 -16.5 -48t-45.5 -17t-45.5 17.5z" />
<glyph unicode="&#x30a;" horiz-adv-x="0" d="M-350 633q-32 30 -32 84t32 84t90 30t90 -30t32 -84t-32 -84t-90 -30t-90 30zM-209 717q0 60 -51 60t-51 -60t51 -60t51 60z" />
<glyph unicode="&#x30b;" horiz-adv-x="0" d="M-380 625l52 159h102v-10l-86 -159h-68v10zM-233 625l53 159h101v-10l-86 -159h-68v10z" />
<glyph unicode="&#x3c0;" horiz-adv-x="635" d="M487 446v-296q0 -27 12 -39.5t39 -12.5q14 0 29 3l10 -99q-33 -9 -69 -9q-135 0 -135 134v319h-102q-2 -151 -18 -255t-51 -191h-124q40 94 57 194t19 252h-117v97h567v-97h-117z" />
<glyph unicode="&#x400;" horiz-adv-x="539" d="M112 914v12h128l127 -133v-12h-93zM77 724h419v-102h-303v-200h223v-103h-223v-217h317v-102h-433v724z" />
<glyph unicode="&#x401;" horiz-adv-x="539" d="M157.5 797.5q-16.5 17.5 -16.5 46.5q0 31 16.5 48.5t45.5 17.5t45.5 -17.5t16.5 -47.5q0 -31 -16.5 -48t-45.5 -17t-45.5 17.5zM338.5 797.5q-16.5 17.5 -16.5 46.5q0 31 16.5 48.5t45.5 17.5t45.5 -17.5t16.5 -47.5q0 -31 -16.5 -48t-45.5 -17t-45.5 17.5zM77 724h419 v-102h-303v-200h223v-103h-223v-217h317v-102h-433v724z" />
<glyph unicode="&#x402;" horiz-adv-x="726" d="M609.5 386.5q56.5 -59.5 56.5 -172.5v-65q0 -84 -21.5 -141.5t-69.5 -97.5t-129 -70l-40 101q80 29 112 78t32 140v34q0 79 -31.5 114.5t-95.5 35.5q-55 0 -120 -26v-317h-116v620h-172v104h460v-104h-172v-204q73 30 147 30q103 0 159.5 -59.5z" />
<glyph unicode="&#x403;" horiz-adv-x="488" d="M206 793l136 133h128v-12l-171 -133h-93v12zM193 0h-116v724h400v-103h-284v-621z" />
<glyph unicode="&#x404;" horiz-adv-x="562" d="M536 43q-30 -25 -79 -39.5t-107 -14.5q-149 0 -231 94t-82 264q0 119 37.5 206.5t107 135t163.5 47.5q51 0 99.5 -14.5t85.5 -40.5l-37 -88q-80 39 -149 39q-77 0 -124.5 -54.5t-58.5 -155.5h265v-103h-268q15 -225 198 -225q75 0 142 35z" />
<glyph unicode="&#x405;" horiz-adv-x="525" d="M132 5.5q-58 16.5 -103 46.5l36 91q95 -54 185 -54q62 0 93.5 26t31.5 77q0 42 -22 68t-70 39l-82 23q-86 24 -125 71t-39 127q0 101 59.5 158t165.5 57q50 0 104.5 -12.5t102.5 -35.5l-36 -91q-102 39 -173 39q-54 0 -82 -24t-28 -71q0 -42 21.5 -67.5t70.5 -38.5 l82 -23q85 -24 124 -72t39 -128q0 -104 -62.5 -163t-174.5 -59q-60 0 -118 16.5z" />
<glyph unicode="&#x406;" horiz-adv-x="274" d="M195 724v-724h-116v724h116z" />
<glyph unicode="&#x407;" horiz-adv-x="274" d="M7.5 797.5q-16.5 17.5 -16.5 47.5q0 31 16 48t45 17t45.5 -17.5t16.5 -46.5q0 -31 -16.5 -48.5t-45.5 -17.5q-28 0 -44.5 17.5zM177.5 797.5q-16.5 17.5 -16.5 47.5q0 31 16 48t45 17t45.5 -17.5t16.5 -46.5q0 -31 -16.5 -48.5t-45.5 -17.5q-28 0 -44.5 17.5zM195 724 v-724h-116v724h116z" />
<glyph unicode="&#x408;" horiz-adv-x="417" d="M66 2q-42 14 -71 39l40 87q63 -37 117 -37q90 0 90 92v541h116v-548q0 -90 -53 -139t-149 -49q-48 0 -90 14z" />
<glyph unicode="&#x409;" horiz-adv-x="962" d="M462 621h-171l-19 -284q-7 -101 -26 -163.5t-60 -106.5t-116 -83l-54 102q52 29 79.5 59.5t40.5 76t19 125.5l26 377h398v-257h109q115 0 176 -60t61 -174q0 -111 -62.5 -172t-169.5 -61h-231v621zM579 102h107q57 0 88 33t31 99q0 65 -29 98t-83 33h-114v-263z" />
<glyph unicode="&#x40a;" horiz-adv-x="961" d="M863 390q61 -57 61 -167q0 -107 -62.5 -165t-169.5 -58h-231v345h-265v-345h-119v724h119v-277h265v277h117v-277h109q115 0 176 -57zM773.5 132.5q30.5 30.5 30.5 92.5q0 60 -29 90t-83 30h-114v-243h108q57 0 87.5 30.5z" />
<glyph unicode="&#x40b;" horiz-adv-x="715" d="M602.5 388.5q52.5 -57.5 52.5 -169.5v-219h-116v198q0 77 -28.5 111t-88.5 34q-55 0 -119 -27v-316h-116v621h-172v103h460v-103h-172v-206q77 31 146 31q101 0 153.5 -57.5z" />
<glyph unicode="&#x40c;" horiz-adv-x="626" d="M344 781h-93v12l136 133h128v-12zM475 0l-182 315l-29 -15l-71 -36v-264h-116v724h116v-345l39 21q78 42 115.5 73t62.5 87t44 164h119q-18 -102 -42 -167t-57 -107.5t-83 -76.5l217 -373h-133z" />
<glyph unicode="&#x40d;" horiz-adv-x="678" d="M153 914v12h128l127 -133v-12h-93zM193 205l296 519h112v-724h-116v520l-296 -520h-112v724h116v-519z" />
<glyph unicode="&#x40e;" horiz-adv-x="593" d="M575 724l-173 -463q-36 -96 -72 -149t-83.5 -81.5t-125.5 -47.5l-30 101q66 19 104.5 43.5t66.5 70.5l-244 526h126l174 -399l145 399h112zM196 824.5q-45 37.5 -52 113.5h68q17 -68 100 -68q43 0 68 18t33 50h65q-8 -76 -52.5 -113.5t-114.5 -37.5t-115 37.5z" />
<glyph unicode="&#x40f;" horiz-adv-x="659" d="M582 724v-724h-196l-13 -153h-84l-14 153h-198v724h116v-623h273v623h116z" />
<glyph unicode="&#x410;" horiz-adv-x="627" d="M438 170h-251l-48 -170h-122l233 724h127l232 -724h-123zM215 270h195l-99 341z" />
<glyph unicode="&#x411;" horiz-adv-x="586" d="M488.5 381q61.5 -55 61.5 -164q0 -106 -62.5 -161.5t-170.5 -55.5h-240v724h117h308v-103h-308v-185h118q115 0 176.5 -55zM399 131q31 29 31 88q0 58 -29 86.5t-83 28.5h-124v-232h117q57 0 88 29z" />
<glyph unicode="&#x412;" horiz-adv-x="595" d="M510.5 55.5q-56.5 -55.5 -161.5 -55.5h-272v724h241q101 0 155.5 -53t54.5 -151q0 -102 -94 -138q133 -38 133 -168q0 -103 -56.5 -158.5zM313 622h-120v-202h125q92 0 92 98q0 104 -97 104zM350 322h-157v-220h163q92 0 92 110t-98 110z" />
<glyph unicode="&#x413;" horiz-adv-x="488" d="M193 0h-116v724h400v-103h-284v-621z" />
<glyph unicode="&#x414;" horiz-adv-x="683" d="M654 101v-254h-87l-18 153h-431l-18 -153h-87v254h32q41 25 63 58t31.5 76.5t15.5 111.5l30 377h391v-623h78zM460 101v520h-163l-24 -284q-8 -92 -26.5 -144t-62.5 -92h276z" />
<glyph unicode="&#x415;" horiz-adv-x="539" d="M77 724h419v-102h-303v-200h223v-103h-223v-217h317v-102h-433v724z" />
<glyph unicode="&#x416;" horiz-adv-x="929" d="M782 0l-171 317q-9 -4 -17 -7.5t-15 -6.5l-56 -26v-277h-115v277l-56 26l-32 15l-173 -318h-129l206 371q-45 32 -75 75t-52.5 109t-41.5 169h115q21 -114 44 -171.5t59.5 -89t110.5 -66.5l24 -12v339h115v-339l24 12q74 35 110.5 66.5t59.5 89t44 171.5h115 q-19 -103 -41 -168.5t-52 -108.5t-75 -75l203 -372h-129z" />
<glyph unicode="&#x417;" horiz-adv-x="526" d="M497 212q0 -74 -37 -124t-100 -75t-140 -25q-124 0 -215 55l42 91q83 -43 166 -43q77 0 120.5 32.5t43.5 92.5q0 59 -36 84t-100 25h-116v96h108q58 0 88 28.5t30 77.5q0 54 -35.5 81.5t-96.5 27.5q-75 0 -150 -39l-38 88q47 26 94 38.5t102 12.5q109 0 176 -49t67 -144 q0 -114 -105 -160q132 -40 132 -171z" />
<glyph unicode="&#x418;" horiz-adv-x="678" d="M193 205l296 519h112v-724h-116v520l-296 -520h-112v724h116v-519z" />
<glyph unicode="&#x419;" horiz-adv-x="678" d="M193 205l296 519h112v-724h-116v520l-296 -520h-112v724h116v-519zM234 824.5q-45 37.5 -52 113.5h68q17 -68 100 -68q43 0 68 18t33 50h65q-8 -76 -52.5 -113.5t-114.5 -37.5t-115 37.5z" />
<glyph unicode="&#x41a;" horiz-adv-x="626" d="M475 0l-182 315l-29 -15l-71 -36v-264h-116v724h116v-345l39 21q78 42 115.5 73t62.5 87t44 164h119q-18 -102 -42 -167t-57 -107.5t-83 -76.5l217 -373h-133z" />
<glyph unicode="&#x41b;" horiz-adv-x="664" d="M247 173.5q-19 -62.5 -60.5 -106.5t-116.5 -83l-54 102q52 29 79.5 59.5t40.5 76t19 125.5l26 377h406v-724h-116v621h-179l-19 -284q-7 -101 -26 -163.5z" />
<glyph unicode="&#x41c;" horiz-adv-x="800" d="M610 528l-150 -384h-121l-152 384v-528h-110v724h137l186 -475l184 475h138v-724h-112v528z" />
<glyph unicode="&#x41d;" horiz-adv-x="659" d="M466 317h-273v-317h-116v724h116v-305h273v305h116v-724h-116v317z" />
<glyph unicode="&#x41e;" horiz-adv-x="667" d="M120.5 82.5q-73.5 94.5 -73.5 279.5t73.5 279.5t212.5 94.5t212.5 -94.5t73.5 -279.5t-73.5 -279.5t-212.5 -94.5t-212.5 94.5zM499 362q0 272 -166 272t-166 -272t166 -272t166 272z" />
<glyph unicode="&#x41f;" horiz-adv-x="661" d="M193 0h-116v724h507v-724h-116v621h-275v-621z" />
<glyph unicode="&#x420;" horiz-adv-x="558" d="M488.5 304q-60.5 -64 -168.5 -64h-127v-240h-116v724h248q106 0 165 -63.5t59 -177.5q0 -115 -60.5 -179zM401.5 586q-27.5 36 -81.5 36h-127v-280h132q104 0 104 138q0 70 -27.5 106z" />
<glyph unicode="&#x421;" horiz-adv-x="562" d="M119 83q-82 94 -82 264q0 119 37.5 206.5t107 135t163.5 47.5q51 0 99.5 -14.5t85.5 -40.5l-37 -88q-80 39 -149 39q-89 0 -138 -72.5t-49 -203.5q0 -262 199 -262q75 0 142 35l38 -86q-30 -25 -79 -39.5t-107 -14.5q-149 0 -231 94z" />
<glyph unicode="&#x422;" horiz-adv-x="491" d="M187 621h-172v103h460v-103h-172v-621h-116v621z" />
<glyph unicode="&#x423;" horiz-adv-x="593" d="M575 724l-173 -463q-36 -96 -72 -149t-83.5 -81.5t-125.5 -47.5l-30 101q66 19 104.5 43.5t66.5 70.5l-244 526h126l174 -399l145 399h112z" />
<glyph unicode="&#x424;" horiz-adv-x="729" d="M617 165q-69 -71 -197 -84v-91h-113v92q-127 12 -195.5 83.5t-68.5 197.5t68.5 197t195.5 84v90h113v-90q127 -12 196.5 -83.5t69.5 -197.5q0 -127 -69 -198zM532 238.5q38 46.5 38 124.5t-37.5 124t-112.5 59v-366q74 12 112 58.5zM196 238.5q37 -46.5 111 -58.5v366 q-74 -13 -111 -59t-37 -124t37 -124.5z" />
<glyph unicode="&#x425;" horiz-adv-x="562" d="M277 264l-133 -264h-130l202 367l-195 357h132l130 -253l128 253h130l-196 -356l203 -368h-132z" />
<glyph unicode="&#x426;" horiz-adv-x="677" d="M649 101v-254h-87l-18 153h-467v724h116v-623h262v623h116v-623h78z" />
<glyph unicode="&#x427;" horiz-adv-x="634" d="M557 724v-724h-116v308q-81 -35 -161 -35q-107 0 -163.5 64.5t-56.5 180.5v206h116v-188q0 -85 28 -123t97 -38q67 0 140 33v316h116z" />
<glyph unicode="&#x428;" horiz-adv-x="957" d="M420 724h117v-623h227v623h116v-724h-803v724h116v-623h227v623z" />
<glyph unicode="&#x429;" horiz-adv-x="986" d="M957 101v-254h-86l-19 153h-775v724h116v-623h227v623h117v-623h227v623h116v-623h77z" />
<glyph unicode="&#x42a;" horiz-adv-x="696" d="M598.5 407q61.5 -60 61.5 -174q0 -111 -63 -172t-170 -61h-240v621h-172v103h259h30v-257h118q115 0 176.5 -60zM509 135.5q31 33.5 31 98.5q0 66 -29.5 98.5t-83.5 32.5h-123v-263h117q57 0 88 33.5z" />
<glyph unicode="&#x42b;" horiz-adv-x="823" d="M77 724h117v-257h118q115 0 176.5 -60t61.5 -174q0 -111 -63 -172t-170 -61h-240v724zM746 724v-724h-116v724h116zM194 102h116q57 0 88.5 33t31.5 99t-29.5 98.5t-83.5 32.5h-123v-263z" />
<glyph unicode="&#x42c;" horiz-adv-x="585" d="M76 724h117v-257h118q115 0 176 -60t61 -174q0 -111 -62.5 -172t-170.5 -61h-239v724zM193 102h116q57 0 88 33t31 99t-29 98.5t-83 32.5h-123v-263z" />
<glyph unicode="&#x42d;" horiz-adv-x="563" d="M444.5 641q81.5 -95 81.5 -271q0 -116 -37.5 -202t-108.5 -132.5t-169 -46.5q-58 0 -106.5 14t-79.5 40l39 86q68 -35 141 -35q87 0 137.5 58.5t60.5 166.5h-266v103h267q-9 105 -56 157.5t-130 52.5q-71 0 -149 -38l-38 87q39 27 87 41t101 14q144 0 225.5 -95z" />
<glyph unicode="&#x42e;" horiz-adv-x="893" d="M776 641.5q69 -94.5 69 -279.5t-69 -279.5t-199 -94.5q-122 0 -190.5 83t-76.5 246h-117v-317h-116v724h116v-305h117q10 157 78.5 237t188.5 80q130 0 199 -94.5zM725 362q0 272 -148 272t-148 -272t148 -272t148 272z" />
<glyph unicode="&#x42f;" horiz-adv-x="592" d="M13 0l166 277q-127 44 -127 215q0 111 57 171.5t162 60.5h244v-724h-116v262h-103l-147 -262h-136zM275 623q-53 0 -78 -33.5t-25 -99.5q0 -65 24 -97.5t75 -32.5h128v263h-124z" />
<glyph unicode="&#x430;" d="M335 76q-47 -86 -152 -86q-73 0 -113.5 42t-40.5 119q0 97 70 142.5t223 46.5v35q0 79 -100 79q-62 0 -119 -28l-28 87q79 42 166 42q92 0 143 -44t51 -123v-388h-100v76zM182 235.5q-44 -24.5 -44 -76.5q0 -73 73 -73q63 0 111 54v121q-96 -1 -140 -25.5z" />
<glyph unicode="&#x431;" horiz-adv-x="535" d="M443 432.5q51 -61.5 51 -176.5q0 -85 -30 -145.5t-81.5 -91.5t-116.5 -31q-105 0 -164.5 76t-59.5 215q0 116 15 203t51 141q28 41 67.5 64t100 35.5t165.5 21.5l9 -101q-82 -8 -127.5 -16t-74 -22t-46.5 -39q-27 -38 -37 -118q59 46 132 46q95 0 146 -61.5zM347.5 132 q29.5 44 29.5 121q0 72 -27.5 107.5t-84.5 35.5q-29 0 -54 -9t-51 -27q-1 -27 -1 -83q0 -90 26 -139.5t81 -49.5q52 0 81.5 44z" />
<glyph unicode="&#x432;" horiz-adv-x="508" d="M451 244.5q26 -31.5 26 -81.5q0 -77 -47.5 -120t-128.5 -43h-229v543h203q81 0 127 -39t46 -110q0 -73 -69 -104q46 -14 72 -45.5zM186 318h84q31 0 47 18.5t16 49.5q0 33 -17.5 50.5t-47.5 17.5h-82v-136zM341.5 108.5q17.5 20.5 17.5 55.5t-18.5 54t-50.5 19h-104v-149 h105q33 0 50.5 20.5z" />
<glyph unicode="&#x433;" horiz-adv-x="412" d="M72 543h324v-96h-210v-447h-114v543z" />
<glyph unicode="&#x434;" horiz-adv-x="591" d="M563 96v-249h-81l-19 153h-345l-19 -153h-81v249h28q46 30 66 67t26 102l25 278h324v-447h76zM373 96v351h-109l-18 -195q-5 -54 -21 -91t-47 -65h195z" />
<glyph unicode="&#x435;" horiz-adv-x="508" d="M371.5 3q-45.5 -14 -94.5 -14q-113 0 -175.5 74t-62.5 208q0 135 58 209.5t164 74.5q101 0 156.5 -68.5t55.5 -192.5q0 -30 -5 -58h-314q12 -145 134 -145q63 0 124 35l40 -84q-35 -25 -80.5 -39zM154 316h205q-1 66 -27.5 103t-73.5 37q-92 0 -104 -140z" />
<glyph unicode="&#x436;" horiz-adv-x="762" d="M620 0l-123 229l-13 -6l-46 -18v-205h-112v205l-48 18l-13 6l-123 -229h-126l154 279q-46 35 -72.5 93.5t-46.5 170.5h113q15 -80 30 -121.5t43 -68t81 -46.5l8 -3v239h112v-239l6 3q54 20 81.5 46.5t42.5 68t30 121.5h113q-21 -113 -46.5 -171t-72.5 -93l154 -279h-126z " />
<glyph unicode="&#x437;" horiz-adv-x="442" d="M380 243.5q27 -31.5 27 -83.5q0 -82 -61 -126.5t-162 -44.5q-50 0 -96 10t-80 31l41 88q61 -32 126 -32q53 0 84 20.5t31 60.5q0 38 -26 53.5t-78 15.5h-85v82h82q40 0 63.5 17.5t23.5 51.5q0 36 -25.5 54.5t-70.5 18.5q-28 0 -53.5 -8t-56.5 -23l-33 87q76 39 162 39 q83 0 138.5 -36.5t55.5 -113.5q0 -40 -21 -69.5t-58 -46.5q45 -14 72 -45.5z" />
<glyph unicode="&#x438;" horiz-adv-x="572" d="M186 190l205 353h110v-543h-115v353l-205 -353h-109v543h114v-353z" />
<glyph unicode="&#x439;" horiz-adv-x="572" d="M186 190l205 353h110v-543h-115v353l-205 -353h-109v543h114v-353zM180 654.5q-45 37.5 -52 113.5h68q17 -68 100 -68q43 0 68 18t33 50h65q-8 -76 -52.5 -113.5t-114.5 -37.5t-115 37.5z" />
<glyph unicode="&#x43a;" horiz-adv-x="533" d="M388 0l-134 230l-15 -8l-53 -27v-195h-114v543h114v-239l15 8q58 28 86.5 51.5t46 63.5t31.5 116h118q-20 -108 -50.5 -164.5t-81.5 -93.5l166 -285h-129z" />
<glyph unicode="&#x43b;" horiz-adv-x="554" d="M213.5 129.5q-15.5 -46.5 -49 -80.5t-96.5 -65l-49 93q39 21 59.5 44.5t30 56t13.5 87.5l20 278h341v-543h-115v447h-118l-15 -195q-6 -76 -21.5 -122.5z" />
<glyph unicode="&#x43c;" horiz-adv-x="678" d="M606 0h-109v366l-114 -280h-92l-112 279v-365h-107v543h134l133 -327l134 327h133v-543z" />
<glyph unicode="&#x43d;" horiz-adv-x="556" d="M485 0h-114v233h-185v-233h-114v543h114v-214h185v214h114v-543z" />
<glyph unicode="&#x43e;" horiz-adv-x="524" d="M98 59.5q-57 71.5 -57 211.5t57 212t164 72q106 0 163.5 -72t57.5 -212q0 -139 -57.5 -211t-164.5 -72q-106 0 -163 71.5zM366 271q0 183 -104 183t-104 -183t103 -183q105 0 105 183z" />
<glyph unicode="&#x43f;" horiz-adv-x="560" d="M186 0h-114v543h416v-543h-114v447h-188v-447z" />
<glyph unicode="&#x440;" horiz-adv-x="540" d="M450 62q-50 -74 -140 -74q-38 0 -70 14t-54 41v-250h-114v750h100v-75q50 87 142 87q88 0 137 -74.5t49 -209.5t-50 -209zM278 449q-51 0 -92 -48v-264q19 -23 44.5 -35.5t52.5 -12.5q100 0 100 178q0 182 -105 182z" />
<glyph unicode="&#x441;" horiz-adv-x="456" d="M100 61q-63 72 -63 202q0 87 29.5 153t82.5 102.5t123 36.5q41 0 80 -12.5t69 -35.5l-42 -86q-62 31 -109 31q-55 0 -85.5 -47.5t-30.5 -133.5q0 -179 129 -179q52 0 106 31l38 -86q-57 -48 -150 -48q-114 0 -177 72z" />
<glyph unicode="&#x442;" horiz-adv-x="420" d="M265 0h-111v447h-139v96h390v-96h-140v-447z" />
<glyph unicode="&#x443;" horiz-adv-x="483" d="M219 -125.5q-61 -57.5 -165 -93.5l-38 96q66 24 105 52t62 65l-169 549h117l112 -421l110 421h116l-162 -523q-27 -88 -88 -145.5z" />
<glyph unicode="&#x444;" horiz-adv-x="690" d="M586.5 77q-66.5 -70 -186.5 -82v-202h-110v202q-120 12 -186.5 82t-66.5 194t66.5 194t186.5 83v193h110v-193q120 -12 186.5 -82t66.5 -195q0 -124 -66.5 -194zM505 149q35 46 35 122q0 77 -35 123t-105 59v-363q70 13 105 59zM186 149q35 -46 104 -59v362 q-70 -13 -104.5 -59t-34.5 -122t35 -122z" />
<glyph unicode="&#x445;" horiz-adv-x="464" d="M229 187l-97 -187h-123l161 276l-154 267h125l93 -178l95 178h124l-160 -266l162 -277h-126z" />
<glyph unicode="&#x446;" horiz-adv-x="582" d="M554 96v-249h-83l-18 153h-381v543h114v-447h178v447h114v-447h76z" />
<glyph unicode="&#x447;" horiz-adv-x="535" d="M463 543v-543h-115v216q-62 -25 -124 -25q-81 0 -125 47.5t-44 137.5v167h115v-138q0 -58 19.5 -87t67.5 -29q45 0 91 20v234h115z" />
<glyph unicode="&#x448;" horiz-adv-x="795" d="M340 543h115v-447h154v447h114v-543h-651v543h114v-447h154v447z" />
<glyph unicode="&#x449;" horiz-adv-x="827" d="M799 96v-249h-83l-18 153h-626v543h114v-447h154v447h115v-447h154v447h114v-447h76z" />
<glyph unicode="&#x44a;" horiz-adv-x="580" d="M491.5 323.5q54.5 -42.5 54.5 -135.5q0 -62 -28 -104.5t-74.5 -63t-101.5 -20.5h-190v447h-137v96h218h33v-177h76q95 0 149.5 -42.5zM405 118q24 24 24 72q0 45 -23 67.5t-64 22.5h-76v-186h71q44 0 68 24z" />
<glyph unicode="&#x44b;" horiz-adv-x="706" d="M72 543h114v-177h76q95 0 149.5 -42.5t54.5 -135.5q0 -62 -28 -104.5t-74.5 -63t-101.5 -20.5h-190v543zM635 543v-543h-114v543h114zM186 94h71q44 0 68 24t24 72q0 45 -23 67.5t-64 22.5h-76v-186z" />
<glyph unicode="&#x44c;" d="M72 543h114v-177h76q95 0 149.5 -42.5t54.5 -135.5q0 -62 -28 -104.5t-74.5 -63t-101.5 -20.5h-190v543zM186 94h71q44 0 68 24t24 72q0 45 -23 67.5t-64 22.5h-76v-186z" />
<glyph unicode="&#x44d;" horiz-adv-x="459" d="M359.5 481.5q62.5 -73.5 62.5 -205.5q0 -86 -29.5 -151t-84 -100.5t-127.5 -35.5q-94 0 -152 47l38 81q45 -30 102 -30q58 0 92 37.5t42 111.5h-188v82h189q-13 141 -128 141q-47 0 -100 -30l-39 79q30 22 69.5 34.5t80.5 12.5q110 0 172.5 -73.5z" />
<glyph unicode="&#x44e;" horiz-adv-x="726" d="M630 483q55 -72 55 -212t-55 -211.5t-156 -71.5q-93 0 -147 62.5t-61 184.5h-80v-235h-114v543h114v-215h81q11 112 65 169.5t143 57.5q100 0 155 -72zM569 271q0 183 -94 183q-95 0 -95 -183t94 -183q95 0 95 183z" />
<glyph unicode="&#x44f;" horiz-adv-x="521" d="M24 0l119 204q-84 45 -84 156q0 84 50.5 133.5t132.5 49.5h207v-543h-113v183h-84l-100 -183h-128zM253 447q-35 0 -56 -24t-21 -65q0 -39 19 -62.5t55 -23.5h86v175h-83z" />
<glyph unicode="&#x450;" horiz-adv-x="508" d="M371.5 3q-45.5 -14 -94.5 -14q-113 0 -175.5 74t-62.5 208q0 135 58 209.5t164 74.5q101 0 156.5 -68.5t55.5 -192.5q0 -30 -5 -58h-314q12 -145 134 -145q63 0 124 35l40 -84q-35 -25 -80.5 -39zM154 316h205q-1 66 -27.5 103t-73.5 37q-92 0 -104 -140zM126 774v10h118 l81 -159v-10h-83z" />
<glyph unicode="&#x451;" horiz-adv-x="508" d="M125.5 636.5q-16.5 17.5 -16.5 46.5q0 31 16.5 48.5t45.5 17.5t45.5 -17.5t16.5 -47.5q0 -31 -16.5 -48t-45.5 -17t-45.5 17.5zM305.5 636.5q-16.5 17.5 -16.5 46.5q0 31 16.5 48.5t45.5 17.5t45.5 -17.5t16.5 -47.5q0 -31 -16.5 -48t-45.5 -17t-45.5 17.5zM371.5 3 q-45.5 -14 -94.5 -14q-113 0 -175.5 74t-62.5 208q0 135 58 209.5t164 74.5q101 0 156.5 -68.5t55.5 -192.5q0 -30 -5 -58h-314q12 -145 134 -145q63 0 124 35l40 -84q-35 -25 -80.5 -39zM154 316h205q-1 66 -27.5 103t-73.5 37q-92 0 -104 -140z" />
<glyph unicode="&#x452;" horiz-adv-x="548" d="M440 494.5q41 -43.5 41 -122.5v-257q0 -78 -17.5 -129t-57 -85t-108.5 -61l-39 93q64 25 86 67t22 118v238q0 77 -84 77q-58 0 -101 -40v-393h-114v613h-60v72h60v85h114v-85h192v-72h-192v-136q57 61 143 61q74 0 115 -43.5z" />
<glyph unicode="&#x453;" horiz-adv-x="412" d="M72 543h324v-96h-210v-447h-114v543zM179 625l88 159h118v-10l-123 -159h-83v10z" />
<glyph unicode="&#x454;" horiz-adv-x="456" d="M427 34q-28 -21 -69 -33t-83 -12q-113 0 -175.5 72t-62.5 202q0 87 29.5 153t83 102.5t124.5 36.5q39 0 77.5 -12t69.5 -34l-41 -79q-54 29 -104 29t-81 -36.5t-39 -104.5h186v-82h-187q12 -149 130 -149q54 0 105 30z" />
<glyph unicode="&#x455;" horiz-adv-x="439" d="M108 3q-48 14 -85 39l38 87q76 -45 148 -45q88 0 88 67q0 26 -14.5 42t-47.5 24l-71 17q-69 17 -101 52.5t-32 98.5q0 80 50 124.5t141 44.5q46 0 91 -12t80 -33l-42 -90q-74 36 -131 36q-80 0 -80 -59q0 -24 15 -39t48 -23l71 -17q69 -17 101 -53t32 -100 q0 -83 -52 -129t-146 -46q-53 0 -101 14z" />
<glyph unicode="&#x456;" horiz-adv-x="262" d="M81 640.5q-18 18.5 -18 50.5q0 33 18 51.5t50 18.5t50 -18.5t18 -50.5q0 -34 -18 -52t-50 -18t-50 18.5zM188 543v-543h-114v543h114z" />
<glyph unicode="&#x457;" horiz-adv-x="262" d="M11.5 636.5q-16.5 17.5 -16.5 46.5q0 31 16 48t45 17q30 0 46 -17t16 -47q0 -31 -16 -48t-46 -17q-28 0 -44.5 17.5zM161.5 636.5q-16.5 17.5 -16.5 46.5q0 31 16 48t45 17t45.5 -17t16.5 -47q0 -31 -16.5 -48t-45.5 -17q-28 0 -44.5 17.5zM188 543v-543h-114v543h114z " />
<glyph unicode="&#x458;" horiz-adv-x="262" d="M81 640.5q-18 18.5 -18 50.5q0 33 18 51.5t50 18.5t50 -18.5t18 -50.5q0 -34 -18 -52t-50 -18t-50 18.5zM23 -87.5q28 20.5 39.5 51t11.5 80.5v499h114v-502q0 -74 -19 -121t-63.5 -79.5t-126.5 -61.5l-37 93q53 20 81 40.5z" />
<glyph unicode="&#x459;" horiz-adv-x="785" d="M363 447h-113l-15 -195q-6 -77 -21.5 -123.5t-49 -79.5t-96.5 -65l-49 93q39 21 59.5 44.5t30 56t13.5 87.5l20 278h335v-177h70q94 0 148.5 -42.5t54.5 -135.5q0 -62 -28 -104.5t-74 -63t-101 -20.5h-184v447zM477 94h65q44 0 67.5 24t23.5 72q0 45 -22.5 67.5 t-63.5 22.5h-70v-186z" />
<glyph unicode="&#x45a;" horiz-adv-x="789" d="M754 179q0 -90 -58 -134.5t-146 -44.5h-185v251h-179v-251h-114v543h114v-196h179v196h114v-196h71q204 0 204 -168zM637 181q0 80 -87 80h-71v-167h66q92 0 92 87z" />
<glyph unicode="&#x45b;" horiz-adv-x="548" d="M440 494.5q41 -43.5 41 -122.5v-372h-114v356q0 77 -84 77q-58 0 -101 -40v-393h-114v613h-60v72h60v85h114v-85h192v-72h-192v-136q57 61 143 61q74 0 115 -43.5z" />
<glyph unicode="&#x45c;" horiz-adv-x="533" d="M388 0l-134 230l-15 -8l-53 -27v-195h-114v543h114v-239l15 8q58 28 86.5 51.5t46 63.5t31.5 116h118q-20 -108 -50.5 -164.5t-81.5 -93.5l166 -285h-129zM216 625l88 159h118v-10l-123 -159h-83v10z" />
<glyph unicode="&#x45d;" horiz-adv-x="572" d="M186 190l205 353h110v-543h-115v353l-205 -353h-109v543h114v-353zM149 774v10h118l81 -159v-10h-83z" />
<glyph unicode="&#x45e;" horiz-adv-x="483" d="M219 -125.5q-61 -57.5 -165 -93.5l-38 96q66 24 105 52t62 65l-169 549h117l112 -421l110 421h116l-162 -523q-27 -88 -88 -145.5zM127 654.5q-45 37.5 -52 113.5h68q17 -68 100 -68q43 0 68 18t33 50h65q-8 -76 -52.5 -113.5t-114.5 -37.5t-115 37.5z" />
<glyph unicode="&#x45f;" horiz-adv-x="579" d="M507 543v-543h-162l-16 -153h-77l-15 153h-165v543h120v-447h195v447h120z" />
<glyph unicode="&#x48a;" horiz-adv-x="711" d="M234 824.5q-45 37.5 -52 113.5h68q17 -68 100 -68q43 0 68 18t33 50h65q-8 -76 -52.5 -113.5t-114.5 -37.5t-115 37.5zM688 101v-10l-93 -244h-85v10l28 143h-53v520l-296 -520h-112v724h116v-519l296 519h112v-623h87z" />
<glyph unicode="&#x48b;" horiz-adv-x="611" d="M180.5 654.5q-44.5 37.5 -52.5 113.5h68q17 -68 100 -68q84 0 101 68h65q-8 -76 -52.5 -113.5t-114.5 -37.5t-114.5 37.5zM588 96v-10l-89 -239h-82v10l30 143h-61v353l-205 -353h-109v543h114v-353l205 353h110v-447h87z" />
<glyph unicode="&#x48c;" horiz-adv-x="595" d="M493 397q62 -59 62 -170q0 -107 -63 -167t-170 -60h-240v549h-60v89h60v86h117v-86h161v-89h-161v-93h118q114 0 176 -59zM403.5 134.5q31.5 32.5 31.5 94.5q0 61 -29.5 92.5t-83.5 31.5h-123v-251h117q56 0 87.5 32.5z" />
<glyph unicode="&#x48d;" horiz-adv-x="516" d="M427 313.5q55 -41.5 55 -130.5q0 -60 -28 -101.5t-74.5 -61.5t-101.5 -20h-190v417h-62v71h62v55h114v-55h125v-71h-125v-62h76q94 0 149 -41.5zM341 117q24 23 24 68q0 42 -23 63t-64 21h-76v-175h71q44 0 68 23z" />
<glyph unicode="&#x48e;" horiz-adv-x="558" d="M511 333.5q-38 -59.5 -108 -81.5l27 -115l-77 -19l-28 122h-5h-127v-240h-116v724h248q106 0 165 -63.5t59 -177.5q0 -90 -38 -149.5zM429 480q0 70 -27.5 106t-81.5 36h-127v-280h108l-25 104l77 20l26 -111q50 30 50 125z" />
<glyph unicode="&#x48f;" horiz-adv-x="540" d="M469 97q-31 -69 -89 -95l27 -95l-66 -20l-29 101h-2q-38 0 -70 14t-54 41v-250h-114v750h100v-75q50 87 142 87q88 0 137 -74.5t49 -209.5q0 -105 -31 -174zM383 267q0 182 -105 182q-51 0 -92 -48v-264q19 -22 44.5 -34.5t52.5 -13.5l-29 98l66 19l26 -89q37 43 37 150z " />
<glyph unicode="&#x490;" horiz-adv-x="484" d="M77 724h291l18 151h87v-254h-280v-621h-116v724z" />
<glyph unicode="&#x491;" horiz-adv-x="410" d="M72 543h221l17 167h83v-266h-211v-444h-110v543z" />
<glyph unicode="&#x492;" horiz-adv-x="488" d="M193 621v-210h160v-90h-160v-321h-116v321h-61v90h61v313h399v-103h-283z" />
<glyph unicode="&#x493;" horiz-adv-x="427" d="M201 447v-150h125v-71h-125v-226h-114v226h-61v71h61v246h324v-96h-210z" />
<glyph unicode="&#x494;" horiz-adv-x="620" d="M491.5 384q89.5 -61 89.5 -208v-16q0 -126 -54 -201t-170 -119l-41 101q78 32 113.5 80.5t35.5 138.5v9q0 70 -28.5 108.5t-79.5 53t-130 14.5h-34v-345h-116v724h400v-103h-284v-176h51q158 0 247.5 -61z" />
<glyph unicode="&#x495;" horiz-adv-x="521" d="M412 256.5q73 -45.5 73 -161.5v-13q0 -91 -42 -148t-133 -94l-40 93q57 24 79 59.5t22 90.5v9q0 68 -45 93.5t-125 25.5h-15v-211h-114v543h324v-96h-210v-145h31q122 0 195 -45.5z" />
<glyph unicode="&#x496;" horiz-adv-x="953" d="M926 97v-250h-83l-18 153h-43l-171 317q-9 -4 -17 -7.5t-15 -6.5l-56 -26v-277h-115v277l-56 26l-32 15l-173 -318h-129l206 371q-45 32 -75 75t-52.5 109t-41.5 169h115q21 -114 44 -171.5t59.5 -89t110.5 -66.5l24 -12v339h115v-339l24 12q74 35 110.5 66.5t59.5 89 t44 171.5h115q-19 -103 -41 -168.5t-52 -108.5t-75 -75l150 -275h68z" />
<glyph unicode="&#x497;" horiz-adv-x="781" d="M754 99v-252h-86l-19 153h-29l-123 229l-13 -6l-46 -18v-205h-112v205l-48 18l-13 6l-123 -229h-126l154 279q-46 35 -72.5 93.5t-46.5 170.5h113q15 -80 30 -121.5t43 -68t81 -46.5l8 -3v239h112v-239l6 3q54 20 81.5 46.5t42.5 68t30 121.5h113q-21 -113 -46.5 -171 t-72.5 -93l99 -180h63z" />
<glyph unicode="&#x498;" horiz-adv-x="526" d="M440 64.5q-57 -55.5 -151 -71.5l-12 -146h-84l-13 142q-98 7 -175 54l42 91q83 -43 166 -43q77 0 120.5 32.5t43.5 92.5q0 59 -36 84t-100 25h-116v96h108q58 0 88 28.5t30 77.5q0 54 -35.5 81.5t-96.5 27.5q-75 0 -150 -39l-38 88q47 26 94 38.5t102 12.5q109 0 176 -49 t67 -144q0 -114 -105 -160q132 -40 132 -171q0 -92 -57 -147.5z" />
<glyph unicode="&#x499;" horiz-adv-x="442" d="M365.5 50.5q-41.5 -42.5 -113.5 -55.5l-15 -148h-77l-15 143q-83 7 -137 40l41 88q61 -32 126 -32q53 0 84 20.5t31 60.5q0 38 -26 53.5t-78 15.5h-85v82h82q40 0 63.5 17.5t23.5 51.5q0 36 -25.5 54.5t-70.5 18.5q-28 0 -53.5 -8t-56.5 -23l-33 87q76 39 162 39 q83 0 138.5 -36.5t55.5 -113.5q0 -40 -21 -69.5t-58 -46.5q45 -14 72 -45.5t27 -83.5q0 -67 -41.5 -109.5z" />
<glyph unicode="&#x49a;" horiz-adv-x="643" d="M616 101v-254h-86l-19 153h-36l-182 315l-29 -15l-71 -36v-264h-116v724h116v-345l39 21q78 42 115.5 73t62.5 87t44 164h119q-18 -102 -42 -167t-57 -107.5t-83 -76.5l158 -272h67z" />
<glyph unicode="&#x49b;" horiz-adv-x="549" d="M522 96v-249h-83l-18 153h-33l-134 230l-15 -8l-53 -27v-195h-114v543h114v-239l15 8q58 28 86.5 51.5t46 63.5t31.5 116h118q-20 -108 -50.5 -164.5t-81.5 -93.5l110 -189h61z" />
<glyph unicode="&#x49c;" horiz-adv-x="626" d="M333 282v-157h-82v173l-58 -29v-269h-116v724h116v-351l58 31v188h80v-142q54 46 80.5 104.5t46.5 169.5h115q-26 -139 -66.5 -214.5t-109.5 -126.5l211 -383h-133z" />
<glyph unicode="&#x49d;" horiz-adv-x="533" d="M290 210v-129h-64v139l-40 -21v-199h-114v543h114v-250l40 20v140h63v-103q32 27 51.5 73t31.5 120h111q-20 -103 -49.5 -159t-77.5 -93l161 -291h-123z" />
<glyph unicode="&#x49e;" horiz-adv-x="631" d="M480 0l-182 315l-30 -15l-70 -36v-264h-116v548h-60v89h60v87h116v-87h115v-89h-115v-169l39 21q78 42 115.5 73t62.5 87t44 164h119q-18 -102 -42 -167t-57 -107.5t-83 -76.5l217 -373h-133z" />
<glyph unicode="&#x49f;" horiz-adv-x="549" d="M404 0l-134 230l-15 -8l-53 -27v-195h-114v417h-62v71h62v55h114v-55h79v-71h-79v-113l15 8q58 28 86.5 51.5t46 63.5t31.5 116h117q-20 -107 -50 -164t-81 -94l166 -285h-129z" />
<glyph unicode="&#x4a0;" horiz-adv-x="736" d="M586 0l-183 315l-29 -15l-71 -36v-264h-116v621h-172v103h242h46v-345l39 21q78 42 115.5 73t62.5 87t44 164h119q-18 -102 -42 -167t-57 -107.5t-83 -76.5l217 -373h-132z" />
<glyph unicode="&#x4a1;" horiz-adv-x="615" d="M471 0l-135 230l-15 -8l-53 -27v-195h-114v447h-139v96h204h49v-239l15 8q58 28 86.5 51.5t46 63.5t31.5 116h118q-20 -108 -50.5 -164.5t-81.5 -93.5l166 -285h-128z" />
<glyph unicode="&#x4a2;" horiz-adv-x="688" d="M659 101v-254h-86l-19 153h-88v317h-273v-317h-116v724h116v-305h273v305h116v-623h77z" />
<glyph unicode="&#x4a3;" horiz-adv-x="589" d="M560 96v-249h-82l-18 153h-89v233h-185v-233h-114v543h114v-214h185v214h114v-447h75z" />
<glyph unicode="&#x4a4;" horiz-adv-x="862" d="M458 0v317h-265v-317h-116v724h116v-305h265v305h393v-103h-277v-621h-116z" />
<glyph unicode="&#x4a5;" horiz-adv-x="701" d="M366 0v233h-180v-233h-114v543h114v-214h180v214h319v-96h-205v-447h-114z" />
<glyph unicode="&#x4a6;" horiz-adv-x="1001" d="M872.5 384q89.5 -61 89.5 -208v-16q0 -126 -54 -201t-170 -119l-42 101q78 32 114 80.5t36 138.5v9q0 70 -28.5 108.5t-79.5 53t-130 14.5h-34v-345h-116v621h-265v-621h-116v724h497v-279h51q158 0 247.5 -61z" />
<glyph unicode="&#x4a7;" horiz-adv-x="824" d="M714.5 288q73.5 -49 73.5 -176v-13q0 -96 -45 -158.5t-140 -100.5l-40 93q61 24 86 65.5t25 101.5v9q0 81 -45.5 109t-129.5 28h-17v-246h-114v447h-182v-447h-114v543h410v-206h32q127 0 200.5 -49z" />
<glyph unicode="&#x4a8;" horiz-adv-x="805" d="M741 -54q-144 27 -232 67q-62 -25 -129 -25q-107 0 -182 48t-113 134.5t-38 200.5q0 119 33.5 201t112.5 162l78 -67q-58 -68 -84 -134t-26 -157q0 -136 57.5 -214.5t164.5 -78.5h16q-59 55 -87.5 135.5t-28.5 196.5q0 94 25 167t73 113.5t116 40.5q74 0 129 -39.5 t84.5 -113.5t29.5 -175q0 -98 -32.5 -182.5t-92.5 -142.5q61 -20 148 -37zM421.5 238.5q31.5 -68.5 99.5 -111.5q50 39 77.5 109.5t27.5 168.5q0 107 -34 168t-95 61q-53 0 -80 -59t-27 -160q0 -108 31.5 -176.5z" />
<glyph unicode="&#x4a9;" horiz-adv-x="662" d="M608 -58q-129 25 -204 60q-45 -14 -91 -14q-83 0 -144.5 36.5t-94.5 101.5t-33 149q0 88 22.5 151t80.5 129l81 -59q-37 -49 -54 -99.5t-17 -117.5q0 -89 37 -141.5t111 -57.5q-34 41 -49.5 97t-15.5 133q0 107 45.5 176t134.5 69t141.5 -64.5t52.5 -183.5 q0 -71 -26 -133t-72 -106q43 -14 114 -28zM349 310q0 -77 16 -123.5t57 -76.5q38 28 58 77.5t20 117.5q0 70 -21.5 110.5t-60.5 40.5q-69 0 -69 -146z" />
<glyph unicode="&#x4aa;" horiz-adv-x="562" d="M470 7.5q-40 -13.5 -89 -17.5l-12 -143h-84l-14 150q-112 23 -173 113.5t-61 236.5q0 119 37.5 206.5t107 135t163.5 47.5q51 0 99.5 -14.5t85.5 -40.5l-37 -88q-80 39 -149 39q-89 0 -138 -72.5t-49 -203.5q0 -262 199 -262q75 0 142 35l38 -86q-26 -22 -66 -35.5z" />
<glyph unicode="&#x4ab;" horiz-adv-x="456" d="M322 -10l-15 -143h-77l-15 152q-79 22 -121.5 90t-42.5 174q0 87 29.5 153t83 102.5t123.5 36.5q40 0 79 -12.5t69 -35.5l-42 -86q-62 31 -108 31q-56 0 -86.5 -47.5t-30.5 -133.5q0 -179 129 -179q52 0 106 31l38 -86q-47 -39 -119 -47z" />
<glyph unicode="&#x4ac;" horiz-adv-x="491" d="M303 621v-520h78v-254h-86l-19 153h-89v621h-172v103h460v-103h-172z" />
<glyph unicode="&#x4ad;" horiz-adv-x="420" d="M265 447v-351h76v-249h-82l-18 153h-87v447h-139v96h390v-96h-140z" />
<glyph unicode="&#x4ae;" horiz-adv-x="551" d="M216 245l-203 479h125l138 -351l137 351h124l-205 -479v-245h-116v245z" />
<glyph unicode="&#x4af;" horiz-adv-x="516" d="M200 47l-186 496h119l125 -368l127 368h117l-188 -496v-254h-114v254z" />
<glyph unicode="&#x4b0;" horiz-adv-x="551" d="M332 230h126v-89h-126v-141h-116v141h-125v89h125v15l-203 479h125l138 -351l137 351h124l-205 -479v-15z" />
<glyph unicode="&#x4b1;" horiz-adv-x="516" d="M314 39h105v-72h-105v-174h-114v174h-106v72h106v8l-186 496h119l125 -368l127 368h117l-188 -496v-8z" />
<glyph unicode="&#x4b2;" horiz-adv-x="601" d="M574 101v-254h-87l-18 153h-51l-140 269l-135 -269h-129l201 367l-194 357h131l132 -260l132 260h129l-199 -357l147 -266h81z" />
<glyph unicode="&#x4b3;" horiz-adv-x="506" d="M479 96v-249h-83l-18 153h-49l-100 187l-97 -187h-123l161 276l-154 267h125l93 -178l95 178h124l-160 -266l106 -181h80z" />
<glyph unicode="&#x4b4;" horiz-adv-x="780" d="M751 101v-254h-86l-19 153h-473v621h-158v103h274h157v-103h-157v-520h269v623h116v-623h77z" />
<glyph unicode="&#x4b5;" horiz-adv-x="651" d="M622 96v-249h-83l-18 153h-394v447h-112v96h226h112v-96h-112v-351h191v447h114v-447h76z" />
<glyph unicode="&#x4b6;" horiz-adv-x="663" d="M634 101v-254h-86l-19 153h-88v308q-81 -35 -161 -35q-107 0 -163.5 64.5t-56.5 180.5v206h116v-188q0 -85 28 -123t97 -38q67 0 140 33v316h116v-623h77z" />
<glyph unicode="&#x4b7;" horiz-adv-x="568" d="M539 96v-249h-83l-18 153h-90v216q-62 -25 -124 -25q-81 0 -125 47.5t-44 137.5v167h115v-138q0 -58 19.5 -87t67.5 -29q45 0 91 20v234h115v-447h76z" />
<glyph unicode="&#x4b8;" horiz-adv-x="634" d="M557 724v-724h-116v309q-48 -20 -87 -28v-140h-90v133q-99 5 -151.5 69.5t-52.5 176.5v204h116v-189q0 -72 20 -110t68 -48v148h90v-147q38 7 87 28v318h116z" />
<glyph unicode="&#x4b9;" horiz-adv-x="535" d="M463 543v-543h-113v220q-30 -12 -55 -17v-107h-70v99h-1q-81 0 -125 47.5t-44 137.5v163h114v-139q0 -52 10.5 -78.5t45.5 -34.5v128h70v-127q23 4 55 16v235h113z" />
<glyph unicode="&#x4ba;" horiz-adv-x="617" d="M496.5 419q52.5 -58 52.5 -170v-249h-116v226q0 78 -28.5 113t-88.5 35q-56 0 -123 -28v-346h-116v724h116v-279q78 32 150 32q101 0 153.5 -58z" />
<glyph unicode="&#x4bb;" horiz-adv-x="550" d="M186 770v-276q58 61 142 61q73 0 114 -44t41 -123v-388h-114v373q0 76 -83 76q-56 0 -100 -40v-409h-114v770h114z" />
<glyph unicode="&#x4bc;" horiz-adv-x="765" d="M726 320h-436q8 -107 55.5 -164.5t134.5 -57.5q91 0 178 46l42 -91q-45 -31 -103.5 -47.5t-119.5 -16.5q-136 0 -215 86.5t-89 244.5h-13q-73 0 -112.5 37t-39.5 105q0 55 29 111l88 -31q-6 -12 -9.5 -28.5t-3.5 -30.5q0 -61 60 -61h2q13 149 86.5 231t194.5 82 q132 0 204.5 -90.5t72.5 -253.5q0 -48 -6 -71zM613 422q-4 99 -45 153.5t-115 54.5q-72 0 -113 -52.5t-49 -155.5h322z" />
<glyph unicode="&#x4bd;" horiz-adv-x="612" d="M573 236h-315q13 -145 135 -145q63 0 124 35l40 -84q-35 -25 -80.5 -39t-94.5 -14q-106 0 -167.5 64.5t-69.5 182.5h-11q-61 0 -93.5 29t-32.5 84q0 23 6 46t16 41l79 -29q-10 -20 -10 -43t10.5 -35t35.5 -13q10 114 67 176.5t153 62.5q101 0 157 -68.5t56 -192.5 q0 -30 -5 -58zM464 316q-1 66 -27.5 103t-73.5 37q-92 0 -104 -140h205z" />
<glyph unicode="&#x4be;" horiz-adv-x="765" d="M726 320h-436q8 -107 55.5 -164.5t134.5 -57.5q91 0 178 46l42 -91q-73 -51 -179 -62l-13 -144h-83l-14 148q-107 20 -168.5 104t-69.5 221h-13q-73 0 -112.5 37t-39.5 105q0 55 29 111l88 -31q-6 -12 -9.5 -28.5t-3.5 -30.5q0 -61 60 -61h2q13 149 86.5 231t194.5 82 q132 0 204.5 -90.5t72.5 -253.5q0 -48 -6 -71zM613 422q-4 99 -45 153.5t-115 54.5q-72 0 -113 -52.5t-49 -155.5h322z" />
<glyph unicode="&#x4bf;" horiz-adv-x="612" d="M573 236h-315q13 -145 135 -145q63 0 124 35l40 -84q-56 -41 -134 -50l-15 -145h-77l-15 149q-77 19 -120.5 80.5t-50.5 159.5h-11q-61 0 -93.5 29t-32.5 84q0 23 6 46t16 41l79 -29q-10 -20 -10 -43t10.5 -35t35.5 -13q10 114 67 176.5t153 62.5q101 0 157 -68.5 t56 -192.5q0 -30 -5 -58zM464 316q-1 66 -27.5 103t-73.5 37q-92 0 -104 -140h205z" />
<glyph unicode="&#x4c0;" horiz-adv-x="274" d="M195 724v-724h-116v724h116z" />
<glyph unicode="&#x4c1;" horiz-adv-x="929" d="M782 0l-171 317q-9 -4 -17 -7.5t-15 -6.5l-56 -26v-277h-115v277l-56 26l-32 15l-173 -318h-129l206 371q-45 32 -75 75t-52.5 109t-41.5 169h115q21 -114 44 -171.5t59.5 -89t110.5 -66.5l24 -12v339h115v-339l24 12q74 35 110.5 66.5t59.5 89t44 171.5h115 q-19 -103 -41 -168.5t-52 -108.5t-75 -75l203 -372h-129zM354 824.5q-45 37.5 -52 113.5h68q17 -68 100 -68q43 0 68 18t33 50h65q-8 -76 -52.5 -113.5t-114.5 -37.5t-115 37.5z" />
<glyph unicode="&#x4c2;" horiz-adv-x="762" d="M620 0l-123 229l-13 -6l-46 -18v-205h-112v205l-48 18l-13 6l-123 -229h-126l154 279q-46 35 -72.5 93.5t-46.5 170.5h113q15 -80 30 -121.5t43 -68t81 -46.5l8 -3v239h112v-239l6 3q54 20 81.5 46.5t42.5 68t30 121.5h113q-21 -113 -46.5 -171t-72.5 -93l154 -279h-126z M269 654.5q-45 37.5 -52 113.5h68q17 -68 100 -68q43 0 68 18t33 50h65q-8 -76 -52.5 -113.5t-114.5 -37.5t-115 37.5z" />
<glyph unicode="&#x4c3;" horiz-adv-x="626" d="M583 -1q0 -53 -30 -91.5t-101 -67.5l-41 98q30 13 42 28.5t12 39.5q0 21 -17 49l-154 261q-10 -6 -30 -16l-71 -36v-264h-116v724h116v-345l39 21q78 42 115.5 73t62.5 87t44 164h119q-18 -101 -42 -166t-57 -108t-82 -77l156 -263q35 -57 35 -111z" />
<glyph unicode="&#x4c4;" horiz-adv-x="533" d="M488.5 46q9.5 -25 9.5 -52q0 -54 -28 -89.5t-97 -64.5l-39 91q27 12 38.5 26.5t11.5 35.5q0 22 -17 50l-112 187l-16 -8l-53 -27v-195h-114v543h114v-239l15 8q58 28 86.5 51.5t46 63.5t31.5 116h118q-20 -107 -50 -163.5t-81 -93.5l110 -184q17 -31 26.5 -56z" />
<glyph unicode="&#x4c5;" horiz-adv-x="699" d="M677 101v-10l-93 -244h-85v10l28 143h-56v621h-179l-19 -284q-7 -101 -26 -163.5t-60.5 -106.5t-116.5 -83l-54 102q52 29 79.5 59.5t40.5 76t19 125.5l26 377h406v-623h90z" />
<glyph unicode="&#x4c6;" horiz-adv-x="595" d="M572 96v-10l-90 -239h-81v10l30 143h-63v447h-118l-15 -195q-6 -76 -21.5 -122.5t-49 -80.5t-96.5 -65l-49 93q39 21 59.5 44.5t30 56t13.5 87.5l20 278h341v-447h89z" />
<glyph unicode="&#x4c7;" horiz-adv-x="659" d="M566.5 -30q-15.5 -45 -50.5 -74t-99 -56l-42 100q39 16 58.5 37t26 47.5t6.5 66.5v226h-273v-317h-116v724h116v-305h273v305h116v-635q0 -74 -15.5 -119z" />
<glyph unicode="&#x4c8;" horiz-adv-x="556" d="M471.5 -30.5q-13.5 -43.5 -47 -73t-97.5 -56.5l-40 93q37 16 54.5 35t23.5 46t6 75v144h-185v-233h-114v543h114v-214h185v214h114v-456q0 -74 -13.5 -117.5z" />
<glyph unicode="&#x4c9;" horiz-adv-x="694" d="M671 101v-10l-92 -244h-86v10l28 143h-55v317h-273v-317h-116v724h116v-305h273v305h116v-623h89z" />
<glyph unicode="&#x4ca;" horiz-adv-x="597" d="M575 96v-10l-90 -239h-82v10l31 143h-63v233h-185v-233h-114v543h114v-214h185v214h114v-447h90z" />
<glyph unicode="&#x4cb;" horiz-adv-x="634" d="M557 724v-724h-89l-18 -153h-87v254h78v222q-79 -36 -161 -36q-107 0 -163.5 65t-56.5 181v191h116v-173q0 -85 28 -123t97 -38t140 32v302h116z" />
<glyph unicode="&#x4cc;" horiz-adv-x="535" d="M463 543v-543h-90l-18 -153h-82v249h75v146q-62 -25 -124 -25q-81 0 -125 47.5t-44 137.5v141h115v-112q0 -58 19.5 -87.5t67.5 -29.5q41 0 91 20v209h115z" />
<glyph unicode="&#x4cd;" horiz-adv-x="834" d="M811 101v-10l-92 -244h-86v10l28 143h-51v528l-150 -384h-121l-152 384v-528h-110v724h137l186 -475l184 475h138v-623h89z" />
<glyph unicode="&#x4ce;" horiz-adv-x="717" d="M695 96v-10l-90 -239h-82v10l31 143h-57v366l-114 -280h-92l-112 279v-365h-107v543h134l133 -327l134 327h133v-447h89z" />
<glyph unicode="&#x4cf;" horiz-adv-x="258" d="M186 770v-770h-114v770h114z" />
<glyph unicode="&#x4d0;" horiz-adv-x="627" d="M438 170h-251l-48 -170h-122l233 724h127l232 -724h-123zM215 270h195l-99 341zM201 824.5q-45 37.5 -52 113.5h68q17 -68 100 -68q43 0 68 18t33 50h65q-8 -76 -52.5 -113.5t-114.5 -37.5t-115 37.5z" />
<glyph unicode="&#x4d1;" d="M335 76q-47 -86 -152 -86q-73 0 -113.5 42t-40.5 119q0 97 70 142.5t223 46.5v35q0 79 -100 79q-62 0 -119 -28l-28 87q79 42 166 42q92 0 143 -44t51 -123v-388h-100v76zM182 235.5q-44 -24.5 -44 -76.5q0 -73 73 -73q63 0 111 54v121q-96 -1 -140 -25.5zM130 654.5 q-45 37.5 -52 113.5h68q17 -68 100 -68q43 0 68 18t33 50h65q-8 -76 -52.5 -113.5t-114.5 -37.5t-115 37.5z" />
<glyph unicode="&#x4d2;" horiz-adv-x="627" d="M175.5 797.5q-16.5 17.5 -16.5 46.5q0 31 16.5 48.5t45.5 17.5t45.5 -17.5t16.5 -47.5q0 -31 -16.5 -48t-45.5 -17t-45.5 17.5zM356.5 797.5q-16.5 17.5 -16.5 46.5q0 31 16.5 48.5t45.5 17.5t45.5 -17.5t16.5 -47.5q0 -31 -16.5 -48t-45.5 -17t-45.5 17.5zM438 170h-251 l-48 -170h-122l233 724h127l232 -724h-123zM215 270h195l-99 341z" />
<glyph unicode="&#x4d3;" d="M104.5 636.5q-16.5 17.5 -16.5 46.5q0 31 16.5 48.5t45.5 17.5t45.5 -17.5t16.5 -47.5q0 -31 -16.5 -48t-45.5 -17t-45.5 17.5zM284.5 636.5q-16.5 17.5 -16.5 46.5q0 31 16.5 48.5t45.5 17.5t45.5 -17.5t16.5 -47.5q0 -31 -16.5 -48t-45.5 -17t-45.5 17.5zM335 76 q-47 -86 -152 -86q-73 0 -113.5 42t-40.5 119q0 97 70 142.5t223 46.5v35q0 79 -100 79q-62 0 -119 -28l-28 87q79 42 166 42q92 0 143 -44t51 -123v-388h-100v76zM182 235.5q-44 -24.5 -44 -76.5q0 -73 73 -73q63 0 111 54v121q-96 -1 -140 -25.5z" />
<glyph unicode="&#x4d4;" horiz-adv-x="864" d="M835 0h-417v161h-226l-77 -161h-124l352 724h478v-102h-290v-200h210v-103h-210v-217h304v-102zM418 635l-179 -374h179v374z" />
<glyph unicode="&#x4d5;" horiz-adv-x="777" d="M737 236h-310q13 -145 132 -145q61 0 122 35l40 -84q-36 -25 -81 -39t-92 -14q-130 0 -190 101q-40 -52 -82.5 -76t-94.5 -24q-72 0 -112 42t-40 118q0 94 69 138t220 45v42q0 79 -98 79q-61 0 -117 -28l-28 87q36 20 79.5 31t84.5 11q50 0 87 -18.5t58 -53.5 q23 35 61.5 53.5t86.5 18.5q100 0 155 -68.5t55 -192.5q0 -37 -5 -58zM428 316h201q-2 66 -28 103t-72 37q-90 0 -101 -140zM330 158q-12 42 -14 97q-92 -1 -135 -25t-43 -73q0 -71 71 -71q67 0 121 72z" />
<glyph unicode="&#x4d6;" horiz-adv-x="539" d="M77 724h419v-102h-303v-200h223v-103h-223v-217h317v-102h-433v724zM176 824.5q-45 37.5 -52 113.5h68q17 -68 100 -68q43 0 68 18t33 50h65q-8 -76 -52.5 -113.5t-114.5 -37.5t-115 37.5z" />
<glyph unicode="&#x4d7;" horiz-adv-x="508" d="M371.5 3q-45.5 -14 -94.5 -14q-113 0 -175.5 74t-62.5 208q0 135 58 209.5t164 74.5q101 0 156.5 -68.5t55.5 -192.5q0 -30 -5 -58h-314q12 -145 134 -145q63 0 124 35l40 -84q-35 -25 -80.5 -39zM154 316h205q-1 66 -27.5 103t-73.5 37q-92 0 -104 -140zM152 654.5 q-45 37.5 -52 113.5h68q17 -68 100 -68q43 0 68 18t33 50h65q-8 -76 -52.5 -113.5t-114.5 -37.5t-115 37.5z" />
<glyph unicode="&#x4d8;" horiz-adv-x="644" d="M106.5 81q-74.5 92 -74.5 258q0 38 6 68h440q-9 104 -58.5 161.5t-131.5 57.5q-40 0 -86.5 -12t-92.5 -34l-42 91q46 31 104 47.5t118 16.5q146 0 226.5 -98t80.5 -276q0 -177 -73.5 -274.5t-207.5 -97.5t-208.5 92zM478 305h-327q5 -101 48 -156t118 -55q144 0 161 211z " />
<glyph unicode="&#x4d9;" horiz-adv-x="508" d="M90.5 47q-55.5 68 -55.5 193q0 37 5 58h313q-12 145 -133 145q-63 0 -124 -35l-40 84q35 25 80.5 39t94.5 14q113 0 175.5 -74t62.5 -208q0 -135 -58 -209.5t-164 -74.5q-101 0 -156.5 68zM353 218h-205q2 -67 28 -103.5t74 -36.5q91 0 103 140z" />
<glyph unicode="&#x4da;" horiz-adv-x="644" d="M176.5 797.5q-16.5 17.5 -16.5 46.5q0 31 16.5 48.5t45.5 17.5t45.5 -17.5t16.5 -47.5q0 -31 -16.5 -48t-45.5 -17t-45.5 17.5zM357.5 797.5q-16.5 17.5 -16.5 46.5q0 31 16.5 48.5t45.5 17.5t45.5 -17.5t16.5 -47.5q0 -31 -16.5 -48t-45.5 -17t-45.5 17.5zM106.5 81 q-74.5 92 -74.5 258q0 38 6 68h440q-9 104 -58.5 161.5t-131.5 57.5q-40 0 -86.5 -12t-92.5 -34l-42 91q46 31 104 47.5t118 16.5q146 0 226.5 -98t80.5 -276q0 -177 -73.5 -274.5t-207.5 -97.5t-208.5 92zM478 305h-327q5 -101 48 -156t118 -55q144 0 161 211z" />
<glyph unicode="&#x4db;" horiz-adv-x="508" d="M109.5 636.5q-16.5 17.5 -16.5 46.5q0 31 16.5 48.5t45.5 17.5t45.5 -17.5t16.5 -47.5q0 -31 -16.5 -48t-45.5 -17t-45.5 17.5zM289.5 636.5q-16.5 17.5 -16.5 46.5q0 31 16.5 48.5t45.5 17.5t45.5 -17.5t16.5 -47.5q0 -31 -16.5 -48t-45.5 -17t-45.5 17.5zM90.5 47 q-55.5 68 -55.5 193q0 37 5 58h313q-12 145 -133 145q-63 0 -124 -35l-40 84q35 25 80.5 39t94.5 14q113 0 175.5 -74t62.5 -208q0 -135 -58 -209.5t-164 -74.5q-101 0 -156.5 68zM353 218h-205q2 -67 28 -103.5t74 -36.5q91 0 103 140z" />
<glyph unicode="&#x4dc;" horiz-adv-x="929" d="M330.5 797.5q-16.5 17.5 -16.5 46.5q0 31 16.5 48.5t45.5 17.5t45.5 -17.5t16.5 -47.5q0 -31 -16.5 -48t-45.5 -17t-45.5 17.5zM511.5 797.5q-16.5 17.5 -16.5 46.5q0 31 16.5 48.5t45.5 17.5t45.5 -17.5t16.5 -47.5q0 -31 -16.5 -48t-45.5 -17t-45.5 17.5zM782 0 l-171 317q-9 -4 -17 -7.5t-15 -6.5l-56 -26v-277h-115v277l-56 26l-32 15l-173 -318h-129l206 371q-45 32 -75 75t-52.5 109t-41.5 169h115q21 -114 44 -171.5t59.5 -89t110.5 -66.5l24 -12v339h115v-339l24 12q74 35 110.5 66.5t59.5 89t44 171.5h115q-19 -103 -41 -168.5 t-52 -108.5t-75 -75l203 -372h-129z" />
<glyph unicode="&#x4dd;" horiz-adv-x="762" d="M245.5 636.5q-16.5 17.5 -16.5 46.5q0 31 16.5 48.5t45.5 17.5t45.5 -17.5t16.5 -47.5q0 -31 -16.5 -48t-45.5 -17t-45.5 17.5zM425.5 636.5q-16.5 17.5 -16.5 46.5q0 31 16.5 48.5t45.5 17.5t45.5 -17.5t16.5 -47.5q0 -31 -16.5 -48t-45.5 -17t-45.5 17.5zM620 0 l-123 229l-13 -6l-46 -18v-205h-112v205l-48 18l-13 6l-123 -229h-126l154 279q-46 35 -72.5 93.5t-46.5 170.5h113q15 -80 30 -121.5t43 -68t81 -46.5l8 -3v239h112v-239l6 3q54 20 81.5 46.5t42.5 68t30 121.5h113q-21 -113 -46.5 -171t-72.5 -93l154 -279h-126z" />
<glyph unicode="&#x4de;" horiz-adv-x="526" d="M106.5 797.5q-16.5 17.5 -16.5 46.5q0 31 16.5 48.5t45.5 17.5t45.5 -17.5t16.5 -47.5q0 -31 -16.5 -48t-45.5 -17t-45.5 17.5zM287.5 797.5q-16.5 17.5 -16.5 46.5q0 31 16.5 48.5t45.5 17.5t45.5 -17.5t16.5 -47.5q0 -31 -16.5 -48t-45.5 -17t-45.5 17.5zM497 212 q0 -74 -37 -124t-100 -75t-140 -25q-124 0 -215 55l42 91q83 -43 166 -43q77 0 120.5 32.5t43.5 92.5q0 59 -36 84t-100 25h-116v96h108q58 0 88 28.5t30 77.5q0 54 -35.5 81.5t-96.5 27.5q-75 0 -150 -39l-38 88q47 26 94 38.5t102 12.5q109 0 176 -49t67 -144 q0 -114 -105 -160q132 -40 132 -171z" />
<glyph unicode="&#x4df;" horiz-adv-x="442" d="M68.5 636.5q-16.5 17.5 -16.5 46.5q0 31 16.5 48.5t45.5 17.5t45.5 -17.5t16.5 -47.5q0 -31 -16.5 -48t-45.5 -17t-45.5 17.5zM248.5 636.5q-16.5 17.5 -16.5 46.5q0 31 16.5 48.5t45.5 17.5t45.5 -17.5t16.5 -47.5q0 -31 -16.5 -48t-45.5 -17t-45.5 17.5zM380 243.5 q27 -31.5 27 -83.5q0 -82 -61 -126.5t-162 -44.5q-50 0 -96 10t-80 31l41 88q61 -32 126 -32q53 0 84 20.5t31 60.5q0 38 -26 53.5t-78 15.5h-85v82h82q40 0 63.5 17.5t23.5 51.5q0 36 -25.5 54.5t-70.5 18.5q-28 0 -53.5 -8t-56.5 -23l-33 87q76 39 162 39 q83 0 138.5 -36.5t55.5 -113.5q0 -40 -21 -69.5t-58 -46.5q45 -14 72 -45.5z" />
<glyph unicode="&#x4e0;" horiz-adv-x="545" d="M508 225q0 -78 -36.5 -131.5t-99 -79.5t-141.5 -26q-127 0 -223 55l41 91q45 -21 87.5 -32t90.5 -11q76 0 118.5 36t42.5 100q0 69 -50.5 96.5t-147.5 27.5h-40v84l172 188h-277v101h415v-102l-176 -188q224 -22 224 -209z" />
<glyph unicode="&#x4e1;" horiz-adv-x="469" d="M386 164.5q58 -48.5 58 -151.5q0 -75 -34.5 -127.5t-92 -78.5t-127.5 -26q-53 0 -97.5 9t-84.5 32l41 89q68 -33 133 -33q68 0 106.5 35t38.5 102q0 72 -47 101t-129 29h-44v81l169 221h-234v96h357v-96l-174 -224q103 -10 161 -58.5z" />
<glyph unicode="&#x4e2;" horiz-adv-x="678" d="M200 887h298v-78h-298v78zM193 205l296 519h112v-724h-116v520l-296 -520h-112v724h116v-519z" />
<glyph unicode="&#x4e3;" horiz-adv-x="572" d="M186 190l205 353h110v-543h-115v353l-205 -353h-109v543h114v-353zM138 717h298v-78h-298v78z" />
<glyph unicode="&#x4e4;" horiz-adv-x="678" d="M213.5 797.5q-16.5 17.5 -16.5 46.5q0 31 16.5 48.5t45.5 17.5t45.5 -17.5t16.5 -47.5q0 -31 -16.5 -48t-45.5 -17t-45.5 17.5zM394.5 797.5q-16.5 17.5 -16.5 46.5q0 31 16.5 48.5t45.5 17.5t45.5 -17.5t16.5 -47.5q0 -31 -16.5 -48t-45.5 -17t-45.5 17.5zM193 205 l296 519h112v-724h-116v520l-296 -520h-112v724h116v-519z" />
<glyph unicode="&#x4e5;" horiz-adv-x="572" d="M151.5 636.5q-16.5 17.5 -16.5 46.5q0 31 16.5 48.5t45.5 17.5t45.5 -17.5t16.5 -47.5q0 -31 -16.5 -48t-45.5 -17t-45.5 17.5zM331.5 636.5q-16.5 17.5 -16.5 46.5q0 31 16.5 48.5t45.5 17.5t45.5 -17.5t16.5 -47.5q0 -31 -16.5 -48t-45.5 -17t-45.5 17.5zM186 190 l205 353h110v-543h-115v353l-205 -353h-109v543h114v-353z" />
<glyph unicode="&#x4e6;" horiz-adv-x="667" d="M196.5 797.5q-16.5 17.5 -16.5 46.5q0 31 16.5 48.5t45.5 17.5t45.5 -17.5t16.5 -47.5q0 -31 -16.5 -48t-45.5 -17t-45.5 17.5zM377.5 797.5q-16.5 17.5 -16.5 46.5q0 31 16.5 48.5t45.5 17.5t45.5 -17.5t16.5 -47.5q0 -31 -16.5 -48t-45.5 -17t-45.5 17.5zM120.5 82.5 q-73.5 94.5 -73.5 279.5t73.5 279.5t212.5 94.5t212.5 -94.5t73.5 -279.5t-73.5 -279.5t-212.5 -94.5t-212.5 94.5zM499 362q0 272 -166 272t-166 -272t166 -272t166 272z" />
<glyph unicode="&#x4e7;" horiz-adv-x="524" d="M126.5 636.5q-16.5 17.5 -16.5 46.5q0 31 16.5 48.5t45.5 17.5t45.5 -17.5t16.5 -47.5q0 -31 -16.5 -48t-45.5 -17t-45.5 17.5zM306.5 636.5q-16.5 17.5 -16.5 46.5q0 31 16.5 48.5t45.5 17.5t45.5 -17.5t16.5 -47.5q0 -31 -16.5 -48t-45.5 -17t-45.5 17.5zM98 59.5 q-57 71.5 -57 211.5t57 212t164 72q106 0 163.5 -72t57.5 -212q0 -139 -57.5 -211t-164.5 -72q-106 0 -163 71.5zM366 271q0 183 -104 183t-104 -183t103 -183q105 0 105 183z" />
<glyph unicode="&#x4e8;" horiz-adv-x="667" d="M545.5 641.5q73.5 -94.5 73.5 -279.5t-73.5 -279.5t-212.5 -94.5t-212.5 94.5t-73.5 279.5t73.5 279.5t212.5 94.5t212.5 -94.5zM169 417h329q-17 217 -165 217q-147 0 -164 -217zM498 320h-330q14 -230 165 -230q153 0 165 230z" />
<glyph unicode="&#x4e9;" horiz-adv-x="524" d="M425.5 483q57.5 -72 57.5 -212q0 -139 -57.5 -211t-164.5 -72q-106 0 -163 71.5t-57 211.5t57 212t164 72q106 0 163.5 -72zM157 316h209q-12 140 -104 140q-93 0 -105 -140zM367 232h-210q11 -146 104 -146q95 0 106 146z" />
<glyph unicode="&#x4ea;" horiz-adv-x="667" d="M196.5 797.5q-16.5 17.5 -16.5 46.5q0 31 16.5 48.5t45.5 17.5t45.5 -17.5t16.5 -47.5q0 -31 -16.5 -48t-45.5 -17t-45.5 17.5zM377.5 797.5q-16.5 17.5 -16.5 46.5q0 31 16.5 48.5t45.5 17.5t45.5 -17.5t16.5 -47.5q0 -31 -16.5 -48t-45.5 -17t-45.5 17.5zM545.5 641.5 q73.5 -94.5 73.5 -279.5t-73.5 -279.5t-212.5 -94.5t-212.5 94.5t-73.5 279.5t73.5 279.5t212.5 94.5t212.5 -94.5zM169 417h329q-17 217 -165 217q-147 0 -164 -217zM498 320h-330q14 -230 165 -230q153 0 165 230z" />
<glyph unicode="&#x4eb;" horiz-adv-x="524" d="M124.5 636.5q-16.5 17.5 -16.5 46.5q0 31 16.5 48.5t45.5 17.5t45.5 -17.5t16.5 -47.5q0 -31 -16.5 -48t-45.5 -17t-45.5 17.5zM304.5 636.5q-16.5 17.5 -16.5 46.5q0 31 16.5 48.5t45.5 17.5t45.5 -17.5t16.5 -47.5q0 -31 -16.5 -48t-45.5 -17t-45.5 17.5zM425.5 483 q57.5 -72 57.5 -212q0 -139 -57.5 -211t-164.5 -72q-106 0 -163 71.5t-57 211.5t57 212t164 72q106 0 163.5 -72zM157 316h209q-12 140 -104 140q-93 0 -105 -140zM367 232h-210q11 -146 104 -146q95 0 106 146z" />
<glyph unicode="&#x4ec;" horiz-adv-x="563" d="M112.5 797.5q-16.5 17.5 -16.5 46.5q0 31 16.5 48.5t45.5 17.5t45.5 -17.5t16.5 -47.5q0 -31 -16.5 -48t-45.5 -17t-45.5 17.5zM293.5 797.5q-16.5 17.5 -16.5 46.5q0 31 16.5 48.5t45.5 17.5t45.5 -17.5t16.5 -47.5q0 -31 -16.5 -48t-45.5 -17t-45.5 17.5zM444.5 641 q81.5 -95 81.5 -271q0 -116 -37.5 -202t-108.5 -132.5t-169 -46.5q-58 0 -106.5 14t-79.5 40l39 86q68 -35 141 -35q87 0 137.5 58.5t60.5 166.5h-266v103h267q-9 105 -56 157.5t-130 52.5q-71 0 -149 -38l-38 87q39 27 87 41t101 14q144 0 225.5 -95z" />
<glyph unicode="&#x4ed;" horiz-adv-x="459" d="M73.5 636.5q-16.5 17.5 -16.5 46.5q0 31 16.5 48.5t45.5 17.5t45.5 -17.5t16.5 -47.5q0 -31 -16.5 -48t-45.5 -17t-45.5 17.5zM253.5 636.5q-16.5 17.5 -16.5 46.5q0 31 16.5 48.5t45.5 17.5t45.5 -17.5t16.5 -47.5q0 -31 -16.5 -48t-45.5 -17t-45.5 17.5zM359.5 481.5 q62.5 -73.5 62.5 -205.5q0 -86 -29.5 -151t-84 -100.5t-127.5 -35.5q-94 0 -152 47l38 81q45 -30 102 -30q58 0 92 37.5t42 111.5h-188v82h189q-13 141 -128 141q-47 0 -100 -30l-39 79q30 22 69.5 34.5t80.5 12.5q110 0 172.5 -73.5z" />
<glyph unicode="&#x4ee;" horiz-adv-x="593" d="M460 809h-298v78h298v-78zM575 724l-173 -463q-36 -96 -72 -149t-83.5 -81.5t-125.5 -47.5l-30 101q66 19 104.5 43.5t66.5 70.5l-244 526h126l174 -399l145 399h112z" />
<glyph unicode="&#x4ef;" horiz-adv-x="483" d="M219 -125.5q-61 -57.5 -165 -93.5l-38 96q66 24 105 52t62 65l-169 549h117l112 -421l110 421h116l-162 -523q-27 -88 -88 -145.5zM94 717h298v-78h-298v78z" />
<glyph unicode="&#x4f0;" horiz-adv-x="593" d="M175.5 797.5q-16.5 17.5 -16.5 46.5q0 31 16.5 48.5t45.5 17.5t45.5 -17.5t16.5 -47.5q0 -31 -16.5 -48t-45.5 -17t-45.5 17.5zM356.5 797.5q-16.5 17.5 -16.5 46.5q0 31 16.5 48.5t45.5 17.5t45.5 -17.5t16.5 -47.5q0 -31 -16.5 -48t-45.5 -17t-45.5 17.5zM575 724 l-173 -463q-36 -96 -72 -149t-83.5 -81.5t-125.5 -47.5l-30 101q66 19 104.5 43.5t66.5 70.5l-244 526h126l174 -399l145 399h112z" />
<glyph unicode="&#x4f1;" horiz-adv-x="483" d="M107.5 636.5q-16.5 17.5 -16.5 46.5q0 31 16.5 48.5t45.5 17.5t45.5 -17.5t16.5 -47.5q0 -31 -16.5 -48t-45.5 -17t-45.5 17.5zM287.5 636.5q-16.5 17.5 -16.5 46.5q0 31 16.5 48.5t45.5 17.5t45.5 -17.5t16.5 -47.5q0 -31 -16.5 -48t-45.5 -17t-45.5 17.5zM219 -125.5 q-61 -57.5 -165 -93.5l-38 96q66 24 105 52t62 65l-169 549h117l112 -421l110 421h116l-162 -523q-27 -88 -88 -145.5z" />
<glyph unicode="&#x4f2;" horiz-adv-x="593" d="M252 781h-73v12l87 133h106v-12zM338 793l88 133h108v-12l-122 -133h-74v12zM575 724l-173 -463q-36 -96 -72 -149t-83.5 -81.5t-125.5 -47.5l-30 101q66 19 104.5 43.5t66.5 70.5l-244 526h126l174 -399l145 399h112z" />
<glyph unicode="&#x4f3;" horiz-adv-x="483" d="M219 -125.5q-61 -57.5 -165 -93.5l-38 96q66 24 105 52t62 65l-169 549h117l112 -421l110 421h116l-162 -523q-27 -88 -88 -145.5zM123 625l52 159h102v-10l-86 -159h-68v10zM270 625l53 159h101v-10l-86 -159h-68v10z" />
<glyph unicode="&#x4f4;" horiz-adv-x="634" d="M180.5 797.5q-16.5 17.5 -16.5 46.5q0 31 16.5 48.5t45.5 17.5t45.5 -17.5t16.5 -47.5q0 -31 -16.5 -48t-45.5 -17t-45.5 17.5zM361.5 797.5q-16.5 17.5 -16.5 46.5q0 31 16.5 48.5t45.5 17.5t45.5 -17.5t16.5 -47.5q0 -31 -16.5 -48t-45.5 -17t-45.5 17.5zM557 724v-724 h-116v308q-81 -35 -161 -35q-107 0 -163.5 64.5t-56.5 180.5v206h116v-188q0 -85 28 -123t97 -38q67 0 140 33v316h116z" />
<glyph unicode="&#x4f5;" horiz-adv-x="535" d="M128.5 635.5q-16.5 17.5 -16.5 46.5q0 31 16.5 48.5t45.5 17.5t45.5 -17.5t16.5 -47.5q0 -31 -16.5 -48t-45.5 -17t-45.5 17.5zM308.5 635.5q-16.5 17.5 -16.5 46.5q0 31 16.5 48.5t45.5 17.5t45.5 -17.5t16.5 -47.5q0 -31 -16.5 -48t-45.5 -17t-45.5 17.5zM463 543v-543 h-115v216q-62 -25 -124 -25q-81 0 -125 47.5t-44 137.5v167h115v-138q0 -58 19.5 -87t67.5 -29q45 0 91 20v234h115z" />
<glyph unicode="&#x4f6;" horiz-adv-x="485" d="M193 621v-520h78v-254h-87l-18 153h-89v724h400v-103h-284z" />
<glyph unicode="&#x4f7;" horiz-adv-x="412" d="M186 447v-351h76v-249h-83l-18 153h-89v543h324v-96h-210z" />
<glyph unicode="&#x4f8;" horiz-adv-x="823" d="M283.5 797.5q-16.5 17.5 -16.5 46.5q0 31 16.5 48.5t45.5 17.5t45.5 -17.5t16.5 -47.5q0 -31 -16.5 -48t-45.5 -17t-45.5 17.5zM464.5 797.5q-16.5 17.5 -16.5 46.5q0 31 16.5 48.5t45.5 17.5t45.5 -17.5t16.5 -47.5q0 -31 -16.5 -48t-45.5 -17t-45.5 17.5zM77 724h117 v-257h118q115 0 176.5 -60t61.5 -174q0 -111 -63 -172t-170 -61h-240v724zM746 724v-724h-116v724h116zM194 102h116q57 0 88.5 33t31.5 99t-29.5 98.5t-83.5 32.5h-123v-263z" />
<glyph unicode="&#x4f9;" horiz-adv-x="706" d="M222.5 636.5q-16.5 17.5 -16.5 46.5q0 31 16.5 48.5t45.5 17.5t45.5 -17.5t16.5 -47.5q0 -31 -16.5 -48t-45.5 -17t-45.5 17.5zM402.5 636.5q-16.5 17.5 -16.5 46.5q0 31 16.5 48.5t45.5 17.5t45.5 -17.5t16.5 -47.5q0 -31 -16.5 -48t-45.5 -17t-45.5 17.5zM72 543h114 v-177h76q95 0 149.5 -42.5t54.5 -135.5q0 -62 -28 -104.5t-74.5 -63t-101.5 -20.5h-190v543zM635 543v-543h-114v543h114zM186 94h71q44 0 68 24t24 72q0 45 -23 67.5t-64 22.5h-76v-186z" />
<glyph unicode="&#x4fa;" horiz-adv-x="488" d="M193 621v-210h160v-90h-160v-220h84v-17q0 -72 -11 -115.5t-40.5 -73.5t-87.5 -55l-40 92q35 16 49.5 32.5t16.5 35.5h-87v321h-61v90h61v313h399v-103h-283z" />
<glyph unicode="&#x4fb;" horiz-adv-x="427" d="M201 447v-150h125v-71h-125v-130h81v-14q0 -71 -10.5 -114t-40 -72.5t-87.5 -55.5l-38 87q36 15 50 33t16 40h-85v226h-61v71h61v246h324v-96h-210z" />
<glyph unicode="&#x4fc;" horiz-adv-x="563" d="M502.5 -94.5q-28.5 -37.5 -99.5 -65.5l-40 95q30 13 42.5 28t12.5 39q0 21 -20 56l-119 212l-136 -270h-129l202 366l-195 358h131l132 -261l134 261h129l-201 -356l150 -257q35 -61 35 -114q0 -54 -28.5 -91.5z" />
<glyph unicode="&#x4fd;" horiz-adv-x="464" d="M412.5 -96q-27.5 -36 -95.5 -64l-39 89q29 12 42.5 27.5t13.5 37.5q0 13 -4 23.5t-13 25.5l-88 144l-97 -187h-123l161 276l-154 267h125l93 -178l96 178h123l-160 -266l110 -175q18 -30 27.5 -55.5t9.5 -53.5q0 -53 -27.5 -89z" />
<glyph unicode="&#x4fe;" horiz-adv-x="563" d="M549 0h-128l-142 280l-139 -280h-126l181 323h-125v89h125l-174 312h128l135 -271l137 271h126l-180 -312h127v-89h-127z" />
<glyph unicode="&#x4ff;" horiz-adv-x="464" d="M470 0h-122l-104 194l-100 -194h-120l144 241h-100v71h99l-136 231h122l96 -185l99 185h120l-142 -231h96v-71h-97z" />
<glyph unicode="&#x524;" horiz-adv-x="691" d="M662 101v-254h-87l-18 153h-89v621h-275v-621h-116v724h507v-623h78z" />
<glyph unicode="&#x525;" horiz-adv-x="592" d="M564 96v-249h-83l-18 153h-89v447h-188v-447h-114v543h416v-447h76z" />
<glyph unicode="&#x2000;" horiz-adv-x="498" />
<glyph unicode="&#x2001;" horiz-adv-x="996" />
<glyph unicode="&#x2002;" horiz-adv-x="498" />
<glyph unicode="&#x2003;" horiz-adv-x="996" />
<glyph unicode="&#x2004;" horiz-adv-x="332" />
<glyph unicode="&#x2005;" horiz-adv-x="249" />
<glyph unicode="&#x2006;" horiz-adv-x="166" />
<glyph unicode="&#x2007;" horiz-adv-x="584" />
<glyph unicode="&#x2008;" horiz-adv-x="124" />
<glyph unicode="&#x2009;" horiz-adv-x="199" />
<glyph unicode="&#x200a;" horiz-adv-x="55" />
<glyph unicode="&#x2010;" horiz-adv-x="377" d="M36 345h305v-89h-305v89z" />
<glyph unicode="&#x2011;" horiz-adv-x="377" d="M36 345h305v-89h-305v89z" />
<glyph unicode="&#x2012;" horiz-adv-x="566" d="M36 345h493v-85h-493v85z" />
<glyph unicode="&#x2013;" horiz-adv-x="566" d="M36 345h493v-85h-493v85z" />
<glyph unicode="&#x2014;" horiz-adv-x="855" d="M36 345h782v-85h-782v85z" />
<glyph unicode="&#x2015;" horiz-adv-x="855" d="M36 345h782v-85h-782v85z" />
<glyph unicode="&#x2018;" horiz-adv-x="207" d="M201 730q-32 -36 -45.5 -72t-13.5 -86q0 -40 5 -73h-104q-5 33 -5 72q0 58 28.5 107.5t90.5 97.5z" />
<glyph unicode="&#x2019;" horiz-adv-x="187" d="M6 519q33 36 46.5 72t13.5 87q0 35 -6 72h104q6 -37 6 -71q0 -59 -28.5 -108t-91.5 -98z" />
<glyph unicode="&#x201a;" horiz-adv-x="219" d="M12 -120q33 36 46.5 72t13.5 87q0 35 -6 72h104q6 -37 6 -71q0 -59 -28.5 -108t-91.5 -98z" />
<glyph unicode="&#x201c;" horiz-adv-x="375" d="M201 730q-33 -36 -46.5 -72t-13.5 -87q0 -34 6 -72h-104q-6 38 -6 71q0 59 28.5 108t91.5 98zM369 730q-33 -36 -46.5 -72t-13.5 -87q0 -34 6 -72h-104q-6 38 -6 71q0 59 28.5 108t91.5 98z" />
<glyph unicode="&#x201d;" horiz-adv-x="375" d="M6 519q33 36 46.5 72t13.5 87q0 35 -6 72h104q6 -37 6 -71q0 -59 -28.5 -108t-91.5 -98zM174 519q33 36 46.5 72t13.5 87q0 35 -6 72h104q6 -37 6 -71q0 -59 -28.5 -108t-91.5 -98z" />
<glyph unicode="&#x201e;" horiz-adv-x="386" d="M12 -120q33 36 46.5 72t13.5 87q0 35 -6 72h104q6 -37 6 -71q0 -59 -28.5 -108t-91.5 -98zM179 -120q33 36 46.5 72t13.5 87q0 35 -6 72h104q6 -37 6 -71q0 -59 -28.5 -108t-91.5 -98z" />
<glyph unicode="&#x2020;" horiz-adv-x="466" d="M199 490l-138 -25v109l138 -21l-31 171h130l-31 -171l139 21v-109l-139 25l25 -329h-118z" />
<glyph unicode="&#x2021;" horiz-adv-x="466" d="M199 171l-138 -21v109l135 -25v256l-135 -25v109l138 -21l-31 171h130l-31 -171l139 21v-109l-135 25v-256l135 25v-109l-139 21l31 -171h-130z" />
<glyph unicode="&#x2022;" horiz-adv-x="439" d="M104 225.5q-41 43.5 -41 121.5t41 121.5t115 43.5t115.5 -43.5t41.5 -121.5t-41.5 -121.5t-115.5 -43.5t-115 43.5z" />
<glyph unicode="&#x2026;" horiz-adv-x="710" d="M534.5 8q-18.5 19 -18.5 52q0 34 18.5 52.5t52.5 18.5t53 -19t19 -51q0 -34 -19 -53t-53 -19t-52.5 19zM69.5 8q-18.5 19 -18.5 52q0 34 18.5 52.5t52.5 18.5t53 -19t19 -51q0 -34 -19 -53t-53 -19t-52.5 19zM301.5 8q-18.5 19 -18.5 52q0 34 18.5 52.5t52.5 18.5t53 -19 t19 -51q0 -34 -19 -53t-53 -19t-52.5 19z" />
<glyph unicode="&#x202f;" horiz-adv-x="199" />
<glyph unicode="&#x2030;" horiz-adv-x="1247" d="M46 514q0 222 153 222t153 -222q0 -110 -38.5 -165.5t-114.5 -55.5q-153 0 -153 221zM561 724h97l-333 -724h-97zM242 405.5q14 34.5 14 108.5q0 75 -14 109.5t-43 34.5q-30 0 -43.5 -34.5t-13.5 -109.5t13.5 -109t43.5 -34q29 0 43 34.5zM535 210q0 221 152 221 q153 0 153 -221q0 -222 -153 -222q-152 0 -152 222zM896 210q0 221 153 221q152 0 152 -221q0 -222 -152 -222q-153 0 -153 222zM731 100.5q14 34.5 14 109.5q0 74 -14 108.5t-44 34.5q-29 0 -43 -34.5t-14 -108.5q0 -75 14 -109.5t43 -34.5q30 0 44 34.5zM1092 100.5 q14 34.5 14 109.5q0 74 -14 108.5t-43 34.5q-30 0 -44 -34.5t-14 -108.5q0 -75 14 -109.5t44 -34.5q29 0 43 34.5z" />
<glyph unicode="&#x2032;" horiz-adv-x="198" d="M39 499l35 249h105v-11l-67 -248h-73v10z" />
<glyph unicode="&#x2033;" horiz-adv-x="349" d="M39 499l35 249h105v-11l-67 -248h-73v10zM190 499l35 249h105v-11l-67 -248h-73v10z" />
<glyph unicode="&#x2039;" horiz-adv-x="326" d="M139 291l165 -203l-68 -64l-217 265l217 265l68 -63z" />
<glyph unicode="&#x203a;" horiz-adv-x="326" d="M307 289l-218 -265l-68 64l166 200l-166 203l69 63z" />
<glyph unicode="&#x2044;" horiz-adv-x="253" d="M-103 19l384 725l75 -39l-384 -725z" />
<glyph unicode="&#x205f;" horiz-adv-x="249" />
<glyph unicode="&#x2070;" horiz-adv-x="418" d="M49 547q0 229 160 229t160 -229t-160 -229t-160 229zM257.5 432q15.5 36 15.5 115t-15.5 115t-48.5 36q-34 0 -49.5 -36t-15.5 -115t15.5 -115t49.5 -36q33 0 48.5 36z" />
<glyph unicode="&#x2074;" horiz-adv-x="363" d="M341 478v-75h-49v-79h-90v79h-194v75l155 292h129v-292h49zM202 478v214l-102 -214h102z" />
<glyph unicode="&#x2075;" horiz-adv-x="372" d="M289.5 573q39.5 -36 39.5 -103q0 -73 -44 -112.5t-126 -39.5q-39 0 -76 11t-63 31l32 70q57 -30 107 -30q74 0 74 69q0 60 -67 60q-33 0 -72 -14l-55 29l14 226h245v-76h-162l-12 -94q25 9 53 9q73 0 112.5 -36z" />
<glyph unicode="&#x2076;" horiz-adv-x="367" d="M307.5 570q34.5 -36 34.5 -103q0 -71 -40 -110t-113 -39q-75 0 -115.5 40.5t-40.5 114.5q0 60 19.5 108.5t64.5 96.5l90 98l64 -59l-84 -88q-20 -22 -28 -32q27 9 51 9q63 0 97.5 -36zM248 466q0 72 -64 72q-22 0 -48 -9q-10 -24 -10 -56q0 -78 63 -78q59 0 59 71z" />
<glyph unicode="&#x2077;" horiz-adv-x="307" d="M293 770v-76l-168 -376l-84 41l158 335h-201v76h295z" />
<glyph unicode="&#x2078;" horiz-adv-x="381" d="M72.5 351q-41.5 34 -41.5 96q0 37 23.5 65.5t66.5 44.5q-36 12 -55.5 38t-19.5 61q0 58 38 89.5t106 31.5q69 0 107 -31.5t38 -89.5q0 -35 -19.5 -61t-55.5 -37q43 -13 66.5 -42.5t23.5 -69.5q0 -62 -42 -95.5t-118 -33.5t-117.5 34zM243 648q0 55 -53 55q-52 0 -52 -55 q0 -46 55 -62q50 14 50 62zM256 453q0 52 -69 75q-63 -21 -63 -75q0 -61 66 -61t66 61z" />
<glyph unicode="&#x2079;" horiz-adv-x="364" d="M292 735.5q41 -40.5 41 -114.5q0 -60 -20 -108.5t-65 -96.5l-90 -98l-64 59l84 88q20 22 29 33q-27 -10 -52 -10q-63 0 -97.5 36t-34.5 103q0 71 40 110t113 39q75 0 116 -40.5zM181 556q19 0 49 10q10 28 10 55q0 78 -64 78q-59 0 -59 -71q0 -72 64 -72z" />
<glyph unicode="&#x207d;" horiz-adv-x="236" d="M62 394q-28 76 -28 155q0 162 110 303l67 -49q-77 -99 -77 -253q0 -153 77 -252l-67 -49q-54 69 -82 145z" />
<glyph unicode="&#x207e;" horiz-adv-x="236" d="M174 707q28 -76 28 -155q0 -162 -110 -303l-67 49q77 101 77 253q0 151 -77 252l67 49q54 -69 82 -145z" />
<glyph unicode="&#x2080;" horiz-adv-x="418" d="M49 150q0 229 160 229t160 -229t-160 -229t-160 229zM257.5 35q15.5 36 15.5 115t-15.5 115t-48.5 36q-34 0 -49.5 -36t-15.5 -115t15.5 -115t49.5 -36q33 0 48.5 36z" />
<glyph unicode="&#x2081;" horiz-adv-x="325" d="M219 373v-446h-92v355l-90 -33l-24 70l129 54h77z" />
<glyph unicode="&#x2082;" horiz-adv-x="350" d="M312 3v-76h-292v76l149 162q25 28 33.5 43t8.5 35q0 26 -13 40t-39 14q-50 0 -106 -40l-40 67q75 55 155 55q66 0 101.5 -33.5t35.5 -96.5q0 -36 -15.5 -65t-56.5 -73l-102 -108h181z" />
<glyph unicode="&#x2083;" horiz-adv-x="373" d="M295.5 158q29.5 -34 29.5 -91q0 -70 -44 -108t-124 -38q-83 0 -144 44l32 70q58 -32 112 -32q73 0 73 65q0 63 -69 63q-23 0 -47 -6l-33 45l121 127h-175v76h281v-77l-98 -96q56 -8 85.5 -42z" />
<glyph unicode="&#x2084;" horiz-adv-x="369" d="M341 81v-75h-49v-79h-90v79h-194v75l155 292h129v-292h49zM202 81v214l-102 -214h102z" />
<glyph unicode="&#x2085;" horiz-adv-x="372" d="M289.5 176q39.5 -36 39.5 -103q0 -73 -44 -112.5t-126 -39.5q-39 0 -76 11t-63 31l32 70q57 -30 107 -30q74 0 74 69q0 60 -67 60q-33 0 -72 -14l-55 29l14 226h245v-76h-162l-12 -94q25 9 53 9q73 0 112.5 -36z" />
<glyph unicode="&#x2086;" horiz-adv-x="367" d="M307.5 173q34.5 -36 34.5 -103q0 -71 -40 -110t-113 -39q-75 0 -115.5 40.5t-40.5 114.5q0 60 19.5 108.5t64.5 96.5l90 98l64 -59l-84 -88q-20 -22 -28 -32q27 9 51 9q63 0 97.5 -36zM248 69q0 72 -64 72q-22 0 -48 -9q-10 -24 -10 -56q0 -78 63 -78q59 0 59 71z" />
<glyph unicode="&#x2087;" horiz-adv-x="307" d="M293 373v-76l-168 -376l-84 41l158 335h-201v76h295z" />
<glyph unicode="&#x2088;" horiz-adv-x="381" d="M72.5 -46q-41.5 34 -41.5 96q0 37 23.5 65.5t66.5 44.5q-36 12 -55.5 38t-19.5 61q0 58 38 89.5t106 31.5q69 0 107 -31.5t38 -89.5q0 -35 -19.5 -61t-55.5 -37q43 -13 66.5 -42.5t23.5 -69.5q0 -62 -42 -95.5t-118 -33.5t-117.5 34zM243 251q0 55 -53 55q-52 0 -52 -55 q0 -46 55 -62q50 14 50 62zM256 56q0 52 -69 75q-63 -21 -63 -75q0 -61 66 -61t66 61z" />
<glyph unicode="&#x2089;" horiz-adv-x="364" d="M292 338.5q41 -40.5 41 -114.5q0 -60 -20 -108.5t-65 -96.5l-90 -98l-64 59l84 88q20 22 29 33q-27 -10 -52 -10q-63 0 -97.5 36t-34.5 103q0 71 40 110t113 39q75 0 116 -40.5zM181 159q19 0 49 10q10 28 10 55q0 78 -64 78q-59 0 -59 -71q0 -72 64 -72z" />
<glyph unicode="&#x208d;" horiz-adv-x="236" d="M62 -10q-28 76 -28 155q0 162 110 303l67 -49q-77 -99 -77 -253q0 -153 77 -252l-67 -49q-54 69 -82 145z" />
<glyph unicode="&#x208e;" horiz-adv-x="236" d="M174 303q28 -76 28 -155q0 -162 -110 -303l-67 49q77 101 77 253q0 151 -77 252l67 49q54 -69 82 -145z" />
<glyph unicode="&#x20a1;" horiz-adv-x="558" d="M512 59q-49 -38 -120 -47l-7 -97h-60l6 93q-36 2 -53 6l-6 -99h-60l7 117q-78 35 -120 119.5t-42 209.5q0 141 53.5 230.5t151.5 115.5l7 102h60l-6 -92h19q12 0 34 -2l6 94h60l-6 -105q44 -14 76 -38l-37 -86q-12 6 -46 20l-31 -483q41 10 76 26zM338 111l32 502 q-18 2 -27 2t-27 -2l-31 -493q24 -7 53 -9zM228 160l27 430q-80 -54 -80 -229q0 -139 53 -201z" />
<glyph unicode="&#x20a4;" horiz-adv-x="499" d="M156 101h298v-101h-403v100l29 32q45 50 57 106h-94v82h99q-3 41 -16 76h-83v82h51q-11 33 -11 74q0 88 51.5 136t144.5 48q53 0 99 -16t78 -47l-55 -91q-61 48 -122 48q-81 0 -81 -82q0 -30 14 -70h182v-82h-153q11 -39 12 -76h141v-82h-151q-21 -74 -87 -137z" />
<glyph unicode="&#x20a6;" horiz-adv-x="732" d="M608 396v-68h67v-50h-67v-278h-103l-140 278h-132v-278h-109v278h-67v50h67v68h-67v50h67v278h104l139 -278h132v278h109v-278h67v-50h-67zM233 543v-99h49zM341 328l-35 68h-73v-68h108zM392 396l34 -68h73v68h-107zM450 280l49 -99v99h-49z" />
<glyph unicode="&#x20a7;" horiz-adv-x="1180" d="M754 100l16 -92q-34 -14 -84 -14q-144 0 -144 155v299h-75q-8 -100 -64.5 -154t-152.5 -56h-39v-238h-114v724h114h44q87 0 141.5 -47t68.5 -134h77v142h112v-142h109v-95h-109v-292q0 -34 12 -49.5t37 -15.5q26 0 51 9zM355 480q0 144 -105 144h-39v-286h44 q100 0 100 142zM1129 163q0 -82 -45.5 -128t-128.5 -46q-39 0 -81 10.5t-79 29.5l36 86q74 -33 124 -33q67 0 67 68q0 57 -52 69l-42 10q-124 32 -124 157q0 80 43 124t121 44q36 0 74.5 -10t71.5 -27l-38 -84q-70 28 -110 28q-56 0 -56 -62q0 -28 12.5 -44t39.5 -23l42 -11 q125 -30 125 -158z" />
<glyph unicode="&#x20a9;" horiz-adv-x="884" d="M767 400h69v-68h-85l-76 -332h-123l-65 333h-92l-64 -333h-122l-76 332h-85v68h69l-74 324h118l60 -325h101l60 324h120l61 -324h102l60 325h116zM474 399l-33 170l-33 -170h66zM233 333l39 -208l38 208h-77zM575 333l40 -208l38 208h-78z" />
<glyph unicode="&#x20ab;" horiz-adv-x="538" d="M530 685v-72h-59v-613h-101v74q-48 -86 -141 -86q-89 0 -138.5 72t-49.5 203q0 129 50.5 200.5t141.5 71.5q78 0 124 -55v133h-188v72h188v85h114v-85h59zM312.5 104.5q22.5 11.5 44.5 36.5v245q-20 23 -45.5 35.5t-52.5 12.5q-50 0 -76 -42t-26 -125q0 -174 107 -174 q26 0 48.5 11.5zM54 -92h444v-90h-444v90z" />
<glyph unicode="&#x20ac;" horiz-adv-x="578" d="M495 121l37 -85q-67 -48 -153 -48q-103 0 -169 67t-86 192h-77v75h69q-1 13 -1 39q0 27 1 40h-69v75h77q20 125 86.5 192.5t170.5 67.5q40 0 79.5 -13t71.5 -36l-36 -85q-66 32 -115 32q-112 0 -139 -158h181v-75h-189q-1 -13 -1 -40t1 -39h189v-75h-181 q27 -155 139 -155q56 0 114 29z" />
<glyph unicode="&#x20b1;" horiz-adv-x="668" d="M639 498h-57q1 -11 1 -35q0 -23 -1 -33h57v-51h-64q-19 -84 -74.5 -129t-141.5 -45h-119v-205h-116v379h-67v51h67v68h-67v50h67v176h235q87 0 142 -45.5t73 -130.5h65v-50zM240 548h216q-11 40 -37 58.5t-69 18.5h-110v-77zM465 498h-225v-68h225q1 10 1 33q0 24 -1 35z M419 322.5q26 18.5 37 56.5h-216v-75h110q43 0 69 18.5z" />
<glyph unicode="&#x20b2;" horiz-adv-x="625" d="M558 57q-34 -24 -81.5 -37t-101.5 -14v-91h-77v98q-111 22 -171 112.5t-60 236.5t60 236.5t171 112.5v98h77v-91q50 -1 95.5 -14t77.5 -36l-32 -90q-75 37 -141 39v-216h183v-344zM298 119v486q-112 -43 -112 -243t112 -243zM375 107q35 0 69 8v189h-69v-197z" />
<glyph unicode="&#x20b5;" horiz-adv-x="558" d="M512 59q-27 -21 -64 -34t-80 -16v-94h-79v97q-111 17 -171.5 107.5t-60.5 241.5t60.5 242.5t171.5 109.5v96h79v-93q86 -6 144 -50l-37 -86q-52 28 -107 34v-502q52 6 106 31zM289 119v488q-114 -36 -114 -246q0 -206 114 -242z" />
<glyph unicode="&#x20b9;" horiz-adv-x="550" d="M491 642h-143q48 -38 62 -101h81v-82h-78q-9 -82 -57.5 -131t-131.5 -58l264 -260v-10h-142l-276 276v80h117q50 0 76 25t32 78h-244v82h241q-16 100 -105 100h-136v83h142h298v-82z" />
<glyph unicode="&#x20ba;" horiz-adv-x="516" d="M498 314q0 -152 -79.5 -235.5t-223.5 -83.5q-47 0 -109 8v266l-57 -32h-12v75l69 39v80l-57 -32h-12v75l69 39v211h114v-147l149 85h12v-75l-161 -92v-80l149 86h12v-76l-161 -92v-236q91 1 137.5 56t46.5 161h114z" />
<glyph unicode="&#x20bd;" horiz-adv-x="613" d="M239 275v-78h190v-82h-190v-115h-115v115h-67v82h67v79h-67v87h67v361h236q106 0 165 -59.5t59 -166.5q0 -106 -58.5 -164.5t-165.5 -58.5h-121zM350 619h-111v-255h111q115 0 115 128q0 127 -115 127z" />
<glyph unicode="&#x2122;" horiz-adv-x="879" d="M25 724h297v-81h-103v-370h-90v370h-104v81zM801 724v-451h-87v310l-85 -224h-74l-86 225v-311h-86v451h103l107 -277l105 277h103z" />
<glyph unicode="&#x2153;" horiz-adv-x="909" d="M641 705l-384 -725l-75 39l384 725zM127 278v355l-90 -33l-24 70l129 54h77v-446h-92zM833.5 231.5q29.5 -34.5 29.5 -91.5q0 -70 -44 -108t-124 -38q-83 0 -144 44l32 70q58 -32 112 -32q73 0 73 65q0 63 -69 63q-23 0 -47 -6l-33 45l121 127h-175v76h281v-77l-98 -95 q56 -8 85.5 -42.5z" />
<glyph unicode="&#x2154;" horiz-adv-x="972" d="M704 705l-384 -725l-75 39l384 725zM169 516q25 28 33.5 43t8.5 35q0 26 -13 40t-39 14q-50 0 -106 -40l-40 67q75 55 155 55q66 0 101.5 -33.5t35.5 -96.5q0 -36 -15.5 -65t-56.5 -73l-102 -108h181v-76h-292v76zM896.5 231.5q29.5 -34.5 29.5 -91.5q0 -70 -44 -108 t-124 -38q-83 0 -144 44l32 70q58 -32 112 -32q73 0 73 65q0 63 -69 63q-23 0 -47 -6l-33 45l121 127h-175v76h281v-77l-98 -95q56 -8 85.5 -42.5z" />
<glyph unicode="&#x215b;" horiz-adv-x="897" d="M641 705l-384 -725l-75 39l384 725zM127 278v355l-90 -33l-24 70l129 54h77v-446h-92zM844.5 191.5q23.5 -29.5 23.5 -69.5q0 -62 -42 -95.5t-118 -33.5t-117.5 34t-41.5 96q0 37 23.5 65.5t66.5 44.5q-36 12 -55.5 38t-19.5 61q0 58 38 89.5t106 31.5q69 0 107 -31.5 t38 -89.5q0 -35 -19.5 -61t-55.5 -37q43 -13 66.5 -42.5zM656 324q0 -46 55 -62q50 14 50 62q0 55 -53 55q-52 0 -52 -55zM774 129q0 52 -69 75q-63 -21 -63 -75q0 -61 66 -61t66 61z" />
<glyph unicode="&#x215c;" horiz-adv-x="962" d="M707 705l-384 -725l-75 39l384 725zM281 310q-44 -38 -124 -38q-83 0 -144 44l32 70q58 -32 112 -32q73 0 73 65q0 63 -69 63q-23 0 -47 -6l-33 45l121 127h-175v76h281v-77l-98 -95q56 -8 85.5 -42.5t29.5 -91.5q0 -70 -44 -108zM910.5 191.5q23.5 -29.5 23.5 -69.5 q0 -62 -42 -95.5t-118 -33.5t-117.5 34t-41.5 96q0 37 23.5 65.5t66.5 44.5q-36 12 -55.5 38t-19.5 61q0 58 38 89.5t106 31.5q69 0 107 -31.5t38 -89.5q0 -35 -19.5 -61t-55.5 -37q43 -13 66.5 -42.5zM722 324q0 -46 55 -62q50 14 50 62q0 55 -53 55q-52 0 -52 -55z M840 129q0 52 -69 75q-63 -21 -63 -75q0 -61 66 -61t66 61z" />
<glyph unicode="&#x215d;" horiz-adv-x="961" d="M706 705l-384 -725l-75 39l384 725zM285 311.5q-44 -39.5 -126 -39.5q-39 0 -76 11t-63 31l32 70q57 -30 107 -30q74 0 74 69q0 60 -67 60q-33 0 -72 -14l-55 29l14 226h245v-76h-162l-12 -94q25 9 53 9q73 0 112.5 -36t39.5 -103q0 -73 -44 -112.5zM909.5 191.5 q23.5 -29.5 23.5 -69.5q0 -62 -42 -95.5t-118 -33.5t-117.5 34t-41.5 96q0 37 23.5 65.5t66.5 44.5q-36 12 -55.5 38t-19.5 61q0 58 38 89.5t106 31.5q69 0 107 -31.5t38 -89.5q0 -35 -19.5 -61t-55.5 -37q43 -13 66.5 -42.5zM721 324q0 -46 55 -62q50 14 50 62q0 55 -53 55 q-52 0 -52 -55zM839 129q0 52 -69 75q-63 -21 -63 -75q0 -61 66 -61t66 61z" />
<glyph unicode="&#x215e;" horiz-adv-x="847" d="M591 705l-384 -725l-75 39l384 725zM293 648l-168 -376l-84 41l158 335h-201v76h295v-76zM794.5 191.5q23.5 -29.5 23.5 -69.5q0 -62 -42 -95.5t-118 -33.5t-117.5 34t-41.5 96q0 37 23.5 65.5t66.5 44.5q-36 12 -55.5 38t-19.5 61q0 58 38 89.5t106 31.5q69 0 107 -31.5 t38 -89.5q0 -35 -19.5 -61t-55.5 -37q43 -13 66.5 -42.5zM606 324q0 -46 55 -62q50 14 50 62q0 55 -53 55q-52 0 -52 -55zM724 129q0 52 -69 75q-63 -21 -63 -75q0 -61 66 -61t66 61z" />
<glyph unicode="&#x2202;" horiz-adv-x="564" d="M90 45.5q-49 58.5 -49 165.5q0 87 31.5 161.5t89 118t130.5 43.5q45 0 70.5 -18t41.5 -56h3q1 11 1 43q0 86 -28.5 131.5t-92.5 45.5q-49 0 -99 -26l-32 90q71 38 154 38q110 0 161.5 -79.5t51.5 -239.5q0 -136 -35 -244t-101.5 -170t-158.5 -62q-89 0 -138 58.5z M321 119q33 31 50.5 82t17.5 108q0 125 -87 125q-43 0 -76 -29t-50.5 -79t-17.5 -109q0 -129 87 -129q43 0 76 31z" />
<glyph unicode="&#x2206;" horiz-adv-x="594" d="M587 0h-123h-386h-71l226 724h128zM436 100l-140 510l-139 -510h279z" />
<glyph unicode="&#x220f;" horiz-adv-x="648" d="M570 724v-856h-115v755h-262v-755h-116v856h493z" />
<glyph unicode="&#x2211;" horiz-adv-x="569" d="M51 -30l205 331l-205 322v101h477v-101h-335l208 -322l-208 -331h335v-101h-477v101z" />
<glyph unicode="&#x221a;" horiz-adv-x="651" d="M658 770l-304 -770h-113l-121 307h-97v102h177l100 -288l245 649h113z" />
<glyph unicode="&#x221e;" horiz-adv-x="852" d="M89.5 199.5q-48.5 57.5 -48.5 162.5t49 163t137 58q54 0 106.5 -35.5t93.5 -99.5q40 64 92.5 99.5t105.5 35.5q88 0 137 -58t49 -163t-48.5 -162.5t-137.5 -57.5q-56 0 -108 33.5t-90 94.5q-39 -61 -91.5 -94.5t-108.5 -33.5q-89 0 -137.5 57.5zM306.5 277.5 q32.5 26.5 64.5 84.5q-33 59 -65 85.5t-69 26.5q-78 0 -78 -112q0 -111 78 -111q37 0 69.5 26.5zM693 362q0 112 -77 112q-38 0 -70 -27t-64 -85q32 -58 64 -84.5t70 -26.5q77 0 77 111z" />
<glyph unicode="&#x222b;" horiz-adv-x="348" d="M-28 -203v100q20 -5 52 -5q37 0 53 18t16 58v641q0 176 183 176q32 0 55 -7v-100q-24 6 -53 6q-36 0 -52.5 -18.5t-16.5 -58.5v-640q0 -176 -181 -176q-38 0 -56 6z" />
<glyph unicode="&#x2248;" horiz-adv-x="541" d="M306 187q-19 9 -45 26q-22 15 -36.5 22t-32.5 7q-22 0 -42.5 -13.5t-43.5 -43.5l-65 67q71 92 148 92q27 0 46 -9t45 -26q20 -15 35 -22t33 -7q22 0 42.5 13.5t43.5 43.5l66 -67q-71 -92 -148 -92q-27 0 -46 9zM306 403q-19 9 -45 26q-22 15 -36.5 22t-32.5 7 q-22 0 -42.5 -13.5t-43.5 -43.5l-65 67q71 92 148 92q27 0 46 -9t45 -26q20 -15 35 -22t33 -7q22 0 42.5 13.5t43.5 43.5l66 -67q-71 -92 -148 -92q-27 0 -46 9z" />
<glyph unicode="&#x2260;" horiz-adv-x="580" d="M356 431l-52 -132h213v-103h-254l-59 -149h-77v10l56 139h-120v103h160l53 132h-213v103h253l60 149h76v-10l-55 -139h120v-103h-161z" />
<glyph unicode="&#x2264;" horiz-adv-x="439" d="M393 216l-379 214v30l379 214h18v-107l-236 -122l236 -122v-107h-18zM22 40v98h389v-98h-389z" />
<glyph unicode="&#x2265;" horiz-adv-x="439" d="M28 323l236 122l-236 122v107h18l379 -214v-30l-379 -214h-18v107zM28 138h389v-98h-389v98z" />
<glyph unicode="&#x25ca;" horiz-adv-x="524" d="M33 365l175 359h108l175 -359l-175 -365h-108zM373 365l-111 257l-112 -257l112 -263z" />
<glyph unicode="&#x25fc;" horiz-adv-x="545" d="M0 545h545v-545h-545v545z" />
<glyph horiz-adv-x="262" d="M74 543h114v-543h-114v543zM81 640.5q-18 18.5 -18 50.5q0 33 18 51.5t50 18.5t50 -18.5t18 -50.5q0 -33 -18 -51.5t-50 -18.5t-50 18.5z" />
<glyph horiz-adv-x="662" d="M649 101v-254h-86l-19 153h-387h-39l-19 -153h-87v254h55l198 623h131l197 -623h56zM472 101l-144 498l-142 -498h286z" />
<glyph horiz-adv-x="864" d="M566 320l-76 -106v-214h-116v214l-76 106l-183 -320h-124l236 418l-221 306h135l233 -353v353h116v-353l233 353h135l-221 -306l236 -418h-127z" />
<glyph horiz-adv-x="592" d="M266 308l-73 -95v-213h-116v724h116v-355l253 355h140l-246 -319l261 -405h-141z" />
<glyph horiz-adv-x="592" d="M233 793l136 133h128v-12l-171 -133h-93v12zM266 308l-73 -95v-213h-116v724h116v-355l253 355h140l-246 -319l261 -405h-141z" />
<glyph horiz-adv-x="606" d="M301 590l-162 -590h-122l222 724h128l222 -724h-123z" />
<glyph horiz-adv-x="718" d="M602 110.5q-68 -90.5 -188 -106.5v-68h-112v68q-119 17 -187 107.5t-68 250.5t68 250.5t187 107.5v63h112v-63q120 -16 188 -106.5t68 -251.5t-68 -251.5zM518.5 186.5q36.5 64.5 36.5 175.5t-36.5 175.5t-104.5 82.5v-516q68 18 104.5 82.5zM199 187.5 q36 -64.5 103 -82.5v514q-67 -18 -103 -82.5t-36 -174.5t36 -174.5z" />
<glyph horiz-adv-x="920" d="M820.5 61q-62.5 -61 -170.5 -61h-232v625l-298 -625h-123l352 724h186v-257h111q115 0 176 -60t61 -174q0 -111 -62.5 -172zM734 332.5q-29 32.5 -83 32.5h-116v-263h109q57 0 88 33t31 99t-29 98.5z" />
<glyph horiz-adv-x="555" d="M231 572.5q24 -19.5 78 -48.5q62 -33 103 -63t71 -83t30 -131q0 -82 -31.5 -140.5t-86.5 -88.5t-125 -30q-65 0 -116.5 28.5t-81.5 83.5t-30 132q0 88 38 144t118 85q-48 29 -74 64.5t-26 90.5q0 77 50 117.5t134 40.5q102 0 185 -45l-41 -86q-72 36 -142 36 q-77 0 -77 -58q0 -29 24 -48.5zM366.5 125q36.5 40 36.5 112q0 64 -30.5 103.5t-85.5 71.5q-70 -19 -99.5 -59.5t-29.5 -108.5q0 -73 29.5 -116t86.5 -43q56 0 92.5 40z" />
<glyph horiz-adv-x="556" d="M511 242q0 -79 -32.5 -136.5t-89 -87.5t-125.5 -30q-94 0 -147.5 49t-53.5 148v389q0 98 56 149t147 51t146.5 -46t55.5 -131q0 -104 -85 -145q128 -47 128 -210zM177 569v-88h74q50 0 75.5 24.5t25.5 73.5q0 47 -22.5 71t-65.5 24q-87 0 -87 -105zM357 129q37 41 37 125 q0 87 -39.5 118t-104.5 31h-73v-206q0 -57 22 -83t68 -26q53 0 90 41z" />
<glyph horiz-adv-x="454" d="M73.5 33q-51.5 44 -51.5 124q0 67 41.5 102t127.5 56l45 11q59 14 59 65q0 29 -22.5 46.5t-62.5 17.5q-32 0 -61 -8t-63 -26l-39 88q78 45 168 45q89 0 140.5 -42t51.5 -116q0 -65 -36.5 -101t-112.5 -53l-45 -11q-44 -10 -62.5 -29t-18.5 -47q0 -31 21 -50t64 -19 q39 0 80.5 15t76.5 41l51 -83q-89 -70 -211 -70q-89 0 -140.5 44z" />
<glyph horiz-adv-x="454" d="M73.5 33q-51.5 44 -51.5 124q0 67 41.5 102t127.5 56l45 11q59 14 59 65q0 29 -22.5 46.5t-62.5 17.5q-32 0 -61 -8t-63 -26l-39 88q78 45 168 45q89 0 140.5 -42t51.5 -116q0 -65 -36.5 -101t-112.5 -53l-45 -11q-44 -10 -62.5 -29t-18.5 -47q0 -31 21 -50t64 -19 q39 0 80.5 15t76.5 41l51 -83q-89 -70 -211 -70q-89 0 -140.5 44zM159 625l88 159h118v-10l-123 -159h-83v10z" />
<glyph horiz-adv-x="543" d="M411 -160q-60 -59 -169 -59q-45 0 -87.5 10t-73.5 28l32 90q60 -29 120 -29q124 0 124 125v79q-48 -66 -129 -66q-89 0 -138 70.5t-49 198.5q0 127 50 197.5t141 70.5q44 0 80 -19.5t58 -55.5v63h101v-538q0 -106 -60 -165zM357 171v235q-19 22 -45 34.5t-53 12.5 q-101 0 -101 -163q0 -167 105 -167q53 0 94 48z" />
<glyph horiz-adv-x="737" d="M476 230l-52 -70v-160h-110v160l-52 70l-138 -230h-116l185 315l-172 228h126l167 -240v467h110v-467l168 240h125l-172 -228l184 -315h-119z" />
<glyph horiz-adv-x="478" d="M442 6q0 -74 -34 -124.5t-91 -75.5t-128 -25q-53 0 -97.5 9.5t-87.5 32.5l42 91q66 -33 134 -33q69 0 107 33.5t38 99.5q0 65 -37.5 90.5t-101.5 25.5h-81v85h77q59 0 90.5 32t31.5 92q0 118 -122 118q-30 0 -57 -8t-59 -23l-33 90q76 39 165 39q103 0 163 -51t60 -147 q0 -60 -28 -103.5t-76 -67.5q125 -45 125 -180z" />
<glyph horiz-adv-x="540" d="M468 0h-101v72q-54 -84 -151 -84q-72 0 -111.5 43t-39.5 122v390h114v-373q0 -77 78 -77q29 0 52 11.5t45 36.5v402h114v-543z" />
<glyph horiz-adv-x="540" d="M468 0h-101v72q-54 -84 -151 -84q-72 0 -111.5 43t-39.5 122v390h114v-373q0 -77 78 -77q29 0 52 11.5t45 36.5v402h114v-543zM165 654.5q-45 37.5 -52 113.5h68q17 -68 100 -68q43 0 68 18t33 50h65q-8 -76 -52.5 -113.5t-114.5 -37.5t-115 37.5z" />
<glyph horiz-adv-x="540" d="M468 0h-101v72q-54 -84 -151 -84q-72 0 -111.5 43t-39.5 122v390h114v-373q0 -77 78 -77q29 0 52 11.5t45 36.5v402h114v-543zM132 774v10h118l81 -159v-10h-83z" />
<glyph horiz-adv-x="518" d="M238 224l-52 -65v-159h-114v770h114v-469l174 242h138l-185 -227l197 -316h-136z" />
<glyph horiz-adv-x="518" d="M238 224l-52 -65v-159h-114v770h114v-469l174 242h138l-185 -227l197 -316h-136zM247 625l88 159h118v-10l-123 -159h-83v10z" />
<glyph horiz-adv-x="526" d="M261 428l-129 -428h-119l187 543h126l187 -543h-120z" />
<glyph horiz-adv-x="548" d="M440.5 511q40.5 -44 40.5 -123v-388h-114v373q0 76 -82 76q-55 0 -99 -40v-409h-114v543h100v-65q63 77 155 77q73 0 113.5 -44z" />
<glyph horiz-adv-x="831" d="M724.5 511q39.5 -44 39.5 -123v-388h-114v373q0 76 -78 76q-27 0 -50.5 -10t-47.5 -32q2 -12 2 -19v-388h-114v373q0 76 -79 76q-53 0 -97 -40v-409h-114v543h100v-65q63 77 153 77q48 0 82.5 -21t51.5 -60q63 81 156 81q70 0 109.5 -44z" />
<glyph horiz-adv-x="572" d="M543 96v-249h-83l-18 153h-6q-30 0 -50.5 16t-24.5 47q-52 -75 -145 -75q-72 0 -111.5 43t-39.5 122v390h114v-373q0 -77 78 -77q29 0 52 11.5t45 36.5v402h114v-403q0 -23 10.5 -33.5t31.5 -10.5h33z" />
<glyph horiz-adv-x="829" d="M657 0v70q-60 -82 -153 -82q-48 0 -82.5 22t-51.5 62q-63 -84 -155 -84q-71 0 -110 43.5t-39 122.5v389h114v-373q0 -77 77 -77q53 0 98 45q-1 8 -1 20v385h114v-373q0 -77 78 -77q25 0 51 12t46 35v403h114v-543h-100z" />
<glyph horiz-adv-x="860" d="M831 96v-249h-83l-18 153h-6q-30 0 -50.5 15.5t-24.5 46.5q-56 -74 -146 -74q-49 0 -82.5 22t-51.5 62q-64 -84 -156 -84q-70 0 -109 43.5t-39 122.5v389h114v-373q0 -77 76 -77q54 0 99 45q-2 16 -2 20v385h114v-373q0 -38 20 -57.5t58 -19.5q26 0 52 12t46 35v403h114 v-403q0 -23 10.5 -33.5t31.5 -10.5h33z" />
<glyph horiz-adv-x="540" d="M468 543v-543h-101v72q-29 -45 -70 -66v-6l-16 -153h-77l-14 143q-60 8 -92.5 50t-32.5 113v390h114v-373q0 -77 78 -77q29 0 52 11.5t45 36.5v402h114z" />
<glyph horiz-adv-x="511" d="M431 338.5q46 -44.5 46 -133.5q0 -68 -30.5 -117t-81.5 -74.5t-111 -25.5q-89 0 -140 50.5t-51 150.5v354h114v-207q60 47 132 47q76 0 122 -44.5zM331 117.5q29 29.5 29 79.5q0 46 -24 67.5t-66 21.5q-48 0 -93 -29v-61q0 -55 20 -81.5t62 -26.5q43 0 72 29.5z" />
<glyph horiz-adv-x="602" d="M521 338.5q46 -44.5 46 -133.5q0 -68 -30.5 -117t-81 -74.5t-110.5 -25.5q-89 0 -140 50.5t-51 150.5v257h-139v97h203h50v-207q60 47 131 47q76 0 122 -44.5zM421.5 117.5q28.5 29.5 28.5 79.5q0 46 -23.5 67.5t-65.5 21.5q-48 0 -93 -29v-61q0 -55 20 -81.5t62 -26.5 q43 0 71.5 29.5z" />
<glyph horiz-adv-x="722" d="M431 338.5q46 -44.5 46 -133.5q0 -68 -30.5 -117t-81.5 -74.5t-111 -25.5q-89 0 -140 50.5t-51 150.5v354h114v-207q60 47 132 47q76 0 122 -44.5zM650 543v-543h-114v543h114zM331 117.5q29 29.5 29 79.5q0 46 -24 67.5t-66 21.5q-48 0 -93 -29v-61q0 -55 20 -81.5 t62 -26.5q43 0 72 29.5z" />
<glyph horiz-adv-x="786" d="M705.5 338.5q45.5 -44.5 45.5 -133.5q0 -68 -30 -117t-80 -74.5t-109 -25.5q-87 0 -138.5 49.5t-51.5 148.5v248l-208 -434h-126l277 543h109h62v-205q57 45 129 45q75 0 120.5 -44.5zM606 117.5q28 29.5 28 79.5q0 46 -23 67.5t-64 21.5q-47 0 -91 -28v-65 q0 -54 19 -79.5t60 -25.5q43 0 71 29.5z" />
<glyph horiz-adv-x="805" d="M724.5 338.5q45.5 -44.5 45.5 -133.5q0 -68 -30 -117t-80 -74.5t-109 -25.5q-87 0 -138.5 49.5t-51.5 148.5v47h-175v-233h-114v543h114v-214h175v214h114v-205q57 45 129 45q75 0 120.5 -44.5zM625 117.5q28 29.5 28 79.5q0 46 -23 67.5t-64 21.5q-45 0 -91 -28v-65 q0 -54 19.5 -79.5t60.5 -25.5q42 0 70 29.5z" />
<glyph horiz-adv-x="285" d="M89.5 466q-18.5 19 -18.5 52q0 34 18.5 52.5t52.5 18.5t53 -19t19 -51q0 -34 -19 -53t-53 -19t-52.5 19zM89.5 146q-18.5 19 -18.5 52q0 34 18.5 52.5t52.5 18.5t53 -19t19 -51q0 -34 -19 -53t-53 -19t-52.5 19z" />
<glyph horiz-adv-x="285" d="M89.5 466q-18.5 19 -18.5 52q0 34 18.5 52.5t52.5 18.5t53 -19t19 -51q0 -34 -19 -53t-53 -19t-52.5 19zM89.5 146q-18.5 19 -18.5 52q0 34 18.5 52.5t52.5 18.5t53 -19t19 -51q0 -34 -19 -53t-53 -19t-52.5 19z" />
<glyph horiz-adv-x="503" d="M137 654.5q-45 37.5 -52 113.5h68q17 -68 100 -68q43 0 68 18t33 50h65q-8 -76 -52.5 -113.5t-114.5 -37.5t-115 37.5z" />
<glyph horiz-adv-x="503" d="M137 824.5q-45 37.5 -52 113.5h68q17 -68 100 -68q43 0 68 18t33 50h65q-8 -76 -52.5 -113.5t-114.5 -37.5t-115 37.5z" />
</font>
</defs>
</svg>
