<?xml version="1.0" encoding="utf-8"?><svg xmlns="http://www.w3.org/2000/svg" width="24" height="24" viewBox="0 0 24 24"><path fill-rule="evenodd" d="m1.176.532.004.002.014.005.055.02.214.078a56.812 56.812 0 0 0 3.536 1.132c2.027.575 4.477 1.137 6.501 1.22V2a.5.5 0 1 1 1 0v.99c2.024-.084 4.474-.646 6.501-1.221a56.788 56.788 0 0 0 3.75-1.21l.055-.02.014-.005.003-.002a.5.5 0 0 1 .353.936L23 1l.176.468-.005.002-.015.006-.058.021-.222.08a57.838 57.838 0 0 1-3.602 1.153c-2.05.582-4.613 1.177-6.774 1.26V5.5h1.25c.76 0 1.375.616 1.375 1.375v1.93a7.501 7.501 0 1 1-10.464 8.372.497.497 0 0 1-.04-.207 7.544 7.544 0 0 1-.12-1.345 7.48 7.48 0 0 1 2.4-5.5 7.51 7.51 0 0 1 1.974-1.32v-1.93c0-.76.616-1.375 1.375-1.375h1.25V3.99c-2.161-.083-4.723-.678-6.774-1.259A57.803 57.803 0 0 1 .903 1.497l-.058-.021-.016-.006-.005-.002L1 1l-.176.468a.5.5 0 0 1 .352-.936ZM10.25 6.5a.375.375 0 0 0-.375.375V8.43A7.502 7.502 0 0 1 12 8.125c.738 0 1.451.107 2.125.305V6.875a.375.375 0 0 0-.375-.375h-3.5Zm-2.949 4.634A6.478 6.478 0 0 0 5.558 16.5a3 3 0 0 0 2.942-3c0-1-.455-1.833-1.199-2.366Zm-1.53 6.357a4 4 0 0 0 3.73-3.991c0-1.254-.548-2.327-1.441-3.045A6.5 6.5 0 0 1 18.162 17.7a7.06 7.06 0 0 0-.976-.398c-3.472-1.124-7.225.524-8.627 3.838a6.515 6.515 0 0 1-2.787-3.65Zm3.678 4.114a6.5 6.5 0 0 0 8.32-2.983 6.04 6.04 0 0 0-.891-.369c-3.024-.979-6.26.483-7.43 3.352ZM13.5 12.5a1 1 0 1 0 0 2 1 1 0 0 0 0-2Zm-2 1a2 2 0 1 1 4 0 2 2 0 0 1-4 0Z" clip-rule="evenodd"/></svg>