<?xml version="1.0" encoding="utf-8"?><svg xmlns="http://www.w3.org/2000/svg" width="24" height="24" viewBox="0 0 24 24"><path fill-rule="evenodd" d="M5.5 1.5v6h13v-6h-13Zm14 2.05V1a.5.5 0 0 0-.5-.5H5a.5.5 0 0 0-.5.5v2.55A2.5 2.5 0 0 0 2.5 6v1.55A2.5 2.5 0 0 0 .5 10v7A2.5 2.5 0 0 0 3 19.5h1.5V23a.5.5 0 0 0 .5.5h14a.5.5 0 0 0 .5-.5v-3.5H21a2.5 2.5 0 0 0 2.5-2.5v-7a2.5 2.5 0 0 0-2-2.45V6a2.5 2.5 0 0 0-2-2.45Zm0 1.035V7.5h1V6a1.5 1.5 0 0 0-1-1.415Zm0 13.915h1V16a1.5 1.5 0 0 0-1-1.415V18.5Zm-1-4h-13v8h13v-8Zm-14 .085A1.5 1.5 0 0 0 3.5 16v2.5h1v-3.915Zm-2 3.83V16A2.5 2.5 0 0 1 5 13.5h14a2.5 2.5 0 0 1 2.5 2.5v2.415a1.5 1.5 0 0 0 1-1.415v-7A1.5 1.5 0 0 0 21 8.5H3A1.5 1.5 0 0 0 1.5 10v7a1.5 1.5 0 0 0 1 1.415ZM3.5 7.5h1V4.585A1.5 1.5 0 0 0 3.5 6v1.5Zm10 3.5a1.5 1.5 0 1 1 3 0 1.5 1.5 0 0 1-3 0Zm1.5-.5a.5.5 0 1 0 0 1 .5.5 0 0 0 0-1Zm2.5.5a1.5 1.5 0 1 1 3 0 1.5 1.5 0 0 1-3 0ZM3 11.5a.5.5 0 0 1 .5-.5h4a.5.5 0 0 1 0 1h-4a.5.5 0 0 1-.5-.5Zm16-1a.5.5 0 1 0 0 1 .5.5 0 0 0 0-1Zm-11 6a.5.5 0 0 1 .5-.5h7a.5.5 0 0 1 0 1h-7a.5.5 0 0 1-.5-.5Zm0 2a.5.5 0 0 1 .5-.5h7a.5.5 0 0 1 0 1h-7a.5.5 0 0 1-.5-.5Zm0 2a.5.5 0 0 1 .5-.5h7a.5.5 0 0 1 0 1h-7a.5.5 0 0 1-.5-.5Z" clip-rule="evenodd"/></svg>