<?xml version="1.0" encoding="utf-8"?><svg xmlns="http://www.w3.org/2000/svg" width="24" height="24" viewBox="0 0 24 24"><path fill-rule="evenodd" d="M12 1.5C6.201 1.5 1.5 6.201 1.5 12S6.201 22.5 12 22.5 22.5 17.799 22.5 12c0-1.169-.19-2.292-.543-3.341a.5.5 0 0 1 .948-.318c.386 1.15.595 2.38.595 3.659 0 6.351-5.149 11.5-11.5 11.5S.5 18.351.5 12 5.649.5 12 .5c1.231 0 2.418.194 3.531.552a.5.5 0 1 1-.306.952A10.493 10.493 0 0 0 12 1.5Zm8.544-1a.5.5 0 0 1 .5.5v2.044H23a.5.5 0 0 1 0 1h-1.956V6a.5.5 0 0 1-1 0V4.044H18a.5.5 0 0 1 0-1h2.044V1a.5.5 0 0 1 .5-.5ZM11 8.5a3 3 0 1 1 6 0v.4c0 .847-.351 1.612-.916 2.158.57.5.916 1.232.916 2.023v2.396a3 3 0 1 1-6 0v-2.4c0-.791.346-1.52.915-2.02A2.991 2.991 0 0 1 11 8.9v-.4Zm1.846 2.034-.003-.009-.006.002A1.997 1.997 0 0 1 12 8.9v-.4a2 2 0 1 1 4 0v.4c0 .67-.33 1.264-.837 1.627l-.005-.001-.002.006A1.99 1.99 0 0 1 14 10.9c-.43 0-.828-.136-1.154-.367Zm-.055 1.113a1.687 1.687 0 0 0-.791 1.43v2.4a2 2 0 1 0 4 0V13.08c0-.591-.307-1.129-.792-1.434A2.99 2.99 0 0 1 14 11.9c-.43 0-.839-.09-1.209-.253ZM8.682 5.835A.5.5 0 0 1 9 6.3v11.4a.5.5 0 1 1-1 0V7.576L6.367 9.34a.5.5 0 0 1-.734-.68l2.5-2.7a.5.5 0 0 1 .55-.125Z" clip-rule="evenodd"/></svg>