<?xml version="1.0" encoding="utf-8"?><svg xmlns="http://www.w3.org/2000/svg" width="24" height="24" viewBox="0 0 24 24"><path fill-rule="evenodd" d="M2.5 6A5.5 5.5 0 0 1 8 .5h10A5.5 5.5 0 0 1 23.5 6v1a.5.5 0 0 1-.5.5h-1v13h1a.5.5 0 0 1 .5.5 2.5 2.5 0 0 1-2.5 2.5H5A2.5 2.5 0 0 1 2.5 21a.5.5 0 0 1 .5-.5h1v-9H1a.5.5 0 0 1-.5-.5V9a.5.5 0 0 1 .5-.5h3v-1H3a.5.5 0 0 1-.5-.5V6ZM5 7.5v1h2a.5.5 0 0 1 .5.5v.5h1v-2H5Zm-1.5-1V6A4.5 4.5 0 0 1 8 1.5h10A4.5 4.5 0 0 1 22.5 6v.5h-19Zm13 1h-7V10a1.5 1.5 0 0 0 1.5 1.5h4a1.5 1.5 0 0 0 1.5-1.5V7.5Zm1 0H21v13h-5.171A4.491 4.491 0 0 0 17.5 17v-2a.5.5 0 0 0-.5-.5H9a.5.5 0 0 0-.5.5v.5h-.617c-.865 0-1.492.81-1.308 1.64a3.014 3.014 0 0 0 2.676 2.35c.254.381.565.722.92 1.01H5v-9h2a.5.5 0 0 0 .5-.5v-.5h1.05a2.5 2.5 0 0 0 2.45 2h4a2.5 2.5 0 0 0 2.5-2.5V7.5Zm-11 2v1h-5v-1h5Zm-2.915 12A1.5 1.5 0 0 0 5 22.5h16a1.5 1.5 0 0 0 1.415-1H3.585ZM8.7 18.329A4.486 4.486 0 0 1 8.501 17v-.5h-.617a.347.347 0 0 0-.332.423c.142.638.58 1.153 1.148 1.406ZM13 20.5a3.5 3.5 0 0 0 3.5-3.5v-1.5h-7V17a3.5 3.5 0 0 0 3.5 3.5Zm-3-17a.5.5 0 1 0 0 1 .5.5 0 0 0 0-1ZM8.5 4a1.5 1.5 0 1 1 3 0 1.5 1.5 0 0 1-3 0Zm7.5-.5a.5.5 0 1 0 0 1 .5.5 0 0 0 0-1Zm-1.5.5a1.5 1.5 0 1 1 3 0 1.5 1.5 0 0 1-3 0Z" clip-rule="evenodd"/></svg>