<?xml version="1.0" encoding="utf-8"?><svg xmlns="http://www.w3.org/2000/svg" width="24" height="24" viewBox="0 0 24 24"><path fill-rule="evenodd" d="M.5 1A.5.5 0 0 1 1 .5h2.124a1.5 1.5 0 0 1 1.487 1.302l1.383 10.373 3.506.658V11.59l-1.043-.09A.5.5 0 0 1 8 11V8.74a1.5 1.5 0 0 1 1.819-1.465l9.5 2.065a1.5 1.5 0 0 1 1.181 1.466V12a.5.5 0 0 1-.543.498L19 12.415v2.2l.765.144a2.5 2.5 0 0 1 1.99 1.967l.234 1.169A3 3 0 1 1 17.9 22h-7.278A4 4 0 1 1 5.5 16.035l-.402-3.01-.025-.005.014-.075L3.62 1.934a.5.5 0 0 0-.496-.434H1A.5.5 0 0 1 .5 1Zm5.634 12.219.322 2.419A4.006 4.006 0 0 1 11.47 19h6.432a2.999 2.999 0 0 1 2.994-1.474l-.12-.604a1.5 1.5 0 0 0-1.195-1.18L6.134 13.22ZM17.54 20h-6.07c-.043.35-.132.685-.26 1h6.332a3.018 3.018 0 0 1 0-1Zm.46-5.572v-2.1l-7.5-.652v1.345l7.5 1.407ZM9.606 8.252A.5.5 0 0 0 9 8.741v1.8l10.5.914v-.649a.5.5 0 0 0-.394-.489l-9.5-2.065ZM7.5 16.5a3 3 0 1 0 0 6 3 3 0 0 0 0-6Zm13 2a2 2 0 1 0 0 4 2 2 0 0 0 0-4Zm-14 1a1 1 0 1 1 2 0 1 1 0 0 1-2 0Z" clip-rule="evenodd"/></svg>