<?xml version="1.0" encoding="utf-8"?><svg xmlns="http://www.w3.org/2000/svg" width="24" height="24" viewBox="0 0 24 24"><path fill-rule="evenodd" d="M4.5 3A2.5 2.5 0 0 1 7 .5h10A2.5 2.5 0 0 1 19.5 3v18a2.5 2.5 0 0 1-2.5 2.5H7A2.5 2.5 0 0 1 4.5 21V3Zm10.806-1.5H8.694l.552 1.658a.5.5 0 0 0 .475.342h4.558a.5.5 0 0 0 .475-.342l.552-1.658Zm-7.666 0 .658 1.974A1.5 1.5 0 0 0 9.72 4.5h4.558a1.5 1.5 0 0 0 1.423-1.026L16.36 1.5H17A1.5 1.5 0 0 1 18.5 3v18a1.5 1.5 0 0 1-1.5 1.5H7A1.5 1.5 0 0 1 5.5 21V3A1.5 1.5 0 0 1 7 1.5h.64ZM9 20.5a.5.5 0 0 1 .5-.5h5a.5.5 0 0 1 0 1h-5a.5.5 0 0 1-.5-.5Z" clip-rule="evenodd"/></svg>