<?xml version="1.0" encoding="utf-8"?><svg xmlns="http://www.w3.org/2000/svg" width="24" height="24" viewBox="0 0 24 24"><path fill-rule="evenodd" d="M11.775 1.353c-.014.039-.13.191-.189.29a4.674 4.674 0 0 0-.366.768c-.23.632-.297 1.312.071 1.864.553.83.709 1.551.709 2.09 0 .267-.038.482-.08.637-.066.25-.35.707-.769.498-.33-.165-.273-.469-.197-.756.022-.08.046-.208.046-.379 0-.335-.094-.864-.541-1.535-.632-.948-.45-2.017-.179-2.76A5.65 5.65 0 0 1 10.9.86c.174-.257.488-.424.776-.208.22.165.193.44.1.7ZM2.5 9a.5.5 0 0 1 .5-.5h16a.5.5 0 0 1 .5.5v1h1.404a2.596 2.596 0 0 1 2.568 2.976l-.158 1.067c-.509 3.432-2.943 6.197-6.347 6.908l-.957 1.436a2.5 2.5 0 0 1-2.08 1.113H7.5a.5.5 0 0 1 0-1h6.43a1.5 1.5 0 0 0 1.248-.668l1.072-1.609.001-.001.317-.476a11.5 11.5 0 0 0 1.932-6.38V9.5h-15V12a.5.5 0 0 1-1 0V9Zm17 2v2.367a12.5 12.5 0 0 1-1.708 6.307c2.426-.909 4.135-3.096 4.533-5.777l.158-1.068A1.596 1.596 0 0 0 20.905 11H19.5ZM2.164 14.164a5.898 5.898 0 0 1 3.099-1.595c1.15-.195 2.38.003 3.265.888a.55.55 0 0 1 .148.276.677.677 0 0 1 .013.162.967.967 0 0 1-.01.105.927.927 0 0 1 .15-.006.61.61 0 0 1 .406.17c.874.874 1.06 2.115.868 3.265-.194 1.152-.778 2.302-1.575 3.1a5.899 5.899 0 0 1-3.099 1.595c-1.15.194-2.38-.004-3.265-.889a.55.55 0 0 1-.148-.276.677.677 0 0 1-.013-.162.99.99 0 0 1 .012-.12.978.978 0 0 1-.12.012.682.682 0 0 1-.162-.013.55.55 0 0 1-.276-.148c-.885-.884-1.083-2.115-.889-3.265a5.898 5.898 0 0 1 1.596-3.099Zm1.094 5.978a4.1 4.1 0 0 0-.216.54c.576.463 1.365.6 2.22.456a4.9 4.9 0 0 0 2.559-1.317c.645-.645 1.135-1.602 1.295-2.558.147-.874.009-1.674-.45-2.238a3.016 3.016 0 0 0-.509.218l-.002.002-4.897 4.897Zm-.707-.707 4.883-4.884a4.105 4.105 0 0 0 .216-.54c-.576-.464-1.365-.601-2.22-.457a4.9 4.9 0 0 0-2.559 1.317 4.9 4.9 0 0 0-1.317 2.558c-.144.856-.007 1.645.457 2.222a4.117 4.117 0 0 0 .54-.216Z" clip-rule="evenodd"/><path d="M6.506 2.829a1.47 1.47 0 0 0-.179.425c-.094.376-.073.873.226 1.47.201.403.18.656.15.78a.438.438 0 0 1-.07.156A.5.5 0 0 0 7 6.5c.128 0 .3-.093.355-.147.053-.055.099-.117.14-.182a1.5 1.5 0 0 0 .178-.425c.094-.376.073-.873-.226-1.47-.201-.403-.18-.656-.15-.78a.48.48 0 0 1 .07-.156.5.5 0 0 0-.014-.694c-.286-.287-.665-.11-.847.183Zm8.172.182c-.063.1-.132.243-.178.425-.094.376-.073.873.225 1.47.202.403.181.656.15.78a.44.44 0 0 1-.069.156.5.5 0 0 0 .367.84c.128 0 .3-.093.354-.147.054-.055.1-.117.14-.181.063-.101.133-.243.178-.425.094-.376.073-.873-.225-1.47-.202-.403-.18-.656-.15-.78a.478.478 0 0 1 .069-.156.5.5 0 0 0-.013-.694c-.287-.287-.665-.11-.848.182Z"/></svg>