<?xml version="1.0" encoding="utf-8"?><svg xmlns="http://www.w3.org/2000/svg" width="24" height="24" viewBox="0 0 24 24"><path fill-rule="evenodd" d="M.809.538a.5.5 0 0 1 .545.108L4.207 3.5H8.5V1A.5.5 0 0 1 9 .5h2.5a.5.5 0 0 1 .384.18l2.35 2.82h5.352A3.914 3.914 0 0 1 23.5 7.414v.145A1.44 1.44 0 0 1 22.059 9h-8.72l-1.415 2.265a.5.5 0 0 1-.424.235H9a.5.5 0 0 1-.5-.5V9H3.961a2.5 2.5 0 0 1-1.952-.938l-.523-.654A4.5 4.5 0 0 1 .5 4.597V1A.5.5 0 0 1 .809.538ZM8.5 8V7a.5.5 0 0 1 .5-.5h5a.5.5 0 0 1 .424.765l-.46.735h8.095a.44.44 0 0 0 .441-.44v-.146c0-.115-.007-.23-.02-.343H20.5a2.5 2.5 0 0 1-2.5-2.5V4.5H4a.5.5 0 0 1-.354-.146L1.5 2.207v2.39a3.5 3.5 0 0 0 .767 2.186l.523.654A1.5 1.5 0 0 0 3.961 8H8.5ZM19 4.5v.071a1.5 1.5 0 0 0 1.5 1.5h1.672A2.913 2.913 0 0 0 19.586 4.5H19Zm-6.068-1-1.666-2H9.5v2h3.432ZM9.5 7.5v3h1.723l1.875-3H9.5Zm-6.987 15a9.663 9.663 0 0 0-.013.5.5.5 0 1 1-1 0c0-5.799 4.701-10.5 10.5-10.5S22.5 17.201 22.5 23h-1c0-.865-.116-1.703-.332-2.5h-3.674a1.762 1.762 0 0 1-1.761-1.762.13.13 0 0 0-.131-.13h-2.638a1.464 1.464 0 0 1 0-2.929h.447a.211.211 0 0 0 .205-.212c0-.677.346-1.283.873-1.638A9.514 9.514 0 0 0 12 13.5a9.488 9.488 0 0 0-7.747 4h2.002c1.012 0 1.833.82 1.833 1.833 0 .092.075.167.167.167H9.5a1.5 1.5 0 0 1 0 3H2.513Zm.105-1H9.5a.5.5 0 1 0 0-1H8.255a1.167 1.167 0 0 1-1.167-1.167.833.833 0 0 0-.833-.833H3.63a9.434 9.434 0 0 0-1.013 3Zm13.615-7.007v.007h-.664a.965.965 0 0 0-.953.967 1.21 1.21 0 0 1-1.205 1.212h-.447a.464.464 0 0 0 0 .929h2.638c.624 0 1.13.506 1.13 1.13 0 .421.341.762.762.762h3.34a9.535 9.535 0 0 0-4.601-5.007Z" clip-rule="evenodd"/></svg>