<?xml version="1.0" encoding="utf-8"?><svg xmlns="http://www.w3.org/2000/svg" width="24" height="24" viewBox="0 0 24 24"><path fill-rule="evenodd" d="M8.126 3.51A7 7 0 0 0 1.5 10.5v6a7 7 0 1 0 14 0v-6a7 7 0 0 0-6.33-6.968c.21-.554.602-.979 1.1-1.299.776-.499 1.801-.733 2.73-.733 1.835 0 3.5 1.166 3.5 3v4c0 .691.307 1.432.816 1.998.515.574 1.269 1.002 2.184 1.002.915 0 1.669-.428 2.184-1.002.51-.566.816-1.307.816-1.998V5a.5.5 0 0 0-1 0v3.5c0 .413-.193.922-.56 1.33-.359.4-.855.67-1.44.67s-1.081-.27-1.44-.67c-.367-.408-.56-.917-.56-1.33v-4c0-2.584-2.335-4-4.5-4-1.071 0-2.296.266-3.27.892-.75.481-1.353 1.181-1.604 2.118ZM8 4.52a6 6 0 0 0-5.5 5.98V12H8v-1.563A2 2 0 0 1 6.5 8.5v-1A2 2 0 0 1 8 5.563V4.521Zm1 1.043A2 2 0 0 1 10.5 7.5v1A2 2 0 0 1 9 10.437V12h5.5v-1.5A6 6 0 0 0 9 4.52v1.043ZM14.5 13h-12v3.5a6 6 0 0 0 12 0V13Zm-6-6.5a1 1 0 0 0-1 1v1a1 1 0 1 0 2 0v-1a1 1 0 0 0-1-1Z" clip-rule="evenodd"/></svg>