<?xml version="1.0" encoding="utf-8"?><svg xmlns="http://www.w3.org/2000/svg" width="24" height="24" viewBox="0 0 24 24"><path fill-rule="evenodd" d="M.514 3.262C.357 1.78 1.53.5 3.021.5h6.623c1.491 0 2.664 1.28 2.507 2.762l-1.595 15a2.495 2.495 0 0 1-1.198 1.875V22c0 .833-.681 1.5-1.51 1.5h-3.03c-.83 0-1.511-.667-1.511-1.5v-1.863a2.495 2.495 0 0 1-1.198-1.875l-1.595-15ZM4.616 19.5h3.433c.782 0 1.431-.584 1.512-1.343L10.854 6H1.81l1.293 12.157c.08.76.73 1.343 1.512 1.343ZM1.705 5h1.602V3a.5.5 0 0 1 1 0v2h1.525V3a.5.5 0 0 1 1 0v2h1.526V3a.5.5 0 0 1 1 0v2h1.52c.028 0 .055.002.081.007l.197-1.85A1.508 1.508 0 0 0 9.644 1.5H3.021c-.908 0-1.606.777-1.512 1.656L1.705 5Zm2.602 15.5V22c0 .271.224.5.51.5h3.03c.287 0 .51-.229.51-.5v-1.5h-4.05ZM15.429 4c0-.833.68-1.5 1.51-1.5h1.01c.83 0 1.51.667 1.51 1.5v4.5h.51c.83 0 1.51.667 1.51 1.5v3.026A5.96 5.96 0 0 1 23.5 17.5c0 3.319-2.716 6-6.056 6s-6.056-2.681-6.056-6a5.96 5.96 0 0 1 2.02-4.474V10c0-.833.681-1.5 1.51-1.5h.51V4Zm1 4.5h2.03V4c0-.271-.223-.5-.51-.5h-1.01a.505.505 0 0 0-.51.5v4.5Zm-1.51 1a.505.505 0 0 0-.51.5v2.307a6.073 6.073 0 0 1 3.035-.807c1.106 0 2.143.294 3.036.807V10c0-.271-.224-.5-.51-.5h-5.051Zm5.738 4.14a5.068 5.068 0 0 0-3.213-1.14 5.068 5.068 0 0 0-3.225 1.15 4.97 4.97 0 0 0-1.83 3.85c0 2.757 2.258 5 5.055 5 2.797 0 5.056-2.243 5.056-5a4.97 4.97 0 0 0-1.843-3.86Zm.323 2.86a.5.5 0 0 1 .5.5c0 2.49-2.038 4.5-4.54 4.5a.5.5 0 0 1 0-1c1.96 0 3.54-1.572 3.54-3.5a.5.5 0 0 1 .5-.5Z" clip-rule="evenodd"/></svg>