<?xml version="1.0" encoding="utf-8"?><svg xmlns="http://www.w3.org/2000/svg" width="24" height="24" viewBox="0 0 24 24"><path fill-rule="evenodd" d="M11.5 3A2.5 2.5 0 0 1 14 .5h6A2.5 2.5 0 0 1 22.5 3v18a2.5 2.5 0 0 1-2.5 2.5H4A2.5 2.5 0 0 1 1.5 21V8a2.5 2.5 0 0 1 2-2.45V4A1.5 1.5 0 0 1 5 2.5h4A1.5 1.5 0 0 1 10.5 4v1.5h.5a.5.5 0 0 0 .5-.5V3ZM4 6.5A1.5 1.5 0 0 0 2.5 8v2h19V3A1.5 1.5 0 0 0 20 1.5h-6A1.5 1.5 0 0 0 12.5 3v2A1.5 1.5 0 0 1 11 6.5H4ZM21.5 11h-19v7h19v-7Zm0 8h-19v2A1.5 1.5 0 0 0 4 22.5h16a1.5 1.5 0 0 0 1.5-1.5v-2ZM9.5 5.5V4a.5.5 0 0 0-.5-.5h-.5v2h1Zm-2 0v-2h-1v2h1Zm-2 0v-2H5a.5.5 0 0 0-.5.5v1.5h1Zm8-1.5A1.5 1.5 0 0 1 15 2.5h4A1.5 1.5 0 0 1 20.5 4v2a.5.5 0 0 1-.5.5h-6a.5.5 0 0 1-.5-.5V4Zm1.5-.5a.5.5 0 0 0-.5.5v1.5h5V4a.5.5 0 0 0-.5-.5h-4Z" clip-rule="evenodd"/></svg>