<?xml version="1.0" encoding="utf-8"?><svg xmlns="http://www.w3.org/2000/svg" width="24" height="24" viewBox="0 0 24 24"><path fill-rule="evenodd" d="M8.965 3.06A8.545 8.545 0 0 0 3.5 11.045v4.208a5.523 5.523 0 0 0 4.307 5.396l3.434.767c.5.112 1.018.112 1.518 0l3.434-.767a5.523 5.523 0 0 0 4.307-5.397v-4.208C20.5 6.323 16.692 2.5 12 2.5c-.595 0-1.175.061-1.735.178.28.173.603.376.945.599 1.063.69 2.353 1.595 3.144 2.39.909.913 1.073 2.26.65 3.358-.43 1.12-1.48 2.017-3.004 2.017s-2.574-.897-3.004-2.017c-.423-1.098-.259-2.445.65-3.358a.5.5 0 0 1 .708.705c-.591.595-.727 1.51-.425 2.294.294.765.994 1.376 2.071 1.376 1.077 0 1.777-.61 2.071-1.376.302-.785.166-1.7-.425-2.294-.71-.712-1.919-1.566-2.981-2.257a47.604 47.604 0 0 0-1.7-1.054Zm-.23-.981a9.546 9.546 0 0 0-6.223 8.474A2.22 2.22 0 0 0 .5 12.767v1.579c0 1.198.945 2.178 2.133 2.221a6.517 6.517 0 0 0 4.956 5.058l3.434.767c.644.144 1.31.144 1.954 0l3.434-.767a6.517 6.517 0 0 0 4.956-5.058 2.22 2.22 0 0 0 2.133-2.221v-1.58a2.22 2.22 0 0 0-2.012-2.213C21.233 5.513 17.085 1.5 12 1.5c-1.071 0-2.1.178-3.06.506a.502.502 0 0 0-.206.073ZM21.5 11.563v3.987c.567-.102 1-.6 1-1.204v-1.58a1.22 1.22 0 0 0-1-1.203Zm-19 3.69v-3.69c-.567.102-1 .6-1 1.204v1.579a1.22 1.22 0 0 0 1 1.204v-.297Zm5-1.697a1.001 1.001 0 1 1 1 1.003c-.555 0-1-.451-1-1.003Zm7 0a1.001 1.001 0 1 1 1 1.003c-.555 0-1-.451-1-1.003ZM9.147 16.72a.5.5 0 0 1 .707.002 3.023 3.023 0 0 0 4.292 0 .5.5 0 1 1 .708.705 4.023 4.023 0 0 1-5.708 0 .5.5 0 0 1 .001-.707Z" clip-rule="evenodd"/></svg>