<?xml version="1.0" encoding="utf-8"?><svg xmlns="http://www.w3.org/2000/svg" width="24" height="24" viewBox="0 0 24 24"><path fill-rule="evenodd" d="M12 1.5a1.5 1.5 0 1 0 0 3 1.5 1.5 0 0 0 0-3Zm2 3a2.5 2.5 0 1 0-4 0H5.143A2.643 2.643 0 0 0 2.5 7.143c0 .473.384.857.857.857h17.286a.857.857 0 0 0 .857-.857A2.643 2.643 0 0 0 18.857 4.5H14Zm-8.857 1c-.86 0-1.564.66-1.637 1.5h16.988a1.643 1.643 0 0 0-1.637-1.5H5.143Zm15.357 6A1.5 1.5 0 0 0 19 10H5a1.5 1.5 0 0 0-1.5 1.5V19A3.5 3.5 0 0 0 7 22.5h10a3.5 3.5 0 0 0 3.5-3.5v-7.5Zm1 .5v-.5A2.5 2.5 0 0 0 19 9H5a2.5 2.5 0 0 0-2.5 2.5v.5H1a.5.5 0 0 0 0 1h1.5v6A4.5 4.5 0 0 0 7 23.5h10a4.5 4.5 0 0 0 4.5-4.5v-6H23a.5.5 0 0 0 0-1h-1.5Zm-2.5.5v4h-1v-4h1Z" clip-rule="evenodd"/></svg>