<?xml version="1.0" encoding="utf-8"?><svg xmlns="http://www.w3.org/2000/svg" width="24" height="24" viewBox="0 0 24 24"><path fill-rule="evenodd" d="M12 1.5C6.201 1.5 1.5 6.201 1.5 12S6.201 22.5 12 22.5 22.5 17.799 22.5 12 17.799 1.5 12 1.5ZM.5 12C.5 5.649 5.649.5 12 .5S23.5 5.649 23.5 12 18.351 23.5 12 23.5.5 18.351.5 12Zm9.864-5.5a.045.045 0 0 0-.046.045v3.773H6.545a.045.045 0 0 0-.045.046v3.272c0 .026.02.046.045.046h3.773v3.772c0 .026.02.046.046.046h3.272c.026 0 .046-.02.046-.046v-3.772h3.772c.026 0 .046-.02.046-.046v-3.272a.045.045 0 0 0-.046-.046h-3.772V6.545a.045.045 0 0 0-.046-.045h-3.272Zm-1.046.045c0-.577.468-1.045 1.046-1.045h3.272c.578 0 1.046.468 1.046 1.045v2.773h2.772c.578 0 1.046.468 1.046 1.046v3.272c0 .578-.468 1.046-1.046 1.046h-2.772v2.772c0 .578-.468 1.046-1.046 1.046h-3.272a1.045 1.045 0 0 1-1.046-1.046v-2.772H6.545A1.045 1.045 0 0 1 5.5 13.636v-3.272c0-.578.468-1.046 1.045-1.046h2.773V6.545Z" clip-rule="evenodd"/></svg>