<?xml version="1.0" encoding="utf-8"?><svg xmlns="http://www.w3.org/2000/svg" width="24" height="24" viewBox="0 0 24 24"><path d="M21.55 23H2.45A1.45 1.45 0 0 1 1 21.55V2.45A1.45 1.45 0 0 1 2.45 1h19.1A1.45 1.45 0 0 1 23 2.45v19.1A1.45 1.45 0 0 1 21.55 23ZM2.45 2a.45.45 0 0 0-.45.45v19.1a.45.45 0 0 0 .45.45h19.1a.45.45 0 0 0 .45-.45V2.45a.45.45 0 0 0-.45-.45H2.45Zm17.66 19.09a1 1 0 1 1 0-2 1 1 0 0 1 0 2Zm-16.22 0a1 1 0 1 1-.445-1.951 1 1 0 0 1 .445 1.951Zm8.11-.95A8.14 8.14 0 1 1 20.14 12 8.15 8.15 0 0 1 12 20.14Zm-2.8-1.57a7.4 7.4 0 0 0 5.73-.06 4.76 4.76 0 0 1-3.41-4.15 2.35 2.35 0 0 1-1.29-.73 3.76 3.76 0 0 0-1.41 2.06 3.83 3.83 0 0 0 .38 2.88Zm-4.28-5.71a7.1 7.1 0 0 0 2.9 4.92 4.92 4.92 0 0 1 0-2.35 4.74 4.74 0 0 1 1.87-2.66s0-.1-.05-.15a2.44 2.44 0 0 1 0-1.34 3.76 3.76 0 0 0-4.78 1.58h.06Zm7.6 1.49a3.8 3.8 0 0 0 2.315 3.067c.458.19.95.285 1.445.283a7.108 7.108 0 0 0 2.82-5 4.8 4.8 0 0 1-5.29.88 2.45 2.45 0 0 1-1.19.73l-.1.04Zm-1.73-1.62c.123.206.3.375.51.49.206.122.44.187.68.19a1.33 1.33 0 0 0 .34-.05 1.42 1.42 0 0 0 .86-.65 1.36 1.36 0 0 0 .14-1.06 1.4 1.4 0 0 0-1.35-1.04 1.336 1.336 0 0 0-.35.05 1.401 1.401 0 0 0-.87 2.04v.05l.04-.02Zm3.51 0a3.8 3.8 0 0 0 2.49.19 3.74 3.74 0 0 0 2.29-1.77 7.1 7.1 0 0 0-2.9-4.92 4.8 4.8 0 0 1 0 2.35 4.68 4.68 0 0 1-1.86 2.66s0 .1.05.15c.105.44.081.903-.07 1.33v.01ZM7.72 6.3a7.11 7.11 0 0 0-2.82 5A4.67 4.67 0 0 1 7 10.13a4.76 4.76 0 0 1 3.24.27 2.4 2.4 0 0 1 1.18-.73h.09A3.79 3.79 0 0 0 7.72 6.3Zm4.76 3.34a2.35 2.35 0 0 1 1.29.73 3.76 3.76 0 0 0 1.41-2.06 3.83 3.83 0 0 0-.38-2.88 7.4 7.4 0 0 0-5.73.06 4.83 4.83 0 0 1 3.41 4.15Zm7.63-4.78a1 1 0 0 1 0-1.95 1 1 0 1 1 0 2v-.05Zm-16.22 0a1 1 0 1 1 0-2 1 1 0 0 1 0 2Z"/></svg>