<?xml version="1.0" encoding="utf-8"?><svg xmlns="http://www.w3.org/2000/svg" width="24" height="24" viewBox="0 0 24 24"><path fill-rule="evenodd" d="M4.5.5A.5.5 0 0 1 5 1v1.5h1.5V1a.5.5 0 0 1 1 0v1.5H9V1a.5.5 0 0 1 1 0v1.5h11A1.5 1.5 0 0 1 22.5 4v18a1.5 1.5 0 0 1-1.5 1.5H3A1.5 1.5 0 0 1 1.5 22V4A1.5 1.5 0 0 1 3 2.5h1V1a.5.5 0 0 1 .5-.5ZM3 3.5a.5.5 0 0 0-.5.5v18a.5.5 0 0 0 .5.5h18a.5.5 0 0 0 .5-.5V4a.5.5 0 0 0-.5-.5H3Zm4.3 5.507A6.142 6.142 0 0 0 5.833 13c0 1.523.552 2.917 1.467 3.993l2.454-2.454A2.71 2.71 0 0 1 9.278 13c0-.571.176-1.1.476-1.539L7.3 9.007Zm-.709-.709A7.14 7.14 0 0 0 4.833 13a7.14 7.14 0 0 0 1.758 4.702L4.98 19.313a.5.5 0 1 0 .707.707l1.611-1.611A7.14 7.14 0 0 0 12 20.167a7.14 7.14 0 0 0 4.702-1.758l1.611 1.611a.5.5 0 1 0 .707-.707l-1.611-1.611A7.14 7.14 0 0 0 19.167 13a7.14 7.14 0 0 0-1.758-4.702l1.611-1.611a.5.5 0 1 0-.707-.707l-1.611 1.61A7.14 7.14 0 0 0 12 5.833c-1.8 0-3.443.663-4.702 1.758L5.687 5.98a.5.5 0 1 0-.707.707l1.61 1.611Zm1.416.002 2.454 2.454A2.71 2.71 0 0 1 12 10.278c.571 0 1.1.175 1.539.476L15.993 8.3A6.143 6.143 0 0 0 12 6.833 6.142 6.142 0 0 0 8.007 8.3Zm8.693.707-2.454 2.454c.3.438.476.968.476 1.539 0 .57-.175 1.1-.476 1.539l2.454 2.454A6.142 6.142 0 0 0 18.167 13 6.143 6.143 0 0 0 16.7 9.007Zm-.707 8.693-2.454-2.454a2.71 2.71 0 0 1-1.539.476 2.71 2.71 0 0 1-1.539-.476L8.007 17.7A6.142 6.142 0 0 0 12 19.167a6.142 6.142 0 0 0 3.993-1.467ZM12 11.278a1.722 1.722 0 1 0 0 3.444 1.722 1.722 0 0 0 0-3.444Z" clip-rule="evenodd"/></svg>