<?xml version="1.0" encoding="utf-8"?><svg xmlns="http://www.w3.org/2000/svg" width="24" height="24" viewBox="0 0 24 24"><path fill-rule="evenodd" d="M3.5 2A1.5 1.5 0 0 1 5 .5h14A1.5 1.5 0 0 1 20.5 2v20a1.5 1.5 0 0 1-1.5 1.5H5A1.5 1.5 0 0 1 3.5 22V2Zm14-.5h-2v3h2v-3Zm.5 4a.5.5 0 0 0 .5-.5V1.5h.5a.5.5 0 0 1 .5.5v20a.5.5 0 0 1-.5.5H5a.5.5 0 0 1-.5-.5V2a.5.5 0 0 1 .5-.5h.5V5a.5.5 0 0 0 .5.5h12Zm-3.5-1v-3h-2v3h2Zm-3 0v-3h-2v3h2Zm-3 0v-3h-2v3h2ZM5.5 8a.5.5 0 0 1 .5-.5h12a.5.5 0 0 1 .5.5v13a.5.5 0 0 1-.5.5H6a.5.5 0 0 1-.5-.5V8Zm1 .5v12h11v-12h-11Zm1 1.5a.5.5 0 0 1 .5-.5h1a.5.5 0 0 1 .5.5v1a.5.5 0 0 1-.5.5H8a.5.5 0 0 1-.5-.5v-1Zm7 0a.5.5 0 0 1 .5-.5h1a.5.5 0 0 1 .5.5v1a.5.5 0 0 1-.5.5h-1a.5.5 0 0 1-.5-.5v-1Zm-7 8a.5.5 0 0 1 .5-.5h1a.5.5 0 0 1 .5.5v1a.5.5 0 0 1-.5.5H8a.5.5 0 0 1-.5-.5v-1Zm7 0a.5.5 0 0 1 .5-.5h1a.5.5 0 0 1 .5.5v1a.5.5 0 0 1-.5.5h-1a.5.5 0 0 1-.5-.5v-1Z" clip-rule="evenodd"/></svg>