<?xml version="1.0" encoding="utf-8"?><svg xmlns="http://www.w3.org/2000/svg" width="24" height="24" viewBox="0 0 24 24"><path fill-rule="evenodd" d="M6 23.5A1.5 1.5 0 0 1 4.5 22V2A1.5 1.5 0 0 1 6 .5h.723a1.5 1.5 0 0 1 .772.214l1.233.74a1.5 1.5 0 0 0 1.544 0l1.233-.74A1.5 1.5 0 0 1 12.277.5H14a1.5 1.5 0 0 1 1.415 1H18A1.5 1.5 0 0 1 19.5 3v10a1.5 1.5 0 0 1-1.5 1.5h-2.5v1H18a1.5 1.5 0 0 1 1.5 1.5v4a1.5 1.5 0 0 1-1.5 1.5h-2.585a1.5 1.5 0 0 1-1.415 1h-1.723a1.5 1.5 0 0 1-.772-.214l-1.233-.74a1.5 1.5 0 0 0-1.544 0l-1.233.74a1.5 1.5 0 0 1-.772.214H6Zm9.5-2H18a.5.5 0 0 0 .5-.5v-4a.5.5 0 0 0-.5-.5h-2.5v2H17a.5.5 0 0 1 0 1h-1.5v2ZM14.5 2a.5.5 0 0 0-.5-.5h-1.723a.5.5 0 0 0-.257.071l-1.234.74a2.5 2.5 0 0 1-2.572 0l-1.234-.74a.5.5 0 0 0-.257-.071H6a.5.5 0 0 0-.5.5v20a.5.5 0 0 0 .5.5h.723a.5.5 0 0 0 .257-.071l1.234-.74a2.5 2.5 0 0 1 2.572 0l1.234.74a.5.5 0 0 0 .257.071H14a.5.5 0 0 0 .5-.5V2Zm1 .5v2H17a.5.5 0 0 1 0 1h-1.5v2H17a.5.5 0 0 1 0 1h-1.5v2H17a.5.5 0 0 1 0 1h-1.5v2H18a.5.5 0 0 0 .5-.5V3a.5.5 0 0 0-.5-.5h-2.5ZM8 19.5A1.5 1.5 0 0 1 6.5 18v-1A1.5 1.5 0 0 1 8 15.5h4a1.5 1.5 0 0 1 1.5 1.5v1a1.5 1.5 0 0 1-1.5 1.5H8ZM7.5 18a.5.5 0 0 0 .5.5h4a.5.5 0 0 0 .5-.5v-1a.5.5 0 0 0-.5-.5H8a.5.5 0 0 0-.5.5v1Zm.5-3.5A1.5 1.5 0 0 1 6.5 13v-2A1.5 1.5 0 0 1 8 9.5h4a1.5 1.5 0 0 1 1.5 1.5v2a1.5 1.5 0 0 1-1.5 1.5H8ZM7.5 13a.5.5 0 0 0 .5.5h4a.5.5 0 0 0 .5-.5v-2a.5.5 0 0 0-.5-.5H8a.5.5 0 0 0-.5.5v2ZM8 8.5A1.5 1.5 0 0 1 6.5 7V6A1.5 1.5 0 0 1 8 4.5h4A1.5 1.5 0 0 1 13.5 6v1A1.5 1.5 0 0 1 12 8.5H8ZM7.5 7a.5.5 0 0 0 .5.5h4a.5.5 0 0 0 .5-.5V6a.5.5 0 0 0-.5-.5H8a.5.5 0 0 0-.5.5v1Z" clip-rule="evenodd"/></svg>