<?xml version="1.0" encoding="utf-8"?><svg xmlns="http://www.w3.org/2000/svg" width="24" height="24" viewBox="0 0 24 24"><path fill-rule="evenodd" d="M3.5 2A1.5 1.5 0 0 1 5 .5h14A1.5 1.5 0 0 1 20.5 2v20a1.5 1.5 0 0 1-1.5 1.5H5A1.5 1.5 0 0 1 3.5 22V2Zm5 20.5h7V21a.5.5 0 0 0-.5-.5H9a.5.5 0 0 0-.5.5v1.5Zm8 0V21a1.5 1.5 0 0 0-1.5-1.5H9A1.5 1.5 0 0 0 7.5 21v1.5H5a.5.5 0 0 1-.5-.5V8h15v14a.5.5 0 0 1-.5.5h-2.5Zm3-15.5V5h-15v2h15Zm-15-3h15V2a.5.5 0 0 0-.5-.5H5a.5.5 0 0 0-.5.5v2Zm7.5 7.5a2.5 2.5 0 1 0 0 5 2.5 2.5 0 0 0 0-5ZM8.5 14a3.5 3.5 0 1 1 7 0 3.5 3.5 0 0 1-7 0Z" clip-rule="evenodd"/></svg>