<?xml version="1.0" encoding="utf-8"?><svg xmlns="http://www.w3.org/2000/svg" width="24" height="24" viewBox="0 0 24 24"><path d="M16.5 7.5a1 1 0 1 0 0-2 1 1 0 0 0 0 2Zm3 0a1 1 0 1 0 0-2 1 1 0 0 0 0 2Z"/><path d="M23 .5a.5.5 0 0 0-.5.5v9a.5.5 0 0 1-.5.5H2a.5.5 0 0 1-.5-.5V7H12a.5.5 0 0 0 0-1H1.5V1a.5.5 0 0 0-1 0v9A1.5 1.5 0 0 0 2 11.5h1.5v11h-1a.5.5 0 0 0 0 1h19a.5.5 0 0 0 0-1h-1v-11H22a1.5 1.5 0 0 0 1.5-1.5V1a.5.5 0 0 0-.5-.5Zm-7.55 11a3.48 3.48 0 0 1-6.9 0h6.9Zm4.05 11h-15V16a8.5 8.5 0 0 0 15 0v6.5Zm-7.5-3A7.5 7.5 0 0 1 4.5 12v-.5h3.05a4.48 4.48 0 0 0 8.9 0h3.05v.5a7.5 7.5 0 0 1-7.5 7.5Z"/></svg>