<?xml version="1.0" encoding="utf-8"?><svg xmlns="http://www.w3.org/2000/svg" width="24" height="24" viewBox="0 0 24 24"><path fill-rule="evenodd" d="M.5 3a.5.5 0 0 1 .5-.5h2.5A.5.5 0 0 1 4 3v.5h18A1.5 1.5 0 0 1 23.5 5v12a1.5 1.5 0 0 1-1.5 1.5h-1.5V20a1.5 1.5 0 0 1-1.5 1.5h-6a1.5 1.5 0 0 1-1.5-1.5v-1.5h-1V20A1.5 1.5 0 0 1 9 21.5H7A1.5 1.5 0 0 1 5.5 20v-1.5H4V21a.5.5 0 0 1-1 0V3.5H1A.5.5 0 0 1 .5 3ZM4 14.5v3h18a.5.5 0 0 0 .5-.5V5a.5.5 0 0 0-.5-.5H4v3h10.171a4.5 4.5 0 1 1 0 7H4Zm9.258-1A4.478 4.478 0 0 1 12.5 11c0-.925.28-1.785.758-2.5H4v5h9.258Zm2.242 5h-3V20a.5.5 0 0 0 .5.5h2.5v-2Zm1 2v-2h3V20a.5.5 0 0 1-.5.5h-2.5Zm-10-2V20a.5.5 0 0 0 .5.5h2a.5.5 0 0 0 .5-.5v-1.5h-3ZM17 7.5a3.5 3.5 0 1 0 0 7 3.5 3.5 0 0 0 0-7Zm0 3a.5.5 0 1 0 0 1 .5.5 0 0 0 0-1Zm-1.5.5a1.5 1.5 0 1 1 3 0 1.5 1.5 0 0 1-3 0Zm-10 0a.5.5 0 0 1 .5-.5h3a.5.5 0 0 1 0 1H6a.5.5 0 0 1-.5-.5Z" clip-rule="evenodd"/></svg>