<?xml version="1.0" encoding="utf-8"?><svg xmlns="http://www.w3.org/2000/svg" width="16" height="16" viewBox="0 0 16 16"><path fill-rule="evenodd" d="M2.667.833a.5.5 0 0 1 .5.5v5.334a.5.5 0 1 1-1 0V1.333a.5.5 0 0 1 .5-.5ZM8 .833a.5.5 0 0 1 .5.5v3.5H10a.5.5 0 1 1 0 1H6a.5.5 0 0 1 0-1h1.5v-3.5a.5.5 0 0 1 .5-.5Zm5.333 0a.5.5 0 0 1 .5.5V8a.5.5 0 1 1-1 0V1.333a.5.5 0 0 1 .5-.5ZM8 7.5a.5.5 0 0 1 .5.5v6.667a.5.5 0 1 1-1 0V8a.5.5 0 0 1 .5-.5ZM.167 9.333a.5.5 0 0 1 .5-.5h4a.5.5 0 0 1 0 1h-1.5v4.834a.5.5 0 1 1-1 0V9.833h-1.5a.5.5 0 0 1-.5-.5Zm10.666 1.334a.5.5 0 0 1 .5-.5h4a.5.5 0 1 1 0 1h-1.5v3.5a.5.5 0 1 1-1 0v-3.5h-1.5a.5.5 0 0 1-.5-.5Z" clip-rule="evenodd"/></svg>