<?xml version="1.0" encoding="utf-8"?><svg xmlns="http://www.w3.org/2000/svg" width="24" height="24" viewBox="0 0 24 24"><path fill-rule="evenodd" d="M12 .5a.5.5 0 0 1 .5.5v13.46l5.257-5.258a.5.5 0 1 1 .707.707l-6.11 6.111a.5.5 0 0 1-.708 0l-6.11-6.11a.5.5 0 0 1 .706-.708L11.5 14.46V1a.5.5 0 0 1 .5-.5ZM1 15.167a.5.5 0 0 1 .5.5v4.888A1.945 1.945 0 0 0 3.444 22.5h17.112a1.945 1.945 0 0 0 1.944-1.945v-4.888a.5.5 0 1 1 1 0v4.888a2.944 2.944 0 0 1-2.944 2.945H3.444A2.944 2.944 0 0 1 .5 20.555v-4.888a.5.5 0 0 1 .5-.5Z" clip-rule="evenodd"/></svg>