<?xml version="1.0" encoding="utf-8"?><svg xmlns="http://www.w3.org/2000/svg" width="16" height="16" viewBox="0 0 16 16"><path d="M14.4 2.9c-1.1-.3-2.2-.7-3.2-1.1-1-.4-2-1-2.9-1.6L8 0l-.3.2c-.9.6-1.9 1.1-2.9 1.5-1 .5-2.1.8-3.2 1.1l-.4.2v4c0 6.5 6.6 8.9 6.6 8.9l.2.1.2-.1c.1 0 6.6-2.4 6.6-8.9V3l-.4-.1zM13.8 7c0 5.3-4.8 7.6-5.8 8-1-.4-5.8-2.6-5.8-8V3.7c1-.3 2-.7 3-1.1 1-.4 1.9-.9 2.8-1.5.9.5 1.8 1 2.8 1.5 1 .4 2 .8 3 1.1V7zm-9.3.5c-.2-.2-.5-.2-.6 0-.2.2-.2.5 0 .6L6.8 11l5.3-5.1c.2-.2.2-.5 0-.7s-.5-.2-.7 0L6.8 9.7 4.5 7.5z"/></svg>