<?xml version="1.0" encoding="utf-8"?><svg xmlns="http://www.w3.org/2000/svg" width="16" height="16" viewBox="0 0 16 16"><path d="M14.4 6.9H14V5.1c0-.3-.1-.5-.3-.7-.2-.2-.4-.3-.7-.3h-1.5l-.1-1.4c0-.1 0-.3-.1-.4L11 2c-.1-.1-.2-.1-.4-.2h-.4L1.9 4.1h-.1c-.2 0-.3.1-.5.2-.1.3-.2.5-.2.8V13c0 .3.1.5.3.7.2.2.5.3.7.3H13c.3 0 .5-.1.7-.3.2-.2.3-.4.3-.7v-2.3h.3c.4 0 .8-.3.8-.8V7.6c0-.4-.3-.7-.7-.7zm-3.9-4.1.1 1.3H5.7l4.8-1.3zM13 13H2.1V5.1H13v1.8h-2.7c-.4 0-.8.3-.8.8V10c0 .4.3.8.8.8H13V13zm1.1-3.3h-3.6V7.9h3.6v1.8z"/><path d="M11.7 8.3h-.1c-.3 0-.5.2-.5.5s.2.5.5.5h.1c.3 0 .5-.2.5-.5s-.2-.5-.5-.5z"/></svg>