<?xml version="1.0" encoding="utf-8"?><svg xmlns="http://www.w3.org/2000/svg" width="24" height="24" viewBox="0 0 24 24"><path d="M9.1 22.5c-.8 0-1.4-.6-1.4-1.4 0-.8.6-1.4 1.4-1.4.8 0 1.4.6 1.4 1.4.1.8-.6 1.4-1.4 1.4zm0-1.9c-.3 0-.5.2-.5.5s.2.5.5.5.5-.2.5-.5-.2-.5-.5-.5zm10.6 1.9c-.8 0-1.4-.6-1.4-1.4 0-.8.6-1.4 1.4-1.4s1.4.6 1.4 1.4c0 .8-.7 1.4-1.4 1.4zm0-1.9c-.3 0-.5.2-.5.5s.2.5.5.5.5-.2.5-.5c-.1-.3-.3-.5-.5-.5zm-10-3.8c-1.1 0-2.1-.8-2.3-1.9l-1.6-8v-.1l-.9-4.4H1.5c-.3 0-.5-.2-.5-.4s.2-.5.5-.5h3.8c.2 0 .4.2.5.4l.9 4.4h15.9c.1 0 .3.1.4.2v.3l-1.5 8c-.2 1.1-1.2 1.9-2.4 1.9H9.7c.1.1 0 .1 0 .1zM6.8 7.2l1.5 7.5c.1.7.7 1.1 1.4 1.2H19c.7 0 1.3-.5 1.4-1.2l1.4-7.5h-15z"/></svg>