<?xml version="1.0" encoding="utf-8"?><svg xmlns="http://www.w3.org/2000/svg" width="16" height="16" viewBox="0 0 16 16"><path d="M12.986 15.513h-.19a13.88 13.88 0 0 1-6-2.13 13.68 13.68 0 0 1-4.16-4.17 13.91 13.91 0 0 1-2.13-6 1.89 1.89 0 0 1 .09-.75 1.78 1.78 0 0 1 1-1.1 1.86 1.86 0 0 1 .74-.16h2a2.07 2.07 0 0 1 1.21.45 1.8 1.8 0 0 1 .65 1.1 8.28 8.28 0 0 0 .44 1.78 1.83 1.83 0 0 1-.41 1.94l-.58.58a10.14 10.14 0 0 0 3.31 3.3l.57-.57a2 2 0 0 1 .91-.5 1.89 1.89 0 0 1 1 .08 8.307 8.307 0 0 0 1.77.44 1.84 1.84 0 0 1 1.59 1.86v2a1.9 1.9 0 0 1-.15.74 1.87 1.87 0 0 1-.45.62 1.74 1.74 0 0 1-.65.39c-.18.06-.37.094-.56.1Zm-8.61-13.34h-2a.81.81 0 0 0-.34.08.76.76 0 0 0-.28.2.66.66 0 0 0-.17.29.82.82 0 0 0 0 .35 12.91 12.91 0 0 0 5.83 9.44 12.78 12.78 0 0 0 5.56 2c.112.03.229.03.34 0a.779.779 0 0 0 .3-.18.84.84 0 0 0 .18-.3.75.75 0 0 0 .07-.33v-2a.89.89 0 0 0-.2-.56.83.83 0 0 0-.52-.29 9.002 9.002 0 0 1-2-.49.84.84 0 0 0-.47 0 .8.8 0 0 0-.41.23l-.85.84a.5.5 0 0 1-.6.08 11.07 11.07 0 0 1-4.2-4.2.5.5 0 0 1 .08-.6l.85-.85a.78.78 0 0 0 .22-.41.93.93 0 0 0 0-.47 9.07 9.07 0 0 1-.5-2 .84.84 0 0 0-.28-.51.88.88 0 0 0-.61-.32Zm7.94 4.65a.5.5 0 0 1-.49-.4 2.84 2.84 0 0 0-2.25-2.25.509.509 0 0 1 .19-1 3.84 3.84 0 0 1 2.03 1.08 3.75 3.75 0 0 1 1.05 2 .49.49 0 0 1-.39.58l-.14-.01Zm2.68 0a.51.51 0 0 1-.5-.45 5.51 5.51 0 0 0-4.88-4.87.503.503 0 0 1 .11-1 6.51 6.51 0 0 1 3.89 1.86 6.59 6.59 0 0 1 1.88 3.9.5.5 0 0 1-.45.55l-.05.01Z"/></svg>