<?xml version="1.0" encoding="utf-8"?><svg xmlns="http://www.w3.org/2000/svg" width="24" height="24" viewBox="0 0 24 24"><path d="M21.2 10.8h-.7V7.9c0-.3-.1-.7-.4-.9-.2-.2-.5-.4-.9-.4h-2.4l-.1-2.4c0-.2 0-.3-.1-.5s-.2-.3-.3-.4c-.1-.1-.3-.2-.5-.2h-.5L2.9 6.7h-.1c-.2.1-.4.2-.5.3-.3.3-.4.6-.4.9v11.6c0 .3.1.6.4.9.2.2.6.4.9.4h16.1c.3 0 .6-.1.9-.4s.4-.5.4-.9V16h.7c.5 0 .9-.4.9-.9v-3.4c-.1-.5-.5-.9-1-.9zm-5.5-6.7.1 2.4H6.7m12.8 13c0 .1 0 .1-.1.2s-.1.1-.2.1H3.1c-.1 0-.1 0-.2-.1 0 0-.1-.1-.1-.2V7.9c0-.1 0-.1.1-.2s.1-.1.2-.1h16.1c.1 0 .1 0 .2.1 0 0 .1.1.1.2v2.8h-4.3c-.5 0-.9.4-.9.9V15c0 .5.4.9.9.9h4.3v3.6zm1.6-4.5h-5.8v-3.2h5.8V15z"/><path d="M17.3 12.9h-.2c-.3 0-.5.2-.5.5s.2.5.5.5h.2c.3 0 .5-.2.5-.5s-.2-.5-.5-.5z"/></svg>