<?xml version="1.0" encoding="utf-8"?><svg xmlns="http://www.w3.org/2000/svg" width="24" height="24" viewBox="0 0 24 24"><path fill-rule="evenodd" d="m1.52 4.888 9.636 6.558a1.5 1.5 0 0 0 1.688 0l9.636-6.558c-.126-.773-.823-1.388-1.68-1.388H3.2c-.856 0-1.554.615-1.68 1.388ZM22.5 6.084l-9.093 6.189a2.5 2.5 0 0 1-2.814 0L1.5 6.084v11.888c0 .887.753 1.64 1.7 1.64h17.6c.947 0 1.7-.753 1.7-1.64V6.084Zm-22-.945C.5 3.673 1.727 2.5 3.2 2.5h17.6c1.473 0 2.7 1.173 2.7 2.639v12.833c0 1.466-1.227 2.64-2.7 2.64H3.2c-1.473 0-2.7-1.174-2.7-2.64V5.14Z" clip-rule="evenodd"/></svg>