<?xml version="1.0" encoding="utf-8"?><svg xmlns="http://www.w3.org/2000/svg" width="16" height="16" viewBox="0 0 16 16"><path fill-rule="evenodd" d="M3.1.667a.5.5 0 0 1 .5-.5h8.8a.5.5 0 0 1 .5.5V5.3h.967a1.967 1.967 0 0 1 1.966 1.967v3.666a1.967 1.967 0 0 1-1.966 1.967H12.9v2.433a.5.5 0 0 1-.5.5H3.6a.5.5 0 0 1-.5-.5V12.9h-.967a1.967 1.967 0 0 1-1.966-1.967V7.267A1.967 1.967 0 0 1 2.133 5.3H3.1V.667Zm1 4.633h7.8V1.167H4.1V5.3Zm-1 6.6V9.467a.5.5 0 0 1 .5-.5h8.8a.5.5 0 0 1 .5.5V11.9h.967a.966.966 0 0 0 .966-.967V7.267a.967.967 0 0 0-.966-.967H2.133a.967.967 0 0 0-.966.967v3.666a.966.966 0 0 0 .966.967H3.1Zm8.8.493V9.967H4.1v4.866h7.8v-2.44Z" clip-rule="evenodd"/></svg>