<?xml version="1.0" encoding="utf-8"?><svg xmlns="http://www.w3.org/2000/svg" width="16" height="16" viewBox="0 0 16 16"><path fill-rule="evenodd" d="M1.333 1.833A.167.167 0 0 0 1.167 2v9.667c0 .092.074.166.166.166h.976a2.501 2.501 0 0 1 4.715 0h2.143V2A.167.167 0 0 0 9 1.833H1.333Zm8.173 11H7.16a2.5 2.5 0 0 1-4.989 0h-.839a1.167 1.167 0 0 1-1.166-1.166V2c0-.644.522-1.167 1.166-1.167H9c.644 0 1.167.523 1.167 1.167v1.167H11.9c.461 0 .879.271 1.066.693l1.041 2.342c.204.05.391.156.542.306l.943.943c.218.219.341.516.341.825v3.39c0 .645-.522 1.167-1.166 1.167h-.172a2.5 2.5 0 0 1-4.99 0Zm4.852-1h.309a.167.167 0 0 0 .166-.166v-3.39a.166.166 0 0 0-.048-.119l-.943-.942a.167.167 0 0 0-.118-.05h-3.557v3.801a2.501 2.501 0 0 1 4.191.866Zm-4.191-5.666h2.73l-.845-1.901a.167.167 0 0 0-.152-.1h-1.733v2Zm-5.5 5a1.5 1.5 0 1 0 0 3 1.5 1.5 0 0 0 0-3Zm7.333 0a1.5 1.5 0 1 0 0 3 1.5 1.5 0 0 0 0-3Z" clip-rule="evenodd"/></svg>