<?xml version="1.0" encoding="utf-8"?><svg xmlns="http://www.w3.org/2000/svg" width="16" height="16" viewBox="0 0 16 16"><path d="M6.5 11.4c-.9 0-1.6-.6-1.8-1.5l-1-5.3v-.1l-.6-2.6H1c-.3 0-.5-.2-.5-.5S.7.8 1 .8h2.5c.3 0 .5.2.6.4L4.6 4H15c.2 0 .3.1.4.2s.1.3.1.4l-1 5.3c-.2.9-.9 1.5-1.8 1.5H6.5zM4.8 5l.9 4.7c.1.3.4.6.7.6h6.2c.4 0 .7-.2.7-.6l1-4.7H4.8zm1.3 10.2c-.6 0-1.2-.5-1.2-1.2 0-.6.5-1.2 1.2-1.2s1.2.5 1.2 1.2-.6 1.2-1.2 1.2zm0-1.3c-.1 0-.1.1 0 0-.1.3.1.3 0 0 .1.1 0 0 0 0zm7 1.3c-.6 0-1.2-.5-1.2-1.2 0-.6.5-1.2 1.2-1.2s1.2.5 1.2 1.2-.6 1.2-1.2 1.2zm0-1.3c-.1 0-.1.1 0 0-.1.3.1.3 0 0 .1.1 0 0 0 0z"/></svg>