<?xml version="1.0" encoding="utf-8"?><svg xmlns="http://www.w3.org/2000/svg" width="16" height="16" viewBox="0 0 16 16"><path fill-rule="evenodd" d="M6.525 1.003C6.82.491 7.315.167 8 .167s1.18.324 1.475.836c.236.41.332.918.354 1.43a4.656 4.656 0 0 1 1.431.741c.817.627 1.354 1.476 1.705 2.37.696 1.772.693 3.806.621 4.932-.013.203.148.357.311.357.701 0 1.27.569 1.27 1.27v.23a1.5 1.5 0 0 1-1.5 1.5H10.45a2.5 2.5 0 0 1-4.9 0H2.333a1.5 1.5 0 0 1-1.5-1.5v-.23c0-.701.569-1.27 1.27-1.27.163 0 .324-.154.31-.357-.07-1.126-.074-3.16.622-4.932.35-.894.888-1.743 1.705-2.37a4.655 4.655 0 0 1 1.431-.742c.022-.51.118-1.019.354-1.429Zm.665 1.21a7.01 7.01 0 0 1 1.62.001c-.034-.3-.103-.54-.202-.712-.122-.212-.293-.335-.608-.335s-.486.123-.608.335c-.1.171-.168.412-.202.712Zm-.605 11.62a1.5 1.5 0 0 0 2.83 0h-2.83ZM3.965 5.91c-.613 1.564-.622 3.419-.553 4.503.047.74-.529 1.421-1.309 1.421a.27.27 0 0 0-.27.27v.23a.5.5 0 0 0 .5.5h11.334a.5.5 0 0 0 .5-.5v-.23a.27.27 0 0 0-.27-.27c-.78 0-1.356-.682-1.309-1.42.069-1.085.06-2.94-.554-4.504-.304-.775-.748-1.455-1.382-1.941-.63-.482-1.48-.801-2.652-.801-1.172 0-2.023.319-2.652.8-.634.487-1.078 1.167-1.382 1.942Z" clip-rule="evenodd"/></svg>