<?xml version="1.0" encoding="utf-8"?><svg xmlns="http://www.w3.org/2000/svg" width="24" height="24" viewBox="0 0 24 24"><path fill-rule="evenodd" d="M17.03 1.362a2.944 2.944 0 1 1 4.163 4.164 2.944 2.944 0 0 1-4.164-4.164Zm2.081.138a1.944 1.944 0 1 0 0 3.889 1.944 1.944 0 0 0 0-3.889ZM7.5 3.944a3.778 3.778 0 0 0 0 7.556h9.778a4.778 4.778 0 0 1 0 9.556h-5.5a.5.5 0 1 1 0-1h5.5a3.778 3.778 0 0 0 0-7.556H7.5a4.778 4.778 0 0 1 0-9.556h4.278a.5.5 0 0 1 0 1H7.5Zm-5.138 14.53a2.944 2.944 0 1 1 4.164 4.163 2.944 2.944 0 0 1-4.164-4.163Zm2.082.137a1.945 1.945 0 1 0 0 3.89 1.945 1.945 0 0 0 0-3.89Z" clip-rule="evenodd"/></svg>