<?xml version="1.0" encoding="utf-8"?><svg xmlns="http://www.w3.org/2000/svg" width="24" height="24" viewBox="0 0 24 24"><path d="M21.2 22.3H3.3c-.4 0-.7-.1-1-.3-.5-.3-.9-.7-1.1-1.3-.2-.6-.1-1.1.2-1.7l9-16.6c.4-.7 1.1-1.1 1.9-1.1.8 0 1.5.4 1.9 1.1l9 16.6c.2.3.3.7.3 1-.1 1.3-1.1 2.3-2.3 2.3zm-9-20c-.4 0-.8.2-1 .6l-9 16.6c-.1.3-.2.6-.1.9.1.3.3.6.6.7.2.1.4.1.6.1h17.9c.7 0 1.2-.5 1.2-1.2 0-.2 0-.4-.1-.6l-9-16.6c-.2-.3-.6-.5-1.1-.5z"/><path d="M12.2 19.2c-.6 0-1.1-.5-1.1-1.1s.5-1.1 1.1-1.1 1.1.5 1.1 1.1c0 .7-.5 1.1-1.1 1.1zm0-3.4c-.5 0-.8-.3-.8-.8l-.3-6.3c0-.6.5-1.1 1.1-1.1s1.1.5 1.1 1.1l-.3 6.5c0 .3-.3.6-.8.6z"/></svg>