<?xml version="1.0" encoding="utf-8"?><svg xmlns="http://www.w3.org/2000/svg" width="24" height="24" viewBox="0 0 24 24"><path fill-rule="evenodd" d="M13.279 2.193a6.031 6.031 0 0 1 8.528 8.528l-.006.006-3.319 3.319a6.031 6.031 0 0 1-9.095-.651.5.5 0 1 1 .8-.6 5.032 5.032 0 0 0 7.588.544l3.316-3.316a5.032 5.032 0 0 0-7.115-7.113l-1.9 1.889a.5.5 0 0 1-.705-.71l1.908-1.896ZM7.675 8.545a6.031 6.031 0 0 1 6.938 2.038.5.5 0 1 1-.8.6 5.03 5.03 0 0 0-7.588-.544l-3.316 3.315a5.031 5.031 0 0 0 7.114 7.114l1.889-1.888a.5.5 0 0 1 .707.707l-1.898 1.898a6.032 6.032 0 0 1-8.528-8.528l.006-.007 3.319-3.318a6.032 6.032 0 0 1 2.157-1.387Z" clip-rule="evenodd"/></svg>