<?xml version="1.0" encoding="utf-8"?><svg xmlns="http://www.w3.org/2000/svg" width="16" height="16" viewBox="0 0 16 16"><path d="M8 9.84a1.84 1.84 0 1 1 0-3.68 1.84 1.84 0 0 1 0 3.68Zm0-2.95a1.11 1.11 0 1 0 0 2.22 1.11 1.11 0 0 0 0-2.22ZM2.84 9.84a1.84 1.84 0 1 1 0-3.68 1.84 1.84 0 0 1 0 3.68Zm0-2.95a1.11 1.11 0 1 0 0 2.22 1.11 1.11 0 0 0 0-2.22Zm10 2.95a1.84 1.84 0 1 1 0-3.68 1.84 1.84 0 0 1 0 3.68Zm0-2.95a1.11 1.11 0 1 0 0 2.22 1.11 1.11 0 0 0 0-2.22ZM8 4.68A1.84 1.84 0 1 1 8 1a1.84 1.84 0 0 1 0 3.68Zm0-2.94a1.11 1.11 0 1 0 0 2.22 1.11 1.11 0 0 0 0-2.22ZM2.84 4.68a1.84 1.84 0 1 1 0-3.68 1.84 1.84 0 0 1 0 3.68Zm0-2.94a1.11 1.11 0 1 0 0 2.22 1.11 1.11 0 0 0 0-2.22Zm10 2.94a1.84 1.84 0 1 1 0-3.68 1.84 1.84 0 0 1 0 3.68Zm0-2.94a1.11 1.11 0 1 0 0 2.22 1.11 1.11 0 0 0 0-2.22ZM8 15a1.84 1.84 0 1 1 0-3.681 1.84 1.84 0 0 1 0 3.68Zm0-2.95a1.11 1.11 0 1 0 0 2.22 1.11 1.11 0 0 0 0-2.22ZM2.84 15a1.84 1.84 0 1 1 0-3.681 1.84 1.84 0 0 1 0 3.68Zm0-2.95a1.11 1.11 0 1 0 0 2.22 1.11 1.11 0 0 0 0-2.22Zm10 2.95a1.84 1.84 0 1 1 0-3.68 1.84 1.84 0 0 1 0 3.68Zm0-2.95a1.11 1.11 0 1 0 0 2.22 1.11 1.11 0 0 0 0-2.22Z"/></svg>