<?xml version="1.0" encoding="utf-8"?><svg xmlns="http://www.w3.org/2000/svg" width="16" height="16" viewBox="0 0 16 16"><path d="M1.3 3.6h2.2c.3 1 1.2 1.7 2.2 1.7h.4c.9-.2 1.6-.8 1.8-1.6h6.8c.3 0 .6-.3.6-.6s-.3-.6-.6-.6H7.8c-.1-.6-.4-1-.8-1.3C6.5.8 5.9.7 5.3.8c-.9.1-1.6.8-1.8 1.6H1.3c-.3 0-.5.3-.5.6s.2.6.5.6zM4.6 3c0-.6.5-1.1 1.1-1.1.6 0 1.1.5 1.1 1.1 0 .6-.5 1.1-1.1 1.1-.6 0-1.1-.5-1.1-1.1zm10.1 4.4h-2.2c-.1-.5-.4-.9-.9-1.2-.5-.3-1.1-.5-1.7-.4-.8.1-1.5.8-1.7 1.6H1.3c-.3 0-.5.3-.5.6s.3.6.6.6h6.8c.1.5.4.9.8 1.2.4.3.8.4 1.3.4h.4c.9-.2 1.6-.8 1.8-1.6h2.2c.3 0 .6-.3.6-.6-.1-.3-.3-.6-.6-.6zm-3.3.6c0 .6-.5 1.1-1.1 1.1S9.2 8.6 9.2 8c0-.6.5-1.1 1.1-1.1s1.1.5 1.1 1.1zm3.3 4.4H7.8c-.3-1.1-1.4-1.8-2.6-1.6-.9.2-1.6.8-1.8 1.6H1.3c-.3 0-.6.3-.6.6s.3.6.6.6h2.2c.3 1 1.2 1.7 2.2 1.7h.4c.9-.2 1.6-.8 1.8-1.6h6.8c.3 0 .6-.3.6-.6s-.3-.7-.6-.7zm-7.9.6c0 .6-.5 1.1-1.1 1.1-.6 0-1.1-.5-1.1-1.1s.5-1.1 1.1-1.1c.6 0 1.1.5 1.1 1.1z"/></svg>