<?xml version="1.0" encoding="utf-8"?><svg xmlns="http://www.w3.org/2000/svg" width="24" height="24" viewBox="0 0 24 24"><path fill-rule="evenodd" d="M.5 2A1.5 1.5 0 0 1 2 .5h15A1.5 1.5 0 0 1 18.5 2v15a1.5 1.5 0 0 1-1.5 1.5H9.287a.5.5 0 0 0-.265.076l-7.604 4.752A.6.6 0 0 1 .5 22.82V2ZM2 1.5a.5.5 0 0 0-.5.5v20.098l6.992-4.37a1.5 1.5 0 0 1 .795-.228H17a.5.5 0 0 0 .5-.5V2a.5.5 0 0 0-.5-.5H2ZM4.5 7a.5.5 0 0 1 .5-.5h9a.5.5 0 0 1 0 1H5a.5.5 0 0 1-.5-.5ZM23 10a.5.5 0 0 1 .5.5V22a1.5 1.5 0 0 1-1.5 1.5H10.5a.5.5 0 1 1 0-1H22a.5.5 0 0 0 .5-.5V10.5a.5.5 0 0 1 .5-.5ZM4.5 11a.5.5 0 0 1 .5-.5h5a.5.5 0 0 1 0 1H5a.5.5 0 0 1-.5-.5Z" clip-rule="evenodd"/></svg>