<?xml version="1.0" encoding="utf-8"?><svg xmlns="http://www.w3.org/2000/svg" width="24" height="24" viewBox="0 0 24 24"><path fill-rule="evenodd" d="M20.555 1.5h-4.888a.5.5 0 1 1 0-1h4.888A2.944 2.944 0 0 1 23.5 3.444v17.111a2.945 2.945 0 0 1-2.945 2.945h-4.888a.5.5 0 1 1 0-1h4.888a1.944 1.944 0 0 0 1.945-1.945V3.445A1.944 1.944 0 0 0 20.555 1.5ZM9.202 5.535a.5.5 0 0 1 .707 0l6.111 6.111a.5.5 0 0 1 0 .707l-6.11 6.112a.5.5 0 0 1-.708-.707L14.46 12.5H1a.5.5 0 1 1 0-1h13.46L9.202 6.242a.5.5 0 0 1 0-.707Z" clip-rule="evenodd"/></svg>