<?xml version="1.0" encoding="utf-8"?><svg xmlns="http://www.w3.org/2000/svg" width="24" height="24" viewBox="0 0 24 24"><path fill-rule="evenodd" d="M4.9 1a.5.5 0 0 1 .5-.5h13.2a.5.5 0 0 1 .5.5v7.2h1.7a2.7 2.7 0 0 1 2.7 2.7v5.5a2.7 2.7 0 0 1-2.7 2.7h-1.7V23a.5.5 0 0 1-.5.5H5.4a.5.5 0 0 1-.5-.5v-3.9H3.2a2.7 2.7 0 0 1-2.7-2.7v-5.5a2.7 2.7 0 0 1 2.7-2.7h1.7V1Zm1 7.2h12.2V1.5H5.9v6.7Zm-1 9.9v-3.9a.5.5 0 0 1 .5-.5h13.2a.5.5 0 0 1 .5.5v3.9h1.7a1.7 1.7 0 0 0 1.7-1.7v-5.5a1.7 1.7 0 0 0-1.7-1.7H3.2a1.7 1.7 0 0 0-1.7 1.7v5.5a1.7 1.7 0 0 0 1.7 1.7h1.7Zm13.2.491V14.7H5.9v7.8h12.2v-3.909Z" clip-rule="evenodd"/></svg>