<?xml version="1.0" encoding="utf-8"?><svg xmlns="http://www.w3.org/2000/svg" width="16" height="16" viewBox="0 0 16 16"><path d="M4.9 4.3H3.8c-.4 0-.6.1-.6.4v.4c0 .4.2.4.6.4h.3c.2 0 .2.1.2.3V11c0 .4.1.6.4.6h.4c.4 0 .4-.2.4-.6V4.8c.1-.4-.2-.5-.6-.5z"/><path d="M12.5.7C12 .2 11.4 0 10.7 0H5.3C4.6 0 4 .2 3.5.7L.7 3.5C.2 4 0 4.6 0 5.2v5.5c0 .8.3 1.3.8 1.8l2.7 2.7c.5.6 1.1.8 1.8.8h5.3c.7 0 1.3-.2 1.9-.8l2.7-2.7c.5-.5.8-1.1.8-1.8V5.2c0-.7-.2-1.2-.7-1.7L12.5.7zm2.4 6.4c0 .2-.1.3-.3.3h-.8v-.6c0-.4-.1-.6-.4-.6H13c-.4 0-.4.2-.4.6v.6H12c-.4 0-.6.1-.6.4v.4c0 .4.2.4.6.4h.6v.6c0 .4.1.6.4.6h.4c.4 0 .4-.2.4-.6v-.6h.8c.2 0 .2.1.3.2v1.8c0 .4-.1.8-.4 1.1l-2.7 2.7c-.3.3-.7.5-1.1.5H5.3c-.4 0-.8-.1-1.1-.5l-2.7-2.7c-.3-.3-.5-.6-.4-1.1V5.4c0-.4.1-.8.5-1.2l2.7-2.8c.3-.3.6-.4 1-.4h5.4c.4 0 .8.1 1 .4l2.7 2.8c.3.3.5.7.5 1.2v1.7z"/><path d="M10.2 7.9c.7-.5.7-1 .7-1.4v-.4c-.1-1.4-.5-1.9-2.1-1.9s-2 .5-2.1 1.9v.4c0 .4 0 .9.7 1.4-.8.3-.9 1-.9 1.9 0 1.3.5 2 2.3 2s2.3-.7 2.3-2c-.1-.9-.1-1.6-.9-1.9zM8.8 5.3c.7 0 .9.2.9 1.1 0 .8-.3 1.1-.9 1.1-.7 0-.9-.3-.9-1.1-.1-.8.2-1.1.9-1.1zm0 5.4c-.8 0-1.1-.3-1.1-1.1S8 8.5 8.8 8.5s1.1.4 1.1 1.1c-.1.8-.4 1.1-1.1 1.1z"/></svg>