<?xml version="1.0" encoding="utf-8"?><svg xmlns="http://www.w3.org/2000/svg" width="24" height="24" viewBox="0 0 24 24"><path fill-rule="evenodd" d="M.5 3A1.5 1.5 0 0 1 2 1.5h20A1.5 1.5 0 0 1 23.5 3v3a1.5 1.5 0 0 1-1 1.415V21a1.5 1.5 0 0 1-1.5 1.5H3A1.5 1.5 0 0 1 1.5 21V7.415A1.5 1.5 0 0 1 .5 6V3Zm2 4.5V21a.5.5 0 0 0 .5.5h18a.5.5 0 0 0 .5-.5V7.5h-4V11a1.5 1.5 0 0 1-1.5 1.5H8A1.5 1.5 0 0 1 6.5 11V7.5h-4Zm5 0V11a.5.5 0 0 0 .5.5h8a.5.5 0 0 0 .5-.5V7.5h-9ZM2 2.5a.5.5 0 0 0-.5.5v3a.5.5 0 0 0 .5.5h20a.5.5 0 0 0 .5-.5V3a.5.5 0 0 0-.5-.5H2Z" clip-rule="evenodd"/></svg>