<?xml version="1.0" encoding="utf-8"?><svg xmlns="http://www.w3.org/2000/svg" width="16" height="16" viewBox="0 0 24 24"><path d="M7.8 7H6.2c-.5 0-.8.1-.8.5V8c0 .5.3.6.9.6h.3c.2 0 .3.1.3.5v7.2c0 .6.1.9.6.9h.6c.5 0 .6-.3.6-.9V7.5c-.1-.4-.4-.5-.9-.5z"/><path d="M18.1 2c-.6-.6-1.5-1-2.4-1H8.3c-1 0-1.8.3-2.4 1l-4 3.9c-.6.6-.9 1.4-.9 2.3v7.5c0 1 .3 1.8 1 2.5l3.7 3.7c.8.8 1.6 1.1 2.7 1.1h7.3c1 0 1.8-.3 2.6-1.1l3.7-3.7c.7-.7 1-1.5 1-2.5V8.2c0-.9-.3-1.7-.9-2.3l-4-3.9zm3.5 8.8c0 .2-.1.4-.3.4h-1.1v-.8c0-.6-.1-.9-.6-.9H19c-.5 0-.6.3-.6.9v.8h-.8c-.6 0-.9.1-.9.6v.5c0 .5.3.6.9.6h.8v.8c0 .6.1.9.6.9h.5c.5 0 .6-.3.6-.9v-.8h1.1c.2 0 .3.1.3.3v2.5c0 .6-.2 1.1-.6 1.5l-3.7 3.7c-.4.4-.9.6-1.5.6H8.3c-.6 0-1.1-.2-1.5-.6l-3.7-3.7c-.4-.4-.6-.9-.6-1.5V8.4c0-.6.2-1.2.6-1.6L6.9 3c.4-.4.9-.5 1.4-.5h7.4c.5 0 1 .1 1.4.5l3.8 3.8c.4.4.6 1 .6 1.6v2.4h.1z"/><path d="M15 11.9c.9-.7.9-1.4.9-1.9v-.6c-.1-1.9-.7-2.6-2.9-2.6s-2.8.7-2.9 2.6v.6c0 .6 0 1.3.9 1.9-1.1.4-1.2 1.4-1.2 2.6 0 1.9.6 2.8 3.2 2.8 2.5 0 3.2-1 3.2-2.8 0-1.2-.1-2.2-1.2-2.6zm-2-3.6c.9 0 1.3.3 1.3 1.5 0 1.1-.4 1.5-1.3 1.5s-1.3-.4-1.3-1.5c.1-1.2.4-1.5 1.3-1.5zm0 7.5c-1.1 0-1.4-.4-1.4-1.5 0-1 .4-1.5 1.4-1.5 1.1 0 1.4.5 1.4 1.5.1 1-.3 1.5-1.4 1.5z"/></svg>