<?xml version="1.0" encoding="utf-8"?><svg xmlns="http://www.w3.org/2000/svg" width="24" height="24" viewBox="0 0 24 24"><path fill-rule="evenodd" d="M7.5.5A.5.5 0 0 1 8 1v1.7h7.8V1a.5.5 0 0 1 1 0v1.7h2.8a2.7 2.7 0 0 1 2.7 2.7v15.4a2.7 2.7 0 0 1-2.7 2.7H4.2a2.7 2.7 0 0 1-2.7-2.7V5.4a2.7 2.7 0 0 1 2.7-2.7H7V1a.5.5 0 0 1 .5-.5ZM7 3.7H4.2a1.7 1.7 0 0 0-1.7 1.7v3.9h18.8V5.4a1.7 1.7 0 0 0-1.7-1.7h-2.8v1.7a.5.5 0 1 1-1 0V3.7H8v1.7a.5.5 0 0 1-1 0V3.7Zm14.3 6.6H2.5v10.5a1.7 1.7 0 0 0 1.7 1.7h15.4a1.7 1.7 0 0 0 1.7-1.7V10.3Z" clip-rule="evenodd"/></svg>