<?xml version="1.0" encoding="utf-8"?><svg xmlns="http://www.w3.org/2000/svg" width="24" height="24" viewBox="0 0 24 24"><path fill-rule="evenodd" d="M3.444 1.5A1.944 1.944 0 0 0 1.5 3.445v17.11A1.944 1.944 0 0 0 3.444 22.5h4.89a.5.5 0 0 1 0 1h-4.89A2.944 2.944 0 0 1 .5 20.556V3.445A2.944 2.944 0 0 1 3.444.5h4.89a.5.5 0 0 1 0 1h-4.89Zm13.091 4.035a.5.5 0 0 1 .707 0l6.112 6.111a.5.5 0 0 1 0 .708l-6.111 6.11a.5.5 0 0 1-.708-.706l5.258-5.258H8.333a.5.5 0 1 1 0-1h13.46l-5.258-5.257a.5.5 0 0 1 0-.708Z" clip-rule="evenodd"/></svg>