<?xml version="1.0" encoding="utf-8"?><svg xmlns="http://www.w3.org/2000/svg" width="24" height="24" viewBox="0 0 24 24"><path d="M6 .5c.3 0 .5.2.5.5v22c0 .3-.2.5-.5.5s-.5-.2-.5-.5V1c0-.3.2-.5.5-.5z"/><path d="M5.6.6c.2-.2.5-.2.7 0l5 5c.2.2.2.5 0 .7-.2.2-.5.2-.7 0L6 1.7 1.4 6.4c-.2.2-.5.2-.7 0-.2-.2-.2-.5 0-.7L5.6.6zM18 .5c.3 0 .5.2.5.5v22c0 .3-.2.5-.5.5s-.5-.2-.5-.5V1c0-.3.2-.5.5-.5z"/><path d="M12.6 17.6c.2-.2.5-.2.7 0l4.6 4.6 4.6-4.6c.2-.2.5-.2.7 0 .2.2.2.5 0 .7l-5 5c-.2.2-.5.2-.7 0l-5-5c0-.1 0-.5.1-.7z"/></svg>