<?xml version="1.0" encoding="utf-8"?><svg xmlns="http://www.w3.org/2000/svg" width="24" height="24" viewBox="0 0 24 24"><path d="M12 23C5.9 23 1 18.1 1 12S5.9 1 12 1s11 4.9 11 11-4.9 11-11 11zm0-21C6.5 2 2 6.5 2 12s4.5 10 10 10 10-4.5 10-10S17.5 2 12 2z"/><path d="M12 14.8c-.3 0-.5-.2-.5-.5v-.6c0-1.1.7-1.9 1.4-2.7.2-.3.5-.6.7-.9.2-.3.3-.6.3-.9 0-1-.8-1.7-1.9-1.7s-1.9.8-1.9 1.7c0 .3-.2.5-.5.5s-.5-.1-.5-.4c0-1.5 1.3-2.7 2.9-2.7s2.9 1.2 2.9 2.7c0 .5-.2 1-.5 1.5-.2.3-.5.6-.8.9-.6.7-1.2 1.3-1.2 2v.6c.1.3-.1.5-.4.5zm0 2.7c-.3 0-.6-.2-.6-.6s.2-.6.6-.6c.3 0 .6.2.6.6s-.3.6-.6.6z"/></svg>