<?xml version="1.0" encoding="utf-8"?><svg xmlns="http://www.w3.org/2000/svg" width="24" height="24" viewBox="0 0 24 24"><path fill-rule="evenodd" d="M12 1.5A8.5 8.5 0 0 0 3.5 10c0 3.299 2.133 6.427 4.363 8.781A29.923 29.923 0 0 0 12 22.391l.094-.068a29.92 29.92 0 0 0 4.043-3.542C18.367 16.427 20.5 13.3 20.5 10A8.5 8.5 0 0 0 12 1.5Zm0 22c-.148 0-.68-.366-.68-.366a30.933 30.933 0 0 1-4.183-3.665C4.867 17.073 2.5 13.7 2.5 10a9.5 9.5 0 1 1 19 0c0 3.701-2.367 7.073-4.637 9.469a30.94 30.94 0 0 1-4.183 3.665s-.532.366-.68.366Zm0-16a2.5 2.5 0 1 0 0 5 2.5 2.5 0 0 0 0-5ZM8.5 10a3.5 3.5 0 1 1 7 0 3.5 3.5 0 0 1-7 0Z" clip-rule="evenodd"/></svg>