<?xml version="1.0" encoding="utf-8"?><svg xmlns="http://www.w3.org/2000/svg" width="16" height="16" viewBox="0 0 16 16"><path d="M13.8 15H2.2c-.3 0-.5-.1-.8-.2-.4-.2-.6-.5-.8-.9-.1-.4-.1-.8.1-1.2L6.6 1.8c.3-.5.8-.8 1.4-.8s1.1.3 1.4.8l5.8 10.8c.1.2.2.5.2.8 0 .9-.7 1.6-1.6 1.6zM8 2c-.2 0-.4.1-.5.3L1.7 13.1c-.1.1-.1.3 0 .5 0 .2.1.3.3.4h11.8c.3 0 .6-.3.6-.6 0-.1 0-.2-.1-.3L8.5 2.3C8.4 2.1 8.2 2 8 2z"/><path d="M8 10.6c-.3 0-.5-.2-.5-.5L7.3 6c0-.4.3-.7.7-.7.4 0 .7.3.7.7l-.2 4.2c0 .2-.2.4-.5.4zm0 2.2c-.4 0-.7-.3-.7-.7s.3-.7.7-.7.7.3.7.7-.3.7-.7.7z"/></svg>