<?xml version="1.0" encoding="utf-8"?><svg xmlns="http://www.w3.org/2000/svg" width="16" height="16" viewBox="0 0 16 16"><path d="M8 16c-4.4 0-8-3.6-8-8s3.6-8 8-8 8 3.6 8 8-3.6 8-8 8zM8 1C4.2 1 1 4.2 1 8s3.1 7 7 7c3.8 0 7-3.1 7-7 0-3.8-3.2-7-7-7z"/><path d="M8 10.1c-.3 0-.5-.2-.5-.5v-.4c0-.8.5-1.4 1-1.9.2-.2.3-.3.4-.5.1-.2.2-.4.2-.6 0-.6-.5-1-1.1-1-.6 0-1.1.4-1.1 1 0 .3-.2.5-.5.5s-.5-.2-.5-.5c0-1.1 1-2 2.1-2s2 .8 2.1 2c0 .4-.1.8-.3 1.1-.2.2-.4.4-.5.6-.4.4-.8.9-.8 1.3v.4c0 .2-.2.5-.5.5zm0 1.7c-.1 0-.3-.1-.4-.1 0-.1-.1-.1-.1-.2v-.4c0-.1.1-.1.1-.2.1 0 .1-.1.2-.1.1-.1.3-.1.4 0 .1 0 .1.1.2.1s.1.1.1.2v.4c0 .1-.1.1-.1.2 0 0-.1.1-.2.1H8z"/></svg>