<?xml version="1.0" encoding="utf-8"?><svg xmlns="http://www.w3.org/2000/svg" width="24" height="24" viewBox="0 0 24 24"><path d="M16.9 5.1c1.3 0 2.4 1.1 2.4 2.3 0 1.3-1.1 2.3-2.4 2.3s-2.4-1.1-2.4-2.3c.1-1.2 1.1-2.3 2.4-2.3zm2.2 5.5c-1.1 0-1.9.9-1.9 1.9 0 1.1.9 1.9 1.9 1.9 1.1 0 1.9-.9 1.9-1.9s-.9-1.9-1.9-1.9zm-2.2 5.6c-.7 0-1.3.6-1.3 1.3 0 .7.6 1.3 1.3 1.3s1.3-.6 1.3-1.3c0-.7-.6-1.3-1.3-1.3zm-5.2 2.1c-.7 0-1.3.6-1.3 1.3 0 .7.6 1.3 1.3 1.3s1.3-.6 1.3-1.3c.1-.7-.5-1.3-1.3-1.3zm-5.2-2c-.7 0-1.3.6-1.3 1.3 0 .7.6 1.3 1.3 1.3s1.3-.6 1.3-1.3c-.1-.7-.6-1.3-1.3-1.3zM4.3 11c-.7 0-1.3.6-1.3 1.4 0 .7.6 1.3 1.3 1.3s1.3-.6 1.3-1.3c.1-.8-.5-1.4-1.3-1.4zm2.2-5.5c-.9 0-1.7.8-1.7 1.7s.8 1.7 1.7 1.7 1.7-.8 1.7-1.7-.8-1.7-1.7-1.7zM11.7 3c-1.1 0-2 .9-2 2s.9 2 2 2 2-.9 2-2c.1-1.1-.8-2-2-2z"/></svg>