<?xml version="1.0" encoding="utf-8"?><svg xmlns="http://www.w3.org/2000/svg" width="16" height="16" viewBox="0 0 16 16"><path fill-rule="evenodd" d="M.167 1.333C.167.69.689.167 1.333.167h10c.645 0 1.167.522 1.167 1.166v10c0 .645-.522 1.167-1.167 1.167H6.191a.166.166 0 0 0-.088.025l-5.07 3.168a.567.567 0 0 1-.866-.48V1.333Zm1.166-.166a.167.167 0 0 0-.166.166v13.098l4.406-2.754c.185-.116.4-.177.618-.177h5.142a.167.167 0 0 0 .167-.167v-10a.167.167 0 0 0-.167-.166h-10Zm1.5 3.5a.5.5 0 0 1 .5-.5h6a.5.5 0 1 1 0 1h-6a.5.5 0 0 1-.5-.5Zm12.5 1.833a.5.5 0 0 1 .5.5v7.667c0 .644-.522 1.166-1.166 1.166H7a.5.5 0 0 1 0-1h7.667a.167.167 0 0 0 .166-.166V7a.5.5 0 0 1 .5-.5Zm-12.5.833a.5.5 0 0 1 .5-.5h3.334a.5.5 0 0 1 0 1H3.333a.5.5 0 0 1-.5-.5Z" clip-rule="evenodd"/></svg>