<?xml version="1.0" encoding="utf-8"?><svg xmlns="http://www.w3.org/2000/svg" width="16" height="16" viewBox="0 0 16 16"><path d="M8 0C3.6 0 0 3.6 0 8s3.6 8 8 8 8-3.6 8-8-3.6-8-8-8zm.5 11.5c0 .1-.1.1-.1.2 0 0-.1.1-.2.1H8c-.1 0-.3-.1-.4-.1 0-.1-.1-.1-.1-.2v-.4c0-.1.1-.1.1-.2.1 0 .1-.1.2-.1.1-.1.3-.1.4 0 .1 0 .1.1.2.1s.1.1.1.2v.4zm1.2-4.2c-.1.2-.3.4-.4.6-.4.4-.8.9-.8 1.3v.4c0 .3-.2.5-.5.5s-.5-.3-.5-.5v-.4c0-.8.5-1.4 1-1.9.2-.2.3-.3.4-.5.1-.2.2-.4.2-.6 0-.6-.5-1-1.1-1-.6 0-1.1.4-1.1 1 0 .3-.2.5-.5.5s-.5-.2-.5-.5c0-1.1 1-2 2.1-2s2 .8 2.1 2c0 .4-.1.8-.4 1.1z"/></svg>