<?xml version="1.0" encoding="utf-8"?><svg xmlns="http://www.w3.org/2000/svg" width="24" height="24" viewBox="0 0 24 24"><path fill-rule="evenodd" d="M3.2 1.5a1.7 1.7 0 0 0-1.7 1.7v9.9a1.7 1.7 0 0 0 1.7 1.7h1.1a.5.5 0 0 1 0 1H3.2a2.7 2.7 0 0 1-2.7-2.7V3.2A2.7 2.7 0 0 1 3.2.5h9.9a2.7 2.7 0 0 1 2.7 2.7v1.1a.5.5 0 0 1-1 0V3.2a1.7 1.7 0 0 0-1.7-1.7H3.2Zm7.7 7.7a1.7 1.7 0 0 0-1.7 1.7v9.9a1.7 1.7 0 0 0 1.7 1.7h9.9a1.7 1.7 0 0 0 1.7-1.7v-9.9a1.7 1.7 0 0 0-1.7-1.7h-9.9Zm-2.7 1.7a2.7 2.7 0 0 1 2.7-2.7h9.9a2.7 2.7 0 0 1 2.7 2.7v9.9a2.7 2.7 0 0 1-2.7 2.7h-9.9a2.7 2.7 0 0 1-2.7-2.7v-9.9Z" clip-rule="evenodd"/></svg>