<?xml version="1.0" encoding="utf-8"?><svg xmlns="http://www.w3.org/2000/svg" width="24" height="24" viewBox="0 0 24 24"><path d="M1.5 4.7h3.7c.3 1.7 1.9 2.9 3.6 2.6 1.4-.3 2.4-1.3 2.6-2.6h11c.3 0 .5-.2.5-.5s-.2-.5-.5-.5h-11C11.1 2 9.5.8 7.8 1.1c-1.3.2-2.3 1.2-2.6 2.5H1.5c-.3 0-.5.3-.5.5s.2.6.5.6zM8.3 2c1.2 0 2.1.9 2.1 2.1s-.9 2.1-2.1 2.1-2.1-.9-2.1-2.1S7.2 2 8.3 2zm14.2 9.5h-3.7c-.3-1.7-1.9-2.9-3.6-2.6-1.3.2-2.3 1.2-2.6 2.6h-11c-.4 0-.6.2-.6.5s.2.5.5.5h11c.3 1.7 1.9 2.9 3.6 2.6 1.3-.2 2.3-1.2 2.6-2.6h3.7c.3 0 .5-.2.5-.5.1-.3-.1-.5-.4-.5zm-6.8 2.6c-1.2 0-2.1-.9-2.1-2.1s.9-2.1 2.1-2.1 2.1.9 2.1 2.1-1 2.1-2.1 2.1zm6.8 5.2h-11c-.3-1.7-1.9-2.9-3.6-2.6-1.4.3-2.4 1.3-2.7 2.6H1.5c-.3 0-.5.2-.5.5s.2.5.5.5h3.7c.3 1.7 1.9 2.9 3.6 2.6 1.3-.2 2.3-1.2 2.6-2.6h11c.3 0 .5-.2.5-.5s-.1-.5-.4-.5zM8.3 22c-1.2 0-2.1-.9-2.1-2.1s.9-2.1 2.1-2.1 2.1.9 2.1 2.1S9.5 22 8.3 22z"/></svg>