<?xml version="1.0" encoding="utf-8"?><svg xmlns="http://www.w3.org/2000/svg" width="16" height="16" viewBox="0 0 16 16"><path fill-rule="evenodd" d="M8.737 1.342a4.188 4.188 0 0 1 5.92 5.921l-.005.006-2.213 2.213a4.187 4.187 0 0 1-6.314-.452.5.5 0 0 1 .8-.6 3.188 3.188 0 0 0 4.807.345l2.21-2.21A3.188 3.188 0 0 0 9.433 2.06L8.168 3.317a.5.5 0 0 1-.705-.709l1.274-1.266ZM5.059 5.54a4.187 4.187 0 0 1 4.816 1.416.5.5 0 0 1-.8.599 3.188 3.188 0 0 0-4.807-.345l-2.21 2.21a3.188 3.188 0 0 0 4.507 4.507l1.258-1.258a.5.5 0 0 1 .707.707l-1.267 1.267a4.188 4.188 0 0 1-5.92-5.921l.005-.006 2.213-2.213a4.188 4.188 0 0 1 1.498-.963Z" clip-rule="evenodd"/></svg>