<?xml version="1.0" encoding="utf-8"?><svg xmlns="http://www.w3.org/2000/svg" width="16" height="16" viewBox="0 0 16 16"><path fill-rule="evenodd" d="M6.81.464a.5.5 0 0 1 .457-.297 2.7 2.7 0 0 1 2.7 2.7V5.3h3.648a1.967 1.967 0 0 1 1.963 2.262l-1.012 6.6a1.968 1.968 0 0 1-1.964 1.671H2.133a1.967 1.967 0 0 1-1.966-1.966V8.732a1.967 1.967 0 0 1 1.966-1.966h1.875L6.81.464ZM3.833 7.767h-1.7a.967.967 0 0 0-.966.966v5.133a.967.967 0 0 0 .966.967h1.7V7.767Zm1 7.066h7.778a.967.967 0 0 0 .966-.821l1.012-6.6a.97.97 0 0 0-.56-1.027.966.966 0 0 0-.406-.085H9.467a.5.5 0 0 1-.5-.5V2.867a1.7 1.7 0 0 0-1.388-1.671L4.833 7.373v7.46Z" clip-rule="evenodd"/></svg>