<?xml version="1.0" encoding="utf-8"?><svg xmlns="http://www.w3.org/2000/svg" width="24" height="24" viewBox="0 0 24 24"><path fill-rule="evenodd" d="M4.746.5H20.45a2.7 2.7 0 0 1 2.7 2.7v7.7a2.7 2.7 0 0 1-2.7 2.7h-2.975l-4.268 9.603a.5.5 0 0 1-.457.297 3.8 3.8 0 0 1-3.8-3.8v-3.9H3.228A2.7 2.7 0 0 1 .53 12.695l1.518-9.9A2.701 2.701 0 0 1 4.746.5ZM17.65 12.6h2.8a1.7 1.7 0 0 0 1.7-1.7V3.2a1.7 1.7 0 0 0-1.7-1.7h-2.8v11.1Zm-1-11.1H4.737a1.7 1.7 0 0 0-1.7 1.445l-1.518 9.9a1.702 1.702 0 0 0 1.7 1.955h6.232a.5.5 0 0 1 .5.5v4.4a2.8 2.8 0 0 0 2.483 2.782l4.217-9.488V1.5Z" clip-rule="evenodd"/></svg>