<?xml version="1.0" encoding="utf-8"?><svg xmlns="http://www.w3.org/2000/svg" width="24" height="24" viewBox="0 0 24 24"><path d="M20.8 4.9c-1.5-.4-3-1-4.4-1.5s-2.8-1.3-4-2.1L12 1l-.4.2c-1.2.9-2.6 1.5-4 2.2S4.7 4.5 3.2 4.9l-.6.1v5.5c0 8.9 9 12.2 9.1 12.3l.2.1.2-.1c.1 0 9.1-3.3 9.1-12.3V5l-.4-.1zm-.8 5.8c0 7.4-6.7 10.4-8 11-1.3-.6-8-3.6-8-11V6.1c1.4-.4 2.8-.9 4.1-1.5 1.3-.5 2.7-1.1 3.9-1.9 1.2.8 2.6 1.4 3.9 2 1.3.6 2.7 1.1 4.1 1.5v4.5zm-12.8.5c-.3-.3-.7-.2-1 .1-.2.3-.2.6 0 .9l4 4 7.3-7c.3-.3.3-.7 0-1-.3-.3-.7-.3-1 0l-6.3 6.1-3-3.1z"/></svg>