<?xml version="1.0" encoding="utf-8"?><svg xmlns="http://www.w3.org/2000/svg" width="16" height="16" viewBox="0 0 16 16"><path fill-rule="evenodd" d="M.833 3.333a.5.5 0 0 1 .5-.5h13.334a.5.5 0 1 1 0 1H1.333a.5.5 0 0 1-.5-.5ZM10.963 6.5a2.463 2.463 0 1 0 1.703 4.243.534.534 0 0 1 .077-.078 2.463 2.463 0 0 0-1.78-4.165Zm2.777 4.533a3.463 3.463 0 1 0-.707.707l1.28 1.28a.5.5 0 0 0 .707-.707l-1.28-1.28ZM.833 8a.5.5 0 0 1 .5-.5H6a.5.5 0 0 1 0 1H1.333a.5.5 0 0 1-.5-.5Zm0 4.667a.5.5 0 0 1 .5-.5H6a.5.5 0 0 1 0 1H1.333a.5.5 0 0 1-.5-.5Z" clip-rule="evenodd"/></svg>