<?xml version="1.0" encoding="utf-8"?><svg xmlns="http://www.w3.org/2000/svg" width="16" height="16" viewBox="0 0 16 16"><path d="M2.667 1.5c-.645 0-1.167.522-1.167 1.167V6c0 .644.522 1.167 1.167 1.167H6c.644 0 1.167-.523 1.167-1.167V2.667C7.167 2.022 6.644 1.5 6 1.5H2.667ZM10 1.5c-.644 0-1.167.522-1.167 1.167V6c0 .644.523 1.167 1.167 1.167h3.333c.645 0 1.167-.523 1.167-1.167V2.667c0-.645-.522-1.167-1.167-1.167H10ZM2.667 8.833C2.022 8.833 1.5 9.356 1.5 10v3.333c0 .645.522 1.167 1.167 1.167H6c.644 0 1.167-.522 1.167-1.167V10c0-.644-.523-1.167-1.167-1.167H2.667Zm7.333 0c-.644 0-1.167.523-1.167 1.167v3.333c0 .645.523 1.167 1.167 1.167h3.333c.645 0 1.167-.522 1.167-1.167V10c0-.644-.522-1.167-1.167-1.167H10Z"/></svg>