<?xml version="1.0" encoding="utf-8"?><svg xmlns="http://www.w3.org/2000/svg" width="24" height="24" viewBox="0 0 24 24"><path d="M4 2.5A1.5 1.5 0 0 0 2.5 4v5A1.5 1.5 0 0 0 4 10.5h5A1.5 1.5 0 0 0 10.5 9V4A1.5 1.5 0 0 0 9 2.5H4Zm11 0A1.5 1.5 0 0 0 13.5 4v5a1.5 1.5 0 0 0 1.5 1.5h5A1.5 1.5 0 0 0 21.5 9V4A1.5 1.5 0 0 0 20 2.5h-5Zm-11 11A1.5 1.5 0 0 0 2.5 15v5A1.5 1.5 0 0 0 4 21.5h5a1.5 1.5 0 0 0 1.5-1.5v-5A1.5 1.5 0 0 0 9 13.5H4Zm11 0a1.5 1.5 0 0 0-1.5 1.5v5a1.5 1.5 0 0 0 1.5 1.5h5a1.5 1.5 0 0 0 1.5-1.5v-5a1.5 1.5 0 0 0-1.5-1.5h-5Z"/></svg>