<?xml version="1.0" encoding="utf-8"?><svg xmlns="http://www.w3.org/2000/svg" width="24" height="24" viewBox="0 0 24 24"><path fill-rule="evenodd" d="M4 1.5a.5.5 0 0 1 .5.5v8a.5.5 0 0 1-1 0V2a.5.5 0 0 1 .5-.5Zm8 0a.5.5 0 0 1 .5.5v5.5H15a.5.5 0 0 1 0 1h-2.993a.509.509 0 0 1-.014 0H9a.5.5 0 0 1 0-1h2.5V2a.5.5 0 0 1 .5-.5Zm8 0a.5.5 0 0 1 .5.5v10a.5.5 0 0 1-1 0V2a.5.5 0 0 1 .5-.5Zm-8 10a.5.5 0 0 1 .5.5v10a.5.5 0 0 1-1 0V12a.5.5 0 0 1 .5-.5ZM.5 14a.5.5 0 0 1 .5-.5h6a.5.5 0 1 1 0 1H4.5V22a.5.5 0 0 1-1 0v-7.5H1a.5.5 0 0 1-.5-.5Zm16 2a.5.5 0 0 1 .5-.5h6a.5.5 0 1 1 0 1h-2.5V22a.5.5 0 0 1-1 0v-5.5H17a.5.5 0 0 1-.5-.5Z" clip-rule="evenodd"/></svg>