<?xml version="1.0" encoding="utf-8"?><svg xmlns="http://www.w3.org/2000/svg" width="24" height="24" viewBox="0 0 24 24"><path fill-rule="evenodd" d="M10.13 14.41a3.25 3.25 0 0 0 1.86.59c.889 0 1.741-.369 2.37-1.025a3.581 3.581 0 0 0 .98-2.475 3.61 3.61 0 0 0-.564-1.944 3.386 3.386 0 0 0-1.503-1.29 3.217 3.217 0 0 0-1.936-.199 3.308 3.308 0 0 0-1.715.958 3.551 3.551 0 0 0-.917 1.792 3.646 3.646 0 0 0 .19 2.022 3.47 3.47 0 0 0 1.234 1.571Zm.531-4.989A2.32 2.32 0 0 1 11.991 9c.634 0 1.243.263 1.692.732.448.47.7 1.105.7 1.768 0 .495-.14.978-.403 1.389a2.419 2.419 0 0 1-1.074.92c-.437.19-.918.24-1.382.143a2.363 2.363 0 0 1-1.225-.684 2.537 2.537 0 0 1-.655-1.28 2.604 2.604 0 0 1 .136-1.445 2.48 2.48 0 0 1 .881-1.122Z" clip-rule="evenodd"/><path fill-rule="evenodd" d="M1.05 11.72c.163.34 4.04 8.28 10.94 8.28 6.94 0 10.816-7.94 10.96-8.28a.528.528 0 0 0 0-.45l-.001-.003C22.767 10.898 18.873 3 11.99 3 5.124 3 1.251 10.861 1.053 11.264l-.003.006a.529.529 0 0 0 0 .45ZM12.01 19c-5.705 0-9.314-6.23-9.984-7.5.67-1.27 4.221-7.5 9.964-7.5s9.333 6.23 10.003 7.5c-.67 1.27-4.279 7.5-9.983 7.5Z" clip-rule="evenodd"/></svg>