<?xml version="1.0" encoding="utf-8"?><svg xmlns="http://www.w3.org/2000/svg" width="16" height="16" viewBox="0 0 16 16"><path fill-rule="evenodd" d="M11.138 1.167c-.623 0-1.22.247-1.66.687l-6.54 6.54a3.772 3.772 0 0 0 5.335 5.335l6.54-6.54a.5.5 0 1 1 .706.707l-6.54 6.54a4.772 4.772 0 0 1-6.748-6.75l6.54-6.539a3.348 3.348 0 1 1 4.735 4.735l-6.547 6.54A1.924 1.924 0 1 1 4.238 9.7l6.042-6.035a.5.5 0 0 1 .706.708l-6.041 6.034a.924.924 0 0 0 1.307 1.307l6.547-6.54a2.349 2.349 0 0 0-1.66-4.008Z" clip-rule="evenodd"/></svg>