<?xml version="1.0" encoding="utf-8"?><svg xmlns="http://www.w3.org/2000/svg" width="24" height="24" viewBox="0 0 24 24"><path fill-rule="evenodd" d="M10.443.797A.5.5 0 0 1 10.9.5a3.8 3.8 0 0 1 3.8 3.8v3.9h5.723a2.7 2.7 0 0 1 2.697 3.105l-1.518 9.9a2.7 2.7 0 0 1-2.697 2.295H3.2a2.7 2.7 0 0 1-2.7-2.7v-7.7a2.7 2.7 0 0 1 2.7-2.7h2.975L10.443.797ZM6 11.4H3.2a1.7 1.7 0 0 0-1.7 1.7v7.7a1.7 1.7 0 0 0 1.7 1.7H6V11.4Zm1 11.1h11.913a1.7 1.7 0 0 0 1.7-1.445l1.518-9.9a1.7 1.7 0 0 0-1.7-1.955H14.2a.5.5 0 0 1-.5-.5V4.3a2.8 2.8 0 0 0-2.483-2.782L7 11.006V22.5Z" clip-rule="evenodd"/></svg>