<?xml version="1.0" encoding="utf-8"?><svg xmlns="http://www.w3.org/2000/svg" width="16" height="16" viewBox="0 0 16 16"><path d="M15 15.5a.47.47 0 0 1-.35-.15l-2.92-2.92a6.84 6.84 0 0 1-3.72 1.16C3.29 13.59.66 8.44.55 8.22a.5.5 0 0 1 0-.46 12.16 12.16 0 0 1 2.92-3.58L.65 1.35a.49.49 0 0 1 .7-.68l3.22 3.2L7 6.3l2.68 2.68 2.41 2.42 3.26 3.27a.481.481 0 0 1-.35.83ZM1.57 8c.55.95 2.86 4.59 6.43 4.59a5.86 5.86 0 0 0 3-.88l-1.68-1.68c-.12.089-.252.163-.39.22-.293.13-.61.201-.93.21a2.76 2.76 0 0 1-1-.18 2.41 2.41 0 0 1-1.33-1.33 2.36 2.36 0 0 1 0-1.88 2.46 2.46 0 0 1 .28-.4L4.18 4.89A11.15 11.15 0 0 0 1.57 8Zm5.13-.59v.07a1.43 1.43 0 0 0-.13.54c.002.192.039.382.11.56.071.176.176.336.31.47.136.131.296.236.47.31.175.07.362.103.55.1.189-.01.374-.05.55-.12h.07L6.7 7.41Zm6.93 3.12a.5.5 0 0 1-.39-.82c.45-.531.848-1.104 1.19-1.71-.54-.95-2.86-4.59-6.43-4.59a5.41 5.41 0 0 0-1.21.14.5.5 0 0 1-.409-.891.49.49 0 0 1 .18-.079 6.37 6.37 0 0 1 1.39-.17c4.71 0 7.34 5.15 7.45 5.37a.5.5 0 0 1 0 .46c-.401.752-.88 1.46-1.43 2.11a.49.49 0 0 1-.34.18Z"/></svg>