<?xml version="1.0" encoding="utf-8"?><svg xmlns="http://www.w3.org/2000/svg" width="24" height="24" viewBox="0 0 24 24"><path fill-rule="evenodd" d="M12 .5a.5.5 0 0 1 .453.289l3.384 7.252 7.23.963a.5.5 0 0 1 .287.85l-5.3 5.3 1.931 7.725a.5.5 0 0 1-.72.562L12 19.567 4.735 23.44a.5.5 0 0 1-.72-.562l1.931-7.726-5.3-5.3a.5.5 0 0 1 .288-.849l7.229-.963L11.547.789A.5.5 0 0 1 12 .5Zm0 1.682-3.047 6.53a.5.5 0 0 1-.387.284l-6.497.866 4.785 4.784a.5.5 0 0 1 .131.475L5.258 22.03l6.507-3.47a.5.5 0 0 1 .47 0l6.507 3.47-1.727-6.908a.5.5 0 0 1 .131-.475l4.785-4.784-6.497-.866a.5.5 0 0 1-.387-.285L12 2.182Z" clip-rule="evenodd"/></svg>