<?xml version="1.0" encoding="utf-8"?><svg xmlns="http://www.w3.org/2000/svg" width="16" height="16" viewBox="0 0 16 16"><path fill-rule="evenodd" d="M8 1.833A2.833 2.833 0 1 0 8 7.5a2.833 2.833 0 0 0 0-5.667ZM4.167 4.667a3.833 3.833 0 1 1 7.666 0 3.833 3.833 0 0 1-7.666 0Zm-2.19 6.494c.723-.642 1.69-.994 2.69-.994h6.666c1 0 1.967.352 2.69.994.724.644 1.144 1.53 1.144 2.469v1.481a.5.5 0 1 1-1 0V13.63c0-.633-.283-1.254-.809-1.722-.528-.47-1.255-.741-2.025-.741H4.667c-.77 0-1.497.272-2.025.741-.526.468-.809 1.089-.809 1.722v1.481a.5.5 0 0 1-1 0V13.63c0-.94.42-1.825 1.145-2.47Z" clip-rule="evenodd"/></svg>