<?xml version="1.0" encoding="utf-8"?><svg xmlns="http://www.w3.org/2000/svg" width="16" height="16" viewBox="0 0 16 16"><path fill-rule="evenodd" d="M5.5 1.333C5.5.689 6.02.167 6.665.167h2.667c.644 0 1.167.522 1.167 1.166v13.333c0 .645-.523 1.167-1.167 1.167H6.666A1.167 1.167 0 0 1 5.5 14.666V1.333Zm6 3.334c0-.645.522-1.167 1.166-1.167h2c.644 0 1.167.522 1.167 1.167v10c0 .644-.523 1.166-1.167 1.166h-2a1.167 1.167 0 0 1-1.167-1.167v-10ZM.166 7c0-.644.522-1.167 1.166-1.167h2C3.978 5.833 4.5 6.356 4.5 7v7.666c0 .645-.522 1.167-1.167 1.167h-2a1.168 1.168 0 0 1-1.166-1.167V7Z" clip-rule="evenodd"/></svg>