<?xml version="1.0" encoding="utf-8"?><svg xmlns="http://www.w3.org/2000/svg" width="24" height="24" viewBox="0 0 24 24"><path fill-rule="evenodd" d="M9.999 1.5a.5.5 0 0 0-.5.5v20a.5.5 0 0 0 .5.5h4a.5.5 0 0 0 .5-.5V2a.5.5 0 0 0-.5-.5h-4Zm-1.5.5a1.5 1.5 0 0 1 1.5-1.5h4A1.5 1.5 0 0 1 15.5 2v20a1.5 1.5 0 0 1-1.5 1.5h-4A1.5 1.5 0 0 1 8.5 22V2Zm10.5 4.5a.5.5 0 0 0-.5.5v15a.5.5 0 0 0 .5.5h3a.5.5 0 0 0 .5-.5V7a.5.5 0 0 0-.5-.5h-3Zm-1.5.5A1.5 1.5 0 0 1 19 5.5h3A1.5 1.5 0 0 1 23.5 7v15a1.5 1.5 0 0 1-1.5 1.5h-3a1.5 1.5 0 0 1-1.5-1.5V7ZM2 9.5a.5.5 0 0 0-.5.5v12a.5.5 0 0 0 .5.5h3a.5.5 0 0 0 .5-.5V10a.5.5 0 0 0-.5-.5H2ZM.5 10A1.5 1.5 0 0 1 2 8.5h3A1.5 1.5 0 0 1 6.5 10v12A1.5 1.5 0 0 1 5 23.5H2A1.5 1.5 0 0 1 .5 22V10Z" clip-rule="evenodd"/></svg>