<?xml version="1.0" encoding="utf-8"?><svg xmlns="http://www.w3.org/2000/svg" width="16" height="16" viewBox="0 0 16 16"><path fill-rule="evenodd" d="M8 1.167a6.833 6.833 0 1 0 0 13.666A6.833 6.833 0 0 0 8 1.167ZM.167 8a7.833 7.833 0 1 1 15.666 0A7.833 7.833 0 0 1 .167 8ZM9.75 4.969a3.5 3.5 0 0 0-5.13 3.936.5.5 0 0 1-.967.259 4.5 4.5 0 0 1 6.597-5.06.5.5 0 0 1-.5.865Zm1.985 1.514a.5.5 0 0 1 .612.353 4.5 4.5 0 0 1-6.597 5.06.5.5 0 0 1 .5-.865 3.5 3.5 0 0 0 5.131-3.936.5.5 0 0 1 .354-.612Z" clip-rule="evenodd"/></svg>