<?xml version="1.0" encoding="utf-8"?><svg xmlns="http://www.w3.org/2000/svg" width="24" height="24" viewBox="0 0 24 24"><path d="m12 22.5-.229-.13c-.44-.248-10.77-6.216-10.77-14.514a6.406 6.406 0 0 1 1.134-3.78 5.992 5.992 0 0 1 3.093-2.303 5.753 5.753 0 0 1 3.802.105A6.028 6.028 0 0 1 12 4.35a6.18 6.18 0 0 1 1.78-1.813 5.808 5.808 0 0 1 3.204-.996 5.698 5.698 0 0 1 2.297.474 5.895 5.895 0 0 1 1.94 1.369 6.268 6.268 0 0 1 1.322 2.05c.306.767.461 1.591.457 2.422 0 8.299-10.33 14.266-10.77 14.515L12 22.5Z"/></svg>