<?xml version="1.0" encoding="utf-8"?><svg xmlns="http://www.w3.org/2000/svg" width="16" height="16" viewBox="0 0 16 16"><path fill-rule="evenodd" d="M1.5 2.667c0-.645.522-1.167 1.167-1.167H6c.644 0 1.167.522 1.167 1.167V6c0 .644-.523 1.167-1.167 1.167H2.667A1.167 1.167 0 0 1 1.5 6V2.667ZM2.667 2.5a.167.167 0 0 0-.167.167V6c0 .092.075.167.167.167H6A.167.167 0 0 0 6.167 6V2.667A.167.167 0 0 0 6 2.5H2.667Zm6.166.167c0-.645.523-1.167 1.167-1.167h3.333c.645 0 1.167.522 1.167 1.167V6c0 .644-.522 1.167-1.167 1.167H10A1.167 1.167 0 0 1 8.833 6V2.667ZM10 2.5a.167.167 0 0 0-.167.167V6c0 .092.075.167.167.167h3.333A.167.167 0 0 0 13.5 6V2.667a.167.167 0 0 0-.167-.167H10ZM1.5 10c0-.644.522-1.167 1.167-1.167H6c.644 0 1.167.523 1.167 1.167v3.333c0 .645-.523 1.167-1.167 1.167H2.667A1.167 1.167 0 0 1 1.5 13.333V10Zm1.167-.167A.167.167 0 0 0 2.5 10v3.333c0 .092.075.167.167.167H6a.167.167 0 0 0 .167-.167V10A.167.167 0 0 0 6 9.833H2.667ZM8.833 10c0-.644.523-1.167 1.167-1.167h3.333c.645 0 1.167.523 1.167 1.167v3.333c0 .645-.522 1.167-1.167 1.167H10a1.167 1.167 0 0 1-1.167-1.167V10ZM10 9.833a.167.167 0 0 0-.167.167v3.333c0 .092.075.167.167.167h3.333a.167.167 0 0 0 .167-.167V10a.167.167 0 0 0-.167-.167H10Z" clip-rule="evenodd"/></svg>