<?xml version="1.0" encoding="utf-8"?><svg xmlns="http://www.w3.org/2000/svg" width="24" height="24" viewBox="0 0 24 24"><path fill-rule="evenodd" d="M12 1.5A1.5 1.5 0 0 0 10.5 3v.172A2.15 2.15 0 0 1 9.197 5.14a.5.5 0 0 1-.178.04 2.15 2.15 0 0 1-2.269-.473l-.004-.003-.06-.06a1.501 1.501 0 1 0-2.123 2.122l.064.064a2.15 2.15 0 0 1 .437 2.357 2.15 2.15 0 0 1-1.962 1.393H3a1.5 1.5 0 1 0 0 3h.172a2.15 2.15 0 0 1 1.967 1.3 2.15 2.15 0 0 1-.432 2.37l-.003.004-.06.06a1.501 1.501 0 1 0 2.122 2.123l.064-.065a2.151 2.151 0 0 1 2.357-.436 2.15 2.15 0 0 1 1.393 1.962V21a1.5 1.5 0 1 0 3 0v-.172a2.15 2.15 0 0 1 1.3-1.966 2.15 2.15 0 0 1 2.37.43l.004.004.06.06a1.5 1.5 0 1 0 2.123-2.122l-.065-.064a2.151 2.151 0 0 1-.43-2.37 2.15 2.15 0 0 1 1.966-1.3H21a1.5 1.5 0 1 0 0-3h-.172a2.15 2.15 0 0 1-1.968-1.303.5.5 0 0 1-.04-.178 2.15 2.15 0 0 1 .473-2.269l.003-.004.06-.06a1.501 1.501 0 1 0-2.122-2.123l-.064.064a2.15 2.15 0 0 1-2.37.432 2.15 2.15 0 0 1-1.3-1.967V3A1.5 1.5 0 0 0 12 1.5Zm-1.768-.268A2.5 2.5 0 0 1 14.5 3v.089a1.15 1.15 0 0 0 .697 1.051l.005.003a1.15 1.15 0 0 0 1.267-.229l.057-.057a2.501 2.501 0 1 1 3.537 3.537l-.057.057a1.15 1.15 0 0 0-.229 1.267.5.5 0 0 1 .042.167 1.15 1.15 0 0 0 1.012.615H21a2.5 2.5 0 0 1 0 5h-.089a1.15 1.15 0 0 0-1.051.697l-.002.005a1.15 1.15 0 0 0 .228 1.267l.057.057a2.502 2.502 0 1 1-3.537 3.537l-.058-.057a1.15 1.15 0 0 0-1.266-.229l-.005.003a1.15 1.15 0 0 0-.697 1.051V21a2.5 2.5 0 0 1-5 0v-.084a1.15 1.15 0 0 0-.782-1.059 1.15 1.15 0 0 0-1.267.229l-.057.057a2.5 2.5 0 1 1-3.537-3.537l.057-.057a1.15 1.15 0 0 0 .229-1.267l-.003-.005a1.15 1.15 0 0 0-1.051-.697H3a2.5 2.5 0 0 1 0-5h.084a1.15 1.15 0 0 0 1.059-.782 1.15 1.15 0 0 0-.229-1.267l-.057-.057a2.5 2.5 0 1 1 3.537-3.537l.057.057a1.15 1.15 0 0 0 1.267.229.5.5 0 0 1 .167-.042A1.15 1.15 0 0 0 9.5 3.17V3a2.5 2.5 0 0 1 .732-1.768ZM8.5 12a3.5 3.5 0 1 1 7 0 3.5 3.5 0 0 1-7 0ZM12 9.5a2.5 2.5 0 1 0 0 5 2.5 2.5 0 0 0 0-5Z" clip-rule="evenodd"/></svg>