<?xml version="1.0" encoding="utf-8"?><svg xmlns="http://www.w3.org/2000/svg" width="16" height="16" viewBox="0 0 16 16"><path fill-rule="evenodd" d="M7.105.646A1.167 1.167 0 0 1 8.6.632l6.273 5.137c.848.695.357 2.07-.74 2.07H14a.167.167 0 0 0-.166.166V14c0 .644-.523 1.167-1.167 1.167H12a.5.5 0 1 1 0-1h.667a.167.167 0 0 0 .166-.167V8.005c0-.644.523-1.166 1.167-1.166h.134a.167.167 0 0 0 .105-.296L7.966 1.406a.167.167 0 0 0-.214.002L1.706 6.545a.167.167 0 0 0 .108.294H2c.644 0 1.167.522 1.167 1.166V14c0 .092.074.167.166.167h6A.167.167 0 0 0 9.5 14V8.667a.167.167 0 0 0-.167-.167H6.667a.167.167 0 0 0-.167.167v3.739a.5.5 0 1 1-1 0v-3.74c0-.644.522-1.166 1.167-1.166h2.666c.645 0 1.167.522 1.167 1.167V14c0 .644-.522 1.167-1.167 1.167h-6A1.167 1.167 0 0 1 2.166 14V8.005A.167.167 0 0 0 2 7.84h-.186C.73 7.839.232 6.486 1.06 5.783L7.105.646Z" clip-rule="evenodd"/></svg>