<?xml version="1.0" encoding="utf-8"?><svg xmlns="http://www.w3.org/2000/svg" width="24" height="24" viewBox="0 0 24 24"><path d="M12 1C5.9 1 1 5.9 1 12s4.9 11 11 11 11-4.9 11-11S18.1 1 12 1zm0 16.5c-.3 0-.6-.2-.6-.6s.2-.6.6-.6c.3 0 .6.2.6.6s-.3.6-.6.6zm2.4-6.7c-.2.3-.5.6-.8.9-.6.7-1.2 1.3-1.2 2v.6c0 .3-.2.5-.5.5s-.5-.2-.5-.5v-.6c0-1.1.7-1.9 1.4-2.7.2-.3.5-.6.7-.9.2-.3.3-.6.3-.9 0-1-.8-1.7-1.9-1.7S10 8.3 10 9.2c0 .3-.2.5-.5.5s-.4-.1-.4-.4c0-1.5 1.3-2.7 2.9-2.7s2.9 1.2 2.9 2.7c0 .6-.2 1.1-.5 1.5z"/></svg>