<svg width="39" height="40" viewBox="0 0 39 40" fill="none" xmlns="http://www.w3.org/2000/svg">
<path fill-rule="evenodd" clip-rule="evenodd" d="M5.09579 34.2797L0.597677 38.7781H0V40H38.5041V38.7781H33.4254L37.9235 34.2797H38.5041V33.0578H0V34.2797H5.09579ZM5.5847 34.2797L1.08659 38.7781H5.98747L10.4856 34.2797H5.5847ZM10.9745 34.2797L6.47639 38.7781H11.3773L15.8754 34.2797H10.9745ZM16.3643 34.2797L11.8662 38.7781H16.7671L21.2652 34.2797H16.3643ZM21.7541 34.2797L17.256 38.7781H22.1569L26.655 34.2797H21.7541ZM27.1439 34.2797L22.6458 38.7781H27.5467L32.0448 34.2797H27.1439ZM32.5337 34.2797L28.0356 38.7781H32.9365L37.4346 34.2797H32.5337ZM32.8885 26.7099C30.5197 28.8098 25.1462 32.2281 19.2607 32.2281C13.3402 32.2281 8.17423 28.9848 5.64263 26.7099H6.85306C7.02654 26.7099 7.16729 26.5696 7.16729 26.3961C7.16729 26.2226 7.02654 26.0824 6.85306 26.0824H4.53869V28.3964C4.53869 28.5699 4.67958 28.7102 4.85307 28.7102C5.02639 28.7102 5.16729 28.5699 5.16729 28.3964V27.1278C7.75984 29.475 13.1172 32.8571 19.2607 32.8571C25.3427 32.8571 30.8959 29.3212 33.3311 27.1579V28.3964C33.3311 28.5699 33.4718 28.7102 33.6453 28.7102C33.8188 28.7102 33.9596 28.5699 33.9596 28.3964V26.0824H31.6453C31.4718 26.0824 31.3311 26.2226 31.3311 26.3961C31.3311 26.5696 31.4718 26.7099 31.6453 26.7099H32.8885ZM28.6161 18.1777C28.564 18.1732 28.5114 18.1701 28.4581 18.1701C27.5587 18.1701 26.8285 18.9003 26.8285 19.8009C26.8285 20.6999 27.5587 21.4301 28.4581 21.4301C29.3577 21.4301 30.0879 20.6999 30.0879 19.8009C30.0879 19.3031 29.8648 18.858 29.5133 18.5594C29.5851 18.1143 29.6224 17.6588 29.6224 17.1956C29.6224 15.3024 28.7134 13.0004 27.4177 10.712C24.474 5.51365 19.5686 0.357537 19.5686 0.357537L19.2281 0L18.8865 0.357537C18.8865 0.357537 13.9807 5.485 11.0366 10.6879C9.74098 12.9763 8.83194 15.2859 8.83194 17.1956C8.83194 22.1813 13.4755 26.4897 19.2272 26.4897C20.9825 26.4897 22.6361 26.105 24.0852 25.4246C24.3207 25.3145 24.4221 25.0339 24.3115 24.7986C24.2009 24.5618 23.9199 24.4607 23.6844 24.5723C22.3551 25.1954 20.8375 25.5468 19.2272 25.5468C14.0246 25.5468 9.77477 21.7046 9.77477 17.1956C9.77477 14.8107 11.3403 11.7801 13.1895 8.9893C15.4961 5.50914 18.2721 2.40913 19.2263 1.37428C20.1798 2.41214 22.957 5.52873 25.2647 9.01342C27.1137 11.8072 28.6796 14.8333 28.6796 17.1956C28.6796 17.5275 28.658 17.8564 28.6161 18.1777ZM25.8526 21.765C26.4919 21.765 27.0108 22.2839 27.0108 22.9235C27.0108 23.5631 26.4919 24.0821 25.8526 24.0821C25.2133 24.0821 24.6944 23.5631 24.6944 22.9235C24.6944 22.2839 25.2133 21.765 25.8526 21.765ZM19.4599 9.95625C19.4599 9.95625 23.6784 14.3883 23.6784 16.9754C23.6784 19.0692 21.7882 20.7256 19.4599 20.7256C17.1317 20.7256 15.2414 18.9938 15.2414 16.9754C15.2414 14.3642 19.4599 9.95625 19.4599 9.95625ZM28.4581 19.113C28.8372 19.113 29.1451 19.4207 29.1451 19.8009C29.1451 20.1795 28.8372 20.4873 28.4581 20.4873C28.079 20.4873 27.7713 20.1795 27.7713 19.8009C27.7713 19.4207 28.079 19.113 28.4581 19.113Z" fill="white"/>
</svg>
