<svg width="39" height="40" viewBox="0 0 39 40" fill="none" xmlns="http://www.w3.org/2000/svg">
<path fill-rule="evenodd" clip-rule="evenodd" d="M6.37871 14.2188C6.37871 13.1876 6.87227 12.4935 7.44804 11.8945C8.11139 11.2045 12.1129 6.95868 12.457 6.71876L21.7809 16.3868L16.3473 22.0189C15.9218 22.5644 15.5967 23.1838 15.4398 23.8866C15.3854 24.1302 15.37 24.491 15.3086 24.7656L12.9261 22.3242C12.1206 21.4857 7.37492 16.6219 6.988 16.0844C6.68877 15.6687 6.37871 14.9225 6.37871 14.2188ZM18.5354 11.0156L27.784 1.34744L37.1643 11.0743L22.4938 26.3086C21.3222 27.5284 21.0363 27.9687 19.3609 27.9687C17.9318 27.9687 16.6594 26.618 16.6594 24.7656C16.6594 23.2013 18.4344 21.7847 19.6798 20.4883L22.784 17.2357C23.4882 16.1923 22.6499 15.3382 22.1186 14.7851L19.7173 12.2852C19.3902 11.9446 18.7603 11.3653 18.5354 11.0156ZM17.5598 10C17.2239 9.7658 16.6675 9.11005 16.3404 8.76953L13.9391 6.26955C12.9972 5.28885 12.3812 4.79748 11.2375 5.99605L6.3599 11.0741C5.22822 12.2454 5.10303 13.1732 5.10303 14.6875C5.10303 16.4275 6.70279 17.7983 7.67315 18.8086C8.17306 19.3291 10.7405 21.9303 10.9562 22.2657C10.4288 23.0857 8.69744 24.076 9.36783 24.8568C10.1261 25.7401 11.3544 23.6837 11.9318 23.2812L16.0776 27.5587C15.7447 28.0668 14.3331 29.1269 14.3331 29.6875C14.3331 30.0869 14.5714 30.3907 15.0084 30.3907C15.426 30.3907 15.8277 29.8111 16.0777 29.5508C16.3805 29.2356 16.8138 28.8588 17.0346 28.5157C17.8737 28.9779 18.3864 29.375 19.661 29.375C20.9029 29.375 21.9672 28.804 22.7954 27.9508L36.415 13.7706C36.5312 13.6497 36.5557 13.6199 36.6642 13.4832L37.502 12.5586C38.0323 12.0059 38.4213 11.9055 38.4213 10.9375C38.4213 10.1857 37.7475 9.72818 37.3519 9.31641C36.8959 8.8416 36.4948 8.42403 36.0387 7.94922L29.4726 1.11324C28.748 0.358956 28.668 0 27.6153 0C26.9828 0 25.449 1.82567 24.9702 2.32421C24.1264 3.2027 23.3376 4.02388 22.4938 4.90237C22.0952 5.31732 17.8809 9.77621 17.5598 10Z" fill="white"/>
<path fill-rule="evenodd" clip-rule="evenodd" d="M0 33.9844C0 34.4757 0.403864 34.6875 0.600315 34.6875C1.09032 34.6875 2.32627 33.4074 2.32627 32.9688C2.32627 32.363 1.8841 32.1875 1.80101 32.1875C1.24124 32.1875 0 33.5949 0 33.9844Z" fill="white"/>
<path fill-rule="evenodd" clip-rule="evenodd" d="M6.15332 27.5781C6.15332 28.0468 6.47752 28.2812 6.75364 28.2812C7.21331 28.2812 8.47959 27.091 8.47959 26.4062C8.47959 25.9395 8.00005 25.8594 7.65411 25.8594C7.42471 25.8594 6.97687 26.4474 6.80988 26.6211C6.57799 26.8625 6.15332 27.1583 6.15332 27.5781Z" fill="white"/>
<path fill-rule="evenodd" clip-rule="evenodd" d="M5.10303 39.375C5.10303 39.7258 5.33679 40 5.7784 40C6.14713 40 7.4293 38.7895 7.4293 38.2032C7.4293 37.8252 7.19192 37.5781 6.82898 37.5781C6.32608 37.5781 5.10303 38.8514 5.10303 39.375Z" fill="white"/>
<path fill-rule="evenodd" clip-rule="evenodd" d="M3.07666 30.7812C3.07666 31.2725 3.48052 31.4844 3.67698 31.4844C4.22142 31.4844 5.40293 30.1228 5.40293 29.7656C5.40293 29.1164 4.98094 29.0625 4.57751 29.0625C4.42715 29.0625 3.07666 30.3065 3.07666 30.7812Z" fill="white"/>
<path fill-rule="evenodd" clip-rule="evenodd" d="M8.17969 36.0938C8.17969 36.4134 8.39975 36.7969 8.85506 36.7969C9.26478 36.7969 10.506 35.5047 10.506 35.0781C10.506 34.5869 10.1021 34.375 9.90564 34.375C9.46827 34.375 9.1554 34.8041 8.9113 35.0586C8.69841 35.2805 8.17969 35.7318 8.17969 36.0938Z" fill="white"/>
<path fill-rule="evenodd" clip-rule="evenodd" d="M11.2563 32.8906C11.2563 33.2102 11.4764 33.5937 11.9317 33.5937C12.3415 33.5937 13.5826 32.3016 13.5826 31.875C13.5826 31.3837 13.1788 31.1719 12.9823 31.1719C12.4379 31.1719 11.2563 32.5334 11.2563 32.8906Z" fill="white"/>
</svg>
