<svg width="33" height="40" viewBox="0 0 33 40" fill="none" xmlns="http://www.w3.org/2000/svg">
<path fill-rule="evenodd" clip-rule="evenodd" d="M31.9866 0.255842C32.2101 0.466593 32.297 0.771408 32.3331 1.04112C32.3718 1.33008 32.3643 1.67525 32.3228 2.05836C32.2393 2.82728 32.0092 3.82686 31.6422 4.9955C30.9072 7.33617 29.6037 10.4173 27.7354 13.8061C27.6769 13.9172 27.5905 14.001 27.534 14.0515C27.4656 14.1128 27.3849 14.1738 27.3005 14.2327C27.131 14.351 26.9128 14.4839 26.6701 14.6235C26.2036 14.8918 25.6098 15.2058 25.0198 15.5176L24.9444 15.5575C24.4403 15.824 23.9428 16.0877 23.5193 16.3254C23.5833 16.3179 23.6484 16.3101 23.7141 16.3022L23.7447 16.2986C24.1857 16.2458 24.6592 16.1891 25.0015 16.1828C25.1576 16.1799 25.3703 16.1836 25.5416 16.2485C25.6254 16.2802 25.8149 16.3698 25.8965 16.5943C25.9799 16.8238 25.8889 17.0171 25.8287 17.1108C24.4958 19.2683 22.9117 21.4855 21.1408 23.6993C21.0058 23.8708 20.7983 23.9788 20.6395 24.0494C20.4594 24.1294 20.243 24.2023 20.0136 24.2698C19.5542 24.4048 18.9851 24.5342 18.4347 24.6591L18.4188 24.6628C17.865 24.7884 17.33 24.9099 16.9011 25.0337C16.7715 25.0712 16.6562 25.1075 16.5565 25.1427C16.7033 25.2218 16.8835 25.3073 17.0858 25.402C17.0998 25.4086 17.114 25.4153 17.1284 25.422C17.4135 25.5554 17.7462 25.711 17.9765 25.871C18.0886 25.9489 18.2526 26.0774 18.3424 26.265C18.3937 26.372 18.4264 26.5104 18.3974 26.6644C18.3689 26.816 18.29 26.9324 18.2074 27.015L18.2034 27.019C15.4443 29.7139 12.5393 31.3516 10.1443 32.3161C7.76107 33.2757 5.85638 33.5789 5.08329 33.5789C4.91378 33.5789 4.7579 33.5618 4.61477 33.5324C3.99065 34.54 3.44157 35.4564 2.96989 36.2579C2.48951 37.0742 2.08994 37.7705 1.77199 38.3246C1.69255 38.463 1.61821 38.5925 1.54898 38.7128C1.37659 39.0124 1.23405 39.258 1.12416 39.4393C1.06933 39.5297 1.01999 39.6085 0.977424 39.672C0.941614 39.7255 0.890011 39.7999 0.832735 39.8571C0.642235 40.0476 0.333374 40.0476 0.142875 39.8571C-0.0442096 39.67 -0.0475637 39.3688 0.132812 39.1776C0.133531 39.1764 0.144158 39.1629 0.166969 39.1289C0.197534 39.0833 0.238127 39.0189 0.289903 38.9335C0.39321 38.7631 0.53051 38.5267 0.703369 38.2263C0.771905 38.1072 0.845748 37.9785 0.924835 37.8407C1.24287 37.2865 1.6457 36.5845 2.12906 35.7631C2.5868 34.9852 3.11723 34.0995 3.7182 33.1273C3.71168 33.1225 3.70522 33.1178 3.69884 33.113C3.62175 33.0558 3.53155 32.9809 3.46724 32.9269L3.30718 32.9803L3.10134 32.6658C2.44587 31.6644 2.27979 30.2841 2.43191 28.7457C2.58522 27.1952 3.06853 25.4132 3.79441 23.5427C5.24612 19.8017 7.6958 15.6359 10.5571 12.1378C10.6246 12.0531 10.8161 11.8608 11.1142 11.9288C11.3579 11.9843 11.4684 12.1826 11.4956 12.2318C11.5759 12.3769 11.625 12.5762 11.6601 12.7428C11.7003 12.9341 11.7381 13.1687 11.7744 13.4195C11.7835 13.3435 11.7927 13.2672 11.8018 13.1907L11.8069 13.1482C11.8854 12.4928 11.9648 11.8321 12.0364 11.3234C12.0721 11.0699 12.107 10.8464 12.14 10.6772C12.1563 10.5937 12.174 10.5137 12.1935 10.4461C12.2031 10.4128 12.2159 10.3729 12.2328 10.333C12.2437 10.3071 12.2795 10.2225 12.3555 10.1465L12.363 10.139L12.3708 10.1318C14.6925 8.00361 18.083 6.15292 20.4865 5.01443L21.0277 5.8123C20.2186 6.56566 19.714 7.79229 19.4798 8.84997C19.4277 9.08527 19.3905 9.30536 19.3664 9.5026C19.4203 9.4241 19.4767 9.34039 19.5354 9.25189C19.9322 8.65371 20.4113 7.8711 20.8916 7.0759C21.0211 6.86134 21.1509 6.64577 21.2789 6.433C21.6228 5.86163 21.9544 5.31049 22.2384 4.85353C22.4333 4.53993 22.6097 4.26418 22.7552 4.05273C22.8278 3.9473 22.8963 3.85261 22.958 3.77507C23.0091 3.71082 23.0804 3.62613 23.1615 3.56263C24.4425 2.5133 26.3782 1.50154 28.0613 0.831511C28.9063 0.495095 29.7081 0.23659 30.3505 0.102878C30.6697 0.036446 30.9693 -0.00344569 31.2243 0.000234418C31.4445 0.00341228 31.7632 0.0386665 31.9866 0.255842ZM5.19729 32.6007C6.02948 31.282 6.97668 29.8334 8.03434 28.3005C12.3638 22.026 18.5313 14.3596 26.2185 8.42236C26.4317 8.25768 26.4711 7.95134 26.3064 7.73812C26.1417 7.52491 25.8354 7.48556 25.6222 7.65024C17.8232 13.6738 11.5892 21.4306 7.23133 27.7465C6.10712 29.3758 5.10691 30.9104 4.23615 32.2962C4.1892 32.2598 4.15504 32.2306 4.11806 32.199C4.08423 32.1701 4.04805 32.1392 3.99757 32.0989C3.95887 32.068 3.89922 32.0221 3.82826 31.9843C3.41792 31.2555 3.26912 30.1935 3.40279 28.8417C3.54457 27.4078 3.99767 25.7156 4.70394 23.8956C6.02643 20.4877 8.2123 16.6934 10.787 13.4114C10.8218 13.6404 10.8564 13.8997 10.8927 14.1706C10.896 14.1959 10.8994 14.2212 10.9028 14.2467C10.9688 14.7391 11.0405 15.2654 11.1262 15.641C11.166 15.8157 11.2215 16.0189 11.3097 16.1693C11.3472 16.2333 11.4485 16.3917 11.6487 16.4585C11.9135 16.5467 12.1247 16.4154 12.227 16.3132L12.2515 16.2886L12.2723 16.2609C12.3206 16.1966 12.3461 16.1317 12.357 16.103C12.371 16.0657 12.3823 16.0279 12.3914 15.9939C12.4097 15.9257 12.4269 15.8447 12.4431 15.7585C12.4758 15.5846 12.5105 15.3572 12.5462 15.0998C12.6161 14.5966 12.6932 13.9523 12.7698 13.3129L12.7756 13.2642C12.8545 12.6056 12.9325 11.956 13.0025 11.4595C13.0376 11.2104 13.0696 11.0074 13.0976 10.8641C13.1048 10.8271 13.1113 10.7966 13.1169 10.772C14.8209 9.23382 17.1309 7.82999 19.1767 6.75759C18.8669 7.39238 18.6565 8.0551 18.5272 8.63905C18.3993 9.21676 18.3429 9.75182 18.3577 10.1477C18.3647 10.3355 18.3889 10.5412 18.4602 10.7096C18.4952 10.7923 18.5644 10.9214 18.7014 11.0137C18.867 11.1253 19.0623 11.1369 19.2299 11.0741L19.2397 11.0702C19.3759 11.0158 19.484 10.9166 19.5498 10.8514C19.6277 10.7741 19.7088 10.6795 19.7902 10.5769C19.9537 10.3707 20.1441 10.0992 20.3484 9.79124C20.7581 9.17367 21.2469 8.37462 21.7267 7.58028C21.8586 7.3619 21.9897 7.14395 22.1186 6.92986C22.461 6.36086 22.787 5.81906 23.0671 5.36849C23.2597 5.05847 23.4266 4.79815 23.5589 4.60582C23.6253 4.50936 23.6794 4.43524 23.7213 4.38264C23.7529 4.34288 23.7683 4.32741 23.7696 4.32569L23.7746 4.32154C24.9488 3.3581 26.787 2.38889 28.4221 1.73793C29.2374 1.41336 29.9819 1.17612 30.5493 1.05802C30.835 0.998548 31.0563 0.973521 31.2102 0.975743C31.2639 0.976517 31.2999 0.980446 31.3224 0.984066C31.3341 1.01251 31.3526 1.06935 31.3661 1.17053C31.3904 1.35199 31.3899 1.61125 31.3528 1.95308C31.2789 2.63401 31.0684 3.56627 30.7114 4.70323C30.0005 6.96745 28.7281 9.98219 26.8905 13.3181C26.8883 13.3201 26.8859 13.3223 26.8831 13.3248C26.8555 13.3496 26.8099 13.3854 26.7423 13.4326C26.6076 13.5266 26.4181 13.643 26.1837 13.7778C25.7327 14.0372 25.1527 14.3438 24.5552 14.6597L24.4884 14.695C23.873 15.0203 23.2439 15.3538 22.7486 15.6421C22.5015 15.7859 22.2782 15.924 22.1027 16.0484C22.0151 16.1106 21.932 16.1744 21.8612 16.2384C21.7972 16.2961 21.7129 16.3805 21.6538 16.4867C21.5907 16.6004 21.5219 16.8101 21.6351 17.033C21.7326 17.2252 21.906 17.3003 21.9874 17.3288C22.1577 17.3885 22.3673 17.3933 22.5307 17.3904C22.8853 17.384 23.3703 17.326 23.8172 17.2725L23.8301 17.2709C24.1213 17.2361 24.3966 17.2033 24.6326 17.1821C23.4033 19.1154 21.9717 21.0984 20.3835 23.0841C20.3835 23.0841 20.3835 23.0841 20.3835 23.0841C20.3826 23.0831 20.3486 23.111 20.2433 23.1578C20.1202 23.2125 19.9506 23.2714 19.7384 23.3338C19.3144 23.4584 18.7779 23.5808 18.2188 23.7077L18.1843 23.7155C17.6449 23.838 17.0868 23.9646 16.6304 24.0964C16.3974 24.1637 16.1777 24.2361 15.9937 24.3148C15.8268 24.3862 15.6228 24.4895 15.4835 24.6463L15.4728 24.6582L15.463 24.6708C15.3865 24.7692 15.328 24.8943 15.3171 25.0412C15.3064 25.1861 15.3449 25.3125 15.3962 25.4108C15.4894 25.5898 15.6465 25.718 15.7663 25.8026C16.0137 25.9773 16.3656 26.142 16.6602 26.28L16.672 26.2855C16.9054 26.3949 17.1059 26.4892 17.2589 26.574C14.6835 29.017 11.9991 30.5174 9.77984 31.4111C7.60267 32.2878 5.8965 32.5716 5.19729 32.6007Z" fill="white"/>
</svg>
