<svg width="124" height="48" viewBox="0 0 124 48" fill="none" xmlns="http://www.w3.org/2000/svg">
<g clip-path="url(#clip0_2000_799)">
<mask id="mask0_2000_799" style="mask-type:luminance" maskUnits="userSpaceOnUse" x="0" y="0" width="124" height="48">
<path d="M123.733 0H0V48H123.733V0Z" fill="white"/>
</mask>
<g mask="url(#mask0_2000_799)">
<path d="M117.563 0H6.17104C2.76287 0 0 2.77758 0 6.2039V41.7961C0 45.2224 2.76287 48 6.17104 48H117.563C120.971 48 123.733 45.2224 123.733 41.7961V6.2039C123.733 2.77758 120.971 0 117.563 0Z" fill="#EE3F25"/>
<path d="M57.1952 35.8398C58.4719 35.8064 59.7354 35.6459 60.9789 35.3584C62.2224 35.0709 63.4127 34.6498 64.5565 34.1017C65.6937 33.5534 66.6911 32.8448 67.5556 31.9757C68.4134 31.1133 69.0983 30.0704 69.6037 28.8538C70.1091 27.637 70.3684 26.2197 70.3684 24.6085C70.3684 22.222 69.9163 20.1829 69.0186 18.4982C68.1209 16.8135 66.9039 15.4631 65.3678 14.447C63.8383 13.4375 62.0562 12.7623 60.0279 12.4214C57.9998 12.0871 55.8586 12.0871 53.6175 12.4348L53.571 35.6726C54.7148 35.8197 55.9317 35.8799 57.2084 35.8465L57.1952 35.8398ZM58.6914 17.8832C60.0479 17.9167 61.2183 18.1373 62.1891 18.5383C63.16 18.9395 63.9514 19.501 64.5499 20.2164C65.1484 20.9317 65.5673 21.7807 65.8133 22.7634C66.0594 23.7462 66.1392 24.8225 66.0594 26.0125C66.0128 26.7879 65.7801 27.53 65.3612 28.2387C64.9422 28.9473 64.3969 29.5757 63.7253 30.1306C63.0536 30.6854 62.2822 31.12 61.4178 31.4543C60.5467 31.7819 59.6356 31.9423 58.6647 31.9222L58.6914 17.8966V17.8832Z" fill="white"/>
<path d="M77.0715 35.8398C78.3483 35.8064 79.6118 35.6459 80.8553 35.3584C82.0988 35.0709 83.2891 34.6498 84.4263 34.1017C85.5633 33.5534 86.5608 32.8448 87.4253 31.9757C88.2831 31.1133 88.968 30.0704 89.4734 28.8538C89.9788 27.637 90.2382 26.2197 90.2382 24.6085C90.2382 22.222 89.786 20.1829 88.8882 18.4982C87.9839 16.8135 86.7736 15.4631 85.2375 14.447C83.7081 13.4375 81.9259 12.7623 79.8977 12.4214C77.8695 12.0871 75.7282 12.0871 73.4873 12.4348L73.4407 35.6726C74.5845 35.8197 75.8014 35.8799 77.0782 35.8465L77.0715 35.8398ZM78.5677 17.8832C79.9243 17.9167 81.0946 18.1373 82.0655 18.5383C83.0364 18.9395 83.8278 19.501 84.4263 20.2164C85.0247 20.9317 85.4437 21.7807 85.6897 22.7634C85.9357 23.7462 86.0155 24.8225 85.9357 26.0125C85.8892 26.7879 85.6565 27.53 85.2375 28.2387C84.8186 28.9473 84.2733 29.5757 83.6016 30.1306C82.9301 30.6854 82.1586 31.12 81.2942 31.4543C80.4231 31.7819 79.512 31.9423 78.5412 31.9222L78.5677 17.8966V17.8832Z" fill="white"/>
<path d="M49.9469 35.7191L50.2195 30.6049L39.899 30.431L39.9522 27.1954L44.2213 26.948V21.9608L39.8258 22.0879L40.0719 17.7157L47.9852 17.5152L47.7857 12.1803L34.0803 12.0801L34.4461 35.6455L49.9469 35.7191Z" fill="white"/>
<path d="M99.9136 27.7908L103.87 27.2961L106.158 35.4922L110.946 34.9707L104.509 11.9067L98.0717 12.6955L92.7917 35.5657C92.7917 35.5657 92.7851 35.5992 92.7651 35.6126L97.9254 35.539L99.9136 27.7842V27.7908ZM101.829 17.7897L103.132 23.6193L100.432 23.9669L101.829 17.7897Z" fill="white"/>
<path d="M17.4757 25.3436L25.5087 25.123L25.4556 35.6188L30.8619 35.6656L30.6158 11.5386L25.4556 11.7391L25.409 20.0355L17.5224 20.109L17.2031 11.7124L11.9231 11.9865L11.4777 36.0132L17.1566 35.6188L17.4757 25.3436Z" fill="white"/>
<path d="M83.6016 30.1238C84.2733 29.5757 84.8186 28.9406 85.2375 28.2319C85.6564 27.5233 85.8892 26.7812 85.9357 26.0057C86.0155 24.8225 85.9357 23.7395 85.6897 22.7567C85.4436 21.7807 85.0247 20.9316 84.4263 20.2097C83.8277 19.4943 83.0431 18.9328 82.0655 18.5316C81.088 18.1305 79.9243 17.91 78.5677 17.8765L78.5411 31.9022C79.5054 31.9155 80.4231 31.7617 81.2942 31.4341C82.1586 31.1065 82.93 30.6654 83.6016 30.1105V30.1238Z" fill="#EE3F25"/>
<path d="M63.7319 30.1238C64.4035 29.5757 64.9489 28.9406 65.3678 28.2319C65.7868 27.5233 66.0195 26.7812 66.066 26.0057C66.1458 24.8225 66.066 23.7395 65.8199 22.7567C65.574 21.7807 65.155 20.9316 64.5565 20.2097C63.9581 19.4943 63.1733 18.9328 62.1958 18.5316C61.2183 18.1305 60.0546 17.91 58.698 17.8765L58.6714 31.9022C59.6356 31.9155 60.5533 31.7617 61.4244 31.4341C62.2956 31.1065 63.0602 30.6654 63.7319 30.1105V30.1238Z" fill="#EE3F25"/>
<path d="M101.829 17.7896L100.432 23.96L103.132 23.6191L101.829 17.7896Z" fill="#EE3F25"/>
</g>
</g>
<defs>
<clipPath id="clip0_2000_799">
<rect width="123.733" height="48" fill="white"/>
</clipPath>
</defs>
</svg>
