<svg width="47" height="36" fill="none" xmlns="http://www.w3.org/2000/svg"><path fill-rule="evenodd" clip-rule="evenodd" d="M7.81371 15.7757L4.00149 13.5748L3.33584 11.0907C3.23992 10.7326 2.87122 10.5198 2.51317 10.6157C2.15511 10.7117 1.94215 11.0804 2.03823 11.4384L2.35598 12.6248L1.43368 12.0923C1.11254 11.9069 0.701446 12.017 0.516051 12.3381C0.330655 12.6593 0.440924 13.0704 0.761901 13.2558L1.68437 13.7883L0.497995 14.1062C0.139939 14.2021 -0.0730213 14.5708 0.0230621 14.9289C0.118984 15.2869 0.487518 15.4997 0.845735 15.4038L3.32971 14.7383L7.14193 16.9392L3.32971 19.1402L0.845735 18.4746C0.487518 18.3787 0.118984 18.5915 0.0230621 18.9497C-0.0730213 19.3077 0.139939 19.6764 0.497995 19.7724L1.68437 20.0903L0.761901 20.6228C0.440924 20.8082 0.330655 21.2192 0.516051 21.5404C0.701446 21.8614 1.11254 21.9716 1.43368 21.7862L2.35598 21.2536L2.03823 22.44C1.94215 22.7982 2.15511 23.1667 2.51317 23.2626C2.87122 23.3587 3.23992 23.1457 3.33584 22.7877L4.00149 20.3037L7.81371 18.1027V22.5048L5.99522 24.3231C5.73309 24.5852 5.73309 25.011 5.99522 25.2731C6.25735 25.5353 6.68312 25.5353 6.94525 25.2731L7.81371 24.4047V25.4697C7.81371 25.8404 8.1147 26.1414 8.48533 26.1414C8.85612 26.1414 9.1571 25.8404 9.1571 25.4697V24.4047L10.0256 25.2731C10.2877 25.5353 10.7135 25.5353 10.9756 25.2731C11.2377 25.011 11.2377 24.5852 10.9756 24.3231L9.1571 22.5048V18.1027L12.9693 20.3037L13.635 22.7877C13.7309 23.1457 14.0996 23.3587 14.4576 23.2626C14.8157 23.1667 15.0287 22.7982 14.9326 22.44L14.6148 21.2536L15.5371 21.7862C15.8583 21.9716 16.2694 21.8614 16.4548 21.5404C16.6402 21.2192 16.5299 20.8082 16.2089 20.6228L15.2864 20.0903L16.4728 19.7724C16.8309 19.6764 17.0438 19.3077 16.9478 18.9497C16.8518 18.5915 16.4833 18.3787 16.1251 18.4746L13.6411 19.1402L9.82888 16.9392L13.6411 14.7383L16.1251 15.4038C16.4833 15.4997 16.8518 15.2869 16.9478 14.9289C17.0438 14.5708 16.8309 14.2021 16.4728 14.1062L15.2864 13.7883L16.2089 13.2558C16.5299 13.0704 16.6402 12.6593 16.4548 12.3381C16.2694 12.017 15.8583 11.9069 15.5371 12.0923L14.6148 12.6248L14.9326 11.4384C15.0287 11.0804 14.8157 10.7117 14.4576 10.6157C14.0996 10.5198 13.7309 10.7326 13.635 11.0907L12.9693 13.5748L9.1571 15.7757V11.3738L10.9756 9.55528C11.2377 9.29315 11.2377 8.86754 10.9756 8.60541C10.7135 8.34327 10.2877 8.34327 10.0256 8.60541L9.1571 9.47387V8.40873C9.1571 8.0381 8.85612 7.73711 8.48533 7.73711C8.1147 7.73711 7.81371 8.0381 7.81371 8.40873V9.47387L6.94525 8.60541C6.68312 8.34327 6.25735 8.34327 5.99522 8.60541C5.73309 8.86754 5.73309 9.29315 5.99522 9.55528L7.81371 11.3738V15.7757Z" fill="white"/><path fill-rule="evenodd" clip-rule="evenodd" d="M22.2596 0C22.5954 0 22.8676 0.272222 22.8676 0.608026V34.894C22.8676 35.2298 22.5954 35.502 22.2596 35.502C21.9238 35.502 21.6516 35.2298 21.6516 34.894V0.608026C21.6516 0.272222 21.9238 0 22.2596 0Z" fill="white"/><path fill-rule="evenodd" clip-rule="evenodd" d="M37.2372 25.6535V22.583C37.2372 22.3137 37.0187 22.0952 36.7494 22.0952C36.4803 22.0952 36.2617 22.3137 36.2617 22.583V25.6535C36.2617 25.9226 36.4803 26.1411 36.7494 26.1411C37.0187 26.1411 37.2372 25.9226 37.2372 25.6535ZM41.5291 24.2421L39.9939 21.5829C39.8592 21.3498 39.5606 21.2698 39.3276 21.4044C39.0944 21.539 39.0144 21.8375 39.149 22.0707L40.6843 24.7297C40.8188 24.9629 41.1174 25.0429 41.3505 24.9084C41.5837 24.7738 41.6636 24.4751 41.5291 24.2421ZM32.8147 24.7297L34.3499 22.0707C34.4845 21.8375 34.4044 21.539 34.1714 21.4044C33.9382 21.2698 33.6397 21.3498 33.5051 21.5829L31.9698 24.2421C31.8352 24.4751 31.9153 24.7738 32.1483 24.9084C32.3815 25.0429 32.68 24.9629 32.8147 24.7297ZM29.4465 21.7186L32.1055 20.1833C32.3387 20.0488 32.4186 19.7502 32.284 19.5171C32.1495 19.284 31.8509 19.204 31.6178 19.3386L28.9587 20.8738C28.7255 21.0084 28.6455 21.307 28.7802 21.5401C28.9148 21.7732 29.2133 21.8532 29.4465 21.7186ZM44.5403 20.8738L41.8811 19.3386C41.648 19.204 41.3494 19.284 41.2148 19.5171C41.0802 19.7502 41.1603 20.0488 41.3933 20.1833L44.0525 21.7186C44.2857 21.8532 44.5842 21.7732 44.7188 21.5401C44.8534 21.307 44.7733 21.0084 44.5403 20.8738ZM36.7494 12.8617C34.4992 12.8617 32.6721 14.6886 32.6721 16.939C32.6721 19.1894 34.4992 21.0163 36.7494 21.0163C38.9998 21.0163 40.8267 19.1894 40.8267 16.939C40.8267 14.6886 38.9998 12.8617 36.7494 12.8617ZM36.7494 13.8371C38.4614 13.8371 39.8513 15.2271 39.8513 16.939C39.8513 18.651 38.4614 20.0409 36.7494 20.0409C35.0375 20.0409 33.6477 18.651 33.6477 16.939C33.6477 15.2271 35.0375 13.8371 36.7494 13.8371ZM28.0351 17.4268H31.1056C31.3747 17.4268 31.5932 17.2082 31.5932 16.939C31.5932 16.6698 31.3747 16.4512 31.1056 16.4512H28.0351C27.7658 16.4512 27.5473 16.6698 27.5473 16.939C27.5473 17.2082 27.7658 17.4268 28.0351 17.4268ZM42.3934 17.4268H45.4639C45.7331 17.4268 45.9517 17.2082 45.9517 16.939C45.9517 16.6698 45.7331 16.4512 45.4639 16.4512H42.3934C42.1242 16.4512 41.9056 16.6698 41.9056 16.939C41.9056 17.2082 42.1242 17.4268 42.3934 17.4268ZM32.1055 13.6947L29.4465 12.1594C29.2133 12.0248 28.9148 12.1047 28.7802 12.3379C28.6455 12.5711 28.7255 12.8696 28.9587 13.0042L31.6178 14.5395C31.8509 14.674 32.1495 14.594 32.284 14.361C32.4186 14.1278 32.3387 13.8293 32.1055 13.6947ZM41.8811 14.5395L44.5403 13.0042C44.7733 12.8696 44.8534 12.5711 44.7188 12.3379C44.5842 12.1047 44.2857 12.0248 44.0525 12.1594L41.3933 13.6947C41.1603 13.8293 41.0802 14.1278 41.2148 14.361C41.3494 14.594 41.648 14.674 41.8811 14.5395ZM34.3499 11.8073L32.8147 9.14826C32.68 8.91508 32.3815 8.83512 32.1483 8.96974C31.9153 9.10436 31.8352 9.40287 31.9698 9.63594L33.5051 12.2951C33.6397 12.5283 33.9382 12.6082 34.1714 12.4736C34.4044 12.339 34.4845 12.0405 34.3499 11.8073ZM39.9939 12.2951L41.5291 9.63594C41.6636 9.40287 41.5837 9.10436 41.3505 8.96974C41.1174 8.83512 40.8188 8.91508 40.6843 9.14826L39.149 11.8073C39.0144 12.0405 39.0944 12.339 39.3276 12.4736C39.5606 12.6082 39.8592 12.5283 39.9939 12.2951ZM37.2372 11.295V8.22465C37.2372 7.95541 37.0187 7.73686 36.7494 7.73686C36.4803 7.73686 36.2617 7.95541 36.2617 8.22465V11.295C36.2617 11.5643 36.4803 11.7828 36.7494 11.7828C37.0187 11.7828 37.2372 11.5643 37.2372 11.295Z" fill="white"/><path fill-rule="evenodd" clip-rule="evenodd" d="M36.1552 8.22465C36.1552 7.8966 36.4214 7.63034 36.7494 7.63034C37.0775 7.63034 37.3437 7.89658 37.3437 8.22465V11.295C37.3437 11.6231 37.0775 11.8894 36.7494 11.8894C36.4214 11.8894 36.1552 11.6231 36.1552 11.295V8.22465ZM36.7494 7.84339C36.5391 7.84339 36.3683 8.01423 36.3683 8.22465V11.295C36.3683 11.5055 36.5391 11.6763 36.7494 11.6763C36.9598 11.6763 37.1307 11.5054 37.1307 11.295V8.22465C37.1307 8.01425 36.9598 7.84339 36.7494 7.84339ZM32.0951 8.87749C32.3792 8.71346 32.7429 8.81085 32.9069 9.095L34.4422 11.754C34.6062 12.0382 34.5086 12.4018 34.2247 12.5658C33.9405 12.7299 33.5769 12.6325 33.4128 12.3484L31.8776 9.68922C31.7135 9.40516 31.8111 9.0415 32.0951 8.87749ZM32.2016 9.062C32.0194 9.16722 31.9569 9.40059 32.0621 9.58266L33.5973 12.2418C33.7025 12.424 33.9359 12.4866 34.1181 12.3813C34.3003 12.2761 34.3628 12.0428 34.2576 11.8606L32.7224 9.20153C32.6172 9.01931 32.3838 8.9568 32.2016 9.062ZM41.4037 8.87749C41.1197 8.71347 40.756 8.81084 40.592 9.095L41.4037 8.87749ZM40.592 9.095C40.592 9.09501 40.592 9.09499 40.592 9.095V9.095ZM40.592 9.095L39.0568 11.754C38.8928 12.0382 38.9901 12.4018 39.2743 12.5659C39.5583 12.7299 39.9221 12.6325 40.0861 12.3484L41.6214 9.6892C41.7853 9.40519 41.6879 9.04153 41.4037 8.87749M41.2972 9.06199C41.1151 8.95679 40.8816 9.01931 40.7766 9.20149L39.2413 11.8606C39.1361 12.0428 39.1986 12.2761 39.3808 12.3813C39.5629 12.4865 39.7964 12.4241 39.9016 12.2418L41.4368 9.58269C41.5419 9.40057 41.4794 9.16719 41.2972 9.06199ZM28.6879 12.2847C28.8519 12.0005 29.2156 11.9031 29.4997 12.0672L32.1588 13.6024C32.1588 13.6024 32.1588 13.6024 32.1588 13.6024C32.4429 13.7664 32.5403 14.1301 32.3763 14.4142M29.3932 12.2517C29.211 12.1465 28.9776 12.209 28.8724 12.3912C28.7672 12.5734 28.8297 12.8068 29.0119 12.912L31.6711 14.4472C31.8532 14.5523 32.0867 14.4898 32.1918 14.3077C32.297 14.1255 32.2345 13.8921 32.0522 13.7869L29.3932 12.2517C29.3932 12.2517 29.3932 12.2517 29.3932 12.2517ZM43.9992 12.0672C44.2833 11.9031 44.647 12.0005 44.811 12.2847C44.9751 12.5688 44.8775 12.9325 44.5935 13.0965L41.9344 14.6317C41.6504 14.7956 41.2866 14.6983 41.1226 14.4142C40.9585 14.1301 41.0561 13.7664 41.34 13.6024L43.9992 12.0672ZM44.6265 12.3912C44.5213 12.209 44.288 12.1465 44.1057 12.2517L41.4466 13.7869C41.2645 13.8921 41.2019 14.1255 41.307 14.3077C41.4122 14.4898 41.6457 14.5523 41.8279 14.4472M41.8279 14.4472L44.487 12.912C44.487 12.912 44.487 12.912 44.487 12.912C44.6691 12.8068 44.7317 12.5734 44.6265 12.3912M28.6879 12.2847C28.5239 12.5688 28.6213 12.9325 28.9054 13.0965L28.6879 12.2847ZM32.5655 16.939C32.5655 14.6298 34.4403 12.7551 36.7494 12.7551C39.0586 12.7551 40.9333 14.6298 40.9333 16.939C40.9333 19.2482 39.0586 21.1229 36.7494 21.1229C34.4403 21.1229 32.5655 19.2482 32.5655 16.939ZM36.7494 12.9682C34.558 12.9682 32.7786 14.7475 32.7786 16.939C32.7786 19.1305 34.558 20.9098 36.7494 20.9098C38.941 20.9098 40.7202 19.1305 40.7202 16.939C40.7202 14.7475 38.941 12.9682 36.7494 12.9682ZM28.9054 13.0965L31.5646 14.6317L28.9054 13.0965ZM36.7494 13.9437C35.0964 13.9437 33.7542 15.2859 33.7542 16.939C33.7542 18.5922 35.0964 19.9343 36.7494 19.9343C38.4026 19.9343 39.7448 18.5922 39.7448 16.939C39.7448 15.2859 38.4026 13.9437 36.7494 13.9437ZM33.5411 16.939C33.5411 15.1683 34.9787 13.7306 36.7494 13.7306C38.5203 13.7306 39.9578 15.1683 39.9578 16.939C39.9578 18.7098 38.5203 20.1474 36.7494 20.1474C34.9787 20.1474 33.5411 18.7098 33.5411 16.939ZM31.5646 14.6317C31.8485 14.7956 32.2123 14.6983 32.3763 14.4142L31.5646 14.6317ZM27.4408 16.939C27.4408 16.6109 27.707 16.3447 28.0351 16.3447H31.1056C31.4335 16.3447 31.6998 16.6109 31.6998 16.939C31.6998 17.2671 31.4335 17.5333 31.1056 17.5333H28.0351C27.707 17.5333 27.4408 17.2671 27.4408 16.939ZM28.0351 16.5577C27.8247 16.5577 27.6538 16.7286 27.6538 16.939C27.6538 17.1494 27.8247 17.3203 28.0351 17.3203H31.1056C31.3158 17.3203 31.4867 17.1494 31.4867 16.939C31.4867 16.7286 31.3158 16.5577 31.1056 16.5577H28.0351ZM41.7991 16.939C41.7991 16.6109 42.0654 16.3447 42.3934 16.3447H45.4639C45.7919 16.3447 46.0582 16.6109 46.0582 16.939C46.0582 17.2671 45.7919 17.5333 45.4639 17.5333H42.3934C42.0654 17.5333 41.7991 17.2671 41.7991 16.939ZM42.3934 16.5577C42.1831 16.5577 42.0121 16.7286 42.0121 16.939C42.0121 17.1494 42.1831 17.3203 42.3934 17.3203H45.4639C45.6743 17.3203 45.8451 17.1494 45.8451 16.939C45.8451 16.7286 45.6743 16.5577 45.4639 16.5577H42.3934ZM41.9344 19.2464C41.9344 19.2464 41.9344 19.2464 41.9344 19.2464L44.5935 20.7815C44.8775 20.9455 44.9751 21.3093 44.811 21.5933C44.647 21.8775 44.2833 21.9749 43.9992 21.8108L41.3401 20.2756C41.0561 20.1117 40.9585 19.7479 41.1225 19.4639C41.2866 19.1797 41.6504 19.0823 41.9344 19.2464ZM41.8278 19.4309C41.6457 19.3257 41.4123 19.3882 41.3071 19.5704C41.2019 19.7525 41.2645 19.986 41.4466 20.0911L44.1057 21.6263C44.288 21.7315 44.5213 21.669 44.6265 21.4868C44.7317 21.3047 44.6691 21.0712 44.487 20.966L41.8278 19.4309ZM31.5646 19.2464C31.8486 19.0823 32.2124 19.1797 32.3763 19.4639C32.5403 19.7479 32.4429 20.1117 32.1588 20.2756C32.1588 20.2756 32.1588 20.2756 32.1588 20.2756L29.4997 21.8108C29.2156 21.9749 28.852 21.8775 28.6879 21.5933M31.5646 19.2464C31.5646 19.2464 31.5646 19.2464 31.5646 19.2464V19.2464ZM31.5646 19.2464L28.9054 20.7815C28.6213 20.9455 28.5239 21.3093 28.6879 21.5933M32.1917 19.5704C32.0867 19.3882 31.8532 19.3257 31.6711 19.4309L29.0119 20.966C28.8297 21.0712 28.7672 21.3047 28.8724 21.4868C28.9776 21.669 29.211 21.7315 29.3932 21.6263L32.0522 20.0911C32.2344 19.986 32.2969 19.7525 32.1917 19.5704ZM33.4128 21.5296C33.5769 21.2457 33.9405 21.1481 34.2246 21.3121C34.5086 21.4762 34.6062 21.8398 34.4422 22.124L32.9069 24.783C32.7429 25.0671 32.3792 25.1645 32.0951 25.0006C31.8111 24.8366 31.7135 24.4728 31.8776 24.1888C31.8776 24.1888 31.8776 24.1888 31.8776 24.1888L33.4128 21.5296ZM34.1181 21.4966C33.9359 21.3915 33.7025 21.454 33.5973 21.6362L32.0621 24.2953C31.9569 24.4774 32.0195 24.7109 32.2016 24.8161C32.3838 24.9212 32.6172 24.8587 32.7224 24.6765L34.2576 22.0174C34.3628 21.8352 34.3003 21.6018 34.1181 21.4966ZM39.2743 21.3121C39.5583 21.1481 39.9221 21.2457 40.0861 21.5296L41.6214 24.1888C41.7853 24.4728 41.6879 24.8366 41.4037 25.0006C41.1198 25.1645 40.756 25.0672 40.592 24.783C40.592 24.783 40.592 24.783 40.592 24.783L39.0568 22.124C38.8928 21.8399 38.9901 21.4762 39.2743 21.3121ZM39.9016 21.6362C39.7964 21.454 39.5629 21.3915 39.3808 21.4966C39.1986 21.6018 39.1361 21.8352 39.2413 22.0174L40.7765 24.6765C40.8816 24.8586 41.1151 24.9212 41.2972 24.8161C41.4794 24.7109 41.542 24.4774 41.4368 24.2953L39.9016 21.6362ZM36.1552 22.583C36.1552 22.2549 36.4214 21.9886 36.7494 21.9886C37.0775 21.9886 37.3437 22.2549 37.3437 22.583V25.6535C37.3437 25.9814 37.0775 26.2477 36.7494 26.2477C36.4215 26.2477 36.1552 25.9814 36.1552 25.6535V22.583ZM36.7494 22.2017C36.5391 22.2017 36.3683 22.3725 36.3683 22.583V25.6535C36.3683 25.8638 36.5391 26.0346 36.7494 26.0346C36.9598 26.0346 37.1307 25.8637 37.1307 25.6535V22.583C37.1307 22.3725 36.9598 22.2017 36.7494 22.2017Z" fill="white"/></svg>