<svg width="32" height="40" fill="none" xmlns="http://www.w3.org/2000/svg"><path fill-rule="evenodd" clip-rule="evenodd" d="M0.202413 5.65895C0.141252 7.69336 0.269157 9.64445 1.1137 11.5306C1.20805 11.742 1.45634 11.8365 1.66775 11.7422C1.87895 11.6468 1.97346 11.3985 1.87911 11.1871C1.08828 9.42018 0.984482 7.5896 1.04065 5.68408C1.04789 5.45164 0.865724 5.25826 0.634482 5.25179C0.402042 5.24456 0.208881 5.42771 0.202413 5.65895Z" fill="white"/><path fill-rule="evenodd" clip-rule="evenodd" d="M30.8402 18.7915C30.9014 16.7571 30.7735 14.806 29.9289 12.9199C29.8346 12.7085 29.5863 12.614 29.3749 12.7083C29.1637 12.8037 29.0692 13.052 29.1635 13.2634C29.9543 15.0303 30.0581 16.8609 30.002 18.7664C29.9947 18.9988 30.1769 19.1922 30.4081 19.1987C30.6406 19.2059 30.8337 19.0228 30.8402 18.7915Z" fill="white"/><path fill-rule="evenodd" clip-rule="evenodd" d="M1.75655 4.43827C1.69538 6.47268 1.82329 8.42377 2.66784 10.3099C2.76219 10.5213 3.01048 10.6158 3.22189 10.5215C3.43308 10.4261 3.52759 10.1778 3.43324 9.96643C2.64242 8.1995 2.53861 6.36892 2.59478 4.4634C2.60202 4.23096 2.41986 4.03759 2.18861 4.03112C1.95617 4.02388 1.76301 4.20703 1.75655 4.43827Z" fill="white"/><path fill-rule="evenodd" clip-rule="evenodd" d="M29.2861 20.0122C29.3473 17.9778 29.2194 16.0267 28.3748 14.1405C28.2805 13.9291 28.0322 13.8346 27.8208 13.929C27.6096 14.0243 27.515 14.2726 27.6094 14.484C28.4002 16.251 28.504 18.0816 28.4479 19.9871C28.4406 20.2195 28.6228 20.4129 28.854 20.4194C29.0865 20.4266 29.2796 20.2435 29.2861 20.0122Z" fill="white"/><path fill-rule="evenodd" clip-rule="evenodd" d="M3.67682 4.90436C3.61566 6.93877 3.74356 8.88986 4.58811 10.776C4.68246 10.9874 4.93075 11.0819 5.14216 10.9876C5.35335 10.8922 5.44787 10.6439 5.35351 10.4325C4.56269 8.66559 4.45889 6.83501 4.51506 4.92949C4.52229 4.69705 4.34013 4.50368 4.10889 4.49721C3.87645 4.48997 3.68328 4.67312 3.67682 4.90436Z" fill="white"/><path fill-rule="evenodd" clip-rule="evenodd" d="M27.3665 19.5458C27.4276 17.5114 27.2997 15.5603 26.4552 13.6742C26.3608 13.4628 26.1125 13.3683 25.9011 13.4626C25.6899 13.558 25.5954 13.8063 25.6898 14.0177C26.4806 15.7846 26.5844 17.6152 26.5282 19.5207C26.521 19.7532 26.7031 19.9465 26.9344 19.953C27.1668 19.9602 27.36 19.7771 27.3665 19.5458Z" fill="white"/><path fill-rule="evenodd" clip-rule="evenodd" d="M13.1992 1.21668C11.1623 1.21668 9.5089 2.87005 9.5089 4.907C9.5089 6.94303 11.1624 8.59733 13.1992 8.59733C15.2352 8.59733 16.8896 6.94294 16.8896 4.907C16.8896 2.87014 15.2353 1.21668 13.1992 1.21668ZM8.29222 4.907C8.29222 2.19809 10.4903 0 13.1992 0C15.907 0 18.1062 2.198 18.1062 4.907C18.1062 7.61489 15.9071 9.81401 13.1992 9.81401C10.4902 9.81401 8.29222 7.6148 8.29222 4.907ZM28.1518 6.9654C29.4089 6.66336 30.6752 7.43845 30.9773 8.69593L30.9774 8.69607C31.2793 9.95423 30.5042 11.2194 29.2468 11.5215L20.2262 13.6885L21.5954 19.4979C21.6348 19.591 21.6686 19.6882 21.6959 19.7893L21.696 19.7899L26.3881 37.0405C26.7282 38.2895 25.9909 39.5775 24.7423 39.9175L24.7419 39.9176C23.4942 40.2564 22.2064 39.5193 21.8663 38.2719L21.8662 38.2715L18.1731 24.695L16.9364 24.9864L11.8425 38.4841C11.3855 39.6933 10.0337 40.3055 8.82268 39.8483L8.82247 39.8482C7.61328 39.3912 7.00101 38.0394 7.45821 36.8284L13.0218 22.0867L11.5346 15.7765L2.89081 17.8526C1.63366 18.1547 0.367378 17.3796 0.0652586 16.1221L0.0652237 16.122C-0.236699 14.864 0.538262 13.5976 1.79694 13.2955L28.1518 6.9654ZM29.7943 8.98001C29.6492 8.3763 29.0401 8.00328 28.436 8.14841L2.08098 14.4786C1.47642 14.6237 1.1031 15.2326 1.24827 15.8379M29.7943 8.98001C29.9395 9.58514 29.5665 10.1934 28.9626 10.3385L18.7641 12.7884L20.4377 19.8895L20.4626 19.9442C20.4864 19.9963 20.5061 20.0504 20.5213 20.1067L20.5217 20.108L25.2141 37.36L25.2142 37.3602C25.3776 37.9603 25.0234 38.5797 24.423 38.7435C23.8235 38.9063 23.2037 38.5516 23.0402 37.9519L19.0385 23.241L16.0268 23.9507L10.7044 38.0539C10.4846 38.6355 9.83419 38.9297 9.25241 38.7101C8.67097 38.4902 8.37686 37.8398 8.59647 37.2581L14.2912 22.169L12.4386 14.3081L2.60662 16.6696C2.00254 16.8147 1.39344 16.4417 1.24831 15.838" fill="white"/><path fill-rule="evenodd" clip-rule="evenodd" d="M10.863 7.11346C12.7072 8.38005 15.627 8.00704 16.3552 5.30388C16.3985 5.14216 16.3028 4.97454 16.1407 4.93086C15.9785 4.88719 15.8113 4.98397 15.768 5.14569C15.1647 7.38495 12.7344 7.66117 11.2065 6.61178C11.0685 6.51735 10.8792 6.55276 10.7835 6.69087C10.6888 6.82898 10.7241 7.01902 10.863 7.11346Z" fill="white"/><path d="M11.5389 4.74278C11.8171 4.74278 12.0427 4.51722 12.0427 4.23898C12.0427 3.96074 11.8171 3.73519 11.5389 3.73519C11.2606 3.73519 11.0351 3.96074 11.0351 4.23898C11.0351 4.51722 11.2606 4.74278 11.5389 4.74278Z" fill="white"/><path d="M13.983 3.90321C14.2612 3.90321 14.4868 3.67765 14.4868 3.39941C14.4868 3.12117 14.2612 2.89562 13.983 2.89562C13.7047 2.89562 13.4792 3.12117 13.4792 3.39941C13.4792 3.67765 13.7047 3.90321 13.983 3.90321Z" fill="white"/></svg>