<svg width="27" height="40" fill="none" xmlns="http://www.w3.org/2000/svg"><path fill-rule="evenodd" clip-rule="evenodd" d="M13.3944 27.6404C11.66 28.8556 10.5066 30.8961 10.5066 33.2271C10.5066 36.9982 13.5132 40 17.1406 40C20.768 40 23.7746 36.9982 23.7746 33.2271C23.7746 30.8961 22.6212 28.8557 20.8867 27.6403V3.77075C20.8867 1.65649 19.1743 0 17.1406 0C15.1069 0 13.3944 1.65649 13.3944 3.77075V27.6404ZM14.173 28.3367L14.4063 28.1874V3.77075C14.4063 2.2258 15.6545 1.01195 17.1406 1.01195C18.6267 1.01195 19.8748 2.2258 19.8748 3.77075V28.1874L20.1082 28.3367C21.6947 29.3512 22.7626 31.1549 22.7626 33.2271C22.7626 36.429 20.2205 38.9881 17.1406 38.9881C14.0607 38.9881 11.5186 36.429 11.5186 33.2271C11.5186 31.1549 12.5865 29.3512 14.173 28.3367ZM16.5228 29.9126C16.5213 29.8946 16.5205 29.8765 16.5205 29.8582V5.03223C16.5205 4.68996 16.7983 4.41221 17.1406 4.41221C17.4828 4.41221 17.7606 4.68996 17.7606 5.03223V29.8582C17.7606 29.8765 17.7598 29.8946 17.7582 29.9126C19.4003 30.2048 20.6485 31.6408 20.6485 33.366C20.6485 35.3021 19.0766 36.8739 17.1406 36.8739C15.2046 36.8739 13.6327 35.3021 13.6327 33.366C13.6327 31.6408 14.8809 30.2048 16.5228 29.9126ZM22.3609 20.9721H25.6451C25.9873 20.9721 26.2652 20.6943 26.2652 20.352C26.2652 20.0098 25.9873 19.732 25.6451 19.732H22.3609C22.0187 19.732 21.7408 20.0098 21.7408 20.352C21.7408 20.6943 22.0187 20.9721 22.3609 20.9721ZM22.3609 15.6934H25.6451C25.9873 15.6934 26.2652 15.4155 26.2652 15.0732C26.2652 14.7311 25.9873 14.4532 25.6451 14.4532H22.3609C22.0187 14.4532 21.7408 14.7311 21.7408 15.0732C21.7408 15.4155 22.0187 15.6934 22.3609 15.6934ZM5.77025 6.65289L2.95501 5.02759L2.46344 3.19311C2.3926 2.92869 2.12033 2.77154 1.85592 2.84238C1.5915 2.91322 1.43423 3.18549 1.50519 3.4499L1.73984 4.32601L1.05874 3.93278C0.821588 3.79587 0.518002 3.87718 0.381092 4.11433C0.244181 4.35149 0.325612 4.65507 0.562646 4.79198L1.24387 5.18521L0.367758 5.41999C0.103342 5.49082 -0.0539245 5.76309 0.0170308 6.02751C0.0878671 6.29193 0.360021 6.44907 0.624556 6.37824L2.45892 5.88679L5.27415 7.5121L2.45892 9.13752L0.624556 8.64596C0.360021 8.57512 0.0878671 8.73227 0.0170308 8.99681C-0.0539245 9.26122 0.103342 9.53349 0.367758 9.60433L1.24387 9.8391L0.562646 10.2323C0.325612 10.3692 0.244181 10.6728 0.381092 10.91C0.518002 11.147 0.821588 11.2284 1.05874 11.0915L1.73984 10.6982L1.50519 11.5743C1.43423 11.8388 1.5915 12.111 1.85592 12.1818C2.12033 12.2528 2.3926 12.0955 2.46344 11.8311L2.95501 9.99673L5.77025 8.3713V11.6222L4.42733 12.9649C4.23375 13.1585 4.23375 13.4729 4.42733 13.6665C4.62091 13.8601 4.93533 13.8601 5.12891 13.6665L5.77025 13.0252V13.8116C5.77025 14.0855 5.99252 14.3077 6.26622 14.3077C6.54004 14.3077 6.76231 14.0855 6.76231 13.8116V13.0252L7.40365 13.6665C7.59723 13.8601 7.91165 13.8601 8.10522 13.6665C8.2988 13.4729 8.2988 13.1585 8.10522 12.9649L6.76231 11.6222V8.3713L9.57755 9.99673L10.0691 11.8311C10.14 12.0955 10.4122 12.2528 10.6766 12.1818C10.9411 12.111 11.0983 11.8388 11.0274 11.5743L10.7927 10.6982L11.4738 11.0915C11.711 11.2284 12.0146 11.147 12.1515 10.91C12.2884 10.6728 12.2069 10.3692 11.9699 10.2323L11.2887 9.8391L12.1648 9.60433C12.4292 9.53349 12.5865 9.26122 12.5155 8.99681C12.4447 8.73227 12.1725 8.57512 11.908 8.64596L10.0736 9.13752L7.2584 7.5121L10.0736 5.88679L11.908 6.37824C12.1725 6.44907 12.4447 6.29193 12.5155 6.02751C12.5865 5.76309 12.4292 5.49082 12.1648 5.41999L11.2887 5.18521L11.9699 4.79198C12.2069 4.65507 12.2884 4.35149 12.1515 4.11433C12.0146 3.87718 11.711 3.79587 11.4738 3.93278L10.7927 4.32601L11.0274 3.4499C11.0983 3.18549 10.9411 2.91322 10.6766 2.84238C10.4122 2.77154 10.14 2.92869 10.0691 3.19311L9.57755 5.02759L6.76231 6.65289V3.40216L8.10522 2.05925C8.2988 1.86567 8.2988 1.55137 8.10522 1.35779C7.91165 1.16421 7.59723 1.16421 7.40365 1.35779L6.76231 1.99913V1.21255C6.76231 0.938848 6.54004 0.716575 6.26622 0.716575C5.99252 0.716575 5.77025 0.938848 5.77025 1.21255V1.99913L5.12891 1.35779C4.93533 1.16421 4.62091 1.16421 4.42733 1.35779C4.23375 1.55137 4.23375 1.86567 4.42733 2.05925L5.77025 3.40216V6.65289ZM22.3609 10.4146H25.6451C25.9873 10.4146 26.2652 10.1367 26.2652 9.79458C26.2652 9.4523 25.9873 9.17455 25.6451 9.17455H22.3609C22.0187 9.17455 21.7408 9.4523 21.7408 9.79458C21.7408 10.1367 22.0187 10.4146 22.3609 10.4146Z" fill="white"/></svg>