<svg width="40" height="40" fill="none" xmlns="http://www.w3.org/2000/svg"><path fill-rule="evenodd" clip-rule="evenodd" d="M21.7411 12.228L17.6119 15.4798L17.4874 10.2252L21.7411 12.228Z" fill="white"/><path fill-rule="evenodd" clip-rule="evenodd" d="M23.2441 9.19346C23.2404 9.19314 23.2366 9.19282 23.2325 9.19249C23.2046 9.19023 23.1664 9.18759 23.119 9.18541C23.0243 9.18104 22.8922 9.17842 22.7316 9.18427C22.412 9.19593 21.9713 9.24147 21.485 9.37858C20.5034 9.65537 19.3229 10.3131 18.6232 11.7996C18.4697 12.1257 18.6096 12.5146 18.9358 12.6681C19.2619 12.8216 19.6508 12.6817 19.8043 12.3555C20.3033 11.2954 21.1217 10.8373 21.8393 10.635C22.2026 10.5325 22.5365 10.4977 22.7792 10.4888C22.8998 10.4844 22.9957 10.4865 23.0588 10.4894C23.0903 10.4909 23.1134 10.4925 23.127 10.4936C23.1339 10.4942 23.1383 10.4946 23.1403 10.4948L23.1413 10.4949L23.1788 10.4991L23.2165 10.4987C23.2165 10.4987 23.2167 10.4987 23.2172 10.4987C23.2175 10.4987 23.2179 10.4987 23.2185 10.4987C23.2213 10.4987 23.2271 10.4987 23.2358 10.4989C23.2531 10.4993 23.2815 10.5002 23.3195 10.5025C23.3957 10.5071 23.5088 10.5171 23.6462 10.5387C23.9242 10.5822 24.2846 10.6704 24.6368 10.8445C24.9863 11.0171 25.3164 11.2682 25.5609 11.6364C25.803 12.001 25.9877 12.52 25.9877 13.2748C25.9877 14.0285 25.8017 14.5493 25.5567 14.9172C25.3091 15.2891 24.9744 15.5445 24.62 15.7211C24.263 15.8991 23.898 15.9907 23.6168 16.0369C23.4777 16.0597 23.3632 16.0707 23.2861 16.076C23.2476 16.0786 23.2188 16.0798 23.2011 16.0803C23.1924 16.0806 23.1864 16.0807 23.1835 16.0807L23.1821 16.0808L7.07479 16.0808C6.71431 16.0808 6.42209 16.373 6.42209 16.7335C6.42209 17.0939 6.71431 17.3862 7.07479 17.3862H23.1832L23.1877 17.3862C23.1911 17.3861 23.1954 17.3861 23.2005 17.386C23.2106 17.3859 23.2241 17.3857 23.2406 17.3852C23.2737 17.3842 23.3191 17.3822 23.3752 17.3783C23.4872 17.3707 23.6429 17.3554 23.8281 17.3251C24.1952 17.2648 24.6948 17.1424 25.2024 16.8894C25.7126 16.6351 26.2425 16.2427 26.6433 15.6408C27.0468 15.0349 27.2931 14.256 27.2931 13.2748C27.2931 12.2949 27.0492 11.5179 26.6484 10.9143C26.25 10.3143 25.7229 9.925 25.2151 9.67412C24.7101 9.42465 24.2133 9.30619 23.8484 9.24899C23.6643 9.22014 23.5095 9.20621 23.3982 9.19949C23.3424 9.19612 23.2972 9.19454 23.2643 9.19382C23.2569 9.19366 23.2502 9.19354 23.2441 9.19346Z" fill="white"/><path fill-rule="evenodd" clip-rule="evenodd" d="M18.2068 28.4807L18.2793 25.4154L20.688 27.3116L18.2068 28.4807Z" fill="white"/><path fill-rule="evenodd" clip-rule="evenodd" d="M23.1821 23.3977H3.99058C3.6301 23.3977 3.33787 23.1055 3.33787 22.745C3.33787 22.3845 3.6301 22.0923 3.99058 22.0923L23.1829 22.0923L23.1874 22.0923C23.1909 22.0923 23.1951 22.0923 23.2002 22.0924C23.2104 22.0925 23.2239 22.0928 23.2404 22.0933C23.2735 22.0942 23.3189 22.0962 23.375 22.1C23.487 22.1076 23.6427 22.1228 23.8278 22.1531C24.195 22.2132 24.6946 22.3354 25.2022 22.5882C25.7125 22.8423 26.2424 23.2345 26.6433 23.8363C27.0468 24.4421 27.2931 25.2209 27.2931 26.2021C27.2931 27.182 27.0493 27.959 26.6484 28.5627C26.25 29.1626 25.7229 29.5519 25.2151 29.8028C24.7102 30.0523 24.2133 30.1708 23.8484 30.228C23.6644 30.2568 23.5096 30.2708 23.3983 30.2775C23.3425 30.2809 23.2973 30.2824 23.2643 30.2832C23.257 30.2833 23.2502 30.2834 23.2441 30.2835C23.2405 30.2838 23.2366 30.2842 23.2326 30.2845C23.2046 30.2868 23.1664 30.2894 23.119 30.2916C23.0243 30.2959 22.8922 30.2986 22.7317 30.2927C22.4121 30.281 21.9713 30.2355 21.4851 30.0984C20.5034 29.8216 19.3229 29.1638 18.6233 27.6774C18.4697 27.3512 18.6097 26.9623 18.9358 26.8088C19.262 26.6553 19.6509 26.7952 19.8044 27.1214C20.3034 28.1816 21.1218 28.6396 21.8394 28.842C22.2027 28.9444 22.5366 28.9793 22.7793 28.9882C22.8999 28.9926 22.9958 28.9905 23.0589 28.9875C23.0903 28.9861 23.1134 28.9845 23.1271 28.9833C23.1339 28.9828 23.1384 28.9824 23.1404 28.9822L23.1414 28.9821L23.1788 28.9779L23.2166 28.9783H23.2172C23.2175 28.9783 23.218 28.9783 23.2185 28.9783C23.2213 28.9783 23.2272 28.9783 23.2358 28.9781C23.2531 28.9777 23.2816 28.9768 23.3195 28.9745C23.3957 28.9699 23.5088 28.9599 23.6462 28.9383C23.9242 28.8947 24.2846 28.8065 24.6369 28.6325C24.9863 28.4598 25.3164 28.2087 25.5609 27.8405C25.803 27.476 25.9877 26.9569 25.9877 26.2021C25.9877 25.4484 25.8018 24.9277 25.5568 24.56C25.3093 24.1883 24.9746 23.9331 24.6203 23.7567C24.2633 23.5789 23.8984 23.4874 23.6171 23.4414C23.478 23.4186 23.3635 23.4077 23.2864 23.4024C23.2479 23.3998 23.2191 23.3986 23.2015 23.3981C23.1927 23.3978 23.1867 23.3977 23.1838 23.3977C23.183 23.3977 23.1824 23.3977 23.1821 23.3977Z" fill="white"/><path fill-rule="evenodd" clip-rule="evenodd" d="M26.09 18.37L28.8324 19.7412L26.09 21.1124V18.37Z" fill="white"/><path fill-rule="evenodd" clip-rule="evenodd" d="M0 19.7413C0 19.3808 0.292227 19.0886 0.652707 19.0886H26.6384C26.9989 19.0886 27.2912 19.3808 27.2912 19.7413C27.2912 20.1018 26.9989 20.394 26.6384 20.394H0.652707C0.292227 20.394 0 20.1018 0 19.7413Z" fill="white"/><path fill-rule="evenodd" clip-rule="evenodd" d="M33.1901 34.7062L37.8633 39.3791V40H39.1327V0H37.8633V5.27605L33.1901 0.603187V0H31.9207V40H33.1901V34.7062ZM33.1901 34.1983L37.8633 38.8712V33.7799L33.1901 29.107V34.1983ZM33.1901 28.5991L37.8633 33.272V28.1807L33.1901 23.5079V28.5991ZM33.1901 23L37.8633 27.6728V22.5815L33.1901 17.9087V23ZM33.1901 17.4008L37.8633 22.0736V16.9823L33.1901 12.3095V17.4008ZM33.1901 11.8016L37.8633 16.4744V11.3831L33.1901 6.71029V11.8016ZM33.1901 6.20238L37.8633 10.8752V5.78396L33.1901 1.11109V6.20238Z" fill="white"/></svg>