<svg width="16" height="40" fill="none" xmlns="http://www.w3.org/2000/svg"><path fill-rule="evenodd" clip-rule="evenodd" d="M2.88774 27.6404C1.15338 28.8556 0 30.8961 0 33.2271C0 36.9982 3.00656 40 6.63397 40C10.2614 40 13.2679 36.9982 13.2679 33.2271C13.2679 30.8961 12.1146 28.8557 10.3801 27.6403V3.77075C10.3801 1.65649 8.66763 0 6.63397 0C4.60031 0 2.88774 1.65649 2.88774 3.77075V27.6404ZM3.66635 28.3367L3.89969 28.1874V3.77075C3.89969 2.2258 5.14784 1.01195 6.63397 1.01195C8.1201 1.01195 9.36813 2.2258 9.36813 3.77075V28.1874L9.60159 28.3367C11.1881 29.3512 12.256 31.1549 12.256 33.2271C12.256 36.429 9.71386 38.9881 6.63397 38.9881C3.55408 38.9881 1.01195 36.429 1.01195 33.2271C1.01195 31.1549 2.07985 29.3512 3.66635 28.3367ZM6.0162 29.9126C6.01466 29.8946 6.01382 29.8765 6.01382 29.8582V5.03223C6.01382 4.68996 6.29169 4.41221 6.63397 4.41221C6.97613 4.41221 7.25399 4.68996 7.25399 5.03223V29.8582C7.25399 29.8765 7.25316 29.8946 7.25161 29.9126C8.89371 30.2048 10.1419 31.6408 10.1419 33.366C10.1419 35.3021 8.57 36.8739 6.63397 36.8739C4.69794 36.8739 3.12608 35.3021 3.12608 33.366C3.12608 31.6408 4.37423 30.2048 6.0162 29.9126ZM11.8543 20.9721H15.1385C15.4807 20.9721 15.7585 20.6943 15.7585 20.352C15.7585 20.0098 15.4807 19.732 15.1385 19.732H11.8543C11.512 19.732 11.2342 20.0098 11.2342 20.352C11.2342 20.6943 11.512 20.9721 11.8543 20.9721ZM11.8543 15.6934H15.1385C15.4807 15.6934 15.7585 15.4155 15.7585 15.0732C15.7585 14.7311 15.4807 14.4532 15.1385 14.4532H11.8543C11.512 14.4532 11.2342 14.7311 11.2342 15.0732C11.2342 15.4155 11.512 15.6934 11.8543 15.6934ZM11.8543 10.4146H15.1385C15.4807 10.4146 15.7585 10.1367 15.7585 9.79458C15.7585 9.4523 15.4807 9.17455 15.1385 9.17455H11.8543C11.512 9.17455 11.2342 9.4523 11.2342 9.79458C11.2342 10.1367 11.512 10.4146 11.8543 10.4146Z" fill="white"/></svg>