<svg width="38" height="30" fill="none" xmlns="http://www.w3.org/2000/svg"><path fill-rule="evenodd" clip-rule="evenodd" d="M14.9211 29.1825C15.8684 27.6678 17.2259 25.9642 17.3185 24.0967C17.4123 22.2092 16.5013 20.5039 15.4999 18.7735C15.3317 18.4843 14.9594 18.384 14.6688 18.5528C14.3782 18.72 14.2788 19.0928 14.4469 19.3837C15.3263 20.9034 16.1858 22.3797 16.1036 24.0365C16.0208 25.7033 14.7348 27.1863 13.8897 28.5372C13.7117 28.823 13.7983 29.1975 14.0828 29.3764C14.3674 29.5536 14.743 29.4684 14.9211 29.1825Z" fill="white"/><path fill-rule="evenodd" clip-rule="evenodd" d="M7.74316 2.72994L10.7665 0L11.1446 4.05834L7.74316 2.72994Z" fill="white"/><path fill-rule="evenodd" clip-rule="evenodd" d="M11.4426 9.16793C10.8514 8.29202 10.2427 7.40157 9.97842 6.37968C9.63682 5.05122 9.88639 3.98551 10.2791 2.91982C10.3959 2.61325 10.2353 2.26292 9.91997 2.14613C9.6061 2.02934 9.2558 2.18984 9.13901 2.49641C8.6631 3.78107 8.38715 5.08042 8.80028 6.67165C9.09955 7.83953 9.76526 8.84685 10.4324 9.83954C10.6193 10.1169 10.9959 10.2044 11.2762 10.0146C11.555 9.82483 11.6295 9.4453 11.4426 9.16793Z" fill="white"/><path fill-rule="evenodd" clip-rule="evenodd" d="M20.7311 29.1825C21.6784 27.6678 23.036 25.9642 23.1286 24.0967C23.2224 22.2092 22.3114 20.5039 21.3099 18.7735C21.1418 18.4843 20.7694 18.384 20.4789 18.5528C20.1883 18.72 20.0888 19.0928 20.257 19.3837C21.1364 20.9034 21.9959 22.3797 21.9137 24.0365C21.8309 25.7033 20.5449 27.1863 19.6998 28.5372C19.5217 28.823 19.6083 29.1975 19.8929 29.3764C20.1774 29.5536 20.5531 29.4684 20.7311 29.1825Z" fill="white"/><path fill-rule="evenodd" clip-rule="evenodd" d="M13.5542 2.72994L16.5775 0L16.9556 4.05834L13.5542 2.72994Z" fill="white"/><path fill-rule="evenodd" clip-rule="evenodd" d="M17.2532 9.16793C16.6635 8.29202 16.0547 7.40157 15.7875 6.37968C15.4474 5.05122 15.6971 3.98551 16.0898 2.91982C16.2066 2.61325 16.046 2.26292 15.7307 2.14613C15.4168 2.02934 15.0664 2.18984 14.9496 2.49641C14.4737 3.78107 14.1963 5.08042 14.6095 6.67165C14.9102 7.83953 15.5759 8.84685 16.243 9.83954C16.4284 10.1169 16.8066 10.2044 17.0869 10.0146C17.3657 9.82483 17.4401 9.4453 17.2532 9.16793Z" fill="white"/><path fill-rule="evenodd" clip-rule="evenodd" d="M26.5412 29.1825C27.4885 27.6678 28.846 25.9642 28.9387 24.0967C29.0324 22.2092 28.1214 20.5039 27.12 18.7735C26.9518 18.4843 26.5795 18.384 26.2889 18.5528C25.9984 18.72 25.8989 19.0928 26.0671 19.3837C26.9465 20.9034 27.806 22.3797 27.7237 24.0365C27.641 25.7033 26.355 27.1863 25.5098 28.5372C25.3318 28.823 25.4184 29.1975 25.7029 29.3764C25.9875 29.5536 26.3632 29.4684 26.5412 29.1825Z" fill="white"/><path fill-rule="evenodd" clip-rule="evenodd" d="M19.3647 2.72994L22.3882 0L22.7662 4.05834L19.3647 2.72994Z" fill="white"/><path fill-rule="evenodd" clip-rule="evenodd" d="M23.0638 9.16793C22.4726 8.29202 21.8638 7.40157 21.5981 6.37968C21.258 5.05122 21.5076 3.98551 21.9003 2.91982C22.0171 2.61325 21.8565 2.26292 21.5411 2.14613C21.2258 2.02934 20.8754 2.18984 20.7601 2.49641C20.2842 3.78107 20.0069 5.08042 20.42 6.67165C20.7208 7.83953 21.3864 8.84685 22.0536 9.83954C22.239 10.1169 22.6171 10.2044 22.8959 10.0146C23.1762 9.82483 23.2507 9.4453 23.0638 9.16793Z" fill="white"/><path fill-rule="evenodd" clip-rule="evenodd" d="M4.93136 12.2498L0.578392 16.6031H0V17.7856H37.2617V16.6031H32.3468L36.6998 12.2498H37.2617V11.0674H0V12.2498H4.93136ZM5.40449 12.2498L1.05153 16.6031H5.79427L10.1472 12.2498H5.40449ZM10.6204 12.2498L6.26741 16.6031H11.0102L15.3631 12.2498H10.6204ZM15.8363 12.2498L11.4833 16.6031H16.226L20.579 12.2498H15.8363ZM21.0521 12.2498L16.6992 16.6031H21.4419L25.7949 12.2498H21.0521ZM26.268 12.2498L21.9151 16.6031H26.6578L31.0108 12.2498H26.268ZM31.4839 12.2498L27.1309 16.6031H31.8737L36.2267 12.2498H31.4839Z" fill="white"/></svg>