<svg width="30" height="30" fill="none" xmlns="http://www.w3.org/2000/svg"><path d="M16.3724 13.6278C15.6443 12.9 14.657 12.4912 13.6276 12.4912C12.5982 12.4912 11.6109 12.9 10.8828 13.6278L8.13712 16.3726C7.40903 17.1007 7 18.0882 7 19.1178C7 20.1475 7.40903 21.135 8.13712 21.8631C8.8652 22.5912 9.85269 23.0002 10.8824 23.0002C11.912 23.0002 12.8995 22.5912 13.6276 21.8631L15 20.4907" stroke="#212121" stroke-linecap="round" stroke-linejoin="round"/><path d="M13.6277 16.3724C14.3558 17.1002 15.343 17.509 16.3725 17.509C17.4019 17.509 18.3892 17.1002 19.1173 16.3724L21.863 13.6276C22.5911 12.8995 23.0001 11.912 23.0001 10.8824C23.0001 9.85269 22.5911 8.8652 21.863 8.13712C21.1349 7.40903 20.1474 7 19.1177 7C18.0881 7 17.1006 7.40903 16.3725 8.13712L15.0001 9.50952" stroke="#212121" stroke-linecap="round" stroke-linejoin="round"/></svg>