<svg width="24" height="24" fill="none" xmlns="http://www.w3.org/2000/svg"><path d="M17 8.66675C18.3807 8.66675 19.5 7.54746 19.5 6.16675C19.5 4.78604 18.3807 3.66675 17 3.66675C15.6193 3.66675 14.5 4.78604 14.5 6.16675C14.5 7.54746 15.6193 8.66675 17 8.66675Z" stroke="#212121" stroke-linecap="round" stroke-linejoin="round"/><path d="M7 14.5001C8.38071 14.5001 9.5 13.3808 9.5 12.0001C9.5 10.6194 8.38071 9.50012 7 9.50012C5.61929 9.50012 4.5 10.6194 4.5 12.0001C4.5 13.3808 5.61929 14.5001 7 14.5001Z" stroke="#212121" stroke-linecap="round" stroke-linejoin="round"/><path d="M17 20.3334C18.3807 20.3334 19.5 19.2141 19.5 17.8334C19.5 16.4527 18.3807 15.3334 17 15.3334C15.6193 15.3334 14.5 16.4527 14.5 17.8334C14.5 19.2141 15.6193 20.3334 17 20.3334Z" stroke="#212121" stroke-linecap="round" stroke-linejoin="round"/><path d="M9.1582 13.2584L14.8499 16.5751" stroke="#212121" stroke-linecap="round" stroke-linejoin="round"/><path d="M14.8415 7.42505L9.1582 10.7417" stroke="#212121" stroke-linecap="round" stroke-linejoin="round"/></svg>