<?xml version="1.0" encoding="utf-8"?><svg version="1.1" id="Layer_1" xmlns="http://www.w3.org/2000/svg" xmlns:xlink="http://www.w3.org/1999/xlink" x="0px" y="0px" viewBox="0 0 24 24" style="enable-background:new 0 0 24 24" xml:space="preserve"><style type="text/css">.st0{fill:#2787F5;}
	.st1{fill:#FFFFFF;}</style><g id="vk"><rect class="st0" width="24" height="24"/><path class="st1" d="M19.1,15.3c0-0.1-0.3-0.6-1.4-1.7c-1.2-1.1-1-0.9,0.4-2.9c0.9-1.2,1.2-1.9,1.1-2.2c-0.1-0.3-0.8-0.2-0.8-0.2
		l-2.2,0c0,0-0.2,0-0.3,0c-0.1,0.1-0.2,0.2-0.2,0.2s-0.3,0.9-0.8,1.7c-1,1.6-1.4,1.7-1.5,1.6c-0.4-0.2-0.3-1-0.3-1.5
		c0-1.6,0.2-2.2-0.5-2.4C12.5,8,12.3,8,11.7,8C11,8,10.3,8,9.9,8.2C9.7,8.3,9.5,8.6,9.6,8.6c0.1,0,0.5,0.1,0.6,0.3
		c0.2,0.3,0.2,1,0.2,1s0.1,1.9-0.3,2.1c-0.3,0.2-0.7-0.2-1.6-1.7C8.2,9.6,7.8,8.7,7.8,8.7S7.8,8.6,7.7,8.5C7.5,8.4,7.3,8.4,7.3,8.4
		l-2.1,0c0,0-0.3,0-0.4,0.1c-0.1,0.1,0,0.4,0,0.4s1.6,3.8,3.4,5.7c1.7,1.7,3.6,1.6,3.6,1.6h0.9c0,0,0.3,0,0.4-0.2
		c0.1-0.1,0.1-0.4,0.1-0.4s0-1.2,0.5-1.3c0.5-0.2,1.2,1.1,1.9,1.6c0.5,0.4,1,0.3,1,0.3h1.9C18.5,16.2,19.6,16.1,19.1,15.3z"/></g><g id="file"><path d="M19.7,8.2c0-0.1-0.1-0.1-0.1-0.2l-5.4-5.4c0,0-0.1-0.1-0.2-0.1c-0.1,0-0.1,0-0.2,0H6.6C6,2.5,5.4,2.7,5,3.2
		c-0.4,0.4-0.7,1-0.7,1.6v14.4c0,0.6,0.2,1.2,0.7,1.6c0.4,0.4,1,0.7,1.6,0.7h10.8c0.6,0,1.2-0.2,1.6-0.7s0.7-1,0.7-1.6V8.4
		C19.7,8.3,19.7,8.3,19.7,8.2z M14.3,4.2L18,7.9h-3.7V4.2z M18.3,20.1c-0.2,0.2-0.6,0.4-0.9,0.4H6.6c-0.3,0-0.7-0.1-0.9-0.4
		c-0.2-0.2-0.4-0.6-0.4-0.9V4.8c0-0.3,0.1-0.7,0.4-0.9c0.2-0.2,0.6-0.4,0.9-0.4h6.7v4.9c0,0.3,0.2,0.5,0.5,0.5h4.9v10.3
		C18.7,19.5,18.6,19.9,18.3,20.1z"/><path d="M15.6,12.4H8.4c-0.3,0-0.5,0.2-0.5,0.5c0,0.3,0.2,0.5,0.5,0.5h7.2c0.3,0,0.5-0.2,0.5-0.5C16.1,12.6,15.9,12.4,15.6,12.4z"/><path d="M15.6,16H8.4c-0.3,0-0.5,0.2-0.5,0.5S8.1,17,8.4,17h7.2c0.3,0,0.5-0.2,0.5-0.5S15.9,16,15.6,16z"/><path d="M8.4,9.8h1.8c0.3,0,0.5-0.2,0.5-0.5s-0.2-0.5-0.5-0.5H8.4C8.1,8.8,7.9,9,7.9,9.3S8.1,9.8,8.4,9.8z"/></g><g id="copy"><path d="M19.2,21.5h-8.1c-1.3,0-2.3-1-2.3-2.3v-8.1c0-1.3,1-2.3,2.3-2.3h8.1c1.3,0,2.3,1,2.3,2.3v8.1
		C21.5,20.5,20.5,21.5,19.2,21.5z M11.1,9.8c-0.7,0-1.3,0.6-1.3,1.3v8.1c0,0.7,0.6,1.3,1.3,1.3h8.1c0.7,0,1.3-0.6,1.3-1.3v-8.1
		c0-0.7-0.6-1.3-1.3-1.3H11.1z"/><path d="M5.7,15.2H4.8c-0.6,0-1.2-0.2-1.6-0.7c-0.4-0.4-0.7-1-0.7-1.6V4.8c0-0.6,0.2-1.2,0.7-1.6c0.4-0.4,1-0.7,1.6-0.7h8.1
		c0.6,0,1.2,0.2,1.6,0.7c0.4,0.4,0.7,1,0.7,1.6v0.9c0,0.3-0.2,0.5-0.5,0.5S14.2,6,14.2,5.7V4.8c0-0.3-0.1-0.7-0.4-0.9
		c-0.2-0.2-0.6-0.4-0.9-0.4H4.8c-0.3,0-0.7,0.1-0.9,0.4C3.6,4.1,3.5,4.5,3.5,4.8v8.1c0,0.3,0.1,0.7,0.4,0.9c0.2,0.2,0.6,0.4,0.9,0.4
		h0.9c0.3,0,0.5,0.2,0.5,0.5S6,15.2,5.7,15.2z"/></g><g id="clock"><path d="M12,21.5c-5.2,0-9.5-4.3-9.5-9.5S6.8,2.5,12,2.5s9.5,4.3,9.5,9.5S17.2,21.5,12,21.5z M12,3.5c-4.7,0-8.5,3.8-8.5,8.5
		c0,4.7,3.8,8.5,8.5,8.5c4.7,0,8.5-3.8,8.5-8.5C20.5,7.3,16.7,3.5,12,3.5z"/><path d="M15.6,14.3c-0.1,0-0.2,0-0.2-0.1l-3.6-1.8c-0.2-0.1-0.3-0.3-0.3-0.4V6.6c0-0.3,0.2-0.5,0.5-0.5s0.5,0.2,0.5,0.5v5.1
		l3.3,1.7c0.2,0.1,0.3,0.4,0.2,0.7C16,14.2,15.8,14.3,15.6,14.3z"/></g><path d="M15.8,4c0.1,0,0.3,0,0.4,0.1c0.2,0.2,0.2,0.5,0,0.7L9,12l7.1,7.1c0.2,0.2,0.2,0.5,0,0.7s-0.5,0.2-0.7,0l-7.5-7.5
		c-0.2-0.2-0.2-0.5,0-0.7l7.5-7.5C15.5,4,15.6,4,15.8,4z" id="chevron-left"/><path d="M4,8.3C4,8.1,4,8,4.1,7.9c0.2-0.2,0.5-0.2,0.7,0L12,15l7.1-7.1c0.2-0.2,0.5-0.2,0.7,0s0.2,0.5,0,0.7l-7.5,7.5
		c-0.2,0.2-0.5,0.2-0.7,0L4.1,8.6C4,8.5,4,8.4,4,8.3z" id="chevron-down"/><path d="M8.3,20c-0.1,0-0.3,0-0.4-0.1c-0.2-0.2-0.2-0.5,0-0.7L15,12L7.9,4.9c-0.2-0.2-0.2-0.5,0-0.7s0.5-0.2,0.7,0l7.5,7.5
		c0.2,0.2,0.2,0.5,0,0.7l-7.5,7.5C8.5,20,8.4,20,8.3,20z" id="chevron-right"/><path d="M20,15.8c0,0.1,0,0.3-0.1,0.4c-0.2,0.2-0.5,0.2-0.7,0L12,9l-7.1,7.1c-0.2,0.2-0.5,0.2-0.7,0s-0.2-0.5,0-0.7l7.5-7.5
		c0.2-0.2,0.5-0.2,0.7,0l7.5,7.5C20,15.5,20,15.6,20,15.8z" id="chevron-up"/><path d="M17,14.8c-0.9,0-1.7,0.4-2.3,1.1l-4.9-2.9C9.9,12.7,10,12.4,10,12c0-0.4-0.1-0.7-0.2-1.1l4.9-2.9c0.6,0.7,1.4,1.1,2.3,1.1
		c1.7,0,3-1.3,3-3s-1.3-3-3-3s-3,1.3-3,3c0,0.4,0.1,0.7,0.2,1.1l-4.9,2.9C8.7,9.4,7.9,9,7,9c-1.7,0-3,1.3-3,3s1.3,3,3,3
		c0.9,0,1.7-0.4,2.3-1.1l4.9,2.9c-0.1,0.3-0.2,0.7-0.2,1.1c0,1.7,1.3,3,3,3s3-1.3,3-3S18.7,14.8,17,14.8z M17,4.2c1.1,0,2,0.9,2,2
		s-0.9,2-2,2s-2-0.9-2-2S15.9,4.2,17,4.2z M7,14c-1.1,0-2-0.9-2-2c0-1.1,0.9-2,2-2s2,0.9,2,2C9,13.1,8.1,14,7,14z M17,19.8
		c-1.1,0-2-0.9-2-2s0.9-2,2-2s2,0.9,2,2S18.1,19.8,17,19.8z" id="share_1_"/><path d="M18.3,4.3h-2.2V3c0-0.3-0.2-0.5-0.5-0.5S15.1,2.7,15.1,3v1.3H8.9V3c0-0.3-0.2-0.5-0.5-0.5S7.9,2.7,7.9,3v1.3H5.7
		c-1.3,0-2.3,1-2.3,2.3v12.6c0,1.3,1,2.3,2.3,2.3h12.6c1.3,0,2.3-1,2.3-2.3V6.6C20.6,5.3,19.6,4.3,18.3,4.3z M5.7,5.3h2.2v1.3
		c0,0.3,0.2,0.5,0.5,0.5s0.5-0.2,0.5-0.5V5.3h6.2v1.3c0,0.3,0.2,0.5,0.5,0.5s0.5-0.2,0.5-0.5V5.3h2.2c0.7,0,1.3,0.6,1.3,1.3v3.1H4.4
		V6.6C4.4,5.9,5,5.3,5.7,5.3z M18.3,20.5H5.7c-0.7,0-1.3-0.6-1.3-1.3v-8.5h15.2v8.5C19.6,19.9,19,20.5,18.3,20.5z" id="calendar"/><g id="chain"><path d="M7.9,20.5c-1.2,0-2.3-0.5-3.1-1.3c-0.8-0.8-1.3-1.9-1.3-3.1c0-1.2,0.5-2.3,1.3-3.1l2.7-2.7C8.4,9.4,9.5,9,10.6,9
		s2.3,0.5,3.1,1.3c0.2,0.2,0.2,0.5,0,0.7s-0.5,0.2-0.7,0c-1.3-1.3-3.5-1.3-4.8,0l-2.7,2.7c-0.6,0.6-1,1.5-1,2.4s0.4,1.8,1,2.4
		c1.3,1.3,3.5,1.3,4.8,0l1.4-1.4c0.2-0.2,0.5-0.2,0.7,0s0.2,0.5,0,0.7L11,19.2C10.2,20,9.1,20.5,7.9,20.5z"/><path d="M13.4,15c-1.2,0-2.3-0.5-3.1-1.3c-0.2-0.2-0.2-0.5,0-0.7s0.5-0.2,0.7,0c1.3,1.3,3.5,1.3,4.8,0l2.7-2.7c0.6-0.6,1-1.5,1-2.4
		s-0.4-1.8-1-2.4c-1.3-1.3-3.5-1.3-4.8,0l-1.4,1.4c-0.2,0.2-0.5,0.2-0.7,0s-0.2-0.5,0-0.7L13,4.8c0.8-0.8,1.9-1.3,3.1-1.3
		s2.3,0.5,3.1,1.3c0.8,0.8,1.3,1.9,1.3,3.1S20,10.2,19.2,11l-2.7,2.7C15.6,14.6,14.5,15,13.4,15z"/></g></svg>