<svg width="186" height="64" fill="none" xmlns="http://www.w3.org/2000/svg"><g clip-path="url(#clip0_1984_427)"><path fill-rule="evenodd" clip-rule="evenodd" d="M54.712 28.5194C53.5104 27.3762 49.7327 27.8233 42.4491 28.2324C43.887 22.1555 44.9134 16.851 47.5987 12.7176C60.0725 13.4162 75.4018 15.1666 92.9591 15.1158C127.523 15.0167 127.835 2.1466 127.835 2.1466C113.128 6.38414 92.9286 5.13168 77.6527 3.72425C58.472 1.96115 39.2887 -2.45423 23.4411 1.78331C4.72531 6.78808 2.92411 20.6846 3.59226 26.6471C11.1019 16.7925 21.2588 13.2867 34.2712 12.5499C35.5034 12.4813 36.8016 12.4559 38.1277 12.4458C35.765 14.9227 33.9308 18.8249 32.0305 24.9094C31.619 26.2432 31.215 27.5185 30.8162 28.7684C14.8111 30.1581 11.704 37.4696 12.6237 39.3877C13.6018 41.4302 19.2798 38.7525 26.3678 37.965C26.82 37.9142 27.2569 37.8735 27.6888 37.8278C24.9197 44.9844 21.8609 50.0958 16.9375 53.0835C9.4303 57.636 1.5751 55.53 0 54.2648C0.609718 62.6179 13.1699 67.1705 23.8451 61.3274C32.3557 56.6732 37.2792 45.5611 39.9772 37.2333C42.3245 37.2259 44.6712 37.1522 47.0143 37.0123C53.4545 36.5804 56.282 30.0158 54.712 28.522M183.871 19.1628C183.552 19.0609 183.217 19.023 182.884 19.0513C182.551 19.0796 182.227 19.1736 181.931 19.3279C181.634 19.4821 181.371 19.6935 181.157 19.9499C180.943 20.2063 180.781 20.5026 180.682 20.8218C180.482 21.4569 180.54 22.1174 180.794 22.6763C178.373 24.8916 176.135 26.5328 174.956 26.1517C173.432 25.6589 174.585 21.5153 176.074 17.7376C176.727 17.8372 177.394 17.6991 177.954 17.3486C178.514 16.998 178.929 16.4581 179.125 15.8271C179.35 15.124 179.288 14.3605 178.953 13.7027C178.618 13.0448 178.037 12.5456 177.336 12.3137C176.99 12.2026 176.625 12.1614 176.262 12.1922C175.9 12.223 175.547 12.3253 175.224 12.4933C174.901 12.6612 174.614 12.8914 174.381 13.1706C174.148 13.4498 173.972 13.7724 173.864 14.1199C173.533 15.1615 173.841 16.254 174.562 16.9704C172.581 20.6033 170.515 23.7459 168.706 23.2174L168.64 23.1997C166.821 22.6103 166.941 18.8224 167.416 14.6763C168.432 14.5315 169.331 13.8151 169.664 12.7608C169.89 12.058 169.829 11.2945 169.494 10.6365C169.16 9.9785 168.579 9.47921 167.878 9.24728C167.531 9.13588 167.166 9.09429 166.803 9.12493C166.44 9.15557 166.087 9.25782 165.764 9.42578C165.441 9.59373 165.154 9.82406 164.92 10.1035C164.687 10.3829 164.511 10.7058 164.403 11.0536C163.986 12.367 164.581 13.7643 165.749 14.3816C164.792 18.3321 163.346 22.3791 161.822 21.8862C160.651 21.5051 159.774 18.8732 159.078 15.662C159.513 15.4181 159.868 15.0528 160.099 14.6107C160.331 14.1686 160.428 13.6688 160.38 13.1722C160.332 12.6755 160.141 12.2036 159.829 11.8139C159.518 11.4241 159.1 11.1335 158.626 10.9774C158.307 10.8755 157.972 10.8377 157.639 10.8662C157.306 10.8947 156.982 10.9889 156.685 11.1434C156.389 11.2979 156.126 11.5096 155.912 11.7662C155.697 12.0229 155.536 12.3195 155.437 12.6388C155.328 12.9827 155.292 13.3457 155.332 13.7044C155.372 14.0631 155.487 14.4093 155.669 14.7206C155.852 15.0319 156.098 15.3013 156.392 15.5112C156.685 15.7211 157.02 15.8668 157.373 15.9389L157.823 26.7055L175.444 32.4293L182.003 23.9186C182.331 24.0754 182.688 24.1599 183.051 24.1663C183.414 24.1727 183.773 24.1009 184.106 23.9558C184.439 23.8107 184.736 23.5957 184.978 23.3254C185.22 23.0551 185.402 22.7358 185.509 22.3892C185.939 21.0402 185.204 19.5947 183.871 19.1628Z" fill="#077CE5"/><path fill-rule="evenodd" clip-rule="evenodd" d="M163.62 49.171C160.351 54.9785 155.679 57.9357 153.189 55.7813C150.699 53.627 151.335 47.1716 154.604 41.3641C157.874 35.559 162.543 32.5994 165.033 34.7562C167.523 36.9106 166.89 43.366 163.62 49.171ZM159.182 29.2154C159.182 29.2154 154.993 30.7905 152.079 33.5495C151.088 34.4895 150.133 35.4625 149.267 36.5422L149.249 36.5676C148.443 37.5736 147.813 38.6508 147.14 39.8042C146.2 41.3996 145.38 43.0814 144.732 44.842V44.8344C144.732 44.8344 143.045 48.3961 141.81 50.1745C140.611 51.902 138.335 53.5533 137.425 54.1783C136.361 54.6745 135.262 55.0897 134.135 55.4206C126.654 57.6029 125.279 52.2196 126.953 49.6791C127.556 48.767 131.697 45.5838 134.527 43.2288C140.001 38.6813 143.754 35.7953 146.33 33.1786C149.058 30.4095 147.295 28.8801 145.176 28.5142C139.892 27.6022 137.474 29.0147 135.934 30.3358C134.08 31.9287 123.016 45.2688 123.016 45.2688C123.016 45.2688 141.023 10.4259 143.977 4.43546C146.416 -0.500711 134.715 -1.1841 131.483 5.91657C129.603 10.0474 116.697 39.949 115.122 43.648C112.241 50.4107 112.069 51.4676 110.628 52.6515C110.614 52.6694 110.6 52.688 110.588 52.7073L110.476 52.7785C110.471 52.7785 110.468 52.7836 110.463 52.7886C109.076 53.9344 107.135 54.9684 105.839 54.9481C105.059 54.9404 104.6 54.473 104.468 53.5152C104.333 52.56 104.447 51.3406 104.811 49.8569C105.026 48.9728 105.314 48.0049 105.679 46.9531C106.043 45.9014 106.439 44.8394 106.868 43.7623C107.295 42.6851 107.735 41.6333 108.189 40.607L109.434 37.7718C109.808 36.9131 110.125 36.1713 110.384 35.5514C110.643 34.9264 110.804 34.4844 110.867 34.2227C111.299 32.4545 111.215 30.8617 110.763 29.8556C110.308 28.8521 109.49 28.3491 108.304 28.3491C107.12 28.3491 105.999 28.6819 104.968 29.2739C103.832 29.9242 102.798 30.6356 101.724 31.9287C100.811 33.0423 99.9185 34.1722 99.0461 35.3177C98.4542 36.0951 97.8242 36.9055 97.1535 37.7566C96.4853 38.6051 95.8553 39.4079 95.2659 40.1751C94.4176 41.2759 93.5682 42.376 92.7178 43.4752H92.0064C92.0471 43.3075 92.164 42.9798 92.352 42.4895C92.545 41.9992 92.7737 41.4225 93.043 40.767C93.6375 39.301 94.2218 37.8309 94.7959 36.3567C95.0804 35.6276 95.3294 34.9595 95.553 34.3472C95.7715 33.7375 95.9264 33.2548 96.0103 32.8941C96.3329 31.5806 96.3405 30.5289 96.0357 29.7413C95.7308 28.9512 94.9407 28.5574 93.6603 28.5574C92.3799 28.5574 91.2773 28.9283 90.35 29.6676C89.4214 30.4102 88.6742 31.3546 88.1652 32.4291C87.3675 34.1094 86.6085 35.8077 85.8889 37.5228C84.1626 41.6305 82.5865 45.7997 81.1636 50.0221C80.864 50.9134 80.5786 51.8095 80.3075 52.7099C78.6231 53.566 76.8778 54.2952 75.069 54.8439C74.3754 55.0548 73.5142 55.1996 73.0163 54.6661C72.6504 54.2774 72.6428 53.6753 72.6936 53.1392C72.9528 50.3091 74.1646 47.6721 75.3129 45.0783C77.2484 40.7096 79.0563 36.2856 80.7343 31.8118C80.9426 31.2529 81.1535 30.6356 80.9706 30.069C80.686 29.1773 79.6241 28.8521 78.7095 28.7302C76.7279 28.4685 74.4415 28.6667 73.1611 30.2189C72.7394 30.7321 72.4675 31.352 72.2008 31.9617L65.626 46.9608C64.244 50.111 62.5342 53.5762 59.3154 54.6966C58.7565 54.8922 58.129 55.0014 57.5879 54.7601C56.8969 54.4527 56.5386 53.6346 56.5412 52.8699C56.5437 52.1053 56.8359 51.3761 57.123 50.6673C59.8311 43.996 61.833 39.3571 64.5412 32.6832C64.6682 32.3783 65.3389 30.8185 65.3592 30.0868C65.3536 29.856 65.2853 29.6311 65.1619 29.436C65.0384 29.2409 64.8642 29.083 64.6581 28.9792C62.9305 28.1789 60.827 28.6616 59.2671 29.7591C56.8105 31.4866 55.4666 34.2812 54.2547 36.9411C52.9108 39.8906 51.5466 42.835 50.3221 45.8429C48.9223 49.2853 47.4234 52.6184 46.6587 56.264C46.27 58.1262 46.3767 60.527 47.7155 61.8633C48.5894 62.7347 49.8953 62.9862 51.1198 63.0243C56.0788 63.1818 60.7736 60.5575 64.3938 57.1253C64.5209 58.9417 64.7876 61.0224 66.2916 62.0284C67.2519 62.6661 68.4866 62.6864 69.6298 62.5619C71.9289 62.318 74.1544 61.5965 76.3037 60.7328C77.2005 60.3695 78.0846 59.9833 78.9585 59.5718C78.9686 59.9605 79.0093 60.3288 79.0779 60.6718C79.2303 61.3755 79.5453 61.937 80.0382 62.3561C80.526 62.7728 81.2576 62.9836 82.2306 62.9836C83.0106 62.9836 83.7422 62.8033 84.4231 62.4451C85.1014 62.0894 85.8 61.4187 86.5114 60.4381L100.382 41.7883H100.952C100.249 43.5653 99.5753 45.3532 98.9293 47.1513C98.3766 48.6728 97.9034 50.2221 97.5117 51.7928C96.6174 55.4511 96.3837 58.2329 96.808 60.1332C97.2322 62.0335 98.096 62.9836 99.3993 62.9836C100.703 62.9836 101.991 62.7982 103.268 62.4273C104.558 62.0507 105.816 61.5707 107.028 60.9919C107.882 60.588 108.72 60.1307 109.556 59.6531C109.554 59.9681 109.462 60.5702 109.449 60.8547C109.406 61.8836 109.559 62.0995 110.034 62.5416C110.506 62.9862 110.999 63.0268 112.015 63.0268C112.778 63.0268 113.052 62.9582 113.72 62.4705C114.35 62.0132 116.634 58.5987 118.392 56.1675C118.682 55.7686 118.999 55.3545 119.35 54.9252C118.704 57.9408 120.092 62.3434 124.248 63.0294C128.287 63.695 134.857 62.7677 143.335 56.1573C143.484 57.0795 143.716 57.9509 144.036 58.7639C144.651 60.3212 145.618 61.5838 146.937 62.5492C148.255 63.5146 150.011 63.9998 152.201 63.9998C153.72 63.9998 155.216 63.7356 156.687 63.2072C158.184 62.6692 159.609 61.949 160.93 61.063C162.31 60.1361 163.586 59.0628 164.736 57.862C167.014 55.486 168.889 52.7537 170.287 49.7731C171.506 46.9989 172.09 44.9207 172.7 41.7248C172.98 40.0227 173.132 38.5187 173.112 37.1418C173.112 37.1418 172.959 33.7426 172.497 33.4326C172.037 33.1227 159.182 29.2154 159.182 29.2154Z" fill="#077CE5"/></g><defs><clipPath id="clip0_1984_427"><rect width="186" height="64" fill="white"/></clipPath></defs></svg>