<svg width="32" height="32" fill="none" xmlns="http://www.w3.org/2000/svg"><g clip-path="url(#clip0_11_48)"><rect width="32" height="32" rx="16" fill="white"/><path d="M32 16.3636C32 15.2291 31.8961 14.1382 31.7032 13.0909H16.3265V19.2873H25.1132C24.7273 21.28 23.5696 22.9673 21.833 24.1018V28.1309H27.1317C30.2189 25.3382 32 21.2364 32 16.3636Z" fill="#4285F4"/><path d="M16.3265 32C20.7346 32 24.4304 30.5745 27.1317 28.1309L21.833 24.1018C20.3784 25.0618 18.5231 25.6436 16.3265 25.6436C12.0816 25.6436 8.47491 22.8364 7.18363 19.0545H1.75134V23.1854C4.4378 28.4073 9.94429 32 16.3265 32Z" fill="#34A853"/><path d="M7.18367 19.04C6.85714 18.08 6.66419 17.0618 6.66419 16C6.66419 14.9382 6.85714 13.92 7.18367 12.96V8.8291H1.75139C0.638219 10.9818 0 13.4109 0 16C0 18.5891 0.638219 21.0182 1.75139 23.1709L5.98145 19.9418L7.18367 19.04Z" fill="#FBBC05"/><path d="M16.3265 6.37091C18.7309 6.37091 20.8682 7.18545 22.5751 8.75636L27.2504 4.17454C24.4155 1.58545 20.7346 0 16.3265 0C9.94429 0 4.4378 3.59273 1.75134 8.82909L7.18363 12.96C8.47491 9.17818 12.0816 6.37091 16.3265 6.37091Z" fill="#EA4335"/></g><defs><clipPath id="clip0_11_48"><rect width="32" height="32" rx="16" fill="white"/></clipPath></defs></svg>