<svg width="64" height="64" fill="none" xmlns="http://www.w3.org/2000/svg"><g clip-path="url(#clip0_1984_417)"><path d="M0.430809 0.430908V63.5693H63.5792V0.430908H0.430809Z" fill="white"/><path d="M0.430809 0.430908V63.5693H63.5792V0.430908H0.430809ZM59.3813 26.6801C59.2812 28.6438 58.65 31.0884 58.0989 32.7315C55.8748 39.3238 53.2999 43.4215 47.3388 43.4215C45.5855 43.4215 42.4696 42.9506 41.3275 39.8248L41.047 39.0934L40.5661 39.7045C39.6634 40.8617 38.5102 41.7991 37.1931 42.4464C35.876 43.0937 34.4293 43.4339 32.9618 43.4416C30.6875 43.4516 28.8541 42.6901 27.6819 41.2374L27.3513 40.8367L27.0106 41.2174C25.7483 42.62 23.5441 43.4215 20.9693 43.4215C20.0616 43.4577 19.1564 43.3045 18.3111 42.9715C17.4659 42.6386 16.6993 42.1334 16.0601 41.4879L15.7595 41.1472L15.4289 41.4779C14.1465 42.7603 12.1428 43.4115 9.61803 43.3514C6.54227 43.2813 4.67877 41.568 4.61866 38.7728C4.51847 34.4647 8.69631 25.3977 10.4296 22.6426C10.884 21.7952 11.565 21.0907 12.3964 20.6078C13.2279 20.1248 14.1772 19.8824 15.1384 19.9074C16.541 19.9074 17.4928 20.198 18.0539 20.7991C18.5748 21.3401 18.675 21.801 18.7151 22.9131L18.7752 24.3457L19.5366 23.1335C21.3701 20.1779 24.3957 19.7772 27.4114 19.7772C29.4953 19.7772 31.3187 20.5386 32.0501 21.7308L32.3206 22.1717L32.7214 21.8411C34.4675 20.4572 36.6458 19.7335 38.8729 19.7972C41.5078 19.7972 43.4314 20.4484 44.5736 21.7509C44.8341 22.0414 45.0044 22.2518 45.2448 22.7528L45.5454 23.3639L45.9762 22.8429C46.81 21.86 47.857 21.0802 49.0376 20.5629C50.2181 20.0455 51.5011 19.8042 52.789 19.8573C55.0332 19.8573 56.7364 20.4585 57.8585 21.6307C59.2611 23.1134 59.4615 25.1873 59.3813 26.6701V26.6801Z" fill="#FFED00"/><path d="M0.430809 0.430908V63.5693H63.5792V0.430908H0.430809ZM61.1547 29.0947C60.8641 31.399 59.3112 35.657 58.4897 37.3501C56.2855 41.9187 53.32 45.4153 47.6193 45.4153C44.5736 45.4153 42.0689 44.4534 40.6061 42.5799C38.4935 44.4432 35.7687 45.4633 32.9518 45.4453C30.7477 45.4453 28.804 44.8141 27.3212 43.6419C25.456 44.8675 23.2605 45.4933 21.0294 45.4353C19.1284 45.475 17.2632 44.9141 15.6994 43.8323C13.8599 44.9561 11.7195 45.4877 9.56794 45.3551C5.4903 45.255 2.665 42.6701 2.58485 38.9131C2.48466 33.9237 6.69255 24.7866 8.66625 21.6307C9.31461 20.4783 10.2617 19.5221 11.4077 18.8627C12.5538 18.2033 13.8564 17.8651 15.1785 17.8836C18.1841 17.8836 19.2862 18.7452 19.8172 19.8373C22.1415 17.8736 25.2173 17.7534 27.4114 17.7534C29.8159 17.7534 31.3388 18.3946 32.6312 19.4265C34.5301 18.3126 36.7021 17.7505 38.9029 17.8035C42.0088 17.8035 44.3231 18.5248 45.9361 20.1178C47.885 18.5607 50.3259 17.7507 52.819 17.8335C56.3056 17.8335 58.5999 19.0959 59.9424 20.9694C61.846 23.6144 61.5053 26.2794 61.1547 29.0947Z" fill="#E3000B"/><path d="M0 0V64H64V0H0ZM63.1183 0.881653V63.1183H0.881653V0.881653H63.1183Z" fill="black"/><path d="M60.8441 19.2061V18.7653H61.1446C61.355 18.7653 61.4753 18.8454 61.4753 18.9857C61.4753 19.0959 61.4051 19.2061 61.1747 19.2061H60.8441ZM61.9061 20.1078L61.7257 19.7872C61.5654 19.5067 61.5254 19.4666 61.3851 19.4165C61.6556 19.3764 61.8159 19.2061 61.8159 18.9657C61.8159 18.7152 61.6556 18.5248 61.315 18.5248H60.5135V20.1078H60.8441V19.4566H60.9042C61.0445 19.4566 61.1046 19.4766 61.1647 19.5367C61.2348 19.6069 61.325 19.7371 61.3851 19.8473L61.5153 20.1078H61.9161H61.9061ZM61.1246 18.074C61.2865 18.0733 61.4469 18.1045 61.5967 18.1658C61.7465 18.2271 61.8827 18.3173 61.9976 18.4313C62.1126 18.5453 62.2039 18.6807 62.2665 18.83C62.329 18.9793 62.3616 19.1394 62.3622 19.3013C62.3629 19.4632 62.3317 19.6236 62.2703 19.7733C62.209 19.9231 62.1187 20.0594 62.0047 20.1743C61.8907 20.2892 61.7552 20.3805 61.6059 20.443C61.4566 20.5055 61.2965 20.538 61.1346 20.5386C60.8078 20.5386 60.4944 20.4088 60.2633 20.1777C60.0321 19.9466 59.9023 19.6331 59.9023 19.3063C59.9023 18.9795 60.0321 18.666 60.2633 18.4349C60.4944 18.2038 60.8078 18.074 61.1346 18.074H61.1246ZM61.1246 17.7734C60.9233 17.7734 60.724 17.8131 60.538 17.8901C60.352 17.9672 60.183 18.0801 60.0407 18.2224C59.8984 18.3647 59.7855 18.5337 59.7084 18.7197C59.6314 18.9057 59.5917 19.105 59.5917 19.3063C59.5917 19.5076 59.6314 19.7069 59.7084 19.8929C59.7855 20.0789 59.8984 20.2479 60.0407 20.3902C60.183 20.5326 60.352 20.6455 60.538 20.7225C60.724 20.7995 60.9233 20.8392 61.1246 20.8392C61.5312 20.8392 61.921 20.6777 62.2085 20.3902C62.496 20.1027 62.6575 19.7129 62.6575 19.3063C62.6575 18.8998 62.496 18.5099 62.2085 18.2224C61.921 17.9349 61.5312 17.7734 61.1246 17.7734ZM52.779 19.4165C51.4277 19.3649 50.0823 19.6213 48.8448 20.1663C47.6072 20.7113 46.5098 21.5307 45.6356 22.5624C45.454 22.1574 45.2069 21.785 44.9042 21.4604C43.6318 20.0277 41.598 19.3564 38.8629 19.3564C36.1979 19.3564 33.9737 20.188 32.4308 21.5004C31.6293 20.198 29.7057 19.3364 27.4014 19.3364C24.3957 19.3364 21.1096 19.7672 19.1559 22.9031C19.1158 21.7709 19.0056 21.1698 18.3745 20.4985C17.603 19.687 16.3507 19.4666 15.1384 19.4666C14.1006 19.4386 13.0754 19.6991 12.1768 20.2192C11.2782 20.7392 10.5416 21.4983 10.0488 22.4121C8.30558 25.1873 4.07765 34.3445 4.17784 38.7828C4.23795 41.6482 6.16156 43.7121 9.598 43.7922C12.283 43.8624 14.397 43.141 15.7395 41.7885C16.419 42.4789 17.2351 43.02 18.1356 43.3771C19.0362 43.7342 20.0013 43.8995 20.9693 43.8624C23.4239 43.8624 25.8785 43.121 27.3312 41.518C28.5636 43.0208 30.4872 43.9024 32.9618 43.8924C34.4951 43.8829 36.0064 43.5265 37.3823 42.8498C38.7582 42.1731 39.9631 41.1937 40.9067 39.9851C41.9286 42.7603 44.5135 43.8624 47.3388 43.8624C53.5304 43.8624 56.2555 39.6044 58.5197 32.8717C59.0207 31.3589 59.712 28.8242 59.8222 26.7002C60.0025 23.1635 58.5097 19.4165 52.779 19.4165ZM11.5917 36.3483C14.7977 35.7872 15.5993 36.9494 15.4991 38.0114C15.1985 41.2174 12.253 41.9387 9.68817 41.8786C7.84471 41.8386 6.17157 40.987 6.12148 38.8329C6.04133 35.0659 9.88854 26.3495 11.6919 23.4641C12.5335 22.0915 13.5454 21.4103 15.1684 21.4103C16.7113 21.4103 17.0921 22.2118 17.072 23.1535C17.0119 25.6682 12.9343 33.3426 11.5917 36.3382V36.3483ZM22.0213 33.3827C21.6621 34.3824 21.3512 35.3988 21.0895 36.4284C22.1242 36.1292 23.1988 35.9907 24.2755 36.0176C25.8084 36.0577 26.8003 36.6889 26.8003 37.9613C26.8003 41.0471 23.3939 41.9488 21.0194 41.9588C18.4245 41.9588 16.1403 40.476 16.1403 37.6407C16.1403 34.3044 17.9436 29.255 19.6468 25.8987C21.7207 21.7609 23.8547 21.2199 27.5116 21.2199C29.1146 21.2199 30.9681 21.9012 30.9681 23.424C30.9681 25.528 29.1847 26.3295 27.4214 26.4297C26.66 26.4798 25.4978 26.5198 24.8065 26.4697C24.8065 26.4697 24.2154 27.3714 23.5942 28.9644C26.8704 28.5036 28.253 29.2449 27.7019 31.1385C26.9505 33.6933 24.7364 33.8636 22.0213 33.3827ZM38.1315 25.4178C37.2398 25.4178 36.6688 25.9788 36.2279 26.58C35.2862 27.9225 33.2223 33.2625 32.9017 35.4566C32.6913 36.9594 33.3325 37.26 34.0438 37.26C35.186 37.26 36.4584 36.0577 36.8992 34.074C36.8992 34.074 34.7251 34.0239 35.3262 32.1003C35.9073 30.2368 37.0094 29.8361 38.8328 29.7559C42.4296 29.6056 42.0689 32.2606 41.7884 33.6833C40.8466 38.2819 37.5805 41.9688 32.9518 41.9688C29.7859 41.9688 27.8122 40.2155 27.8122 36.9895C27.8122 34.6851 28.9543 31.0784 29.866 28.9544C31.7896 24.4459 33.8134 21.3101 38.953 21.3101C42.0488 21.3101 44.4834 22.4121 44.1227 25.3176C43.8622 27.4315 42.8003 28.6839 40.8666 28.8242C40.3256 28.8743 38.1215 28.8242 38.8528 26.7202C39.1133 25.9888 39.2135 25.4178 38.1315 25.4178ZM57.5679 29.2249C57.0269 31.93 55.8046 35.136 54.4721 37.5205C52.3081 41.4278 49.6731 41.9688 47.3688 41.9387C45.0745 41.9087 42.4797 41.0671 42.4596 37.5205C42.4496 34.9757 43.5517 31.3789 44.4834 29.0245C46.1065 24.7465 47.7696 21.27 53.0194 21.3301C59.1309 21.4002 58.0488 26.8404 57.5679 29.2149V29.2249ZM53.1997 26.5499C53.1396 28.183 50.7451 34.7252 49.8936 36.1679C49.5229 36.7891 49.1121 37.3101 48.3607 37.3101C47.7095 37.3101 47.4089 36.8392 47.3889 36.3082C47.3488 34.8354 50.0539 27.4416 50.9856 26.2393C51.3863 25.5981 51.8472 25.4979 52.3782 25.5079C53.1497 25.5079 53.2198 26.069 53.1997 26.5499Z" fill="black"/></g><defs><clipPath id="clip0_1984_417"><rect width="64" height="64" fill="white"/></clipPath></defs></svg>