<svg width="32" height="32" fill="none" xmlns="http://www.w3.org/2000/svg"><rect width="32" height="32" rx="16" fill="#28A5E5"/><path fill-rule="evenodd" clip-rule="evenodd" d="M20.8256 9.68884C21.0124 9.61018 21.217 9.58305 21.4179 9.61028C21.6189 9.6375 21.8088 9.71808 21.968 9.84364C22.1272 9.96919 22.2499 10.1351 22.3232 10.3242C22.3966 10.5132 22.4179 10.7185 22.385 10.9185L20.6698 21.3225C20.5034 22.326 19.4023 22.9015 18.4819 22.4017C17.712 21.9834 16.5685 21.3391 15.54 20.6668C15.0258 20.3302 13.4505 19.2526 13.6441 18.4857C13.8104 17.83 16.4574 15.3661 17.9699 13.9012C18.5636 13.3257 18.2928 12.9937 17.5918 13.5231C15.8501 14.8375 13.0557 16.8363 12.1315 17.399C11.3163 17.8951 10.8913 17.9798 10.383 17.8951C9.45587 17.7408 8.59599 17.5018 7.89418 17.2107C6.94582 16.8174 6.99195 15.5136 7.89342 15.1339L20.8256 9.68884Z" fill="white"/></svg>