<svg width="32" height="32" fill="none" xmlns="http://www.w3.org/2000/svg"><rect width="32" height="32" rx="16" fill="#FFDD2D"/><path d="M15.9808 7C14.8405 7 13.424 7.70477 12.8959 8.20059L13.1036 8.67211C13.1036 8.67211 11.496 8.69349 10.6673 9.22689C9.83875 9.76029 9.46085 10.123 9.05282 10.9844C8.64431 11.0038 7.11215 11.6542 6.22483 12.3079C6.22483 12.3079 5.47907 15.1312 6.89154 16.3494L6 17.5737C6.22483 18.3444 7.19589 19.1276 8.16113 19.221C8.5954 19.7473 7.75294 20.7927 7.75294 20.7927C8.10962 21.9245 10.51 23.1685 11.9437 23.1685L11.7462 23.8348C11.7462 23.8348 13.3432 24.9975 15.9199 24.889C18.0984 24.9596 19.8701 24.4395 20.3196 23.8348L20.092 23.1685C22.0816 22.8719 23.5845 22.2233 24.4206 20.8463C24.4206 20.8463 23.798 19.5374 24.0153 19.2089C24.9804 19.1156 25.8828 18.1649 26.1229 17.7499L25.2474 16.3718C25.9455 15.5877 26.3363 13.5185 25.823 12.3079C24.9359 11.6542 23.4188 11.1225 23.0101 11.1031C22.8481 10.1466 21.8072 9.39875 21.8072 9.39875C20.8216 8.54156 19.0288 8.67211 19.0288 8.67211L19.1746 8.20059C18.7175 7.691 17.2744 7 15.9808 7Z" fill="white"/><path d="M13.3221 9.67768C12.1811 9.38709 11.3212 9.78475 10.577 10.3319C9.83129 10.8802 9.53714 11.5908 9.60258 11.8453C8.99273 11.5957 7.65397 12.3698 7.01674 12.7412C7.01674 12.7412 6.52351 15.1536 7.7842 16.0869C7.71876 16.7422 7.25647 17.5287 7.01674 17.6761C7.43238 18.3313 8.3129 18.5107 8.68577 18.3442C9.30923 19.2074 9.00795 20.3769 8.66164 20.7498C9.63044 21.6245 11.942 21.9914 12.6191 22.0461C12.6191 22.0461 12.0232 20.6494 11.7571 19.4983C11.0215 16.3171 11.4174 12.3477 11.4174 12.3477C11.4174 12.3477 9.69944 14.3475 10.6571 19.1689C10.8189 19.983 11.0473 20.8434 11.0473 20.8434C10.888 20.7645 10.4991 20.8123 9.78416 20.4508C10.0905 20.1208 9.95877 18.1646 9.05638 17.2047C9.05638 17.2047 8.62714 17.4028 8.31193 17.2716C8.52396 17.1414 8.78879 16.3099 8.78879 15.6738C7.76849 15.064 7.87669 13.9615 7.92706 13.3818C8.42774 13.0567 9.32575 12.5041 10.4556 12.9864C10.4258 12.7128 10.5032 11.9846 10.8131 11.4745C10.8131 11.4745 11.1905 10.818 12.0428 10.612C12.8951 10.4059 13.3221 9.67768 13.3221 9.67768Z" fill="#333333"/><path d="M18.8006 9.67768C19.9416 9.38709 20.8015 9.78475 21.5457 10.3319C22.2914 10.8802 22.5856 11.5908 22.5201 11.8453C23.13 11.5957 24.4687 12.3698 25.106 12.7412C25.106 12.7412 25.599 15.1536 24.3383 16.0869C24.404 16.7422 24.8662 17.5287 25.106 17.6761C24.6903 18.3313 23.8098 18.5107 23.4368 18.3442C22.8135 19.2074 23.1148 20.3769 23.4611 20.7498C22.4921 21.6245 20.1807 21.9914 19.5034 22.0461C19.5034 22.0461 20.0995 20.6494 20.3656 19.4983C21.101 16.3171 20.7052 12.3477 20.7052 12.3477C20.7052 12.3477 22.4233 14.3475 21.4656 19.1689C21.3038 19.983 21.0754 20.8434 21.0754 20.8434C21.2347 20.7645 21.6236 20.8123 22.3386 20.4508C22.0322 20.1208 22.1639 18.1646 23.0663 17.2047C23.0663 17.2047 23.4956 17.4028 23.8108 17.2716C23.5988 17.1414 23.3339 16.3099 23.3339 15.6738C24.3542 15.064 24.246 13.9615 24.1955 13.3818C23.695 13.0567 22.797 12.5041 21.6671 12.9864C21.6968 12.7128 21.6195 11.9846 21.3097 11.4745C21.3097 11.4745 20.9322 10.818 20.0799 10.612C19.2276 10.4059 18.8006 9.67768 18.8006 9.67768Z" fill="#333333"/><path fill-rule="evenodd" clip-rule="evenodd" d="M16.1545 11.5357C15.3331 11.5328 14.2483 11.7515 14.2483 11.7515L13.9224 8.50705L16.1153 7.84439L18.2003 8.50705L18.0218 11.7515C18.0218 11.7515 16.9625 11.5387 16.1545 11.5357ZM16.1545 10.611C15.699 10.599 15.1128 10.6811 15.1128 10.6811L14.9789 9.14395L16.1153 8.83587L17.2433 9.14395V10.6811C17.2433 10.6811 16.6194 10.6231 16.1545 10.611Z" fill="#333333"/><path fill-rule="evenodd" clip-rule="evenodd" d="M16.05 23.865C17.9481 23.8428 19.1633 23.2772 19.1633 23.2772L18.4212 20.946C18.4212 20.946 16.8285 21.4074 16.0614 21.4081C15.2941 21.4074 13.7267 20.946 13.7267 20.946L12.9593 23.2772C12.9593 23.2772 14.1518 23.8428 16.05 23.865ZM16.0614 23.087C17.1421 23.0826 17.8099 22.8607 18.1723 22.7138L17.9738 21.9148C17.5265 22.0617 16.7504 22.224 16.0614 22.2296C15.3723 22.224 14.5914 22.103 14.144 21.9561L13.9712 22.7138C14.3337 22.8607 14.9805 23.0826 16.0614 23.087Z" fill="#333333"/><path fill-rule="evenodd" clip-rule="evenodd" d="M19.9038 12.7734H12.2189C12.2785 12.8565 12.5206 13.2597 12.6073 13.4923C12.6943 13.7257 12.7583 13.9612 12.7612 14.1064C12.7634 14.2212 12.7774 14.5779 12.7957 15.0441L12.7958 15.0486C12.8321 15.9732 12.8854 17.3323 12.9005 18.1353C12.9071 18.4894 12.9857 18.9591 13.27 19.343C13.5591 19.7339 14.0478 20.0176 14.8332 20.0176H15.3857C15.4403 20.0176 15.4779 20.0317 15.5075 20.0521C15.5393 20.074 15.5686 20.1075 15.5981 20.1556C15.6277 20.2042 15.6587 20.2721 15.6875 20.3366C15.7137 20.3954 15.7431 20.461 15.7777 20.5206C15.7894 20.5365 15.8368 20.6 15.8814 20.6283C15.9287 20.6586 15.988 20.6764 16.0613 20.6764C16.1362 20.6764 16.1961 20.6578 16.2439 20.6285C16.2888 20.6008 16.3336 20.5363 16.3463 20.5206C16.3821 20.459 16.418 20.3912 16.4441 20.3311C16.4723 20.2663 16.5003 20.2029 16.5293 20.1544C16.5578 20.1064 16.5862 20.0732 16.6169 20.0517C16.6456 20.0317 16.6824 20.0176 16.7368 20.0176H17.2893C18.0749 20.0176 18.5634 19.7339 18.8527 19.343C19.1368 18.9591 19.2156 18.4894 19.2222 18.1353C19.2371 17.3323 19.2904 15.9733 19.3267 15.0488L19.3269 15.0446C19.3452 14.5782 19.3592 14.2212 19.3615 14.1064C19.3644 13.9612 19.4284 13.7257 19.5154 13.4925C19.6019 13.2597 19.8442 12.8565 19.9038 12.7734ZM13.6815 13.8616C13.6723 13.8122 13.6624 13.7641 13.6522 13.7205H18.4922C18.4786 13.7686 18.469 13.8171 18.462 13.8624C18.4447 13.9748 18.4416 14.1556 18.4416 14.1556C18.4041 15.1012 18.3284 17.0708 18.3284 18.0506C18.3284 18.4547 18.198 18.716 18.0257 18.8752C17.8512 19.0364 17.621 19.1047 17.4022 19.0978C17.3731 19.097 17.3146 19.096 17.2524 19.0948C17.169 19.0935 17.0786 19.0919 17.0425 19.0903C16.8222 19.0803 16.6084 19.0901 16.4222 19.1413C16.2873 19.1784 16.1634 19.2384 16.0631 19.3305C15.8284 19.0987 15.4499 18.9967 15.0626 19.0143C15.0265 19.016 14.9268 19.0174 14.8345 19.0189C14.7634 19.0198 14.6963 19.0208 14.6661 19.0218C14.2545 19.0349 13.838 18.6941 13.838 18.0506C13.838 16.9804 13.7685 15.184 13.7327 14.2622C13.7327 14.2622 13.7071 13.9995 13.6815 13.8616Z" fill="#333333"/><path d="M13.6414 13.7204C13.6516 13.7641 13.6617 13.8122 13.6707 13.8616C13.6963 13.9993 13.7221 14.262 13.7221 14.262C13.7577 15.1839 13.8272 16.9802 13.8272 18.0504C13.8272 18.6941 14.2438 19.0347 14.6552 19.0218C14.6855 19.0208 14.7526 19.0198 14.8239 19.0187C14.9162 19.0174 15.0157 19.016 15.0518 19.0143C15.4392 18.9967 15.8176 19.0987 16.0523 19.3304C16.1526 19.2382 16.2765 19.1783 16.4114 19.1412C16.5975 19.0901 16.8114 19.0803 17.0316 19.0903C17.0679 19.0919 17.1582 19.0934 17.2416 19.0948C17.3038 19.0958 17.3622 19.0968 17.3914 19.0978C17.6102 19.1047 17.8404 19.0362 18.0149 18.875C18.1872 18.716 18.3176 18.4545 18.3176 18.0504C18.3176 17.0707 18.3932 15.1012 18.4308 14.1554C18.4308 14.1554 18.4341 13.9747 18.4512 13.8623C18.4582 13.8169 18.4678 13.7686 18.4814 13.7204H13.6414Z" fill="#FFDD2D"/></svg>