<svg width="320" height="320" fill="none" xmlns="http://www.w3.org/2000/svg"><path fill-rule="evenodd" clip-rule="evenodd" d="M160 13.913C154.465 13.913 149.157 16.1118 145.243 20.0256C141.329 23.9394 139.13 29.2477 139.13 34.7826V37.1478L139.13 37.1756C139.107 43.0093 137.379 48.7089 134.157 53.5727C130.936 58.4366 126.363 62.2524 121.001 64.5505C120.217 64.8866 119.379 65.0753 118.527 65.1079C113.443 67.045 107.915 67.5619 102.542 66.5876C96.661 65.5212 91.2343 62.7176 86.9616 58.5382L86.9068 58.4845L86.0723 57.6494C84.1341 55.7091 81.8297 54.167 79.2961 53.1168C76.7626 52.0665 74.0469 51.5259 71.3043 51.5259C68.5618 51.5259 65.8461 52.0665 63.3125 53.1168C60.779 54.167 58.4774 55.7063 56.5391 57.6467C54.5988 59.5849 53.054 61.8921 52.0037 64.4256C50.9535 66.9591 50.4129 69.6748 50.4129 72.4174C50.4129 75.16 50.9535 77.8757 52.0037 80.4092C53.054 82.9427 54.5933 85.2444 56.5337 87.1826L57.4254 88.0744C61.6049 92.347 64.4082 97.7741 65.4745 103.655C66.5278 109.464 65.8384 115.453 63.4957 120.868C61.4095 126.414 57.7222 131.218 52.8998 134.667C48.0177 138.159 42.1981 140.101 36.1975 140.242L36.0348 140.245L34.7826 140.243C29.2477 140.243 23.9394 142.442 20.0256 146.356C16.1118 150.27 13.913 155.578 13.913 161.113C13.913 166.648 16.1118 171.956 20.0256 175.87C23.9394 179.784 29.2477 181.983 34.7826 181.983H37.1756C43.0093 182.006 48.7089 183.735 53.5727 186.956C58.4264 190.17 62.2364 194.731 64.536 200.078C66.9371 205.537 67.6517 211.589 66.5876 217.458C65.5212 223.339 62.7176 228.766 58.5382 233.038L58.4845 233.093L57.6494 233.928C55.709 235.866 54.167 238.17 53.1168 240.704C52.0665 243.237 51.5259 245.953 51.5259 248.696C51.5259 251.438 52.0665 254.154 53.1168 256.687C54.167 259.221 55.7063 261.523 57.6467 263.461C59.5849 265.401 61.892 266.946 64.4256 267.996C66.9591 269.047 69.6748 269.587 72.4174 269.587C75.16 269.587 77.8756 269.047 80.4092 267.996C82.9427 266.946 85.2444 265.407 87.1826 263.466L88.0744 262.575C92.347 258.395 97.7741 255.592 103.655 254.525C109.464 253.472 115.453 254.162 120.868 256.504C126.414 258.59 131.218 262.278 134.667 267.1C138.159 271.982 140.101 277.802 140.242 283.803L140.245 283.965L140.243 285.217C140.243 290.752 142.442 296.061 146.356 299.974C150.27 303.888 155.578 306.087 161.113 306.087C166.648 306.087 171.956 303.888 175.87 299.974C179.784 296.061 181.983 290.752 181.983 285.217V282.852L181.983 282.824C182.006 276.991 183.735 271.291 186.956 266.427C190.17 261.574 194.73 257.764 200.077 255.464C205.537 253.063 211.589 252.348 217.458 253.412C223.339 254.479 228.766 257.282 233.038 261.462L233.093 261.515L233.928 262.351C235.866 264.291 238.17 265.833 240.704 266.883C243.237 267.933 245.953 268.474 248.696 268.474C251.438 268.474 254.154 267.933 256.687 266.883C259.221 265.833 261.523 264.294 263.461 262.353C265.401 260.415 266.946 258.108 267.996 255.574C269.047 253.041 269.587 250.325 269.587 247.583C269.587 244.84 269.047 242.124 267.996 239.591C266.946 237.057 265.407 234.756 263.466 232.817L262.575 231.926C258.395 227.653 255.592 222.226 254.525 216.345C253.461 210.476 254.176 204.423 256.577 198.964C258.877 193.617 262.687 189.057 267.54 185.843C272.404 182.621 278.104 180.893 283.937 180.87L283.965 180.87L285.217 180.87C290.752 180.87 296.061 178.671 299.974 174.757C303.888 170.843 306.087 165.535 306.087 160C306.087 154.465 303.888 149.157 299.974 145.243C296.061 141.329 290.752 139.13 285.217 139.13H282.852L282.824 139.13C276.991 139.107 271.291 137.379 266.427 134.157C261.563 130.936 257.748 126.363 255.449 121.001C255.113 120.217 254.925 119.379 254.892 118.527C252.955 113.443 252.438 107.915 253.412 102.542C254.479 96.661 257.282 91.2343 261.462 86.9616L261.515 86.9068L262.351 86.0723C264.291 84.1341 265.833 81.8297 266.883 79.2961C267.933 76.7626 268.474 74.0469 268.474 71.3043C268.474 68.5618 267.933 65.8461 266.883 63.3125C265.833 60.779 264.294 58.4774 262.353 56.5391C260.415 54.5987 258.108 53.054 255.574 52.0037C253.041 50.9535 250.325 50.4129 247.583 50.4129C244.84 50.4129 242.124 50.9535 239.591 52.0037C237.057 53.054 234.756 54.5933 232.817 56.5337L231.926 57.4254C227.653 61.6049 222.226 64.4082 216.345 65.4745C210.476 66.5386 204.424 65.824 198.965 63.423C193.617 61.1233 189.057 57.3133 185.843 52.4597C182.621 47.5958 180.893 41.8962 180.87 36.0625L180.87 36.0348V34.7826C180.87 29.2477 178.671 23.9394 174.757 20.0256C170.843 16.1118 165.535 13.913 160 13.913ZM135.405 10.1876C141.928 3.66459 150.775 0 160 0C169.225 0 178.072 3.66459 184.595 10.1876C191.118 16.7106 194.783 25.5577 194.783 34.7826V36.0192C194.797 39.1353 195.722 42.1794 197.443 44.7776C199.165 47.3792 201.611 49.4202 204.48 50.6495L204.548 50.6788C207.473 51.9697 210.717 52.3551 213.863 51.7847C216.997 51.2164 219.89 49.7257 222.171 47.5037L222.974 46.7011C226.204 43.4672 230.04 40.9016 234.263 39.1512C238.485 37.4008 243.012 36.4998 247.583 36.4998C252.154 36.4998 256.68 37.4008 260.902 39.1512C265.122 40.9006 268.957 43.4643 272.186 46.6957C275.42 49.926 277.985 53.7621 279.736 57.9847C281.486 62.2072 282.387 66.7334 282.387 71.3043C282.387 75.8753 281.486 80.4015 279.736 84.624C277.985 88.8466 275.42 92.6827 272.186 95.913L271.383 96.716C269.161 98.9974 267.67 101.89 267.102 105.024C266.532 108.17 266.917 111.414 268.208 114.339C268.533 115.077 268.728 115.864 268.783 116.666C270.032 119.04 271.861 121.069 274.109 122.557C276.708 124.278 279.752 125.203 282.868 125.217H285.217C294.442 125.217 303.289 128.882 309.812 135.405C316.335 141.928 320 150.775 320 160C320 169.225 316.335 178.072 309.812 184.595C303.289 191.118 294.442 194.783 285.217 194.783H283.981C280.865 194.797 277.821 195.722 275.222 197.443C272.621 199.165 270.58 201.611 269.351 204.48L269.321 204.548C268.03 207.473 267.645 210.717 268.215 213.863C268.784 216.997 270.274 219.89 272.496 222.171L273.299 222.974C276.533 226.204 279.098 230.04 280.849 234.263C282.599 238.485 283.5 243.012 283.5 247.583C283.5 252.154 282.599 256.68 280.849 260.902C279.099 265.124 276.534 268.959 273.302 272.189C270.072 275.421 266.237 277.986 262.015 279.736C257.793 281.486 253.267 282.387 248.696 282.387C244.125 282.387 239.599 281.486 235.376 279.736C231.153 277.985 227.317 275.42 224.087 272.186L223.284 271.383C221.003 269.161 218.11 267.67 214.976 267.102C211.83 266.532 208.586 266.917 205.661 268.208L205.593 268.238C202.725 269.467 200.278 271.508 198.556 274.109C196.835 276.708 195.91 279.752 195.896 282.868V285.217C195.896 294.442 192.231 303.289 185.708 309.812C179.185 316.335 170.338 320 161.113 320C151.888 320 143.041 316.335 136.518 309.812C129.995 303.289 126.33 294.442 126.33 285.217V284.054C126.241 280.871 125.204 277.785 123.351 275.194C121.483 272.583 118.873 270.594 115.86 269.485C115.722 269.435 115.586 269.38 115.452 269.321C112.527 268.03 109.283 267.645 106.137 268.215C103.003 268.784 100.11 270.274 97.829 272.496L97.0261 273.299C93.7957 276.533 89.9596 279.098 85.737 280.849C81.5145 282.599 76.9884 283.5 72.4174 283.5C67.8464 283.5 63.3203 282.599 59.0977 280.849C54.8752 279.098 51.0391 276.533 47.8087 273.299C44.5773 270.07 42.0137 266.235 40.2643 262.015C38.5139 257.793 37.6129 253.267 37.6129 248.696C37.6129 244.125 38.5139 239.599 40.2643 235.376C42.0147 231.153 44.5802 227.317 47.8142 224.087L48.6167 223.284C50.8387 221.003 52.3295 218.11 52.8978 214.976C53.4681 211.83 53.0831 208.586 51.7923 205.661L51.7621 205.593C50.5329 202.725 48.4923 200.278 45.8907 198.556C43.2924 196.835 40.2483 195.91 37.1322 195.896H34.7826C25.5577 195.896 16.7106 192.231 10.1876 185.708C3.66459 179.185 0 170.338 0 161.113C0 151.888 3.66459 143.041 10.1876 136.518C16.7106 129.995 25.5577 126.33 34.7826 126.33H35.9459C39.1295 126.241 42.2146 125.204 44.8059 123.351C47.4173 121.483 49.4063 118.873 50.5145 115.86C50.5651 115.722 50.62 115.586 50.6792 115.452C51.97 112.527 52.3551 109.283 51.7847 106.137C51.2164 103.003 49.7256 100.11 47.5036 97.8285L46.7011 97.0261C43.4672 93.7957 40.9016 89.9596 39.1512 85.737C37.4008 81.5145 36.4998 76.9884 36.4998 72.4174C36.4998 67.8464 37.4008 63.3203 39.1512 59.0977C40.9011 54.8764 43.4657 51.0412 46.6984 47.8114C49.9282 44.5788 53.7633 42.0142 57.9847 40.2643C62.2072 38.5139 66.7334 37.6129 71.3043 37.6129C75.8753 37.6129 80.4015 38.5139 84.624 40.2643C88.8466 42.0147 92.6827 44.5802 95.913 47.8142L96.7155 48.6166C98.997 50.8387 101.89 52.3295 105.024 52.8978C108.17 53.4681 111.414 53.0831 114.339 51.7923C115.077 51.4667 115.864 51.2723 116.666 51.2167C119.04 49.9679 121.069 48.1385 122.557 45.8907C124.278 43.2924 125.203 40.2483 125.217 37.1322V34.7826C125.217 25.5577 128.882 16.7106 135.405 10.1876ZM111.304 160C111.304 133.106 133.106 111.304 160 111.304C186.894 111.304 208.696 133.106 208.696 160C208.696 186.894 186.894 208.696 160 208.696C133.106 208.696 111.304 186.894 111.304 160ZM160 125.217C140.79 125.217 125.217 140.79 125.217 160C125.217 179.21 140.79 194.783 160 194.783C179.21 194.783 194.783 179.21 194.783 160C194.783 140.79 179.21 125.217 160 125.217Z" fill="#212121" fill-opacity="0.05"/></svg>