<svg width="72" height="72" fill="none" xmlns="http://www.w3.org/2000/svg"><g clip-path="url(#clip0_1983_417)"><g clip-path="url(#clip1_1983_417)"><g clip-path="url(#clip2_1983_417)"><path d="M64.4954 7.52288C57.7027 0.756282 47.9355 0 36 0C24.0494 0 14.2675 0.765 7.47759 7.54988C0.68864 14.3319 0 24.0981 0 36.035C0 47.9739 0.688641 57.743 7.48041 64.5275C14.2699 71.3133 24.0507 72.0001 36 72.0001C47.9495 72.0001 57.7285 71.3133 64.518 64.5275C71.3094 57.7417 72 47.9739 72 36.035C72 24.0827 71.3019 14.3061 64.4954 7.52288Z" fill="#FF6900"/><path d="M56.8904 22.3038C57.1378 22.3038 57.3437 22.5031 57.3437 22.7483V49.3808C57.3437 49.6219 57.1378 49.8222 56.8904 49.8222H51.0551C50.8046 49.8222 50.6011 49.6219 50.6011 49.3808V22.7483C50.6011 22.5032 50.8045 22.3038 51.0551 22.3038H56.8904ZM31.567 22.3038C35.9689 22.3038 40.5716 22.5056 42.8417 24.7773C45.0736 27.0128 45.3153 31.4639 45.3246 35.7863V49.3806C45.3246 49.6218 45.1212 49.822 44.8719 49.822H39.0374C38.7875 49.822 38.5833 49.6218 38.5833 49.3806V35.5524C38.5771 33.1383 38.4383 30.6572 37.1934 29.4082C36.1218 28.3337 34.1223 28.0876 32.043 28.0366H21.4666C21.2185 28.0366 21.0154 28.2361 21.0154 28.4776V49.3808C21.0154 49.6219 20.8098 49.8222 20.5602 49.8222H14.7221C14.4726 49.8222 14.2719 49.6219 14.2719 49.3808V22.7483C14.2719 22.5032 14.4724 22.3038 14.7221 22.3038H31.567ZM32.8729 32.9108C33.1213 32.9108 33.3231 33.1095 33.3231 33.3527V49.3808C33.3231 49.6219 33.1211 49.8222 32.8729 49.8222H26.7439C26.4919 49.8222 26.29 49.6219 26.29 49.3808V33.3527C26.29 33.1095 26.4919 32.9108 26.7439 32.9108H32.8729Z" fill="white"/></g></g></g><defs><clipPath id="clip0_1983_417"><rect width="72" height="72" fill="white"/></clipPath><clipPath id="clip1_1983_417"><rect width="72" height="72" fill="white"/></clipPath><clipPath id="clip2_1983_417"><rect width="72" height="72" fill="white"/></clipPath></defs></svg>