<?xml version="1.0" encoding="UTF-8"?><!DOCTYPE svg PUBLIC "-//W3C//DTD SVG 1.1//EN" "http://www.w3.org/Graphics/SVG/1.1/DTD/svg11.dtd"><svg xmlns="http://www.w3.org/2000/svg" xml:space="preserve" width="77.611mm" height="25.3998mm" version="1.1" style="shape-rendering:geometricPrecision;text-rendering:geometricPrecision;image-rendering:optimizeQuality;fill-rule:evenodd;clip-rule:evenodd" viewBox="0 0 7761.1 2539.98" xmlns:xlink="http://www.w3.org/1999/xlink" xmlns:xodm="http://www.corel.com/coreldraw/odm/2003"><defs><style type="text/css"><![CDATA[
    .fil0 {fill:#0A0809}
    .fil4 {fill:#161515}
    .fil3 {fill:#191919}
    .fil2 {fill:#FEF100}
    .fil1 {fill:#FFF000}
   ]]></style></defs><g id="Слой_x0020_1"><metadata id="CorelCorpID_0Corel-Layer"/><g id="_2637541795936"><path class="fil0" d="M1366.56 1693.32c1.94,-23.42 11.25,-25.75 26.41,-40.42 12.78,-12.38 25.05,-23.39 35.69,-36.73l461.03 -502.6c11.84,-13.55 1.49,-10.58 22.74,-16.26 0,56.89 5.67,100.14 5.46,150.52 -0.21,47.03 10.08,103.19 11.25,150.27 1.15,46.01 11,105.02 11.29,150.25 0.37,56.12 10.99,96.38 10.99,150.54l-222.98 0.19c-29.03,-0.87 -37.98,-6.03 -72.1,-5.89 -42.63,0.18 -282.97,-7.55 -289.78,0.13zm-1014.7 -1014.54c-14.34,-63.34 1.5,-347.06 2.37,-433.33 43.33,-11.71 1109.42,16.39 1251.83,18.51 126.09,1.87 283.95,-1.65 405.97,9.81 10.7,83.28 -1.33,247.13 -2.29,338.95 -0.94,89.4 -0.98,68.18 -45.65,118.49 -128.92,145.19 -269.35,288.35 -400.29,435.19 -106.66,119.61 -214.7,229.5 -320.44,348.03 -53.31,59.76 -104.61,115.66 -160.58,173.62 -22.6,23.41 -149.84,156.58 -155.29,175.31l1093.08 22.54c4.83,25.06 -2.63,419.01 -7.87,436.55 -47.25,9.63 -1743.24,-31.12 -1797.06,-31.64 -5.04,-105.96 2.91,-228.15 4.89,-335.69 1.66,-90.56 -11.92,-76.17 37.55,-128.15l397.8 -432.11c178.37,-191.74 379.61,-418.63 560.21,-609.54 17.92,-18.94 69.96,-62.85 72.11,-87.68l-936.34 -18.86zm2945.04 -167.9c91.07,-4.68 539.9,-49.29 585.35,-41.78 18.77,216.35 27.56,432.07 47.64,644.08 16.08,169.82 48.51,480.69 12.1,637.88 -85.54,369.23 -395.23,539.54 -815.99,562.01 -213.98,11.43 -448.43,13.69 -613.64,-72.2 -249.95,-129.94 -364.86,-367.33 -379.02,-653.32 -5.44,-109.82 -16.79,-216.48 -23.1,-323.04 -3.86,-65.37 -48.75,-614.65 -43.54,-657.37 18.8,-7.6 535.34,-46.55 581.55,-45.14 26.17,272.06 35.81,548.18 60.31,820.1 11.09,123.02 5.92,289.28 56.07,383.49 108.22,203.28 488.53,181.01 584.11,-23.13 48.13,-102.8 16.81,-282.42 9.07,-405.16 -7.13,-113.1 -62.64,-740.78 -60.91,-826.42zm2399.68 642.63c-20.31,20.18 -75.08,171.87 -285.79,245.87 -25.46,8.94 -119.96,30.1 -132.34,37.71 29.96,19.32 79.88,30.42 117.75,53.65 153.23,93.98 306.52,442.26 399.44,619.51 17.11,32.64 49.87,87.34 55.97,114.58 -59.04,3.13 -636.04,-12.47 -651.45,-19.26 -27.44,-13.68 -289.82,-543.24 -358.86,-633.61 -39.68,-51.95 -134.95,-114.24 -239.06,-88.72l-19.31 702.98c-36.78,7.12 -505.9,-9.7 -583.26,-12.41 -11.24,-31.49 17.67,-774.03 20.35,-876.03 3.66,-139.54 10.93,-290.19 13.71,-434.41l12.08 -438.13c41.32,-11 796.57,19.27 907.94,22.16 212.72,5.52 500.1,7.26 654.42,162.61 27.31,27.49 32.16,46.43 55.23,59.29l-5.77 -110.53c90.44,-8.53 195.9,-17.42 287.41,-22.31 72.02,-3.85 232.72,-25.66 294.05,-17.49 10.02,96.22 16.34,200.28 21.72,294.37 3.28,57.44 24.73,254.96 16.76,295.78 36,60.81 -2.31,503.13 89.02,636.04 115.88,168.62 403.98,142.58 518.64,24.86 70.18,-72.05 81.49,-160.13 70.76,-285.98l-47.73 -676.54c-3.41,-59.65 -25.91,-299.98 -20.82,-338.66 97.92,-9.93 195.54,-15.16 293.75,-21.26 71.62,-4.46 215.55,-26.87 284.3,-18.86 15.75,192.08 29.69,381.36 40.79,573.95 7.42,128.79 37.47,470.89 33.83,573.74 -6.52,184.44 -75.59,325.23 -176.41,438.04 -224.3,251 -621.7,273.71 -961.92,256.21 -189.12,-9.73 -334.97,-75.55 -436.91,-167.98 -118.99,-107.89 -167.39,-194.92 -216.44,-390.16 -35.72,-142.21 -28.11,-463.48 -51.85,-559.01zm1758.18 -902.89l-16.71 0c-28.67,-11.08 -388.41,23.33 -473.3,28.04 -60.23,3.35 -243.52,12.63 -284.25,22.12 0,70.45 7.56,122.42 10.98,183.98l21.63 273.59c3.47,31.38 2.52,67.19 5.57,94.69l12 188.53c1.12,23.47 3.53,18.38 5.23,39.33 1.31,16.16 -0.56,33.68 0.28,49.86l33.42 467.85c-4.65,62.93 -61.23,74.7 -118.41,82.15 -64.59,8.41 -122.04,-7.53 -134.65,-57.43 -4.74,-18.75 -8.4,-70.27 -8.69,-91.57l-18.28 -276.94c-11.83,-89.44 -4.94,-186.94 -18.39,-276.83l-29.98 -471.33c-0.27,-24.38 -11.39,-172.04 -16.93,-183.6 -8.97,-8.48 -79.83,2.57 -90.65,4.05l-209.31 13.49c-104.12,11.21 -396.22,20.77 -461.92,33.82 -15.2,3.03 -23.79,11.61 -34.66,21.05 -141.7,-94.88 -399.13,-129.37 -590.51,-128.04l-340 -16.49c-38.64,-3.2 -83.1,1.85 -122.28,-0.27 -35.67,-1.92 -67.06,-5.74 -111.39,-5.58l-346.15 -15.91c-39.66,-4.45 -80.93,3.26 -120.23,-2.35 -65.08,-9.3 -62.77,-16.55 -62.77,51.67 -24.73,0.55 -77.02,7.64 -101.08,10.33 -18.21,2.03 -36.74,0.13 -55.06,0.63 -81.75,2.25 -178.83,20.58 -261.48,22.61 -97.28,2.37 -325.24,25.1 -423.48,33.27 0,35.52 5.17,50.44 5.42,89.27l27.99 367.5c3.15,65.2 3.66,121.29 12.68,187.85l15.29 179.66c3.72,156.71 28.24,308.61 28.06,468.32 -0.08,68.25 -55.93,83.49 -117.09,83.43 -57.69,-0.05 -121.99,6.96 -138.1,-57.25 -11.68,-46.58 -10.03,-134.8 -16.53,-184l-30.9 -459.27c-16.64,-124.38 -11.53,-248.2 -29.57,-371.48 -9.35,-63.91 -3.41,-128.62 -11.77,-188.77 -4.7,-33.88 -7.28,-55.97 -7.28,-92.98l-490.2 33.39c-53.01,0.73 -111.45,11.17 -167.08,11.17 32.14,-60.73 44.92,-57.24 44.58,-133.66 -0.27,-61.26 -0.02,-122.57 -0.02,-183.84l-254.7 -7.09c-73.78,-10.11 -174.28,-4.34 -257.77,-4.03 -48.56,0.18 -73.96,-5.78 -122.51,-5.6l-389.93 -5.56c-211.32,0.01 -426.67,-11.62 -640.58,-11.13 -101.42,0.23 -304.75,-22.43 -384.33,-5.58 0,35.2 0.65,70.94 0.22,106.06l-5.72 205.95c0.24,41.52 -5.95,58.59 -5.72,100.11 0.84,146.24 -5.49,273.47 -5.49,417.84 66.24,15.43 265.16,5.97 350.96,5.53l172.63 5.61c61.28,0 122.55,0 183.82,0 -5.84,16.14 -19.98,28.51 -31.96,40.45 -61.29,61 -121.32,137.47 -180.99,197.78l-292.29 314.86c-15.14,18.11 -19.35,24.6 -36.45,41.54l-144.92 155.87c-16.34,16.26 -20.74,26.11 -36.01,41.97 -53.81,55.87 -57.56,69.57 -86.62,141.75 -32.38,80.45 -20.72,119.09 -20.72,207.66l-5.75 150.22c-2.99,100.06 0.18,205.82 0.18,306.54 21.91,0 45.33,-0.83 67.03,-0.18 28.04,0.83 30.84,5.6 60.87,5.97 46.09,0.57 93.78,-1.78 139.65,-0.4l133.5 5.75c46.44,0 92.91,0.19 139.33,-0.08 46.76,-0.26 81.36,5.66 133.61,5.65 46.42,-0.01 92.85,0.1 139.27,-0.01 52.08,-0.12 81.58,5.7 133.67,5.59l206.32 -0.23c30.94,0.38 35.46,5.63 66.4,6.01 43.63,0.54 96.93,-3.43 139.18,0.07 83.6,6.92 181.06,5.33 273.23,5.28 52.75,-0.03 84.66,5.86 133.65,5.61l412.23 5.53c0,-48.51 5.86,-76.9 5.54,-128.15 -0.31,-48.89 5.6,-80.95 5.6,-133.65 37,24.78 75.29,63.63 152.65,114.72 57.06,37.68 116.45,63.14 186.38,86.56 134.23,44.95 313.45,51.86 496.72,49.6l245.22 -22.15c73.38,-10.18 153.92,-30.11 223.65,-49.28 93.32,-25.65 202.86,-71.51 273.51,-133.12l76.21 -63.04c0,162.1 -28.67,129.06 161.58,128.08 40.8,-0.21 58.06,5.74 94.46,5.8l490.44 -0.27c40.34,-0.23 55.6,5.82 94.5,5.78 12.74,-0.01 40.08,1.57 50.82,0.43 22.64,-2.39 21.4,-4.24 22.42,-27.71 1.35,-30.98 -0.71,-69.02 -0.71,-100.97 0,-133.54 5.57,-253.13 5.57,-389.91 15.08,11.04 10.76,11.37 20.64,29.49 7.54,13.83 11.5,18.4 18.43,31.71 46.35,89.12 222.13,422.72 256.15,473.54l195.18 -0.23c30.03,0.37 32.82,5.14 60.87,5.98l195.33 -0.38c30.61,0.05 35.83,4.43 61.05,5.79 40.96,2.21 87.48,-3.07 127.85,0.27 98.12,8.12 218.96,0.9 318.28,10.75 31.23,3.09 43.68,5.72 49.65,-16.61 38.43,0.85 159.82,56.88 323.1,55.67 47,-0.35 73.25,5.72 122.5,5.6 122.8,-0.27 240.47,-6.6 356.22,-22.57l107.51 -20.6c19.23,-4.59 31.93,-5.54 50.7,-10.57l142.07 -47.32c159.45,-63.94 285.21,-173.98 386.7,-309.57l70.24 -119.15c27.12,-60.11 48.38,-125.96 65.01,-191.21 8.98,-35.26 13.02,-76.97 17.47,-110.64 19.47,-147.29 -8.76,-223.19 -9.61,-354.67 -0.6,-92.82 -14.4,-199.39 -21.84,-290.09 -1.79,-21.83 1.27,-43.98 -1.1,-65.74l-54.89 -708.22c-54.93,0 -148.33,0.82 -189.39,16.68z"/><path class="fil1" d="M4623.01 794.32c42.29,-6.73 297.19,4.02 344.57,11.74 247.95,40.39 197.07,236.52 123.58,294.96 -86.76,68.99 -365.79,56.13 -478.57,45.41l10.42 -352.11zm1073.57 359.19c-10.8,-31.15 10.36,-23.65 42.32,-23.05 24.21,0.45 48.43,0.28 72.66,0.28l440.04 0c19.22,2.04 6.07,11.15 22.31,13.94l3.66 -35.56c7.97,-40.82 -13.48,-238.34 -16.76,-295.78 -5.38,-94.09 -11.7,-198.15 -21.72,-294.37 -61.33,-8.17 -222.03,13.64 -294.05,17.49 -91.51,4.89 -196.97,13.78 -287.41,22.31l5.77 110.53c-23.07,-12.86 -27.92,-31.8 -55.23,-59.29 -154.32,-155.35 -441.7,-157.09 -654.42,-162.61 -111.37,-2.89 -866.62,-33.16 -907.94,-22.16l-12.08 438.13c-2.78,144.22 -10.05,294.87 -13.71,434.41 -2.68,102 -31.59,844.54 -20.35,876.03 77.36,2.71 546.48,19.53 583.26,12.41l19.31 -702.98c104.11,-25.52 199.38,36.77 239.06,88.72 69.04,90.37 331.42,619.93 358.86,633.61 15.41,6.79 592.41,22.39 651.45,19.26 -6.1,-27.24 -38.86,-81.94 -55.97,-114.58 -92.92,-177.25 -246.21,-525.53 -399.44,-619.51 -37.87,-23.23 -87.79,-34.33 -117.75,-53.65 12.38,-7.61 106.88,-28.77 132.34,-37.71 210.71,-74 265.48,-225.69 285.79,-245.87z"/><path class="fil2" d="M351.86 678.78l936.34 18.86c-2.15,24.83 -54.19,68.74 -72.11,87.68 -180.6,190.91 -381.84,417.8 -560.21,609.54l-397.8 432.11c-49.47,51.98 -35.89,37.59 -37.55,128.15 -1.98,107.54 -9.93,229.73 -4.89,335.69 53.82,0.52 1749.81,41.27 1797.06,31.64 5.24,-17.54 12.7,-411.49 7.87,-436.55l-1093.08 -22.54c5.45,-18.73 132.69,-151.9 155.29,-175.31 55.97,-57.96 107.27,-113.86 160.58,-173.62 105.74,-118.53 213.78,-228.42 320.44,-348.03 130.94,-146.84 271.37,-290 400.29,-435.19 44.67,-50.31 44.71,-29.09 45.65,-118.49 0.96,-91.82 12.99,-255.67 2.29,-338.95 -122.02,-11.46 -279.88,-7.94 -405.97,-9.81 -142.41,-2.12 -1208.5,-30.22 -1251.83,-18.51 -0.87,86.27 -16.71,369.99 -2.37,433.33z"/><path class="fil2" d="M3296.9 510.88c-1.73,85.64 53.78,713.32 60.91,826.42 7.74,122.74 39.06,302.36 -9.07,405.16 -95.58,204.14 -475.89,226.41 -584.11,23.13 -50.15,-94.21 -44.98,-260.47 -56.07,-383.49 -24.5,-271.92 -34.14,-548.04 -60.31,-820.1 -46.21,-1.41 -562.75,37.54 -581.55,45.14 -5.21,42.72 39.68,592 43.54,657.37 6.31,106.56 17.66,213.22 23.1,323.04 14.16,285.99 129.07,523.38 379.02,653.32 165.21,85.89 399.66,83.63 613.64,72.2 420.76,-22.47 730.45,-192.78 815.99,-562.01 36.41,-157.19 3.98,-468.06 -12.1,-637.88 -20.08,-212.01 -28.87,-427.73 -47.64,-644.08 -45.45,-7.51 -494.28,37.1 -585.35,41.78z"/><path class="fil2" d="M6277.57 1109.12l-3.66 35.56c-16.24,-2.79 -3.09,-11.9 -22.31,-13.94l-440.04 0c-24.23,0 -48.45,0.17 -72.66,-0.28 -31.96,-0.6 -53.12,-8.1 -42.32,23.05 23.74,95.53 16.13,416.8 51.85,559.01 49.05,195.24 97.45,282.27 216.44,390.16 101.94,92.43 247.79,158.25 436.91,167.98 340.22,17.5 737.62,-5.21 961.92,-256.21 100.82,-112.81 169.89,-253.6 176.41,-438.04 3.64,-102.85 -26.41,-444.95 -33.83,-573.74 -11.1,-192.59 -25.04,-381.87 -40.79,-573.95 -68.75,-8.01 -212.68,14.4 -284.3,18.86 -98.21,6.1 -195.83,11.33 -293.75,21.26 -5.09,38.68 17.41,279.01 20.82,338.66l47.73 676.54c10.73,125.85 -0.58,213.93 -70.76,285.98 -114.66,117.72 -402.76,143.76 -518.64,-24.86 -91.33,-132.91 -53.02,-575.23 -89.02,-636.04z"/><path class="fil0" d="M4612.59 1146.43c112.78,10.72 391.81,23.58 478.57,-45.41 73.49,-58.44 124.37,-254.57 -123.58,-294.96 -47.38,-7.72 -302.28,-18.47 -344.57,-11.74l-10.42 352.11z"/><path class="fil3" d="M7438.05 250.62l16.71 0c18.44,-60.41 5.22,-187.9 0,-250.63l-33.42 0c-12.47,23.57 -28.61,103.97 -38.25,140 -5.74,21.48 -6.16,30.82 -17.45,43.82l-50.13 -178.25 -44.57 0c0,39.04 -3.32,95.99 0.82,132.87 11.49,102.39 -11.46,105.67 32.6,106.65l8.01 -147.26c2.19,6.53 4.7,15.08 6.65,21.2 5.31,16.57 8.28,29.91 11.99,43.71 12.17,45.3 15.02,69.22 34.63,82.35 28.7,-7.67 33.66,-62.27 47.64,-119.46 3.7,-15.13 5.24,-34.42 13.63,-47.65 0,44.29 1.62,141.47 11.14,172.65z"/><path class="fil4" d="M7098.27 22.27l0 16.71 61.27 0 5.57 206.1c48.29,0 27.85,-5.88 27.85,-33.42l0 -172.68c43.81,0 61.27,6.03 61.27,-16.71 0,-29.06 -58.97,-16.71 -139.25,-16.71 -12.84,0 -16.71,3.88 -16.71,16.71z"/></g></g></svg>