<svg xmlns="http://www.w3.org/2000/svg" width="16" height="16" viewBox="0 0 16 16">
	<path d="M4.9,4.3H3.8c-0.4,0-0.6,0.1-0.6,0.4v0.4c0,0.4,0.2,0.4,0.6,0.4h0.3c0.2,0,0.2,0.1,0.2,0.3V11c0,0.4,0.1,0.6,0.4,0.6h0.4
		c0.4,0,0.4-0.2,0.4-0.6V4.8C5.6,4.4,5.3,4.3,4.9,4.3z"/>
	<path d="M12.5,0.7C12,0.2,11.4,0,10.7,0H5.3C4.6,0,4,0.2,3.5,0.7L0.7,3.5C0.2,4,0,4.6,0,5.2v5.5c0,0.8,0.3,1.3,0.8,1.8l2.7,2.7
		C4,15.8,4.6,16,5.3,16h5.3c0.7,0,1.3-0.2,1.9-0.8l2.7-2.7c0.5-0.5,0.8-1.1,0.8-1.8V5.2c0-0.7-0.2-1.2-0.7-1.7L12.5,0.7z M14.9,7.1
		c0,0.2-0.1,0.3-0.3,0.3h-0.8V6.8c0-0.4-0.1-0.6-0.4-0.6H13c-0.4,0-0.4,0.2-0.4,0.6v0.6H12c-0.4,0-0.6,0.1-0.6,0.4v0.4
		c0,0.4,0.2,0.4,0.6,0.4h0.6v0.6c0,0.4,0.1,0.6,0.4,0.6h0.4c0.4,0,0.4-0.2,0.4-0.6V8.6h0.8c0.2,0,0.2,0.1,0.3,0.2v1.8
		c0,0.4-0.1,0.8-0.4,1.1l-2.7,2.7c-0.3,0.3-0.7,0.5-1.1,0.5H5.3c-0.4,0-0.8-0.1-1.1-0.5l-2.7-2.7c-0.3-0.3-0.5-0.6-0.4-1.1V5.4
		c0-0.4,0.1-0.8,0.5-1.2l2.7-2.8C4.6,1.1,4.9,1,5.3,1h5.4c0.4,0,0.8,0.1,1,0.4l2.7,2.8c0.3,0.3,0.5,0.7,0.5,1.2
		C14.9,5.4,14.9,7.1,14.9,7.1z"/>
	<path d="M10.2,7.9c0.7-0.5,0.7-1,0.7-1.4V6.1c-0.1-1.4-0.5-1.9-2.1-1.9s-2,0.5-2.1,1.9v0.4c0,0.4,0,0.9,0.7,1.4
		c-0.8,0.3-0.9,1-0.9,1.9c0,1.3,0.5,2,2.3,2s2.3-0.7,2.3-2C11,8.9,11,8.2,10.2,7.9z M8.8,5.3c0.7,0,0.9,0.2,0.9,1.1
		c0,0.8-0.3,1.1-0.9,1.1c-0.7,0-0.9-0.3-0.9-1.1C7.8,5.6,8.1,5.3,8.8,5.3z M8.8,10.7c-0.8,0-1.1-0.3-1.1-1.1S8,8.5,8.8,8.5
		s1.1,0.4,1.1,1.1C9.8,10.4,9.5,10.7,8.8,10.7z"/>
</svg>
