<svg xmlns="http://www.w3.org/2000/svg" width="16" height="16" viewBox="0 0 24 24">
	<path d="M7.8,7H6.2C5.7,7,5.4,7.1,5.4,7.5V8c0,0.5,0.3,0.6,0.9,0.6h0.3c0.2,0,0.3,0.1,0.3,0.5v7.2c0,0.6,0.1,0.9,0.6,0.9h0.6
		c0.5,0,0.6-0.3,0.6-0.9V7.5C8.6,7.1,8.3,7,7.8,7z"/>
	<path d="M18.1,2c-0.6-0.6-1.5-1-2.4-1H8.3c-1,0-1.8,0.3-2.4,1l-4,3.9C1.3,6.5,1,7.3,1,8.2v7.5c0,1,0.3,1.8,1,2.5l3.7,3.7
		C6.5,22.7,7.3,23,8.4,23h7.3c1,0,1.8-0.3,2.6-1.1l3.7-3.7c0.7-0.7,1-1.5,1-2.5V8.2c0-0.9-0.3-1.7-0.9-2.3L18.1,2z M21.6,10.8
		c0,0.2-0.1,0.4-0.3,0.4h-1.1v-0.8c0-0.6-0.1-0.9-0.6-0.9H19c-0.5,0-0.6,0.3-0.6,0.9v0.8h-0.8c-0.6,0-0.9,0.1-0.9,0.6v0.5
		c0,0.5,0.3,0.6,0.9,0.6h0.8v0.8c0,0.6,0.1,0.9,0.6,0.9h0.5c0.5,0,0.6-0.3,0.6-0.9v-0.8h1.1c0.2,0,0.3,0.1,0.3,0.3v2.5
		c0,0.6-0.2,1.1-0.6,1.5l-3.7,3.7c-0.4,0.4-0.9,0.6-1.5,0.6H8.3c-0.6,0-1.1-0.2-1.5-0.6l-3.7-3.7c-0.4-0.4-0.6-0.9-0.6-1.5V8.4
		c0-0.6,0.2-1.2,0.6-1.6L6.9,3c0.4-0.4,0.9-0.5,1.4-0.5h7.4c0.5,0,1,0.1,1.4,0.5l3.8,3.8c0.4,0.4,0.6,1,0.6,1.6v2.4H21.6z"/>
	<path d="M15,11.9c0.9-0.7,0.9-1.4,0.9-1.9V9.4c-0.1-1.9-0.7-2.6-2.9-2.6s-2.8,0.7-2.9,2.6V10c0,0.6,0,1.3,0.9,1.9
		c-1.1,0.4-1.2,1.4-1.2,2.6c0,1.9,0.6,2.8,3.2,2.8c2.5,0,3.2-1,3.2-2.8C16.2,13.3,16.1,12.3,15,11.9z M13,8.3c0.9,0,1.3,0.3,1.3,1.5
		c0,1.1-0.4,1.5-1.3,1.5c-0.9,0-1.3-0.4-1.3-1.5C11.8,8.6,12.1,8.3,13,8.3z M13,15.8c-1.1,0-1.4-0.4-1.4-1.5c0-1,0.4-1.5,1.4-1.5
		c1.1,0,1.4,0.5,1.4,1.5C14.5,15.3,14.1,15.8,13,15.8z"/>
</svg>
