<svg xmlns="http://www.w3.org/2000/svg" width="24" height="24" viewBox="0 0 24 24">
  <path d="M21.1,2l-1,0.4c-0.9,0.3-1.7,0.8-2.3,1.5l-2.4,2.4L4,4.1C3.6,4,3.3,4.1,3,4.4L2.4,4.9C2.4,5,2.4,5.2,2.5,5.3l9.3,4.7
	l-4.4,4.9l-4.4-1.2c-0.1,0-0.3,0-0.4,0.1l-0.5,0.5C2,14.3,2,14.5,2.1,14.6l4,2.4L6,17.4c-0.1,0.4,0.2,0.7,0.6,0.6l0.5-0.1l2.4,4
	c0.1,0.1,0.2,0.1,0.3,0l0.5-0.5c0.1-0.1,0.1-0.3,0.1-0.4l-1.2-4.5l4.9-4.4l4.7,9.3c0.1,0.1,0.2,0.1,0.3,0l0.6-0.6
	c0.3-0.3,0.4-0.6,0.3-0.9L17.7,8.6l2.4-2.4c0.7-0.7,1.2-1.5,1.5-2.3l0.4-1C22.2,2.4,21.6,1.8,21.1,2z"/>
</svg>
