<svg xmlns="http://www.w3.org/2000/svg" width="24" height="24" viewBox="0 0 24 24">
  <path fill-rule="evenodd" d="M2.5 4A1.5 1.5 0 0 1 4 2.5h16A1.5 1.5 0 0 1 21.5 4v5a1.5 1.5 0 0 1-1.5 1.5H4A1.5 1.5 0 0 1 2.5 9V4ZM4 3.5a.5.5 0 0 0-.5.5v5a.5.5 0 0 0 .5.5h16a.5.5 0 0 0 .5-.5V4a.5.5 0 0 0-.5-.5H4ZM2.5 15A1.5 1.5 0 0 1 4 13.5h16a1.5 1.5 0 0 1 1.5 1.5v5a1.5 1.5 0 0 1-1.5 1.5H4A1.5 1.5 0 0 1 2.5 20v-5Zm1.5-.5a.5.5 0 0 0-.5.5v5a.5.5 0 0 0 .5.5h16a.5.5 0 0 0 .5-.5v-5a.5.5 0 0 0-.5-.5H4Z" clip-rule="evenodd"/>
</svg>
