<svg xmlns="http://www.w3.org/2000/svg" width="16" height="16" viewBox="0 0 16 16">
  <path fill-rule="evenodd" d="M1.5 2.667c0-.645.522-1.167 1.167-1.167h10.666c.645 0 1.167.522 1.167 1.167V6c0 .644-.522 1.167-1.167 1.167H2.667A1.167 1.167 0 0 1 1.5 6V2.667ZM2.667 2.5a.167.167 0 0 0-.167.167V6c0 .092.075.167.167.167h10.666A.167.167 0 0 0 13.5 6V2.667a.167.167 0 0 0-.167-.167H2.667ZM1.5 10c0-.644.522-1.167 1.167-1.167h10.666c.645 0 1.167.523 1.167 1.167v3.333c0 .645-.522 1.167-1.167 1.167H2.667A1.167 1.167 0 0 1 1.5 13.333V10Zm1.167-.167A.167.167 0 0 0 2.5 10v3.333c0 .092.075.167.167.167h10.666a.167.167 0 0 0 .167-.167V10a.167.167 0 0 0-.167-.167H2.667Z" clip-rule="evenodd"/>
</svg>
