<svg xmlns="http://www.w3.org/2000/svg" width="16" height="16" viewBox="0 0 16 16">
<path d="M8,15.5C8,15.5,8,15.5,8,15.5L8,15.5C8,15.5,8,15.5,8,15.5C8,15.5,8,15.5,8,15.5L8,15.5c-0.1,0-0.1,0-0.2,0
	c-0.1,0-0.1-0.1-0.2-0.1l0,0l0,0c0,0,0,0,0,0l0,0c0,0,0,0,0,0l-7-7c-0.2-0.2-0.2-0.5,0-0.7s0.5-0.2,0.7,0l6.1,6.1V1
	c0-0.3,0.2-0.5,0.5-0.5S8.5,0.7,8.5,1v12.8l6.1-6.1c0.2-0.2,0.5-0.2,0.7,0s0.2,0.5,0,0.7l-7,7c0,0,0,0,0,0l0,0c0,0,0,0,0,0
	c0,0,0,0,0,0l0,0c0,0-0.1,0.1-0.2,0.1C8.1,15.5,8.1,15.5,8,15.5L8,15.5C8,15.5,8,15.5,8,15.5C8,15.5,8,15.5,8,15.5L8,15.5
	C8,15.5,8,15.5,8,15.5z"/>
</svg>
