<svg xmlns="http://www.w3.org/2000/svg" width="16" height="16" viewBox="0 0 16 16">
<path d="M8,15.5c-0.1,0-0.3,0-0.4-0.1c-0.2-0.2-0.2-0.5,0-0.7l6.1-6.1H1C0.7,8.5,0.5,8.3,0.5,8S0.7,7.5,1,7.5h12.8
	L7.6,1.4c-0.2-0.2-0.2-0.5,0-0.7s0.5-0.2,0.7,0l7,7c0,0,0,0,0,0l0,0c0,0,0,0,0,0l0,0l0,0c0,0,0.1,0.1,0.1,0.2c0,0.1,0,0.1,0,0.2l0,0
	c0,0,0,0,0,0c0,0,0,0,0,0v0c0,0,0,0,0,0c0,0,0,0,0,0l0,0c0,0,0,0,0,0c0,0,0,0,0,0l0,0c0,0.1,0,0.1,0,0.2c0,0.1-0.1,0.1-0.1,0.2l0,0
	c0,0,0,0,0,0c0,0,0,0,0,0l0,0c0,0,0,0,0,0l-7,7C8.3,15.5,8.1,15.5,8,15.5z"/>
</svg>
