<svg xmlns="http://www.w3.org/2000/svg" width="16" height="16" viewBox="0 0 16 16">
<path d="M8,15.5c-0.1,0-0.3,0-0.4-0.1l-7-7c0,0,0,0,0,0l0,0h0c0,0,0,0,0,0l0,0c0,0-0.1-0.1-0.1-0.2s0-0.1,0-0.2l0,0
	c0,0,0,0,0,0c0,0,0,0,0,0l0,0c0,0,0,0,0,0c0,0,0,0,0,0v0c0,0,0,0,0,0c0,0,0,0,0,0l0,0c0-0.1,0-0.1,0-0.2c0-0.1,0.1-0.1,0.1-0.2l0,0
	c0,0,0,0,0,0l0,0c0,0,0,0,0,0l7-7c0.2-0.2,0.5-0.2,0.7,0s0.2,0.5,0,0.7L2.2,7.5H15c0.3,0,0.5,0.2,0.5,0.5S15.3,8.5,15,8.5H2.2
	l6.1,6.1c0.2,0.2,0.2,0.5,0,0.7C8.3,15.5,8.1,15.5,8,15.5z"/>
</svg>
