<svg xmlns="http://www.w3.org/2000/svg" width="24" height="24" viewBox="0 0 24 24">
  <path fill-rule="evenodd" d="M10.004 1.63C10.403.936 11.065.5 12 .5s1.597.437 1.996 1.13c.352.612.487 1.399.502 2.205a6.769 6.769 0 0 1 2.24 1.125c1.18.904 1.963 2.137 2.477 3.447 1.023 2.606 1.021 5.613.915 7.29-.028.44.317.803.716.803.913 0 1.654.74 1.654 1.654v.346a2 2 0 0 1-2 2h-5.035a3.501 3.501 0 0 1-6.93 0H3.5a2 2 0 0 1-2-2v-.346c0-.913.74-1.654 1.654-1.654.4 0 .744-.364.716-.802-.106-1.678-.108-4.685.915-7.291.515-1.31 1.297-2.543 2.477-3.447a6.768 6.768 0 0 1 2.24-1.125c.015-.806.15-1.593.502-2.206Zm.507 1.981A9.629 9.629 0 0 1 12 3.5a9.64 9.64 0 0 1 1.49.111c-.035-.617-.154-1.124-.36-1.483-.227-.393-.565-.628-1.13-.628s-.903.235-1.13.628c-.206.359-.325.866-.36 1.483ZM9.55 20.5a2.5 2.5 0 0 0 4.9 0h-4.9ZM5.716 8.772c-.941 2.398-.952 5.225-.848 6.863.062.974-.698 1.865-1.714 1.865a.654.654 0 0 0-.654.654v.346a1 1 0 0 0 1 1h17a1 1 0 0 0 1-1v-.346a.654.654 0 0 0-.654-.654c-1.016 0-1.776-.891-1.714-1.865.104-1.638.093-4.465-.848-6.863-.468-1.191-1.157-2.254-2.154-3.019C15.138 4.993 13.806 4.5 12 4.5s-3.138.493-4.13 1.253c-.997.765-1.686 1.828-2.154 3.02Z" clip-rule="evenodd"/>
</svg>
