<svg xmlns="http://www.w3.org/2000/svg" width="24" height="24" viewBox="0 0 24 24">
  <path fill-rule="evenodd" d="M2.5 4A1.5 1.5 0 0 1 4 2.5h5A1.5 1.5 0 0 1 10.5 4v5A1.5 1.5 0 0 1 9 10.5H4A1.5 1.5 0 0 1 2.5 9V4ZM4 3.5a.5.5 0 0 0-.5.5v5a.5.5 0 0 0 .5.5h5a.5.5 0 0 0 .5-.5V4a.5.5 0 0 0-.5-.5H4Zm9.5.5A1.5 1.5 0 0 1 15 2.5h5A1.5 1.5 0 0 1 21.5 4v5a1.5 1.5 0 0 1-1.5 1.5h-5A1.5 1.5 0 0 1 13.5 9V4Zm1.5-.5a.5.5 0 0 0-.5.5v5a.5.5 0 0 0 .5.5h5a.5.5 0 0 0 .5-.5V4a.5.5 0 0 0-.5-.5h-5ZM2.5 15A1.5 1.5 0 0 1 4 13.5h5a1.5 1.5 0 0 1 1.5 1.5v5A1.5 1.5 0 0 1 9 21.5H4A1.5 1.5 0 0 1 2.5 20v-5Zm1.5-.5a.5.5 0 0 0-.5.5v5a.5.5 0 0 0 .5.5h5a.5.5 0 0 0 .5-.5v-5a.5.5 0 0 0-.5-.5H4Zm9.5.5a1.5 1.5 0 0 1 1.5-1.5h5a1.5 1.5 0 0 1 1.5 1.5v5a1.5 1.5 0 0 1-1.5 1.5h-5a1.5 1.5 0 0 1-1.5-1.5v-5Zm1.5-.5a.5.5 0 0 0-.5.5v5a.5.5 0 0 0 .5.5h5a.5.5 0 0 0 .5-.5v-5a.5.5 0 0 0-.5-.5h-5Z" clip-rule="evenodd"/>
</svg>
