<svg xmlns="http://www.w3.org/2000/svg" width="24" height="24" viewBox="0 0 24 24">
  <path fill-rule="evenodd" d="M12 1.5C6.201 1.5 1.5 6.201 1.5 12S6.201 22.5 12 22.5 22.5 17.799 22.5 12 17.799 1.5 12 1.5ZM.5 12C.5 5.649 5.649.5 12 .5S23.5 5.649 23.5 12 18.351 23.5 12 23.5.5 18.351.5 12Zm14.25-4.763a5.5 5.5 0 0 0-8.063 6.185.5.5 0 1 1-.966.259 6.5 6.5 0 0 1 9.529-7.31.5.5 0 0 1-.5.866Zm2.917 2.729a.5.5 0 0 1 .612.353 6.5 6.5 0 0 1-9.529 7.31.5.5 0 0 1 .5-.866 5.5 5.5 0 0 0 8.063-6.185.5.5 0 0 1 .354-.612Z" clip-rule="evenodd"/>
</svg>
