<svg xmlns="http://www.w3.org/2000/svg" width="16" height="16" viewBox="0 0 16 16">
  <path fill-rule="evenodd" d="M5 .167a.5.5 0 0 1 .5.5v.966h4.867V.667a.5.5 0 0 1 1 0v.966h1.7c1.086 0 1.966.88 1.966 1.967v10.267c0 1.086-.88 1.966-1.966 1.966H2.8a1.967 1.967 0 0 1-1.967-1.966V3.6c0-1.086.88-1.967 1.967-1.967h1.7V.667a.5.5 0 0 1 .5-.5Zm-.5 2.466H2.8a.967.967 0 0 0-.967.967v2.433h12.2V3.6a.967.967 0 0 0-.966-.967h-1.7V3.6a.5.5 0 0 1-1 0v-.967H5.5V3.6a.5.5 0 1 1-1 0v-.967Zm9.533 4.4h-12.2v6.834c0 .533.433.966.967.966h10.267a.967.967 0 0 0 .966-.966V7.033Z" clip-rule="evenodd"/>
</svg>
