<svg xmlns="http://www.w3.org/2000/svg" width="24" height="24" viewBox="0 0 24 24">
<path d="M19.8,4.3H4.2C2.7,4.3,1.5,5.5,1.5,7v10c0,1.5,1.2,2.7,2.7,2.7h15.6c1.5,0,2.7-1.2,2.7-2.7V7C22.5,5.5,21.3,4.3,19.8,4.3z
	 M4.2,5.3h15.6c1,0,1.7,0.8,1.7,1.7v1.7c0,0,0,0-0.1,0H2.5V7C2.5,6.1,3.3,5.3,4.2,5.3z M19.8,18.7H4.2c-0.9,0-1.7-0.8-1.7-1.7V9.7
	h18.9c0,0,0,0,0.1,0V17C21.5,18,20.7,18.7,19.8,18.7z"/>
<path d="M10.4,14.3h-4c-0.3,0-0.5,0.2-0.5,0.5s0.2,0.5,0.5,0.5h4c0.3,0,0.5-0.2,0.5-0.5S10.7,14.3,10.4,14.3z"/>
</svg>
