<svg xmlns="http://www.w3.org/2000/svg" width="16" height="16" viewBox="0 0 16 16">
  <path fill-rule="evenodd" d="M2.133 1.167a.967.967 0 0 0-.966.966v6.6a.967.967 0 0 0 .966.967h.734a.5.5 0 0 1 0 1h-.734A1.966 1.966 0 0 1 .167 8.733v-6.6A1.967 1.967 0 0 1 2.133.167h6.6A1.967 1.967 0 0 1 10.7 2.133v.734a.5.5 0 0 1-1 0v-.734a.967.967 0 0 0-.967-.966h-6.6ZM7.267 6.3a.967.967 0 0 0-.967.967v6.6c0 .533.433.966.967.966h6.6a.967.967 0 0 0 .966-.966v-6.6a.967.967 0 0 0-.966-.967h-6.6ZM5.3 7.267C5.3 6.18 6.18 5.3 7.267 5.3h6.6c1.086 0 1.966.88 1.966 1.967v6.6c0 1.086-.88 1.966-1.966 1.966h-6.6A1.967 1.967 0 0 1 5.3 13.867v-6.6Z" clip-rule="evenodd"/>
</svg>
