<svg xmlns="http://www.w3.org/2000/svg" width="24" height="24" viewBox="0 0 24 24">
  <path fill-rule="evenodd" d="M2 2.5a.5.5 0 0 0-.5.5v14.5a.5.5 0 0 0 .5.5h1.645a3.502 3.502 0 0 1 6.71 0H14V3a.5.5 0 0 0-.5-.5H2ZM10.5 19a3.5 3.5 0 1 1-7 0H2a1.5 1.5 0 0 1-1.5-1.5V3A1.5 1.5 0 0 1 2 1.5h11.5A1.5 1.5 0 0 1 15 3v2h2.85a1.5 1.5 0 0 1 1.37.89l1.614 3.63a1.5 1.5 0 0 1 .812.42l1.415 1.414a1.5 1.5 0 0 1 .439 1.06V17.5A1.5 1.5 0 0 1 22 19h-.5a3.5 3.5 0 1 1-7 0h-4Zm4.5-1.804a3.502 3.502 0 0 1 6.355.804H22a.5.5 0 0 0 .5-.5v-5.086a.5.5 0 0 0-.146-.353l-1.415-1.415a.5.5 0 0 0-.353-.146H15v6.696ZM15 9.5h4.73l-1.423-3.203A.5.5 0 0 0 17.85 6H15v3.5Zm-8 7a2.5 2.5 0 1 0 0 5 2.5 2.5 0 0 0 0-5Zm11 0a2.5 2.5 0 1 0 0 5 2.5 2.5 0 0 0 0-5Z" clip-rule="evenodd"/>
</svg>
