<svg xmlns="http://www.w3.org/2000/svg" width="16" height="16" viewBox="0 0 16 16">
  <path fill-rule="evenodd" d="M3.164.167h10.47A1.967 1.967 0 0 1 15.6 2.133v5.134a1.967 1.967 0 0 1-1.966 1.966h-1.875l-2.802 6.303a.5.5 0 0 1-.456.297 2.7 2.7 0 0 1-2.7-2.7V10.7H2.152A1.966 1.966 0 0 1 .19 8.438l1.012-6.6A1.968 1.968 0 0 1 3.164.167Zm8.77 8.066h1.7a.966.966 0 0 0 .966-.966V2.133a.967.967 0 0 0-.966-.966h-1.7v7.066Zm-1-7.066H3.156a.967.967 0 0 0-.966.821l-1.012 6.6A.968.968 0 0 0 2.144 9.7H6.3a.5.5 0 0 1 .5.5v2.933a1.7 1.7 0 0 0 1.388 1.671l2.746-6.177v-7.46Z" clip-rule="evenodd"/>
</svg>
