<svg xmlns="http://www.w3.org/2000/svg" width="16" height="16" viewBox="0 0 16 16">
  <path fill-rule="evenodd" d="M2.076.743a1.967 1.967 0 0 1 1.39-.576h5.867a.5.5 0 0 1 .354.146l4.4 4.4a.5.5 0 0 1 .146.354v8.8a1.967 1.967 0 0 1-1.966 1.966h-8.8A1.967 1.967 0 0 1 1.5 13.867V2.133c0-.521.207-1.022.576-1.39Zm1.39.424a.967.967 0 0 0-.966.966v11.734a.967.967 0 0 0 .967.966h8.8a.967.967 0 0 0 .966-.966v-8.3h-3.9a.5.5 0 0 1-.5-.5v-3.9H3.467Zm6.367.707 2.693 2.693H9.833V1.874ZM4.433 5.8a.5.5 0 0 1 .5-.5H6.4a.5.5 0 0 1 0 1H4.933a.5.5 0 0 1-.5-.5Zm0 2.933a.5.5 0 0 1 .5-.5H10.8a.5.5 0 0 1 0 1H4.933a.5.5 0 0 1-.5-.5Zm0 2.934a.5.5 0 0 1 .5-.5H10.8a.5.5 0 0 1 0 1H4.933a.5.5 0 0 1-.5-.5Z" clip-rule="evenodd"/>
</svg>
