<svg xmlns="http://www.w3.org/2000/svg" width="24" height="24" viewBox="0 0 24 24">
  <path fill-rule="evenodd" d="M3.29 1.29A2.7 2.7 0 0 1 5.2.5H14a.5.5 0 0 1 .354.146l6.6 6.6a.5.5 0 0 1 .146.354v13.2a2.7 2.7 0 0 1-2.7 2.7H5.2a2.7 2.7 0 0 1-2.7-2.7V3.2a2.7 2.7 0 0 1 .79-1.91Zm1.91.21a1.7 1.7 0 0 0-1.7 1.7v17.6a1.7 1.7 0 0 0 1.7 1.7h13.2a1.7 1.7 0 0 0 1.7-1.7V8.1H14a.5.5 0 0 1-.5-.5V1.5H5.2Zm9.3.707L19.393 7.1H14.5V2.207ZM6.9 8.7a.5.5 0 0 1 .5-.5h2.2a.5.5 0 1 1 0 1H7.4a.5.5 0 0 1-.5-.5Zm0 4.4a.5.5 0 0 1 .5-.5h8.8a.5.5 0 0 1 0 1H7.4a.5.5 0 0 1-.5-.5Zm0 4.4a.5.5 0 0 1 .5-.5h8.8a.5.5 0 0 1 0 1H7.4a.5.5 0 0 1-.5-.5Z" clip-rule="evenodd"/>
</svg>
