<svg xmlns="http://www.w3.org/2000/svg" width="16" height="16" viewBox="0 0 16 16">
  <path fill-rule="evenodd" d="M8 .167a.5.5 0 0 1 .5.5v8.57l3.22-3.22a.5.5 0 0 1 .707.707l-4.074 4.074a.5.5 0 0 1-.707 0L3.572 6.724a.5.5 0 1 1 .707-.707l3.22 3.22V.667a.5.5 0 0 1 .5-.5ZM.667 9.944a.5.5 0 0 1 .5.5v3.26a1.13 1.13 0 0 0 1.13 1.13h11.407a1.13 1.13 0 0 0 1.13-1.13v-3.26a.5.5 0 1 1 1 0v3.26a2.13 2.13 0 0 1-2.13 2.13H2.296a2.13 2.13 0 0 1-2.13-2.13v-3.26a.5.5 0 0 1 .5-.5Z" clip-rule="evenodd"/>
</svg>
