<svg xmlns="http://www.w3.org/2000/svg" width="24" height="24" viewBox="0 0 24 24">
  <path fill-rule="evenodd" d="M20.68 1.5a1.82 1.82 0 0 0-1.286.533L9.105 12.322l-.858 3.43 3.431-.857 10.29-10.29A1.82 1.82 0 0 0 20.68 1.5Zm-1.993-.174a2.82 2.82 0 1 1 3.987 3.987L12.287 15.7a.5.5 0 0 1-.232.132l-4.373 1.093a.5.5 0 0 1-.607-.607l1.094-4.373a.5.5 0 0 1 .131-.232L18.687 1.326Zm-17.4 2.28a2.687 2.687 0 0 1 1.9-.787h7.653a.5.5 0 1 1 0 1H3.187A1.687 1.687 0 0 0 1.5 5.506v15.307A1.687 1.687 0 0 0 3.187 22.5h15.307a1.687 1.687 0 0 0 1.687-1.687V13.16a.5.5 0 0 1 1 0v7.653a2.687 2.687 0 0 1-2.687 2.687H3.187A2.687 2.687 0 0 1 .5 20.813V5.506c0-.712.283-1.396.787-1.9Z" clip-rule="evenodd"/>
</svg>
