<svg xmlns="http://www.w3.org/2000/svg" width="16" height="16" viewBox="0 0 16 16">
  <path fill-rule="evenodd" d="M13.787 1.167c-.277 0-.544.11-.74.306L6.221 8.3l-.494 1.973L7.7 9.779l6.827-6.826a1.046 1.046 0 0 0-.74-1.786ZM12.34.766a2.047 2.047 0 0 1 2.894 2.894l-6.925 6.925a.5.5 0 0 1-.232.131l-2.916.729a.5.5 0 0 1-.606-.606l.729-2.916a.5.5 0 0 1 .131-.232L12.34.766ZM.74 2.286a1.958 1.958 0 0 1 1.384-.573h5.103a.5.5 0 1 1 0 1H2.124a.958.958 0 0 0-.957.958v10.205a.958.958 0 0 0 .957.957H12.33a.958.958 0 0 0 .958-.957V8.773a.5.5 0 1 1 1 0v5.103a1.958 1.958 0 0 1-1.958 1.957H2.124a1.958 1.958 0 0 1-1.957-1.957V3.67c0-.52.206-1.018.573-1.385Z" clip-rule="evenodd"/>
</svg>
