<svg xmlns="http://www.w3.org/2000/svg" width="24" height="24" viewBox="0 0 24 24">
  <path d="M22.516 23a.45.45 0 0 1-.335-.143l-4.555-4.553a10.042 10.042 0 0 1-5.636 1.827c-6.898 0-10.774-7.594-10.936-7.92a.478.478 0 0 1 0-.44 18.03 18.03 0 0 1 4.554-5.498L1.15 1.816A.478.478 0 0 1 1.484 1c.125 0 .246.05.335.137l4.842 4.84 11.367 11.361 4.784 4.782a.458.458 0 0 1 0 .67.45.45 0 0 1-.296.21ZM2.03 12.001c.679 1.225 4.277 7.173 9.98 7.173a9.084 9.084 0 0 0 4.946-1.52l-2.928-2.965a3.138 3.138 0 0 1-.727.44 3.387 3.387 0 0 1-2.612.048 3.32 3.32 0 0 1-1.856-1.856 3.375 3.375 0 0 1 .048-2.61 3.11 3.11 0 0 1 .44-.709l-3.072-3.05a17.15 17.15 0 0 0-4.22 5.05ZM10 10.672a2.4 2.4 0 0 0-.249.43 2.19 2.19 0 0 0-.2.957c-.014.327.045.654.172.956.251.58.722 1.038 1.31 1.272a2.421 2.421 0 0 0 1.914 0c.152-.068.296-.15.43-.248L10 10.672Zm10.468 4.858a.479.479 0 0 1-.363-.784c.725-.85 1.366-1.77 1.913-2.745-.708-1.224-4.287-7.173-10.028-7.173-.643.012-1.284.086-1.913.22a.488.488 0 0 1-.574-.363.478.478 0 0 1 .363-.574 7.763 7.763 0 0 1 2.124-.239c6.918 0 10.794 7.594 10.956 7.91a.478.478 0 0 1 0 .44 17.904 17.904 0 0 1-2.124 3.136.47.47 0 0 1-.354.172Z"/>
</svg>
