<svg xmlns="http://www.w3.org/2000/svg" width="24" height="24" viewBox="0 0 24 24">
<path d="M1.5,4.7h3.7c0.3,1.7,1.9,2.9,3.6,2.6C10.2,7,11.2,6,11.4,4.7h11c0.3,0,0.5-0.2,0.5-0.5s-0.2-0.5-0.5-0.5h-11
	c-0.3-1.7-1.9-2.9-3.6-2.6C6.5,1.3,5.5,2.3,5.2,3.6H1.5C1.2,3.6,1,3.9,1,4.1S1.2,4.7,1.5,4.7z M8.3,2c1.2,0,2.1,0.9,2.1,2.1
	S9.5,6.2,8.3,6.2S6.2,5.3,6.2,4.1S7.2,2,8.3,2z M22.5,11.5h-3.7c-0.3-1.7-1.9-2.9-3.6-2.6c-1.3,0.2-2.3,1.2-2.6,2.6h-11
	C1.2,11.5,1,11.7,1,12c0,0.3,0.2,0.5,0.5,0.5h11c0.3,1.7,1.9,2.9,3.6,2.6c1.3-0.2,2.3-1.2,2.6-2.6h3.7c0.3,0,0.5-0.2,0.5-0.5
	C23,11.7,22.8,11.5,22.5,11.5z M15.7,14.1c-1.2,0-2.1-0.9-2.1-2.1s0.9-2.1,2.1-2.1s2.1,0.9,2.1,2.1S16.8,14.1,15.7,14.1z M22.5,19.3
	h-11c-0.3-1.7-1.9-2.9-3.6-2.6C6.5,17,5.5,18,5.2,19.3H1.5c-0.3,0-0.5,0.2-0.5,0.5s0.2,0.5,0.5,0.5h3.7c0.3,1.7,1.9,2.9,3.6,2.6
	c1.3-0.2,2.3-1.2,2.6-2.6h11c0.3,0,0.5-0.2,0.5-0.5S22.8,19.3,22.5,19.3z M8.3,22c-1.2,0-2.1-0.9-2.1-2.1s0.9-2.1,2.1-2.1
	s2.1,0.9,2.1,2.1S9.5,22,8.3,22z"/>
</svg>
