<svg xmlns="http://www.w3.org/2000/svg" width="16" height="16" viewBox="0 0 16 16">
<path d="M1.3,3.6h2.2c0.3,1,1.2,1.7,2.2,1.7c0.1,0,0.3,0,0.4,0c0.9-0.2,1.6-0.8,1.8-1.6h6.8c0.3,0,0.6-0.3,0.6-0.6
	c0-0.3-0.3-0.6-0.6-0.6H7.8C7.7,1.9,7.4,1.5,7,1.2C6.5,0.8,5.9,0.7,5.3,0.8C4.4,0.9,3.7,1.6,3.5,2.4H1.3C1,2.4,0.8,2.7,0.8,3
	C0.8,3.3,1,3.6,1.3,3.6z M4.6,3c0-0.6,0.5-1.1,1.1-1.1c0.6,0,1.1,0.5,1.1,1.1c0,0.6-0.5,1.1-1.1,1.1C5.1,4.1,4.6,3.6,4.6,3z"/>
<path d="M14.7,7.4h-2.2c-0.1-0.5-0.4-0.9-0.9-1.2c-0.5-0.3-1.1-0.5-1.7-0.4C9.1,5.9,8.4,6.6,8.2,7.4H1.3C1,7.4,0.8,7.7,0.8,8
	c0,0.3,0.3,0.6,0.6,0.6h6.8C8.3,9.1,8.6,9.5,9,9.8c0.4,0.3,0.8,0.4,1.3,0.4c0.1,0,0.3,0,0.4,0c0.9-0.2,1.6-0.8,1.8-1.6h2.2
	c0.3,0,0.6-0.3,0.6-0.6C15.2,7.7,15,7.4,14.7,7.4z M11.4,8c0,0.6-0.5,1.1-1.1,1.1S9.2,8.6,9.2,8c0-0.6,0.5-1.1,1.1-1.1
	S11.4,7.4,11.4,8z"/>
<path d="M14.7,12.4H7.8c-0.3-1.1-1.4-1.8-2.6-1.6c-0.9,0.2-1.6,0.8-1.8,1.6H1.3c-0.3,0-0.6,0.3-0.6,0.6s0.3,0.6,0.6,0.6h2.2
	c0.3,1,1.2,1.7,2.2,1.7c0.1,0,0.3,0,0.4,0c0.9-0.2,1.6-0.8,1.8-1.6h6.8c0.3,0,0.6-0.3,0.6-0.6S15,12.4,14.7,12.4z M6.8,13
	c0,0.6-0.5,1.1-1.1,1.1c-0.6,0-1.1-0.5-1.1-1.1s0.5-1.1,1.1-1.1C6.3,11.9,6.8,12.4,6.8,13z"/>
</svg>
