<svg xmlns="http://www.w3.org/2000/svg" width="16" height="16" viewBox="0 0 16 16">
  <path d="M8 10.47a2.5 2.5 0 1 1 0-5 2.5 2.5 0 0 1 0 5Zm0-4a1.5 1.5 0 1 0 0 3 1.5 1.5 0 0 0 0-3Z"/>
  <path d="M8.05 15.81a1.781 1.781 0 0 1-1.32-.54 1.82 1.82 0 0 1-.54-1.3.61.61 0 0 0-.11-.38.58.58 0 0 0-.28-.21.66.66 0 0 0-.38-.06.53.53 0 0 0-.31.17 2 2 0 0 1-.63.43 1.91 1.91 0 0 1-1.41 0 1.81 1.81 0 0 1-.59-.4 1.75 1.75 0 0 1-.4-.6 1.78 1.78 0 0 1-.14-.7 1.81 1.81 0 0 1 .54-1.29.75.75 0 0 0 .25-.35.6.6 0 0 0 0-.35.58.58 0 0 0-.22-.27.64.64 0 0 0-.33-.1H2A1.84 1.84 0 0 1 .336 8.728 1.86 1.86 0 0 1 .73 6.73a1.88 1.88 0 0 1 1.3-.54.59.59 0 0 0 .38-.11.56.56 0 0 0 .22-.28.65.65 0 0 0 0-.38.62.62 0 0 0-.16-.31 1.86 1.86 0 0 1-.43-.63 1.68 1.68 0 0 1-.14-.7 1.76 1.76 0 0 1 .14-.71c.09-.22.222-.421.39-.59a2.17 2.17 0 0 1 .6-.4c.45-.18.95-.18 1.4 0 .224.094.427.23.6.4a.64.64 0 0 0 .35.2c.158.042.47 0 .47 0s.164-.127.216-.216a.61.61 0 0 0 .084-.294v-.2A1.81 1.81 0 0 1 6.73.68a1.91 1.91 0 0 1 2.6 0c.34.343.53.807.53 1.29a.7.7 0 0 0 .1.39.64.64 0 0 0 .27.22.53.53 0 0 0 .35 0 .52.52 0 0 0 .31-.16 2 2 0 0 1 .63-.43 1.82 1.82 0 0 1 2 .4c.174.166.31.367.4.59a1.86 1.86 0 0 1 0 1.41 1.67 1.67 0 0 1-.4.59.61.61 0 0 0-.19.35.6.6 0 0 0 0 .35.496.496 0 0 1 0 .13.54.54 0 0 0 .18.19.56.56 0 0 0 .33.1h.11a1.84 1.84 0 0 1 0 3.67.64.64 0 0 0-.39.1.63.63 0 0 0-.22.26.57.57 0 0 0 0 .34.65.65 0 0 0 .16.32 2 2 0 0 1 .44.63 1.82 1.82 0 0 1 0 1.4 1.84 1.84 0 0 1-1 1c-.45.18-.95.18-1.4 0a1.91 1.91 0 0 1-.6-.4.65.65 0 0 0-.34-.2.62.62 0 0 0-.62.26.58.58 0 0 0-.1.33v.11a1.84 1.84 0 0 1-1.84 1.84l.01.05Zm-2.49-3.5c.22.001.439.049.64.14.292.108.544.304.72.56.187.26.292.57.3.89a.85.85 0 0 0 .25.66.83.83 0 0 0 1.17 0 .8.8 0 0 0 .25-.59v-.09c0-.312.09-.618.26-.88a1.7 1.7 0 0 1 .71-.59c.29-.123.61-.157.92-.1.319.05.613.2.84.43a.84.84 0 0 0 1.22.04.828.828 0 0 0 .18-.27.77.77 0 0 0 0-.64.799.799 0 0 0-.18-.27 1.61 1.61 0 0 1-.36-1.81 1.64 1.64 0 0 1 .58-.7c.262-.17.568-.26.88-.26a.87.87 0 0 0 .65-.25.81.81 0 0 0 .24-.59.84.84 0 0 0-.24-.59.87.87 0 0 0-.59-.24h-.11a1.59 1.59 0 0 1-.88-.26 1.63 1.63 0 0 1-.59-.71c-.032-.351-.157-.67-.09-1.035a1.59 1.59 0 0 1 .4-.795.82.82 0 0 0 .23-.31c.038-.106.059-.217.06-.33a.811.811 0 0 0-.06-.31.75.75 0 0 0-.18-.28 1.27 1.27 0 0 0-.27-.18.88.88 0 0 0-.64 0 1.27 1.27 0 0 0-.27.18 1.68 1.68 0 0 1-.88.48 1.64 1.64 0 0 1-.93-.11 1.6 1.6 0 0 1-.7-.59 1.68 1.68 0 0 1-.27-.87.89.89 0 0 0-.24-.66.83.83 0 0 0-1.42.59v.12a1.63 1.63 0 0 1-.27.88 1.58 1.58 0 0 1-.7.58c-.318.058-.652.131-.98.07a1.51 1.51 0 0 1-.84-.43.89.89 0 0 0-.31-.22.83.83 0 0 0-1.15.77.8.8 0 0 0 .24.59c.246.234.413.538.48.87a1.68 1.68 0 0 1-.11.94 1.61 1.61 0 0 1-.56.72 1.63 1.63 0 0 1-.9.29.88.88 0 0 0-.66.25.85.85 0 0 0-.18.91.82.82 0 0 0 .77.51h.11a1.52 1.52 0 0 1 .88.27 1.61 1.61 0 0 1 .32 2.5 1.13 1.13 0 0 0-.27.29.87.87 0 0 0 0 .64c.046.099.107.19.18.27a.84.84 0 0 0 .92.19.76.76 0 0 0 .26-.18 1.77 1.77 0 0 1 .88-.47 1.43 1.43 0 0 1 .29-.02Z"/>
</svg>
