<svg xmlns="http://www.w3.org/2000/svg" width="24" height="24" viewBox="0 0 24 24">
  <path d="M20.417 23H3.583a.478.478 0 0 1-.479-.478V12.478H1.478A.478.478 0 0 1 1 12V6.74a.478.478 0 0 1 .478-.48h3.549a3.06 3.06 0 0 1-.87-2.151A3.1 3.1 0 0 1 7.265 1C9.963 1 11.36 3.391 12 5.094 12.64 3.39 14.037 1 16.783 1a3.099 3.099 0 0 1 3.06 3.109 3.061 3.061 0 0 1-.87 2.152h3.549a.478.478 0 0 1 .478.478V12a.478.478 0 0 1-.478.478h-1.626v10.044a.478.478 0 0 1-.479.478Zm-7.939-.956h7.461v-9.566h-7.46v9.566Zm-8.417 0h7.46v-9.566h-7.46v9.566Zm8.417-10.522h9.566V7.217h-9.566v4.305Zm-10.521 0h9.565V7.217H1.957v4.305ZM12.622 6.26h4.16a2.152 2.152 0 0 0 0-4.304c-2.61 0-3.778 3.013-4.16 4.304Zm-5.357 0h4.113c-.335-1.291-1.55-4.304-4.113-4.304a2.152 2.152 0 1 0 0 4.304Z"/>
</svg>
