<svg xmlns="http://www.w3.org/2000/svg" width="16" height="16" viewBox="0 0 16 16">
  <path d="M12.95 15.5H2.81a.5.5 0 0 1-.5-.5V8.5H1.5A.5.5 0 0 1 1 8V4.5a.5.5 0 0 1 .5-.5h1.76a2.39 2.39 0 0 1 .24-2.82A2 2 0 0 1 5 .5a3.32 3.32 0 0 1 2.86 2.35A3.33 3.33 0 0 1 10.73.5a2 2 0 0 1 1.49.68A2.35 2.35 0 0 1 12.46 4h1.77a.5.5 0 0 1 .5.5V8a.5.5 0 0 1-.5.5h-.78V15a.5.5 0 0 1-.5.5Zm-4.59-1h4.09v-6H8.36v6Zm-5.09 0h4.09v-6H3.27v6Zm5.09-7h5.37V5H8.36v2.5ZM2 7.5h5.36V5H2v2.5ZM8.5 4h2.23a1 1 0 0 0 .75-.33 1.35 1.35 0 0 0 .34-.9 1.37 1.37 0 0 0-.34-.9 1 1 0 0 0-.75-.35C9.43 1.5 8.81 3.1 8.5 4ZM5 4h2.22C6.95 3.1 6.29 1.5 5 1.5a1.06 1.06 0 0 0-.76.35 1.37 1.37 0 0 0-.33.9c-.004.33.114.65.33.9A1 1 0 0 0 5 4Z"/>
</svg>
