<svg xmlns="http://www.w3.org/2000/svg" width="16" height="16" viewBox="0 0 16 16">
  <path d="m8 15.5-.276-.135C7.438 15.198 0 11.03 0 5.102a4.707 4.707 0 0 1 .95-2.875A4.475 4.475 0 0 1 3.464.612a4.307 4.307 0 0 1 2.942.364A4.477 4.477 0 0 1 8.01 2.352 4.497 4.497 0 0 1 9.58 1.02a4.405 4.405 0 0 1 1.986-.48 4.37 4.37 0 0 1 1.704.35c.54.231 1.03.568 1.443.992A4.604 4.604 0 0 1 16 5.103c0 5.928-7.438 10.096-7.755 10.263L8 15.5ZM4.434 1.539a3.01 3.01 0 0 0-.746.115 3.353 3.353 0 0 0-1.93 1.219 3.598 3.598 0 0 0-.736 2.219c0 4.72 5.711 8.45 6.978 9.22 1.267-.77 6.978-4.5 6.978-9.21a3.53 3.53 0 0 0-.263-1.35 3.474 3.474 0 0 0-.758-1.14 3.369 3.369 0 0 0-1.108-.771 3.315 3.315 0 0 0-1.314-.27 3.375 3.375 0 0 0-1.817.554A3.47 3.47 0 0 0 8.47 3.581l-.46 1.042-.46-1.042a3.501 3.501 0 0 0-1.604-1.677 3.339 3.339 0 0 0-1.512-.365Z"/>
</svg>
