<svg xmlns="http://www.w3.org/2000/svg" width="24" height="24" viewBox="0 0 24 24">
  <path d="m12 22.5-.229-.13c-.44-.248-10.77-6.216-10.77-14.514a6.406 6.406 0 0 1 1.134-3.78 5.992 5.992 0 0 1 3.093-2.303 5.753 5.753 0 0 1 3.802.105A6.028 6.028 0 0 1 12 4.35a6.18 6.18 0 0 1 1.78-1.813 5.808 5.808 0 0 1 3.204-.996 5.698 5.698 0 0 1 2.297.474 5.895 5.895 0 0 1 1.94 1.369 6.268 6.268 0 0 1 1.322 2.05c.306.767.461 1.591.457 2.422 0 8.299-10.33 14.266-10.77 14.515L12 22.5ZM6.99 2.507a5.019 5.019 0 0 0-3.97 2.002 5.477 5.477 0 0 0-1.061 3.347c0 7.103 8.522 12.572 10.043 13.498 1.52-.926 10.043-6.395 10.043-13.498a5.399 5.399 0 0 0-1.435-3.745 4.977 4.977 0 0 0-1.63-1.145 4.812 4.812 0 0 0-1.928-.4 4.856 4.856 0 0 0-2.695.803 5.148 5.148 0 0 0-1.858 2.186l-.44.996-.42-.996a5.266 5.266 0 0 0-2.411-2.5 4.923 4.923 0 0 0-2.238-.548Z"/>
</svg>
