<svg xmlns="http://www.w3.org/2000/svg" width="24" height="24" viewBox="0 0 24 24">
<path d="M12 0.5C5.65465 0.5 0.5 5.65465 0.5 12C0.5 18.3454 5.65465 23.5 12 23.5C18.3454 23.5 23.5 18.3454 23.5 12C23.5 5.65465 18.3454 0.5 12 0.5ZM12 1.5C17.8049 1.5 22.5 6.19509 22.5 12C22.5 17.8049 17.8049 22.5 12 22.5C6.19509 22.5 1.5 17.8049 1.5 12C1.5 6.19509 6.19509 1.5 12 1.5ZM12 5C11.6022 5 11.2206 5.15804 10.9393 5.43934C10.658 5.72064 10.5 6.10218 10.5 6.5C10.5 6.89782 10.658 7.27936 10.9393 7.56066C11.2206 7.84196 11.6022 8 12 8C12.3978 8 12.7794 7.84196 13.0607 7.56066C13.342 7.27936 13.5 6.89782 13.5 6.5C13.5 6.10218 13.342 5.72064 13.0607 5.43934C12.7794 5.15804 12.3978 5 12 5ZM10 10V11H10.5H11V17.5H10.5H10V18.5H10.5H11H13H13.5H14V17.5H13.5H13V10H12.5H10.5H10Z" fill="black"/>
</svg>
