<svg xmlns="http://www.w3.org/2000/svg" width="16" height="16" viewBox="0 0 16 16">
  <path fill-rule="evenodd" d="m1.2 3.185 6.331 4.308a.833.833 0 0 0 .938 0l6.33-4.308a.964.964 0 0 0-.932-.685H2.133a.965.965 0 0 0-.932.685ZM14.834 4.37 9.032 8.32a1.833 1.833 0 0 1-2.063 0L1.167 4.37v7.61c0 .495.423.926.966.926h11.734c.544 0 .966-.43.966-.925V4.37ZM.167 3.426c0-1.074.897-1.926 1.966-1.926h11.734c1.07 0 1.966.852 1.966 1.926v8.555c0 1.074-.897 1.926-1.966 1.926H2.133c-1.069 0-1.966-.852-1.966-1.925V3.426Z" clip-rule="evenodd"/>
</svg>
