<svg xmlns="http://www.w3.org/2000/svg" width="24" height="24" viewBox="0 0 24 24">
  <path fill-rule="evenodd" d="M1.5 5a.5.5 0 0 1 .5-.5h20a.5.5 0 0 1 0 1H2a.5.5 0 0 1-.5-.5Zm14.944 4.5a3.944 3.944 0 1 0 2.74 6.782.495.495 0 0 1 .098-.098A3.944 3.944 0 0 0 16.444 9.5Zm3.832 7.07a4.944 4.944 0 1 0-.707.707l2.078 2.077a.5.5 0 0 0 .707-.707l-2.078-2.078ZM1.5 12a.5.5 0 0 1 .5-.5h7a.5.5 0 0 1 0 1H2a.5.5 0 0 1-.5-.5Zm0 7a.5.5 0 0 1 .5-.5h7a.5.5 0 0 1 0 1H2a.5.5 0 0 1-.5-.5Z" clip-rule="evenodd"/>
</svg>
