<svg xmlns="http://www.w3.org/2000/svg" width="24" height="24" viewBox="0 0 24 24">
  <path fill-rule="evenodd" d="M5 3.5a1.5 1.5 0 1 0 0 3 1.5 1.5 0 0 0 0-3ZM2.5 5a2.5 2.5 0 1 1 5 0 2.5 2.5 0 0 1-5 0ZM12 3.5a1.5 1.5 0 1 0 0 3 1.5 1.5 0 0 0 0-3ZM9.5 5a2.5 2.5 0 1 1 5 0 2.5 2.5 0 0 1-5 0ZM19 3.5a1.5 1.5 0 1 0 0 3 1.5 1.5 0 0 0 0-3ZM16.5 5a2.5 2.5 0 1 1 5 0 2.5 2.5 0 0 1-5 0ZM5 10.5a1.5 1.5 0 1 0 0 3 1.5 1.5 0 0 0 0-3ZM2.5 12a2.5 2.5 0 1 1 5 0 2.5 2.5 0 0 1-5 0Zm9.5-1.5a1.5 1.5 0 1 0 0 3 1.5 1.5 0 0 0 0-3ZM9.5 12a2.5 2.5 0 1 1 5 0 2.5 2.5 0 0 1-5 0Zm9.5-1.5a1.5 1.5 0 1 0 0 3 1.5 1.5 0 0 0 0-3ZM16.5 12a2.5 2.5 0 1 1 5 0 2.5 2.5 0 0 1-5 0ZM5 17.5a1.5 1.5 0 1 0 0 3 1.5 1.5 0 0 0 0-3ZM2.5 19a2.5 2.5 0 1 1 5 0 2.5 2.5 0 0 1-5 0Zm9.5-1.5a1.5 1.5 0 1 0 0 3 1.5 1.5 0 0 0 0-3ZM9.5 19a2.5 2.5 0 1 1 5 0 2.5 2.5 0 0 1-5 0Zm9.5-1.5a1.5 1.5 0 1 0 0 3 1.5 1.5 0 0 0 0-3ZM16.5 19a2.5 2.5 0 1 1 5 0 2.5 2.5 0 0 1-5 0Z" clip-rule="evenodd"/>
</svg>
