<svg xmlns="http://www.w3.org/2000/svg" width="16" height="16" viewBox="0 0 16 16">
  <path fill-rule="evenodd" d="M.167 2c0-.644.522-1.167 1.166-1.167h13.334c.644 0 1.166.523 1.166 1.167v2c0 .465-.272.867-.666 1.054V14c0 .644-.523 1.167-1.167 1.167H2A1.167 1.167 0 0 1 .833 14V5.054A1.167 1.167 0 0 1 .167 4V2Zm1.666 3.167V14c0 .092.075.167.167.167h12a.167.167 0 0 0 .167-.167V5.167h-2.334v2.166c0 .645-.522 1.167-1.166 1.167H5.333a1.167 1.167 0 0 1-1.166-1.167V5.167H1.833Zm3.334 0v2.166c0 .092.074.167.166.167h5.334a.167.167 0 0 0 .166-.167V5.167H5.167ZM1.333 1.833A.167.167 0 0 0 1.167 2v2c0 .092.074.167.166.167h13.334A.167.167 0 0 0 14.833 4V2a.167.167 0 0 0-.166-.167H1.333Z" clip-rule="evenodd"/>
</svg>
