<svg xmlns="http://www.w3.org/2000/svg" width="24" height="24" viewBox="0 0 24 24">
<path d="M12,1C5.9,1,1,5.9,1,12c0,6.1,4.9,11,11,11s11-4.9,11-11C23,5.9,18.1,1,12,1z M12,17.5c-0.3,0-0.6-0.2-0.6-0.6
	s0.2-0.6,0.6-0.6h0c0.3,0,0.6,0.2,0.6,0.6S12.3,17.5,12,17.5z M14.4,10.8c-0.2,0.3-0.5,0.6-0.8,0.9c-0.6,0.7-1.2,1.3-1.2,2v0.6
	c0,0.3-0.2,0.5-0.5,0.5s-0.5-0.2-0.5-0.5v-0.6c0-1.1,0.7-1.9,1.4-2.7c0.2-0.3,0.5-0.6,0.7-0.9c0.2-0.3,0.3-0.6,0.3-0.9
	c0-1-0.8-1.7-1.9-1.7s-1.9,0.8-1.9,1.7c0,0.3-0.2,0.5-0.5,0.5S9.1,9.6,9.1,9.3c0-1.5,1.3-2.7,2.9-2.7s2.9,1.2,2.9,2.7
	C14.9,9.9,14.7,10.4,14.4,10.8z"/>
</svg>
