<svg xmlns="http://www.w3.org/2000/svg" width="16" height="16" viewBox="0 0 16 16">
<path d="M8,0C3.6,0,0,3.6,0,8c0,4.4,3.6,8,8,8c4.4,0,8-3.6,8-8C16,3.6,12.4,0,8,0z M8.5,11.5c0,0.1-0.1,0.1-0.1,0.2
	c0,0-0.1,0.1-0.2,0.1c-0.1,0-0.1,0-0.2,0c-0.1,0-0.3-0.1-0.4-0.1c0-0.1-0.1-0.1-0.1-0.2c0-0.1,0-0.1,0-0.2c0-0.1,0-0.1,0-0.2
	c0-0.1,0.1-0.1,0.1-0.2c0.1,0,0.1-0.1,0.2-0.1c0.1-0.1,0.3-0.1,0.4,0c0.1,0,0.1,0.1,0.2,0.1c0.1,0,0.1,0.1,0.1,0.2
	c0,0.1,0,0.1,0,0.2C8.5,11.3,8.5,11.4,8.5,11.5z M9.7,7.3C9.6,7.5,9.4,7.7,9.3,7.9C8.9,8.3,8.5,8.8,8.5,9.2v0.4
	c0,0.3-0.2,0.5-0.5,0.5S7.5,9.8,7.5,9.6V9.2c0-0.8,0.5-1.4,1-1.9c0.2-0.2,0.3-0.3,0.4-0.5C9,6.6,9.1,6.4,9.1,6.2c0-0.6-0.5-1-1.1-1
	c-0.6,0-1.1,0.4-1.1,1c0,0.3-0.2,0.5-0.5,0.5c-0.3,0-0.5-0.2-0.5-0.5c0-1.1,1-2,2.1-2c1.1,0,2,0.8,2.1,2C10.1,6.6,10,7,9.7,7.3z"/>
</svg>
