<svg xmlns="http://www.w3.org/2000/svg" width="16" height="16" viewBox="0 0 16 16">
<path d="M8,16c-4.4,0-8-3.6-8-8c0-4.4,3.6-8,8-8c4.4,0,8,3.6,8,8C16,12.4,12.4,16,8,16z M8,1C4.2,1,1,4.2,1,8c0,3.8,3.1,7,7,7
	c3.8,0,7-3.1,7-7C15,4.2,11.8,1,8,1z"/>
<path d="M8,10.1c-0.3,0-0.5-0.2-0.5-0.5V9.2c0-0.8,0.5-1.4,1-1.9c0.2-0.2,0.3-0.3,0.4-0.5C9,6.6,9.1,6.4,9.1,6.2c0-0.6-0.5-1-1.1-1
	c-0.6,0-1.1,0.4-1.1,1c0,0.3-0.2,0.5-0.5,0.5c-0.3,0-0.5-0.2-0.5-0.5c0-1.1,1-2,2.1-2c1.1,0,2,0.8,2.1,2c0,0.4-0.1,0.8-0.3,1.1
	C9.6,7.5,9.4,7.7,9.3,7.9C8.9,8.3,8.5,8.8,8.5,9.2v0.4C8.5,9.8,8.3,10.1,8,10.1z"/>
<path d="M8,11.8c-0.1,0-0.3-0.1-0.4-0.1c0-0.1-0.1-0.1-0.1-0.2c0-0.1,0-0.1,0-0.2c0-0.1,0-0.1,0-0.2c0-0.1,0.1-0.1,0.1-0.2
	c0.1,0,0.1-0.1,0.2-0.1c0.1-0.1,0.3-0.1,0.4,0c0.1,0,0.1,0.1,0.2,0.1c0.1,0,0.1,0.1,0.1,0.2c0,0.1,0,0.1,0,0.2c0,0.1,0,0.1,0,0.2
	c0,0.1-0.1,0.1-0.1,0.2c0,0-0.1,0.1-0.2,0.1C8.1,11.8,8.1,11.8,8,11.8z"/>
</svg>
