<svg xmlns="http://www.w3.org/2000/svg" width="24" height="24" viewBox="0 0 24 24">
<path d="M12,23C5.9,23,1,18.1,1,12C1,5.9,5.9,1,12,1s11,4.9,11,11C23,18.1,18.1,23,12,23z M12,2C6.5,2,2,6.5,2,12
	c0,5.5,4.5,10,10,10s10-4.5,10-10C22,6.5,17.5,2,12,2z"/>
<path d="M12,14.8c-0.3,0-0.5-0.2-0.5-0.5v-0.6c0-1.1,0.7-1.9,1.4-2.7c0.2-0.3,0.5-0.6,0.7-0.9c0.2-0.3,0.3-0.6,0.3-0.9
	c0-1-0.8-1.7-1.9-1.7s-1.9,0.8-1.9,1.7c0,0.3-0.2,0.5-0.5,0.5S9.1,9.6,9.1,9.3c0-1.5,1.3-2.7,2.9-2.7s2.9,1.2,2.9,2.7
	c0,0.5-0.2,1-0.5,1.5c-0.2,0.3-0.5,0.6-0.8,0.9c-0.6,0.7-1.2,1.3-1.2,2v0.6C12.5,14.6,12.3,14.8,12,14.8z"/>
<path d="M12,17.5c-0.3,0-0.6-0.2-0.6-0.6s0.2-0.6,0.6-0.6h0c0.3,0,0.6,0.2,0.6,0.6S12.3,17.5,12,17.5z"/>
</svg>
