<svg xmlns="http://www.w3.org/2000/svg" width="16" height="16" viewBox="0 0 16 16">
  <path fill-rule="evenodd" d="M10.88 1.094c.4-.383.938-.594 1.495-.594.557 0 1.095.211 1.495.594.4.384.63.91.63 1.462 0 .552-.23 1.077-.63 1.46-.4.384-.938.595-1.495.595a2.163 2.163 0 0 1-1.495-.594c-.4-.384-.63-.91-.63-1.461 0-.553.23-1.078.63-1.462Zm1.495.406a1.16 1.16 0 0 0-.803.317c-.209.2-.322.466-.322.739 0 .272.113.538.322.738.21.2.498.317.803.317.305 0 .594-.116.803-.317.209-.2.322-.466.322-.738 0-.273-.113-.54-.322-.74-.21-.2-.498-.316-.803-.316ZM4.656 3.056a2.41 2.41 0 0 0-1.665.658 2.165 2.165 0 0 0-.679 1.564c0 .582.242 1.145.68 1.563a2.41 2.41 0 0 0 1.664.659h6.5c.88 0 1.728.334 2.357.936.63.603.987 1.424.987 2.286 0 .862-.358 1.684-.987 2.286a3.41 3.41 0 0 1-2.357.936H7.5a.5.5 0 1 1 0-1h3.656a2.41 2.41 0 0 0 1.665-.658c.438-.419.679-.982.679-1.564a2.16 2.16 0 0 0-.679-1.563 2.41 2.41 0 0 0-1.665-.659h-6.5A3.41 3.41 0 0 1 2.3 7.564a3.165 3.165 0 0 1-.987-2.286c0-.862.357-1.684.987-2.286a3.41 3.41 0 0 1 2.356-.936H7.5a.5.5 0 1 1 0 1H4.656ZM1.13 11.983c.4-.383.938-.594 1.495-.594.557 0 1.095.211 1.495.594.4.384.63.91.63 1.461 0 .553-.23 1.078-.63 1.462-.4.383-.938.594-1.495.594a2.163 2.163 0 0 1-1.495-.594c-.4-.384-.63-.91-.63-1.462 0-.552.23-1.077.63-1.46Zm1.495.406a1.16 1.16 0 0 0-.803.317c-.209.2-.322.466-.322.738 0 .273.113.54.322.74.21.2.498.316.803.316.305 0 .594-.116.803-.317.209-.2.322-.466.322-.739a1.02 1.02 0 0 0-.322-.738c-.21-.2-.498-.317-.803-.317Z" clip-rule="evenodd"/>
</svg>
