<svg xmlns="http://www.w3.org/2000/svg" width="16" height="16" viewBox="0 0 16 16">
  <path fill-rule="evenodd" d="M12.333 1.167a1.7 1.7 0 1 0 0 3.4 1.7 1.7 0 0 0 0-3.4Zm-2.04 3.468a2.7 2.7 0 1 0-.504-.864l-4.215 2.46a2.7 2.7 0 1 0 0 3.537l4.216 2.457a2.7 2.7 0 1 0 .505-.863L6.078 8.905a2.696 2.696 0 0 0 0-1.81l4.215-2.46Zm-5.31 2.476a.504.504 0 0 0 .038.066c.135.244.212.524.212.823a1.692 1.692 0 0 1-.25.888A1.699 1.699 0 0 1 1.833 8a1.7 1.7 0 0 1 3.15-.889Zm5.845 5.233a.506.506 0 0 0 .079-.136 1.699 1.699 0 0 1 3.126.925 1.7 1.7 0 1 1-3.205-.79Z" clip-rule="evenodd"/>
</svg>
