<svg xmlns="http://www.w3.org/2000/svg" width="24" height="24" viewBox="0 0 24 24">
  <path fill-rule="evenodd" d="M18.5 1.5a2.8 2.8 0 1 0 0 5.6 2.8 2.8 0 0 0 0-5.6Zm-3.002 5.13a3.8 3.8 0 1 0-.504-.863L8.301 9.669a3.8 3.8 0 1 0 0 4.659l6.693 3.9a3.8 3.8 0 1 0 .506-.863l-6.694-3.9c.189-.451.293-.946.293-1.466s-.104-1.015-.293-1.466l6.69-3.905Zm-7.804 3.918a.525.525 0 0 0 .05.084 2.798 2.798 0 0 1 0 2.736.52.52 0 0 0-.05.084 2.8 2.8 0 1 1 0-2.904Zm8.34 7.826a.5.5 0 0 0 .101-.174 2.8 2.8 0 1 1-.102.174Z" clip-rule="evenodd"/>
</svg>
