<svg xmlns="http://www.w3.org/2000/svg" width="16" height="16" viewBox="0 0 16 16">
<path  d="M14.4,2.9c-1.1-0.3-2.2-0.7-3.2-1.1c-1-0.4-2-1-2.9-1.6L8,0L7.7,0.2C6.8,0.8,5.8,1.3,4.8,1.7
	c-1,0.5-2.1,0.8-3.2,1.1L1.2,3v4c0,6.5,6.6,8.9,6.6,8.9L8,16l0.2-0.1c0.1,0,6.6-2.4,6.6-8.9V3L14.4,2.9z M13.8,7
	c0,5.3-4.8,7.6-5.8,8c-1-0.4-5.8-2.6-5.8-8V3.7c1-0.3,2-0.7,3-1.1c1-0.4,1.9-0.9,2.8-1.5c0.9,0.5,1.8,1,2.8,1.5c1,0.4,2,0.8,3,1.1V7
	z M4.5,7.5C4.3,7.3,4,7.3,3.9,7.5C3.7,7.7,3.7,8,3.9,8.1L6.8,11l5.3-5.1c0.2-0.2,0.2-0.5,0-0.7s-0.5-0.2-0.7,0L6.8,9.7L4.5,7.5z"/>
</svg>
