<svg xmlns="http://www.w3.org/2000/svg" width="24" height="24" viewBox="0 0 24 24">
<path d="M20.8,4.9c-1.5-0.4-3-1-4.4-1.5s-2.8-1.3-4-2.1L12,1l-0.4,0.2c-1.2,0.9-2.6,1.5-4,2.2S4.7,4.5,3.2,4.9L2.6,5
	v5.5c0,8.9,9,12.2,9.1,12.3l0.2,0.1l0.2-0.1c0.1,0,9.1-3.3,9.1-12.3V5L20.8,4.9z M20,10.7c0,7.4-6.7,10.4-8,11c-1.3-0.6-8-3.6-8-11
	V6.1c1.4-0.4,2.8-0.9,4.1-1.5c1.3-0.5,2.7-1.1,3.9-1.9c1.2,0.8,2.6,1.4,3.9,2c1.3,0.6,2.7,1.1,4.1,1.5C20,6.2,20,10.7,20,10.7z
	 M7.2,11.2c-0.3-0.3-0.7-0.2-1,0.1c-0.2,0.3-0.2,0.6,0,0.9l4,4l7.3-7c0.3-0.3,0.3-0.7,0-1c-0.3-0.3-0.7-0.3-1,0l-6.3,6.1L7.2,11.2z"
	/>
</svg>
