<svg xmlns="http://www.w3.org/2000/svg" width="16" height="16" viewBox="0 0 16 16">
  <path d="M13.112 15.49H2.836c-.255 0-.507-.052-.74-.151a1.818 1.818 0 0 1-.998-1.056 1.723 1.723 0 0 1-.092-.722l.703-7.635a1.76 1.76 0 0 1 .59-1.152c.34-.3.781-.466 1.24-.467h1.282v-.77c0-.808.332-1.583.923-2.154A3.209 3.209 0 0 1 7.974.49a3.21 3.21 0 0 1 2.23.893 3 3 0 0 1 .923 2.155v.77h1.282c.46-.002.903.163 1.242.463.339.3.549.712.587 1.155l.755 7.625c.022.246-.009.493-.09.727a1.82 1.82 0 0 1-1.022 1.07 1.858 1.858 0 0 1-.77.141ZM3.539 5.306a.821.821 0 0 0-.546.213.769.769 0 0 0-.25.516L2.04 13.66a.765.765 0 0 0 .21.59.817.817 0 0 0 .586.259h10.276a.84.84 0 0 0 .587-.26.786.786 0 0 0 .209-.59l-.703-7.624a.76.76 0 0 0-.254-.506.811.811 0 0 0-.542-.204h-1.282v1.32a.49.49 0 0 1-.152.353.526.526 0 0 1-.73 0 .491.491 0 0 1-.152-.353v-1.34H5.855v1.34a.49.49 0 0 1-.152.353.526.526 0 0 1-.73 0 .491.491 0 0 1-.152-.353v-1.34H3.539Zm2.316-1h4.238v-.77c0-.543-.223-1.064-.62-1.448a2.157 2.157 0 0 0-1.5-.6c-.561 0-1.1.216-1.498.6-.397.384-.62.905-.62 1.449v.77Z"/>
</svg>
