<svg xmlns="http://www.w3.org/2000/svg" width="16" height="16" viewBox="0 0 16 16">
<path d="M6.5,11.4c-0.9,0-1.6-0.6-1.8-1.5L3.7,4.6c0,0,0,0,0-0.1L3.1,1.9H1c-0.3,0-0.5-0.2-0.5-0.5S0.7,0.8,1,0.8h2.5
	C3.8,0.8,4,1,4.1,1.2L4.6,4H15c0.2,0,0.3,0.1,0.4,0.2s0.1,0.3,0.1,0.4l-1,5.3c-0.2,0.9-0.9,1.5-1.8,1.5c0,0,0,0,0,0L6.5,11.4
	C6.5,11.4,6.5,11.4,6.5,11.4z M4.8,5l0.9,4.7c0.1,0.3,0.4,0.6,0.7,0.6h6.2c0.4,0,0.7-0.2,0.7-0.6L14.3,5H4.8z"/>
<path d="M6.1,15.2c-0.6,0-1.2-0.5-1.2-1.2c0-0.6,0.5-1.2,1.2-1.2s1.2,0.5,1.2,1.2C7.3,14.7,6.7,15.2,6.1,15.2z M6.1,13.9
	C6,13.9,6,14,6.1,13.9C6,14.2,6.2,14.2,6.1,13.9C6.2,14,6.1,13.9,6.1,13.9z"/>
<path d="M13.1,15.2c-0.6,0-1.2-0.5-1.2-1.2c0-0.6,0.5-1.2,1.2-1.2s1.2,0.5,1.2,1.2C14.3,14.7,13.7,15.2,13.1,15.2z M13.1,13.9
	C13,13.9,13,14,13.1,13.9C13,14.2,13.2,14.2,13.1,13.9C13.2,14,13.1,13.9,13.1,13.9z"/>
</svg>
