<svg xmlns="http://www.w3.org/2000/svg" width="24" height="24" viewBox="0 0 24 24">
  <path fill-rule="evenodd" d="M7.5 5a4.5 4.5 0 1 1 9 0v1.5h2.242a2.5 2.5 0 0 1 2.49 2.278l1.072 12a2.5 2.5 0 0 1-2.49 2.722H4.185a2.5 2.5 0 0 1-2.49-2.722l1.072-12A2.5 2.5 0 0 1 5.258 6.5H7.5V5Zm0 2.5v2.389s0 .5.5.5.5-.5.5-.5V7.5h7v2.389a.5.5 0 0 0 1 0V7.5h2.242a1.5 1.5 0 0 1 1.494 1.367l1.072 12a1.5 1.5 0 0 1-1.495 1.633H4.186a1.5 1.5 0 0 1-1.494-1.633l1.072-12A1.5 1.5 0 0 1 5.258 7.5H7.5Zm8-1h-7V5a3.5 3.5 0 0 1 7 0v1.5Z" clip-rule="evenodd"/>
</svg>
