<svg xmlns="http://www.w3.org/2000/svg" width="24" height="24" viewBox="0 0 24 24">
	<path d="M9.1,22.5c-0.8,0-1.4-0.6-1.4-1.4c0-0.8,0.6-1.4,1.4-1.4c0.8,0,1.4,0.6,1.4,1.4C10.6,21.9,9.9,22.5,9.1,22.5z M9.1,20.6
		c-0.3,0-0.5,0.2-0.5,0.5c0,0.3,0.2,0.5,0.5,0.5s0.5-0.2,0.5-0.5C9.6,20.8,9.4,20.6,9.1,20.6z"/>
	<path d="M19.7,22.5c-0.8,0-1.4-0.6-1.4-1.4c0-0.8,0.6-1.4,1.4-1.4s1.4,0.6,1.4,1.4C21.1,21.9,20.4,22.5,19.7,22.5z M19.7,20.6
		c-0.3,0-0.5,0.2-0.5,0.5c0,0.3,0.2,0.5,0.5,0.5s0.5-0.2,0.5-0.5C20.1,20.8,19.9,20.6,19.7,20.6z"/>
	<path d="M9.7,16.8c-1.1,0-2.1-0.8-2.3-1.9l-1.6-8c0,0,0,0,0-0.1L4.9,2.4H1.5C1.2,2.4,1,2.2,1,2s0.2-0.5,0.5-0.5h3.8
		c0.2,0,0.4,0.2,0.5,0.4l0.9,4.4h15.9c0.1,0,0.3,0.1,0.4,0.2C23,6.5,23,6.7,23,6.8l-1.5,8c-0.2,1.1-1.2,1.9-2.4,1.9H9.7
		C9.8,16.8,9.7,16.8,9.7,16.8z M6.8,7.2l1.5,7.5c0.1,0.7,0.7,1.1,1.4,1.2h9.3c0.7,0,1.3-0.5,1.4-1.2l1.4-7.5H6.8z"/>
</svg>
