<svg xmlns="http://www.w3.org/2000/svg" width="16" height="16" viewBox="0 0 16 16">
<path d="M3.8,0.6c0.2-0.2,0.5-0.2,0.7,0l3.2,3.2c0.2,0.2,0.2,0.5,0,0.7C7.5,4.7,7.2,4.7,7,4.5L4.7,2.2V15
	c0,0.3-0.2,0.5-0.5,0.5S3.7,15.3,3.7,15V2.2L1.4,4.5c-0.2,0.2-0.5,0.2-0.7,0C0.5,4.3,0.5,4,0.6,3.8L3.8,0.6z M11.8,0.5
	c0.3,0,0.5,0.2,0.5,0.5v12.8l2.3-2.3c0.2-0.2,0.5-0.2,0.7,0c0.2,0.2,0.2,0.5,0,0.7l-3.2,3.2c-0.2,0.2-0.5,0.2-0.7,0l-3.2-3.2
	c-0.2-0.2-0.2-0.5,0-0.7c0.2-0.2,0.5-0.2,0.7,0l2.3,2.3V1C11.3,0.7,11.5,0.5,11.8,0.5z"/>
</svg>
