<svg xmlns="http://www.w3.org/2000/svg" width="24" height="24" viewBox="0 0 24 24">
	<path d="M6,0.5c0.3,0,0.5,0.2,0.5,0.5v22c0,0.3-0.2,0.5-0.5,0.5S5.5,23.3,5.5,23V1C5.5,0.7,5.7,0.5,6,0.5z"/>
	<path d="M5.6,0.6c0.2-0.2,0.5-0.2,0.7,0l5,5c0.2,0.2,0.2,0.5,0,0.7c-0.2,0.2-0.5,0.2-0.7,0L6,1.7L1.4,6.4
		c-0.2,0.2-0.5,0.2-0.7,0c-0.2-0.2-0.2-0.5,0-0.7L5.6,0.6z"/>
	<path d="M18,0.5c0.3,0,0.5,0.2,0.5,0.5v22c0,0.3-0.2,0.5-0.5,0.5s-0.5-0.2-0.5-0.5V1C17.5,0.7,17.7,0.5,18,0.5z"/>
	<path d="M12.6,17.6c0.2-0.2,0.5-0.2,0.7,0l4.6,4.6l4.6-4.6c0.2-0.2,0.5-0.2,0.7,0c0.2,0.2,0.2,0.5,0,0.7l-5,5
		c-0.2,0.2-0.5,0.2-0.7,0l-5-5C12.5,18.2,12.5,17.8,12.6,17.6z"/>
</svg>
