<svg xmlns="http://www.w3.org/2000/svg" width="24" height="24" viewBox="0 0 24 24">
  <path d="M16.9,5.1c1.3,0,2.4,1.1,2.4,2.3c0,1.3-1.1,2.3-2.4,2.3s-2.4-1.1-2.4-2.3C14.6,6.2,15.6,5.1,16.9,5.1L16.9,5.1
		z M19.1,10.6c-1.1,0-1.9,0.9-1.9,1.9c0,1.1,0.9,1.9,1.9,1.9c1.1,0,1.9-0.9,1.9-1.9S20.1,10.6,19.1,10.6L19.1,10.6z M16.9,16.2
		c-0.7,0-1.3,0.6-1.3,1.3c0,0.7,0.6,1.3,1.3,1.3s1.3-0.6,1.3-1.3C18.2,16.8,17.6,16.2,16.9,16.2L16.9,16.2z M11.7,18.3
		c-0.7,0-1.3,0.6-1.3,1.3c0,0.7,0.6,1.3,1.3,1.3s1.3-0.6,1.3-1.3C13.1,18.9,12.5,18.3,11.7,18.3L11.7,18.3z M6.5,16.3
		c-0.7,0-1.3,0.6-1.3,1.3c0,0.7,0.6,1.3,1.3,1.3s1.3-0.6,1.3-1.3C7.7,16.9,7.2,16.3,6.5,16.3L6.5,16.3z M4.3,11
		C3.6,11,3,11.6,3,12.4c0,0.7,0.6,1.3,1.3,1.3s1.3-0.6,1.3-1.3C5.7,11.6,5.1,11,4.3,11L4.3,11z M6.5,5.5c-0.9,0-1.7,0.8-1.7,1.7
		s0.8,1.7,1.7,1.7s1.7-0.8,1.7-1.7S7.4,5.5,6.5,5.5L6.5,5.5z M11.7,3c-1.1,0-2,0.9-2,2s0.9,2,2,2s2-0.9,2-2C13.8,3.9,12.9,3,11.7,3
		L11.7,3z"/>
</svg>