<svg xmlns="http://www.w3.org/2000/svg" width="16" height="16" viewBox="0 0 16 16">
  <path fill-rule="evenodd" d="M8 .167a.5.5 0 0 1 .453.288l2.218 4.752 4.729.63a.5.5 0 0 1 .287.85l-3.466 3.466 1.264 5.059a.5.5 0 0 1-.72.563L8 13.232l-4.765 2.541a.5.5 0 0 1-.72-.562l1.265-5.059L.313 6.687a.5.5 0 0 1 .288-.85l4.728-.63L7.547.455A.5.5 0 0 1 8 .167Zm0 1.682-1.88 4.03a.5.5 0 0 1-.387.283l-3.997.533 2.951 2.951a.5.5 0 0 1 .131.475l-1.06 4.241 4.007-2.137a.5.5 0 0 1 .47 0l4.007 2.137-1.06-4.24a.5.5 0 0 1 .131-.476l2.951-2.95-3.997-.534a.5.5 0 0 1-.387-.284L8 1.85Z" clip-rule="evenodd"/>
</svg>
