<svg xmlns="http://www.w3.org/2000/svg" width="16" height="16" viewBox="0 0 16 16">
  <path fill-rule="evenodd" d="M.833 3.333A3.167 3.167 0 0 1 4 .167h8a3.167 3.167 0 0 1 3.167 3.166v.28c.394.186.666.588.666 1.054v2c0 .465-.272.867-.666 1.054V12c0 .84-.564 1.547-1.334 1.764v.903c0 .644-.522 1.166-1.166 1.166h-2A1.167 1.167 0 0 1 9.5 14.667v-.834h-3v.834c0 .644-.522 1.166-1.167 1.166h-2a1.167 1.167 0 0 1-1.166-1.166v-.903A1.834 1.834 0 0 1 .833 12V7.721a1.167 1.167 0 0 1-.666-1.054v-2c0-.466.272-.868.666-1.055v-.279Zm1 .834H7.5V8.5H1.833V4.167Zm0 5.333V12c0 .46.374.833.834.833h10.666c.46 0 .834-.373.834-.833V9.5H1.833Zm12.334-1V4.167H8.5V8.5h5.667Zm-1.334 5.333H10.5v.834c0 .092.075.166.167.166h2a.167.167 0 0 0 .166-.166v-.834Zm-9.666 0v.834c0 .092.074.166.166.166h2a.167.167 0 0 0 .167-.166v-.834H3.167ZM1.84 3.167h12.32a2.167 2.167 0 0 0-2.16-2H4c-1.14 0-2.075.88-2.16 2Zm2.493 8a.167.167 0 1 0 0-.334.167.167 0 0 0 0 .334ZM3.5 11a.833.833 0 1 1 1.667 0A.833.833 0 0 1 3.5 11Zm8.167.167a.167.167 0 1 0 0-.334.167.167 0 0 0 0 .334ZM10.833 11a.833.833 0 1 1 1.667 0 .833.833 0 0 1-1.667 0Z" clip-rule="evenodd"/>
</svg>
