<svg xmlns="http://www.w3.org/2000/svg" width="24" height="24" viewBox="0 0 24 24">
  <path fill-rule="evenodd" d="M1.5 5A4.5 4.5 0 0 1 6 .5h12A4.5 4.5 0 0 1 22.5 5v.585A1.5 1.5 0 0 1 23.5 7v3a1.5 1.5 0 0 1-1 1.415V18a2.5 2.5 0 0 1-2 2.45V22a1.5 1.5 0 0 1-1.5 1.5h-3a1.5 1.5 0 0 1-1.5-1.5v-1.5h-5V22A1.5 1.5 0 0 1 8 23.5H5A1.5 1.5 0 0 1 3.5 22v-1.55a2.5 2.5 0 0 1-2-2.45v-6.585A1.5 1.5 0 0 1 .5 10V7a1.5 1.5 0 0 1 1-1.415V5Zm1 1v7h9V6h-9Zm19-1A3.5 3.5 0 0 0 18 1.5H6A3.5 3.5 0 0 0 2.5 5h19Zm0 1h-9v7h9V6Zm0 8h-19v4A1.5 1.5 0 0 0 4 19.5h16a1.5 1.5 0 0 0 1.5-1.5v-4Zm-2 6.5h-4V22a.5.5 0 0 0 .5.5h3a.5.5 0 0 0 .5-.5v-1.5Zm-15 0V22a.5.5 0 0 0 .5.5h3a.5.5 0 0 0 .5-.5v-1.5h-4Zm1-4a1 1 0 1 1 2 0 1 1 0 0 1-2 0Zm11 0a1 1 0 1 1 2 0 1 1 0 0 1-2 0Z" clip-rule="evenodd"/>
</svg>
