<svg xmlns="http://www.w3.org/2000/svg" width="24" height="24" viewBox="0 0 24 24">
  <path fill-rule="evenodd" d="M8 1.5A1.5 1.5 0 0 0 6.5 3v1.5h11V3A1.5 1.5 0 0 0 16 1.5H8Zm10.5 3H23a.5.5 0 0 1 0 1H1a.5.5 0 0 1 0-1h4.5V3A2.5 2.5 0 0 1 8 .5h8A2.5 2.5 0 0 1 18.5 3v1.5ZM3.967 7.501a.5.5 0 0 1 .532.466l.813 12.2A2.5 2.5 0 0 0 7.807 22.5h8.386a2.5 2.5 0 0 0 2.495-2.334l.813-12.2a.5.5 0 0 1 .998.067l-.813 12.2a3.5 3.5 0 0 1-3.493 3.267H7.807a3.5 3.5 0 0 1-3.493-3.267l-.813-12.2a.5.5 0 0 1 .466-.532Zm5.002 1a.5.5 0 0 1 .53.468l.5 8a.5.5 0 1 1-.998.062l-.5-8a.5.5 0 0 1 .468-.53Zm6.062 0a.5.5 0 0 1 .468.53l-.5 8a.5.5 0 1 1-.998-.062l.5-8a.5.5 0 0 1 .53-.468Z" clip-rule="evenodd"/>
</svg>
