<svg xmlns="http://www.w3.org/2000/svg" width="16" height="16" viewBox="0 0 16 16">
  <path fill-rule="evenodd" d="M5.333 1.167A.833.833 0 0 0 4.5 2v.833h7V2a.833.833 0 0 0-.833-.833H5.333ZM12.5 2.833V2c0-1.013-.82-1.833-1.833-1.833H5.333C4.321.167 3.5.987 3.5 2v.833H.667a.5.5 0 0 0 0 1h14.666a.5.5 0 0 0 0-1H12.5ZM2.633 4.834a.5.5 0 0 1 .533.466l.542 8.133a1.5 1.5 0 0 0 1.496 1.4h5.592a1.5 1.5 0 0 0 1.496-1.4l.542-8.133a.5.5 0 0 1 .998.067L13.29 13.5a2.5 2.5 0 0 1-2.494 2.333H5.204A2.5 2.5 0 0 1 2.71 13.5l-.542-8.133a.5.5 0 0 1 .465-.533Zm3.336.667a.5.5 0 0 1 .53.468l.333 5.333a.5.5 0 0 1-.998.063L5.501 6.03a.5.5 0 0 1 .468-.53Zm4.062 0a.5.5 0 0 1 .468.53l-.333 5.333a.5.5 0 0 1-.998-.062L9.5 5.97a.5.5 0 0 1 .53-.468Z" clip-rule="evenodd"/>
</svg>
