<svg xmlns="http://www.w3.org/2000/svg" width="24" height="24" viewBox="0 0 24 24">
  <path fill-rule="evenodd" d="M12 2.5a4.5 4.5 0 1 0 0 9 4.5 4.5 0 0 0 0-9ZM6.5 7a5.5 5.5 0 1 1 11 0 5.5 5.5 0 0 1-11 0Zm-3.368 9.928C4.167 16.008 5.56 15.5 7 15.5h10c1.44 0 2.833.508 3.868 1.428 1.036.921 1.632 2.185 1.632 3.516v2.223a.5.5 0 1 1-1 0v-2.223c0-1.025-.458-2.023-1.297-2.769-.84-.747-1.992-1.175-3.203-1.175H7c-1.211 0-2.363.428-3.203 1.175-.84.746-1.297 1.744-1.297 2.77v2.221a.5.5 0 1 1-1 0v-2.222c0-1.331.596-2.595 1.632-3.516Z" clip-rule="evenodd"/>
</svg>
