<svg xmlns="http://www.w3.org/2000/svg" width="16" height="16" viewBox="0 0 16 16">
<path d="M14.4,6.9H14V5.1c0-0.3-0.1-0.5-0.3-0.7c-0.2-0.2-0.4-0.3-0.7-0.3h-1.5l-0.1-1.4c0-0.1,0-0.3-0.1-0.4
	c-0.1-0.1-0.2-0.2-0.3-0.3c-0.1-0.1-0.2-0.1-0.4-0.2c-0.1,0-0.3,0-0.4,0L1.9,4.1c0,0,0,0-0.1,0c-0.2,0-0.3,0.1-0.5,0.2
	C1.2,4.6,1.1,4.8,1.1,5.1V13c0,0.3,0.1,0.5,0.3,0.7C1.6,13.9,1.9,14,2.1,14H13c0.3,0,0.5-0.1,0.7-0.3c0.2-0.2,0.3-0.4,0.3-0.7v-2.3
	h0.3c0.4,0,0.8-0.3,0.8-0.8V7.6C15.1,7.2,14.8,6.9,14.4,6.9z M10.5,2.8l0.1,1.3H5.7L10.5,2.8z M13,13L2.1,13l0-7.9l10.9,0v1.8h-2.7
	c-0.4,0-0.8,0.3-0.8,0.8V10c0,0.4,0.3,0.8,0.8,0.8H13L13,13z M14.1,9.7h-3.6V7.9h3.6V9.7z"/>
<path d="M11.7,8.3h-0.1c-0.3,0-0.5,0.2-0.5,0.5c0,0.3,0.2,0.5,0.5,0.5h0.1c0.3,0,0.5-0.2,0.5-0.5C12.2,8.5,12,8.3,11.7,8.3z"/>
</svg>
