<svg xmlns="http://www.w3.org/2000/svg" width="24" height="24" viewBox="0 0 24 24">
	<path d="M21.2,10.8h-0.7V7.9c0-0.3-0.1-0.7-0.4-0.9c-0.2-0.2-0.5-0.4-0.9-0.4h-2.4l-0.1-2.4c0-0.2,0-0.3-0.1-0.5
		c-0.1-0.2-0.2-0.3-0.3-0.4c-0.1-0.1-0.3-0.2-0.5-0.2c-0.2,0-0.3,0-0.5,0L2.9,6.7c0,0-0.1,0-0.1,0C2.6,6.8,2.4,6.9,2.3,7
		C2,7.3,1.9,7.6,1.9,7.9v11.6c0,0.3,0.1,0.6,0.4,0.9c0.2,0.2,0.6,0.4,0.9,0.4h16.1c0.3,0,0.6-0.1,0.9-0.4s0.4-0.5,0.4-0.9V16h0.7
		c0.5,0,0.9-0.4,0.9-0.9v-3.4C22.1,11.2,21.7,10.8,21.2,10.8z M15.7,4.1l0.1,2.4H6.7 M19.5,19.5c0,0.1,0,0.1-0.1,0.2
		s-0.1,0.1-0.2,0.1H3.1c-0.1,0-0.1,0-0.2-0.1c0,0-0.1-0.1-0.1-0.2V7.9c0-0.1,0-0.1,0.1-0.2s0.1-0.1,0.2-0.1h16.1
		c0.1,0,0.1,0,0.2,0.1c0,0,0.1,0.1,0.1,0.2v2.8h-4.3c-0.5,0-0.9,0.4-0.9,0.9v3.4c0,0.5,0.4,0.9,0.9,0.9h4.3V19.5z M21.1,15h-5.8
		v-3.2h5.8V15z"/>
	<path d="M17.3,12.9h-0.2c-0.3,0-0.5,0.2-0.5,0.5s0.2,0.5,0.5,0.5h0.2c0.3,0,0.5-0.2,0.5-0.5S17.6,12.9,17.3,12.9z"/>
</svg>
