<svg xmlns="http://www.w3.org/2000/svg" width="24" height="24" viewBox="0 0 24 24">
<path d="M21.2,22.3H3.3c-0.4,0-0.7-0.1-1-0.3c-0.5-0.3-0.9-0.7-1.1-1.3C1,20.1,1.1,19.6,1.4,19l9-16.6c0.4-0.7,1.1-1.1,1.9-1.1l0,0
	c0.8,0,1.5,0.4,1.9,1.1l9,16.6c0.2,0.3,0.3,0.7,0.3,1C23.4,21.3,22.4,22.3,21.2,22.3z M12.2,2.3c-0.4,0-0.8,0.2-1,0.6l-9,16.6
	c-0.1,0.3-0.2,0.6-0.1,0.9c0.1,0.3,0.3,0.6,0.6,0.7c0.2,0.1,0.4,0.1,0.6,0.1h17.9c0.7,0,1.2-0.5,1.2-1.2c0-0.2,0-0.4-0.1-0.6
	l-9-16.6C13.1,2.5,12.7,2.3,12.2,2.3L12.2,2.3z"/>
<path d="M12.2,19.2c-0.6,0-1.1-0.5-1.1-1.1s0.5-1.1,1.1-1.1s1.1,0.5,1.1,1.1l0,0C13.3,18.8,12.8,19.2,12.2,19.2z"/>
<path d="M12.2,15.8L12.2,15.8c-0.5,0-0.8-0.3-0.8-0.8l-0.3-6.3l0,0c0-0.6,0.5-1.1,1.1-1.1s1.1,0.5,1.1,1.1L13,15.2
	C13,15.5,12.7,15.8,12.2,15.8z"/>
</svg>
