<svg xmlns="http://www.w3.org/2000/svg" width="16" height="16" viewBox="0 0 16 16">
<path d="M13.8,15H2.2c-0.3,0-0.5-0.1-0.8-0.2c-0.4-0.2-0.6-0.5-0.8-0.9c-0.1-0.4-0.1-0.8,0.1-1.2L6.6,1.8C6.9,1.3,7.4,1,8,1
	s1.1,0.3,1.4,0.8l5.8,10.8c0.1,0.2,0.2,0.5,0.2,0.8C15.4,14.3,14.7,15,13.8,15z M8,2C7.8,2,7.6,2.1,7.5,2.3L1.7,13.1
	c-0.1,0.1-0.1,0.3,0,0.5c0,0.2,0.1,0.3,0.3,0.4C2,14,2.1,14,2.2,14h11.6c0.3,0,0.6-0.3,0.6-0.6c0-0.1,0-0.2-0.1-0.3L8.5,2.3
	C8.4,2.1,8.2,2,8,2z"/>
<path d="M8,10.6L8,10.6c-0.3,0-0.5-0.2-0.5-0.5L7.3,6c0,0,0,0,0,0c0-0.4,0.3-0.7,0.7-0.7c0.4,0,0.7,0.3,0.7,0.7l-0.2,4.2
	C8.5,10.4,8.3,10.6,8,10.6z"/>
<path d="M8,12.8c-0.4,0-0.7-0.3-0.7-0.7s0.3-0.7,0.7-0.7s0.7,0.3,0.7,0.7S8.4,12.8,8,12.8z"/>
</svg>
