<svg xmlns="http://www.w3.org/2000/svg" width="16" height="16" viewBox="0 0 16 16">
<path d="M15.3,12.9l-6-11.1C9,1.3,8.5,1,8,1C7.5,1,7,1.3,6.7,1.8l-6,11.1c-0.2,0.3-0.2,0.7-0.1,1.1c0.1,0.4,0.4,0.7,0.7,0.9
	C1.5,14.9,1.8,15,2,15H14c0.8,0,1.5-0.7,1.5-1.5C15.4,13.3,15.4,13.1,15.3,12.9z M7.5,5.6L7.5,5.6c0-0.3,0.2-0.5,0.5-0.5
	c0.3,0,0.6,0.3,0.5,0.6L8.3,9.9c0,0.2-0.2,0.3-0.3,0.3c-0.2,0-0.3-0.1-0.3-0.3L7.5,5.6C7.5,5.6,7.5,5.6,7.5,5.6z M8,12.7
	c-0.4,0-0.7-0.3-0.7-0.7c0-0.4,0.3-0.7,0.7-0.7c0.4,0,0.7,0.3,0.7,0.7C8.7,12.4,8.4,12.7,8,12.7z"/>
</svg>
