<svg xmlns="http://www.w3.org/2000/svg" width="24" height="24" viewBox="0 0 24 24">
<path d="M22.9,19.3l-9-16.6c-0.4-0.7-1.1-1.1-1.9-1.1c-0.8,0-1.5,0.4-1.9,1.1l-9,16.6c-0.3,0.5-0.3,1.1-0.2,1.7
	c0.2,0.6,0.5,1,1.1,1.3c0.3,0.2,0.7,0.3,1,0.3H21c1.2,0,2.2-1,2.2-2.2C23.1,20,23.1,19.6,22.9,19.3z M11.2,8.4L11.2,8.4
	c0-0.4,0.3-0.7,0.8-0.8c0.5,0,0.8,0.4,0.8,0.8l-0.3,6.4c0,0.3-0.2,0.5-0.5,0.5s-0.5-0.2-0.5-0.5L11.2,8.4
	C11.2,8.4,11.2,8.4,11.2,8.4z M12,19c-0.6,0-1.1-0.5-1.1-1.1c0-0.6,0.5-1.1,1.1-1.1c0.6,0,1.1,0.5,1.1,1.1C13.1,18.6,12.6,19,12,19z
	"/>
<path d="M12.4,8.4L12.4,8.4L12.4,8.4C12.4,8.4,12.4,8.4,12.4,8.4z"/>
</svg>
