<svg xmlns="http://www.w3.org/2000/svg" width="24" height="24" viewBox="0 0 24 24">
  <path fill-rule="evenodd" d="M12 1.5C6.201 1.5 1.5 6.201 1.5 12S6.201 22.5 12 22.5 22.5 17.799 22.5 12 17.799 1.5 12 1.5ZM.5 12C.5 5.649 5.649.5 12 .5S23.5 5.649 23.5 12 18.351 23.5 12 23.5.5 18.351.5 12Zm6.146-5.354a.5.5 0 0 1 .708 0L12 11.293l4.646-4.647a.5.5 0 0 1 .708.708L12.707 12l4.647 4.646a.5.5 0 0 1-.708.708L12 12.707l-4.646 4.647a.5.5 0 0 1-.708-.707L11.293 12 6.646 7.354a.5.5 0 0 1 0-.708Z" clip-rule="evenodd"/>
</svg>
